<svg version="1.1" id="Layer_1" xmlns="http://www.w3.org/2000/svg" xmlns:xlink="http://www.w3.org/1999/xlink" x="0px" y="0px"
	 width="100%" viewBox="0 0 600 600" enable-background="new 0 0 600 600" xml:space="preserve">
<path fill="#000000" opacity="1.000000" stroke="none" 
	d="
M333.000000,601.000000 
	C222.000000,601.000000 111.500000,601.000000 1.000000,601.000000 
	C1.000000,401.000000 1.000000,201.000000 1.000000,1.000000 
	C201.000000,1.000000 401.000000,1.000000 601.000000,1.000000 
	C601.000000,201.000000 601.000000,401.000000 601.000000,601.000000 
	C511.833344,601.000000 422.666656,601.000000 333.000000,601.000000 
M171.761429,381.464844 
	C171.159149,381.376068 170.556854,381.287262 169.195679,381.019012 
	C167.466110,380.797638 165.736542,380.576294 163.319458,380.379517 
	C158.376663,381.828613 155.918869,385.449188 155.563492,390.273773 
	C155.213043,395.031006 157.730698,398.438660 162.653671,400.899139 
	C164.712494,400.923889 166.771317,400.948608 169.537933,400.962830 
	C170.369614,400.566956 171.201309,400.171112 172.663849,399.566650 
	C178.826126,393.563049 178.588654,386.374054 171.761429,381.464844 
M324.943848,142.969559 
	C324.943848,142.969559 324.959595,142.888840 325.598755,142.678375 
	C333.332855,135.082764 334.237427,125.822235 327.757721,117.365906 
	C326.446472,116.269363 325.135193,115.172829 323.445068,113.575653 
	C322.295959,113.120026 321.146851,112.664398 319.286285,111.907753 
	C317.525391,111.656952 315.764496,111.406143 313.225983,111.031731 
	C311.472870,111.432755 309.719727,111.833778 307.444336,112.207611 
	C307.205292,112.436493 306.966278,112.665375 306.756897,112.807014 
	C306.756897,112.807014 306.675964,112.762978 306.008484,112.915329 
	C292.258087,119.954330 293.912109,138.887344 305.390961,144.561707 
	C306.931580,145.033600 308.472198,145.505478 310.018768,146.043182 
	C310.018768,146.043182 310.083862,146.031631 310.228363,146.305374 
	C310.228363,146.305374 310.478363,146.485138 310.478363,146.485138 
	C310.478363,146.485138 310.775635,146.404663 311.576172,146.730560 
	C312.721130,146.704956 313.866058,146.679337 315.721252,146.797546 
	C317.478577,146.201813 319.235901,145.606079 321.596436,144.966476 
	C322.077667,144.649857 322.558868,144.333252 323.593719,143.937180 
	C324.016998,143.608658 324.440277,143.280136 324.943848,142.969559 
M400.759277,462.306305 
	C399.170959,461.328369 397.582642,460.350433 395.302948,459.085541 
	C393.864594,458.783936 392.426239,458.482330 390.164062,458.040192 
	C387.789368,458.422882 385.414703,458.805542 382.337891,459.188507 
	C375.875977,462.127869 371.632202,466.815948 371.018890,474.119354 
	C370.371246,481.831116 372.947235,488.021637 380.535004,492.395447 
	C382.688568,492.906067 384.842133,493.416687 387.558746,494.266693 
	C389.037323,494.121979 390.515869,493.977264 392.723480,493.943237 
	C394.472870,493.252228 396.222290,492.561188 398.637909,491.765625 
	C408.358246,484.626617 410.100189,473.251923 402.587006,464.232727 
	C402.587006,464.232727 402.180664,464.129150 401.963196,463.571320 
	C401.652191,463.340607 401.341156,463.109894 400.759277,462.306305 
M189.140823,363.676819 
	C190.296127,365.634918 191.451447,367.592987 192.558441,369.469177 
	C182.080826,380.303925 179.452576,390.845947 184.403580,401.463837 
	C189.155777,411.655334 198.861633,417.407227 210.777481,416.739014 
	C218.083603,415.939545 223.949295,412.365875 228.657944,407.082916 
	C232.971451,409.604279 236.933487,411.920197 241.331772,414.746490 
	C253.706375,420.045502 266.080994,425.344513 279.326447,431.016418 
	C279.326447,434.410980 279.326447,439.196259 279.250305,444.759399 
	C283.081512,466.403992 295.458344,480.179230 317.595673,485.869812 
	C325.151398,487.370087 332.633362,487.323486 340.735565,484.824097 
	C349.018768,482.074646 356.525269,478.124329 362.630035,470.766205 
	C370.532288,463.204163 372.025452,452.647858 375.452271,442.875366 
	C378.743286,443.870605 381.871887,444.816742 385.779175,445.977997 
	C395.783203,448.764526 405.856842,448.965485 416.761841,446.829529 
	C438.337891,441.788940 454.565399,429.556885 463.669037,409.389160 
	C476.296753,381.414215 470.616455,354.062958 448.895905,331.529938 
	C447.659363,330.247131 446.907684,327.728668 447.136627,325.939667 
	C447.956726,319.531128 449.741852,313.231934 450.359131,306.814178 
	C452.567047,283.859344 450.258423,261.466339 440.928986,239.363464 
	C437.138794,231.580048 433.348572,223.796631 429.428192,215.745895 
	C444.731445,202.052612 452.370026,184.656113 450.914795,163.772415 
	C449.628967,145.319290 441.808960,130.220963 426.236084,118.932777 
	C419.210297,112.953011 411.206635,109.114906 401.231079,107.790199 
	C395.820770,107.303543 390.410461,106.816887 384.246094,106.224823 
	C383.760590,106.353401 383.275085,106.481979 382.360382,106.491661 
	C382.038818,106.504036 381.778442,106.636711 380.781372,106.769936 
	C374.521088,108.642342 368.260803,110.514740 361.365753,112.573303 
	C345.822754,120.774445 335.039398,132.977798 329.648682,149.862640 
	C329.311584,150.918503 327.238770,151.420212 325.045868,152.037521 
	C315.794800,151.984604 306.486877,151.274780 297.309204,152.069489 
	C288.686859,152.816101 280.202087,155.151871 270.908386,156.886551 
	C261.938477,160.591187 252.968536,164.295822 243.321045,168.215454 
	C233.547333,175.295471 223.773621,182.375488 213.433395,189.725632 
	C207.051163,196.733765 200.668930,203.741898 194.242569,210.798477 
	C179.385315,200.194839 163.710663,198.710358 148.301956,208.840500 
	C134.606735,217.844177 128.623474,231.437347 131.724289,247.618042 
	C135.647614,268.090515 149.587982,278.019806 169.128616,279.970764 
	C169.770996,291.050110 169.737289,301.867371 171.161819,312.489075 
	C173.575623,330.486816 179.085922,347.583832 189.140823,363.676819 
z"/>
<path fill="#E44515" opacity="1.000000" stroke="none" 
	d="
M271.656799,156.788391 
	C280.202087,155.151871 288.686859,152.816101 297.309204,152.069489 
	C306.486877,151.274780 315.794800,151.984604 325.514343,152.543900 
	C325.324463,157.241318 324.520050,161.415512 324.033997,165.626450 
	C322.293701,180.704117 320.661194,195.794235 318.574402,210.936737 
	C315.003326,211.850739 311.519623,212.125122 308.750244,213.675461 
	C300.931915,218.052292 293.371307,222.896408 285.776672,227.663910 
	C279.229095,231.774109 277.344238,238.661835 280.924347,244.798248 
	C284.220367,250.447708 291.404633,252.005051 298.066162,248.464264 
	C300.173126,247.344360 302.210480,246.093506 304.585693,244.726471 
	C304.585693,262.048004 304.585693,278.524750 304.232483,295.059265 
	C302.959076,296.357300 301.449646,297.495422 301.214081,298.854370 
	C299.667297,307.777924 298.582123,316.782288 296.996979,325.698212 
	C293.094757,347.646881 294.133820,370.182251 288.970154,391.988403 
	C287.986298,396.143219 288.065125,400.541595 287.527100,404.811646 
	C286.050415,416.531372 284.422028,428.232758 283.055542,439.964935 
	C282.759216,442.509277 282.220917,444.163239 279.326447,443.981537 
	C279.326447,439.196259 279.326447,434.410980 279.326447,431.016418 
	C266.080994,425.344513 253.706375,420.045502 241.300323,414.161438 
	C242.179123,410.471191 243.358139,407.413818 243.920761,404.246887 
	C244.438889,401.330383 244.079269,398.267059 244.477890,395.318634 
	C246.587128,379.717529 249.003540,364.155762 250.934433,348.533478 
	C252.275833,337.680725 252.789856,326.726746 254.078796,315.866089 
	C255.052338,307.663055 256.946136,299.569672 257.931152,291.367523 
	C259.413055,279.027679 260.259125,266.611237 261.756165,254.273529 
	C262.853333,245.231705 264.831116,236.296829 265.931427,227.255280 
	C267.432739,214.918625 268.393677,202.517227 269.737518,190.160034 
	C270.703278,181.279266 271.850739,172.416290 273.077301,163.567566 
	C273.309082,161.895523 274.294159,160.327896 275.030396,158.461761 
	C274.001190,157.951248 272.828979,157.369827 271.656799,156.788391 
z"/>
<path fill="#E13417" opacity="1.000000" stroke="none" 
	d="
M318.987915,210.879639 
	C320.661194,195.794235 322.293701,180.704117 324.033997,165.626450 
	C324.520050,161.415512 325.324463,157.241318 325.978180,152.615005 
	C327.238770,151.420212 329.311584,150.918503 329.648682,149.862640 
	C335.039398,132.977798 345.822754,120.774445 361.682861,112.866806 
	C362.212677,117.928375 362.858673,122.725693 362.539368,127.457863 
	C362.026062,135.064163 360.855438,142.625214 359.998627,150.209457 
	C359.086334,158.284332 358.322906,166.377502 357.300812,174.438141 
	C355.966156,184.963669 354.313354,195.449554 353.034485,205.981277 
	C351.779236,216.318710 350.944122,226.707291 349.678131,237.043243 
	C349.079773,241.928223 347.598145,246.708618 347.056763,251.596237 
	C345.943115,261.650574 345.455566,271.777344 344.225830,281.814972 
	C342.715393,294.143951 340.527893,306.389282 338.969910,318.713348 
	C337.430450,330.890259 336.493835,343.143402 334.953857,355.320221 
	C333.518616,366.668945 331.410767,377.933350 330.013153,389.285889 
	C328.452698,401.961060 327.556335,414.717865 326.000641,427.393738 
	C324.710388,437.906586 323.034607,448.379486 321.246460,458.821625 
	C319.718384,467.745148 321.379669,477.191162 316.881287,485.624207 
	C295.458344,480.179230 283.081512,466.403992 279.288391,444.370483 
	C282.220917,444.163239 282.759216,442.509277 283.055542,439.964935 
	C284.422028,428.232758 286.050415,416.531372 287.527100,404.811646 
	C288.065125,400.541595 287.986298,396.143219 288.970154,391.988403 
	C294.133820,370.182251 293.094757,347.646881 296.996979,325.698212 
	C298.582123,316.782288 299.667297,307.777924 301.214081,298.854370 
	C301.449646,297.495422 302.959076,296.357300 304.322876,295.520386 
	C304.745941,315.301056 304.725464,334.678345 304.635925,354.167419 
	C304.507629,354.559357 304.594147,354.788086 304.952057,355.303070 
	C308.177002,362.763702 313.530518,366.015594 319.804871,364.586548 
	C325.575897,363.272095 328.990723,358.172852 328.992889,350.717926 
	C329.005127,308.778290 329.009033,266.838654 328.991364,224.899017 
	C328.987976,216.820877 326.690521,213.674057 318.987915,210.879639 
z"/>
<path fill="#DA101B" opacity="1.000000" stroke="none" 
	d="
M415.994446,446.791626 
	C405.856842,448.965485 395.783203,448.764526 385.422485,445.496887 
	C386.207764,438.023285 387.419586,431.041290 388.477112,424.036011 
	C390.680328,409.440704 393.373169,394.889435 394.820801,380.217072 
	C396.902405,359.119751 398.713989,338.044952 402.671936,317.153503 
	C404.816437,305.834045 404.906250,294.129700 406.011597,282.607483 
	C406.769806,274.703888 407.530853,266.795441 408.557098,258.923920 
	C410.246399,245.966812 412.255280,233.051239 413.929718,220.092361 
	C415.074402,211.233276 415.756042,202.314728 416.876892,193.452133 
	C417.726959,186.730316 419.187164,180.082336 419.946533,173.353058 
	C421.616150,158.557480 422.972229,143.726761 424.556366,128.921082 
	C424.890625,125.796852 425.653900,122.718521 426.219543,119.619049 
	C441.808960,130.220963 449.628967,145.319290 450.914795,163.772415 
	C452.370026,184.656113 444.731445,202.052612 429.428192,215.745895 
	C433.348572,223.796631 437.138794,231.580048 440.835754,240.066010 
	C439.498108,245.537552 437.696838,250.239136 437.109528,255.087738 
	C435.016724,272.366150 433.509247,289.715149 431.450104,306.998077 
	C429.527008,323.139099 427.029907,339.211304 425.069031,355.348297 
	C423.089691,371.637329 421.335632,387.956451 419.712738,404.285248 
	C418.306183,418.437439 417.221436,432.621582 415.994446,446.791626 
z"/>
<path fill="#DD1C1A" opacity="1.000000" stroke="none" 
	d="
M426.227814,119.275909 
	C425.653900,122.718521 424.890625,125.796852 424.556366,128.921082 
	C422.972229,143.726761 421.616150,158.557480 419.946533,173.353058 
	C419.187164,180.082336 417.726959,186.730316 416.876892,193.452133 
	C415.756042,202.314728 415.074402,211.233276 413.929718,220.092361 
	C412.255280,233.051239 410.246399,245.966812 408.557098,258.923920 
	C407.530853,266.795441 406.769806,274.703888 406.011597,282.607483 
	C404.906250,294.129700 404.816437,305.834045 402.671936,317.153503 
	C398.713989,338.044952 396.902405,359.119751 394.820801,380.217072 
	C393.373169,394.889435 390.680328,409.440704 388.477112,424.036011 
	C387.419586,431.041290 386.207764,438.023285 385.033142,445.389343 
	C381.871887,444.816742 378.743286,443.870605 375.452271,442.875366 
	C372.025452,452.647858 370.532288,463.204163 362.202332,470.548737 
	C361.228516,466.139740 359.819946,461.850403 360.282227,457.773224 
	C362.560516,437.679962 365.479553,417.660248 367.887970,397.580475 
	C369.802917,381.614990 371.345917,365.604156 372.975037,349.605408 
	C373.596405,343.503479 373.753723,337.346497 374.565521,331.273834 
	C375.435974,324.762085 377.025177,318.347870 377.942627,311.840607 
	C379.123566,303.464569 379.371338,294.918213 381.088898,286.667480 
	C382.805237,278.422638 378.793945,269.396973 384.689697,261.753235 
	C385.360138,260.883972 384.868256,259.154602 385.007874,257.833801 
	C386.400818,244.656036 387.693420,231.466095 389.255371,218.308197 
	C390.678955,206.315796 392.468811,194.367355 393.973969,182.384048 
	C395.953857,166.621063 397.925873,150.855438 399.680756,135.066437 
	C400.685364,126.027451 401.252716,116.939865 402.016968,107.874161 
	C411.206635,109.114906 419.210297,112.953011 426.227814,119.275909 
z"/>
<path fill="#DF2B19" opacity="1.000000" stroke="none" 
	d="
M317.238464,485.747009 
	C321.379669,477.191162 319.718384,467.745148 321.246460,458.821625 
	C323.034607,448.379486 324.710388,437.906586 326.000641,427.393738 
	C327.556335,414.717865 328.452698,401.961060 330.013153,389.285889 
	C331.410767,377.933350 333.518616,366.668945 334.953857,355.320221 
	C336.493835,343.143402 337.430450,330.890259 338.969910,318.713348 
	C340.527893,306.389282 342.715393,294.143951 344.225830,281.814972 
	C345.455566,271.777344 345.943115,261.650574 347.056763,251.596237 
	C347.598145,246.708618 349.079773,241.928223 349.678131,237.043243 
	C350.944122,226.707291 351.779236,216.318710 353.034485,205.981277 
	C354.313354,195.449554 355.966156,184.963669 357.300812,174.438141 
	C358.322906,166.377502 359.086334,158.284332 359.998627,150.209457 
	C360.855438,142.625214 362.026062,135.064163 362.539368,127.457863 
	C362.858673,122.725693 362.212677,117.928375 362.000244,112.773727 
	C368.260803,110.514740 374.521088,108.642342 381.390076,106.807953 
	C382.272705,106.802086 382.536285,106.723610 382.789581,106.610550 
	C383.275085,106.481979 383.760590,106.353401 384.621338,106.694031 
	C384.369629,113.929840 383.882324,120.713089 383.078186,127.458565 
	C382.197266,134.847885 380.895508,142.187119 380.019562,149.576920 
	C379.356018,155.174942 379.292358,160.846176 378.577118,166.435593 
	C376.833374,180.062332 374.783630,193.649811 373.020142,207.274200 
	C371.977173,215.331802 371.360107,223.444092 370.346680,231.506042 
	C368.633240,245.136566 366.703552,258.739807 364.970825,272.368042 
	C363.987579,280.101562 363.341309,287.878632 362.319061,295.606415 
	C360.647766,308.241241 358.668121,320.835754 357.048370,333.476715 
	C355.049500,349.076721 353.256653,364.703400 351.429199,380.324921 
	C349.907227,393.335419 348.489197,406.358032 346.978058,419.369781 
	C345.599823,431.237610 344.617737,443.176727 342.603729,454.937592 
	C340.903442,464.866089 338.422882,474.625397 339.997192,484.801147 
	C332.633362,487.323486 325.151398,487.370087 317.238464,485.747009 
z"/>
<path fill="#E64D14" opacity="1.000000" stroke="none" 
	d="
M271.282593,156.837463 
	C272.828979,157.369827 274.001190,157.951248 275.030396,158.461761 
	C274.294159,160.327896 273.309082,161.895523 273.077301,163.567566 
	C271.850739,172.416290 270.703278,181.279266 269.737518,190.160034 
	C268.393677,202.517227 267.432739,214.918625 265.931427,227.255280 
	C264.831116,236.296829 262.853333,245.231705 261.756165,254.273529 
	C260.259125,266.611237 259.413055,279.027679 257.931152,291.367523 
	C256.946136,299.569672 255.052338,307.663055 254.078796,315.866089 
	C252.789856,326.726746 252.275833,337.680725 250.934433,348.533478 
	C249.003540,364.155762 246.587128,379.717529 244.477890,395.318634 
	C244.079269,398.267059 244.438889,401.330383 243.920761,404.246887 
	C243.358139,407.413818 242.179123,410.471191 241.082214,413.906250 
	C236.933487,411.920197 232.971451,409.604279 228.657944,407.082916 
	C223.949295,412.365875 218.083603,415.939545 210.539566,416.396118 
	C211.581909,413.874847 213.595154,411.823669 213.999481,409.493317 
	C215.045151,403.466888 215.364059,397.315521 216.004700,391.217346 
	C216.749878,384.124023 216.608932,376.780304 218.482376,369.995239 
	C222.503571,355.431732 222.921906,340.562988 224.053223,325.708771 
	C224.569153,318.934906 224.749222,311.947144 226.621872,305.504089 
	C230.517227,292.101837 230.375031,278.306152 231.980240,264.686066 
	C232.892395,256.946411 233.492065,249.169495 234.433395,241.433807 
	C236.213715,226.803406 237.999771,212.171021 240.057816,197.578140 
	C241.232971,189.245514 243.009430,180.999039 244.367111,172.689590 
	C244.612656,171.186737 244.139816,169.566513 243.998627,168.000458 
	C252.968536,164.295822 261.938477,160.591187 271.282593,156.837463 
z"/>
<path fill="#E75B10" opacity="1.000000" stroke="none" 
	d="
M189.052139,363.002808 
	C179.085922,347.583832 173.575623,330.486816 171.161819,312.489075 
	C169.737289,301.867371 169.770996,291.050110 169.128616,279.970764 
	C149.587982,278.019806 135.647614,268.090515 131.724289,247.618042 
	C128.623474,231.437347 134.606735,217.844177 148.301956,208.840500 
	C163.710663,198.710358 179.385315,200.194839 194.242569,210.798477 
	C200.668930,203.741898 207.051163,196.733765 213.792938,189.903641 
	C212.939117,198.671692 211.698944,207.258057 210.519073,215.852692 
	C208.989670,226.993469 207.395615,238.127136 206.038315,249.289261 
	C204.706818,260.239288 203.771866,271.237854 202.413925,282.184235 
	C201.109619,292.698059 199.411469,303.162476 198.029984,313.667511 
	C197.152023,320.343781 196.549774,327.056122 195.799316,333.749512 
	C194.876297,341.982391 193.834122,350.203400 193.043655,358.448730 
	C192.785583,361.140594 192.110321,362.990753 189.052139,363.002808 
z"/>
<path fill="#DE231A" opacity="1.000000" stroke="none" 
	d="
M340.366394,484.812622 
	C338.422882,474.625397 340.903442,464.866089 342.603729,454.937592 
	C344.617737,443.176727 345.599823,431.237610 346.978058,419.369781 
	C348.489197,406.358032 349.907227,393.335419 351.429199,380.324921 
	C353.256653,364.703400 355.049500,349.076721 357.048370,333.476715 
	C358.668121,320.835754 360.647766,308.241241 362.319061,295.606415 
	C363.341309,287.878632 363.987579,280.101562 364.970825,272.368042 
	C366.703552,258.739807 368.633240,245.136566 370.346680,231.506042 
	C371.360107,223.444092 371.977173,215.331802 373.020142,207.274200 
	C374.783630,193.649811 376.833374,180.062332 378.577118,166.435593 
	C379.292358,160.846176 379.356018,155.174942 380.019562,149.576920 
	C380.895508,142.187119 382.197266,134.847885 383.078186,127.458565 
	C383.882324,120.713089 384.369629,113.929840 384.998352,106.746735 
	C390.410461,106.816887 395.820770,107.303543 401.624023,107.832184 
	C401.252716,116.939865 400.685364,126.027451 399.680756,135.066437 
	C397.925873,150.855438 395.953857,166.621063 393.973969,182.384048 
	C392.468811,194.367355 390.678955,206.315796 389.255371,218.308197 
	C387.693420,231.466095 386.400818,244.656036 385.007874,257.833801 
	C384.868256,259.154602 385.360138,260.883972 384.689697,261.753235 
	C378.793945,269.396973 382.805237,278.422638 381.088898,286.667480 
	C379.371338,294.918213 379.123566,303.464569 377.942627,311.840607 
	C377.025177,318.347870 375.435974,324.762085 374.565521,331.273834 
	C373.753723,337.346497 373.596405,343.503479 372.975037,349.605408 
	C371.345917,365.604156 369.802917,381.614990 367.887970,397.580475 
	C365.479553,417.660248 362.560516,437.679962 360.282227,457.773224 
	C359.819946,461.850403 361.228516,466.139740 361.895996,470.695374 
	C356.525269,478.124329 349.018768,482.074646 340.366394,484.812622 
z"/>
<path fill="#E65412" opacity="1.000000" stroke="none" 
	d="
M189.096481,363.339813 
	C192.110321,362.990753 192.785583,361.140594 193.043655,358.448730 
	C193.834122,350.203400 194.876297,341.982391 195.799316,333.749512 
	C196.549774,327.056122 197.152023,320.343781 198.029984,313.667511 
	C199.411469,303.162476 201.109619,292.698059 202.413925,282.184235 
	C203.771866,271.237854 204.706818,260.239288 206.038315,249.289261 
	C207.395615,238.127136 208.989670,226.993469 210.519073,215.852692 
	C211.698944,207.258057 212.939117,198.671692 214.076202,189.768570 
	C223.773621,182.375488 233.547333,175.295471 243.659836,168.107971 
	C244.139816,169.566513 244.612656,171.186737 244.367111,172.689590 
	C243.009430,180.999039 241.232971,189.245514 240.057816,197.578140 
	C237.999771,212.171021 236.213715,226.803406 234.433395,241.433807 
	C233.492065,249.169495 232.892395,256.946411 231.980240,264.686066 
	C230.375031,278.306152 230.517227,292.101837 226.621872,305.504089 
	C224.749222,311.947144 224.569153,318.934906 224.053223,325.708771 
	C222.921906,340.562988 222.503571,355.431732 218.482376,369.995239 
	C216.608932,376.780304 216.749878,384.124023 216.004700,391.217346 
	C215.364059,397.315521 215.045151,403.466888 213.999481,409.493317 
	C213.595154,411.823669 211.581909,413.874847 210.155655,416.345825 
	C198.861633,417.407227 189.155777,411.655334 184.403580,401.463837 
	C179.452576,390.845947 182.080826,380.303925 192.558441,369.469177 
	C191.451447,367.592987 190.296127,365.634918 189.096481,363.339813 
z"/>
<path fill="#D5031C" opacity="1.000000" stroke="none" 
	d="
M416.378143,446.810577 
	C417.221436,432.621582 418.306183,418.437439 419.712738,404.285248 
	C421.335632,387.956451 423.089691,371.637329 425.069031,355.348297 
	C427.029907,339.211304 429.527008,323.139099 431.450104,306.998077 
	C433.509247,289.715149 435.016724,272.366150 437.109528,255.087738 
	C437.696838,250.239136 439.498108,245.537552 440.861450,240.429703 
	C450.258423,261.466339 452.567047,283.859344 450.359131,306.814178 
	C449.741852,313.231934 447.956726,319.531128 447.136627,325.939667 
	C446.907684,327.728668 447.659363,330.247131 448.895905,331.529938 
	C470.616455,354.062958 476.296753,381.414215 463.669037,409.389160 
	C454.565399,429.556885 438.337891,441.788940 416.378143,446.810577 
z"/>
<path fill="#E65412" opacity="1.000000" stroke="none" 
	d="
M380.029663,491.865295 
	C372.947235,488.021637 370.371246,481.831116 371.018890,474.119354 
	C371.632202,466.815948 375.875977,462.127869 382.935791,459.432678 
	C383.800568,461.337097 384.490417,463.057373 384.264526,464.647644 
	C382.973511,473.737335 381.464569,482.796051 380.029663,491.865295 
z"/>
<path fill="#E44515" opacity="1.000000" stroke="none" 
	d="
M380.282349,492.130371 
	C381.464569,482.796051 382.973511,473.737335 384.264526,464.647644 
	C384.490417,463.057373 383.800568,461.337097 383.286835,459.432556 
	C385.414703,458.805542 387.789368,458.422882 390.577881,458.546509 
	C389.659668,470.677643 388.327667,482.302490 386.995697,493.927307 
	C384.842133,493.416687 382.688568,492.906067 380.282349,492.130371 
z"/>
<path fill="#E75B10" opacity="1.000000" stroke="none" 
	d="
M304.989288,143.988998 
	C293.912109,138.887344 292.258087,119.954330 306.411957,113.256271 
	C307.032227,115.564178 307.573273,117.558609 307.409393,119.493347 
	C306.717041,127.668251 305.814819,135.825378 304.989288,143.988998 
z"/>
<path fill="#E44515" opacity="1.000000" stroke="none" 
	d="
M305.190125,144.275360 
	C305.814819,135.825378 306.717041,127.668251 307.409393,119.493347 
	C307.573273,117.558609 307.032227,115.564178 306.745697,113.180092 
	C306.675964,112.762978 306.756897,112.807014 306.962219,112.764023 
	C307.456329,112.595787 307.722687,112.433708 307.966614,112.234802 
	C309.719727,111.833778 311.472870,111.432755 313.613251,111.512833 
	C312.671295,123.321739 311.342072,134.649551 310.012817,145.977356 
	C308.472198,145.505478 306.931580,145.033600 305.190125,144.275360 
z"/>
<path fill="#E13417" opacity="1.000000" stroke="none" 
	d="
M310.015808,146.010269 
	C311.342072,134.649551 312.671295,123.321739 314.002075,111.574631 
	C315.764496,111.406143 317.525391,111.656952 319.607849,112.395454 
	C319.524139,114.594154 318.971741,116.285324 318.738068,118.019447 
	C317.452667,127.558403 316.245209,137.107864 315.011017,146.653717 
	C313.866058,146.679337 312.721130,146.704956 311.070312,146.490814 
	C310.413116,146.158508 310.252930,146.085358 310.083862,146.031631 
	C310.083862,146.031631 310.018768,146.043182 310.015808,146.010269 
z"/>
<path fill="#E13417" opacity="1.000000" stroke="none" 
	d="
M387.277222,494.096985 
	C388.327667,482.302490 389.659668,470.677643 390.989777,458.616791 
	C392.426239,458.482330 393.864594,458.783936 395.647888,459.662964 
	C395.140503,467.576599 394.298401,474.914093 393.431549,482.248627 
	C392.974854,486.112579 392.474884,489.971405 391.994446,493.832550 
	C390.515869,493.977264 389.037323,494.121979 387.277222,494.096985 
z"/>
<path fill="#DE231A" opacity="1.000000" stroke="none" 
	d="
M392.358948,493.887878 
	C392.474884,489.971405 392.974854,486.112579 393.431549,482.248627 
	C394.298401,474.914093 395.140503,467.576599 395.993591,459.806427 
	C397.582642,460.350433 399.170959,461.328369 401.053284,462.827454 
	C401.625061,463.608795 401.902863,463.868958 402.180664,464.129150 
	C402.180664,464.129150 402.587006,464.232727 402.340393,464.672913 
	C401.431824,466.391052 400.331268,467.619446 400.180359,468.955139 
	C399.318970,476.579376 398.683746,484.229126 397.971710,491.870178 
	C396.222290,492.561188 394.472870,493.252228 392.358948,493.887878 
z"/>
<path fill="#DA101B" opacity="1.000000" stroke="none" 
	d="
M398.304810,491.817932 
	C398.683746,484.229126 399.318970,476.579376 400.180359,468.955139 
	C400.331268,467.619446 401.431824,466.391052 402.446350,464.853851 
	C410.100189,473.251923 408.358246,484.626617 398.304810,491.817932 
z"/>
<path fill="#DF2B19" opacity="1.000000" stroke="none" 
	d="
M315.366150,146.725632 
	C316.245209,137.107864 317.452667,127.558403 318.738068,118.019447 
	C318.971741,116.285324 319.524139,114.594154 319.963562,112.545959 
	C321.146851,112.664398 322.295959,113.120026 323.491943,114.097778 
	C323.196472,117.398834 322.747711,120.169540 322.532410,122.958267 
	C321.965210,130.304794 321.499390,137.659134 320.993225,145.010345 
	C319.235901,145.606079 317.478577,146.201813 315.366150,146.725632 
z"/>
<path fill="#DD1C1A" opacity="1.000000" stroke="none" 
	d="
M321.294800,144.988419 
	C321.499390,137.659134 321.965210,130.304794 322.532410,122.958267 
	C322.747711,120.169540 323.196472,117.398834 323.681396,114.348099 
	C325.135193,115.172829 326.446472,116.269363 327.799744,118.073502 
	C326.881042,126.817017 325.920319,134.852936 324.959595,142.888840 
	C324.959595,142.888840 324.943848,142.969559 324.640808,143.025970 
	C323.905182,143.393814 323.472656,143.705215 323.040100,144.016632 
	C322.558868,144.333252 322.077667,144.649857 321.294800,144.988419 
z"/>
<path fill="#E65412" opacity="1.000000" stroke="none" 
	d="
M161.970215,400.560211 
	C157.730698,398.438660 155.213043,395.031006 155.563492,390.273773 
	C155.918869,385.449188 158.376663,381.828613 163.657562,380.792084 
	C163.320511,387.656494 162.645370,394.108368 161.970215,400.560211 
z"/>
<path fill="#E44515" opacity="1.000000" stroke="none" 
	d="
M162.311951,400.729675 
	C162.645370,394.108368 163.320511,387.656494 164.001312,380.779785 
	C165.736542,380.576294 167.466110,380.797638 169.496231,381.482971 
	C168.894089,388.259552 165.622009,394.451813 168.830139,400.973328 
	C166.771317,400.948608 164.712494,400.923889 162.311951,400.729675 
z"/>
<path fill="#D5031C" opacity="1.000000" stroke="none" 
	d="
M325.279175,142.783600 
	C325.920319,134.852936 326.881042,126.817017 327.927429,118.371590 
	C334.237427,125.822235 333.332855,135.082764 325.279175,142.783600 
z"/>
<path fill="#DE231A" opacity="1.000000" stroke="none" 
	d="
M169.184036,400.968079 
	C165.622009,394.451813 168.894089,388.259552 169.875671,381.572693 
	C170.556854,381.287262 171.159149,381.376068 172.101532,382.057495 
	C172.944168,384.496155 173.973511,386.381012 173.840881,388.180206 
	C173.554245,392.068512 172.671738,395.912903 172.032990,399.775269 
	C171.201309,400.171112 170.369614,400.566956 169.184036,400.968079 
z"/>
<path fill="#D5031C" opacity="1.000000" stroke="none" 
	d="
M172.348419,399.670959 
	C172.671738,395.912903 173.554245,392.068512 173.840881,388.180206 
	C173.973511,386.381012 172.944168,384.496155 172.262726,382.328613 
	C178.588654,386.374054 178.826126,393.563049 172.348419,399.670959 
z"/>
<path fill="#D5031C" opacity="1.000000" stroke="none" 
	d="
M323.316895,143.976898 
	C323.472656,143.705215 323.905182,143.393814 324.600647,143.016998 
	C324.440277,143.280136 324.016998,143.608658 323.316895,143.976898 
z"/>
<path fill="#DF2B19" opacity="1.000000" stroke="none" 
	d="
M310.156128,146.168503 
	C310.252930,146.085358 310.413116,146.158508 310.670044,146.327866 
	C310.775635,146.404663 310.478363,146.485138 310.478363,146.485138 
	C310.478363,146.485138 310.228363,146.305374 310.156128,146.168503 
z"/>
<path fill="#E75B10" opacity="1.000000" stroke="none" 
	d="
M307.705475,112.221207 
	C307.722687,112.433708 307.456329,112.595787 306.947388,112.807640 
	C306.966278,112.665375 307.205292,112.436493 307.705475,112.221207 
z"/>
<path fill="#DA101B" opacity="1.000000" stroke="none" 
	d="
M402.071930,463.850220 
	C401.902863,463.868958 401.625061,463.608795 401.188721,463.113892 
	C401.341156,463.109894 401.652191,463.340607 402.071930,463.850220 
z"/>
<path fill="#DE231A" opacity="1.000000" stroke="none" 
	d="
M382.574982,106.551102 
	C382.536285,106.723610 382.272705,106.802086 381.789001,106.867836 
	C381.778442,106.636711 382.038818,106.504036 382.574982,106.551102 
z"/>
<path fill="#FFFEFD" opacity="1.000000" stroke="none" 
	d="
M318.574402,210.936737 
	C326.690521,213.674057 328.987976,216.820877 328.991364,224.899017 
	C329.009033,266.838654 329.005127,308.778290 328.992889,350.717926 
	C328.990723,358.172852 325.575897,363.272095 319.804871,364.586548 
	C313.530518,366.015594 308.177002,362.763702 304.993225,355.066284 
	C304.908691,354.491791 304.705017,354.055634 304.705017,354.055634 
	C304.725464,334.678345 304.745941,315.301056 304.676056,295.462646 
	C304.585693,278.524750 304.585693,262.048004 304.585693,244.726471 
	C302.210480,246.093506 300.173126,247.344360 298.066162,248.464264 
	C291.404633,252.005051 284.220367,250.447708 280.924347,244.798248 
	C277.344238,238.661835 279.229095,231.774109 285.776672,227.663910 
	C293.371307,222.896408 300.931915,218.052292 308.750244,213.675461 
	C311.519623,212.125122 315.003326,211.850739 318.574402,210.936737 
z"/>
<path fill="#E44515" opacity="1.000000" stroke="none" 
	d="
M304.635925,354.167419 
	C304.705017,354.055634 304.908691,354.491791 304.867554,354.728577 
	C304.594147,354.788086 304.507629,354.559357 304.635925,354.167419 
z"/>
</svg>