<svg version="1.1" id="Layer_1" xmlns="http://www.w3.org/2000/svg" xmlns:xlink="http://www.w3.org/1999/xlink" x="0px" y="0px"
	 width="100%" viewBox="0 0 600 600" enable-background="new 0 0 600 600" xml:space="preserve">
<path fill="#000000" opacity="1.000000" stroke="none" 
	d="
M332.000000,601.000000 
	C221.333328,601.000000 111.166664,601.000000 1.000000,601.000000 
	C1.000000,401.000000 1.000000,201.000000 1.000000,1.000000 
	C201.000000,1.000000 401.000000,1.000000 601.000000,1.000000 
	C601.000000,201.000000 601.000000,401.000000 601.000000,601.000000 
	C511.500000,601.000000 422.000000,601.000000 332.000000,601.000000 
M307.000000,113.000694 
	C307.000000,113.000694 306.996918,112.991821 306.396973,113.027718 
	C305.933350,113.346367 305.469727,113.665016 304.992371,113.989037 
	C304.992371,113.989037 304.982483,113.999985 304.312164,114.127304 
	C293.867218,122.025154 293.704163,136.273712 304.243866,143.619537 
	C305.195190,144.071777 306.146515,144.524033 307.528229,145.490662 
	C308.390564,145.661133 309.252899,145.831604 310.738739,146.462204 
	C314.435394,145.956879 318.132050,145.451553 322.481384,144.907776 
	C323.328094,144.272781 324.174805,143.637787 325.511871,142.883911 
	C325.853058,142.513519 326.194214,142.143112 326.763184,141.695236 
	C326.763184,141.695236 326.813049,141.459824 327.317322,141.066559 
	C333.334991,134.333740 333.924988,126.657555 328.806885,118.388573 
	C328.098053,117.601021 327.389221,116.813461 326.315399,115.488762 
	C323.879669,114.324913 321.443909,113.161057 318.460083,111.404106 
	C315.356201,111.606949 312.252319,111.809792 309.045807,111.990059 
	C309.045807,111.990059 309.015625,112.090706 308.415924,112.065079 
	C307.940857,112.375061 307.465759,112.685043 307.000000,113.000694 
M422.972595,445.008026 
	C422.972595,445.008026 422.977234,444.952606 423.627502,444.976532 
	C424.390778,444.642242 425.154083,444.307953 426.474121,443.951965 
	C426.645660,443.880829 426.817230,443.809662 427.680542,443.591461 
	C432.779419,440.692566 437.878326,437.793701 443.610352,434.680847 
	C445.398376,433.206879 447.292175,431.842957 448.958069,430.241943 
	C465.628418,414.220947 472.398560,394.469543 469.714722,371.762054 
	C468.330444,360.049896 464.270844,349.011200 455.904419,339.312378 
	C453.592834,336.731720 451.052216,334.313477 449.061371,331.505432 
	C447.984039,329.985901 447.018341,327.606659 447.409180,325.946472 
	C451.770874,307.420380 452.843445,288.805847 449.691193,269.197815 
	C449.512634,268.700500 449.334076,268.203156 449.338135,267.502472 
	C449.301300,267.295746 449.179810,267.171997 448.985931,266.323730 
	C448.867584,265.531097 448.749237,264.738464 448.669189,263.245697 
	C448.107300,261.518066 447.545380,259.790405 446.987488,257.252289 
	C442.559082,245.979538 438.202362,234.677490 433.625153,223.465500 
	C432.936279,221.778152 431.217102,220.511414 430.009857,219.020325 
	C430.009857,219.020325 429.963867,219.017380 429.993622,218.271286 
	C429.832458,217.550323 429.671295,216.829346 429.872253,215.486694 
	C430.857269,214.445297 431.842255,213.403885 433.358185,212.041809 
	C445.359589,200.099869 451.325806,185.441467 451.490173,168.733109 
	C451.605072,157.051926 449.140961,145.726227 441.907501,135.257416 
	C438.336823,131.050491 434.766113,126.843567 430.976166,122.094254 
	C430.325928,121.709534 429.675690,121.324814 428.827393,120.391548 
	C428.210419,119.951393 427.593414,119.511238 426.597412,118.503441 
	C421.063782,115.673370 415.530121,112.843292 409.525635,109.455421 
	C406.681183,108.744926 403.836731,108.034431 400.080414,107.077728 
	C393.719757,107.107895 387.359131,107.138062 380.175232,107.029358 
	C373.783173,109.108299 367.391083,111.187248 360.326691,113.405571 
	C356.566315,116.014519 352.805969,118.623474 348.438965,121.471718 
	C341.551819,128.138626 335.378876,135.098450 332.466095,144.715317 
	C330.023743,152.778992 329.417999,152.570419 320.454529,151.423340 
	C318.987946,151.235657 317.480377,151.367828 315.317749,151.186539 
	C314.861084,151.239014 314.404449,151.291473 313.242767,151.158691 
	C312.521820,151.220871 311.800842,151.283066 310.375977,151.174637 
	C309.899567,151.229904 309.423157,151.285187 308.242218,151.156387 
	C307.522644,151.216492 306.803101,151.276611 305.372101,151.176392 
	C304.892242,151.231705 304.412415,151.287033 303.212860,151.192413 
	C301.825714,151.463684 300.438568,151.734955 298.179260,151.998978 
	C295.456451,152.349335 292.733612,152.699677 289.161713,153.010544 
	C280.106476,155.366959 271.051270,157.723358 261.249023,160.086502 
	C255.157242,163.036774 249.065460,165.987030 242.255325,169.042267 
	C232.204330,174.442383 222.885300,180.834015 214.328506,189.195435 
	C207.800476,196.402374 201.272430,203.609314 194.838791,210.712036 
	C191.980331,209.211960 188.940353,207.616608 185.435867,205.459854 
	C178.364365,202.985992 171.338348,201.571045 163.639359,202.868576 
	C146.512283,205.755051 133.155746,219.485962 131.529816,237.721802 
	C129.993927,254.947723 139.771881,270.491364 155.611847,276.741455 
	C160.123993,278.521851 165.107224,279.108337 170.024933,280.278137 
	C170.024933,281.891541 169.933762,283.540619 170.039902,285.176880 
	C170.681503,295.068115 171.368240,304.956451 172.004990,315.699402 
	C175.415161,334.862762 181.612152,352.925751 192.924194,369.612640 
	C184.153275,377.412018 180.076553,386.945007 183.712357,398.460785 
	C187.093430,409.169769 194.797348,415.291412 206.925858,416.828644 
	C208.870743,416.666809 210.814728,416.492920 212.760696,416.345398 
	C219.907089,415.803589 224.660263,410.846985 230.349182,407.593079 
	C238.576340,412.058258 246.803513,416.523407 255.467865,421.557068 
	C263.634521,424.070862 271.801208,426.584656 280.005585,429.938995 
	C280.006897,435.492065 279.314331,441.151917 280.149048,446.576752 
	C282.094971,459.223877 287.986023,469.763306 299.237152,477.646698 
	C303.525116,479.757385 307.813080,481.868073 312.538330,484.432190 
	C313.348755,484.563293 314.159210,484.694397 315.477142,484.976685 
	C315.653656,484.977356 315.830170,484.978027 316.550903,485.548248 
	C322.699860,485.643219 328.848846,485.738190 335.789093,485.953705 
	C343.262939,484.619629 350.161713,481.991638 356.638214,476.764954 
	C360.106232,472.545898 363.574249,468.326843 367.673218,463.818787 
	C370.669495,457.011292 373.665741,450.203766 376.785522,443.115540 
	C379.196075,443.818787 382.595825,444.810638 386.738647,446.095734 
	C391.491028,446.674805 396.243408,447.253876 401.912964,447.976929 
	C407.951172,447.252563 413.989349,446.528229 420.657288,445.897583 
	C421.416901,445.587036 422.176514,445.276489 422.972595,445.008026 
M173.718094,398.858368 
	C178.706482,392.835114 178.781418,388.533020 173.653839,382.545044 
	C172.443771,382.023438 171.233688,381.501862 169.546432,380.377441 
	C168.030273,380.331757 166.514130,380.286072 164.286469,380.216797 
	C159.182175,381.716400 156.195663,385.000732 155.997879,390.420105 
	C155.834427,394.899170 157.452454,398.406403 162.334183,400.649292 
	C163.253021,400.775055 164.171875,400.900787 165.571533,401.501526 
	C168.059052,400.675079 170.546555,399.848633 173.718094,398.858368 
M389.200409,458.027283 
	C388.126282,458.142944 387.052155,458.258606 385.265869,458.333466 
	C376.395538,461.380981 371.437378,467.034027 371.133514,474.748444 
	C370.828217,482.498901 373.749939,488.509979 381.418915,492.570557 
	C383.271759,492.988525 385.124634,493.406464 387.561005,494.023071 
	C388.704468,494.000671 389.847900,493.978271 391.765656,494.008636 
	C393.848907,493.326355 395.932129,492.644073 398.691803,491.885834 
	C409.285919,484.261780 410.618317,472.499481 401.582184,462.653229 
	C400.365112,461.866913 399.148041,461.080597 397.275055,459.929443 
	C394.851959,459.342590 392.428833,458.755707 389.200409,458.027283 
z"/>
<path fill="#F4990C" opacity="1.000000" stroke="none" 
	d="
M380.998474,107.168228 
	C387.359131,107.138062 393.719757,107.107895 400.533966,107.609543 
	C399.662079,116.137955 398.105469,124.104378 397.057373,132.137161 
	C394.564880,151.240143 393.004425,170.493195 389.748932,189.459290 
	C387.061523,205.115540 388.011810,221.247864 383.159851,236.565720 
	C383.015167,237.022491 382.940460,237.638779 383.128845,238.042816 
	C385.512177,243.154205 383.101501,247.801498 382.367065,252.810059 
	C380.251740,267.235474 379.491791,281.854614 377.949524,296.371124 
	C377.093140,304.431915 375.817963,312.452118 374.576233,320.466553 
	C373.868469,325.034332 372.693176,329.530182 372.001434,334.099762 
	C370.638336,343.104156 369.135040,352.107910 368.327057,361.168732 
	C367.765930,367.461060 364.315460,373.698212 367.658752,380.241730 
	C368.167908,381.238312 367.121857,383.047485 366.753906,384.470154 
	C366.178131,386.696442 365.304016,388.880035 365.015900,391.140320 
	C363.631683,402.000946 362.259277,412.866943 361.168091,423.759674 
	C360.464447,430.783295 360.368011,437.865906 359.774902,444.903168 
	C359.470398,448.516724 359.254883,452.312012 357.979218,455.633392 
	C355.285461,462.647064 354.210785,469.629150 355.997650,476.972229 
	C350.161713,481.991638 343.262939,484.619629 335.423828,485.485870 
	C335.081940,479.590820 334.607513,474.105896 335.228607,468.747986 
	C336.678619,456.240051 338.735535,443.803894 340.397339,431.318787 
	C342.354858,416.611816 344.136658,401.881561 346.030701,387.166046 
	C346.978973,379.798462 348.007324,372.441193 349.404724,364.997467 
	C357.459076,364.538300 361.667419,361.525330 363.072205,355.420563 
	C364.558289,348.962433 362.084503,344.507874 354.921509,340.504150 
	C354.749420,338.339966 354.407410,336.526123 354.599579,334.770813 
	C355.660828,325.076080 356.822174,315.391937 358.010071,305.711578 
	C358.776001,299.469788 359.756592,293.252808 360.436279,287.002441 
	C361.027100,281.569550 361.378967,276.108124 361.682739,270.650757 
	C361.711578,270.132721 360.643860,269.553619 360.080017,268.598755 
	C360.642670,261.148773 361.210510,254.102890 362.035736,246.816528 
	C363.430878,244.576355 365.300110,242.669968 365.569305,240.559479 
	C366.379822,234.205612 367.287323,227.722992 366.853241,221.379807 
	C365.838501,206.551407 370.306976,192.428009 371.575104,177.912292 
	C372.479919,167.555161 373.822815,157.235794 375.009491,146.904068 
	C375.479797,142.809464 376.032623,138.723801 376.589478,134.639725 
	C377.530212,127.739777 378.779938,120.865677 379.316254,113.935547 
	C379.507355,111.466064 378.687897,109.020546 380.998474,107.168228 
z"/>
<path fill="#FAC207" opacity="1.000000" stroke="none" 
	d="
M261.996033,160.079773 
	C271.051270,157.723358 280.106476,155.366959 289.583954,153.475342 
	C288.800781,166.431229 287.533997,178.916809 286.410583,191.415283 
	C285.607300,200.352585 280.634338,208.769150 283.085815,218.082260 
	C283.074005,218.058716 283.121735,218.079758 282.802979,218.077789 
	C282.111877,218.771790 281.739502,219.467758 281.181305,220.451126 
	C272.415375,227.846588 266.466614,236.530136 264.825562,247.784454 
	C263.436707,257.309204 265.822876,261.099579 275.069336,264.369568 
	C275.410156,266.395752 276.060944,268.069214 275.879242,269.646759 
	C274.461243,281.957458 272.770966,294.237061 271.388092,306.551361 
	C270.155579,317.527191 269.208374,328.535004 267.997131,339.814331 
	C258.617310,350.277740 258.503082,356.125366 266.989838,363.872314 
	C262.194763,365.916809 263.525024,370.218140 263.160553,373.479828 
	C262.487274,379.505463 263.083557,385.669220 262.470154,391.706238 
	C261.652191,399.756104 260.007141,407.719727 259.090576,415.762909 
	C258.762634,418.640717 258.133789,420.592010 255.030685,420.988556 
	C246.803513,416.523407 238.576340,412.058258 230.506256,407.201904 
	C233.693207,405.310150 234.758209,403.208252 234.190842,399.600220 
	C233.605469,395.877716 233.811005,391.931854 234.280151,388.159515 
	C236.386673,371.221130 238.825882,354.324036 240.925217,337.384796 
	C243.368530,317.669922 245.545929,297.922241 247.907059,278.196960 
	C250.208221,258.972565 252.587738,239.757492 254.947754,220.540146 
	C256.642639,206.738495 258.405487,192.945038 260.051178,179.137573 
	C260.806854,172.797775 261.354218,166.433151 261.996033,160.079773 
z"/>
<path fill="#F0850D" opacity="1.000000" stroke="none" 
	d="
M400.995789,447.832916 
	C396.243408,447.253876 391.491028,446.674805 386.433655,445.613281 
	C385.782715,442.423065 384.909271,439.660889 385.182159,437.017029 
	C386.355377,425.651001 387.826996,414.314911 389.260742,402.976837 
	C392.150299,380.125977 395.142944,357.288025 397.979126,334.430603 
	C399.447845,322.593903 400.614685,310.720001 402.029816,298.876312 
	C402.914856,291.469299 404.079163,284.095917 404.992676,276.691986 
	C406.614929,263.544281 408.075378,250.376450 409.729553,237.232910 
	C411.054810,226.702728 412.697632,216.211716 413.960419,205.674652 
	C415.318268,194.343994 416.381744,182.978241 417.601929,171.630829 
	C419.053711,158.129227 420.256683,144.591125 422.169769,131.154587 
	C422.763672,126.983192 425.319061,123.091057 426.976440,119.071075 
	C427.593414,119.511238 428.210419,119.951393 428.937897,120.981270 
	C429.764069,121.926208 430.479767,122.281418 431.195435,122.636642 
	C434.766113,126.843567 438.336823,131.050491 441.933411,136.022217 
	C441.459229,141.893860 441.008026,147.006088 440.448639,152.106445 
	C439.329803,162.306702 438.345673,172.527451 436.930786,182.687500 
	C435.967743,189.603226 436.247833,196.727844 432.568237,203.254517 
	C431.221069,205.643997 429.281036,209.457733 432.827271,212.362488 
	C431.842255,213.403885 430.857269,214.445297 429.495667,215.975388 
	C429.400665,217.315170 429.682281,218.166275 429.963867,219.017380 
	C429.963867,219.017380 430.009857,219.020325 429.971313,219.427124 
	C429.288513,224.886932 428.492310,229.926392 428.039551,234.996521 
	C427.508881,240.939117 427.434753,246.923370 426.872253,252.862061 
	C426.278992,259.125458 425.543182,265.389862 424.506775,271.593170 
	C423.207672,279.368683 421.100647,287.027161 420.115417,294.833679 
	C417.549774,315.163391 415.371399,335.542450 413.107056,355.909454 
	C411.679169,368.752747 410.664459,381.648621 408.944702,394.451111 
	C406.549866,412.279266 403.668762,430.042114 400.995789,447.832916 
z"/>
<path fill="#FACA05" opacity="1.000000" stroke="none" 
	d="
M261.622528,160.083145 
	C261.354218,166.433151 260.806854,172.797775 260.051178,179.137573 
	C258.405487,192.945038 256.642639,206.738495 254.947754,220.540146 
	C252.587738,239.757492 250.208221,258.972565 247.907059,278.196960 
	C245.545929,297.922241 243.368530,317.669922 240.925217,337.384796 
	C238.825882,354.324036 236.386673,371.221130 234.280151,388.159515 
	C233.811005,391.931854 233.605469,395.877716 234.190842,399.600220 
	C234.758209,403.208252 233.693207,405.310150 230.340515,406.907440 
	C224.660263,410.846985 219.907089,415.803589 212.760696,416.345398 
	C210.814728,416.492920 208.870743,416.666809 206.748566,416.570007 
	C207.713776,413.291382 209.327621,410.356720 209.892700,407.232300 
	C210.834778,402.023651 210.946960,396.671112 211.690811,391.419128 
	C213.358795,379.642365 215.558029,367.930450 216.887634,356.118591 
	C218.906097,338.186981 220.368958,320.192841 222.073669,302.225830 
	C222.120682,301.730316 222.247208,301.242920 222.314514,300.748688 
	C224.213348,286.809875 226.215424,272.883942 227.964996,258.926392 
	C228.975616,250.863998 229.380554,242.725159 230.413391,234.666245 
	C231.759460,224.163345 233.117172,213.640747 235.095718,203.245743 
	C237.288620,191.724426 235.123428,179.160629 242.973694,168.937286 
	C249.065460,165.987030 255.157242,163.036774 261.622528,160.083145 
z"/>
<path fill="#F28E0C" opacity="1.000000" stroke="none" 
	d="
M426.786926,118.787262 
	C425.319061,123.091057 422.763672,126.983192 422.169769,131.154587 
	C420.256683,144.591125 419.053711,158.129227 417.601929,171.630829 
	C416.381744,182.978241 415.318268,194.343994 413.960419,205.674652 
	C412.697632,216.211716 411.054810,226.702728 409.729553,237.232910 
	C408.075378,250.376450 406.614929,263.544281 404.992676,276.691986 
	C404.079163,284.095917 402.914856,291.469299 402.029816,298.876312 
	C400.614685,310.720001 399.447845,322.593903 397.979126,334.430603 
	C395.142944,357.288025 392.150299,380.125977 389.260742,402.976837 
	C387.826996,414.314911 386.355377,425.651001 385.182159,437.017029 
	C384.909271,439.660889 385.782715,442.423065 386.062134,445.466614 
	C382.595825,444.810638 379.196075,443.818787 376.785522,443.115540 
	C373.665741,450.203766 370.669495,457.011292 367.287292,463.590881 
	C366.739502,462.064789 366.328430,460.741852 366.454681,459.472321 
	C367.582611,448.132782 368.775879,436.799469 370.021088,425.472137 
	C370.325836,422.700317 370.891418,419.957123 371.338104,417.200958 
	C372.179779,412.007690 373.136261,406.829559 373.820801,401.615692 
	C374.220459,398.571838 374.002533,395.448181 374.381226,392.400055 
	C375.502594,383.374603 376.802338,374.371429 377.991760,365.354187 
	C378.617249,360.612122 379.258575,355.868408 379.711700,351.108215 
	C380.267914,345.266052 380.626892,339.405273 381.092743,333.554260 
	C381.158356,332.730408 381.361176,331.918365 381.475586,331.097412 
	C383.325287,317.822083 385.319031,304.564545 386.963715,291.263824 
	C388.000671,282.878174 387.083679,273.963928 389.626221,266.124512 
	C392.770966,256.428345 392.363678,246.578506 393.793884,236.866730 
	C396.467438,218.711990 397.944580,200.383560 400.138641,182.153763 
	C400.610046,178.237244 402.504761,174.481842 402.894958,170.567612 
	C404.160919,157.868073 404.787262,145.102921 406.148773,132.415482 
	C406.955597,124.897003 408.683014,117.477310 409.996490,110.013214 
	C415.530121,112.843292 421.063782,115.673370 426.786926,118.787262 
z"/>
<path fill="#FBD004" opacity="1.000000" stroke="none" 
	d="
M242.614502,168.989777 
	C235.123428,179.160629 237.288620,191.724426 235.095718,203.245743 
	C233.117172,213.640747 231.759460,224.163345 230.413391,234.666245 
	C229.380554,242.725159 228.975616,250.863998 227.964996,258.926392 
	C226.215424,272.883942 224.213348,286.809875 222.314514,300.748688 
	C222.247208,301.242920 222.120682,301.730316 222.073669,302.225830 
	C220.368958,320.192841 218.906097,338.186981 216.887634,356.118591 
	C215.558029,367.930450 213.358795,379.642365 211.690811,391.419128 
	C210.946960,396.671112 210.834778,402.023651 209.892700,407.232300 
	C209.327621,410.356720 207.713776,413.291382 206.334625,416.457886 
	C194.797348,415.291412 187.093430,409.169769 183.712357,398.460785 
	C180.076553,386.945007 184.153275,377.412018 193.101776,368.966095 
	C194.191055,364.602417 195.507446,360.930725 195.931183,357.158752 
	C196.845657,349.018677 198.954391,341.102142 198.296127,332.643951 
	C197.716232,325.193115 199.344086,317.567841 200.039642,310.023529 
	C200.129211,309.051971 200.458710,308.099884 200.704544,307.145844 
	C201.798538,302.899902 203.373489,298.714447 203.904190,294.400085 
	C204.984985,285.613403 204.914352,276.654541 206.434082,267.961700 
	C207.751099,260.428467 209.258759,253.136856 208.173080,245.386719 
	C207.687653,241.921494 208.530960,238.091324 209.505630,234.633804 
	C212.462372,224.145004 216.143921,213.826401 213.763107,202.613708 
	C213.442154,201.102219 214.083633,199.393814 214.236771,197.772568 
	C214.507660,194.904846 214.745743,192.034027 214.997559,189.164505 
	C222.885300,180.834015 232.204330,174.442383 242.614502,168.989777 
z"/>
<path fill="#EE7D0D" opacity="1.000000" stroke="none" 
	d="
M401.454376,447.904907 
	C403.668762,430.042114 406.549866,412.279266 408.944702,394.451111 
	C410.664459,381.648621 411.679169,368.752747 413.107056,355.909454 
	C415.371399,335.542450 417.549774,315.163391 420.115417,294.833679 
	C421.100647,287.027161 423.207672,279.368683 424.506775,271.593170 
	C425.543182,265.389862 426.278992,259.125458 426.872253,252.862061 
	C427.434753,246.923370 427.508881,240.939117 428.039551,234.996521 
	C428.492310,229.926392 429.288513,224.886932 429.953674,219.442017 
	C431.217102,220.511414 432.936279,221.778152 433.625153,223.465500 
	C438.202362,234.677490 442.559082,245.979538 446.981567,258.024475 
	C447.527374,260.513031 448.079132,262.229431 448.630890,263.945831 
	C448.749237,264.738464 448.867584,265.531097 448.996216,266.827454 
	C449.006500,267.331207 449.155518,267.705811 449.155518,267.705811 
	C449.334076,268.203156 449.512634,268.700500 449.373291,269.753967 
	C447.370178,278.838440 445.375458,287.320404 444.087982,295.908386 
	C442.836578,304.255829 442.501465,312.736664 441.421112,321.114685 
	C439.769257,333.924622 437.595001,346.669281 436.057404,359.491394 
	C434.006226,376.596619 432.357300,393.750000 430.526398,410.881714 
	C429.355835,421.834900 428.168610,432.786316 426.988800,443.738525 
	C426.817230,443.809662 426.645660,443.880829 425.928589,443.926392 
	C424.581146,444.251404 423.779175,444.601990 422.977234,444.952606 
	C422.977234,444.952606 422.972595,445.008026 422.642639,444.992737 
	C421.550964,445.252930 420.789276,445.528381 420.027557,445.803864 
	C413.989349,446.528229 407.951172,447.252563 401.454376,447.904907 
z"/>
<path fill="#FCD603" opacity="1.000000" stroke="none" 
	d="
M214.663025,189.179962 
	C214.745743,192.034027 214.507660,194.904846 214.236771,197.772568 
	C214.083633,199.393814 213.442154,201.102219 213.763107,202.613708 
	C216.143921,213.826401 212.462372,224.145004 209.505630,234.633804 
	C208.530960,238.091324 207.687653,241.921494 208.173080,245.386719 
	C209.258759,253.136856 207.751099,260.428467 206.434082,267.961700 
	C204.914352,276.654541 204.984985,285.613403 203.904190,294.400085 
	C203.373489,298.714447 201.798538,302.899902 200.704544,307.145844 
	C200.458710,308.099884 200.129211,309.051971 200.039642,310.023529 
	C199.344086,317.567841 197.716232,325.193115 198.296127,332.643951 
	C198.954391,341.102142 196.845657,349.018677 195.931183,357.158752 
	C195.507446,360.930725 194.191055,364.602417 193.151367,368.624695 
	C181.612152,352.925751 175.415161,334.862762 172.002304,314.872650 
	C172.812439,308.231812 173.438812,302.384064 174.480423,296.611237 
	C176.172607,287.232727 178.785919,277.973846 179.811996,268.534210 
	C180.944244,258.117859 179.164261,247.578506 182.793594,237.155655 
	C184.969803,230.905960 184.697159,223.752960 185.154404,216.980911 
	C185.330276,214.375977 184.948090,211.508804 183.965668,209.111252 
	C182.914139,206.545013 183.856949,206.176559 185.900375,206.021255 
	C188.940353,207.616608 191.980331,209.211960 194.838791,210.712036 
	C201.272430,203.609314 207.800476,196.402374 214.663025,189.179962 
z"/>
<path fill="#F2920C" opacity="1.000000" stroke="none" 
	d="
M409.761047,109.734314 
	C408.683014,117.477310 406.955597,124.897003 406.148773,132.415482 
	C404.787262,145.102921 404.160919,157.868073 402.894958,170.567612 
	C402.504761,174.481842 400.610046,178.237244 400.138641,182.153763 
	C397.944580,200.383560 396.467438,218.711990 393.793884,236.866730 
	C392.363678,246.578506 392.770966,256.428345 389.626221,266.124512 
	C387.083679,273.963928 388.000671,282.878174 386.963715,291.263824 
	C385.319031,304.564545 383.325287,317.822083 381.475586,331.097412 
	C381.361176,331.918365 381.158356,332.730408 381.092743,333.554260 
	C380.626892,339.405273 380.267914,345.266052 379.711700,351.108215 
	C379.258575,355.868408 378.617249,360.612122 377.991760,365.354187 
	C376.802338,374.371429 375.502594,383.374603 374.381226,392.400055 
	C374.002533,395.448181 374.220459,398.571838 373.820801,401.615692 
	C373.136261,406.829559 372.179779,412.007690 371.338104,417.200958 
	C370.891418,419.957123 370.325836,422.700317 370.021088,425.472137 
	C368.775879,436.799469 367.582611,448.132782 366.454681,459.472321 
	C366.328430,460.741852 366.739502,462.064789 366.971832,463.735352 
	C363.574249,468.326843 360.106232,472.545898 356.317932,476.868591 
	C354.210785,469.629150 355.285461,462.647064 357.979218,455.633392 
	C359.254883,452.312012 359.470398,448.516724 359.774902,444.903168 
	C360.368011,437.865906 360.464447,430.783295 361.168091,423.759674 
	C362.259277,412.866943 363.631683,402.000946 365.015900,391.140320 
	C365.304016,388.880035 366.178131,386.696442 366.753906,384.470154 
	C367.121857,383.047485 368.167908,381.238312 367.658752,380.241730 
	C364.315460,373.698212 367.765930,367.461060 368.327057,361.168732 
	C369.135040,352.107910 370.638336,343.104156 372.001434,334.099762 
	C372.693176,329.530182 373.868469,325.034332 374.576233,320.466553 
	C375.817963,312.452118 377.093140,304.431915 377.949524,296.371124 
	C379.491791,281.854614 380.251740,267.235474 382.367065,252.810059 
	C383.101501,247.801498 385.512177,243.154205 383.128845,238.042816 
	C382.940460,237.638779 383.015167,237.022491 383.159851,236.565720 
	C388.011810,221.247864 387.061523,205.115540 389.748932,189.459290 
	C393.004425,170.493195 394.564880,151.240143 397.057373,132.137161 
	C398.105469,124.104378 399.662079,116.137955 400.989899,107.732651 
	C403.836731,108.034431 406.681183,108.744926 409.761047,109.734314 
z"/>
<path fill="#FCDE02" opacity="1.000000" stroke="none" 
	d="
M185.668121,205.740555 
	C183.856949,206.176559 182.914139,206.545013 183.965668,209.111252 
	C184.948090,211.508804 185.330276,214.375977 185.154404,216.980911 
	C184.697159,223.752960 184.969803,230.905960 182.793594,237.155655 
	C179.164261,247.578506 180.944244,258.117859 179.811996,268.534210 
	C178.785919,277.973846 176.172607,287.232727 174.480423,296.611237 
	C173.438812,302.384064 172.812439,308.231812 172.019760,314.445801 
	C171.368240,304.956451 170.681503,295.068115 170.039902,285.176880 
	C169.933762,283.540619 170.024933,281.891541 170.024933,280.278137 
	C165.107224,279.108337 160.123993,278.521851 155.611847,276.741455 
	C139.771881,270.491364 129.993927,254.947723 131.529816,237.721802 
	C133.155746,219.485962 146.512283,205.755051 163.639359,202.868576 
	C171.338348,201.571045 178.364365,202.985992 185.668121,205.740555 
z"/>
<path fill="#F6AE0A" opacity="1.000000" stroke="none" 
	d="
M298.917847,477.031860 
	C287.986023,469.763306 282.094971,459.223877 280.149048,446.576752 
	C279.314331,441.151917 280.006897,435.492065 279.999542,429.249817 
	C284.375031,427.242432 283.870026,423.616150 284.126404,420.191437 
	C284.385498,416.729797 285.104675,413.305176 285.530609,409.853027 
	C287.371582,394.930817 289.178925,380.004517 291.461243,364.998108 
	C300.282013,364.971375 308.640015,365.026245 316.974731,365.471283 
	C316.215363,371.566681 315.515106,377.276733 314.736572,382.976135 
	C312.505951,399.305573 310.196442,415.624420 308.014740,431.960327 
	C307.008575,439.494141 306.276764,447.064148 305.328552,454.606201 
	C304.651825,459.989105 302.987457,465.406250 303.327515,470.707794 
	C303.593414,474.853546 302.817139,476.583679 298.917847,477.031860 
z"/>
<path fill="#F49F0B" opacity="1.000000" stroke="none" 
	d="
M348.999420,365.079254 
	C348.007324,372.441193 346.978973,379.798462 346.030701,387.166046 
	C344.136658,401.881561 342.354858,416.611816 340.397339,431.318787 
	C338.735535,443.803894 336.678619,456.240051 335.228607,468.747986 
	C334.607513,474.105896 335.081940,479.590820 335.028198,485.425598 
	C328.848846,485.738190 322.699860,485.643219 316.356689,484.857605 
	C317.749146,471.409424 319.449829,458.664795 320.895569,445.891296 
	C323.031952,427.015656 324.758026,408.090729 327.126526,389.245544 
	C328.148315,381.115662 330.339569,373.132721 332.461060,365.001068 
	C338.281494,364.972473 343.640442,365.025879 348.999420,365.079254 
z"/>
<path fill="#F49F0B" opacity="1.000000" stroke="none" 
	d="
M380.586853,107.098793 
	C378.687897,109.020546 379.507355,111.466064 379.316254,113.935547 
	C378.779938,120.865677 377.530212,127.739777 376.589478,134.639725 
	C376.032623,138.723801 375.479797,142.809464 375.009491,146.904068 
	C373.822815,157.235794 372.479919,167.555161 371.575104,177.912292 
	C370.306976,192.428009 365.838501,206.551407 366.853241,221.379807 
	C367.287323,227.722992 366.379822,234.205612 365.569305,240.559479 
	C365.300110,242.669968 363.430878,244.576355 361.833130,246.496735 
	C359.999207,236.344452 355.115326,228.135239 347.981140,220.748077 
	C350.005737,208.988937 352.316620,197.663574 353.909424,186.238098 
	C355.782288,172.803482 357.185638,159.296982 358.503418,145.793427 
	C359.559387,134.972885 360.183319,124.110184 360.999023,113.266190 
	C367.391083,111.187248 373.783173,109.108299 380.586853,107.098793 
z"/>
<path fill="#EB730D" opacity="1.000000" stroke="none" 
	d="
M427.334656,443.664978 
	C428.168610,432.786316 429.355835,421.834900 430.526398,410.881714 
	C432.357300,393.750000 434.006226,376.596619 436.057404,359.491394 
	C437.595001,346.669281 439.769257,333.924622 441.421112,321.114685 
	C442.501465,312.736664 442.836578,304.255829 444.087982,295.908386 
	C445.375458,287.320404 447.370178,278.838440 449.370392,270.152679 
	C452.843445,288.805847 451.770874,307.420380 447.409180,325.946472 
	C447.018341,327.606659 447.984039,329.985901 449.061371,331.505432 
	C451.052216,334.313477 453.592834,336.731720 455.659302,339.668579 
	C454.801697,340.635742 453.716156,341.198059 453.647675,341.864868 
	C452.638306,351.693573 451.968658,361.560181 450.815765,371.370483 
	C448.325653,392.559692 445.604095,413.721710 442.977203,434.894836 
	C437.878326,437.793701 432.779419,440.692566 427.334656,443.664978 
z"/>
<path fill="#F6AE0A" opacity="1.000000" stroke="none" 
	d="
M315.991760,151.352173 
	C317.480377,151.367828 318.987946,151.235657 320.454529,151.423340 
	C329.417999,152.570419 330.023743,152.778992 332.466095,144.715317 
	C335.378876,135.098450 341.551819,128.138626 348.705383,121.707924 
	C343.255249,128.889633 344.791718,137.755814 343.358002,145.649551 
	C340.352325,162.198425 339.001343,179.054153 337.157318,195.804398 
	C336.494476,201.825333 336.367004,207.905197 335.619293,213.935303 
	C326.495148,212.564423 317.746918,211.216415 308.999115,209.435532 
	C310.167847,200.663223 311.470764,192.339890 312.470978,183.980331 
	C313.770508,173.119370 314.829346,162.229568 315.991760,151.352173 
z"/>
<path fill="#F5A70B" opacity="1.000000" stroke="none" 
	d="
M331.999573,365.083038 
	C330.339569,373.132721 328.148315,381.115662 327.126526,389.245544 
	C324.758026,408.090729 323.031952,427.015656 320.895569,445.891296 
	C319.449829,458.664795 317.749146,471.409424 316.084595,484.572815 
	C315.830170,484.978027 315.653656,484.977356 314.977020,484.718933 
	C313.684937,484.300415 312.893005,484.139618 312.101044,483.978790 
	C307.813080,481.868073 303.525116,479.757385 299.077515,477.339294 
	C302.817139,476.583679 303.593414,474.853546 303.327515,470.707794 
	C302.987457,465.406250 304.651825,459.989105 305.328552,454.606201 
	C306.276764,447.064148 307.008575,439.494141 308.014740,431.960327 
	C310.196442,415.624420 312.505951,399.305573 314.736572,382.976135 
	C315.515106,377.276733 316.215363,371.566681 317.434875,365.388947 
	C322.612061,364.971954 327.305817,365.027496 331.999573,365.083038 
z"/>
<path fill="#F8B809" opacity="1.000000" stroke="none" 
	d="
M290.998535,365.079681 
	C289.178925,380.004517 287.371582,394.930817 285.530609,409.853027 
	C285.104675,413.305176 284.385498,416.729797 284.126404,420.191437 
	C283.870026,423.616150 284.375031,427.242432 279.980682,428.829529 
	C271.801208,426.584656 263.634521,424.070862 255.249268,421.272827 
	C258.133789,420.592010 258.762634,418.640717 259.090576,415.762909 
	C260.007141,407.719727 261.652191,399.756104 262.470154,391.706238 
	C263.083557,385.669220 262.487274,379.505463 263.160553,373.479828 
	C263.525024,370.218140 262.194763,365.916809 267.384399,363.927429 
	C275.789642,364.300446 283.394104,364.690063 290.998535,365.079681 
z"/>
<path fill="#F8B809" opacity="1.000000" stroke="none" 
	d="
M315.654785,151.269363 
	C314.829346,162.229568 313.770508,173.119370 312.470978,183.980331 
	C311.470764,192.339890 310.167847,200.663223 308.591705,209.537354 
	C299.821777,212.749969 291.459686,215.427872 283.097626,218.105804 
	C280.634338,208.769150 285.607300,200.352585 286.410583,191.415283 
	C287.533997,178.916809 288.800781,166.431229 290.008484,153.495071 
	C292.733612,152.699677 295.456451,152.349335 298.977051,152.013977 
	C301.160736,151.800110 302.546631,151.571228 303.932556,151.342361 
	C304.412415,151.287033 304.892242,151.231705 305.941711,151.405945 
	C307.323151,151.537140 308.134949,151.438797 308.946747,151.340454 
	C309.423157,151.285187 309.899567,151.229904 310.943146,151.407898 
	C312.322815,151.542099 313.135284,151.443024 313.947784,151.343933 
	C314.404449,151.291473 314.861084,151.239014 315.654785,151.269363 
z"/>
<path fill="#F5A70B" opacity="1.000000" stroke="none" 
	d="
M335.995178,213.958176 
	C336.367004,207.905197 336.494476,201.825333 337.157318,195.804398 
	C339.001343,179.054153 340.352325,162.198425 343.358002,145.649551 
	C344.791718,137.755814 343.255249,128.889633 349.008698,121.588272 
	C352.805969,118.623474 356.566315,116.014519 360.662842,113.335876 
	C360.183319,124.110184 359.559387,134.972885 358.503418,145.793427 
	C357.185638,159.296982 355.782288,172.803482 353.909424,186.238098 
	C352.316620,197.663574 350.005737,208.988937 347.652405,220.640442 
	C343.526550,218.600922 339.760864,216.279556 335.995178,213.958176 
z"/>
<path fill="#E86A0D" opacity="1.000000" stroke="none" 
	d="
M443.293762,434.787842 
	C445.604095,413.721710 448.325653,392.559692 450.815765,371.370483 
	C451.968658,361.560181 452.638306,351.693573 453.647675,341.864868 
	C453.716156,341.198059 454.801697,340.635742 455.761536,339.995972 
	C464.270844,349.011200 468.330444,360.049896 469.714722,371.762054 
	C472.398560,394.469543 465.628418,414.220947 448.958069,430.241943 
	C447.292175,431.842957 445.398376,433.206879 443.293762,434.787842 
z"/>
<path fill="#EE7D0D" opacity="1.000000" stroke="none" 
	d="
M433.092712,212.202148 
	C429.281036,209.457733 431.221069,205.643997 432.568237,203.254517 
	C436.247833,196.727844 435.967743,189.603226 436.930786,182.687500 
	C438.345673,172.527451 439.329803,162.306702 440.448639,152.106445 
	C441.008026,147.006088 441.459229,141.893860 441.992981,136.364044 
	C449.140961,145.726227 451.605072,157.051926 451.490173,168.733109 
	C451.325806,185.441467 445.359589,200.099869 433.092712,212.202148 
z"/>
<path fill="#FBD004" opacity="1.000000" stroke="none" 
	d="
M381.001801,491.987732 
	C373.749939,488.509979 370.828217,482.498901 371.133514,474.748444 
	C371.437378,467.034027 376.395538,461.380981 385.494202,458.649384 
	C384.906189,460.154327 383.488098,461.286285 383.369049,462.541473 
	C382.439270,472.343536 381.759064,482.169281 381.001801,491.987732 
z"/>
<path fill="#F6AE0A" opacity="1.000000" stroke="none" 
	d="
M309.148438,112.012634 
	C312.252319,111.809792 315.356201,111.606949 318.735596,112.164238 
	C318.009918,121.926155 316.683960,130.908630 316.146698,139.938019 
	C315.884399,144.346100 314.734436,146.554337 310.115234,146.002075 
	C309.252899,145.831604 308.390564,145.661133 307.597534,145.021576 
	C308.420715,142.762589 309.598541,141.031235 309.855255,139.172623 
	C310.975708,131.060959 311.939301,122.921417 312.607513,114.763123 
	C312.674377,113.946213 310.358490,112.934135 309.148438,112.012634 
z"/>
<path fill="#F2920C" opacity="1.000000" stroke="none" 
	d="
M398.015350,491.961731 
	C395.932129,492.644073 393.848907,493.326355 391.598755,493.734802 
	C391.735229,493.071716 392.271637,492.702637 392.307404,492.290161 
	C392.918365,485.243225 393.137054,478.142334 394.163544,471.159363 
	C394.711243,467.433563 396.630646,463.909424 397.930969,460.294281 
	C399.148041,461.080597 400.365112,461.866913 401.660278,463.163391 
	C401.357056,465.573914 400.849762,467.458923 400.616669,469.377319 
	C399.702606,476.899750 398.875031,484.432678 398.015350,491.961731 
z"/>
<path fill="#FAC207" opacity="1.000000" stroke="none" 
	d="
M381.210358,492.279144 
	C381.759064,482.169281 382.439270,472.343536 383.369049,462.541473 
	C383.488098,461.286285 384.906189,460.154327 385.850281,458.669800 
	C387.052155,458.258606 388.126282,458.142944 389.757996,458.413696 
	C389.686554,463.953613 388.939819,469.096191 388.458191,474.263458 
	C387.851440,480.773224 387.461182,487.303192 386.977478,493.824432 
	C385.124634,493.406464 383.271759,492.988525 381.210358,492.279144 
z"/>
<path fill="#F6AE0A" opacity="1.000000" stroke="none" 
	d="
M387.269257,493.923767 
	C387.461182,487.303192 387.851440,480.773224 388.458191,474.263458 
	C388.939819,469.096191 389.686554,463.953613 390.160675,458.484467 
	C392.428833,458.755707 394.851959,459.342590 397.602997,460.111877 
	C396.630646,463.909424 394.711243,467.433563 394.163544,471.159363 
	C393.137054,478.142334 392.918365,485.243225 392.307404,492.290161 
	C392.271637,492.702637 391.735229,493.071716 391.211609,493.708435 
	C389.847900,493.978271 388.704468,494.000671 387.269257,493.923767 
z"/>
<path fill="#F4990C" opacity="1.000000" stroke="none" 
	d="
M310.427002,146.232147 
	C314.734436,146.554337 315.884399,144.346100 316.146698,139.938019 
	C316.683960,130.908630 318.009918,121.926155 319.009644,112.460785 
	C321.443909,113.161057 323.879669,114.324913 326.174561,115.884911 
	C325.428802,117.223503 324.392395,118.120071 324.286560,119.115570 
	C323.372223,127.715683 322.625427,136.333603 321.828705,144.946228 
	C318.132050,145.451553 314.435394,145.956879 310.427002,146.232147 
z"/>
<path fill="#FACA05" opacity="1.000000" stroke="none" 
	d="
M309.097107,112.001343 
	C310.358490,112.934135 312.674377,113.946213 312.607513,114.763123 
	C311.939301,122.921417 310.975708,131.060959 309.855255,139.172623 
	C309.598541,141.031235 308.420715,142.762589 307.382324,144.764389 
	C306.146515,144.524033 305.195190,144.071777 304.097351,142.939987 
	C303.926666,140.314362 303.809692,138.364227 303.894745,136.422928 
	C304.222290,128.947083 304.614441,121.474060 304.982483,113.999985 
	C304.982483,113.999985 304.992371,113.989037 305.279785,113.932816 
	C306.043793,113.581673 306.520355,113.286743 306.996918,112.991814 
	C306.996918,112.991821 307.000000,113.000694 307.273987,112.945435 
	C308.037170,112.623680 308.526398,112.357185 309.015625,112.090698 
	C309.015625,112.090706 309.045807,111.990059 309.097107,112.001343 
z"/>
<path fill="#FCD603" opacity="1.000000" stroke="none" 
	d="
M304.647339,114.063644 
	C304.614441,121.474060 304.222290,128.947083 303.894745,136.422928 
	C303.809692,138.364227 303.926666,140.314362 303.966125,142.644287 
	C293.704163,136.273712 293.867218,122.025154 304.647339,114.063644 
z"/>
<path fill="#EB730D" opacity="1.000000" stroke="none" 
	d="
M398.353577,491.923767 
	C398.875031,484.432678 399.702606,476.899750 400.616669,469.377319 
	C400.849762,467.458923 401.357056,465.573914 401.841125,463.425354 
	C410.618317,472.499481 409.285919,484.261780 398.353577,491.923767 
z"/>
<path fill="#F0850D" opacity="1.000000" stroke="none" 
	d="
M322.155029,144.927002 
	C322.625427,136.333603 323.372223,127.715683 324.286560,119.115570 
	C324.392395,118.120071 325.428802,117.223503 326.357056,116.153488 
	C327.389221,116.813461 328.098053,117.601021 328.824341,119.103363 
	C328.165558,127.032036 327.489319,134.245926 326.813049,141.459824 
	C326.813049,141.459824 326.763184,141.695236 326.370087,141.718323 
	C325.658508,142.161880 325.339996,142.582336 325.021484,143.002808 
	C324.174805,143.637787 323.328094,144.272781 322.155029,144.927002 
z"/>
<path fill="#FACA05" opacity="1.000000" stroke="none" 
	d="
M161.968216,400.049316 
	C157.452454,398.406403 155.834427,394.899170 155.997879,390.420105 
	C156.195663,385.000732 159.182175,381.716400 164.642151,380.665588 
	C164.326385,387.480194 165.466309,394.135803 161.968216,400.049316 
z"/>
<path fill="#F6AE0A" opacity="1.000000" stroke="none" 
	d="
M162.151199,400.349304 
	C165.466309,394.135803 164.326385,387.480194 164.997910,380.677429 
	C166.514130,380.286072 168.030273,380.331757 169.781128,381.111481 
	C169.660049,386.100189 169.671005,390.431519 168.804123,394.579376 
	C168.321976,396.886353 166.376633,398.887512 165.090714,401.026520 
	C164.171875,400.900787 163.253021,400.775055 162.151199,400.349304 
z"/>
<path fill="#F2920C" opacity="1.000000" stroke="none" 
	d="
M165.331116,401.264038 
	C166.376633,398.887512 168.321976,396.886353 168.804123,394.579376 
	C169.671005,390.431519 169.660049,386.100189 170.019714,381.412903 
	C171.233688,381.501862 172.443771,382.023438 173.790466,383.247925 
	C173.629425,388.974579 173.331757,393.998383 173.034073,399.022186 
	C170.546555,399.848633 168.059052,400.675079 165.331116,401.264038 
z"/>
<path fill="#EB730D" opacity="1.000000" stroke="none" 
	d="
M327.065186,141.263184 
	C327.489319,134.245926 328.165558,127.032036 328.927551,119.409973 
	C333.924988,126.657555 333.334991,134.333740 327.065186,141.263184 
z"/>
<path fill="#EB730D" opacity="1.000000" stroke="none" 
	d="
M173.376083,398.940277 
	C173.331757,393.998383 173.629425,388.974579 173.959564,383.541595 
	C178.781418,388.533020 178.706482,392.835114 173.376083,398.940277 
z"/>
<path fill="#EB730D" opacity="1.000000" stroke="none" 
	d="
M448.650024,263.595764 
	C448.079132,262.229431 447.527374,260.513031 446.979553,258.429688 
	C447.545380,259.790405 448.107300,261.518066 448.650024,263.595764 
z"/>
<path fill="#F28E0C" opacity="1.000000" stroke="none" 
	d="
M431.085815,122.365448 
	C430.479767,122.281418 429.764069,121.926208 429.036926,121.255539 
	C429.675690,121.324814 430.325928,121.709534 431.085815,122.365448 
z"/>
<path fill="#EE7D0D" opacity="1.000000" stroke="none" 
	d="
M429.978760,218.644333 
	C429.682281,218.166275 429.400665,217.315170 429.314606,216.286224 
	C429.671295,216.829346 429.832458,217.550323 429.978760,218.644333 
z"/>
<path fill="#F6AE0A" opacity="1.000000" stroke="none" 
	d="
M303.572693,151.267395 
	C302.546631,151.571228 301.160736,151.800110 299.413116,152.017609 
	C300.438568,151.734955 301.825714,151.463684 303.572693,151.267395 
z"/>
<path fill="#EB730D" opacity="1.000000" stroke="none" 
	d="
M423.302368,444.964569 
	C423.779175,444.601990 424.581146,444.251404 425.650238,443.937256 
	C425.154083,444.307953 424.390778,444.642242 423.302368,444.964569 
z"/>
<path fill="#F6AE0A" opacity="1.000000" stroke="none" 
	d="
M313.595276,151.251312 
	C313.135284,151.443024 312.322815,151.542099 311.295105,151.493210 
	C311.800842,151.283066 312.521820,151.220871 313.595276,151.251312 
z"/>
<path fill="#EB730D" opacity="1.000000" stroke="none" 
	d="
M420.342407,445.850708 
	C420.789276,445.528381 421.550964,445.252930 422.624420,444.971741 
	C422.176514,445.276489 421.416901,445.587036 420.342407,445.850708 
z"/>
<path fill="#F6AE0A" opacity="1.000000" stroke="none" 
	d="
M308.594482,151.248428 
	C308.134949,151.438797 307.323151,151.537140 306.297424,151.486115 
	C306.803101,151.276611 307.522644,151.216492 308.594482,151.248428 
z"/>
<path fill="#F49F0B" opacity="1.000000" stroke="none" 
	d="
M312.319702,484.205505 
	C312.893005,484.139618 313.684937,484.300415 314.723267,484.643372 
	C314.159210,484.694397 313.348755,484.563293 312.319702,484.205505 
z"/>
<path fill="#EB730D" opacity="1.000000" stroke="none" 
	d="
M325.266663,142.943359 
	C325.339996,142.582336 325.658508,142.161880 326.256165,141.757065 
	C326.194214,142.143112 325.853058,142.513519 325.266663,142.943359 
z"/>
<path fill="#FCD603" opacity="1.000000" stroke="none" 
	d="
M306.696960,113.009766 
	C306.520355,113.286743 306.043793,113.581673 305.286682,113.930130 
	C305.469727,113.665016 305.933350,113.346367 306.696960,113.009766 
z"/>
<path fill="#FCD603" opacity="1.000000" stroke="none" 
	d="
M308.715759,112.077881 
	C308.526398,112.357185 308.037170,112.623680 307.269348,112.942596 
	C307.465759,112.685043 307.940857,112.375061 308.715759,112.077881 
z"/>
<path fill="#EB730D" opacity="1.000000" stroke="none" 
	d="
M449.246826,267.604126 
	C449.155518,267.705811 449.006500,267.331207 448.990051,267.231201 
	C449.179810,267.171997 449.301300,267.295746 449.246826,267.604126 
z"/>
<path fill="#FEFDFB" opacity="1.000000" stroke="none" 
	d="
M335.619263,213.935303 
	C339.760864,216.279556 343.526550,218.600922 347.620972,221.029938 
	C355.115326,228.135239 359.999207,236.344452 361.575745,246.737213 
	C361.210510,254.102890 360.642670,261.148773 359.897034,268.909912 
	C355.281647,277.361725 351.425201,285.518768 346.225861,292.704102 
	C341.929169,298.641937 336.045471,303.431396 330.559296,308.878479 
	C320.455078,319.099548 310.656464,329.171783 300.032043,340.092926 
	C310.540009,340.092926 319.763550,340.092926 329.446106,340.200928 
	C338.269470,340.499786 346.633850,340.690643 354.998199,340.881500 
	C362.084503,344.507874 364.558289,348.962433 363.072205,355.420563 
	C361.667419,361.525330 357.459076,364.538300 349.404724,364.997467 
	C343.640442,365.025879 338.281494,364.972473 332.461029,365.001068 
	C327.305817,365.027496 322.612061,364.971954 317.458191,364.998749 
	C308.640015,365.026245 300.282013,364.971375 291.461243,364.998108 
	C283.394104,364.690063 275.789642,364.300446 267.790649,363.855713 
	C258.503082,356.125366 258.617310,350.277740 268.273376,339.591858 
	C278.112122,329.016846 287.536560,318.949921 297.263062,308.734436 
	C305.164490,300.527771 312.990112,292.668060 320.287872,284.345490 
	C325.625244,278.258575 330.871552,271.920410 334.976440,264.993744 
	C337.150513,261.325165 338.058258,255.959778 337.373047,251.709396 
	C334.627014,234.675827 313.314148,227.340668 297.529938,237.806763 
	C292.264038,241.173935 289.377960,245.860138 288.169891,251.528488 
	C286.234314,260.610260 284.179932,262.653198 274.993652,263.972382 
	C265.822876,261.099579 263.436707,257.309204 264.825562,247.784454 
	C266.466614,236.530136 272.415375,227.846588 281.405579,220.287155 
	C282.251038,219.250443 282.686401,218.665115 283.121765,218.079773 
	C283.121735,218.079758 283.074005,218.058716 283.085815,218.082245 
	C291.459686,215.427872 299.821777,212.749969 308.591278,209.970245 
	C317.746918,211.216415 326.495148,212.564423 335.619263,213.935303 
z"/>
<path fill="#F49F0B" opacity="1.000000" stroke="none" 
	d="
M330.864929,308.729675 
	C336.045471,303.431396 341.929169,298.641937 346.225861,292.704102 
	C351.425201,285.518768 355.281647,277.361725 359.902222,269.314026 
	C360.643860,269.553619 361.711578,270.132721 361.682739,270.650757 
	C361.378967,276.108124 361.027100,281.569550 360.436279,287.002441 
	C359.756592,293.252808 358.776001,299.469788 358.010071,305.711578 
	C356.822174,315.391937 355.660828,325.076080 354.599579,334.770813 
	C354.407410,336.526123 354.749420,338.339966 354.921509,340.504150 
	C346.633850,340.690643 338.269470,340.499786 329.455719,339.782532 
	C329.337555,333.230621 329.646759,327.203766 330.007629,321.180023 
	C330.256378,317.027679 330.576630,312.879639 330.864929,308.729675 
z"/>
<path fill="#F8B809" opacity="1.000000" stroke="none" 
	d="
M275.069336,264.369568 
	C284.179932,262.653198 286.234314,260.610260 288.169891,251.528488 
	C289.377960,245.860138 292.264038,241.173935 297.816132,238.077576 
	C302.351898,238.808914 303.500336,241.176804 303.028076,244.893448 
	C302.175842,251.600662 301.897278,258.404510 300.662415,265.034515 
	C297.959259,279.547607 297.214386,294.184906 296.960968,308.882965 
	C287.536560,318.949921 278.112122,329.016846 268.411499,339.306274 
	C269.208374,328.535004 270.155579,317.527191 271.388092,306.551361 
	C272.770966,294.237061 274.461243,281.957458 275.879242,269.646759 
	C276.060944,268.069214 275.410156,266.395752 275.069336,264.369568 
z"/>
<path fill="#F8B809" opacity="1.000000" stroke="none" 
	d="
M282.802979,218.077789 
	C282.686401,218.665115 282.251038,219.250443 281.591431,219.999756 
	C281.739502,219.467758 282.111877,218.771790 282.802979,218.077789 
z"/>
<path fill="#F6AE0A" opacity="1.000000" stroke="none" 
	d="
M297.263062,308.734436 
	C297.214386,294.184906 297.959259,279.547607 300.662415,265.034515 
	C301.897278,258.404510 302.175842,251.600662 303.028076,244.893448 
	C303.500336,241.176804 302.351898,238.808914 298.144409,237.969498 
	C313.314148,227.340668 334.627014,234.675827 337.373047,251.709396 
	C338.058258,255.959778 337.150513,261.325165 334.976440,264.993744 
	C330.871552,271.920410 325.625244,278.258575 320.287872,284.345490 
	C312.990112,292.668060 305.164490,300.527771 297.263062,308.734436 
M305.563690,237.968277 
	C305.456116,237.563293 305.348511,237.158310 305.240936,236.753296 
	C304.971619,236.851929 304.702332,236.950546 304.433044,237.049194 
	C304.693695,237.458221 304.954346,237.867249 305.563690,237.968277 
z"/>
<path fill="#F6AE0A" opacity="1.000000" stroke="none" 
	d="
M330.559296,308.878479 
	C330.576630,312.879639 330.256378,317.027679 330.007629,321.180023 
	C329.646759,327.203766 329.337555,333.230621 328.996704,339.674530 
	C319.763550,340.092926 310.540009,340.092926 300.032043,340.092926 
	C310.656464,329.171783 320.455078,319.099548 330.559296,308.878479 
z"/>
<path fill="#F8B809" opacity="1.000000" stroke="none" 
	d="
M305.389343,238.122269 
	C304.954346,237.867249 304.693695,237.458221 304.433044,237.049194 
	C304.702332,236.950546 304.971619,236.851929 305.240906,236.753296 
	C305.348511,237.158310 305.456116,237.563293 305.389343,238.122269 
z"/>
</svg>