<svg version="1.1" id="Layer_1" xmlns="http://www.w3.org/2000/svg" xmlns:xlink="http://www.w3.org/1999/xlink" x="0px" y="0px"
	 width="100%" viewBox="0 0 600 600" enable-background="new 0 0 600 600" xml:space="preserve">
<path fill="#000000" opacity="1.000000" stroke="none" 
	d="
M334.000000,601.000000 
	C222.666672,601.000000 111.833336,601.000000 1.000000,601.000000 
	C1.000000,401.000000 1.000000,201.000000 1.000000,1.000000 
	C201.000000,1.000000 401.000000,1.000000 601.000000,1.000000 
	C601.000000,201.000000 601.000000,401.000000 601.000000,601.000000 
	C512.166687,601.000000 423.333344,601.000000 334.000000,601.000000 
M171.421539,381.353180 
	C168.955307,380.987579 166.489059,380.621979 163.321671,380.218323 
	C158.537140,381.854553 155.395493,385.073669 155.244919,390.194916 
	C155.121063,394.406799 156.476593,398.251678 161.385818,400.564911 
	C163.644730,400.744293 165.903625,400.923676 168.887711,401.098389 
	C178.502884,398.702667 179.537155,385.931396 171.421539,381.353180 
M302.348389,115.201073 
	C294.328369,123.193848 293.496613,131.980774 300.239868,140.621750 
	C302.501740,142.196136 304.763611,143.770523 307.716675,145.802048 
	C311.126190,145.865128 314.535706,145.928223 318.495392,145.973282 
	C318.667328,145.909180 318.839264,145.845062 319.717163,145.834625 
	C327.374084,143.014801 331.505005,137.239700 331.746918,129.380432 
	C331.954041,122.650665 329.143951,116.893501 322.213989,113.098816 
	C320.892029,112.676003 319.570068,112.253181 317.600037,111.358612 
	C315.728699,111.304237 313.857391,111.249870 311.241089,111.098564 
	C308.489136,112.387047 305.737152,113.675529 302.348389,115.201073 
M380.293060,460.057465 
	C369.386810,467.130066 367.227966,478.501740 375.183472,488.654358 
	C377.460846,490.077698 379.738251,491.501068 382.614746,493.378326 
	C386.725830,493.247803 390.836945,493.117310 395.664124,492.948730 
	C402.971863,489.563568 407.151276,483.919464 406.934692,475.798859 
	C406.739197,468.468445 403.366547,462.822174 395.765686,459.283875 
	C392.847046,458.913910 389.928436,458.543915 386.285126,458.065125 
	C384.520874,458.708191 382.756622,459.351257 380.293060,460.057465 
M270.736115,427.059174 
	C273.524536,427.878021 276.312958,428.696869 279.304810,429.575470 
	C277.581390,445.457520 280.142426,459.848602 292.037140,472.037109 
	C303.529205,483.195404 316.988800,488.590179 333.957001,486.095520 
	C341.687775,484.858490 349.015411,482.698822 355.163727,476.372223 
	C365.073700,469.338928 371.098755,459.841248 372.945496,447.829498 
	C373.355621,445.162170 373.551605,442.814850 377.518524,443.536652 
	C387.357269,447.265594 397.462372,449.104279 408.842865,447.953094 
	C412.587677,447.281250 416.438629,446.964050 420.060181,445.880280 
	C444.723389,438.499756 461.223694,422.454437 467.585022,397.565094 
	C474.117676,372.005432 466.883789,349.736725 448.051727,331.208923 
	C447.042572,330.216095 446.441711,328.157104 446.619293,326.713593 
	C447.893250,316.357178 450.217102,306.068756 450.699371,295.688660 
	C451.752655,273.019531 446.785980,251.421906 436.738342,230.316956 
	C434.084595,225.444260 431.430847,220.571564 428.824310,215.785553 
	C449.395569,198.263123 456.125061,169.752274 446.443756,145.046600 
	C441.020966,131.208191 430.527710,122.352234 418.475037,113.703987 
	C415.241638,112.394920 412.008209,111.085861 408.329926,109.279282 
	C407.895477,109.224937 407.460999,109.170593 406.674713,108.857796 
	C406.674713,108.857796 406.240143,108.899872 405.603912,108.399612 
	C402.552795,107.901619 399.501648,107.403625 395.648956,106.501419 
	C384.260284,105.358994 373.284912,106.658119 362.279449,112.069756 
	C345.189056,120.366104 333.973389,133.567169 328.094635,152.096588 
	C314.344910,150.823837 300.617279,150.384933 286.177521,153.086685 
	C273.257660,155.519226 260.677246,158.990036 248.311050,165.274551 
	C241.527603,169.476196 234.744156,173.677841 227.430099,178.030060 
	C227.021881,178.367706 226.613678,178.705338 225.616974,179.203232 
	C225.070694,179.781097 224.524414,180.358963 223.318909,181.123962 
	C214.370071,190.275864 205.343414,199.354141 196.547089,208.650375 
	C195.039017,210.244156 194.211029,211.801392 191.725128,209.417801 
	C190.816910,208.954453 189.908691,208.491119 188.686600,207.533173 
	C188.142426,207.348267 187.598236,207.163361 186.667419,206.376938 
	C179.118164,202.891388 171.409988,201.407501 162.989563,202.884155 
	C147.337265,205.629028 134.861664,216.777771 131.620926,232.909424 
	C128.681213,247.542618 133.243622,262.343658 146.503769,272.070129 
	C153.436813,277.155548 161.297745,279.162750 168.913742,279.861633 
	C169.298050,287.829041 169.661880,295.371887 170.008682,303.800842 
	C170.127106,305.561432 170.245544,307.322052 170.230621,309.689270 
	C170.489655,310.438080 170.748703,311.186859 171.005829,312.767151 
	C171.114380,313.863922 171.222916,314.960663 171.235474,316.593384 
	C171.493408,317.045563 171.751328,317.497742 172.008331,318.792084 
	C174.992691,337.147644 182.502838,353.715759 192.221207,369.309479 
	C172.856155,387.319916 183.884201,410.868073 199.573364,415.482269 
	C207.691193,417.931122 215.356445,417.300690 222.873352,411.735779 
	C227.956192,406.431213 227.879913,406.555267 233.881470,410.245361 
	C238.458282,413.059387 243.259872,415.507812 248.302490,418.747345 
	C255.537247,421.421753 262.772003,424.096191 270.736115,427.059174 
z"/>
<path fill="#EADC01" opacity="1.000000" stroke="none" 
	d="
M419.004028,114.184326 
	C430.527710,122.352234 441.020966,131.208191 446.443756,145.046600 
	C456.125061,169.752274 449.395569,198.263123 428.824310,215.785553 
	C431.430847,220.571564 434.084595,225.444260 436.423096,230.703033 
	C435.578827,232.075974 434.689209,233.027512 434.588409,234.056335 
	C434.284760,237.155441 434.509583,240.312973 434.115173,243.394852 
	C433.632904,247.163223 432.395081,250.849686 432.078094,254.621506 
	C431.283417,264.077667 431.196381,273.389282 428.536499,282.858612 
	C425.178009,294.815216 427.515411,307.787201 424.240479,320.170166 
	C422.034363,328.511719 422.064331,337.444244 421.089264,346.111847 
	C419.723969,358.248138 418.313446,370.379486 417.001160,382.521515 
	C416.146667,390.427551 416.930542,398.884644 414.332397,406.147614 
	C409.448944,419.799042 413.666412,434.527161 408.005768,447.832825 
	C397.462372,449.104279 387.357269,447.265594 377.579895,443.041809 
	C379.086426,436.295715 381.306763,430.098541 381.747894,423.777222 
	C382.149231,418.025848 384.277679,411.398712 378.173676,406.572174 
	C377.489563,406.031250 378.140594,402.137756 379.300140,401.213135 
	C384.739258,396.875916 387.123413,391.494904 387.026031,384.617279 
	C386.960785,380.011230 387.445038,375.390198 387.817139,370.786713 
	C388.471985,362.684998 389.226379,354.591370 389.944580,346.494812 
	C390.331085,342.137512 389.558594,337.189789 391.392181,333.561096 
	C394.244080,327.917114 395.520294,322.620728 394.071381,316.533112 
	C393.820190,315.477631 394.284149,314.235962 394.483490,313.091736 
	C396.561646,301.163818 399.139984,289.282867 397.094604,277.039276 
	C396.859436,275.631561 397.058868,273.917542 397.671509,272.640411 
	C401.298279,265.080048 402.233704,257.170410 402.840332,248.817459 
	C403.701050,236.965927 407.186768,225.313431 405.098633,213.234818 
	C404.854950,211.825378 405.035614,210.124176 405.617645,208.826462 
	C408.957733,201.379013 410.557098,193.849640 410.657898,185.473602 
	C410.814941,172.420563 412.798004,159.389862 413.995270,146.348602 
	C414.177216,144.366669 413.654510,142.011154 414.548462,140.455078 
	C419.297089,132.189468 417.520691,122.927299 419.004028,114.184326 
z"/>
<path fill="#E4DA01" opacity="1.000000" stroke="none" 
	d="
M418.739532,113.944153 
	C417.520691,122.927299 419.297089,132.189468 414.548462,140.455078 
	C413.654510,142.011154 414.177216,144.366669 413.995270,146.348602 
	C412.798004,159.389862 410.814941,172.420563 410.657898,185.473602 
	C410.557098,193.849640 408.957733,201.379013 405.617645,208.826462 
	C405.035614,210.124176 404.854950,211.825378 405.098633,213.234818 
	C407.186768,225.313431 403.701050,236.965927 402.840332,248.817459 
	C402.233704,257.170410 401.298279,265.080048 397.671509,272.640411 
	C397.058868,273.917542 396.859436,275.631561 397.094604,277.039276 
	C399.139984,289.282867 396.561646,301.163818 394.483490,313.091736 
	C394.284149,314.235962 393.820190,315.477631 394.071381,316.533112 
	C395.520294,322.620728 394.244080,327.917114 391.392181,333.561096 
	C389.558594,337.189789 390.331085,342.137512 389.944580,346.494812 
	C389.226379,354.591370 388.471985,362.684998 387.817139,370.786713 
	C387.445038,375.390198 386.960785,380.011230 387.026031,384.617279 
	C387.123413,391.494904 384.739258,396.875916 379.300140,401.213135 
	C378.140594,402.137756 377.489563,406.031250 378.173676,406.572174 
	C384.277679,411.398712 382.149231,418.025848 381.747894,423.777222 
	C381.306763,430.098541 379.086426,436.295715 377.343140,442.764587 
	C373.551605,442.814850 373.355621,445.162170 372.945496,447.829498 
	C371.098755,459.841248 365.073700,469.338928 354.699402,476.567322 
	C354.478821,474.947510 354.810638,473.139465 354.952118,471.316620 
	C355.991577,457.922913 356.950684,444.522827 358.032471,431.132599 
	C358.352631,427.170013 358.896484,423.219269 359.490479,419.286163 
	C361.286774,407.392639 363.362762,395.537201 364.924713,383.613892 
	C365.892273,376.227966 365.747406,368.693176 366.774261,361.318878 
	C368.272614,350.558136 370.742218,339.928101 372.107513,329.154846 
	C373.252075,320.123474 373.340790,310.961731 374.026489,301.867493 
	C374.486786,295.762360 374.809296,289.611420 375.848267,283.594086 
	C377.222687,275.634064 380.250763,267.849426 380.761536,259.873749 
	C381.766876,244.176163 382.189148,228.549042 385.668579,213.033401 
	C387.968231,202.778473 388.019409,192.014221 389.004303,181.471176 
	C389.744629,173.546005 390.339539,165.607285 391.078094,157.681946 
	C391.182465,156.562088 391.898346,155.506607 392.053925,154.382950 
	C392.906311,148.225571 393.679138,142.057114 394.463074,135.890381 
	C394.666870,134.287064 394.710663,132.657318 395.006409,131.073029 
	C395.606445,127.858597 396.814423,124.681114 396.908386,121.463196 
	C397.184875,111.993805 397.090790,111.892326 406.240143,108.899872 
	C406.240143,108.899872 406.674713,108.857796 407.115540,109.157379 
	C407.962524,109.563576 408.368683,109.670181 408.774811,109.776794 
	C412.008209,111.085861 415.241638,112.394920 418.739532,113.944153 
z"/>
<path fill="#C4CF01" opacity="1.000000" stroke="none" 
	d="
M247.961456,418.118866 
	C243.259872,415.507812 238.458282,413.059387 233.881470,410.245361 
	C227.879913,406.555267 227.956192,406.431213 222.259247,411.851074 
	C221.074112,410.703186 220.098816,409.459991 220.035141,408.171722 
	C219.956696,406.584869 220.784744,404.977020 220.967789,403.349731 
	C222.798721,387.074066 224.558517,370.790405 226.377823,354.513428 
	C227.553207,343.997559 228.842117,333.494293 229.990173,322.975525 
	C230.870422,314.910492 231.318359,306.787292 232.495590,298.768768 
	C233.634674,291.010254 235.852936,283.404388 236.879349,275.636627 
	C238.028351,266.941406 238.342972,258.137299 239.075012,249.385086 
	C239.488739,244.438675 239.751389,239.459183 240.544662,234.569641 
	C241.827728,226.661194 243.838165,218.861206 244.906448,210.929901 
	C246.209930,201.252563 246.897980,191.490494 247.772339,181.757904 
	C248.266296,176.259583 248.599915,170.746841 249.005753,165.240601 
	C260.677246,158.990036 273.257660,155.519226 286.415039,153.439850 
	C284.422546,158.466171 280.720520,162.188385 282.745056,168.639954 
	C285.772278,178.286728 277.582764,188.036438 281.703735,198.078430 
	C281.804321,198.323608 281.517059,198.707260 281.475586,199.034576 
	C280.977539,202.965836 280.491791,206.898651 279.594727,210.898560 
	C273.349640,210.948608 269.009460,213.318314 266.818207,218.914490 
	C264.573578,224.647003 266.709991,229.125214 270.957886,233.276184 
	C269.174225,241.385117 267.235016,249.082413 265.839478,256.877045 
	C264.299561,265.477966 263.170197,274.156586 262.031158,282.823608 
	C261.277985,288.554810 260.509735,294.314270 260.309143,300.080566 
	C260.023529,308.291718 260.252563,316.520752 260.036621,324.942749 
	C259.302185,326.126129 258.792938,327.108948 257.889587,328.151398 
	C256.665344,329.817627 255.318039,331.361237 255.113358,333.043854 
	C254.693893,336.492218 255.074493,340.030151 254.796097,343.504791 
	C253.594849,358.496826 252.307068,373.482239 250.953064,388.461243 
	C250.797363,390.183685 250.107483,391.877686 249.528458,393.537170 
	C248.756042,395.751007 247.157883,397.910492 247.133743,400.106750 
	C247.067825,406.107025 247.641251,412.114349 247.961456,418.118866 
z"/>
<path fill="#DFD802" opacity="1.000000" stroke="none" 
	d="
M405.922028,108.649742 
	C397.090790,111.892326 397.184875,111.993805 396.908386,121.463196 
	C396.814423,124.681114 395.606445,127.858597 395.006409,131.073029 
	C394.710663,132.657318 394.666870,134.287064 394.463074,135.890381 
	C393.679138,142.057114 392.906311,148.225571 392.053925,154.382950 
	C391.898346,155.506607 391.182465,156.562088 391.078094,157.681946 
	C390.339539,165.607285 389.744629,173.546005 389.004303,181.471176 
	C388.019409,192.014221 387.968231,202.778473 385.668579,213.033401 
	C382.189148,228.549042 381.766876,244.176163 380.761536,259.873749 
	C380.250763,267.849426 377.222687,275.634064 375.848267,283.594086 
	C374.809296,289.611420 374.486786,295.762360 374.026489,301.867493 
	C373.340790,310.961731 373.252075,320.123474 372.107513,329.154846 
	C370.742218,339.928101 368.272614,350.558136 366.774261,361.318878 
	C365.747406,368.693176 365.892273,376.227966 364.924713,383.613892 
	C363.362762,395.537201 361.286774,407.392639 359.490479,419.286163 
	C358.896484,423.219269 358.352631,427.170013 358.032471,431.132599 
	C356.950684,444.522827 355.991577,457.922913 354.952118,471.316620 
	C354.810638,473.139465 354.478821,474.947510 354.514099,476.877106 
	C349.015411,482.698822 341.687775,484.858490 333.114502,486.049927 
	C329.868500,485.615082 326.452972,487.129395 325.888763,483.109741 
	C325.480957,480.204315 325.350891,477.208496 325.546906,474.283142 
	C325.776672,470.854492 326.763794,467.472900 326.946533,464.045532 
	C327.392761,455.674530 325.567291,447.005432 330.601349,439.294861 
	C331.011078,438.667297 330.893188,437.680878 330.976440,436.856720 
	C332.355896,423.204315 333.764160,409.554657 335.082550,395.896362 
	C335.536194,391.196381 335.695038,386.468109 336.135498,381.766541 
	C336.253998,380.501740 336.775787,379.220856 337.344543,378.061188 
	C340.302032,372.031189 338.882324,365.946381 337.913544,359.584106 
	C343.080139,355.206848 349.137573,351.881134 352.716187,346.807129 
	C357.941956,339.397705 363.224792,331.124084 365.064117,322.490417 
	C366.828949,314.206482 364.236328,304.994202 363.771210,296.009399 
	C363.617432,295.232666 363.251038,294.636414 362.624542,293.811554 
	C360.754272,290.446930 359.144104,287.310852 357.929993,284.072693 
	C359.073792,283.365143 360.275482,282.890747 360.494385,282.132599 
	C361.768402,277.720123 363.338165,273.297546 363.824280,268.772736 
	C364.867279,259.063416 365.178162,249.277740 366.054871,239.547302 
	C366.507874,234.519150 367.559998,229.546539 368.275574,224.539444 
	C368.482056,223.094574 368.351532,221.601074 368.563751,220.157562 
	C369.097504,216.527725 369.661438,212.898499 370.367981,209.299408 
	C370.745880,207.374542 371.785950,205.539948 371.940063,203.617523 
	C372.734009,193.713181 373.149261,183.775528 374.096436,173.887787 
	C374.500488,169.670074 375.925751,165.555679 376.793457,161.374924 
	C377.355499,158.667145 378.009369,155.938522 378.159546,153.193924 
	C378.426636,148.312469 377.102692,142.966629 378.665802,138.612564 
	C381.848846,129.746078 381.626587,120.831192 381.389282,111.815674 
	C381.305206,108.621223 382.298035,107.072296 385.478607,107.030647 
	C389.135834,106.982765 392.793213,106.946785 396.450531,106.905640 
	C399.501648,107.403625 402.552795,107.901619 405.922028,108.649742 
z"/>
<path fill="#F3DF01" opacity="1.000000" stroke="none" 
	d="
M408.424316,447.892944 
	C413.666412,434.527161 409.448944,419.799042 414.332397,406.147614 
	C416.930542,398.884644 416.146667,390.427551 417.001160,382.521515 
	C418.313446,370.379486 419.723969,358.248138 421.089264,346.111847 
	C422.064331,337.444244 422.034363,328.511719 424.240479,320.170166 
	C427.515411,307.787201 425.178009,294.815216 428.536499,282.858612 
	C431.196381,273.389282 431.283417,264.077667 432.078094,254.621506 
	C432.395081,250.849686 433.632904,247.163223 434.115173,243.394852 
	C434.509583,240.312973 434.284760,237.155441 434.588409,234.056335 
	C434.689209,233.027512 435.578827,232.075974 436.459808,231.048798 
	C446.785980,251.421906 451.752655,273.019531 450.699371,295.688660 
	C450.217102,306.068756 447.893250,316.357178 446.619293,326.713593 
	C446.441711,328.157104 447.042572,330.216095 448.051727,331.208923 
	C466.883789,349.736725 474.117676,372.005432 467.585022,397.565094 
	C461.223694,422.454437 444.723389,438.499756 420.060181,445.880280 
	C416.438629,446.964050 412.587677,447.281250 408.424316,447.892944 
z"/>
<path fill="#BACB02" opacity="1.000000" stroke="none" 
	d="
M192.005753,209.976807 
	C194.211029,211.801392 195.039017,210.244156 196.547089,208.650375 
	C205.343414,199.354141 214.370071,190.275864 223.632172,181.428757 
	C223.915192,184.019394 223.886124,186.305252 223.854431,188.591080 
	C223.810715,191.743195 224.834839,195.462265 223.520767,197.941696 
	C219.485870,205.554886 222.151184,213.790955 220.394592,221.682190 
	C218.204773,231.519562 220.465027,242.204010 215.675964,251.827362 
	C215.161163,252.861847 215.747803,254.404251 215.665268,255.700974 
	C215.289795,261.599213 215.049820,267.515747 214.381607,273.382477 
	C213.897934,277.628998 212.552383,281.776337 212.052170,286.022186 
	C209.990814,303.518616 208.804352,321.151001 205.943375,338.510437 
	C203.472656,353.501831 204.545364,368.874359 200.185944,383.660980 
	C198.794373,388.380981 199.641739,393.763641 199.482437,398.843658 
	C199.314072,404.213165 199.166931,409.583405 199.010513,414.953308 
	C183.884201,410.868073 172.856155,387.319916 192.221207,369.309479 
	C182.502838,353.715759 174.992691,337.147644 171.986603,318.115051 
	C171.753738,316.977844 171.542603,316.517639 171.331451,316.057434 
	C171.222916,314.960663 171.114380,313.863922 171.010406,312.051971 
	C170.797974,310.585419 170.580978,309.834015 170.363983,309.082642 
	C170.245544,307.322052 170.127106,305.561432 170.108582,303.099426 
	C176.260223,302.327179 176.466904,301.895752 174.493423,295.364990 
	C174.082382,294.004669 174.107178,292.396881 174.348114,290.973755 
	C176.176407,280.173889 178.061035,269.382965 180.020767,258.606110 
	C182.236343,246.422287 179.905182,233.697800 184.449219,221.773758 
	C184.870361,220.668594 184.010727,219.126450 184.273422,217.900223 
	C185.059738,214.229523 186.108032,210.614944 187.054062,206.978455 
	C187.598236,207.163361 188.142426,207.348267 188.864426,208.108185 
	C190.030090,209.114410 191.017914,209.545609 192.005753,209.976807 
z"/>
<path fill="#BFCD01" opacity="1.000000" stroke="none" 
	d="
M199.291931,415.217773 
	C199.166931,409.583405 199.314072,404.213165 199.482437,398.843658 
	C199.641739,393.763641 198.794373,388.380981 200.185944,383.660980 
	C204.545364,368.874359 203.472656,353.501831 205.943375,338.510437 
	C208.804352,321.151001 209.990814,303.518616 212.052170,286.022186 
	C212.552383,281.776337 213.897934,277.628998 214.381607,273.382477 
	C215.049820,267.515747 215.289795,261.599213 215.665268,255.700974 
	C215.747803,254.404251 215.161163,252.861847 215.675964,251.827362 
	C220.465027,242.204010 218.204773,231.519562 220.394592,221.682190 
	C222.151184,213.790955 219.485870,205.554886 223.520767,197.941696 
	C224.834839,195.462265 223.810715,191.743195 223.854431,188.591080 
	C223.886124,186.305252 223.915192,184.019394 223.961777,181.335190 
	C224.524414,180.358963 225.070694,179.781097 226.174255,179.054138 
	C227.141281,178.563187 227.551010,178.221344 227.960724,177.879501 
	C234.744156,173.677841 241.527603,169.476196 248.658401,165.257568 
	C248.599915,170.746841 248.266296,176.259583 247.772339,181.757904 
	C246.897980,191.490494 246.209930,201.252563 244.906448,210.929901 
	C243.838165,218.861206 241.827728,226.661194 240.544662,234.569641 
	C239.751389,239.459183 239.488739,244.438675 239.075012,249.385086 
	C238.342972,258.137299 238.028351,266.941406 236.879349,275.636627 
	C235.852936,283.404388 233.634674,291.010254 232.495590,298.768768 
	C231.318359,306.787292 230.870422,314.910492 229.990173,322.975525 
	C228.842117,333.494293 227.553207,343.997559 226.377823,354.513428 
	C224.558517,370.790405 222.798721,387.074066 220.967789,403.349731 
	C220.784744,404.977020 219.956696,406.584869 220.035141,408.171722 
	C220.098816,409.459991 221.074112,410.703186 222.000046,412.050171 
	C215.356445,417.300690 207.691193,417.931122 199.291931,415.217773 
z"/>
<path fill="#D6D501" opacity="1.000000" stroke="none" 
	d="
M337.696259,359.854095 
	C338.882324,365.946381 340.302032,372.031189 337.344543,378.061188 
	C336.775787,379.220856 336.253998,380.501740 336.135498,381.766541 
	C335.695038,386.468109 335.536194,391.196381 335.082550,395.896362 
	C333.764160,409.554657 332.355896,423.204315 330.976440,436.856720 
	C330.893188,437.680878 331.011078,438.667297 330.601349,439.294861 
	C325.567291,447.005432 327.392761,455.674530 326.946533,464.045532 
	C326.763794,467.472900 325.776672,470.854492 325.546906,474.283142 
	C325.350891,477.208496 325.480957,480.204315 325.888763,483.109741 
	C326.452972,487.129395 329.868500,485.615082 332.710846,486.038147 
	C316.988800,488.590179 303.529205,483.195404 291.995911,471.279968 
	C292.968811,461.517395 293.901978,452.501892 295.018646,443.509186 
	C296.257507,433.532715 293.495667,422.914795 299.737335,413.713745 
	C300.065521,413.229919 299.943787,412.420990 299.977753,411.760620 
	C300.325989,404.988983 300.318817,398.177307 301.090149,391.454742 
	C302.062317,382.981934 303.667603,374.581787 305.466309,366.107086 
	C317.161896,367.274017 327.639099,364.638397 337.696259,359.854095 
z"/>
<path fill="#B3C801" opacity="1.000000" stroke="none" 
	d="
M186.860748,206.677704 
	C186.108032,210.614944 185.059738,214.229523 184.273422,217.900223 
	C184.010727,219.126450 184.870361,220.668594 184.449219,221.773758 
	C179.905182,233.697800 182.236343,246.422287 180.020767,258.606110 
	C178.061035,269.382965 176.176407,280.173889 174.348114,290.973755 
	C174.107178,292.396881 174.082382,294.004669 174.493423,295.364990 
	C176.466904,301.895752 176.260223,302.327179 170.117096,302.656372 
	C169.661880,295.371887 169.298050,287.829041 168.913742,279.861633 
	C161.297745,279.162750 153.436813,277.155548 146.503769,272.070129 
	C133.243622,262.343658 128.681213,247.542618 131.620926,232.909424 
	C134.861664,216.777771 147.337265,205.629028 162.989563,202.884155 
	C171.409988,201.407501 179.118164,202.891388 186.860748,206.677704 
z"/>
<path fill="#DCD702" opacity="1.000000" stroke="none" 
	d="
M396.049744,106.703529 
	C392.793213,106.946785 389.135834,106.982765 385.478607,107.030647 
	C382.298035,107.072296 381.305206,108.621223 381.389282,111.815674 
	C381.626587,120.831192 381.848846,129.746078 378.665802,138.612564 
	C377.102692,142.966629 378.426636,148.312469 378.159546,153.193924 
	C378.009369,155.938522 377.355499,158.667145 376.793457,161.374924 
	C375.925751,165.555679 374.500488,169.670074 374.096436,173.887787 
	C373.149261,183.775528 372.734009,193.713181 371.940063,203.617523 
	C371.785950,205.539948 370.745880,207.374542 370.367981,209.299408 
	C369.661438,212.898499 369.097504,216.527725 368.563751,220.157562 
	C368.351532,221.601074 368.482056,223.094574 368.275574,224.539444 
	C367.559998,229.546539 366.507874,234.519150 366.054871,239.547302 
	C365.178162,249.277740 364.867279,259.063416 363.824280,268.772736 
	C363.338165,273.297546 361.768402,277.720123 360.494385,282.132599 
	C360.275482,282.890747 359.073792,283.365143 357.674927,283.879517 
	C349.803955,273.914612 339.861725,267.942780 327.704041,264.147766 
	C338.529572,253.718689 348.745514,243.755798 359.099701,233.938690 
	C367.992004,225.507599 366.280518,215.516968 354.727264,210.658020 
	C353.565674,208.054031 351.277466,204.972855 352.051605,203.379074 
	C354.334808,198.678329 354.065125,194.083801 354.338196,189.135773 
	C354.953857,177.982208 356.958130,166.909210 358.271942,155.788620 
	C358.949493,150.053497 359.279663,144.278046 359.907471,138.536179 
	C360.874329,129.693314 361.962189,120.863678 362.998718,112.028427 
	C373.284912,106.658119 384.260284,105.358994 396.049744,106.703529 
z"/>
<path fill="#D6D501" opacity="1.000000" stroke="none" 
	d="
M362.639099,112.049088 
	C361.962189,120.863678 360.874329,129.693314 359.907471,138.536179 
	C359.279663,144.278046 358.949493,150.053497 358.271942,155.788620 
	C356.958130,166.909210 354.953857,177.982208 354.338196,189.135773 
	C354.065125,194.083801 354.334808,198.678329 352.051605,203.379074 
	C351.277466,204.972855 353.565674,208.054031 354.261414,210.713623 
	C342.045898,210.924881 330.023438,210.878006 318.087830,210.497528 
	C319.422852,208.093536 321.543091,206.115997 321.774994,203.937424 
	C323.100159,191.490463 323.722015,178.966949 325.129822,166.531357 
	C325.688965,161.592285 327.651917,156.812149 328.975739,151.959641 
	C333.973389,133.567169 345.189056,120.366104 362.639099,112.049088 
z"/>
<path fill="#CFD301" opacity="1.000000" stroke="none" 
	d="
M304.999786,366.150299 
	C303.667603,374.581787 302.062317,382.981934 301.090149,391.454742 
	C300.318817,398.177307 300.325989,404.988983 299.977753,411.760620 
	C299.943787,412.420990 300.065521,413.229919 299.737335,413.713745 
	C293.495667,422.914795 296.257507,433.532715 295.018646,443.509186 
	C293.901978,452.501892 292.968811,461.517395 291.899719,470.969299 
	C280.142426,459.848602 277.581390,445.457520 279.304810,429.575470 
	C276.312958,428.696869 273.524536,427.878021 270.290894,426.564636 
	C269.408630,423.697052 268.546906,421.309082 268.630035,418.954407 
	C268.769012,415.018097 269.725861,411.115540 269.955475,407.176483 
	C270.437805,398.902710 269.999451,390.515106 271.204926,382.361389 
	C272.309296,374.891785 274.974915,367.636292 277.224274,360.370514 
	C277.566437,359.265259 279.379761,358.615417 280.837585,357.843658 
	C288.662659,361.964447 296.255341,365.727814 304.999786,366.150299 
z"/>
<path fill="#CFD301" opacity="1.000000" stroke="none" 
	d="
M328.535187,152.028107 
	C327.651917,156.812149 325.688965,161.592285 325.129822,166.531357 
	C323.722015,178.966949 323.100159,191.490463 321.774994,203.937424 
	C321.543091,206.115997 319.422852,208.093536 317.623352,210.565704 
	C304.715576,210.922012 292.359192,210.876541 280.002808,210.831070 
	C280.491791,206.898651 280.977539,202.965836 281.475586,199.034576 
	C281.517059,198.707260 281.804321,198.323608 281.703735,198.078430 
	C277.582764,188.036438 285.772278,178.286728 282.745056,168.639954 
	C280.720520,162.188385 284.422546,158.466171 286.814087,153.489990 
	C300.617279,150.384933 314.344910,150.823837 328.535187,152.028107 
z"/>
<path fill="#CAD102" opacity="1.000000" stroke="none" 
	d="
M280.512634,357.754944 
	C279.379761,358.615417 277.566437,359.265259 277.224274,360.370514 
	C274.974915,367.636292 272.309296,374.891785 271.204926,382.361389 
	C269.999451,390.515106 270.437805,398.902710 269.955475,407.176483 
	C269.725861,411.115540 268.769012,415.018097 268.630035,418.954407 
	C268.546906,421.309082 269.408630,423.697052 269.926208,426.420349 
	C262.772003,424.096191 255.537247,421.421753 248.131958,418.433105 
	C247.641251,412.114349 247.067825,406.107025 247.133743,400.106750 
	C247.157883,397.910492 248.756042,395.751007 249.528458,393.537170 
	C250.107483,391.877686 250.797363,390.183685 250.953064,388.461243 
	C252.307068,373.482239 253.594849,358.496826 254.796097,343.504791 
	C255.074493,340.030151 254.693893,336.492218 255.113358,333.043854 
	C255.318039,331.361237 256.665344,329.817627 258.011597,328.480133 
	C259.179749,330.422760 259.921143,332.067596 260.469116,333.774567 
	C263.908173,344.487671 271.200378,351.961090 280.512634,357.754944 
z"/>
<path fill="#E4DA01" opacity="1.000000" stroke="none" 
	d="
M396.327637,459.824097 
	C403.366547,462.822174 406.739197,468.468445 406.934692,475.798859 
	C407.151276,483.919464 402.971863,489.563568 394.930420,492.908569 
	C393.483246,491.761475 392.043640,490.564026 392.168579,489.561615 
	C393.406738,479.630646 394.903809,469.731934 396.327637,459.824097 
z"/>
<path fill="#CFD301" opacity="1.000000" stroke="none" 
	d="
M396.046631,459.553986 
	C394.903809,469.731934 393.406738,479.630646 392.168579,489.561615 
	C392.043640,490.564026 393.483246,491.761475 394.572388,492.927612 
	C390.836945,493.117310 386.725830,493.247803 382.398376,492.788391 
	C382.754639,490.838440 383.681702,489.519104 383.843109,488.111938 
	C384.986603,478.142700 385.973175,468.155487 387.009796,458.173950 
	C389.928436,458.543915 392.847046,458.913910 396.046631,459.553986 
z"/>
<path fill="#E4DA01" opacity="1.000000" stroke="none" 
	d="
M322.688110,113.613472 
	C329.143951,116.893501 331.954041,122.650665 331.746918,129.380432 
	C331.505005,137.239700 327.374084,143.014801 319.364746,145.393463 
	C319.346619,142.354279 319.709564,139.759552 320.009918,137.157593 
	C320.915710,129.311066 321.797150,121.461716 322.688110,113.613472 
z"/>
<path fill="#BFCD01" opacity="1.000000" stroke="none" 
	d="
M386.647461,458.119568 
	C385.973175,468.155487 384.986603,478.142700 383.843109,488.111938 
	C383.681702,489.519104 382.754639,490.838440 382.098816,492.561401 
	C379.738251,491.501068 377.460846,490.077698 375.280518,488.010956 
	C375.753937,483.753693 375.809296,480.069672 376.580536,476.542145 
	C377.798676,470.971008 379.497162,465.504883 380.992371,459.994324 
	C382.756622,459.351257 384.520874,458.708191 386.647461,458.119568 
z"/>
<path fill="#CAD102" opacity="1.000000" stroke="none" 
	d="
M311.986053,111.195503 
	C313.857391,111.249870 315.728699,111.304237 317.665527,111.908737 
	C316.180664,122.391182 314.578064,132.315765 313.106262,142.259705 
	C312.533386,146.130264 315.403656,145.944138 317.945221,145.991302 
	C314.535706,145.928223 311.126190,145.865128 307.380249,145.193237 
	C307.700043,139.197296 308.244659,133.793564 309.042725,128.427551 
	C309.899750,122.665077 310.994843,116.938019 311.986053,111.195503 
z"/>
<path fill="#BFCD01" opacity="1.000000" stroke="none" 
	d="
M311.613586,111.147034 
	C310.994843,116.938019 309.899750,122.665077 309.042725,128.427551 
	C308.244659,133.793564 307.700043,139.197296 307.034668,144.964661 
	C304.763611,143.770523 302.501740,142.196136 300.349304,140.006927 
	C301.300873,131.249420 302.143036,123.106712 302.985199,114.964005 
	C305.737152,113.675529 308.489136,112.387047 311.613586,111.147034 
M304.471161,120.497833 
	C304.471161,120.497833 304.513092,120.481606 304.471161,120.497833 
z"/>
<path fill="#DCD702" opacity="1.000000" stroke="none" 
	d="
M318.220306,145.982300 
	C315.403656,145.944138 312.533386,146.130264 313.106262,142.259705 
	C314.578064,132.315765 316.180664,122.391182 317.989563,112.144615 
	C319.570068,112.253181 320.892029,112.676003 322.451050,113.356140 
	C321.797150,121.461716 320.915710,129.311066 320.009918,137.157593 
	C319.709564,139.759552 319.346619,142.354279 319.011749,145.366638 
	C318.839264,145.845062 318.667328,145.909180 318.220306,145.982300 
z"/>
<path fill="#B3C801" opacity="1.000000" stroke="none" 
	d="
M380.642700,460.025879 
	C379.497162,465.504883 377.798676,470.971008 376.580536,476.542145 
	C375.809296,480.069672 375.753937,483.753693 375.182251,487.687256 
	C367.227966,478.501740 369.386810,467.130066 380.642700,460.025879 
z"/>
<path fill="#CAD102" opacity="1.000000" stroke="none" 
	d="
M168.162537,401.103058 
	C165.903625,400.923676 163.644730,400.744293 161.193085,399.845764 
	C162.007843,392.836548 163.015335,386.546448 164.022827,380.256378 
	C166.489059,380.621979 168.955307,380.987579 171.193176,381.741882 
	C168.030823,388.159332 167.958313,394.610748 168.162537,401.103058 
z"/>
<path fill="#DFD802" opacity="1.000000" stroke="none" 
	d="
M168.525116,401.100708 
	C167.958313,394.610748 168.030823,388.159332 171.340240,382.071899 
	C179.537155,385.931396 178.502884,398.702667 168.525116,401.100708 
z"/>
<path fill="#B3C801" opacity="1.000000" stroke="none" 
	d="
M302.666809,115.082535 
	C302.143036,123.106712 301.300873,131.249420 300.229767,139.696716 
	C293.496613,131.980774 294.328369,123.193848 302.666809,115.082535 
z"/>
<path fill="#B3C801" opacity="1.000000" stroke="none" 
	d="
M163.672241,380.237366 
	C163.015335,386.546448 162.007843,392.836548 160.996323,399.554688 
	C156.476593,398.251678 155.121063,394.406799 155.244919,390.194916 
	C155.395493,385.073669 158.537140,381.854553 163.672241,380.237366 
z"/>
<path fill="#B3C801" opacity="1.000000" stroke="none" 
	d="
M191.865448,209.697296 
	C191.017914,209.545609 190.030090,209.114410 189.021362,208.355499 
	C189.908691,208.491119 190.816910,208.954453 191.865448,209.697296 
z"/>
<path fill="#B3C801" opacity="1.000000" stroke="none" 
	d="
M170.297302,309.385956 
	C170.580978,309.834015 170.797974,310.585419 171.011353,311.636230 
	C170.748703,311.186859 170.489655,310.438080 170.297302,309.385956 
z"/>
<path fill="#BACB02" opacity="1.000000" stroke="none" 
	d="
M227.695419,177.954788 
	C227.551010,178.221344 227.141281,178.563187 226.468506,178.973999 
	C226.613678,178.705338 227.021881,178.367706 227.695419,177.954788 
z"/>
<path fill="#B3C801" opacity="1.000000" stroke="none" 
	d="
M171.283463,316.325409 
	C171.542603,316.517639 171.753738,316.977844 171.987061,317.693970 
	C171.751328,317.497742 171.493408,317.045563 171.283463,316.325409 
z"/>
<path fill="#DFD802" opacity="1.000000" stroke="none" 
	d="
M408.552368,109.528038 
	C408.368683,109.670181 407.962524,109.563576 407.291473,109.286606 
	C407.460999,109.170593 407.895477,109.224937 408.552368,109.528038 
z"/>
<path fill="#FEFEFB" opacity="1.000000" stroke="none" 
	d="
M280.837616,357.843689 
	C271.200378,351.961090 263.908173,344.487671 260.469116,333.774567 
	C259.921143,332.067596 259.179749,330.422760 258.405731,328.420471 
	C258.792938,327.108948 259.302185,326.126129 260.417664,325.002716 
	C268.628571,317.629883 273.967072,317.211914 282.026855,323.545471 
	C287.852661,334.687286 296.630859,340.936005 309.431519,341.883545 
	C310.861603,341.969299 311.862915,342.023682 312.859375,341.976318 
	C329.285706,341.195740 341.880127,327.377625 341.343628,310.738739 
	C340.886017,296.546692 329.242645,286.712738 312.636871,286.613770 
	C310.457489,286.371490 308.653870,286.286865 306.850342,286.287842 
	C301.625885,286.290619 296.267151,286.945068 291.774384,282.701355 
	C286.896393,275.292480 287.581085,269.770966 293.801514,263.892853 
	C302.734131,255.451782 311.620178,246.961319 320.496887,238.461411 
	C321.464539,237.534836 322.239777,236.407318 323.707642,234.651138 
	C309.318512,234.651138 296.038849,234.780777 282.764557,234.571167 
	C278.849304,234.509323 274.949188,233.488678 271.042114,232.907455 
	C266.709991,229.125214 264.573578,224.647003 266.818207,218.914490 
	C269.009460,213.318314 273.349640,210.948608 279.594727,210.898560 
	C292.359192,210.876541 304.715576,210.922012 317.536438,210.899323 
	C330.023438,210.878006 342.045898,210.924881 354.534241,210.916138 
	C366.280518,215.516968 367.992004,225.507599 359.099701,233.938690 
	C348.745514,243.755798 338.529572,253.718689 327.704041,264.147766 
	C339.861725,267.942780 349.803955,273.914612 357.278809,283.981628 
	C359.144104,287.310852 360.754272,290.446930 362.634338,294.099854 
	C363.122345,295.141083 363.340454,295.665497 363.558563,296.189880 
	C364.236328,304.994202 366.828949,314.206482 365.064117,322.490417 
	C363.224792,331.124084 357.941956,339.397705 352.716187,346.807129 
	C349.137573,351.881134 343.080139,355.206848 337.913544,359.584106 
	C327.639099,364.638397 317.161896,367.274017 305.466309,366.107086 
	C296.255341,365.727814 288.662659,361.964447 280.837616,357.843689 
z"/>
<path fill="#CAD102" opacity="1.000000" stroke="none" 
	d="
M281.926331,323.225647 
	C273.967072,317.211914 268.628571,317.629883 260.642853,324.802124 
	C260.252563,316.520752 260.023529,308.291718 260.309143,300.080566 
	C260.509735,294.314270 261.277985,288.554810 262.031158,282.823608 
	C263.170197,274.156586 264.299561,265.477966 265.839478,256.877045 
	C267.235016,249.082413 269.174225,241.385117 270.957886,233.276184 
	C274.949188,233.488678 278.849304,234.509323 282.764557,234.571167 
	C296.038849,234.780777 309.318512,234.651138 323.707642,234.651138 
	C322.239777,236.407318 321.464539,237.534836 320.496887,238.461411 
	C311.620178,246.961319 302.734131,255.451782 293.801514,263.892853 
	C287.581085,269.770966 286.896393,275.292480 291.430664,282.700256 
	C287.656616,285.982971 285.272308,289.373932 284.909363,294.336823 
	C284.203644,303.987518 282.951904,313.598328 281.926331,323.225647 
z"/>
<path fill="#DCD702" opacity="1.000000" stroke="none" 
	d="
M363.771210,296.009399 
	C363.340454,295.665497 363.122345,295.141083 362.894409,294.328430 
	C363.251038,294.636414 363.617432,295.232666 363.771210,296.009399 
z"/>
<path fill="#B3C801" opacity="1.000000" stroke="none" 
	d="
M304.492126,120.489716 
	C304.513092,120.481606 304.471161,120.497833 304.492126,120.489716 
z"/>
<path fill="#D6D501" opacity="1.000000" stroke="none" 
	d="
M313.012695,286.810547 
	C329.242645,286.712738 340.886017,296.546692 341.343628,310.738739 
	C341.880127,327.377625 329.285706,341.195740 312.859375,341.976318 
	C311.862915,342.023682 310.861603,341.969299 309.400421,341.482391 
	C308.861115,337.400879 308.513824,333.780640 308.760345,330.201294 
	C309.360840,321.482239 310.177460,312.776428 311.022552,304.076477 
	C311.582581,298.311096 312.342346,292.565186 313.012695,286.810547 
z"/>
<path fill="#CFD301" opacity="1.000000" stroke="none" 
	d="
M312.636871,286.613770 
	C312.342346,292.565186 311.582581,298.311096 311.022552,304.076477 
	C310.177460,312.776428 309.360840,321.482239 308.760345,330.201294 
	C308.513824,333.780640 308.861115,337.400879 308.969421,341.403687 
	C296.630859,340.936005 287.852661,334.687286 282.026855,323.545471 
	C282.951904,313.598328 284.203644,303.987518 284.909363,294.336823 
	C285.272308,289.373932 287.656616,285.982971 291.556366,283.026794 
	C296.267151,286.945068 301.625885,286.290619 306.850342,286.287842 
	C308.653870,286.286865 310.457489,286.371490 312.636871,286.613770 
z"/>
</svg>