<svg version="1.1" id="Layer_1" xmlns="http://www.w3.org/2000/svg" xmlns:xlink="http://www.w3.org/1999/xlink" x="0px" y="0px"
	 width="100%" viewBox="0 0 600 600" enable-background="new 0 0 600 600" xml:space="preserve">
<path fill="#000000" opacity="1.000000" stroke="none" 
	d="
M335.000000,601.000000 
	C223.333328,601.000000 112.166664,601.000000 1.000000,601.000000 
	C1.000000,401.000000 1.000000,201.000000 1.000000,1.000000 
	C201.000000,1.000000 401.000000,1.000000 601.000000,1.000000 
	C601.000000,201.000000 601.000000,401.000000 601.000000,601.000000 
	C512.500000,601.000000 424.000000,601.000000 335.000000,601.000000 
M160.270615,382.079681 
	C155.201355,386.212402 154.429596,391.237244 158.234360,397.619720 
	C159.473633,398.440338 160.712906,399.260925 162.367401,400.641418 
	C163.496017,400.854706 164.624619,401.068024 165.800430,401.279785 
	C165.800430,401.279785 165.827469,401.241058 166.209061,401.561066 
	C166.788696,401.387024 167.368332,401.213013 168.661682,401.002258 
	C169.126541,400.916718 169.591400,400.831207 170.697815,400.575256 
	C178.900192,395.922058 179.455002,388.107788 171.728729,381.433838 
	C171.141998,381.280609 170.555267,381.127380 169.465057,380.418701 
	C167.971039,380.345642 166.477005,380.272583 164.329956,380.142395 
	C163.208328,380.735474 162.086700,381.328552 160.270615,382.079681 
M399.779419,490.735931 
	C399.779419,490.735931 399.822327,490.522980 400.313995,490.114075 
	C408.567383,482.554260 409.613464,472.955261 402.816681,464.359070 
	C401.505280,463.249084 400.193909,462.139099 398.458679,460.497589 
	C396.963562,460.003632 395.468445,459.509644 393.447479,458.486481 
	C391.969208,458.378571 390.490906,458.270691 388.290863,458.039795 
	C387.181763,458.318512 386.072632,458.597260 384.235626,458.966583 
	C382.156281,459.979034 380.076935,460.991516 377.373535,462.270660 
	C369.603790,469.949646 368.659119,479.584717 375.216980,487.621857 
	C376.817719,488.999695 378.418427,490.377563 380.621002,492.090363 
	C382.080627,492.663544 383.540253,493.236694 385.655212,493.959259 
	C387.094727,493.969757 388.534241,493.980255 390.743774,493.992126 
	C392.165466,493.660522 393.587128,493.328918 395.586212,492.846466 
	C396.069305,492.505676 396.552429,492.164886 397.615143,491.919067 
	C398.264832,491.534607 398.914520,491.150146 399.779419,490.735931 
M326.829651,116.385811 
	C326.225891,115.903740 325.622101,115.421669 324.688934,114.340485 
	C322.788269,113.558365 320.887634,112.776245 318.405273,111.463036 
	C316.269775,111.379509 314.134247,111.295975 311.284241,111.160431 
	C309.528931,111.842606 307.773651,112.524780 305.360168,113.330162 
	C294.489227,120.307495 292.950806,133.501907 302.349518,142.454544 
	C304.227539,143.531723 306.105591,144.608902 308.695007,145.919083 
	C310.135651,146.165085 311.576324,146.411072 313.691956,146.798080 
	C314.148041,146.759995 314.604156,146.721909 315.686340,146.830429 
	C316.457275,146.565598 317.228241,146.300766 318.671753,146.024979 
	C319.453857,145.700104 320.235962,145.375229 321.682159,144.970123 
	C322.621887,144.416534 323.561584,143.862930 325.062775,143.073898 
	C326.835144,140.742035 328.607513,138.410172 330.393127,136.060913 
	C329.849945,135.661545 328.516693,135.129044 328.521912,134.610077 
	C328.549194,131.912369 328.157837,128.814774 329.329071,126.608627 
	C331.600708,122.329796 329.911285,119.647331 326.829651,116.385811 
M303.329895,151.201981 
	C302.930023,151.290329 302.530151,151.378677 301.339874,151.405121 
	C300.822937,151.496628 300.306000,151.588120 299.492401,151.553543 
	C299.273956,151.634720 299.128418,151.786072 298.523376,152.039902 
	C298.350800,152.082657 298.178192,152.125397 297.123352,152.034149 
	C287.735413,153.983292 278.347473,155.932434 268.169861,157.971985 
	C258.547577,162.196991 248.925262,166.421982 238.693893,170.894150 
	C231.455200,176.250061 224.216492,181.605957 216.399765,187.191788 
	C215.575180,188.111298 214.750580,189.030792 213.473114,190.115021 
	C213.188004,190.302109 213.012299,190.562912 212.346802,191.200241 
	C206.408981,197.666824 200.471146,204.133408 194.255646,210.902390 
	C184.386230,203.626053 173.193985,200.280396 160.807709,203.361740 
	C148.296768,206.474106 139.266312,214.061279 134.159592,225.982193 
	C130.049835,235.575806 129.761108,245.410110 133.822189,255.038406 
	C140.507294,270.887939 153.252502,278.622589 168.820694,280.140961 
	C169.935211,293.377350 170.226898,305.840393 172.188324,318.034912 
	C175.158493,336.501038 182.070160,353.638580 192.764786,369.665466 
	C184.517502,377.060425 180.293457,385.801758 183.022461,397.166992 
	C186.208389,410.435150 200.549164,419.565033 213.713669,415.993286 
	C216.656479,414.647247 219.804001,413.621002 222.502747,411.893616 
	C229.868683,407.178864 229.793701,407.061707 237.464600,412.458954 
	C248.326431,417.221191 259.188263,421.983429 270.793823,426.961945 
	C273.757721,427.845184 276.721619,428.728424 279.618988,429.591827 
	C277.670593,444.208405 280.512482,456.424255 288.105560,466.746643 
	C294.030579,474.721680 301.321198,480.862518 311.715332,484.106842 
	C322.613922,487.948059 333.395050,487.900055 344.766541,482.998901 
	C347.707642,481.577148 350.880005,480.494537 353.549286,478.674255 
	C364.388794,471.282135 371.360229,461.211456 374.095886,448.244446 
	C374.495300,446.351349 375.995972,444.690643 377.556946,443.388123 
	C384.033752,444.870056 390.510529,446.351990 397.916473,447.961578 
	C407.542633,448.377350 417.027039,447.827911 426.720093,443.723999 
	C443.416809,437.510620 455.365845,425.965424 463.181824,410.241119 
	C476.813171,382.817352 469.581451,351.299438 448.149292,330.869049 
	C447.023712,329.796051 446.616791,327.330688 446.808411,325.617889 
	C448.061920,314.412323 450.214294,303.267975 450.781982,292.038361 
	C451.184143,284.083221 449.557648,276.025574 448.954468,267.194641 
	C445.869537,249.839569 439.767456,233.663269 430.364197,218.708389 
	C429.659119,217.587067 429.885803,214.670883 430.781067,213.941727 
	C438.611450,207.564346 443.729156,199.368820 447.157196,190.092865 
	C455.903290,166.426956 449.976959,141.859970 433.014130,124.608826 
	C427.344116,120.794518 421.674133,116.980209 415.345551,112.830086 
	C409.218018,110.890503 403.090515,108.950920 396.459961,106.549339 
	C395.332397,106.475044 394.204834,106.400742 392.274658,106.178192 
	C391.191559,106.230286 390.108490,106.282372 388.147888,106.168190 
	C378.529388,106.196953 369.507843,108.582359 360.314240,113.134583 
	C349.285492,118.940239 340.775787,127.375870 334.713257,138.197723 
	C332.160339,142.754807 330.158173,147.620438 327.083557,152.127029 
	C324.016327,151.878189 320.949127,151.629349 317.145630,151.181213 
	C316.133606,151.226959 315.121613,151.272705 313.192657,151.176743 
	C310.107697,151.227295 307.022766,151.277832 303.329895,151.201981 
z"/>
<path fill="#8CBB17" opacity="1.000000" stroke="none" 
	d="
M396.962982,107.011337 
	C403.090515,108.950920 409.218018,110.890503 415.673767,113.429237 
	C413.552704,134.446426 411.127228,154.867355 408.646973,175.281647 
	C406.485626,193.070724 404.259613,210.851959 402.067322,228.637314 
	C399.391663,250.344254 396.728271,272.052704 394.046753,293.758942 
	C391.362183,315.489960 388.587494,337.210175 385.993988,358.952026 
	C384.204041,373.957581 382.821777,389.012787 380.943085,404.006439 
	C379.565521,415.000732 377.589661,425.919189 376.100708,436.901306 
	C375.838837,438.832764 376.663910,440.911621 376.987030,442.922424 
	C375.995972,444.690643 374.495300,446.351349 374.095886,448.244446 
	C371.360229,461.211456 364.388794,471.282135 353.549286,478.674255 
	C350.880005,480.494537 347.707642,481.577148 344.393707,482.603760 
	C344.491394,476.579285 344.777435,470.927338 345.464813,465.324646 
	C348.233978,442.753693 350.809082,420.151886 354.065247,397.649658 
	C357.229919,375.779663 357.428955,353.507843 363.172607,331.668152 
	C368.735291,324.933594 368.638153,319.603119 362.980713,312.509857 
	C362.899109,310.320679 362.614258,308.476624 362.842468,306.698425 
	C364.319061,295.191559 366.003326,283.710876 367.423401,272.197418 
	C368.276703,265.278961 368.576385,258.290894 369.475830,251.379807 
	C371.186005,238.239670 373.304016,225.152008 374.963226,212.006027 
	C376.748413,197.861572 378.180176,183.672745 379.806976,169.507980 
	C380.846985,160.452347 381.538055,151.329285 383.145996,142.372971 
	C385.297943,130.386887 383.788513,117.802475 389.025391,106.334457 
	C390.108490,106.282372 391.191559,106.230286 392.973328,106.399818 
	C394.768982,106.751411 395.865997,106.881378 396.962982,107.011337 
z"/>
<path fill="#9EC20E" opacity="1.000000" stroke="none" 
	d="
M426.005737,443.835693 
	C417.027039,447.827911 407.542633,448.377350 397.289795,447.593719 
	C396.513275,440.650482 394.986694,433.741028 396.485046,427.565582 
	C400.215485,412.191071 398.726929,396.292908 402.672699,380.896027 
	C405.569550,369.592041 405.150024,357.479858 407.233215,345.912415 
	C408.901581,336.648254 407.481537,327.346436 410.371277,317.888855 
	C413.804565,306.652313 413.775482,294.324951 414.946838,282.440704 
	C415.875336,273.020264 416.152924,263.534698 417.127625,254.120316 
	C417.513306,250.395065 419.454895,246.838806 419.906067,243.110962 
	C421.340088,231.262939 422.212402,219.346436 423.676636,207.502747 
	C424.809692,198.337952 426.794739,189.276901 427.877716,180.107895 
	C429.220215,168.741425 429.978668,157.306931 431.074799,145.910034 
	C431.741486,138.978516 432.569183,132.062500 433.324554,125.139511 
	C449.976959,141.859970 455.903290,166.426956 447.157196,190.092865 
	C443.729156,199.368820 438.611450,207.564346 430.781067,213.941727 
	C429.885803,214.670883 429.659119,217.587067 430.364197,218.708389 
	C439.767456,233.663269 445.869537,249.839569 448.600708,267.774994 
	C447.293518,273.720490 446.141449,279.059174 445.422363,284.455536 
	C442.831207,303.900360 440.358093,323.361115 437.893585,342.822601 
	C435.512817,361.623077 433.108826,380.421387 430.882172,399.240417 
	C429.125183,414.089935 427.621765,428.969482 426.005737,443.835693 
z"/>
<path fill="#44A529" opacity="1.000000" stroke="none" 
	d="
M192.946350,369.024292 
	C182.070160,353.638580 175.158493,336.501038 172.188324,318.034912 
	C170.226898,305.840393 169.935211,293.377350 168.820694,280.140961 
	C153.252502,278.622589 140.507294,270.887939 133.822189,255.038406 
	C129.761108,245.410110 130.049835,235.575806 134.159592,225.982193 
	C139.266312,214.061279 148.296768,206.474106 160.807709,203.361740 
	C173.193985,200.280396 184.386230,203.626053 194.255646,210.902390 
	C200.471146,204.133408 206.408981,197.666824 212.857574,191.345764 
	C214.108810,193.868362 215.699768,196.340912 215.445480,198.606323 
	C214.211395,209.600052 212.385025,220.525711 210.971313,231.501587 
	C210.293762,236.762024 210.291229,242.110382 209.591675,247.366821 
	C207.496033,263.113098 205.128403,278.823212 203.034180,294.569702 
	C202.225677,300.648834 201.933014,306.794769 201.288055,312.897888 
	C200.242737,322.789276 199.176254,332.679657 197.975800,342.553101 
	C196.996521,350.607452 195.850693,358.642792 194.650620,366.667389 
	C194.523270,367.518951 193.535141,368.241760 192.946350,369.024292 
z"/>
<path fill="#54AA27" opacity="1.000000" stroke="none" 
	d="
M237.024094,411.930328 
	C229.793701,407.061707 229.868683,407.178864 222.502747,411.893616 
	C219.804001,413.621002 216.656479,414.647247 213.045929,415.955505 
	C212.311905,413.076691 212.204025,410.235779 212.195267,407.394531 
	C212.190170,405.743713 212.237183,404.078735 212.445572,402.443695 
	C213.261597,396.041473 214.331635,389.666382 214.963455,383.247375 
	C215.613358,376.644806 215.438629,369.941711 216.382187,363.391724 
	C217.960052,352.438202 220.469925,341.616882 221.979782,330.656189 
	C223.715607,318.054962 224.727478,305.355530 226.172272,292.712280 
	C227.374405,282.192657 228.828918,271.701691 230.014679,261.180359 
	C230.701508,255.085983 230.621109,248.876404 231.677994,242.857742 
	C235.148758,223.092606 238.260757,203.306381 239.065063,183.211227 
	C239.180206,180.334518 240.387329,177.512741 240.650253,174.625580 
	C240.766342,173.350830 239.785706,171.976242 239.302963,170.646973 
	C248.925262,166.421982 258.547577,162.196991 268.660339,158.285080 
	C269.286591,164.306656 270.007446,170.074860 269.431946,175.710709 
	C268.355713,186.250183 266.379425,196.694275 265.058044,207.213272 
	C263.963776,215.924240 263.510010,224.717407 262.353119,233.418396 
	C260.083252,250.490280 257.231659,267.488464 255.173004,284.583649 
	C253.552002,298.044525 253.020248,311.634094 251.521606,325.112823 
	C250.183838,337.144531 248.091553,349.090424 246.501175,361.096558 
	C244.581497,375.588654 242.670227,390.086609 241.148499,404.623169 
	C240.797150,407.979553 239.886520,410.325623 237.024094,411.930328 
z"/>
<path fill="#61AE24" opacity="1.000000" stroke="none" 
	d="
M237.244354,412.194641 
	C239.886520,410.325623 240.797150,407.979553 241.148499,404.623169 
	C242.670227,390.086609 244.581497,375.588654 246.501175,361.096558 
	C248.091553,349.090424 250.183838,337.144531 251.521606,325.112823 
	C253.020248,311.634094 253.552002,298.044525 255.173004,284.583649 
	C257.231659,267.488464 260.083252,250.490280 262.353119,233.418396 
	C263.510010,224.717407 263.963776,215.924240 265.058044,207.213272 
	C266.379425,196.694275 268.355713,186.250183 269.431946,175.710709 
	C270.007446,170.074860 269.286591,164.306656 269.055176,158.239868 
	C278.347473,155.932434 287.735413,153.983292 297.472839,152.469299 
	C296.548309,161.571579 295.061737,170.214081 294.053040,178.911972 
	C292.737854,190.252716 291.807037,201.637924 290.687653,213.001724 
	C290.623383,213.654099 290.281586,214.275696 290.184662,214.928802 
	C288.778137,224.405609 287.377716,233.883347 286.005310,243.365143 
	C285.246460,248.607727 284.265747,253.838043 283.880859,259.110077 
	C283.349274,266.391907 280.497925,273.731842 283.990356,281.362549 
	C277.688843,292.255127 271.581879,302.900482 265.059448,313.284882 
	C258.308258,324.033569 262.506470,333.213867 275.149933,334.477539 
	C275.255768,334.539429 275.614746,334.563416 275.614746,334.563416 
	C275.614746,334.563416 275.944275,334.413635 276.323669,334.332764 
	C277.471619,334.315399 278.240143,334.378876 279.005249,334.871033 
	C278.453735,343.209351 278.236359,351.159637 277.268768,359.017609 
	C276.205200,367.655457 273.970245,376.160309 273.107574,384.809082 
	C271.716980,398.750916 271.032715,412.763153 270.050110,426.745667 
	C259.188263,421.983429 248.326431,417.221191 237.244354,412.194641 
z"/>
<path fill="#93BE14" opacity="1.000000" stroke="none" 
	d="
M433.169342,124.874168 
	C432.569183,132.062500 431.741486,138.978516 431.074799,145.910034 
	C429.978668,157.306931 429.220215,168.741425 427.877716,180.107895 
	C426.794739,189.276901 424.809692,198.337952 423.676636,207.502747 
	C422.212402,219.346436 421.340088,231.262939 419.906067,243.110962 
	C419.454895,246.838806 417.513306,250.395065 417.127625,254.120316 
	C416.152924,263.534698 415.875336,273.020264 414.946838,282.440704 
	C413.775482,294.324951 413.804565,306.652313 410.371277,317.888855 
	C407.481537,327.346436 408.901581,336.648254 407.233215,345.912415 
	C405.150024,357.479858 405.569550,369.592041 402.672699,380.896027 
	C398.726929,396.292908 400.215485,412.191071 396.485046,427.565582 
	C394.986694,433.741028 396.513275,440.650482 396.825195,447.529907 
	C390.510529,446.351990 384.033752,444.870056 377.271973,443.155273 
	C376.663910,440.911621 375.838837,438.832764 376.100708,436.901306 
	C377.589661,425.919189 379.565521,415.000732 380.943085,404.006439 
	C382.821777,389.012787 384.204041,373.957581 385.993988,358.952026 
	C388.587494,337.210175 391.362183,315.489960 394.046753,293.758942 
	C396.728271,272.052704 399.391663,250.344254 402.067322,228.637314 
	C404.259613,210.851959 406.485626,193.070724 408.646973,175.281647 
	C411.127228,154.867355 413.552704,134.446426 416.003052,113.597145 
	C421.674133,116.980209 427.344116,120.794518 433.169342,124.874168 
z"/>
<path fill="#4DA827" opacity="1.000000" stroke="none" 
	d="
M238.998428,170.770569 
	C239.785706,171.976242 240.766342,173.350830 240.650253,174.625580 
	C240.387329,177.512741 239.180206,180.334518 239.065063,183.211227 
	C238.260757,203.306381 235.148758,223.092606 231.677994,242.857742 
	C230.621109,248.876404 230.701508,255.085983 230.014679,261.180359 
	C228.828918,271.701691 227.374405,282.192657 226.172272,292.712280 
	C224.727478,305.355530 223.715607,318.054962 221.979782,330.656189 
	C220.469925,341.616882 217.960052,352.438202 216.382187,363.391724 
	C215.438629,369.941711 215.613358,376.644806 214.963455,383.247375 
	C214.331635,389.666382 213.261597,396.041473 212.445572,402.443695 
	C212.237183,404.078735 212.190170,405.743713 212.195267,407.394531 
	C212.204025,410.235779 212.311905,413.076691 212.661987,415.955627 
	C200.549164,419.565033 186.208389,410.435150 183.022461,397.166992 
	C180.293457,385.801758 184.517502,377.060425 192.855560,369.344879 
	C193.535141,368.241760 194.523270,367.518951 194.650620,366.667389 
	C195.850693,358.642792 196.996521,350.607452 197.975800,342.553101 
	C199.176254,332.679657 200.242737,322.789276 201.288055,312.897888 
	C201.933014,306.794769 202.225677,300.648834 203.034180,294.569702 
	C205.128403,278.823212 207.496033,263.113098 209.591675,247.366821 
	C210.291229,242.110382 210.293762,236.762024 210.971313,231.501587 
	C212.385025,220.525711 214.211395,209.600052 215.445480,198.606323 
	C215.699768,196.340912 214.108810,193.868362 213.157196,191.194366 
	C213.012299,190.562912 213.188004,190.302109 213.926498,190.219910 
	C218.887451,192.016968 216.138168,188.103195 216.977783,186.961853 
	C224.216492,181.605957 231.455200,176.250061 238.998428,170.770569 
z"/>
<path fill="#80B71B" opacity="1.000000" stroke="none" 
	d="
M388.586639,106.251328 
	C383.788513,117.802475 385.297943,130.386887 383.145996,142.372971 
	C381.538055,151.329285 380.846985,160.452347 379.806976,169.507980 
	C378.180176,183.672745 376.748413,197.861572 374.963226,212.006027 
	C373.304016,225.152008 371.186005,238.239670 369.475830,251.379807 
	C368.576385,258.290894 368.276703,265.278961 367.423401,272.197418 
	C366.003326,283.710876 364.319061,295.191559 362.842468,306.698425 
	C362.614258,308.476624 362.899109,310.320679 362.617523,312.442139 
	C356.661407,311.427063 351.034515,310.104095 345.067596,308.701202 
	C345.067596,281.592163 345.067596,253.797791 345.390411,225.904449 
	C349.804565,223.786362 348.781311,221.010498 347.632507,219.505905 
	C349.049713,216.505829 350.614868,214.530899 350.884125,212.392792 
	C352.104523,202.701996 352.801514,192.945786 353.991089,183.250443 
	C355.116089,174.081436 356.998230,164.994781 357.869904,155.807648 
	C359.219696,141.581116 359.993622,127.299950 361.011719,113.041946 
	C369.507843,108.582359 378.529388,106.196953 388.586639,106.251328 
z"/>
<path fill="#80B71B" opacity="1.000000" stroke="none" 
	d="
M362.993744,331.970581 
	C357.428955,353.507843 357.229919,375.779663 354.065247,397.649658 
	C350.809082,420.151886 348.233978,442.753693 345.464813,465.324646 
	C344.777435,470.927338 344.491394,476.579285 344.027222,482.669678 
	C333.395050,487.900055 322.613922,487.948059 311.274658,483.591003 
	C311.417267,474.347260 311.885712,465.609589 312.625916,456.894989 
	C313.086548,451.471497 313.311096,445.902100 314.761536,440.711121 
	C319.985291,422.015808 318.685822,402.551971 321.983612,383.650177 
	C323.139038,377.027771 324.071991,370.366577 325.472778,363.841492 
	C336.477081,369.174713 344.839722,364.123230 344.854065,352.470734 
	C344.859833,347.817108 345.022980,343.155426 344.799255,338.512573 
	C344.639435,335.196320 345.982758,334.345367 349.126770,334.115051 
	C353.776520,333.774445 358.373993,332.720703 362.993744,331.970581 
z"/>
<path fill="#A6C409" opacity="1.000000" stroke="none" 
	d="
M426.362915,443.779846 
	C427.621765,428.969482 429.125183,414.089935 430.882172,399.240417 
	C433.108826,380.421387 435.512817,361.623077 437.893585,342.822601 
	C440.358093,323.361115 442.831207,303.900360 445.422363,284.455536 
	C446.141449,279.059174 447.293518,273.720490 448.541809,268.184509 
	C449.557648,276.025574 451.184143,284.083221 450.781982,292.038361 
	C450.214294,303.267975 448.061920,314.412323 446.808411,325.617889 
	C446.616791,327.330688 447.023712,329.796051 448.149292,330.869049 
	C469.581451,351.299438 476.813171,382.817352 463.181824,410.241119 
	C455.365845,425.965424 443.416809,437.510620 426.362915,443.779846 
z"/>
<path fill="#74B320" opacity="1.000000" stroke="none" 
	d="
M325.106506,363.723083 
	C324.071991,370.366577 323.139038,377.027771 321.983612,383.650177 
	C318.685822,402.551971 319.985291,422.015808 314.761536,440.711121 
	C313.311096,445.902100 313.086548,451.471497 312.625916,456.894989 
	C311.885712,465.609589 311.417267,474.347260 310.917786,483.434448 
	C301.321198,480.862518 294.030579,474.721680 288.124573,466.014709 
	C288.296387,459.701263 288.133667,454.088989 288.674103,448.545258 
	C289.539520,439.668365 290.510010,430.770905 292.112305,422.005737 
	C293.573181,414.014313 290.758118,405.222229 296.529877,397.983612 
	C297.119568,397.244080 296.769287,395.738403 296.817535,394.586670 
	C297.065552,388.665497 296.892273,382.691132 297.646515,376.835846 
	C298.554047,369.790192 300.852631,362.895203 301.429138,355.843445 
	C302.007294,348.772400 301.206543,341.588593 301.468079,334.357178 
	C306.731903,334.242157 311.546936,334.399719 316.340546,334.148315 
	C319.910461,333.961029 321.012207,335.404663 320.852112,338.796143 
	C320.641296,343.260986 320.954163,347.750305 320.749939,352.215729 
	C320.542511,356.751312 321.523499,360.692169 325.106506,363.723083 
z"/>
<path fill="#6AB022" opacity="1.000000" stroke="none" 
	d="
M284.002411,281.000702 
	C280.497925,273.731842 283.349274,266.391907 283.880859,259.110077 
	C284.265747,253.838043 285.246460,248.607727 286.005310,243.365143 
	C287.377716,233.883347 288.778137,224.405609 290.184662,214.928802 
	C290.281586,214.275696 290.623383,213.654099 290.687653,213.001724 
	C291.807037,201.637924 292.737854,190.252716 294.053040,178.911972 
	C295.061737,170.214081 296.548309,161.571579 297.914001,152.536285 
	C298.178192,152.125397 298.350800,152.082657 298.918091,151.982925 
	C299.480835,151.861847 299.639587,151.779724 299.789062,151.679611 
	C300.306000,151.588120 300.822937,151.496628 301.912018,151.515259 
	C302.968719,151.526413 303.453247,151.427399 303.937805,151.328369 
	C307.022766,151.277832 310.107697,151.227295 313.902222,151.379395 
	C315.701813,151.514877 316.791870,151.447693 317.881897,151.380524 
	C320.949127,151.629349 324.016327,151.878189 327.236206,152.490051 
	C326.934143,154.060165 326.253510,155.232285 326.060516,156.479843 
	C324.477722,166.710693 322.741028,176.927689 321.569031,187.207932 
	C320.979279,192.380905 321.518921,197.677353 321.434570,202.916138 
	C321.406158,204.680984 320.923889,206.434753 320.831390,208.203125 
	C320.614960,212.341263 320.508911,216.485153 320.269043,220.955627 
	C308.120758,241.189911 296.061584,261.095306 284.002411,281.000702 
z"/>
<path fill="#74B320" opacity="1.000000" stroke="none" 
	d="
M320.358154,220.626724 
	C320.508911,216.485153 320.614960,212.341263 320.831390,208.203125 
	C320.923889,206.434753 321.406158,204.680984 321.434570,202.916138 
	C321.518921,197.677353 320.979279,192.380905 321.569031,187.207932 
	C322.741028,176.927689 324.477722,166.710693 326.060516,156.479843 
	C326.253510,155.232285 326.934143,154.060165 327.647217,152.599457 
	C330.158173,147.620438 332.160339,142.754807 334.713257,138.197723 
	C340.775787,127.375870 349.285492,118.940239 360.662964,113.088264 
	C359.993622,127.299950 359.219696,141.581116 357.869904,155.807648 
	C356.998230,164.994781 355.116089,174.081436 353.991089,183.250443 
	C352.801514,192.945786 352.104523,202.701996 350.884125,212.392792 
	C350.614868,214.530899 349.049713,216.505829 347.632507,219.505905 
	C348.781311,221.010498 349.804565,223.786362 345.305267,225.507614 
	C344.528107,217.393372 339.602661,212.248260 332.344208,212.258835 
	C326.460541,212.267410 323.517975,216.637238 320.358154,220.626724 
z"/>
<path fill="#6AB022" opacity="1.000000" stroke="none" 
	d="
M301.010132,334.454224 
	C301.206543,341.588593 302.007294,348.772400 301.429138,355.843445 
	C300.852631,362.895203 298.554047,369.790192 297.646515,376.835846 
	C296.892273,382.691132 297.065552,388.665497 296.817535,394.586670 
	C296.769287,395.738403 297.119568,397.244080 296.529877,397.983612 
	C290.758118,405.222229 293.573181,414.014313 292.112305,422.005737 
	C290.510010,430.770905 289.539520,439.668365 288.674103,448.545258 
	C288.133667,454.088989 288.296387,459.701263 288.051239,465.683289 
	C280.512482,456.424255 277.670593,444.208405 279.618988,429.591827 
	C276.721619,428.728424 273.757721,427.845184 270.421967,426.853821 
	C271.032715,412.763153 271.716980,398.750916 273.107574,384.809082 
	C273.970245,376.160309 276.205200,367.655457 277.268768,359.017609 
	C278.236359,351.159637 278.453735,343.209351 279.463806,334.774963 
	C286.953918,334.318207 293.981995,334.386230 301.010132,334.454224 
z"/>
<path fill="#74B320" opacity="1.000000" stroke="none" 
	d="
M315.060242,146.683807 
	C314.604156,146.721909 314.148041,146.759995 313.352295,146.294067 
	C314.364380,135.408920 315.675751,125.022087 317.135132,114.656090 
	C317.269592,113.700798 318.347260,112.878288 318.986969,111.994118 
	C320.887634,112.776245 322.788269,113.558365 324.488647,114.711334 
	C323.466583,116.006325 322.050385,116.852364 321.917114,117.866943 
	C320.845917,126.021530 319.954803,134.202271 319.208588,142.393219 
	C319.133484,143.217133 320.383179,144.161743 321.018066,145.050354 
	C320.235962,145.375229 319.453857,145.700104 318.030762,146.032196 
	C316.613281,146.254211 315.836761,146.469009 315.060242,146.683807 
z"/>
<path fill="#54AA27" opacity="1.000000" stroke="none" 
	d="
M307.983643,145.686081 
	C306.105591,144.608902 304.227539,143.531723 302.202759,141.770660 
	C303.376801,131.793503 304.697571,122.500237 306.018341,113.206963 
	C307.773651,112.524780 309.528931,111.842606 311.644531,111.609673 
	C311.843109,113.692543 311.713135,115.330048 311.514435,116.959160 
	C310.346375,126.535889 309.162292,136.110657 307.983643,145.686081 
z"/>
<path fill="#6AB022" opacity="1.000000" stroke="none" 
	d="
M389.012634,458.162781 
	C390.490906,458.270691 391.969208,458.378571 393.515747,459.099731 
	C392.719513,467.104736 391.811310,474.491730 391.008057,481.890106 
	C390.571228,485.913666 390.312714,489.956543 389.973755,493.990723 
	C388.534241,493.980255 387.094727,493.969757 385.328857,493.437500 
	C386.339203,481.331421 387.675934,469.747101 389.012634,458.162781 
z"/>
<path fill="#6AB022" opacity="1.000000" stroke="none" 
	d="
M308.339325,145.802582 
	C309.162292,136.110657 310.346375,126.535889 311.514435,116.959160 
	C311.713135,115.330048 311.843109,113.692543 312.001770,111.635681 
	C314.134247,111.295975 316.269775,111.379509 318.696106,111.728577 
	C318.347260,112.878288 317.269592,113.700798 317.135132,114.656090 
	C315.675751,125.022087 314.364380,135.408920 313.014801,146.223572 
	C311.576324,146.411072 310.135651,146.165085 308.339325,145.802582 
z"/>
<path fill="#44A529" opacity="1.000000" stroke="none" 
	d="
M305.689270,113.268562 
	C304.697571,122.500237 303.376801,131.793503 302.043884,141.481979 
	C292.950806,133.501907 294.489227,120.307495 305.689270,113.268562 
z"/>
<path fill="#4DA827" opacity="1.000000" stroke="none" 
	d="
M377.997559,462.003998 
	C380.076935,460.991516 382.156281,459.979034 384.573547,459.323059 
	C383.280701,470.371490 381.649902,481.063446 380.019135,491.755432 
	C378.418427,490.377563 376.817719,488.999695 375.294678,487.008423 
	C376.247437,478.264679 377.122498,470.134338 377.997559,462.003998 
z"/>
<path fill="#80B71B" opacity="1.000000" stroke="none" 
	d="
M390.358765,493.991425 
	C390.312714,489.956543 390.571228,485.913666 391.008057,481.890106 
	C391.811310,474.491730 392.719513,467.104736 393.778656,459.364349 
	C395.468445,459.509644 396.963562,460.003632 398.358093,460.954895 
	C397.847107,462.446198 397.212158,463.448700 397.062286,464.519165 
	C395.967407,472.338440 394.876831,480.161133 394.018707,488.008362 
	C393.842926,489.616028 394.653107,491.331543 395.008820,492.997345 
	C393.587128,493.328918 392.165466,493.660522 390.358765,493.991425 
z"/>
<path fill="#61AE24" opacity="1.000000" stroke="none" 
	d="
M380.320068,491.922913 
	C381.649902,481.063446 383.280701,470.371490 384.937500,459.277771 
	C386.072632,458.597260 387.181763,458.318512 388.651733,458.101288 
	C387.675934,469.747101 386.339203,481.331421 385.001160,493.362793 
	C383.540253,493.236694 382.080627,492.663544 380.320068,491.922913 
z"/>
<path fill="#8CBB17" opacity="1.000000" stroke="none" 
	d="
M395.297516,492.921906 
	C394.653107,491.331543 393.842926,489.616028 394.018707,488.008362 
	C394.876831,480.161133 395.967407,472.338440 397.062286,464.519165 
	C397.212158,463.448700 397.847107,462.446198 398.570007,461.220642 
	C400.193909,462.139099 401.505280,463.249084 402.643799,464.903992 
	C401.588043,473.806946 400.705170,482.164978 399.822327,490.522980 
	C399.822327,490.522980 399.779419,490.735931 399.376404,490.714691 
	C398.327454,491.070343 397.681488,491.447205 397.035522,491.824097 
	C396.552429,492.164886 396.069305,492.505676 395.297516,492.921906 
z"/>
<path fill="#8CBB17" opacity="1.000000" stroke="none" 
	d="
M321.350098,145.010223 
	C320.383179,144.161743 319.133484,143.217133 319.208588,142.393219 
	C319.954803,134.202271 320.845917,126.021530 321.917114,117.866943 
	C322.050385,116.852364 323.466583,116.006325 324.653320,115.010895 
	C325.622101,115.421669 326.225891,115.903740 326.913605,117.054825 
	C325.923279,125.169952 324.803925,132.610168 323.826843,140.069016 
	C323.691528,141.101929 324.259125,142.226944 324.501312,143.309326 
	C323.561584,143.862930 322.621887,144.416534 321.350098,145.010223 
z"/>
<path fill="#9EC20E" opacity="1.000000" stroke="none" 
	d="
M400.068146,490.318542 
	C400.705170,482.164978 401.588043,473.806946 402.762817,465.206970 
	C409.613464,472.955261 408.567383,482.554260 400.068146,490.318542 
z"/>
<path fill="#44A529" opacity="1.000000" stroke="none" 
	d="
M377.685547,462.137329 
	C377.122498,470.134338 376.247437,478.264679 375.159027,486.713837 
	C368.659119,479.584717 369.603790,469.949646 377.685547,462.137329 
z"/>
<path fill="#9EC20E" opacity="1.000000" stroke="none" 
	d="
M324.782043,143.191620 
	C324.259125,142.226944 323.691528,141.101929 323.826843,140.069016 
	C324.803925,132.610168 325.923279,125.169952 327.013062,117.329788 
	C329.911285,119.647331 331.600708,122.329796 329.329071,126.608627 
	C328.157837,128.814774 328.549194,131.912369 328.521912,134.610077 
	C328.516693,135.129044 329.849945,135.661545 330.393127,136.060913 
	C328.607513,138.410172 326.835144,140.742035 324.782043,143.191620 
z"/>
<path fill="#80B71B" opacity="1.000000" stroke="none" 
	d="
M169.968536,380.974152 
	C170.555267,381.127380 171.141998,381.280609 171.871521,382.154785 
	C171.361649,388.832397 170.708954,394.789032 170.056259,400.745667 
	C169.591400,400.831207 169.126541,400.916718 167.949432,401.015015 
	C166.767288,401.098846 166.297379,401.169952 165.827469,401.241028 
	C165.827469,401.241058 165.800430,401.279785 165.833618,400.818481 
	C166.311508,395.740784 166.543365,391.089081 167.301071,386.524658 
	C167.623810,384.580444 169.045990,382.818787 169.968536,380.974152 
z"/>
<path fill="#93BE14" opacity="1.000000" stroke="none" 
	d="
M170.377045,400.660461 
	C170.708954,394.789032 171.361649,388.832397 172.016327,382.426086 
	C179.455002,388.107788 178.900192,395.922058 170.377045,400.660461 
z"/>
<path fill="#61AE24" opacity="1.000000" stroke="none" 
	d="
M169.716797,380.696411 
	C169.045990,382.818787 167.623810,384.580444 167.301071,386.524658 
	C166.543365,391.089081 166.311508,395.740784 165.810028,400.819244 
	C164.624619,401.068024 163.496017,400.854706 162.250336,399.961426 
	C163.083176,392.920807 164.033081,386.560150 164.982986,380.199493 
	C166.477005,380.272583 167.971039,380.345642 169.716797,380.696411 
z"/>
<path fill="#4DA827" opacity="1.000000" stroke="none" 
	d="
M164.656464,380.170959 
	C164.033081,386.560150 163.083176,392.920807 162.042725,399.681488 
	C160.712906,399.260925 159.473633,398.440338 158.352081,397.040314 
	C158.935181,394.603851 159.531799,392.768005 159.835831,390.884918 
	C160.315521,387.913818 160.598709,384.911041 160.965088,381.921661 
	C162.086700,381.328552 163.208328,380.735474 164.656464,380.170959 
z"/>
<path fill="#44A529" opacity="1.000000" stroke="none" 
	d="
M160.617859,382.000671 
	C160.598709,384.911041 160.315521,387.913818 159.835831,390.884918 
	C159.531799,392.768005 158.935181,394.603851 158.223297,396.737610 
	C154.429596,391.237244 155.201355,386.212402 160.617859,382.000671 
z"/>
<path fill="#44A529" opacity="1.000000" stroke="none" 
	d="
M216.688782,187.076813 
	C216.138168,188.103195 218.887451,192.016968 214.152939,190.137558 
	C214.750580,189.030792 215.575180,188.111298 216.688782,187.076813 
z"/>
<path fill="#80B71B" opacity="1.000000" stroke="none" 
	d="
M396.711487,106.780334 
	C395.865997,106.881378 394.768982,106.751411 393.374634,106.473946 
	C394.204834,106.400742 395.332397,106.475044 396.711487,106.780334 
z"/>
<path fill="#61AE24" opacity="1.000000" stroke="none" 
	d="
M317.513763,151.280869 
	C316.791870,151.447693 315.701813,151.514877 314.360687,151.450241 
	C315.121613,151.272705 316.133606,151.226959 317.513763,151.280869 
z"/>
<path fill="#6AB022" opacity="1.000000" stroke="none" 
	d="
M315.373291,146.757111 
	C315.836761,146.469009 316.613281,146.254211 317.694489,146.037659 
	C317.228241,146.300766 316.457275,146.565598 315.373291,146.757111 
z"/>
<path fill="#9EC20E" opacity="1.000000" stroke="none" 
	d="
M397.325317,491.871582 
	C397.681488,491.447205 398.327454,491.070343 399.268829,490.729553 
	C398.914520,491.150146 398.264832,491.534607 397.325317,491.871582 
z"/>
<path fill="#61AE24" opacity="1.000000" stroke="none" 
	d="
M166.018265,401.401062 
	C166.297379,401.169952 166.767288,401.098846 167.592590,401.033386 
	C167.368332,401.213013 166.788696,401.387024 166.018265,401.401062 
z"/>
<path fill="#61AE24" opacity="1.000000" stroke="none" 
	d="
M303.633850,151.265182 
	C303.453247,151.427399 302.968719,151.526413 302.307220,151.546234 
	C302.530151,151.378677 302.930023,151.290329 303.633850,151.265182 
z"/>
<path fill="#61AE24" opacity="1.000000" stroke="none" 
	d="
M299.640747,151.616577 
	C299.639587,151.779724 299.480835,151.861847 299.184296,151.966766 
	C299.128418,151.786072 299.273956,151.634720 299.640747,151.616577 
z"/>
<path fill="#FEFEFD" opacity="1.000000" stroke="none" 
	d="
M301.468079,334.357208 
	C293.981995,334.386230 286.953918,334.318207 279.467255,334.346283 
	C278.240143,334.378876 277.471619,334.315399 276.098541,334.254333 
	C275.494019,334.256805 275.044098,334.415680 275.044098,334.415680 
	C262.506470,333.213867 258.308258,324.033569 265.059448,313.284882 
	C271.581879,302.900482 277.688843,292.255127 283.990356,281.362549 
	C296.061584,261.095306 308.120758,241.189911 320.269043,220.955627 
	C323.517975,216.637238 326.460541,212.267410 332.344208,212.258835 
	C339.602661,212.248260 344.528107,217.393372 344.982452,225.606567 
	C345.067596,253.797791 345.067596,281.592163 345.067596,308.701202 
	C351.034515,310.104095 356.661407,311.427063 362.651550,312.817749 
	C368.638153,319.603119 368.735291,324.933594 363.172607,331.668152 
	C358.373993,332.720703 353.776520,333.774445 349.126770,334.115051 
	C345.982758,334.345367 344.639435,335.196320 344.799255,338.512573 
	C345.022980,343.155426 344.859833,347.817108 344.854065,352.470734 
	C344.839722,364.123230 336.477081,369.174713 325.472778,363.841492 
	C321.523499,360.692169 320.542511,356.751312 320.749939,352.215729 
	C320.954163,347.750305 320.641296,343.260986 320.852112,338.796143 
	C321.012207,335.404663 319.910461,333.961029 316.340546,334.148315 
	C311.546936,334.399719 306.731903,334.242157 301.468079,334.357208 
M320.799500,301.418152 
	C320.799500,290.261841 320.799500,279.105560 320.799500,267.949249 
	C320.312805,267.798370 319.826111,267.647491 319.339447,267.496613 
	C310.478180,281.404602 301.616913,295.312592 292.487366,309.641663 
	C302.407990,309.641663 311.409027,309.641663 320.799347,309.641663 
	C320.799347,306.980957 320.799347,304.684662 320.799500,301.418152 
z"/>
<path fill="#74B320" opacity="1.000000" stroke="none" 
	d="
M275.149933,334.477539 
	C275.044098,334.415680 275.494019,334.256805 275.719147,334.335205 
	C275.944275,334.413635 275.614746,334.563416 275.614746,334.563416 
	C275.614746,334.563416 275.255768,334.539429 275.149933,334.477539 
z"/>
<path fill="#74B320" opacity="1.000000" stroke="none" 
	d="
M320.799438,301.903259 
	C320.799347,304.684662 320.799347,306.980957 320.799347,309.641663 
	C311.409027,309.641663 302.407990,309.641663 292.487366,309.641663 
	C301.616913,295.312592 310.478180,281.404602 319.339447,267.496613 
	C319.826111,267.647491 320.312805,267.798370 320.799500,267.949249 
	C320.799500,279.105560 320.799500,290.261841 320.799438,301.903259 
z"/>
</svg>