<svg version="1.1" id="Layer_1" xmlns="http://www.w3.org/2000/svg" xmlns:xlink="http://www.w3.org/1999/xlink" x="0px" y="0px"
	 width="100%" viewBox="0 0 600 600" enable-background="new 0 0 600 600" xml:space="preserve">
<path fill="#000000" opacity="1.000000" stroke="none" 
	d="
M335.000000,601.000000 
	C223.333328,601.000000 112.166664,601.000000 1.000000,601.000000 
	C1.000000,401.000000 1.000000,201.000000 1.000000,1.000000 
	C201.000000,1.000000 401.000000,1.000000 601.000000,1.000000 
	C601.000000,201.000000 601.000000,401.000000 601.000000,601.000000 
	C512.500000,601.000000 424.000000,601.000000 335.000000,601.000000 
M172.720215,399.872925 
	C178.661209,394.619537 178.788284,388.455994 172.740067,382.626801 
	C172.257095,382.372101 171.774109,382.117401 170.736832,381.411224 
	C168.483780,381.299774 166.230713,381.188324 163.255844,381.072266 
	C158.673172,382.197998 156.347778,385.413910 155.684738,389.807007 
	C154.974533,394.512604 156.894592,398.142120 161.672607,401.004211 
	C163.462296,401.285950 165.251984,401.567657 167.740112,401.947510 
	C169.174667,401.310547 170.609222,400.673553 172.720215,399.872925 
M399.586304,491.634552 
	C408.494568,484.678864 409.918304,473.571320 402.725800,464.605286 
	C401.481171,463.562103 400.236542,462.518921 398.450470,461.059845 
	C397.622559,460.726776 396.794647,460.393707 395.408203,459.577698 
	C391.990570,459.394073 388.572906,459.210449 384.432831,459.044067 
	C383.111084,459.576111 381.789337,460.108154 379.856445,460.899719 
	C367.944946,468.772308 367.530640,483.058350 379.462860,492.261688 
	C380.996155,492.825806 382.529449,493.389954 384.705231,494.406769 
	C387.747406,494.263519 390.789551,494.120239 394.569244,493.939178 
	C395.037842,493.803925 395.506470,493.668671 396.537079,493.385956 
	C397.344086,492.872528 398.151062,492.359100 399.586304,491.634552 
M324.661774,143.853180 
	C334.119446,136.132629 334.685486,124.311913 325.581909,115.611511 
	C324.060486,114.764580 322.539093,113.917648 320.449524,112.632309 
	C319.291199,112.444794 318.132904,112.257278 316.395325,111.695801 
	C314.629883,111.814323 312.864471,111.932846 310.275055,112.034950 
	C309.499786,112.258018 308.724518,112.481087 307.321960,112.800323 
	C293.266571,119.822037 292.069489,135.960922 305.447845,144.916412 
	C305.628937,144.945877 305.810028,144.975357 306.448212,145.563904 
	C309.549957,146.030182 312.651672,146.496445 316.511658,146.983200 
	C317.010345,146.917007 317.509033,146.850815 318.699432,146.823868 
	C320.467102,145.891479 322.234772,144.959091 324.661774,143.853180 
M314.429688,485.641663 
	C315.523651,485.810852 316.617584,485.980042 318.480286,486.543610 
	C320.931519,486.796875 323.382141,487.259003 325.834045,487.265686 
	C334.466888,487.289215 342.767181,485.937622 350.682373,480.701721 
	C365.274994,472.809814 372.776489,460.275299 375.110687,443.521881 
	C380.119904,444.813446 385.129120,446.105011 390.794617,447.726929 
	C395.527679,448.043060 400.260742,448.359192 405.824310,448.791901 
	C409.882721,448.125427 413.941101,447.458923 418.766754,446.834045 
	C426.479095,443.209442 434.191437,439.584839 442.431976,435.738251 
	C444.674255,433.903046 447.059570,432.215820 449.136047,430.209045 
	C464.819275,415.052429 471.696045,396.420349 469.766449,374.842560 
	C468.483215,360.492889 463.274536,347.523407 452.735382,336.362701 
	C450.849609,333.019928 445.485596,331.878021 447.014038,326.324799 
	C450.924957,312.115509 452.288574,297.495605 450.713440,282.944061 
	C449.478455,271.535034 446.301727,260.336243 443.960419,248.269821 
	C441.800934,242.836380 439.641449,237.402939 437.354034,231.434952 
	C436.888916,230.659210 436.423798,229.883469 435.981964,229.039261 
	C435.981964,229.039261 435.913483,229.016129 435.784912,228.327789 
	C433.609528,224.420593 431.434174,220.513382 429.265076,216.617477 
	C463.497040,185.968231 452.875824,140.145615 429.566956,121.641327 
	C425.414246,119.083847 421.261505,116.526360 416.751740,113.361298 
	C409.701111,109.332802 402.143372,107.168083 393.082550,106.942200 
	C382.559509,106.046684 372.520264,107.807785 362.358246,112.618019 
	C348.508575,119.299866 337.939362,129.460007 332.373657,143.776230 
	C329.871613,150.211960 327.283142,153.987152 319.061798,152.024811 
	C304.752502,151.132248 290.593781,151.884018 275.960114,155.931671 
	C259.981812,159.883514 245.096436,166.265182 231.027451,176.063324 
	C216.814346,185.637192 204.999039,197.693863 195.474701,210.741699 
	C189.241531,208.355484 183.605087,206.197739 177.278198,203.582321 
	C162.915466,201.088089 150.749710,205.090668 140.762268,215.778107 
	C130.981384,226.244492 128.169647,243.343369 134.136063,256.764252 
	C140.457901,270.984650 154.528259,280.297577 169.676987,280.346222 
	C169.750397,281.498993 169.955017,282.660645 169.878052,283.803284 
	C167.893539,313.266846 174.851791,340.546967 190.176071,365.675415 
	C192.216705,369.021576 191.986267,370.701355 189.293320,373.555176 
	C181.599014,381.709106 179.905762,391.487640 184.369904,401.732147 
	C188.384445,410.944916 195.629517,416.332336 206.840912,417.191589 
	C214.387878,417.617889 221.033264,415.373260 226.287704,409.928375 
	C228.424118,407.714478 229.933350,407.996490 232.222687,409.468201 
	C236.382584,412.142395 240.747192,414.498138 245.472565,417.510559 
	C256.852997,421.727722 268.233398,425.944885 279.509735,430.953918 
	C277.471802,447.221771 281.235291,461.595215 293.689667,473.854004 
	C299.398254,479.469482 305.929291,483.626953 314.429688,485.641663 
z"/>
<path fill="#15A082" opacity="1.000000" stroke="none" 
	d="
M245.026367,416.986786 
	C240.747192,414.498138 236.382584,412.142395 232.222687,409.468201 
	C229.933350,407.996490 228.424118,407.714478 226.287704,409.928375 
	C221.033264,415.373260 214.387878,417.617889 206.416000,416.608612 
	C207.328461,403.984833 208.577515,391.933411 210.022919,379.905609 
	C212.478973,359.468018 215.035217,339.042358 217.594513,318.617340 
	C219.344788,304.648865 221.220169,290.695984 222.953522,276.725464 
	C225.834122,253.508514 228.743057,230.294312 231.438934,207.055618 
	C232.543259,197.536331 233.183105,187.960358 233.835632,178.396606 
	C233.889694,177.604218 232.418671,176.707809 231.656250,175.859741 
	C245.096436,166.265182 259.981812,159.883514 276.708252,156.063965 
	C278.292084,159.034561 279.934937,161.910980 279.802979,164.703568 
	C279.484131,171.453171 278.364136,178.167053 277.517517,184.889099 
	C276.073242,196.356384 274.590912,207.818878 273.108856,219.689850 
	C271.670624,234.728897 270.248108,249.361496 268.608246,264.176361 
	C268.384308,265.299866 268.377716,266.241119 268.422943,267.536102 
	C268.326538,268.584778 268.178314,269.279694 267.703461,270.150208 
	C266.888824,271.505981 266.118042,272.648712 265.956055,273.872040 
	C264.135925,287.617065 262.265839,301.358704 260.754913,315.139191 
	C260.358429,318.755554 261.153381,322.502594 261.370667,326.500610 
	C261.203644,327.204224 261.067139,327.596863 260.579773,328.109375 
	C259.487152,329.758087 258.259979,331.233246 258.083862,332.824677 
	C257.082184,341.873840 256.542053,350.976257 255.449875,360.012787 
	C253.426300,376.755676 251.248550,393.482849 248.814499,410.169861 
	C248.463654,412.575165 246.333252,414.720917 245.026367,416.986786 
z"/>
<path fill="#0DA08C" opacity="1.000000" stroke="none" 
	d="
M231.341858,175.961533 
	C232.418671,176.707809 233.889694,177.604218 233.835632,178.396606 
	C233.183105,187.960358 232.543259,197.536331 231.438934,207.055618 
	C228.743057,230.294312 225.834122,253.508514 222.953522,276.725464 
	C221.220169,290.695984 219.344788,304.648865 217.594513,318.617340 
	C215.035217,339.042358 212.478973,359.468018 210.022919,379.905609 
	C208.577515,391.933411 207.328461,403.984833 205.985916,416.467163 
	C195.629517,416.332336 188.384445,410.944916 184.369904,401.732147 
	C179.905762,391.487640 181.599014,381.709106 189.293320,373.555176 
	C191.986267,370.701355 192.216705,369.021576 190.176071,365.675415 
	C174.851791,340.546967 167.893539,313.266846 169.878052,283.803284 
	C169.955017,282.660645 169.750397,281.498993 169.343124,279.678253 
	C170.826553,265.401703 172.776581,251.809143 174.420059,238.179611 
	C175.789597,226.822250 176.799484,215.421509 177.968658,204.039978 
	C183.605087,206.197739 189.241531,208.355484 195.474701,210.741699 
	C204.999039,197.693863 216.814346,185.637192 231.341858,175.961533 
z"/>
<path fill="#23A15F" opacity="1.000000" stroke="none" 
	d="
M349.990997,480.704865 
	C342.767181,485.937622 334.466888,487.289215 325.834045,487.265686 
	C323.382141,487.259003 320.931519,486.796875 318.447693,486.236755 
	C323.341003,482.977753 324.752472,478.706787 323.599640,473.178131 
	C323.003113,470.317444 322.519135,467.238922 322.937225,464.399109 
	C323.995361,457.211578 325.765442,450.131470 326.931824,442.956573 
	C328.571838,432.868011 329.948669,422.736053 331.364258,412.612366 
	C331.520203,411.497314 331.054840,410.307648 331.112946,409.164551 
	C331.421082,403.103302 331.305206,396.964813 332.272797,391.005127 
	C333.935913,380.762024 337.722076,370.809448 336.317474,360.017517 
	C354.529236,348.818359 363.573395,332.932678 363.012726,311.740967 
	C362.636108,297.505524 356.466797,285.889771 347.015198,275.312988 
	C348.061066,266.918640 349.257965,258.947845 350.059540,250.937485 
	C350.626434,245.272018 350.658051,239.552979 351.105072,233.571228 
	C357.926392,226.648376 357.499573,219.911926 350.026855,212.566360 
	C351.336182,207.068893 352.927795,202.000488 353.787201,196.810822 
	C354.487488,192.582092 354.033264,188.172836 354.576202,183.905365 
	C356.280396,170.509903 358.385406,157.164322 360.003082,143.759338 
	C361.259979,133.344208 362.019684,122.869072 363.000366,112.420601 
	C372.520264,107.807785 382.559509,106.046684 393.525482,107.468628 
	C392.627258,119.709412 391.248688,131.419647 389.956329,143.139389 
	C388.846069,153.207977 388.017731,163.310867 386.734253,173.356369 
	C384.991913,186.993546 382.776398,200.570480 381.053894,214.209900 
	C379.057281,230.019867 377.533325,245.889786 375.511536,261.696259 
	C373.531525,277.175842 370.996826,292.584991 369.055756,308.068939 
	C367.486633,320.586151 366.611938,333.189484 365.109863,345.716309 
	C363.607452,358.245911 361.561371,370.709869 360.020050,383.235382 
	C357.996582,399.678772 356.406647,416.176270 354.309845,432.609619 
	C352.270264,448.594604 348.778961,464.432861 349.990997,480.704865 
z"/>
<path fill="#27A157" opacity="1.000000" stroke="none" 
	d="
M350.336670,480.703308 
	C348.778961,464.432861 352.270264,448.594604 354.309845,432.609619 
	C356.406647,416.176270 357.996582,399.678772 360.020050,383.235382 
	C361.561371,370.709869 363.607452,358.245911 365.109863,345.716309 
	C366.611938,333.189484 367.486633,320.586151 369.055756,308.068939 
	C370.996826,292.584991 373.531525,277.175842 375.511536,261.696259 
	C377.533325,245.889786 379.057281,230.019867 381.053894,214.209900 
	C382.776398,200.570480 384.991913,186.993546 386.734253,173.356369 
	C388.017731,163.310867 388.846069,153.207977 389.956329,143.139389 
	C391.248688,131.419647 392.627258,119.709412 393.982300,107.582207 
	C402.143372,107.168083 409.701111,109.332802 416.541931,113.701088 
	C412.110046,114.448830 411.055267,117.024574 410.911591,120.932518 
	C410.704559,126.563553 410.051514,132.195709 409.281799,137.785110 
	C407.291412,152.239746 404.894928,166.641754 403.101471,181.119385 
	C400.837830,199.392395 399.131927,217.733871 396.964630,236.019638 
	C394.424774,257.448486 391.647827,278.849274 388.972992,300.262115 
	C386.302704,321.638519 383.534912,343.003326 380.997406,364.395477 
	C379.511108,376.925690 378.421906,389.502594 377.098083,402.052612 
	C375.706390,415.245605 374.213928,428.428223 372.907928,441.629425 
	C372.833984,442.376740 374.051056,443.251770 374.667236,444.067352 
	C372.776489,460.275299 365.274994,472.809814 350.336670,480.703308 
M372.251617,450.205170 
	C372.286957,449.848450 372.322327,449.491730 372.357666,449.135010 
	C372.219666,449.138062 371.962677,449.129669 371.961121,449.145844 
	C371.927094,449.499817 371.921478,449.856506 372.251617,450.205170 
z"/>
<path fill="#27A051" opacity="1.000000" stroke="none" 
	d="
M374.888977,443.794617 
	C374.051056,443.251770 372.833984,442.376740 372.907928,441.629425 
	C374.213928,428.428223 375.706390,415.245605 377.098083,402.052612 
	C378.421906,389.502594 379.511108,376.925690 380.997406,364.395477 
	C383.534912,343.003326 386.302704,321.638519 388.972992,300.262115 
	C391.647827,278.849274 394.424774,257.448486 396.964630,236.019638 
	C399.131927,217.733871 400.837830,199.392395 403.101471,181.119385 
	C404.894928,166.641754 407.291412,152.239746 409.281799,137.785110 
	C410.051514,132.195709 410.704559,126.563553 410.911591,120.932518 
	C411.055267,117.024574 412.110046,114.448830 416.720459,114.004883 
	C421.261505,116.526360 425.414246,119.083847 429.768311,122.302368 
	C429.347565,125.366661 428.493744,127.736412 428.140808,130.178558 
	C425.745514,146.752426 423.451141,163.340881 421.144409,179.927460 
	C421.007446,180.912125 421.106323,181.928055 420.993805,182.917877 
	C418.991699,200.532043 417.010254,218.148697 414.947540,235.755798 
	C413.348083,249.408783 411.553436,263.039246 410.006317,276.697937 
	C407.878571,295.483398 406.113861,314.312134 403.797485,333.073425 
	C401.785980,349.365295 399.021393,365.563507 396.957550,381.849731 
	C394.536316,400.956146 392.483643,420.109741 390.349945,439.251617 
	C390.050140,441.941071 390.197784,444.680389 390.138306,447.396606 
	C385.129120,446.105011 380.119904,444.813446 374.888977,443.794617 
z"/>
<path fill="#2BA149" opacity="1.000000" stroke="none" 
	d="
M390.466461,447.561768 
	C390.197784,444.680389 390.050140,441.941071 390.349945,439.251617 
	C392.483643,420.109741 394.536316,400.956146 396.957550,381.849731 
	C399.021393,365.563507 401.785980,349.365295 403.797485,333.073425 
	C406.113861,314.312134 407.878571,295.483398 410.006317,276.697937 
	C411.553436,263.039246 413.348083,249.408783 414.947540,235.755798 
	C417.010254,218.148697 418.991699,200.532043 420.993805,182.917877 
	C421.106323,181.928055 421.007446,180.912125 421.144409,179.927460 
	C423.451141,163.340881 425.745514,146.752426 428.140808,130.178558 
	C428.493744,127.736412 429.347565,125.366661 429.982056,122.572769 
	C452.875824,140.145615 463.497040,185.968231 429.265076,216.617477 
	C431.434174,220.513382 433.609528,224.420593 435.535828,228.576752 
	C434.109711,227.900253 432.932678,226.974808 430.999420,225.454773 
	C430.999420,228.870636 431.226868,231.369965 430.955872,233.814011 
	C430.208740,240.552261 430.238556,247.600418 428.109711,253.900375 
	C425.864960,260.543243 425.841400,266.841644 426.557312,273.482727 
	C426.745056,275.224518 426.337677,277.058990 426.029480,278.820435 
	C425.064545,284.335938 423.929840,289.822784 423.030701,295.348389 
	C422.421021,299.095093 422.106903,302.889526 421.643036,306.660461 
	C420.478851,316.124359 419.179810,325.573914 418.184082,335.055420 
	C417.636414,340.270538 417.808014,345.561676 417.248444,350.774872 
	C416.850708,354.480347 415.704651,358.100067 415.022095,361.782074 
	C414.510345,364.542328 414.194855,367.339386 413.809143,370.122437 
	C412.544708,379.245331 411.118500,388.350739 410.113800,397.502258 
	C409.722565,401.065796 410.757111,404.790161 410.334473,408.345215 
	C408.733673,421.809906 406.801849,435.235229 404.993805,448.675293 
	C400.260742,448.359192 395.527679,448.043060 390.466461,447.561768 
z"/>
<path fill="#2EA03D" opacity="1.000000" stroke="none" 
	d="
M443.987671,249.044037 
	C446.301727,260.336243 449.478455,271.535034 450.713440,282.944061 
	C452.288574,297.495605 450.924957,312.115509 447.014038,326.324799 
	C445.485596,331.878021 450.849609,333.019928 452.872284,337.107483 
	C451.684784,346.535889 450.113678,355.190765 449.098389,363.910339 
	C447.830597,374.798645 447.280884,385.772430 445.935944,396.649323 
	C444.696503,406.673157 442.652283,416.595825 441.314545,426.610077 
	C440.908936,429.646393 441.674591,432.839111 441.903748,435.960205 
	C434.191437,439.584839 426.479095,443.209442 418.385864,446.419556 
	C418.962952,442.684998 420.420898,439.418396 420.782715,436.034576 
	C421.769318,426.807343 422.298035,417.530914 422.996674,408.273132 
	C423.171326,405.959198 422.969147,403.561066 423.507843,401.339294 
	C427.226135,386.004089 429.207123,370.445404 430.055847,354.707367 
	C430.385864,348.587799 430.898010,342.462463 431.685974,336.386261 
	C433.705170,320.815155 435.884216,305.264343 438.078064,289.716492 
	C439.992188,276.151154 442.013641,262.600922 443.987671,249.044037 
z"/>
<path fill="#20A06A" opacity="1.000000" stroke="none" 
	d="
M362.679321,112.519310 
	C362.019684,122.869072 361.259979,133.344208 360.003082,143.759338 
	C358.385406,157.164322 356.280396,170.509903 354.576202,183.905365 
	C354.033264,188.172836 354.487488,192.582092 353.787201,196.810822 
	C352.927795,202.000488 351.336182,207.068893 349.649597,212.502838 
	C346.350372,212.338379 343.471893,211.525055 340.573120,211.444809 
	C331.044830,211.181046 321.509125,211.183121 312.058838,210.700623 
	C312.772919,207.758240 313.672577,205.231308 313.992462,202.633011 
	C316.062317,185.819916 318.005768,168.991287 319.990631,152.167740 
	C327.283142,153.987152 329.871613,150.211960 332.373657,143.776230 
	C337.939362,129.460007 348.508575,119.299866 362.679321,112.519310 
z"/>
<path fill="#2BA143" opacity="1.000000" stroke="none" 
	d="
M443.974060,248.656921 
	C442.013641,262.600922 439.992188,276.151154 438.078064,289.716492 
	C435.884216,305.264343 433.705170,320.815155 431.685974,336.386261 
	C430.898010,342.462463 430.385864,348.587799 430.055847,354.707367 
	C429.207123,370.445404 427.226135,386.004089 423.507843,401.339294 
	C422.969147,403.561066 423.171326,405.959198 422.996674,408.273132 
	C422.298035,417.530914 421.769318,426.807343 420.782715,436.034576 
	C420.420898,439.418396 418.962952,442.684998 418.002258,446.398743 
	C413.941101,447.458923 409.882721,448.125427 405.409058,448.733582 
	C406.801849,435.235229 408.733673,421.809906 410.334473,408.345215 
	C410.757111,404.790161 409.722565,401.065796 410.113800,397.502258 
	C411.118500,388.350739 412.544708,379.245331 413.809143,370.122437 
	C414.194855,367.339386 414.510345,364.542328 415.022095,361.782074 
	C415.704651,358.100067 416.850708,354.480347 417.248444,350.774872 
	C417.808014,345.561676 417.636414,340.270538 418.184082,335.055420 
	C419.179810,325.573914 420.478851,316.124359 421.643036,306.660461 
	C422.106903,302.889526 422.421021,299.095093 423.030701,295.348389 
	C423.929840,289.822784 425.064545,284.335938 426.029480,278.820435 
	C426.337677,277.058990 426.745056,275.224518 426.557312,273.482727 
	C425.841400,266.841644 425.864960,260.543243 428.109711,253.900375 
	C430.238556,247.600418 430.208740,240.552261 430.955872,233.814011 
	C431.226868,231.369965 430.999420,228.870636 430.999420,225.454773 
	C432.932678,226.974808 434.109711,227.900253 435.600098,228.920914 
	C435.913483,229.016129 435.981964,229.039261 436.001709,229.361847 
	C436.508301,230.446136 436.995148,231.207809 437.481934,231.969482 
	C439.641449,237.402939 441.800934,242.836380 443.974060,248.656921 
z"/>
<path fill="#039F94" opacity="1.000000" stroke="none" 
	d="
M177.623428,203.811157 
	C176.799484,215.421509 175.789597,226.822250 174.420059,238.179611 
	C172.776581,251.809143 170.826553,265.401703 169.004471,279.425079 
	C154.528259,280.297577 140.457901,270.984650 134.136063,256.764252 
	C128.169647,243.343369 130.981384,226.244492 140.762268,215.778107 
	C150.749710,205.090668 162.915466,201.088089 177.623428,203.811157 
z"/>
<path fill="#1CA079" opacity="1.000000" stroke="none" 
	d="
M245.249466,417.248657 
	C246.333252,414.720917 248.463654,412.575165 248.814499,410.169861 
	C251.248550,393.482849 253.426300,376.755676 255.449875,360.012787 
	C256.542053,350.976257 257.082184,341.873840 258.083862,332.824677 
	C258.259979,331.233246 259.487152,329.758087 260.633118,328.523804 
	C261.657593,331.517120 261.857300,334.404785 262.970123,336.882294 
	C268.138977,348.389618 277.068512,356.298248 287.981323,362.588867 
	C287.311584,373.100250 286.690491,383.199097 285.968201,393.290680 
	C285.829498,395.228455 285.438232,397.178802 284.907715,399.050873 
	C284.050018,402.077667 282.539124,404.983368 282.115051,408.052277 
	C281.618591,411.645050 282.297211,415.391388 281.901398,419.009338 
	C281.490509,422.765381 280.404510,426.447571 279.613770,430.162048 
	C268.233398,425.944885 256.852997,421.727722 245.249466,417.248657 
z"/>
<path fill="#1FA06E" opacity="1.000000" stroke="none" 
	d="
M279.561768,430.557983 
	C280.404510,426.447571 281.490509,422.765381 281.901398,419.009338 
	C282.297211,415.391388 281.618591,411.645050 282.115051,408.052277 
	C282.539124,404.983368 284.050018,402.077667 284.907715,399.050873 
	C285.438232,397.178802 285.829498,395.228455 285.968201,393.290680 
	C286.690491,383.199097 287.311584,373.100250 288.338654,362.624664 
	C295.805237,363.856049 302.901093,365.466736 310.085083,367.464722 
	C310.277832,370.472015 310.743805,373.137756 310.419220,375.703461 
	C309.446747,383.390350 307.971832,391.015076 307.056061,398.707336 
	C306.039673,407.244263 305.388275,415.825836 304.645416,424.393799 
	C304.143555,430.181946 304.066986,436.024292 303.246552,441.763245 
	C302.101624,449.771912 299.973724,457.660980 299.186829,465.691437 
	C298.764069,470.005951 297.863007,472.709839 293.321381,473.251007 
	C281.235291,461.595215 277.471802,447.221771 279.561768,430.557983 
z"/>
<path fill="#1CA079" opacity="1.000000" stroke="none" 
	d="
M319.526215,152.096283 
	C318.005768,168.991287 316.062317,185.819916 313.992462,202.633011 
	C313.672577,205.231308 312.772919,207.758240 311.605011,210.815506 
	C303.578156,211.330200 296.082916,211.519409 288.598572,211.313934 
	C281.865143,211.129089 276.607025,213.370819 273.124573,219.283386 
	C274.590912,207.818878 276.073242,196.356384 277.517517,184.889099 
	C278.364136,178.167053 279.484131,171.453171 279.802979,164.703568 
	C279.934937,161.910980 278.292084,159.034561 277.095154,156.048233 
	C290.593781,151.884018 304.752502,151.132248 319.526215,152.096283 
z"/>
<path fill="#20A06A" opacity="1.000000" stroke="none" 
	d="
M293.505524,473.552490 
	C297.863007,472.709839 298.764069,470.005951 299.186829,465.691437 
	C299.973724,457.660980 302.101624,449.771912 303.246552,441.763245 
	C304.066986,436.024292 304.143555,430.181946 304.645416,424.393799 
	C305.388275,415.825836 306.039673,407.244263 307.056061,398.707336 
	C307.971832,391.015076 309.446747,383.390350 310.419220,375.703461 
	C310.743805,373.137756 310.277832,370.472015 310.519440,367.378754 
	C316.576630,365.971161 322.287659,365.036835 327.967926,364.465210 
	C327.464050,367.076233 326.796631,369.303497 326.550415,371.576447 
	C325.285767,383.250153 324.262848,394.951538 322.871887,406.609406 
	C322.285156,411.527100 320.658203,416.322571 320.098724,421.241272 
	C318.211853,437.829926 316.556702,454.445374 314.892029,471.058502 
	C314.419464,475.774994 314.216797,480.518494 313.890320,485.249603 
	C305.929291,483.626953 299.398254,479.469482 293.505524,473.552490 
z"/>
<path fill="#309F32" opacity="1.000000" stroke="none" 
	d="
M442.167847,435.849243 
	C441.674591,432.839111 440.908936,429.646393 441.314545,426.610077 
	C442.652283,416.595825 444.696503,406.673157 445.935944,396.649323 
	C447.280884,385.772430 447.830597,374.798645 449.098389,363.910339 
	C450.113678,355.190765 451.684784,346.535889 453.014526,337.408173 
	C463.274536,347.523407 468.483215,360.492889 469.766449,374.842560 
	C471.696045,396.420349 464.819275,415.052429 449.136047,430.209045 
	C447.059570,432.215820 444.674255,433.903046 442.167847,435.849243 
z"/>
<path fill="#22A165" opacity="1.000000" stroke="none" 
	d="
M314.160004,485.445618 
	C314.216797,480.518494 314.419464,475.774994 314.892029,471.058502 
	C316.556702,454.445374 318.211853,437.829926 320.098724,421.241272 
	C320.658203,416.322571 322.285156,411.527100 322.871887,406.609406 
	C324.262848,394.951538 325.285767,383.250153 326.550415,371.576447 
	C326.796631,369.303497 327.464050,367.076233 328.263245,364.272156 
	C331.059601,362.530945 333.529938,361.345490 336.000305,360.160034 
	C337.722076,370.809448 333.935913,380.762024 332.272797,391.005127 
	C331.305206,396.964813 331.421082,403.103302 331.112946,409.164551 
	C331.054840,410.307648 331.520203,411.497314 331.364258,412.612366 
	C329.948669,422.736053 328.571838,432.868011 326.931824,442.956573 
	C325.765442,450.131470 323.995361,457.211578 322.937225,464.399109 
	C322.519135,467.238922 323.003113,470.317444 323.599640,473.178131 
	C324.752472,478.706787 323.341003,482.977753 318.063354,486.039551 
	C316.617584,485.980042 315.523651,485.810852 314.160004,485.445618 
z"/>
<path fill="#0DA08C" opacity="1.000000" stroke="none" 
	d="
M378.961792,491.749664 
	C367.530640,483.058350 367.944946,468.772308 380.438843,461.119934 
	C381.173981,464.913422 381.699066,468.518341 381.399048,472.053223 
	C380.840027,478.640228 379.801025,485.186462 378.961792,491.749664 
z"/>
<path fill="#15A082" opacity="1.000000" stroke="none" 
	d="
M379.212341,492.005676 
	C379.801025,485.186462 380.840027,478.640228 381.399048,472.053223 
	C381.699066,468.518341 381.173981,464.913422 380.744385,460.990173 
	C381.789337,460.108154 383.111084,459.576111 385.177216,459.071533 
	C386.944794,460.655029 389.008789,462.348328 388.824615,463.745148 
	C387.492279,473.848419 385.705566,483.891754 384.062744,493.954071 
	C382.529449,493.389954 380.996155,492.825806 379.212341,492.005676 
z"/>
<path fill="#0DA08C" opacity="1.000000" stroke="none" 
	d="
M304.958618,144.662384 
	C292.069489,135.960922 293.266571,119.822037 307.592407,113.115318 
	C306.894806,123.841003 305.926727,134.251694 304.958618,144.662384 
z"/>
<path fill="#20A06A" opacity="1.000000" stroke="none" 
	d="
M384.383972,494.180420 
	C385.705566,483.891754 387.492279,473.848419 388.824615,463.745148 
	C389.008789,462.348328 386.944794,460.655029 385.538452,459.062927 
	C388.572906,459.210449 391.990570,459.394073 395.490112,460.139191 
	C395.239410,461.277008 394.688354,461.824127 394.606903,462.433990 
	C393.377899,471.635834 392.092102,480.834076 391.173309,490.068359 
	C391.053650,491.271149 392.897430,492.669281 393.831726,493.976959 
	C390.789551,494.120239 387.747406,494.263519 384.383972,494.180420 
z"/>
<path fill="#1CA079" opacity="1.000000" stroke="none" 
	d="
M311.099030,112.051361 
	C312.864471,111.932846 314.629883,111.814323 316.685120,112.310104 
	C315.894257,122.948212 314.729034,132.964539 313.839996,143.005295 
	C313.729065,144.258148 315.079895,145.640411 315.753418,146.962708 
	C312.651672,146.496445 309.549957,146.030182 306.567505,145.176971 
	C307.584320,143.320206 309.063660,141.931290 309.281281,140.366852 
	C310.368042,132.554443 311.199127,124.703011 311.931671,116.847717 
	C312.077057,115.288368 311.397919,113.652145 311.099030,112.051361 
z"/>
<path fill="#27A157" opacity="1.000000" stroke="none" 
	d="
M321.017670,113.070709 
	C322.539093,113.917648 324.060486,114.764580 325.785278,116.299545 
	C325.326569,126.000618 324.664490,135.013657 324.002411,144.026703 
	C322.234772,144.959091 320.467102,145.891479 318.364563,146.398895 
	C319.025726,135.006180 320.021698,124.038445 321.017670,113.070709 
z"/>
<path fill="#22A165" opacity="1.000000" stroke="none" 
	d="
M320.733582,112.851509 
	C320.021698,124.038445 319.025726,135.006180 318.018738,146.379272 
	C317.509033,146.850815 317.010345,146.917007 316.132538,146.972961 
	C315.079895,145.640411 313.729065,144.258148 313.839996,143.005295 
	C314.729034,132.964539 315.894257,122.948212 316.974762,112.497086 
	C318.132904,112.257278 319.291199,112.444794 320.733582,112.851509 
z"/>
<path fill="#15A082" opacity="1.000000" stroke="none" 
	d="
M310.687042,112.043159 
	C311.397919,113.652145 312.077057,115.288368 311.931671,116.847717 
	C311.199127,124.703011 310.368042,132.554443 309.281281,140.366852 
	C309.063660,141.931290 307.584320,143.320206 306.338959,144.897430 
	C305.810028,144.975357 305.628937,144.945877 305.203247,144.789398 
	C305.926727,134.251694 306.894806,123.841003 307.906067,113.067230 
	C308.724518,112.481087 309.499786,112.258018 310.687042,112.043159 
z"/>
<path fill="#23A15F" opacity="1.000000" stroke="none" 
	d="
M394.200500,493.958069 
	C392.897430,492.669281 391.053650,491.271149 391.173309,490.068359 
	C392.092102,480.834076 393.377899,471.635834 394.606903,462.433990 
	C394.688354,461.824127 395.239410,461.277008 395.769379,460.380646 
	C396.794647,460.393707 397.622559,460.726776 398.718872,461.675964 
	C398.810211,464.256866 398.680267,466.227234 398.447388,468.185333 
	C397.694305,474.516388 396.852966,480.837372 396.155548,487.174347 
	C395.924347,489.275208 396.025757,491.412689 395.975067,493.533417 
	C395.506470,493.668671 395.037842,493.803925 394.200500,493.958069 
z"/>
<path fill="#2EA03D" opacity="1.000000" stroke="none" 
	d="
M324.332092,143.939941 
	C324.664490,135.013657 325.326569,126.000618 325.988953,116.559929 
	C334.685486,124.311913 334.119446,136.132629 324.332092,143.939941 
z"/>
<path fill="#0DA08C" opacity="1.000000" stroke="none" 
	d="
M160.999420,400.584900 
	C156.894592,398.142120 154.974533,394.512604 155.684738,389.807007 
	C156.347778,385.413910 158.673172,382.197998 163.625916,381.515808 
	C162.997131,388.167877 161.998276,394.376373 160.999420,400.584900 
z"/>
<path fill="#27A051" opacity="1.000000" stroke="none" 
	d="
M396.256073,493.459686 
	C396.025757,491.412689 395.924347,489.275208 396.155548,487.174347 
	C396.852966,480.837372 397.694305,474.516388 398.447388,468.185333 
	C398.680267,466.227234 398.810211,464.256866 398.989624,461.883911 
	C400.236542,462.518921 401.481171,463.562103 402.848083,465.302765 
	C401.632935,474.615387 400.295502,483.230499 398.958069,491.845642 
	C398.151062,492.359100 397.344086,492.872528 396.256073,493.459686 
z"/>
<path fill="#2EA03D" opacity="1.000000" stroke="none" 
	d="
M399.272186,491.740112 
	C400.295502,483.230499 401.632935,474.615387 402.973633,465.591003 
	C409.918304,473.571320 408.494568,484.678864 399.272186,491.740112 
z"/>
<path fill="#1FA06E" opacity="1.000000" stroke="none" 
	d="
M161.336014,400.794556 
	C161.998276,394.376373 162.997131,388.167877 163.986816,381.518127 
	C166.230713,381.188324 168.483780,381.299774 170.656250,381.820923 
	C169.397675,388.770203 168.219681,395.309814 167.041687,401.849396 
	C165.251984,401.567657 163.462296,401.285950 161.336014,400.794556 
z"/>
<path fill="#27A157" opacity="1.000000" stroke="none" 
	d="
M167.390900,401.898438 
	C168.219681,395.309814 169.397675,388.770203 170.933395,382.046661 
	C171.774109,382.117401 172.257095,382.372101 172.891296,383.293030 
	C172.709595,389.318359 172.376678,394.677460 172.043762,400.036560 
	C170.609222,400.673553 169.174667,401.310547 167.390900,401.898438 
z"/>
<path fill="#2EA03D" opacity="1.000000" stroke="none" 
	d="
M172.381989,399.954773 
	C172.376678,394.677460 172.709595,389.318359 173.054474,383.519135 
	C178.788284,388.455994 178.661209,394.619537 172.381989,399.954773 
z"/>
<path fill="#2BA149" opacity="1.000000" stroke="none" 
	d="
M437.417999,231.702209 
	C436.995148,231.207809 436.508301,230.446136 435.990082,229.396088 
	C436.423798,229.883469 436.888916,230.659210 437.417999,231.702209 
z"/>
<path fill="#FCFDFC" opacity="1.000000" stroke="none" 
	d="
M336.317474,360.017517 
	C333.529938,361.345490 331.059601,362.530945 328.293945,363.909485 
	C322.287659,365.036835 316.576630,365.971161 310.431274,366.991455 
	C302.901093,365.466736 295.805237,363.856049 288.352051,362.209595 
	C277.068512,356.298248 268.138977,348.389618 262.970123,336.882294 
	C261.857300,334.404785 261.657593,331.517120 260.983948,328.403931 
	C261.067139,327.596863 261.203644,327.204224 261.590942,326.252533 
	C263.977234,320.753082 267.783081,318.100922 273.114746,318.091461 
	C278.509491,318.081879 282.031189,321.049225 284.323639,325.832062 
	C287.083557,331.590118 290.790863,336.536530 297.199463,339.351135 
	C309.980560,345.096283 323.388062,342.784973 331.198425,333.809814 
	C340.138824,323.535980 341.655090,310.621552 335.199860,299.727631 
	C328.501892,288.424042 316.099274,283.327362 302.470703,286.485443 
	C297.591736,289.482300 292.772980,292.049805 288.669556,295.474365 
	C284.629150,298.846313 278.137024,301.342682 274.235260,299.823334 
	C269.900970,298.135590 266.613312,292.172791 266.929840,286.317871 
	C267.224548,280.866241 267.657806,275.422058 268.030090,269.974609 
	C268.178314,269.279694 268.326538,268.584778 268.584412,267.247375 
	C268.737885,265.734589 268.781738,264.864349 268.825592,263.994080 
	C270.248108,249.361496 271.670624,234.728897 273.108856,219.689850 
	C276.607025,213.370819 281.865143,211.129089 288.598572,211.313934 
	C296.082916,211.519409 303.578156,211.330200 311.522461,211.197968 
	C321.509125,211.183121 331.044830,211.181046 340.573120,211.444809 
	C343.471893,211.525055 346.350372,212.338379 349.615356,212.879486 
	C357.499573,219.911926 357.926392,226.648376 350.730225,233.661957 
	C343.784851,234.719406 337.390839,235.399490 330.535461,235.993378 
	C318.787720,235.907181 307.501312,235.907181 295.929260,235.907181 
	C295.095490,245.413132 294.304535,254.431061 293.622040,262.212341 
	C303.456970,262.212341 312.677917,262.212341 322.187897,262.437408 
	C331.885254,264.695801 339.731995,269.661743 346.997284,275.719604 
	C356.466797,285.889771 362.636108,297.505524 363.012726,311.740967 
	C363.573395,332.932678 354.529236,348.818359 336.317474,360.017517 
z"/>
<path fill="#1CA079" opacity="1.000000" stroke="none" 
	d="
M267.703430,270.150208 
	C267.657806,275.422058 267.224548,280.866241 266.929840,286.317871 
	C266.613312,292.172791 269.900970,298.135590 274.235260,299.823334 
	C278.137024,301.342682 284.629150,298.846313 288.669556,295.474365 
	C292.772980,292.049805 297.591736,289.482300 302.498718,286.988525 
	C300.924072,304.648651 298.947906,321.859680 296.971741,339.070679 
	C290.790863,336.536530 287.083557,331.590118 284.323639,325.832062 
	C282.031189,321.049225 278.509491,318.081879 273.114746,318.091461 
	C267.783081,318.100922 263.977234,320.753082 261.621460,325.941528 
	C261.153381,322.502594 260.358429,318.755554 260.754913,315.139191 
	C262.265839,301.358704 264.135925,287.617065 265.956055,273.872040 
	C266.118042,272.648712 266.888824,271.505981 267.703430,270.150208 
z"/>
<path fill="#1CA079" opacity="1.000000" stroke="none" 
	d="
M268.608246,264.176361 
	C268.781738,264.864349 268.737885,265.734589 268.532593,266.893616 
	C268.377716,266.241119 268.384308,265.299866 268.608246,264.176361 
z"/>
<path fill="#20A06A" opacity="1.000000" stroke="none" 
	d="
M330.996796,236.079575 
	C337.390839,235.399490 343.784851,234.719406 350.553772,233.948593 
	C350.658051,239.552979 350.626434,245.272018 350.059540,250.937485 
	C349.257965,258.947845 348.061066,266.918640 347.015198,275.312988 
	C339.731995,269.661743 331.885254,264.695801 322.382294,262.108032 
	C322.975220,259.565277 323.844238,257.619141 324.317017,255.581055 
	C325.879364,248.845871 326.392456,241.768799 330.996796,236.079575 
z"/>
<path fill="#27A051" opacity="1.000000" stroke="none" 
	d="
M372.080994,450.208923 
	C371.921478,449.856506 371.927094,449.499817 371.961121,449.145844 
	C371.962677,449.129669 372.219666,449.138062 372.357666,449.135010 
	C372.322327,449.491730 372.286957,449.848450 372.080994,450.208923 
z"/>
<path fill="#1FA06E" opacity="1.000000" stroke="none" 
	d="
M297.199463,339.351135 
	C298.947906,321.859680 300.924072,304.648651 302.872192,286.934570 
	C316.099274,283.327362 328.501892,288.424042 335.199860,299.727631 
	C341.655090,310.621552 340.138824,323.535980 331.198425,333.809814 
	C323.388062,342.784973 309.980560,345.096283 297.199463,339.351135 
z"/>
<path fill="#1FA06E" opacity="1.000000" stroke="none" 
	d="
M330.535461,235.993378 
	C326.392456,241.768799 325.879364,248.845871 324.317017,255.581055 
	C323.844238,257.619141 322.975220,259.565277 322.093292,261.882935 
	C312.677917,262.212341 303.456970,262.212341 293.622040,262.212341 
	C294.304535,254.431061 295.095490,245.413132 295.929260,235.907181 
	C307.501312,235.907181 318.787720,235.907181 330.535461,235.993378 
z"/>
</svg>