<svg version="1.1" id="Layer_1" xmlns="http://www.w3.org/2000/svg" xmlns:xlink="http://www.w3.org/1999/xlink" x="0px" y="0px"
	 width="100%" viewBox="0 0 600 600" enable-background="new 0 0 600 600" xml:space="preserve">
<path fill="#000000" opacity="1.000000" stroke="none" 
	d="
M343.000000,601.000000 
	C228.666672,601.000000 114.833336,601.000000 1.000000,601.000000 
	C1.000000,401.000000 1.000000,201.000000 1.000000,1.000000 
	C201.000000,1.000000 401.000000,1.000000 601.000000,1.000000 
	C601.000000,201.000000 601.000000,401.000000 601.000000,601.000000 
	C515.166687,601.000000 429.333344,601.000000 343.000000,601.000000 
M170.417877,381.892975 
	C169.888077,381.605774 169.358276,381.318604 168.274506,380.644318 
	C161.667358,380.629242 157.066956,383.669312 156.105713,388.850037 
	C155.160828,393.942444 157.568665,400.186554 164.816528,401.924255 
	C166.220535,401.856812 167.624542,401.789368 169.700027,401.578339 
	C174.856644,399.525604 177.923477,395.726288 177.351196,390.890717 
	C176.897263,387.055084 175.794464,383.097809 170.417877,381.892975 
M320.743835,145.974487 
	C334.070374,140.401276 336.316925,124.102524 324.526031,114.617096 
	C320.774750,113.651489 317.023468,112.685883 312.527588,111.654755 
	C311.881897,111.772812 311.235199,111.885506 310.590698,112.009743 
	C302.616028,113.547035 296.512146,120.952499 296.372253,129.257980 
	C296.239075,137.161057 301.470123,144.132019 309.487091,146.667709 
	C312.997803,146.442902 316.508545,146.218109 320.743835,145.974487 
M398.351807,460.947968 
	C394.582306,460.298706 390.812836,459.649475 386.255371,459.003967 
	C378.156677,460.331390 372.006226,466.602844 371.151886,474.404633 
	C370.253723,482.606567 374.445038,489.801910 382.467041,493.632721 
	C386.649811,493.690826 390.832581,493.748901 395.711823,493.837646 
	C410.595001,487.800903 410.630768,467.533478 398.351807,460.947968 
M315.865326,485.879028 
	C320.909210,486.194397 325.953125,486.509735 331.837677,486.957031 
	C344.369049,485.800812 354.879028,480.703583 363.623871,470.699493 
	C370.469879,462.852448 374.119812,453.632660 375.227325,443.817200 
	C381.846863,445.162811 388.420746,446.499176 395.778870,448.119904 
	C405.106323,450.027588 414.099915,448.199768 423.742920,445.647614 
	C424.818604,445.210205 425.890900,444.764252 426.970490,444.336639 
	C473.628448,425.855042 485.314941,366.810394 449.278870,332.137604 
	C447.945801,330.854980 446.949371,328.003082 447.387268,326.289032 
	C451.503540,310.177399 452.329803,293.849609 450.721527,277.418396 
	C450.083130,270.896301 448.232117,264.492950 446.954987,257.325165 
	C446.863708,256.864807 446.772430,256.404419 446.667297,255.522842 
	C446.517578,255.268692 446.302521,255.095901 445.988098,254.204910 
	C440.971558,241.494583 435.954987,228.784241 430.716522,215.511612 
	C445.656799,201.444931 453.444824,183.380173 450.966156,161.472900 
	C449.471283,148.260452 444.518555,136.559006 434.730194,126.402946 
	C426.046539,117.038818 415.520386,110.891045 402.174377,108.026237 
	C395.155151,107.713593 388.137573,107.316772 381.114929,107.181572 
	C380.094147,107.161919 379.049255,108.393700 377.133484,109.009613 
	C370.610962,108.332291 365.214508,111.355553 359.122833,114.597450 
	C358.277985,115.083351 357.288391,115.420357 356.611206,116.078712 
	C351.249115,121.291908 345.946472,126.566277 340.100677,132.215805 
	C335.630951,137.207779 332.339325,142.880264 331.175476,149.501480 
	C330.660614,152.430649 329.131348,152.689438 326.787567,152.622421 
	C319.524384,152.414749 312.258301,152.310043 304.111084,152.031891 
	C291.384644,152.813904 278.748993,154.090775 266.021362,158.924408 
	C261.981384,160.512909 257.718536,161.696259 253.946228,163.771286 
	C245.149857,168.609894 236.589401,173.877380 227.320648,179.083572 
	C226.537384,179.731339 225.754120,180.379105 224.469482,181.128525 
	C224.290497,181.408707 224.111511,181.688889 223.280701,182.118088 
	C221.155197,184.066544 219.029678,186.014999 216.271317,188.109543 
	C215.216385,189.163071 214.161453,190.216599 212.504822,191.558426 
	C206.602386,198.146591 200.699951,204.734741 195.204758,210.868332 
	C190.591629,208.841202 186.250610,206.933640 181.622284,204.700577 
	C181.105179,204.807419 180.588074,204.914276 179.559448,204.963440 
	C179.390640,204.932648 179.221848,204.901855 178.688187,204.133331 
	C172.208908,204.162491 165.516876,203.149963 159.291290,204.421341 
	C142.420883,207.866608 129.533691,227.216278 131.440186,244.899399 
	C133.514587,264.139893 148.734375,279.090820 167.880661,279.983093 
	C171.464539,279.968140 170.083664,282.675140 170.032761,284.301025 
	C169.604858,297.968750 170.433929,311.471954 173.637756,324.849945 
	C177.531784,341.110168 184.013336,356.180969 193.269379,370.125061 
	C187.295471,377.246063 180.678635,383.813812 182.621994,394.319275 
	C184.453140,404.218079 189.255890,411.559082 199.478745,415.774384 
	C206.906219,417.822205 215.369781,419.128021 220.855515,413.776978 
	C228.312485,406.503082 233.699356,409.625366 240.293442,414.733154 
	C249.218445,418.485260 258.143433,422.237335 267.569000,426.517670 
	C271.659546,427.729492 275.750092,428.941345 279.806671,430.143127 
	C277.560760,449.232422 282.750732,465.114960 298.373260,477.607849 
	C303.938629,480.269196 309.504028,482.930542 315.865326,485.879028 
z"/>
<path fill="#12A5B4" opacity="1.000000" stroke="none" 
	d="
M378.015503,109.046387 
	C379.049255,108.393700 380.094147,107.161919 381.114929,107.181572 
	C388.137573,107.316772 395.155151,107.713593 402.701599,108.445496 
	C406.650238,111.283852 407.009583,114.365997 406.211761,118.379631 
	C404.788025,125.542389 403.946167,132.830185 403.073120,140.091217 
	C400.756287,159.360123 398.592163,178.647369 396.290833,197.918182 
	C394.600494,212.072662 392.750488,226.207993 391.044464,240.360657 
	C389.732086,251.247726 388.648010,262.163239 387.249481,273.038727 
	C386.000153,282.754211 384.264160,292.408539 383.086761,302.131531 
	C380.409454,324.240417 378.018097,346.383881 375.370728,368.496521 
	C372.663055,391.113342 369.754913,413.706085 367.001068,436.317474 
	C365.595490,447.858582 364.335754,459.417480 363.010101,470.968323 
	C354.879028,480.703583 344.369049,485.800812 331.513184,486.500916 
	C332.127869,479.988159 333.241272,473.952454 333.970917,467.870697 
	C335.632324,454.023010 337.053040,440.146606 338.668213,426.293121 
	C340.746490,408.467438 342.911591,390.651917 345.057556,372.834167 
	C345.513489,369.048584 346.107483,365.279022 346.525330,361.489655 
	C346.796051,359.035187 346.862396,356.558167 347.020050,354.055908 
	C347.019806,354.020538 347.090393,354.020538 347.260406,353.864197 
	C347.645111,353.484558 347.827606,353.237488 348.082947,352.647614 
	C360.335052,341.290497 365.664185,327.486633 364.862915,311.200348 
	C364.380219,301.389618 360.789673,292.614594 355.971985,283.870636 
	C357.134491,274.716522 358.168427,265.974762 359.255737,257.239685 
	C361.841827,236.463791 364.506317,215.697464 367.019196,194.912766 
	C367.696106,189.314026 367.608124,183.611938 368.460541,178.047577 
	C370.066711,167.562698 372.431244,157.188721 373.872437,146.685196 
	C375.587585,134.184784 376.662933,121.596565 378.015503,109.046387 
z"/>
<path fill="#0EA3AD" opacity="1.000000" stroke="none" 
	d="
M363.316986,470.833923 
	C364.335754,459.417480 365.595490,447.858582 367.001068,436.317474 
	C369.754913,413.706085 372.663055,391.113342 375.370728,368.496521 
	C378.018097,346.383881 380.409454,324.240417 383.086761,302.131531 
	C384.264160,292.408539 386.000153,282.754211 387.249481,273.038727 
	C388.648010,262.163239 389.732086,251.247726 391.044464,240.360657 
	C392.750488,226.207993 394.600494,212.072662 396.290833,197.918182 
	C398.592163,178.647369 400.756287,159.360123 403.073120,140.091217 
	C403.946167,132.830185 404.788025,125.542389 406.211761,118.379631 
	C407.009583,114.365997 406.650238,111.283852 403.114014,108.545319 
	C415.520386,110.891045 426.046539,117.038818 434.781006,127.088348 
	C432.542847,143.174850 430.010406,158.544693 428.029510,173.985306 
	C425.794006,191.410767 424.161102,208.912674 422.065399,226.357208 
	C420.429077,239.977722 418.423492,253.553482 416.705231,267.164703 
	C415.832458,274.078461 415.339935,281.039917 414.485535,287.956360 
	C412.697693,302.428314 410.725403,316.877563 408.946869,331.350647 
	C408.076416,338.434052 407.631714,345.570953 406.709869,352.646576 
	C404.912231,366.445099 402.787323,380.201508 401.046692,394.006714 
	C399.988434,402.399902 399.507996,410.864441 398.563660,419.273956 
	C397.493103,428.807861 396.194214,438.316101 394.994629,447.835510 
	C388.420746,446.499176 381.846863,445.162811 375.227325,443.817200 
	C374.119812,453.632660 370.469879,462.852448 363.316986,470.833923 
z"/>
<path fill="#1DAAD0" opacity="1.000000" stroke="none" 
	d="
M239.960556,414.118164 
	C233.699356,409.625366 228.312485,406.503082 220.855515,413.776978 
	C215.369781,419.128021 206.906219,417.822205 199.320404,415.163879 
	C199.532349,412.353088 199.934418,410.157623 200.267319,407.951691 
	C201.592926,399.167603 202.088196,390.148804 204.511414,381.680664 
	C205.971924,376.576752 208.919678,372.309814 206.423111,366.622314 
	C205.456024,364.419128 206.269379,361.398102 206.407349,358.756744 
	C206.534775,356.317383 206.795410,353.881775 207.080963,351.454376 
	C208.541580,339.038574 207.643356,326.225922 213.600342,314.560394 
	C214.601227,312.600372 215.223816,309.944702 214.804962,307.854126 
	C213.415009,300.916779 214.169922,294.320953 216.469971,287.740326 
	C216.945587,286.379517 216.818344,284.792480 216.882233,283.306000 
	C217.172287,276.556274 217.249649,269.790680 217.787125,263.061432 
	C218.015732,260.199371 219.163574,257.406769 219.930725,254.592667 
	C220.911774,250.993774 222.587433,247.445694 222.812485,243.804565 
	C223.561539,231.685196 223.792801,219.533890 224.237091,207.395355 
	C224.255112,206.902985 224.450027,206.419769 224.512955,205.925980 
	C225.657639,196.941605 226.794693,187.956268 227.933380,178.971130 
	C236.589401,173.877380 245.149857,168.609894 253.946228,163.771286 
	C257.718536,161.696259 261.981384,160.512909 266.731110,159.097122 
	C267.848877,161.925507 268.800415,164.634354 268.546844,167.225281 
	C268.081177,171.983994 266.629913,176.640884 266.071533,181.396805 
	C262.899750,208.411880 259.946442,235.452606 256.768646,262.466949 
	C254.287628,283.558258 251.609375,304.626526 248.979813,325.700165 
	C246.309631,347.099091 243.406265,368.471161 240.990417,389.898438 
	C240.087311,397.908569 240.271896,406.041321 239.960556,414.118164 
z"/>
<path fill="#1AA9CB" opacity="1.000000" stroke="none" 
	d="
M240.126999,414.425659 
	C240.271896,406.041321 240.087311,397.908569 240.990417,389.898438 
	C243.406265,368.471161 246.309631,347.099091 248.979813,325.700165 
	C251.609375,304.626526 254.287628,283.558258 256.768646,262.466949 
	C259.946442,235.452606 262.899750,208.411880 266.071533,181.396805 
	C266.629913,176.640884 268.081177,171.983994 268.546844,167.225281 
	C268.800415,164.634354 267.848877,161.925507 267.099548,159.076660 
	C278.748993,154.090775 291.384644,152.813904 304.553589,152.535675 
	C303.165985,168.352173 300.997314,183.634460 299.617798,198.987671 
	C298.597595,210.342117 295.477539,221.561676 296.921021,233.440430 
	C287.002319,252.318771 277.164642,270.856567 267.382904,289.423889 
	C260.342529,302.787598 259.186432,316.612701 263.810577,331.067902 
	C267.291138,341.948273 274.407166,349.952179 282.649078,357.269318 
	C281.912537,359.229279 281.199615,360.912872 281.048096,362.645569 
	C280.544556,368.403961 280.555084,374.221191 279.801361,379.941132 
	C278.012756,393.515289 275.765442,407.029175 273.991425,420.605042 
	C273.404144,425.099182 271.788330,427.285370 267.068451,425.989410 
	C258.143433,422.237335 249.218445,418.485260 240.126999,414.425659 
z"/>
<path fill="#1FAAD7" opacity="1.000000" stroke="none" 
	d="
M227.627014,179.027344 
	C226.794693,187.956268 225.657639,196.941605 224.512955,205.925980 
	C224.450027,206.419769 224.255112,206.902985 224.237091,207.395355 
	C223.792801,219.533890 223.561539,231.685196 222.812485,243.804565 
	C222.587433,247.445694 220.911774,250.993774 219.930725,254.592667 
	C219.163574,257.406769 218.015732,260.199371 217.787125,263.061432 
	C217.249649,269.790680 217.172287,276.556274 216.882233,283.306000 
	C216.818344,284.792480 216.945587,286.379517 216.469971,287.740326 
	C214.169922,294.320953 213.415009,300.916779 214.804962,307.854126 
	C215.223816,309.944702 214.601227,312.600372 213.600342,314.560394 
	C207.643356,326.225922 208.541580,339.038574 207.080963,351.454376 
	C206.795410,353.881775 206.534775,356.317383 206.407349,358.756744 
	C206.269379,361.398102 205.456024,364.419128 206.423111,366.622314 
	C208.919678,372.309814 205.971924,376.576752 204.511414,381.680664 
	C202.088196,390.148804 201.592926,399.167603 200.267319,407.951691 
	C199.934418,410.157623 199.532349,412.353088 199.033020,414.906036 
	C189.255890,411.559082 184.453140,404.218079 182.621994,394.319275 
	C180.678635,383.813812 187.295471,377.246063 193.269379,370.125061 
	C184.013336,356.180969 177.531784,341.110168 173.637756,324.849945 
	C170.433929,311.471954 169.604858,297.968750 170.032761,284.301025 
	C170.083664,282.675140 171.464539,279.968140 167.440460,279.491638 
	C168.007980,272.921661 168.950302,266.831421 170.040268,260.767670 
	C171.355011,253.453247 170.371262,245.468231 176.937027,239.668625 
	C178.047241,238.687927 177.780701,235.168472 177.045776,233.243698 
	C173.287277,223.400085 174.289185,214.037933 179.053055,204.871063 
	C179.221848,204.901855 179.390640,204.932648 180.121613,204.984039 
	C181.092392,205.011780 181.500977,205.018936 181.909576,205.026077 
	C186.250610,206.933640 190.591629,208.841202 195.204758,210.868332 
	C200.699951,204.734741 206.602386,198.146591 213.062393,191.436859 
	C214.714691,190.198029 215.809433,189.080734 216.904160,187.963455 
	C219.029678,186.014999 221.155197,184.066544 223.797409,181.906799 
	C224.557739,181.496902 224.776642,181.274017 224.970825,181.026855 
	C225.754120,180.379105 226.537384,179.731339 227.627014,179.027344 
z"/>
<path fill="#0BA2A6" opacity="1.000000" stroke="none" 
	d="
M395.386749,447.977722 
	C396.194214,438.316101 397.493103,428.807861 398.563660,419.273956 
	C399.507996,410.864441 399.988434,402.399902 401.046692,394.006714 
	C402.787323,380.201508 404.912231,366.445099 406.709869,352.646576 
	C407.631714,345.570953 408.076416,338.434052 408.946869,331.350647 
	C410.725403,316.877563 412.697693,302.428314 414.485535,287.956360 
	C415.339935,281.039917 415.832458,274.078461 416.705231,267.164703 
	C418.423492,253.553482 420.429077,239.977722 422.065399,226.357208 
	C424.161102,208.912674 425.794006,191.410767 428.029510,173.985306 
	C430.010406,158.544693 432.542847,143.174850 434.919556,127.394112 
	C444.518555,136.559006 449.471283,148.260452 450.966156,161.472900 
	C453.444824,183.380173 445.656799,201.444931 430.716522,215.511612 
	C435.954987,228.784241 440.971558,241.494583 446.091125,254.776657 
	C446.328339,255.569962 446.490662,255.768509 446.681152,255.944046 
	C446.772430,256.404419 446.863708,256.864807 446.759369,258.016449 
	C444.332916,275.764221 442.019745,292.810455 439.890839,309.879639 
	C436.810974,334.573578 433.905884,359.289307 430.848206,383.986084 
	C428.301056,404.559296 425.641693,425.118622 423.032043,445.684082 
	C414.099915,448.199768 405.106323,450.027588 395.386749,447.977722 
z"/>
<path fill="#06A09D" opacity="1.000000" stroke="none" 
	d="
M423.387451,445.665833 
	C425.641693,425.118622 428.301056,404.559296 430.848206,383.986084 
	C433.905884,359.289307 436.810974,334.573578 439.890839,309.879639 
	C442.019745,292.810455 444.332916,275.764221 446.748474,258.371643 
	C448.232117,264.492950 450.083130,270.896301 450.721527,277.418396 
	C452.329803,293.849609 451.503540,310.177399 447.387268,326.289032 
	C446.949371,328.003082 447.945801,330.854980 449.278870,332.137604 
	C485.314941,366.810394 473.628448,425.855042 426.970490,444.336639 
	C425.890900,444.764252 424.818604,445.210205 423.387451,445.665833 
z"/>
<path fill="#19A7C1" opacity="1.000000" stroke="none" 
	d="
M267.318726,426.253540 
	C271.788330,427.285370 273.404144,425.099182 273.991425,420.605042 
	C275.765442,407.029175 278.012756,393.515289 279.801361,379.941132 
	C280.555084,374.221191 280.544556,368.403961 281.048096,362.645569 
	C281.199615,360.912872 281.912537,359.229279 282.987183,357.352631 
	C293.963562,364.407379 305.535400,366.984253 317.681274,366.339203 
	C316.274689,367.604614 314.501953,368.539062 314.205200,369.816406 
	C312.932831,375.293457 311.811371,380.838013 311.152740,386.419098 
	C309.291992,402.186462 307.763794,417.992767 305.955322,433.766663 
	C304.467865,446.740570 302.851746,459.701813 301.050140,472.634888 
	C300.832062,474.200714 299.102753,475.556061 298.073853,477.008942 
	C282.750732,465.114960 277.560760,449.232422 279.806671,430.143127 
	C275.750092,428.941345 271.659546,427.729492 267.318726,426.253540 
z"/>
<path fill="#17A6B9" opacity="1.000000" stroke="none" 
	d="
M377.574493,109.028000 
	C376.662933,121.596565 375.587585,134.184784 373.872437,146.685196 
	C372.431244,157.188721 370.066711,167.562698 368.460541,178.047577 
	C367.608124,183.611938 367.696106,189.314026 367.019196,194.912766 
	C364.506317,215.697464 361.841827,236.463791 359.255737,257.239685 
	C358.168427,265.974762 357.134491,274.716522 355.686737,283.678284 
	C350.154724,279.052277 345.012238,274.203217 340.090820,269.063690 
	C341.539642,262.906372 343.147430,257.088715 343.914948,251.162247 
	C345.449493,239.313766 346.396240,227.390289 347.826294,215.526794 
	C349.075104,205.167160 350.767029,194.861389 352.056213,184.506058 
	C353.406494,173.659912 354.526520,162.784882 355.717377,151.919189 
	C357.091980,139.376984 358.433929,126.831200 359.790070,114.286972 
	C365.214508,111.355553 370.610962,108.332291 377.574493,109.028000 
z"/>
<path fill="#19A7C1" opacity="1.000000" stroke="none" 
	d="
M297.026001,233.112534 
	C295.477539,221.561676 298.597595,210.342117 299.617798,198.987671 
	C300.997314,183.634460 303.165985,168.352173 304.994690,152.602417 
	C312.258301,152.310043 319.524384,152.414749 326.787567,152.622421 
	C329.131348,152.689438 330.660614,152.430649 331.175476,149.501480 
	C332.339325,142.880264 335.630951,137.207779 340.670837,132.174347 
	C341.511169,133.655197 342.180115,135.230423 341.986359,136.691223 
	C340.776093,145.815811 339.257568,154.899673 338.060913,164.025848 
	C336.262238,177.743668 334.542236,191.473633 332.988190,205.220993 
	C332.077026,213.281372 331.660614,221.396606 330.828125,229.467194 
	C329.644104,240.945282 328.282104,252.405014 326.595276,263.881073 
	C320.716278,263.106567 315.238129,262.323608 309.354645,261.482697 
	C313.931824,253.068604 318.410217,244.840256 322.884094,236.609451 
	C324.212036,234.166336 325.571838,231.739136 326.839630,229.264984 
	C330.305878,222.500549 328.803223,215.625931 323.158386,212.224396 
	C317.180054,208.621841 309.621887,210.621964 305.641663,217.226212 
	C302.535339,222.380356 299.881134,227.806992 297.026001,233.112534 
z"/>
<path fill="#21ABDB" opacity="1.000000" stroke="none" 
	d="
M178.870621,204.502197 
	C174.289185,214.037933 173.287277,223.400085 177.045776,233.243698 
	C177.780701,235.168472 178.047241,238.687927 176.937027,239.668625 
	C170.371262,245.468231 171.355011,253.453247 170.040268,260.767670 
	C168.950302,266.831421 168.007980,272.921661 167.000122,279.415588 
	C148.734375,279.090820 133.514587,264.139893 131.440186,244.899399 
	C129.533691,227.216278 142.420883,207.866608 159.291290,204.421341 
	C165.516876,203.149963 172.208908,204.162491 178.870621,204.502197 
z"/>
<path fill="#13A7BD" opacity="1.000000" stroke="none" 
	d="
M326.996124,263.872589 
	C328.282104,252.405014 329.644104,240.945282 330.828125,229.467194 
	C331.660614,221.396606 332.077026,213.281372 332.988190,205.220993 
	C334.542236,191.473633 336.262238,177.743668 338.060913,164.025848 
	C339.257568,154.899673 340.776093,145.815811 341.986359,136.691223 
	C342.180115,135.230423 341.511169,133.655197 340.933289,131.977356 
	C345.946472,126.566277 351.249115,121.291908 356.611206,116.078712 
	C357.288391,115.420357 358.277985,115.083351 359.456451,114.442215 
	C358.433929,126.831200 357.091980,139.376984 355.717377,151.919189 
	C354.526520,162.784882 353.406494,173.659912 352.056213,184.506058 
	C350.767029,194.861389 349.075104,205.167160 347.826294,215.526794 
	C346.396240,227.390289 345.449493,239.313766 343.914948,251.162247 
	C343.147430,257.088715 341.539642,262.906372 339.746033,268.948608 
	C335.118896,267.373535 331.057495,265.623077 326.996124,263.872589 
z"/>
<path fill="#17A6B9" opacity="1.000000" stroke="none" 
	d="
M347.020325,354.091248 
	C346.862396,356.558167 346.796051,359.035187 346.525330,361.489655 
	C346.107483,365.279022 345.513489,369.048584 345.057556,372.834167 
	C342.911591,390.651917 340.746490,408.467438 338.668213,426.293121 
	C337.053040,440.146606 335.632324,454.023010 333.970917,467.870697 
	C333.241272,473.952454 332.127869,479.988159 331.092834,486.434937 
	C325.953125,486.509735 320.909210,486.194397 315.588867,485.452026 
	C317.204895,469.566071 319.011475,454.096069 321.011475,438.651062 
	C323.540833,419.117432 326.300537,399.613556 328.798828,380.076080 
	C329.484070,374.717316 329.589752,369.284454 330.203735,363.632294 
	C335.970856,360.283081 341.495605,357.187164 347.020325,354.091248 
z"/>
<path fill="#13A7BD" opacity="1.000000" stroke="none" 
	d="
M329.961365,363.885590 
	C329.589752,369.284454 329.484070,374.717316 328.798828,380.076080 
	C326.300537,399.613556 323.540833,419.117432 321.011475,438.651062 
	C319.011475,454.096069 317.204895,469.566071 315.190918,485.308441 
	C309.504028,482.930542 303.938629,480.269196 298.223572,477.308411 
	C299.102753,475.556061 300.832062,474.200714 301.050140,472.634888 
	C302.851746,459.701813 304.467865,446.740570 305.955322,433.766663 
	C307.763794,417.992767 309.291992,402.186462 311.152740,386.419098 
	C311.811371,380.838013 312.932831,375.293457 314.205200,369.816406 
	C314.501953,368.539062 316.274689,367.604614 318.092163,366.254730 
	C322.531097,365.293213 326.246246,364.589417 329.961365,363.885590 
z"/>
<path fill="#1DAAD0" opacity="1.000000" stroke="none" 
	d="
M381.997284,493.023071 
	C374.445038,489.801910 370.253723,482.606567 371.151886,474.404633 
	C372.006226,466.602844 378.156677,460.331390 387.016785,459.102264 
	C391.973694,462.452850 389.837677,466.787384 389.471832,470.634857 
	C389.001495,475.581360 387.332642,480.446411 387.168335,485.379456 
	C387.033325,489.432465 386.066681,492.044678 381.997284,493.023071 
z"/>
<path fill="#1DAAD0" opacity="1.000000" stroke="none" 
	d="
M308.953735,146.024261 
	C301.470123,144.132019 296.239075,137.161057 296.372253,129.257980 
	C296.512146,120.952499 302.616028,113.547035 310.590698,112.009743 
	C311.235199,111.885506 311.881897,111.772812 313.142242,111.904091 
	C314.118378,114.173218 314.955872,116.241776 314.754822,118.203918 
	C314.068451,124.902382 313.208008,131.597961 312.011322,138.221909 
	C311.524109,140.918793 310.003937,143.429077 308.953735,146.024261 
z"/>
<path fill="#17A6B9" opacity="1.000000" stroke="none" 
	d="
M382.232178,493.327881 
	C386.066681,492.044678 387.033325,489.432465 387.168335,485.379456 
	C387.332642,480.446411 389.001495,475.581360 389.471832,470.634857 
	C389.837677,466.787384 391.973694,462.452850 387.410767,459.100403 
	C390.812836,459.649475 394.582306,460.298706 398.667786,461.579102 
	C397.660980,472.742523 396.338165,483.274750 395.015350,493.807007 
	C390.832581,493.748901 386.649811,493.690826 382.232178,493.327881 
z"/>
<path fill="#17A6B9" opacity="1.000000" stroke="none" 
	d="
M309.220398,146.345978 
	C310.003937,143.429077 311.524109,140.918793 312.011322,138.221909 
	C313.208008,131.597961 314.068451,124.902382 314.754822,118.203918 
	C314.955872,116.241776 314.118378,114.173218 313.514526,111.936852 
	C317.023468,112.685883 320.774750,113.651489 324.660675,115.270844 
	C324.524017,117.539139 324.238708,119.151482 323.983704,120.768600 
	C322.657959,129.176163 321.339966,137.584961 320.019257,145.993317 
	C316.508545,146.218109 312.997803,146.442902 309.220398,146.345978 
z"/>
<path fill="#0BA2A6" opacity="1.000000" stroke="none" 
	d="
M395.363586,493.822327 
	C396.338165,483.274750 397.660980,472.742523 398.988953,461.772919 
	C410.630768,467.533478 410.595001,487.800903 395.363586,493.822327 
z"/>
<path fill="#0BA2A6" opacity="1.000000" stroke="none" 
	d="
M320.381531,145.983902 
	C321.339966,137.584961 322.657959,129.176163 323.983704,120.768600 
	C324.238708,119.151482 324.524017,117.539139 324.893188,115.542770 
	C336.316925,124.102524 334.070374,140.401276 320.381531,145.983902 
z"/>
<path fill="#1DAAD0" opacity="1.000000" stroke="none" 
	d="
M164.015198,401.651947 
	C157.568665,400.186554 155.160828,393.942444 156.105713,388.850037 
	C157.066956,383.669312 161.667358,380.629242 168.303284,380.926453 
	C166.893112,388.023071 165.454147,394.837494 164.015198,401.651947 
z"/>
<path fill="#0BA2A6" opacity="1.000000" stroke="none" 
	d="
M170.996704,382.140900 
	C175.794464,383.097809 176.897263,387.055084 177.351196,390.890717 
	C177.923477,395.726288 174.856644,399.525604 169.356750,401.252808 
	C169.329666,399.157990 169.770844,397.400452 169.937469,395.617218 
	C170.356613,391.131287 170.651810,386.633759 170.996704,382.140900 
z"/>
<path fill="#17A6B9" opacity="1.000000" stroke="none" 
	d="
M170.707291,382.016937 
	C170.651810,386.633759 170.356613,391.131287 169.937469,395.617218 
	C169.770844,397.400452 169.329666,399.157990 169.021027,401.324585 
	C167.624542,401.789368 166.220535,401.856812 164.415863,401.788086 
	C165.454147,394.837494 166.893112,388.023071 168.580261,381.120026 
	C169.358276,381.318604 169.888077,381.605774 170.707291,382.016937 
z"/>
<path fill="#1DAAD0" opacity="1.000000" stroke="none" 
	d="
M216.587738,188.036499 
	C215.809433,189.080734 214.714691,190.198029 213.363251,191.292725 
	C214.161453,190.216599 215.216385,189.163071 216.587738,188.036499 
z"/>
<path fill="#21ABDB" opacity="1.000000" stroke="none" 
	d="
M181.765930,204.863327 
	C181.500977,205.018936 181.092392,205.011780 180.377380,205.012878 
	C180.588074,204.914276 181.105179,204.807419 181.765930,204.863327 
z"/>
<path fill="#06A09D" opacity="1.000000" stroke="none" 
	d="
M446.674225,255.733444 
	C446.490662,255.768509 446.328339,255.569962 446.108093,255.176453 
	C446.302521,255.095901 446.517578,255.268692 446.674225,255.733444 
z"/>
<path fill="#1DAAD0" opacity="1.000000" stroke="none" 
	d="
M224.720154,181.077698 
	C224.776642,181.274017 224.557739,181.496902 224.123322,181.832291 
	C224.111511,181.688889 224.290497,181.408707 224.720154,181.077698 
z"/>
<path fill="#FCFDFE" opacity="1.000000" stroke="none" 
	d="
M330.203735,363.632294 
	C326.246246,364.589417 322.531097,365.293213 318.405090,366.081512 
	C305.535400,366.984253 293.963562,364.407379 283.268005,357.098755 
	C274.407166,349.952179 267.291138,341.948273 263.810577,331.067902 
	C259.186432,316.612701 260.342529,302.787598 267.382904,289.423889 
	C277.164642,270.856567 287.002319,252.318771 296.921021,233.440430 
	C299.881134,227.806992 302.535339,222.380356 305.641663,217.226212 
	C309.621887,210.621964 317.180054,208.621841 323.158386,212.224396 
	C328.803223,215.625931 330.305878,222.500549 326.839630,229.264984 
	C325.571838,231.739136 324.212036,234.166336 322.884094,236.609451 
	C318.410217,244.840256 313.931824,253.068604 309.354645,261.482697 
	C315.238129,262.323608 320.716278,263.106567 326.595276,263.881073 
	C331.057495,265.623077 335.118896,267.373535 339.525024,269.239075 
	C345.012238,274.203217 350.154724,279.052277 355.582397,284.093689 
	C360.789673,292.614594 364.380219,301.389618 364.862915,311.200348 
	C365.664185,327.486633 360.335052,341.290497 347.870972,352.765076 
	C347.262177,353.396881 347.107697,353.669891 347.090393,354.020538 
	C347.090393,354.020538 347.019806,354.020538 347.020081,354.055908 
	C341.495605,357.187164 335.970856,360.283081 330.203735,363.632294 
M313.790619,343.256042 
	C314.861023,343.122437 315.931458,342.988831 317.765381,342.931030 
	C331.407196,339.646118 339.975861,330.476227 341.112091,317.899414 
	C342.239807,305.416809 336.803558,294.083374 322.294769,287.796326 
	C311.491486,284.315125 301.993713,286.202545 293.340088,293.857330 
	C284.335876,301.822235 282.087982,315.177338 285.793457,324.613159 
	C290.120422,335.631500 299.931274,342.913879 311.652191,343.238861 
	C312.102448,343.176392 312.552704,343.113892 313.790619,343.256042 
z"/>
<path fill="#17A6B9" opacity="1.000000" stroke="none" 
	d="
M347.260406,353.864197 
	C347.107697,353.669891 347.262177,353.396881 347.765869,353.084076 
	C347.827606,353.237488 347.645111,353.484558 347.260406,353.864197 
z"/>
<path fill="#19A7C1" opacity="1.000000" stroke="none" 
	d="
M310.996185,343.028046 
	C299.931274,342.913879 290.120422,335.631500 285.793457,324.613159 
	C282.087982,315.177338 284.335876,301.822235 293.340088,293.857330 
	C301.993713,286.202545 311.491486,284.315125 322.633667,288.386719 
	C321.650146,300.596436 320.310089,312.213715 319.012512,323.835785 
	C318.305145,330.171448 317.669739,336.515167 317.001892,342.855225 
	C315.931458,342.988831 314.861023,343.122437 313.366150,342.873535 
	C312.615967,342.029510 312.290283,341.567993 311.964600,341.106476 
	C311.641785,341.747009 311.318970,342.387512 310.996185,343.028046 
z"/>
<path fill="#13A7BD" opacity="1.000000" stroke="none" 
	d="
M317.383636,342.893127 
	C317.669739,336.515167 318.305145,330.171448 319.012512,323.835785 
	C320.310089,312.213715 321.650146,300.596436 322.986084,288.574432 
	C336.803558,294.083374 342.239807,305.416809 341.112091,317.899414 
	C339.975861,330.476227 331.407196,339.646118 317.383636,342.893127 
z"/>
<path fill="#13A7BD" opacity="1.000000" stroke="none" 
	d="
M311.324188,343.133453 
	C311.318970,342.387512 311.641785,341.747009 311.964600,341.106476 
	C312.290283,341.567993 312.615967,342.029510 312.972321,342.771179 
	C312.552704,343.113892 312.102448,343.176392 311.324188,343.133453 
z"/>
</svg>