<svg version="1.1" id="Layer_1" xmlns="http://www.w3.org/2000/svg" xmlns:xlink="http://www.w3.org/1999/xlink" x="0px" y="0px"
	 width="100%" viewBox="0 0 600 600" enable-background="new 0 0 600 600" xml:space="preserve">
<path fill="#000000" opacity="1.000000" stroke="none" 
	d="
M337.000000,601.000000 
	C224.666672,601.000000 112.833336,601.000000 1.000000,601.000000 
	C1.000000,401.000000 1.000000,201.000000 1.000000,1.000000 
	C201.000000,1.000000 401.000000,1.000000 601.000000,1.000000 
	C601.000000,201.000000 601.000000,401.000000 601.000000,601.000000 
	C513.166687,601.000000 425.333344,601.000000 337.000000,601.000000 
M222.533890,182.214249 
	C222.252792,182.400452 222.068573,182.656387 221.357819,183.241196 
	C212.201965,192.424591 203.046127,201.608002 193.447632,211.235397 
	C178.608383,201.007751 162.043701,198.714340 146.029175,210.906693 
	C133.024338,220.807678 128.116806,234.677521 132.141907,250.686157 
	C136.970016,269.888580 150.743454,278.641968 169.997757,280.393463 
	C169.997757,288.489380 169.673828,296.413513 170.059631,304.302948 
	C171.135849,326.310974 178.488510,346.408875 189.747513,365.115448 
	C191.917786,368.721283 192.057220,370.662018 188.919083,373.824890 
	C176.985641,385.852478 180.822845,406.769684 196.300293,414.536194 
	C197.200043,414.917450 198.099777,415.298706 199.639069,415.921997 
	C200.093857,415.947571 200.548660,415.973175 201.620941,416.558289 
	C210.842529,418.007324 219.140625,416.528320 226.100311,409.620148 
	C227.088409,408.639374 229.928421,408.679779 231.490524,409.302734 
	C234.477478,410.493835 237.161636,412.444244 240.307480,414.673462 
	C249.535385,418.687866 258.763306,422.702240 268.759125,426.960480 
	C269.668915,427.296265 270.552917,427.785004 271.492615,427.943634 
	C279.005951,429.211853 279.335388,429.211243 278.923737,436.459900 
	C278.333893,446.845551 280.901184,456.254150 286.517944,465.621033 
	C287.088135,466.431793 287.619476,467.273376 288.234558,468.048523 
	C294.742065,476.248779 302.566132,482.528870 313.598206,485.487640 
	C326.325470,488.585724 338.520020,487.501648 350.676727,480.767700 
	C351.504822,479.962830 352.217743,478.969452 353.178864,478.382385 
	C362.149323,472.902710 367.938110,465.022369 371.055054,455.064484 
	C372.335205,450.974731 373.685486,446.906891 375.678253,443.169830 
	C380.128021,444.442291 384.577789,445.714752 389.597076,447.553101 
	C396.732758,447.646912 403.868408,447.740723 411.772308,447.965454 
	C412.538086,447.861206 413.303864,447.756958 414.599762,447.746521 
	C415.049652,447.494659 415.499542,447.242798 416.588257,446.870605 
	C431.565948,444.280701 443.359070,436.251373 453.292664,425.176666 
	C470.872040,405.577789 475.159454,376.327576 463.097137,352.930847 
	C459.180725,345.334351 453.039642,338.902008 448.156555,331.772522 
	C447.151367,330.304871 446.536285,327.961090 446.892456,326.262451 
	C451.392548,304.800476 451.613190,283.335754 446.922516,261.925659 
	C445.294586,254.495102 442.753143,247.264679 440.589020,239.553848 
	C440.451202,239.317368 440.252472,239.155838 440.020813,239.017502 
	C440.020813,239.017502 439.963745,239.002502 439.937775,238.259460 
	C436.387177,231.026535 432.836578,223.793594 429.109039,216.200256 
	C441.061615,205.461395 448.717834,191.868103 450.426605,175.388718 
	C451.783478,162.303177 450.078369,149.694031 442.238464,138.571915 
	C438.880035,133.807480 435.412964,129.119598 431.453918,123.955849 
	C425.650848,120.263329 419.847778,116.570801 413.653564,112.248947 
	C405.438110,110.555908 397.222687,108.862869 388.099548,107.026794 
	C378.851288,106.638390 370.145050,108.610344 361.285980,113.088783 
	C352.756561,117.563568 344.745605,122.894066 339.573425,131.148087 
	C335.184601,138.152039 331.822754,145.799484 327.179871,152.997055 
	C308.852142,150.836105 290.719421,151.327454 272.173950,157.000198 
	C256.882019,161.063705 242.774078,167.627716 229.349258,177.209335 
	C227.545547,178.578720 225.741837,179.948105 223.541504,181.361710 
	C223.299988,181.509247 223.150864,181.721649 223.005768,181.988449 
	C223.005768,181.988449 222.995193,182.076767 222.533890,182.214249 
M169.340286,381.079163 
	C167.560760,381.067108 165.781219,381.055084 163.270172,381.030701 
	C158.077301,382.374695 155.586075,386.218506 155.307098,391.094269 
	C155.043396,395.703156 157.394104,399.318115 162.409729,401.758240 
	C164.935455,401.508484 167.461166,401.258728 170.682526,400.914673 
	C179.357468,395.076416 179.035858,386.028809 169.340286,381.079163 
M398.001221,492.001953 
	C398.001221,492.001953 398.004517,491.998840 398.689087,491.859955 
	C408.696167,483.389862 409.825043,473.816345 401.418060,463.906219 
	C399.973022,462.924164 398.527985,461.942108 396.698822,460.352173 
	C395.094208,459.907715 393.489624,459.463257 391.257904,458.627289 
	C388.505646,458.896179 385.753387,459.165100 382.355469,459.591980 
	C374.969147,462.466461 370.908173,468.114624 370.565979,475.768433 
	C370.267365,482.446747 372.775604,488.322784 379.480255,492.423798 
	C380.992432,492.929657 382.504639,493.435486 384.038116,494.000702 
	C384.038116,494.000702 384.091583,493.967377 384.517792,494.413208 
	C385.310852,494.515900 386.103943,494.618591 387.723846,494.912476 
	C389.118958,494.788208 390.514038,494.663940 392.603210,494.576843 
	C394.081177,493.961243 395.559174,493.345612 397.489594,492.730621 
	C397.761444,492.560791 397.930389,492.319031 398.001221,492.001953 
M303.612244,144.051025 
	C306.078613,144.979279 308.544983,145.907516 311.882172,146.963501 
	C313.919495,146.877518 315.956848,146.791519 318.692383,146.672089 
	C326.870514,143.796463 331.632629,137.960831 331.759644,129.387207 
	C331.869354,121.979172 327.838440,116.524277 320.365051,112.951469 
	C318.890167,112.637802 317.415283,112.324127 315.371704,111.561996 
	C312.250641,112.174377 309.129608,112.786751 305.374573,113.525009 
	C292.786194,120.637405 293.639465,136.867523 303.612244,144.051025 
z"/>
<path fill="#0272B6" opacity="1.000000" stroke="none" 
	d="
M195.981812,414.036560 
	C180.822845,406.769684 176.985641,385.852478 188.919083,373.824890 
	C192.057220,370.662018 191.917786,368.721283 189.747513,365.115448 
	C178.488510,346.408875 171.135849,326.310974 170.059631,304.302948 
	C169.673828,296.413513 169.997757,288.489380 169.997757,280.393463 
	C150.743454,278.641968 136.970016,269.888580 132.141907,250.686157 
	C128.116806,234.677521 133.024338,220.807678 146.029175,210.906693 
	C162.043701,198.714340 178.608383,201.007751 193.447632,211.235397 
	C203.046127,201.608002 212.201965,192.424591 221.848907,182.972778 
	C222.574280,182.511749 222.792664,182.302536 222.995193,182.076767 
	C222.995193,182.076767 223.005768,181.988449 223.193802,181.884857 
	C223.573074,181.633652 223.758499,181.479050 223.938126,181.317490 
	C225.741837,179.948105 227.545547,178.578720 229.757080,177.501892 
	C230.424713,179.098068 231.013138,180.432831 230.893021,181.700439 
	C229.813049,193.096588 228.590347,204.479141 227.454025,215.870102 
	C227.181458,218.602310 226.945694,221.349792 226.918808,224.092468 
	C226.867188,229.359467 228.137146,234.965897 226.726181,239.810364 
	C224.966965,245.850571 223.010544,251.626099 222.566711,258.039246 
	C221.839172,268.551727 220.066757,278.987823 219.079742,289.488556 
	C218.703156,293.495026 220.667099,298.228912 219.154465,301.525513 
	C214.712372,311.206543 215.361038,321.679932 213.073929,331.651520 
	C209.870956,345.616211 213.362946,360.425659 208.100983,374.199951 
	C208.043823,374.349518 208.074234,374.530762 208.051819,374.695587 
	C207.137787,381.414246 206.034241,388.114197 205.372742,394.857574 
	C204.925003,399.421875 204.152039,404.284729 205.231674,408.585541 
	C206.613297,414.089355 206.768524,414.980774 201.003448,415.998779 
	C200.548660,415.973175 200.093857,415.947571 199.275726,415.503357 
	C197.935532,414.735321 196.958664,414.385925 195.981812,414.036560 
z"/>
<path fill="#1696CF" opacity="1.000000" stroke="none" 
	d="
M389.007263,107.169830 
	C397.222687,108.862869 405.438110,110.555908 413.962891,112.889984 
	C414.927277,115.213875 416.091949,116.888672 416.118744,118.581451 
	C416.159515,121.160233 415.321899,123.741074 415.023956,126.340157 
	C414.684784,129.299286 414.777802,132.325089 414.243073,135.241257 
	C412.989319,142.079132 410.998596,148.810913 410.158203,155.689728 
	C408.174408,171.927429 406.720245,188.229324 404.980835,204.497665 
	C404.437256,209.581619 403.529388,214.627884 403.031036,219.715179 
	C402.208954,228.107315 401.588531,236.519165 400.865814,244.921204 
	C400.823669,245.411163 400.588531,245.881500 400.508087,246.371628 
	C398.666748,257.590240 396.503113,268.769135 395.100555,280.042633 
	C393.876251,289.883240 394.566589,300.053009 392.538788,309.683105 
	C388.749268,327.679474 388.856659,346.132935 384.504272,364.125275 
	C381.445648,376.769287 382.385681,390.334625 380.872009,403.411224 
	C379.345276,416.600189 376.993896,429.693726 375.003845,442.829071 
	C373.685486,446.906891 372.335205,450.974731 371.055054,455.064484 
	C367.938110,465.022369 362.149323,472.902710 353.178864,478.382385 
	C352.217743,478.969452 351.504822,479.962830 350.287537,480.458160 
	C349.701630,479.695129 349.617065,479.128632 349.291260,478.805206 
	C344.925934,474.471985 344.782532,467.949768 348.420746,462.988159 
	C349.460266,461.570526 349.281006,459.080017 349.226868,457.093262 
	C349.178833,455.330261 348.186737,453.580353 348.203552,451.830353 
	C348.282196,443.637878 354.569794,435.971344 350.291931,427.365295 
	C350.123932,427.027191 350.483978,426.412842 350.627106,425.935974 
	C352.573944,419.449341 354.722321,413.012756 356.343475,406.445953 
	C356.767578,404.728119 355.446106,402.624969 355.124939,400.666199 
	C354.700531,398.077576 353.692017,395.258667 354.295410,392.884613 
	C356.754974,383.207642 360.167725,373.774872 360.036011,363.562958 
	C359.979309,359.170685 360.551422,354.770233 360.838318,350.373566 
	C361.232330,344.335907 361.506775,338.286530 362.094788,332.267792 
	C362.269379,330.481171 362.840149,328.217041 364.074890,327.151978 
	C367.150330,324.499146 366.509094,321.808838 366.154541,318.270264 
	C365.688049,313.614441 366.140472,308.429626 367.867126,304.144958 
	C369.013184,301.300995 370.271027,299.526642 368.345825,296.653717 
	C366.313629,293.621216 365.993591,290.328217 369.348419,287.823669 
	C372.355957,285.578400 371.923615,283.034851 371.034424,279.852020 
	C368.724548,271.583893 367.419739,263.477936 374.215454,256.099060 
	C375.821259,254.355484 375.906830,250.334274 375.306366,247.673447 
	C374.654572,244.785217 374.114502,242.875702 376.048340,239.984940 
	C377.655914,237.581970 378.672241,232.743240 377.326752,230.801834 
	C373.816345,225.736679 376.347443,223.067917 379.685669,220.384323 
	C378.441010,218.391846 376.304474,216.560455 376.499390,215.025131 
	C377.740936,205.247589 379.356171,195.509369 381.148926,185.813782 
	C381.907654,181.710266 384.099304,177.772110 384.276245,173.699570 
	C384.375488,171.415375 382.637421,169.191895 385.189209,167.118057 
	C385.640778,166.751083 385.152802,165.314163 385.229767,164.382156 
	C385.386658,162.483337 385.684387,160.595642 385.823029,158.695999 
	C385.906860,157.547470 385.905884,156.371109 385.753754,155.232544 
	C385.569183,153.851089 384.773041,152.438522 384.955139,151.139465 
	C386.026398,143.498062 387.669739,135.920853 388.407227,128.253418 
	C389.078796,121.270912 388.843048,114.201134 389.007263,107.169830 
z"/>
<path fill="#1390CA" opacity="1.000000" stroke="none" 
	d="
M388.553406,107.098312 
	C388.843048,114.201134 389.078796,121.270912 388.407227,128.253418 
	C387.669739,135.920853 386.026398,143.498062 384.955139,151.139465 
	C384.773041,152.438522 385.569183,153.851089 385.753754,155.232544 
	C385.905884,156.371109 385.906860,157.547470 385.823029,158.695999 
	C385.684387,160.595642 385.386658,162.483337 385.229767,164.382156 
	C385.152802,165.314163 385.640778,166.751083 385.189209,167.118057 
	C382.637421,169.191895 384.375488,171.415375 384.276245,173.699570 
	C384.099304,177.772110 381.907654,181.710266 381.148926,185.813782 
	C379.356171,195.509369 377.740936,205.247589 376.499390,215.025131 
	C376.304474,216.560455 378.441010,218.391846 379.685669,220.384323 
	C376.347443,223.067917 373.816345,225.736679 377.326752,230.801834 
	C378.672241,232.743240 377.655914,237.581970 376.048340,239.984940 
	C374.114502,242.875702 374.654572,244.785217 375.306366,247.673447 
	C375.906830,250.334274 375.821259,254.355484 374.215454,256.099060 
	C367.419739,263.477936 368.724548,271.583893 371.034424,279.852020 
	C371.923615,283.034851 372.355957,285.578400 369.348419,287.823669 
	C365.993591,290.328217 366.313629,293.621216 368.345825,296.653717 
	C370.271027,299.526642 369.013184,301.300995 367.867126,304.144958 
	C366.140472,308.429626 365.688049,313.614441 366.154541,318.270264 
	C366.509094,321.808838 367.150330,324.499146 364.074890,327.151978 
	C362.840149,328.217041 362.269379,330.481171 362.094788,332.267792 
	C361.506775,338.286530 361.232330,344.335907 360.838318,350.373566 
	C360.551422,354.770233 359.979309,359.170685 360.036011,363.562958 
	C360.167725,373.774872 356.754974,383.207642 354.295410,392.884613 
	C353.692017,395.258667 354.700531,398.077576 355.124939,400.666199 
	C355.446106,402.624969 356.767578,404.728119 356.343475,406.445953 
	C354.722321,413.012756 352.573944,419.449341 350.627106,425.935974 
	C350.483978,426.412842 350.123932,427.027191 350.291931,427.365295 
	C354.569794,435.971344 348.282196,443.637878 348.203552,451.830353 
	C348.186737,453.580353 349.178833,455.330261 349.226868,457.093262 
	C349.281006,459.080017 349.460266,461.570526 348.420746,462.988159 
	C344.782532,467.949768 344.925934,474.471985 349.291260,478.805206 
	C349.617065,479.128632 349.701630,479.695129 349.951813,480.499268 
	C338.520020,487.501648 326.325470,488.585724 313.551849,484.992493 
	C316.140991,482.245239 320.181488,481.408264 320.070374,476.567169 
	C319.968201,472.114838 320.490387,467.624573 321.023041,463.185303 
	C323.482391,442.689484 326.060272,422.207916 328.546326,401.715271 
	C328.965393,398.260986 328.860260,394.726044 329.480438,391.316254 
	C332.076599,377.041473 332.372284,362.512421 335.586914,348.221161 
	C338.580566,334.912140 338.496399,320.928833 340.098267,307.281250 
	C340.914124,300.330200 342.660095,293.490021 343.533630,286.542908 
	C343.759399,284.747192 342.280029,282.737091 341.683929,280.483398 
	C349.356934,264.230286 356.947327,248.327499 364.497284,232.405548 
	C370.259674,220.253403 366.186371,212.728989 353.008789,210.647339 
	C353.688110,202.778687 354.210052,195.326462 355.161560,187.929489 
	C355.377991,186.247116 356.737976,184.254776 358.167694,183.274155 
	C361.943390,180.684402 361.887115,176.903259 361.926514,172.917587 
	C360.949585,174.073792 359.972626,175.229980 358.226074,177.296997 
	C357.693481,175.032730 357.005188,173.686813 357.145874,172.434021 
	C357.792694,166.675262 358.511169,160.912537 359.578888,155.221573 
	C359.845062,153.802979 361.278870,151.899887 362.568390,151.506912 
	C366.669495,150.257080 365.444794,147.043472 363.962952,145.848907 
	C361.349976,143.742493 361.344330,141.637268 361.762909,138.896133 
	C362.180328,136.162872 362.535156,133.384171 362.518219,130.627853 
	C362.482147,124.757866 362.187378,118.889458 361.998657,113.020409 
	C370.145050,108.610344 378.851288,106.638390 388.553406,107.098312 
M361.938782,167.239059 
	C362.607056,166.330276 363.275360,165.421494 363.943634,164.512726 
	C363.306091,164.240906 362.668549,163.969086 362.031006,163.697266 
	C361.858673,164.735062 361.686340,165.772858 361.938782,167.239059 
z"/>
<path fill="#0479BB" opacity="1.000000" stroke="none" 
	d="
M201.312195,416.278534 
	C206.768524,414.980774 206.613297,414.089355 205.231674,408.585541 
	C204.152039,404.284729 204.925003,399.421875 205.372742,394.857574 
	C206.034241,388.114197 207.137787,381.414246 208.051819,374.695587 
	C208.074234,374.530762 208.043823,374.349518 208.100983,374.199951 
	C213.362946,360.425659 209.870956,345.616211 213.073929,331.651520 
	C215.361038,321.679932 214.712372,311.206543 219.154465,301.525513 
	C220.667099,298.228912 218.703156,293.495026 219.079742,289.488556 
	C220.066757,278.987823 221.839172,268.551727 222.566711,258.039246 
	C223.010544,251.626099 224.966965,245.850571 226.726181,239.810364 
	C228.137146,234.965897 226.867188,229.359467 226.918808,224.092468 
	C226.945694,221.349792 227.181458,218.602310 227.454025,215.870102 
	C228.590347,204.479141 229.813049,193.096588 230.893021,181.700439 
	C231.013138,180.432831 230.424713,179.098068 230.074936,177.385712 
	C242.774078,167.627716 256.882019,161.063705 272.821960,157.268127 
	C273.841736,159.908188 274.618958,162.300003 274.505127,164.648605 
	C274.224579,170.436142 273.470184,176.198822 273.023773,181.980576 
	C272.235504,192.189590 272.778046,202.601486 268.183563,212.207825 
	C267.919800,212.759308 268.094055,213.520309 267.911377,214.479828 
	C266.464691,217.183594 265.171112,219.591354 263.604218,221.890228 
	C259.554230,222.058868 260.638306,224.408890 261.087677,226.710403 
	C261.812775,230.424362 262.660828,234.173492 262.784088,237.929871 
	C262.919495,242.055908 262.477570,246.230820 261.944885,250.340073 
	C261.457703,254.098557 260.630737,257.828125 259.681519,261.500122 
	C259.466705,262.331207 258.049927,263.476288 257.325775,263.383972 
	C256.522491,263.281494 255.432510,262.007294 255.268921,261.098938 
	C255.014679,259.687225 255.433914,258.153107 255.574951,256.671539 
	C255.969223,252.529694 256.367249,248.388184 256.763763,244.246552 
	C252.596375,250.454193 250.383652,278.310486 253.553940,281.737823 
	C254.561646,278.863342 255.463531,276.290710 256.365417,273.718079 
	C256.904724,273.851562 257.444031,273.985077 257.983337,274.118561 
	C257.600830,278.984772 257.343597,283.864838 256.806854,288.713989 
	C255.970932,296.265717 255.008652,303.805084 253.977737,311.332977 
	C253.283310,316.403778 252.490448,321.468262 251.484741,326.484039 
	C251.248062,327.664398 249.975601,328.637024 248.738052,330.297852 
	C247.556931,327.895294 246.828506,326.413605 246.100098,324.931946 
	C245.787888,324.983673 245.475677,325.035431 245.163467,325.087158 
	C243.932632,334.071594 242.701797,343.056030 241.314728,353.180786 
	C246.083969,349.461090 245.881729,345.436310 246.127686,341.468323 
	C246.191788,340.434113 247.336853,339.466888 247.985428,338.468903 
	C248.639420,339.452789 249.880157,340.458282 249.844833,341.416779 
	C249.699646,345.357758 249.463623,349.341919 248.716110,353.204773 
	C246.991928,362.114685 244.418137,370.889191 243.171234,379.855194 
	C241.594589,391.192383 240.993393,402.665192 239.971466,414.079529 
	C237.161636,412.444244 234.477478,410.493835 231.490524,409.302734 
	C229.928421,408.679779 227.088409,408.639374 226.100311,409.620148 
	C219.140625,416.528320 210.842529,418.007324 201.312195,416.278534 
z"/>
<path fill="#1A9CD4" opacity="1.000000" stroke="none" 
	d="
M431.995239,124.396927 
	C435.412964,129.119598 438.880035,133.807480 442.238464,138.571915 
	C450.078369,149.694031 451.783478,162.303177 450.426605,175.388718 
	C448.717834,191.868103 441.061615,205.461395 429.109039,216.200256 
	C432.836578,223.793594 436.387177,231.026535 439.612122,238.566635 
	C436.101257,237.892761 435.282959,239.321136 435.082489,242.355988 
	C434.453308,251.880707 433.844788,261.425873 432.644409,270.889038 
	C431.065521,283.336121 427.662079,295.682709 427.367065,308.127594 
	C427.020630,322.741089 421.581573,336.674469 422.807861,351.342682 
	C422.861053,351.978851 422.543518,352.640717 422.433990,353.296570 
	C421.289520,360.150696 419.929565,366.977905 419.058014,373.866791 
	C417.064178,389.626587 415.235199,405.408508 413.487823,421.197845 
	C412.507050,430.059814 411.822235,438.954559 411.004089,447.834534 
	C403.868408,447.740723 396.732758,447.646912 389.415588,447.039703 
	C390.016998,444.701416 391.272736,442.935883 391.510223,441.042603 
	C394.089569,420.479492 396.553375,399.901459 398.948456,379.315887 
	C399.784363,372.131287 400.327332,364.912903 401.037079,357.713196 
	C401.313965,354.904633 401.691071,352.106110 402.006348,349.301178 
	C402.913788,341.228699 403.852631,333.159485 404.704071,325.081055 
	C405.530121,317.243866 406.215057,309.391663 407.073151,301.558228 
	C407.268555,299.774597 407.914215,298.039246 408.365875,296.285065 
	C408.899231,294.213440 409.729584,292.174316 409.943634,290.071411 
	C411.612976,273.670166 413.051300,257.244781 414.805420,240.853027 
	C415.579742,233.616989 417.126160,226.465332 417.961426,219.233704 
	C419.559052,205.401978 420.787933,191.527725 422.378418,177.695099 
	C423.782837,165.480972 425.096954,153.234512 427.199188,141.132294 
	C428.180542,135.482864 427.276855,129.055725 431.995239,124.396927 
z"/>
<path fill="#1CA1D7" opacity="1.000000" stroke="none" 
	d="
M411.388184,447.899994 
	C411.822235,438.954559 412.507050,430.059814 413.487823,421.197845 
	C415.235199,405.408508 417.064178,389.626587 419.058014,373.866791 
	C419.929565,366.977905 421.289520,360.150696 422.433990,353.296570 
	C422.543518,352.640717 422.861053,351.978851 422.807861,351.342682 
	C421.581573,336.674469 427.020630,322.741089 427.367065,308.127594 
	C427.662079,295.682709 431.065521,283.336121 432.644409,270.889038 
	C433.844788,261.425873 434.453308,251.880707 435.082489,242.355988 
	C435.282959,239.321136 436.101257,237.892761 439.625092,238.938156 
	C439.963745,239.002502 440.020813,239.017502 440.086670,239.206573 
	C440.279388,239.605865 440.438171,239.788269 440.628906,239.942856 
	C442.753143,247.264679 445.294586,254.495102 446.922516,261.925659 
	C451.613190,283.335754 451.392548,304.800476 446.892456,326.262451 
	C446.536285,327.961090 447.151367,330.304871 448.156555,331.772522 
	C453.039642,338.902008 459.180725,345.334351 463.097137,352.930847 
	C475.159454,376.327576 470.872040,405.577789 453.292664,425.176666 
	C443.359070,436.251373 431.565948,444.280701 416.017761,446.961914 
	C414.988068,447.253052 414.528870,447.452881 414.069641,447.652710 
	C413.303864,447.756958 412.538086,447.861206 411.388184,447.899994 
z"/>
<path fill="#077FBF" opacity="1.000000" stroke="none" 
	d="
M240.139465,414.376495 
	C240.993393,402.665192 241.594589,391.192383 243.171234,379.855194 
	C244.418137,370.889191 246.991928,362.114685 248.716110,353.204773 
	C249.463623,349.341919 249.699646,345.357758 249.844833,341.416779 
	C249.880157,340.458282 248.639420,339.452789 247.985428,338.468903 
	C247.336853,339.466888 246.191788,340.434113 246.127686,341.468323 
	C245.881729,345.436310 246.083969,349.461090 241.314728,353.180786 
	C242.701797,343.056030 243.932632,334.071594 245.163467,325.087158 
	C245.475677,325.035431 245.787888,324.983673 246.100098,324.931946 
	C246.828506,326.413605 247.556931,327.895294 248.738052,330.297852 
	C249.975601,328.637024 251.248062,327.664398 251.484741,326.484039 
	C252.490448,321.468262 253.283310,316.403778 253.977737,311.332977 
	C255.008652,303.805084 255.970932,296.265717 256.806854,288.713989 
	C257.343597,283.864838 257.600830,278.984772 257.983337,274.118561 
	C257.444031,273.985077 256.904724,273.851562 256.365417,273.718079 
	C255.463531,276.290710 254.561646,278.863342 253.553940,281.737823 
	C250.383652,278.310486 252.596375,250.454193 256.763763,244.246552 
	C256.367249,248.388184 255.969223,252.529694 255.574951,256.671539 
	C255.433914,258.153107 255.014679,259.687225 255.268921,261.098938 
	C255.432510,262.007294 256.522491,263.281494 257.325775,263.383972 
	C258.049927,263.476288 259.466705,262.331207 259.681519,261.500122 
	C260.630737,257.828125 261.457703,254.098557 261.944885,250.340073 
	C262.477570,246.230820 262.919495,242.055908 262.784088,237.929871 
	C262.660828,234.173492 261.812775,230.424362 261.087677,226.710403 
	C260.638306,224.408890 259.554230,222.058868 263.656189,222.226624 
	C263.932495,223.120865 263.883514,223.569855 263.714905,224.203827 
	C263.698090,224.922150 263.800842,225.455490 264.050476,226.313171 
	C266.435120,232.997757 270.939667,235.984100 277.663391,235.898239 
	C282.106934,235.841522 286.553436,236.014542 290.998932,236.524597 
	C290.344269,242.065796 289.580780,247.155930 289.054382,252.270462 
	C287.426086,268.091125 286.103271,283.946411 284.243103,299.738922 
	C282.893097,311.200165 280.729553,322.563324 279.207642,334.007324 
	C278.030945,342.855377 277.464508,351.784149 276.306976,360.635223 
	C274.696960,372.946106 272.636353,385.198486 271.055420,397.512695 
	C269.809357,407.218536 268.996490,416.979919 267.991211,426.716644 
	C258.763306,422.702240 249.535385,418.687866 240.139465,414.376495 
z"/>
<path fill="#0F89C5" opacity="1.000000" stroke="none" 
	d="
M341.583923,280.825470 
	C342.280029,282.737091 343.759399,284.747192 343.533630,286.542908 
	C342.660095,293.490021 340.914124,300.330200 340.098267,307.281250 
	C338.496399,320.928833 338.580566,334.912140 335.586914,348.221161 
	C332.372284,362.512421 332.076599,377.041473 329.480438,391.316254 
	C328.860260,394.726044 328.965393,398.260986 328.546326,401.715271 
	C326.060272,422.207916 323.482391,442.689484 321.023041,463.185303 
	C320.490387,467.624573 319.968201,472.114838 320.070374,476.567169 
	C320.181488,481.408264 316.140991,482.245239 313.258301,484.731689 
	C302.566132,482.528870 294.742065,476.248779 288.234558,468.048523 
	C287.619476,467.273376 287.088135,466.431793 286.779114,465.235901 
	C287.688812,463.648224 288.749268,462.501068 288.919739,461.234161 
	C290.128632,452.250610 291.142944,443.241058 292.242676,434.242615 
	C294.511322,415.679047 296.699493,397.104736 299.148224,378.564880 
	C299.667603,374.632294 300.219299,370.101593 302.478668,367.177277 
	C304.575104,364.463867 305.247742,362.639404 303.934021,359.437744 
	C306.807831,353.622253 309.847198,348.251434 312.486267,342.690643 
	C322.257019,322.102844 331.895630,301.452393 341.583923,280.825470 
z"/>
<path fill="#0C84C2" opacity="1.000000" stroke="none" 
	d="
M303.915863,359.795166 
	C305.247742,362.639404 304.575104,364.463867 302.478668,367.177277 
	C300.219299,370.101593 299.667603,374.632294 299.148224,378.564880 
	C296.699493,397.104736 294.511322,415.679047 292.242676,434.242615 
	C291.142944,443.241058 290.128632,452.250610 288.919739,461.234161 
	C288.749268,462.501068 287.688812,463.648224 286.681458,464.926361 
	C280.901184,456.254150 278.333893,446.845551 278.923737,436.459900 
	C279.335388,429.211243 279.005951,429.211853 271.492615,427.943634 
	C270.552917,427.785004 269.668915,427.296265 268.375153,426.838562 
	C268.996490,416.979919 269.809357,407.218536 271.055420,397.512695 
	C272.636353,385.198486 274.696960,372.946106 276.306976,360.635223 
	C277.464508,351.784149 278.030945,342.855377 279.207642,334.007324 
	C280.729553,322.563324 282.893097,311.200165 284.243103,299.738922 
	C286.103271,283.946411 287.426086,268.091125 289.054382,252.270462 
	C289.580780,247.155930 290.344269,242.065796 291.460571,236.437683 
	C306.151489,235.910889 320.381104,235.910889 335.322815,235.910889 
	C329.626740,248.081879 324.293945,259.481659 318.956940,270.879425 
	C309.178406,291.762482 299.390411,312.641052 289.622406,333.529022 
	C287.310699,338.472321 284.813812,343.348694 282.841736,348.426575 
	C279.663635,356.609802 283.553406,364.744568 291.251099,365.495575 
	C296.183228,365.976746 300.726715,363.992981 303.915863,359.795166 
z"/>
<path fill="#1898D1" opacity="1.000000" stroke="none" 
	d="
M431.724579,124.176392 
	C427.276855,129.055725 428.180542,135.482864 427.199188,141.132294 
	C425.096954,153.234512 423.782837,165.480972 422.378418,177.695099 
	C420.787933,191.527725 419.559052,205.401978 417.961426,219.233704 
	C417.126160,226.465332 415.579742,233.616989 414.805420,240.853027 
	C413.051300,257.244781 411.612976,273.670166 409.943634,290.071411 
	C409.729584,292.174316 408.899231,294.213440 408.365875,296.285065 
	C407.914215,298.039246 407.268555,299.774597 407.073151,301.558228 
	C406.215057,309.391663 405.530121,317.243866 404.704071,325.081055 
	C403.852631,333.159485 402.913788,341.228699 402.006348,349.301178 
	C401.691071,352.106110 401.313965,354.904633 401.037079,357.713196 
	C400.327332,364.912903 399.784363,372.131287 398.948456,379.315887 
	C396.553375,399.901459 394.089569,420.479492 391.510223,441.042603 
	C391.272736,442.935883 390.016998,444.701416 389.130859,446.756744 
	C384.577789,445.714752 380.128021,444.442291 375.341034,442.999451 
	C376.993896,429.693726 379.345276,416.600189 380.872009,403.411224 
	C382.385681,390.334625 381.445648,376.769287 384.504272,364.125275 
	C388.856659,346.132935 388.749268,327.679474 392.538788,309.683105 
	C394.566589,300.053009 393.876251,289.883240 395.100555,280.042633 
	C396.503113,268.769135 398.666748,257.590240 400.508087,246.371628 
	C400.588531,245.881500 400.823669,245.411163 400.865814,244.921204 
	C401.588531,236.519165 402.208954,228.107315 403.031036,219.715179 
	C403.529388,214.627884 404.437256,209.581619 404.980835,204.497665 
	C406.720245,188.229324 408.174408,171.927429 410.158203,155.689728 
	C410.998596,148.810913 412.989319,142.079132 414.243073,135.241257 
	C414.777802,132.325089 414.684784,129.299286 415.023956,126.340157 
	C415.321899,123.741074 416.159515,121.160233 416.118744,118.581451 
	C416.091949,116.888672 414.927277,115.213875 414.158447,113.204651 
	C419.847778,116.570801 425.650848,120.263329 431.724579,124.176392 
z"/>
<path fill="#077FBF" opacity="1.000000" stroke="none" 
	d="
M268.064453,214.183792 
	C268.094055,213.520309 267.919800,212.759308 268.183563,212.207825 
	C272.778046,202.601486 272.235504,192.189590 273.023773,181.980576 
	C273.470184,176.198822 274.224579,170.436142 274.505127,164.648605 
	C274.618958,162.300003 273.841736,159.908188 273.218201,157.259644 
	C290.719421,151.327454 308.852142,150.836105 327.487549,153.433197 
	C327.186157,155.898865 326.307312,157.890564 326.016388,159.964722 
	C324.962738,167.476547 324.060974,175.010803 323.187195,182.546478 
	C322.085419,192.048233 321.067322,201.559692 319.553467,211.172195 
	C306.668884,211.304535 294.235992,211.084869 281.823273,211.486847 
	C277.212708,211.636139 272.649353,213.242111 268.064453,214.183792 
z"/>
<path fill="#0F89C5" opacity="1.000000" stroke="none" 
	d="
M320.013153,211.066956 
	C321.067322,201.559692 322.085419,192.048233 323.187195,182.546478 
	C324.060974,175.010803 324.962738,167.476547 326.016388,159.964722 
	C326.307312,157.890564 327.186157,155.898865 327.900879,153.515778 
	C331.822754,145.799484 335.184601,138.152039 339.573425,131.148087 
	C344.745605,122.894066 352.756561,117.563568 361.642303,113.054596 
	C362.187378,118.889458 362.482147,124.757866 362.518219,130.627853 
	C362.535156,133.384171 362.180328,136.162872 361.762909,138.896133 
	C361.344330,141.637268 361.349976,143.742493 363.962952,145.848907 
	C365.444794,147.043472 366.669495,150.257080 362.568390,151.506912 
	C361.278870,151.899887 359.845062,153.802979 359.578888,155.221573 
	C358.511169,160.912537 357.792694,166.675262 357.145874,172.434021 
	C357.005188,173.686813 357.693481,175.032730 358.226074,177.296997 
	C359.972626,175.229980 360.949585,174.073792 361.926514,172.917587 
	C361.887115,176.903259 361.943390,180.684402 358.167694,183.274155 
	C356.737976,184.254776 355.377991,186.247116 355.161560,187.929489 
	C354.210052,195.326462 353.688110,202.778687 352.548950,210.749207 
	C341.395996,211.213989 330.704590,211.140472 320.013153,211.066956 
z"/>
<path fill="#1898D1" opacity="1.000000" stroke="none" 
	d="
M321.045685,113.305344 
	C327.838440,116.524277 331.869354,121.979172 331.759644,129.387207 
	C331.632629,137.960831 326.870514,143.796463 318.366638,146.286163 
	C318.994659,138.851669 320.101196,131.819061 320.840576,124.748055 
	C321.235809,120.968002 320.997864,117.121727 321.045685,113.305344 
z"/>
<path fill="#0479BB" opacity="1.000000" stroke="none" 
	d="
M306.008545,113.399124 
	C309.129608,112.786751 312.250641,112.174377 315.443573,112.096100 
	C314.014069,124.032051 312.512726,135.433914 311.011353,146.835770 
	C308.544983,145.907516 306.078613,144.979279 303.314209,143.439880 
	C304.013611,133.018860 305.011078,123.208992 306.008545,113.399124 
z"/>
<path fill="#0272B6" opacity="1.000000" stroke="none" 
	d="
M379.021942,491.902039 
	C372.775604,488.322784 370.267365,482.446747 370.565979,475.768433 
	C370.908173,468.114624 374.969147,462.466461 382.678772,459.921021 
	C381.675354,470.800690 380.348663,481.351379 379.021942,491.902039 
z"/>
<path fill="#0F89C5" opacity="1.000000" stroke="none" 
	d="
M311.446777,146.899628 
	C312.512726,135.433914 314.014069,124.032051 315.727905,112.320328 
	C317.415283,112.324127 318.890167,112.637802 320.705383,113.128403 
	C320.997864,117.121727 321.235809,120.968002 320.840576,124.748055 
	C320.101196,131.819061 318.994659,138.851669 318.017517,146.302887 
	C315.956848,146.791519 313.919495,146.877518 311.446777,146.899628 
z"/>
<path fill="#0479BB" opacity="1.000000" stroke="none" 
	d="
M379.251099,492.162903 
	C380.348663,481.351379 381.675354,470.800690 383.001587,459.842010 
	C385.753387,459.165100 388.505646,458.896179 391.256622,458.985840 
	C390.503876,461.457245 389.463104,463.515289 389.051086,465.692352 
	C387.272552,475.089661 385.678192,484.521820 384.016815,493.941315 
	C382.504639,493.435486 380.992432,492.929657 379.251099,492.162903 
z"/>
<path fill="#0F89C5" opacity="1.000000" stroke="none" 
	d="
M384.027466,493.971008 
	C385.678192,484.521820 387.272552,475.089661 389.051086,465.692352 
	C389.463104,463.515289 390.503876,461.457245 391.570190,459.181610 
	C393.489624,459.463257 395.094208,459.907715 396.551025,460.833984 
	C395.754639,464.274597 394.867096,467.204346 394.503510,470.197754 
	C393.519714,478.297272 392.758606,486.423828 391.909149,494.539642 
	C390.514038,494.663940 389.118958,494.788208 387.064026,494.654724 
	C385.633331,494.253754 384.862457,494.110565 384.091583,493.967407 
	C384.091583,493.967377 384.038116,494.000702 384.027466,493.971008 
z"/>
<path fill="#0272B6" opacity="1.000000" stroke="none" 
	d="
M305.691559,113.462067 
	C305.011078,123.208992 304.013611,133.018860 303.014893,143.234894 
	C293.639465,136.867523 292.786194,120.637405 305.691559,113.462067 
z"/>
<path fill="#1696CF" opacity="1.000000" stroke="none" 
	d="
M392.256165,494.558228 
	C392.758606,486.423828 393.519714,478.297272 394.503510,470.197754 
	C394.867096,467.204346 395.754639,464.274597 396.743103,461.137909 
	C398.527985,461.942108 399.973022,462.924164 401.501068,464.435547 
	C400.390900,473.976196 399.197693,482.987518 398.004517,491.998840 
	C398.004517,491.998840 398.001221,492.001953 397.834717,492.118652 
	C397.449463,492.389496 397.239075,492.554352 397.037140,492.729980 
	C395.559174,493.345612 394.081177,493.961243 392.256165,494.558228 
z"/>
<path fill="#1A9CD4" opacity="1.000000" stroke="none" 
	d="
M398.346802,491.929382 
	C399.197693,482.987518 400.390900,473.976196 401.758545,464.657410 
	C409.825043,473.816345 408.696167,483.389862 398.346802,491.929382 
z"/>
<path fill="#0272B6" opacity="1.000000" stroke="none" 
	d="
M161.941345,401.113831 
	C157.394104,399.318115 155.043396,395.703156 155.307098,391.094269 
	C155.586075,386.218506 158.077301,382.374695 163.784836,381.390747 
	C163.513443,388.205139 162.727386,394.659485 161.941345,401.113831 
z"/>
<path fill="#0C84C2" opacity="1.000000" stroke="none" 
	d="
M162.175537,401.436035 
	C162.727386,394.659485 163.513443,388.205139 164.150604,381.396912 
	C165.781219,381.055084 167.560760,381.067108 169.635193,381.493591 
	C169.755280,385.733368 169.468033,389.558075 169.445236,393.384338 
	C169.430084,395.924713 169.793137,398.467316 169.986908,401.008942 
	C167.461166,401.258728 164.935455,401.508484 162.175537,401.436035 
z"/>
<path fill="#1696CF" opacity="1.000000" stroke="none" 
	d="
M170.334717,400.961792 
	C169.793137,398.467316 169.430084,395.924713 169.445236,393.384338 
	C169.468033,389.558075 169.755280,385.733368 169.959000,381.640503 
	C179.035858,386.028809 179.357468,395.076416 170.334717,400.961792 
z"/>
<path fill="#0479BB" opacity="1.000000" stroke="none" 
	d="
M196.141052,414.286377 
	C196.958664,414.385925 197.935532,414.735321 198.955963,415.382324 
	C198.099777,415.298706 197.200043,414.917450 196.141052,414.286377 
z"/>
<path fill="#0479BB" opacity="1.000000" stroke="none" 
	d="
M384.304688,494.190308 
	C384.862457,494.110565 385.633331,494.253754 386.650604,494.559113 
	C386.103943,494.618591 385.310852,494.515900 384.304688,494.190308 
z"/>
<path fill="#1A9CD4" opacity="1.000000" stroke="none" 
	d="
M414.334717,447.699646 
	C414.528870,447.452881 414.988068,447.253052 415.698334,447.022095 
	C415.499542,447.242798 415.049652,447.494659 414.334717,447.699646 
z"/>
<path fill="#1A9CD4" opacity="1.000000" stroke="none" 
	d="
M440.608948,239.748352 
	C440.438171,239.788269 440.279388,239.605865 440.072632,239.232452 
	C440.252472,239.155838 440.451202,239.317368 440.608948,239.748352 
z"/>
<path fill="#0479BB" opacity="1.000000" stroke="none" 
	d="
M223.739807,181.339600 
	C223.758499,181.479050 223.573074,181.633652 223.237976,181.890106 
	C223.150864,181.721649 223.299988,181.509247 223.739807,181.339600 
z"/>
<path fill="#1A9CD4" opacity="1.000000" stroke="none" 
	d="
M397.263367,492.730286 
	C397.239075,492.554352 397.449463,492.389496 397.832336,492.120361 
	C397.930389,492.319031 397.761444,492.560791 397.263367,492.730286 
z"/>
<path fill="#0479BB" opacity="1.000000" stroke="none" 
	d="
M222.764542,182.145508 
	C222.792664,182.302536 222.574280,182.511749 222.160645,182.843231 
	C222.068573,182.656387 222.252792,182.400452 222.764542,182.145508 
z"/>
<path fill="#FBFDFE" opacity="1.000000" stroke="none" 
	d="
M319.553467,211.172195 
	C330.704590,211.140472 341.395996,211.213989 352.547241,211.185638 
	C366.186371,212.728989 370.259674,220.253403 364.497284,232.405548 
	C356.947327,248.327499 349.356934,264.230286 341.683929,280.483398 
	C331.895630,301.452393 322.257019,322.102844 312.486267,342.690643 
	C309.847198,348.251434 306.807831,353.622253 303.934021,359.437744 
	C300.726715,363.992981 296.183228,365.976746 291.251099,365.495575 
	C283.553406,364.744568 279.663635,356.609802 282.841736,348.426575 
	C284.813812,343.348694 287.310699,338.472321 289.622406,333.529022 
	C299.390411,312.641052 309.178406,291.762482 318.956940,270.879425 
	C324.293945,259.481659 329.626740,248.081879 335.322815,235.910889 
	C320.381104,235.910889 306.151489,235.910889 291.460205,235.997787 
	C286.553436,236.014542 282.106934,235.841522 277.663391,235.898239 
	C270.939667,235.984100 266.435120,232.997757 264.102173,225.984756 
	C263.949493,224.894287 263.891998,224.456558 263.834503,224.018845 
	C263.883514,223.569855 263.932495,223.120865 263.929504,222.335495 
	C265.171112,219.591354 266.464691,217.183594 267.911377,214.479828 
	C272.649353,213.242111 277.212708,211.636139 281.823273,211.486847 
	C294.235992,211.084869 306.668884,211.304535 319.553467,211.172195 
z"/>
<path fill="#0F89C5" opacity="1.000000" stroke="none" 
	d="
M361.726379,167.024857 
	C361.686340,165.772858 361.858673,164.735062 362.031006,163.697266 
	C362.668549,163.969086 363.306091,164.240906 363.943634,164.512726 
	C363.275360,165.421494 362.607056,166.330276 361.726379,167.024857 
z"/>
<path fill="#0479BB" opacity="1.000000" stroke="none" 
	d="
M263.714905,224.203827 
	C263.891998,224.456558 263.949493,224.894287 263.955261,225.660400 
	C263.800842,225.455490 263.698090,224.922150 263.714905,224.203827 
z"/>
</svg>