<svg version="1.1" id="Layer_1" xmlns="http://www.w3.org/2000/svg" xmlns:xlink="http://www.w3.org/1999/xlink" x="0px" y="0px"
	 width="100%" viewBox="0 0 600 600" enable-background="new 0 0 600 600" xml:space="preserve">
<path fill="#000000" opacity="1.000000" stroke="none" 
	d="
M341.000000,601.000000 
	C227.333328,601.000000 114.166664,601.000000 1.000000,601.000000 
	C1.000000,401.000000 1.000000,201.000000 1.000000,1.000000 
	C201.000000,1.000000 401.000000,1.000000 601.000000,1.000000 
	C601.000000,201.000000 601.000000,401.000000 601.000000,601.000000 
	C514.500000,601.000000 428.000000,601.000000 341.000000,601.000000 
M174.654846,398.104004 
	C174.873444,397.773804 175.092041,397.443634 175.809784,396.559753 
	C175.747879,393.041138 175.685974,389.522552 175.436050,385.404877 
	C173.633606,384.042969 171.831146,382.681091 169.382965,381.013214 
	C167.595032,381.027893 165.807098,381.042572 163.291122,381.073761 
	C158.097626,382.247925 155.858459,386.010376 155.564346,390.827026 
	C155.277832,395.519318 157.415131,399.152008 162.223709,401.165924 
	C162.223709,401.165924 162.491699,401.085419 162.878296,401.443756 
	C163.213898,401.517639 163.549500,401.591522 164.720490,401.899963 
	C166.413071,401.723389 168.105667,401.546783 170.392212,401.277496 
	C171.651108,400.353729 172.910004,399.429993 174.223755,398.347015 
	C174.223755,398.347015 174.072571,398.272888 174.654846,398.104004 
M400.608337,490.702576 
	C408.690460,483.476196 409.636505,473.196869 402.731171,464.587982 
	C400.486389,463.075378 398.241638,461.562744 395.429565,459.582245 
	C392.961670,459.264069 390.493805,458.945892 387.294586,458.462463 
	C377.278320,460.323700 371.515045,466.286774 370.776764,475.458069 
	C370.217834,482.401154 374.445526,491.284088 383.762238,494.052429 
	C386.564117,494.214142 389.366028,494.375854 392.938324,494.512512 
	C395.291321,493.332733 397.644287,492.152924 400.608337,490.702576 
M326.735168,141.849640 
	C333.309540,134.964691 333.942688,126.360634 328.158295,118.267380 
	C326.432800,116.865593 324.707275,115.463814 322.487305,113.533173 
	C318.672729,113.043480 314.858154,112.553780 310.270111,112.029953 
	C302.154541,113.807838 296.840179,119.747215 296.152100,127.808372 
	C295.500641,135.440552 299.490143,142.237579 307.025299,145.775757 
	C311.433441,145.887863 315.841553,145.999969 320.921692,146.024261 
	C322.642029,144.703247 324.362366,143.382233 326.735168,141.849640 
M316.759308,486.224670 
	C324.599945,487.733215 332.387329,487.873901 340.820496,485.246002 
	C361.047241,478.504242 371.870880,464.200836 374.463959,443.105469 
	C377.723846,444.058136 380.870728,444.977783 384.555939,446.312164 
	C385.901031,446.538879 387.280853,446.642700 388.585693,447.011719 
	C399.171417,450.005280 409.665863,449.286316 420.901062,446.273041 
	C429.097595,443.884949 436.233795,439.811218 443.303375,434.854919 
	C454.127228,427.266663 461.247437,417.112305 465.563629,405.364044 
	C475.812317,377.468414 469.047516,352.954010 448.645264,331.777985 
	C447.363861,330.447937 446.350769,328.090393 446.498566,326.318146 
	C446.776062,322.990814 448.428192,319.782593 448.740112,316.452850 
	C449.673340,306.490997 451.013153,296.471008 450.714386,286.518127 
	C450.438110,277.314667 448.251556,268.168488 446.925476,258.499786 
	C446.925476,258.499786 446.775085,258.025360 446.839203,257.455292 
	C446.617462,256.953491 446.395721,256.451691 446.163574,255.154037 
	C440.954895,242.186005 435.746216,229.217957 430.537537,216.249908 
	C429.954651,216.136765 429.371765,216.023621 428.788849,215.910477 
	C430.132935,214.927948 431.644684,214.110123 432.795807,212.938080 
	C448.561615,196.886215 454.238312,177.576294 449.771240,155.741638 
	C446.619995,140.338745 438.994415,127.327759 424.877563,118.332680 
	C424.766632,118.182167 424.655731,118.031654 424.522705,117.657364 
	C424.522705,117.657364 424.141541,117.477554 423.553375,117.035110 
	C412.153320,109.529236 399.697998,105.955002 385.133820,106.797768 
	C379.384399,107.998383 373.635010,109.199005 367.123383,110.550255 
	C347.598877,118.204712 335.143616,132.256882 329.112854,151.949661 
	C321.554108,151.949661 313.786041,151.949661 305.106232,151.765045 
	C290.274872,152.253983 275.878296,154.942810 261.290619,160.307236 
	C247.388321,165.555908 234.438232,172.472290 222.449478,182.399323 
	C214.732468,190.176315 206.793335,197.748810 199.377502,205.803116 
	C194.535675,211.061798 194.875900,211.375046 188.765976,207.803421 
	C170.528702,197.142517 146.810501,203.660873 135.919235,222.326996 
	C125.599579,240.013474 131.900269,264.657867 149.865295,274.519196 
	C155.807510,277.780975 162.750992,279.218719 169.840515,281.701965 
	C169.819763,281.462250 170.000977,282.274078 169.942719,283.068329 
	C167.727371,313.271973 174.869705,341.165649 190.749451,366.854218 
	C192.310837,369.380035 191.776840,370.659912 189.830734,372.695465 
	C178.626587,384.414368 179.659805,401.910767 192.046829,411.621185 
	C192.046829,411.621185 192.318130,411.699585 192.418427,411.793457 
	C192.418427,411.793457 192.520798,411.701843 192.857101,412.245392 
	C204.080063,419.831543 216.190414,418.999542 226.359390,410.030853 
	C227.402069,409.111237 228.801117,408.595703 230.458176,408.423706 
	C243.569092,418.122192 258.288269,424.416565 273.956543,428.499634 
	C278.024353,429.559753 279.584351,431.008057 279.193176,435.503540 
	C278.311981,445.629883 280.097687,455.332367 286.199005,464.598450 
	C293.253693,475.715485 302.938721,483.148621 316.759308,486.224670 
z"/>
<path fill="#444A98" opacity="1.000000" stroke="none" 
	d="
M262.005676,160.282959 
	C275.878296,154.942810 290.274872,152.253983 305.557983,152.308289 
	C305.493195,157.966843 305.038208,163.089294 304.448669,168.196182 
	C302.608673,184.135101 298.160339,199.832397 299.948730,216.439697 
	C286.769714,225.918427 279.746124,238.106827 280.960144,254.436234 
	C281.634033,263.500092 286.108856,270.725250 291.908325,276.708282 
	C287.770294,281.141235 283.461365,284.947662 280.131226,289.474182 
	C269.463226,303.974548 267.878693,320.326477 274.447021,336.465302 
	C279.164886,348.057495 288.141693,357.100189 300.015015,362.886353 
	C299.040985,365.919250 297.537659,368.465363 297.215179,371.153168 
	C295.636597,384.311249 294.224091,397.494019 293.067841,410.695648 
	C292.581665,416.246918 293.935455,422.054718 289.761230,426.866547 
	C289.187714,427.527618 289.134766,428.757233 289.084015,429.736267 
	C288.688049,437.372040 288.504974,445.022400 287.931915,452.643890 
	C287.647095,456.432129 286.680298,460.169128 286.022034,463.929291 
	C280.097687,455.332367 278.311981,445.629883 279.193176,435.503540 
	C279.584351,431.008057 278.024353,429.559753 273.956543,428.499634 
	C258.288269,424.416565 243.569092,418.122192 230.137238,407.804779 
	C227.848572,402.216156 226.174637,397.334656 228.097046,391.792572 
	C229.488220,387.781952 230.377045,383.528259 230.916779,379.309692 
	C231.505234,374.710297 230.441483,369.704132 231.828415,365.437866 
	C236.535950,350.957336 233.301270,335.540833 238.401138,320.881348 
	C241.530884,311.884918 239.337112,301.411865 241.510818,291.458038 
	C243.902222,280.507355 243.366928,269.073944 246.165924,257.760681 
	C248.796631,247.127655 247.780716,235.496292 249.759277,224.326645 
	C251.310699,215.568314 250.663147,206.423904 251.061432,197.454071 
	C251.119400,196.148376 251.578903,194.862961 251.823242,193.562653 
	C253.548645,184.380936 255.266342,175.197769 257.030029,165.782730 
	C258.387848,164.281906 260.196777,162.282440 262.005676,160.282959 
z"/>
<path fill="#315AA4" opacity="1.000000" stroke="none" 
	d="
M386.013763,106.959297 
	C399.697998,105.955002 412.153320,109.529236 423.913147,117.323959 
	C424.272919,117.612808 424.544800,117.881142 424.544800,117.881142 
	C424.655731,118.031654 424.766632,118.182167 424.949463,119.046951 
	C424.694305,122.564125 424.370667,125.367439 424.039703,128.169876 
	C421.528503,149.434387 419.054688,170.703430 416.488098,191.961258 
	C415.075165,203.664154 413.372864,215.333008 412.036591,227.044098 
	C409.854126,246.171570 408.056030,265.344330 405.733643,284.453979 
	C403.792847,300.424103 401.182465,316.311859 399.137482,332.270538 
	C395.636047,359.595032 392.708130,386.998779 388.781738,414.260101 
	C387.263184,424.803497 389.143921,435.904694 384.017578,445.897461 
	C380.870728,444.977783 377.723846,444.058136 374.463959,443.105469 
	C371.870880,464.200836 361.047241,478.504242 340.541870,484.934204 
	C341.805908,482.362244 344.197296,480.281708 344.721161,477.805969 
	C345.954498,471.977112 346.334198,465.963898 346.992676,460.017883 
	C349.072968,441.232635 351.012207,422.430969 353.219635,403.660797 
	C354.944061,388.997253 357.085938,374.382782 358.807465,359.718933 
	C359.168884,356.640533 358.504333,353.441681 358.308533,350.251465 
	C358.304504,350.204620 358.397827,350.193024 358.648621,350.255737 
	C359.130768,349.819153 359.362122,349.319855 359.729919,348.498535 
	C362.882629,342.350372 366.750397,336.799072 368.737610,330.640900 
	C372.851257,317.893097 370.875977,305.395508 364.994415,293.292603 
	C366.265869,291.882996 368.031128,290.809967 368.168579,289.558197 
	C369.610962,276.422577 370.714325,263.250244 372.067902,250.104172 
	C373.570007,235.516098 375.126831,220.931763 376.879364,206.372253 
	C377.629669,200.139084 379.211426,194.004684 379.932495,187.769577 
	C381.625061,173.134033 382.805389,158.437424 384.617737,143.818176 
	C386.000610,132.662811 388.035004,121.588219 389.662598,111.222839 
	C388.132294,109.434738 387.073029,108.197021 386.013763,106.959297 
z"/>
<path fill="#4B408F" opacity="1.000000" stroke="none" 
	d="
M191.897110,411.381714 
	C179.659805,401.910767 178.626587,384.414368 189.830734,372.695465 
	C191.776840,370.659912 192.310837,369.380035 190.749451,366.854218 
	C174.869705,341.165649 167.727371,313.271973 169.942719,283.068329 
	C170.000977,282.274078 169.819763,281.462250 169.840515,281.701965 
	C162.750992,279.218719 155.807510,277.780975 149.865295,274.519196 
	C131.900269,264.657867 125.599579,240.013474 135.919235,222.326996 
	C146.810501,203.660873 170.528702,197.142517 188.765976,207.803421 
	C194.875900,211.375046 194.535675,211.061798 199.377502,205.803116 
	C206.793335,197.748810 214.732468,190.176315 222.947540,182.572006 
	C224.488525,188.052612 226.678635,193.429398 226.364807,198.655853 
	C225.315048,216.140259 223.372208,233.571106 221.758789,251.021301 
	C221.698166,251.677002 221.711868,252.484528 221.344391,252.944336 
	C217.907120,257.245148 217.938934,262.064117 218.919296,267.124969 
	C219.128876,268.206787 218.679337,269.418823 218.520325,270.569061 
	C217.682465,276.629456 216.775848,282.681152 216.014664,288.751099 
	C214.820160,298.276398 213.796219,307.823364 212.562302,317.343323 
	C211.472763,325.749481 210.079361,334.116943 209.039612,342.528625 
	C208.306580,348.458862 208.090012,354.452301 207.379318,360.385986 
	C206.004105,371.867859 204.533340,383.340240 202.916412,394.790283 
	C202.222717,399.702698 201.070435,404.550659 200.115875,409.425812 
	C199.651093,411.799561 198.539932,412.984711 195.901978,412.008514 
	C194.877365,411.629425 193.653748,411.788147 192.520798,411.701843 
	C192.520798,411.701843 192.418427,411.793457 192.421844,411.619446 
	C192.425247,411.445435 192.224533,411.210968 192.224533,411.210968 
	C192.224533,411.210968 191.897110,411.381714 191.897110,411.381714 
z"/>
<path fill="#275FA9" opacity="1.000000" stroke="none" 
	d="
M384.286743,446.104797 
	C389.143921,435.904694 387.263184,424.803497 388.781738,414.260101 
	C392.708130,386.998779 395.636047,359.595032 399.137482,332.270538 
	C401.182465,316.311859 403.792847,300.424103 405.733643,284.453979 
	C408.056030,265.344330 409.854126,246.171570 412.036591,227.044098 
	C413.372864,215.333008 415.075165,203.664154 416.488098,191.961258 
	C419.054688,170.703430 421.528503,149.434387 424.039703,128.169876 
	C424.370667,125.367439 424.694305,122.564125 425.031372,119.315170 
	C438.994415,127.327759 446.619995,140.338745 449.771240,155.741638 
	C454.238312,177.576294 448.561615,196.886215 432.795807,212.938080 
	C431.644684,214.110123 430.132935,214.927948 428.788849,215.910477 
	C429.371765,216.023621 429.954651,216.136765 430.537537,216.249908 
	C435.746216,229.217957 440.954895,242.186005 445.869812,255.766235 
	C444.407074,259.791473 442.632355,263.124634 442.169647,266.630859 
	C439.589478,286.183289 437.271057,305.771088 434.974030,325.359802 
	C433.215027,340.360443 431.745758,355.395691 429.912292,370.386810 
	C428.464600,382.223785 426.563171,394.004669 425.037476,405.832947 
	C423.297302,419.324066 421.750275,432.840149 420.119324,446.345367 
	C409.665863,449.286316 399.171417,450.005280 388.585693,447.011719 
	C387.280853,446.642700 385.901031,446.538879 384.286743,446.104797 
z"/>
<path fill="#484393" opacity="1.000000" stroke="none" 
	d="
M192.688950,411.973633 
	C193.653748,411.788147 194.877365,411.629425 195.901978,412.008514 
	C198.539932,412.984711 199.651093,411.799561 200.115875,409.425812 
	C201.070435,404.550659 202.222717,399.702698 202.916412,394.790283 
	C204.533340,383.340240 206.004105,371.867859 207.379318,360.385986 
	C208.090012,354.452301 208.306580,348.458862 209.039612,342.528625 
	C210.079361,334.116943 211.472763,325.749481 212.562302,317.343323 
	C213.796219,307.823364 214.820160,298.276398 216.014664,288.751099 
	C216.775848,282.681152 217.682465,276.629456 218.520325,270.569061 
	C218.679337,269.418823 219.128876,268.206787 218.919296,267.124969 
	C217.938934,262.064117 217.907120,257.245148 221.344391,252.944336 
	C221.711868,252.484528 221.698166,251.677002 221.758789,251.021301 
	C223.372208,233.571106 225.315048,216.140259 226.364807,198.655853 
	C226.678635,193.429398 224.488525,188.052612 223.251617,182.441055 
	C234.438232,172.472290 247.388321,165.555908 261.648132,160.295105 
	C260.196777,162.282440 258.387848,164.281906 257.030029,165.782730 
	C255.266342,175.197769 253.548645,184.380936 251.823242,193.562653 
	C251.578903,194.862961 251.119400,196.148376 251.061432,197.454071 
	C250.663147,206.423904 251.310699,215.568314 249.759277,224.326645 
	C247.780716,235.496292 248.796631,247.127655 246.165924,257.760681 
	C243.366928,269.073944 243.902222,280.507355 241.510818,291.458038 
	C239.337112,301.411865 241.530884,311.884918 238.401138,320.881348 
	C233.301270,335.540833 236.535950,350.957336 231.828415,365.437866 
	C230.441483,369.704132 231.505234,374.710297 230.916779,379.309692 
	C230.377045,383.528259 229.488220,387.781952 228.097046,391.792572 
	C226.174637,397.334656 227.848572,402.216156 229.925537,407.539246 
	C228.801117,408.595703 227.402069,409.111237 226.359390,410.030853 
	C216.190414,418.999542 204.080063,419.831543 192.688950,411.973633 
z"/>
<path fill="#3D519D" opacity="1.000000" stroke="none" 
	d="
M300.042908,216.113754 
	C298.160339,199.832397 302.608673,184.135101 304.448669,168.196182 
	C305.038208,163.089294 305.493195,157.966843 306.013855,152.400589 
	C313.786041,151.949661 321.554108,151.949661 329.112854,151.949661 
	C335.143616,132.256882 347.598877,118.204712 367.522308,110.971298 
	C367.343536,118.991325 366.938568,126.608498 366.141022,134.184341 
	C365.290588,142.262924 364.002869,150.294418 363.024567,158.360840 
	C361.467621,171.198257 360.072754,184.055511 358.475372,196.887711 
	C357.881683,201.656952 356.173920,206.402084 356.320007,211.116501 
	C356.465210,215.802032 350.196228,219.543320 354.558624,224.673416 
	C354.685913,224.823074 353.233063,226.316406 352.273254,226.978485 
	C342.512634,215.353226 330.322723,210.199509 315.585876,212.033737 
	C310.317230,212.689484 305.218964,214.713989 300.042908,216.113754 
z"/>
<path fill="#1A65AD" opacity="1.000000" stroke="none" 
	d="
M420.510193,446.309204 
	C421.750275,432.840149 423.297302,419.324066 425.037476,405.832947 
	C426.563171,394.004669 428.464600,382.223785 429.912292,370.386810 
	C431.745758,355.395691 433.215027,340.360443 434.974030,325.359802 
	C437.271057,305.771088 439.589478,286.183289 442.169647,266.630859 
	C442.632355,263.124634 444.407074,259.791473 445.875000,256.164154 
	C446.395721,256.451691 446.617462,256.953491 446.756073,257.863434 
	C446.629730,258.549255 446.707520,258.791107 446.906311,258.997101 
	C448.251556,268.168488 450.438110,277.314667 450.714386,286.518127 
	C451.013153,296.471008 449.673340,306.490997 448.740112,316.452850 
	C448.428192,319.782593 446.776062,322.990814 446.498566,326.318146 
	C446.350769,328.090393 447.363861,330.447937 448.645264,331.777985 
	C469.047516,352.954010 475.812317,377.468414 465.563629,405.364044 
	C461.247437,417.112305 454.127228,427.266663 443.303375,434.854919 
	C436.233795,439.811218 429.097595,443.884949 420.510193,446.309204 
z"/>
<path fill="#3D519D" opacity="1.000000" stroke="none" 
	d="
M286.110535,464.263855 
	C286.680298,460.169128 287.647095,456.432129 287.931915,452.643890 
	C288.504974,445.022400 288.688049,437.372040 289.084015,429.736267 
	C289.134766,428.757233 289.187714,427.527618 289.761230,426.866547 
	C293.935455,422.054718 292.581665,416.246918 293.067841,410.695648 
	C294.224091,397.494019 295.636597,384.311249 297.215179,371.153168 
	C297.537659,368.465363 299.040985,365.919250 300.385651,363.013794 
	C310.824493,367.154419 321.334137,367.384277 332.044739,366.505371 
	C331.923706,370.118652 331.921387,373.355194 331.555115,376.549988 
	C331.278046,378.966797 330.275970,381.305450 330.044830,383.721741 
	C328.798920,396.747589 327.933350,409.814362 326.442963,422.810425 
	C325.631134,429.889343 327.648865,437.626923 322.243042,443.854523 
	C321.806610,444.357269 322.055847,445.467926 322.012726,446.297424 
	C321.659363,453.095581 322.088257,460.055115 320.721069,466.642151 
	C319.599854,472.044159 321.752106,479.492615 313.405792,482.086029 
	C314.365692,483.491760 315.177246,484.680298 315.988831,485.868835 
	C302.938721,483.148621 293.253693,475.715485 286.110535,464.263855 
z"/>
<path fill="#3656A1" opacity="1.000000" stroke="none" 
	d="
M352.516968,227.183243 
	C353.233063,226.316406 354.685913,224.823074 354.558624,224.673416 
	C350.196228,219.543320 356.465210,215.802032 356.320007,211.116501 
	C356.173920,206.402084 357.881683,201.656952 358.475372,196.887711 
	C360.072754,184.055511 361.467621,171.198257 363.024567,158.360840 
	C364.002869,150.294418 365.290588,142.262924 366.141022,134.184341 
	C366.938568,126.608498 367.343536,118.991325 367.903412,110.895981 
	C373.635010,109.199005 379.384399,107.998383 385.573792,106.878532 
	C387.073029,108.197021 388.132294,109.434738 389.662598,111.222839 
	C388.035004,121.588219 386.000610,132.662811 384.617737,143.818176 
	C382.805389,158.437424 381.625061,173.134033 379.932495,187.769577 
	C379.211426,194.004684 377.629669,200.139084 376.879364,206.372253 
	C375.126831,220.931763 373.570007,235.516098 372.067902,250.104172 
	C370.714325,263.250244 369.610962,276.422577 368.168579,289.558197 
	C368.031128,290.809967 366.265869,291.882996 364.721039,293.065369 
	C359.365326,287.522827 354.544922,281.953888 349.772980,276.440979 
	C352.271332,272.417236 355.887939,268.120300 357.829987,263.166840 
	C362.851990,250.357147 359.888702,238.355988 352.516968,227.183243 
z"/>
<path fill="#3656A1" opacity="1.000000" stroke="none" 
	d="
M316.374084,486.046753 
	C315.177246,484.680298 314.365692,483.491760 313.405792,482.086029 
	C321.752106,479.492615 319.599854,472.044159 320.721069,466.642151 
	C322.088257,460.055115 321.659363,453.095581 322.012726,446.297424 
	C322.055847,445.467926 321.806610,444.357269 322.243042,443.854523 
	C327.648865,437.626923 325.631134,429.889343 326.442963,422.810425 
	C327.933350,409.814362 328.798920,396.747589 330.044830,383.721741 
	C330.275970,381.305450 331.278046,378.966797 331.555115,376.549988 
	C331.921387,373.355194 331.923706,370.118652 332.428528,366.458618 
	C342.494202,362.738434 351.127716,357.695190 358.312561,350.298340 
	C358.504333,353.441681 359.168884,356.640533 358.807465,359.718933 
	C357.085938,374.382782 354.944061,388.997253 353.219635,403.660797 
	C351.012207,422.430969 349.072968,441.232635 346.992676,460.017883 
	C346.334198,465.963898 345.954498,471.977112 344.721161,477.805969 
	C344.197296,480.281708 341.805908,482.362244 340.166443,484.969666 
	C332.387329,487.873901 324.599945,487.733215 316.374084,486.046753 
z"/>
<path fill="#4B408F" opacity="1.000000" stroke="none" 
	d="
M383.044220,493.753143 
	C374.445526,491.284088 370.217834,482.401154 370.776764,475.458069 
	C371.515045,466.286774 377.278320,460.323700 387.638519,458.900269 
	C387.299194,462.055420 386.333679,464.737061 385.984894,467.496674 
	C384.880676,476.233185 384.007019,484.998779 383.044220,493.753143 
z"/>
<path fill="#4B408F" opacity="1.000000" stroke="none" 
	d="
M306.433563,145.325241 
	C299.490143,142.237579 295.500641,135.440552 296.152100,127.808372 
	C296.840179,119.747215 302.154541,113.807838 310.648804,112.498932 
	C310.396027,118.990387 309.915161,125.033722 309.085358,131.028763 
	C308.421509,135.824707 307.333374,140.561951 306.433563,145.325241 
z"/>
<path fill="#3D519D" opacity="1.000000" stroke="none" 
	d="
M306.729431,145.550507 
	C307.333374,140.561951 308.421509,135.824707 309.085358,131.028763 
	C309.915161,125.033722 310.396027,118.990387 311.035553,112.515991 
	C314.858154,112.553780 318.672729,113.043480 322.480072,114.034531 
	C321.327209,117.172913 319.642700,119.712677 319.145599,122.466766 
	C318.031921,128.636841 317.719269,134.949554 316.660370,141.132248 
	C316.095428,144.430786 317.094666,145.859283 320.249695,146.112091 
	C315.841553,145.999969 311.433441,145.887863 306.729431,145.550507 
z"/>
<path fill="#3D519D" opacity="1.000000" stroke="none" 
	d="
M383.403229,493.902771 
	C384.007019,484.998779 384.880676,476.233185 385.984894,467.496674 
	C386.333679,464.737061 387.299194,462.055420 388.004181,458.982880 
	C390.493805,458.945892 392.961670,459.264069 395.714111,460.251343 
	C395.765991,463.231293 395.562897,465.545624 395.295502,467.852478 
	C394.264130,476.748810 393.212189,485.642731 392.167908,494.537567 
	C389.366028,494.375854 386.564117,494.214142 383.403229,493.902771 
z"/>
<path fill="#315AA4" opacity="1.000000" stroke="none" 
	d="
M320.585693,146.068176 
	C317.094666,145.859283 316.095428,144.430786 316.660370,141.132248 
	C317.719269,134.949554 318.031921,128.636841 319.145599,122.466766 
	C319.642700,119.712677 321.327209,117.172913 322.727295,114.298950 
	C324.707275,115.463814 326.432800,116.865593 327.951111,118.717316 
	C326.637787,123.650528 325.059357,128.085144 324.590637,132.634109 
	C324.275482,135.692749 325.530273,138.913177 326.082703,142.061218 
	C324.362366,143.382233 322.642029,144.703247 320.585693,146.068176 
z"/>
<path fill="#315AA4" opacity="1.000000" stroke="none" 
	d="
M392.553131,494.525024 
	C393.212189,485.642731 394.264130,476.748810 395.295502,467.852478 
	C395.562897,465.545624 395.765991,463.231293 395.997742,460.485291 
	C398.241638,461.562744 400.486389,463.075378 402.585388,465.175171 
	C401.304352,472.399658 400.049133,479.020203 399.117340,485.685974 
	C398.881317,487.374359 399.676147,489.206848 399.997284,490.973114 
	C397.644287,492.152924 395.291321,493.332733 392.553131,494.525024 
z"/>
<path fill="#1A65AD" opacity="1.000000" stroke="none" 
	d="
M400.302795,490.837830 
	C399.676147,489.206848 398.881317,487.374359 399.117340,485.685974 
	C400.049133,479.020203 401.304352,472.399658 402.695618,465.501831 
	C409.636505,473.196869 408.690460,483.476196 400.302795,490.837830 
z"/>
<path fill="#444A98" opacity="1.000000" stroke="none" 
	d="
M164.019165,381.057251 
	C165.807098,381.042572 167.595032,381.027893 169.697906,381.605530 
	C169.457428,387.012604 168.745605,391.817383 168.437637,396.647919 
	C168.339523,398.186829 169.314377,399.794189 169.798248,401.370178 
	C168.105667,401.546783 166.413071,401.723389 164.085968,401.656860 
	C163.131546,401.304321 162.811615,401.194885 162.491699,401.085419 
	C162.491699,401.085419 162.223709,401.165924 162.108963,400.646179 
	C162.669205,393.770050 163.344177,387.413666 164.019165,381.057251 
z"/>
<path fill="#1A65AD" opacity="1.000000" stroke="none" 
	d="
M326.408936,141.955429 
	C325.530273,138.913177 324.275482,135.692749 324.590637,132.634109 
	C325.059357,128.085144 326.637787,123.650528 328.083984,119.033066 
	C333.942688,126.360634 333.309540,134.964691 326.408936,141.955429 
z"/>
<path fill="#4B408F" opacity="1.000000" stroke="none" 
	d="
M163.655151,381.065491 
	C163.344177,387.413666 162.669205,393.770050 161.990814,400.571259 
	C157.415131,399.152008 155.277832,395.519318 155.564346,390.827026 
	C155.858459,386.010376 158.097626,382.247925 163.655151,381.065491 
z"/>
<path fill="#315AA4" opacity="1.000000" stroke="none" 
	d="
M170.095230,401.323853 
	C169.314377,399.794189 168.339523,398.186829 168.437637,396.647919 
	C168.745605,391.817383 169.457428,387.012604 170.020752,381.758545 
	C171.831146,382.681091 173.633606,384.042969 175.249512,385.901489 
	C172.872604,390.294434 172.120544,394.296936 174.168900,398.506226 
	C172.910004,399.429993 171.651108,400.353729 170.095230,401.323853 
z"/>
<path fill="#1A65AD" opacity="1.000000" stroke="none" 
	d="
M174.196320,398.426636 
	C172.120544,394.296936 172.872604,390.294434 175.343506,386.201050 
	C175.685974,389.522552 175.747879,393.041138 175.324310,396.994720 
	C174.583405,397.710754 174.327972,397.991821 174.072556,398.272888 
	C174.072571,398.272888 174.223755,398.347015 174.196320,398.426636 
z"/>
<path fill="#315AA4" opacity="1.000000" stroke="none" 
	d="
M174.363693,398.188416 
	C174.327972,397.991821 174.583405,397.710754 175.074722,397.271545 
	C175.092041,397.443634 174.873444,397.773804 174.363693,398.188416 
z"/>
<path fill="#4B408F" opacity="1.000000" stroke="none" 
	d="
M162.684998,401.264587 
	C162.811615,401.194885 163.131546,401.304321 163.668274,401.539612 
	C163.549500,401.591522 163.213898,401.517639 162.684998,401.264587 
z"/>
<path fill="#484393" opacity="1.000000" stroke="none" 
	d="
M191.971970,411.501465 
	C191.897110,411.381714 192.224533,411.210968 192.224533,411.210968 
	C192.224533,411.210968 192.425247,411.445435 192.371689,411.572510 
	C192.318130,411.699585 192.046829,411.621185 191.971970,411.501465 
z"/>
<path fill="#275FA9" opacity="1.000000" stroke="none" 
	d="
M446.915894,258.748444 
	C446.707520,258.791107 446.629730,258.549255 446.723999,258.148468 
	C446.775085,258.025360 446.925476,258.499786 446.915894,258.748444 
z"/>
<path fill="#275FA9" opacity="1.000000" stroke="none" 
	d="
M424.533752,117.769257 
	C424.544800,117.881142 424.272919,117.612808 424.207214,117.545181 
	C424.141541,117.477554 424.522705,117.657364 424.533752,117.769257 
z"/>
<path fill="#FCFDFD" opacity="1.000000" stroke="none" 
	d="
M358.308533,350.251465 
	C351.127716,357.695190 342.494202,362.738434 332.390808,366.063934 
	C321.334137,367.384277 310.824493,367.154419 300.400696,362.592346 
	C288.141693,357.100189 279.164886,348.057495 274.447021,336.465302 
	C267.878693,320.326477 269.463226,303.974548 280.131226,289.474182 
	C283.461365,284.947662 287.770294,281.141235 291.908325,276.708282 
	C286.108856,270.725250 281.634033,263.500092 280.960144,254.436234 
	C279.746124,238.106827 286.769714,225.918427 299.948730,216.439697 
	C305.218964,214.713989 310.317230,212.689484 315.585876,212.033737 
	C330.322723,210.199509 342.512634,215.353226 352.273254,226.978485 
	C359.888702,238.355988 362.851990,250.357147 357.829987,263.166840 
	C355.887939,268.120300 352.271332,272.417236 349.772980,276.440979 
	C354.544922,281.953888 359.365326,287.522827 364.459137,293.318970 
	C370.875977,305.395508 372.851257,317.893097 368.737610,330.640900 
	C366.750397,336.799072 362.882629,342.350372 359.511871,348.592468 
	C358.904205,349.403290 358.651031,349.798157 358.397827,350.193024 
	C358.397827,350.193024 358.304504,350.204620 358.308533,350.251465 
M345.843079,322.789124 
	C346.031281,321.304871 346.344147,319.824249 346.387665,318.335754 
	C346.698395,307.714966 342.169434,299.594238 332.985809,294.487213 
	C323.700012,289.323334 314.291595,290.037750 305.797089,296.343536 
	C297.368622,302.600342 293.764099,311.225464 295.795502,321.712494 
	C298.033356,333.265259 307.566071,341.672638 318.884918,342.430756 
	C331.222992,343.257141 340.918518,336.429871 345.843079,322.789124 
M307.694336,259.681549 
	C312.703461,265.317749 318.791168,267.693939 326.040466,264.900421 
	C332.644501,262.355530 336.482819,257.317444 336.956207,250.143875 
	C337.416595,243.167633 332.761047,236.465881 325.984070,233.899765 
	C319.655487,231.503418 312.338928,233.495636 307.934296,238.814514 
	C302.938751,244.846924 302.699188,251.614487 307.694336,259.681549 
z"/>
<path fill="#3656A1" opacity="1.000000" stroke="none" 
	d="
M358.648621,350.255737 
	C358.651031,349.798157 358.904205,349.403290 359.375427,348.914490 
	C359.362122,349.319855 359.130768,349.819153 358.648621,350.255737 
z"/>
<path fill="#3D519D" opacity="1.000000" stroke="none" 
	d="
M345.728455,323.199158 
	C340.918518,336.429871 331.222992,343.257141 318.884918,342.430756 
	C307.566071,341.672638 298.033356,333.265259 295.795502,321.712494 
	C293.764099,311.225464 297.368622,302.600342 305.797089,296.343536 
	C314.291595,290.037750 323.700012,289.323334 332.985809,294.487213 
	C342.169434,299.594238 346.698395,307.714966 346.387665,318.335754 
	C346.344147,319.824249 346.031281,321.304871 345.728455,323.199158 
z"/>
<path fill="#3D519D" opacity="1.000000" stroke="none" 
	d="
M307.455048,259.396301 
	C302.699188,251.614487 302.938751,244.846924 307.934296,238.814514 
	C312.338928,233.495636 319.655487,231.503418 325.984070,233.899765 
	C332.761047,236.465881 337.416595,243.167633 336.956207,250.143875 
	C336.482819,257.317444 332.644501,262.355530 326.040466,264.900421 
	C318.791168,267.693939 312.703461,265.317749 307.455048,259.396301 
z"/>
</svg>