<svg version="1.1" id="Layer_1" xmlns="http://www.w3.org/2000/svg" xmlns:xlink="http://www.w3.org/1999/xlink" x="0px" y="0px"
	 width="100%" viewBox="0 0 600 600" enable-background="new 0 0 600 600" xml:space="preserve">
<path fill="#000000" opacity="1.000000" stroke="none" 
	d="
M395.000000,601.000000 
	C263.333344,601.000000 132.166672,601.000000 1.000000,601.000000 
	C1.000000,401.000000 1.000000,201.000000 1.000000,1.000000 
	C201.000000,1.000000 401.000000,1.000000 601.000000,1.000000 
	C601.000000,201.000000 601.000000,401.000000 601.000000,601.000000 
	C532.500000,601.000000 464.000000,601.000000 395.000000,601.000000 
M169.655884,401.339630 
	C175.135956,400.255341 177.766495,396.714478 178.007324,391.334045 
	C178.235474,386.236908 176.231537,382.469177 170.417114,380.429199 
	C165.435303,379.251404 161.191177,380.341064 158.293182,384.769226 
	C155.826874,388.537781 155.688904,392.541718 158.094696,396.416718 
	C160.592010,400.439178 164.146088,402.339478 169.655884,401.339630 
M313.704529,146.814209 
	C316.130524,146.462372 318.556549,146.110519 321.668121,145.668015 
	C328.279602,143.088776 332.115204,138.179398 332.839417,131.229416 
	C333.542725,124.480431 331.929779,118.430908 325.153992,114.014557 
	C321.765228,113.064247 318.376495,112.113937 314.172272,111.060791 
	C305.100250,111.874176 298.573730,117.551643 297.283142,125.752777 
	C295.874786,134.702316 300.306458,142.254974 309.555511,146.035919 
	C310.176971,146.032211 310.798431,146.028488 311.787140,146.447433 
	C312.148193,146.506622 312.509247,146.565796 313.704529,146.814209 
M399.497650,460.591614 
	C396.662170,459.784607 393.826691,458.977570 390.181854,458.058899 
	C386.873413,458.897491 383.249878,459.141937 380.320709,460.695587 
	C373.781311,464.164124 370.789581,471.644897 372.042816,479.490021 
	C373.207001,486.777893 378.296570,492.014771 386.722351,494.116150 
	C389.801636,493.868744 392.880951,493.621307 396.609741,493.295563 
	C403.952881,490.278900 407.949127,484.693787 408.269348,476.881409 
	C408.542450,470.219452 406.329498,464.486511 399.497650,460.591614 
M321.105011,151.455109 
	C314.290161,151.549118 307.475342,151.643127 300.299347,151.620789 
	C300.024445,151.614990 299.792969,151.712540 298.762756,151.764542 
	C292.118439,152.877441 285.474152,153.990356 278.259277,155.038483 
	C277.892609,155.139328 277.525909,155.240158 276.561584,155.398285 
	C275.033813,155.904358 273.506012,156.410431 271.201019,156.945267 
	C254.217865,161.900558 238.643356,169.574554 224.338943,181.152588 
	C214.584488,190.698639 204.830032,200.244705 194.658203,210.199203 
	C184.908859,203.237274 173.360001,200.013702 160.595016,203.544662 
	C147.653107,207.124542 138.754974,215.340149 134.210480,227.955460 
	C130.543716,238.134201 131.044586,248.322998 135.887100,258.028046 
	C142.998505,272.280273 155.214035,278.922028 170.722855,280.029510 
	C170.722855,281.837494 170.776062,283.147644 170.715027,284.452454 
	C169.398376,312.601776 175.168045,338.976044 190.078125,363.162720 
	C192.117722,366.471252 194.522552,369.999634 189.855331,373.927795 
	C187.456161,375.947021 186.320801,379.658813 185.039398,382.780273 
	C180.750534,393.227844 183.883499,404.060822 193.410065,411.529785 
	C202.301926,418.136749 212.535446,419.664398 221.275452,413.492340 
	C228.375885,408.478058 233.506866,407.786987 240.316742,413.609222 
	C245.604446,416.303162 250.737885,419.378662 256.218811,421.594757 
	C263.127686,424.388306 270.336945,426.432953 277.375214,428.917969 
	C278.650085,429.368103 280.632263,430.271118 280.740936,431.155212 
	C281.296722,435.677582 281.137268,440.285126 281.633606,444.818451 
	C282.082092,448.914825 283.053558,452.954010 283.891876,457.751740 
	C289.119690,470.010895 297.833771,478.647552 311.017303,483.750610 
	C329.174072,489.799774 345.683960,487.364044 360.724670,473.920380 
	C370.115509,465.797241 374.403168,455.012207 376.223694,443.273682 
	C382.484070,444.838928 388.198486,446.854095 394.071411,447.571350 
	C399.960449,448.290558 406.007660,447.714996 412.783936,447.770630 
	C422.486664,446.439087 431.600189,443.339447 439.792999,437.984589 
	C476.766602,413.818542 482.031525,363.957886 450.834442,332.612579 
	C448.193237,329.958832 447.686493,327.758179 448.503754,324.325409 
	C452.594940,307.141388 453.335297,289.743042 450.877350,272.262604 
	C448.874573,258.019440 445.270599,244.222046 438.222717,230.798523 
	C436.210480,226.976135 434.372803,223.046997 432.124481,219.368927 
	C430.630524,216.925018 430.862823,215.383560 432.927948,213.378723 
	C447.610352,199.125259 453.544891,181.681442 451.918945,161.367767 
	C449.843201,135.434570 427.507935,111.123718 401.165833,107.130096 
	C385.332703,104.477592 370.461243,106.725662 356.255951,115.987938 
	C345.499390,123.105934 336.996674,132.279419 332.737518,144.536530 
	C330.747681,150.262924 328.285339,153.332291 321.105011,151.455109 
z"/>
<path fill="#5E3A89" opacity="1.000000" stroke="none" 
	d="
M401.997681,107.375237 
	C427.507935,111.123718 449.843201,135.434570 451.918945,161.367767 
	C453.544891,181.681442 447.610352,199.125259 432.927948,213.378723 
	C430.862823,215.383560 430.630524,216.925018 432.124481,219.368927 
	C434.372803,223.046997 436.210480,226.976135 438.065918,231.462555 
	C437.486115,233.020691 436.765808,233.889404 436.686920,234.812927 
	C436.047150,242.301376 435.751434,249.826355 434.877411,257.284698 
	C434.438721,261.028107 432.426941,264.611237 432.142731,268.344208 
	C431.176178,281.040771 431.192688,293.661957 427.620331,306.248535 
	C424.772186,316.283508 424.132324,327.226593 424.229401,337.750763 
	C424.378052,353.864532 417.423828,369.224487 419.864868,385.467712 
	C419.976532,386.210815 419.464325,387.052277 419.225464,387.842712 
	C418.376373,390.652466 417.204559,393.409027 416.740326,396.280396 
	C416.053101,400.530823 415.857300,404.861359 415.467712,409.159180 
	C414.302979,422.008057 413.145721,434.857635 411.985535,447.706940 
	C406.007660,447.714996 399.960449,448.290558 394.071411,447.571350 
	C388.198486,446.854095 382.484070,444.838928 376.223694,443.273682 
	C374.403168,455.012207 370.115509,465.797241 360.262512,473.721497 
	C359.427216,471.113464 358.564301,468.662720 358.764801,466.302307 
	C359.688629,455.427643 360.878723,444.574921 362.041046,433.721588 
	C362.394531,430.420959 362.916260,427.135712 363.444489,423.856873 
	C365.276245,412.486725 367.431305,401.159485 368.905090,389.743866 
	C370.008453,381.197357 370.023560,372.514404 370.978912,363.943024 
	C371.428467,359.909851 373.413208,356.051758 373.896912,352.017761 
	C375.256683,340.676514 376.215973,329.286774 377.298615,317.912872 
	C377.974854,310.808167 377.268982,303.226959 379.589844,296.717651 
	C382.066864,289.770477 381.660675,283.060638 382.033356,276.173920 
	C382.130524,274.378357 382.543549,272.591492 382.908539,270.820618 
	C383.567017,267.625885 384.648193,264.476501 384.927734,261.253937 
	C385.530334,254.307465 385.664307,247.321762 386.127808,240.361298 
	C386.502197,234.738861 386.656525,229.052551 387.667847,223.533737 
	C389.049713,215.992706 391.663452,208.660263 392.795746,201.095688 
	C393.847931,194.066483 393.589386,186.846481 394.019196,179.717163 
	C394.418610,173.092575 394.778564,166.456192 395.508270,159.863998 
	C396.045593,155.009872 397.214111,150.228638 397.980042,145.395691 
	C398.473602,142.281357 398.789581,139.136520 399.112305,135.997879 
	C400.093109,126.458946 401.038513,116.916389 401.997681,107.375237 
z"/>
<path fill="#64398A" opacity="1.000000" stroke="none" 
	d="
M401.581757,107.252670 
	C401.038513,116.916389 400.093109,126.458946 399.112305,135.997879 
	C398.789581,139.136520 398.473602,142.281357 397.980042,145.395691 
	C397.214111,150.228638 396.045593,155.009872 395.508270,159.863998 
	C394.778564,166.456192 394.418610,173.092575 394.019196,179.717163 
	C393.589386,186.846481 393.847931,194.066483 392.795746,201.095688 
	C391.663452,208.660263 389.049713,215.992706 387.667847,223.533737 
	C386.656525,229.052551 386.502197,234.738861 386.127808,240.361298 
	C385.664307,247.321762 385.530334,254.307465 384.927734,261.253937 
	C384.648193,264.476501 383.567017,267.625885 382.908539,270.820618 
	C382.543549,272.591492 382.130524,274.378357 382.033356,276.173920 
	C381.660675,283.060638 382.066864,289.770477 379.589844,296.717651 
	C377.268982,303.226959 377.974854,310.808167 377.298615,317.912872 
	C376.215973,329.286774 375.256683,340.676514 373.896912,352.017761 
	C373.413208,356.051758 371.428467,359.909851 370.978912,363.943024 
	C370.023560,372.514404 370.008453,381.197357 368.905090,389.743866 
	C367.431305,401.159485 365.276245,412.486725 363.444489,423.856873 
	C362.916260,427.135712 362.394531,430.420959 362.041046,433.721588 
	C360.878723,444.574921 359.688629,455.427643 358.764801,466.302307 
	C358.564301,468.662720 359.427216,471.113464 359.957947,473.871674 
	C345.683960,487.364044 329.174072,489.799774 311.146881,483.455841 
	C313.987122,481.734467 317.341370,480.849335 319.167633,478.678619 
	C320.267426,477.371460 319.509583,472.179077 318.696198,471.954315 
	C312.540253,470.253174 315.312988,466.254181 315.861176,462.861115 
	C316.491333,458.960968 317.741272,455.105469 317.903015,451.196686 
	C318.233154,443.218964 317.887421,435.214478 318.143097,427.231323 
	C318.187317,425.849518 319.683136,423.570679 320.757233,423.414276 
	C321.982941,423.235748 323.587494,424.851807 324.828552,425.919189 
	C325.466675,426.468048 325.672516,427.519562 326.073700,428.343903 
	C326.571014,428.303223 327.068329,428.262543 327.565643,428.221863 
	C327.565643,421.661591 327.572723,415.101257 327.538177,408.541138 
	C327.536896,408.295013 327.169739,407.891235 326.909332,407.829346 
	C320.127045,406.217377 323.420227,401.809662 324.200409,398.111511 
	C324.780701,395.360870 325.847656,392.625122 325.901154,389.867279 
	C326.072144,381.050659 326.056335,372.219696 325.715363,363.409668 
	C325.595734,360.319427 326.490326,359.357269 329.408630,358.917877 
	C331.590210,358.589447 335.257141,357.475372 335.424988,356.304352 
	C336.080963,351.728027 337.397461,346.714172 333.813141,341.763214 
	C332.419708,343.804138 331.492645,345.161957 330.115631,347.178772 
	C329.438446,344.855072 328.999664,343.349457 328.681946,341.502075 
	C331.120667,336.752228 333.435883,332.342834 335.756592,327.936340 
	C343.694214,312.864441 351.834625,297.894836 359.501495,282.686493 
	C364.553375,272.665405 365.265228,261.669159 362.924988,250.963867 
	C360.368256,239.268204 354.003540,229.358917 345.185852,221.367828 
	C346.712311,220.933838 347.879242,220.576660 349.045746,220.219635 
	C347.263458,218.203598 344.697021,216.640533 344.514160,214.835938 
	C344.017609,209.935410 344.266754,204.908264 344.720001,199.977234 
	C345.153442,195.261169 346.547943,190.628510 346.911469,185.912277 
	C347.306915,180.782486 346.986725,175.598602 347.005188,170.438400 
	C347.024658,165.007111 346.037079,159.301575 351.207764,155.261063 
	C351.643158,154.920822 351.872345,154.040634 351.845642,153.426605 
	C351.461151,144.595367 352.560455,135.975342 354.926056,127.447929 
	C355.973022,123.673851 356.285553,119.696045 356.931519,115.810730 
	C370.461243,106.725662 385.332703,104.477592 401.581757,107.252670 
z"/>
<path fill="#743988" opacity="1.000000" stroke="none" 
	d="
M239.844513,413.086975 
	C233.506866,407.786987 228.375885,408.478058 221.275452,413.492340 
	C212.535446,419.664398 202.301926,418.136749 193.206848,410.834290 
	C194.070648,402.928772 195.423935,395.745850 196.110580,388.499756 
	C196.623337,383.088501 195.845581,377.551300 196.404312,372.148956 
	C197.419495,362.333252 198.993027,352.575073 200.362030,342.796844 
	C200.476395,341.980011 200.903473,341.207428 201.021286,340.390625 
	C202.365952,331.067627 203.861069,321.760773 204.925797,312.405212 
	C205.488083,307.464630 204.713120,302.338837 205.547836,297.469086 
	C207.275528,287.389557 210.056610,277.487701 211.710297,267.398987 
	C214.201202,252.202591 211.780075,236.529800 215.935944,221.433365 
	C216.893753,217.954041 217.130569,214.263412 217.554855,210.653076 
	C218.163773,205.471664 218.404739,200.234985 219.270493,195.100769 
	C219.717804,192.448059 221.146622,189.954315 222.182693,187.409393 
	C223.071823,185.225403 224.033096,183.070786 224.962463,180.903183 
	C238.643356,169.574554 254.217865,161.900558 271.686340,157.290741 
	C274.086456,160.759155 276.212585,163.778397 277.819031,167.052658 
	C278.528351,168.498428 278.474518,170.498199 278.261993,172.182739 
	C277.644958,177.074265 276.557922,181.911057 276.044250,186.810104 
	C274.948975,197.255676 278.825378,208.338120 271.984589,218.031601 
	C271.154236,219.208191 270.159271,220.268600 269.240631,221.382874 
	C268.542633,220.001404 267.488525,218.676331 267.258087,217.220840 
	C267.070068,216.033173 268.097900,214.705597 268.186646,213.412598 
	C268.597046,207.435165 268.867676,201.448166 269.188385,195.464584 
	C268.467072,195.430481 267.745758,195.396393 267.024414,195.362305 
	C268.615295,204.883789 263.064911,213.679993 265.387177,223.406952 
	C266.034698,226.119278 265.203827,229.546555 264.066589,232.228302 
	C262.747040,235.339859 264.325562,235.682373 266.343658,236.520416 
	C265.156281,239.297043 263.954407,241.678040 263.040955,244.165024 
	C258.158752,257.457336 259.345520,270.591583 263.839539,283.666992 
	C261.470184,283.045319 259.493988,282.358734 256.131714,281.190521 
	C257.614838,285.683899 258.005585,290.311584 260.443146,293.229370 
	C262.632721,295.850311 263.222900,297.748260 262.397247,300.657684 
	C261.858490,302.556183 261.129456,304.476532 261.037781,306.413177 
	C260.589783,315.878113 260.813324,325.404144 259.802155,334.801270 
	C259.266113,339.782928 256.749786,344.564514 254.980057,349.382294 
	C254.780899,349.924500 253.636230,350.149933 252.903854,350.460510 
	C249.493118,351.906799 248.874649,354.797821 252.053116,356.498718 
	C255.470520,358.327484 255.066193,360.824860 254.705933,363.672974 
	C253.794434,370.878876 252.665680,378.067993 252.079697,385.300781 
	C251.663971,390.432190 252.281494,395.649567 251.826630,400.774323 
	C251.669754,402.541718 249.667191,404.145294 248.507751,405.823730 
	C247.342712,404.323120 246.041656,402.904572 245.067352,401.288940 
	C244.543594,400.420410 244.580566,399.213745 244.364517,398.159637 
	C242.791290,399.761536 242.381256,401.513794 241.992935,403.270844 
	C241.270111,406.541412 240.559952,409.814789 239.844513,413.086975 
z"/>
<path fill="#793787" opacity="1.000000" stroke="none" 
	d="
M224.650696,181.027893 
	C224.033096,183.070786 223.071823,185.225403 222.182693,187.409393 
	C221.146622,189.954315 219.717804,192.448059 219.270493,195.100769 
	C218.404739,200.234985 218.163773,205.471664 217.554855,210.653076 
	C217.130569,214.263412 216.893753,217.954041 215.935944,221.433365 
	C211.780075,236.529800 214.201202,252.202591 211.710297,267.398987 
	C210.056610,277.487701 207.275528,287.389557 205.547836,297.469086 
	C204.713120,302.338837 205.488083,307.464630 204.925797,312.405212 
	C203.861069,321.760773 202.365952,331.067627 201.021286,340.390625 
	C200.903473,341.207428 200.476395,341.980011 200.362030,342.796844 
	C198.993027,352.575073 197.419495,362.333252 196.404312,372.148956 
	C195.845581,377.551300 196.623337,383.088501 196.110580,388.499756 
	C195.423935,395.745850 194.070648,402.928772 192.996307,410.563873 
	C183.883499,404.060822 180.750534,393.227844 185.039398,382.780273 
	C186.320801,379.658813 187.456161,375.947021 189.855331,373.927795 
	C194.522552,369.999634 192.117722,366.471252 190.078125,363.162720 
	C175.168045,338.976044 169.398376,312.601776 170.715027,284.452454 
	C170.776062,283.147644 170.722855,281.837494 170.722855,280.029510 
	C155.214035,278.922028 142.998505,272.280273 135.887100,258.028046 
	C131.044586,248.322998 130.543716,238.134201 134.210480,227.955460 
	C138.754974,215.340149 147.653107,207.124542 160.595016,203.544662 
	C173.360001,200.013702 184.908859,203.237274 194.658203,210.199203 
	C204.830032,200.244705 214.584488,190.698639 224.650696,181.027893 
z"/>
<path fill="#553B8A" opacity="1.000000" stroke="none" 
	d="
M412.384735,447.738770 
	C413.145721,434.857635 414.302979,422.008057 415.467712,409.159180 
	C415.857300,404.861359 416.053101,400.530823 416.740326,396.280396 
	C417.204559,393.409027 418.376373,390.652466 419.225464,387.842712 
	C419.464325,387.052277 419.976532,386.210815 419.864868,385.467712 
	C417.423828,369.224487 424.378052,353.864532 424.229401,337.750763 
	C424.132324,327.226593 424.772186,316.283508 427.620331,306.248535 
	C431.192688,293.661957 431.176178,281.040771 432.142731,268.344208 
	C432.426941,264.611237 434.438721,261.028107 434.877411,257.284698 
	C435.751434,249.826355 436.047150,242.301376 436.686920,234.812927 
	C436.765808,233.889404 437.486115,233.020691 438.094849,231.811386 
	C445.270599,244.222046 448.874573,258.019440 450.877350,272.262604 
	C453.335297,289.743042 452.594940,307.141388 448.503754,324.325409 
	C447.686493,327.758179 448.193237,329.958832 450.834442,332.612579 
	C482.031525,363.957886 476.766602,413.818542 439.792999,437.984589 
	C431.600189,443.339447 422.486664,446.439087 412.384735,447.738770 
z"/>
<path fill="#6E3989" opacity="1.000000" stroke="none" 
	d="
M240.080627,413.348083 
	C240.559952,409.814789 241.270111,406.541412 241.992935,403.270844 
	C242.381256,401.513794 242.791290,399.761536 244.364517,398.159637 
	C244.580566,399.213745 244.543594,400.420410 245.067352,401.288940 
	C246.041656,402.904572 247.342712,404.323120 248.507751,405.823730 
	C249.667191,404.145294 251.669754,402.541718 251.826630,400.774323 
	C252.281494,395.649567 251.663971,390.432190 252.079697,385.300781 
	C252.665680,378.067993 253.794434,370.878876 254.705933,363.672974 
	C255.066193,360.824860 255.470520,358.327484 252.053116,356.498718 
	C248.874649,354.797821 249.493118,351.906799 252.903854,350.460510 
	C253.636230,350.149933 254.780899,349.924500 254.980057,349.382294 
	C256.749786,344.564514 259.266113,339.782928 259.802155,334.801270 
	C260.813324,325.404144 260.589783,315.878113 261.037781,306.413177 
	C261.129456,304.476532 261.858490,302.556183 262.397247,300.657684 
	C263.222900,297.748260 262.632721,295.850311 260.443146,293.229370 
	C258.005585,290.311584 257.614838,285.683899 256.131714,281.190521 
	C259.493988,282.358734 261.470184,283.045319 263.836304,283.681519 
	C264.226257,283.631073 264.196960,283.631104 264.290222,283.873596 
	C264.564941,284.408875 264.746399,284.701630 265.037628,285.087158 
	C265.147430,285.179932 265.099091,285.463318 265.212067,285.731262 
	C265.526031,286.328491 265.727020,286.657776 266.172302,287.236237 
	C276.900940,306.947144 294.424561,313.696869 315.810181,314.310303 
	C309.702606,325.651276 303.765656,336.570862 297.933624,347.546204 
	C294.701691,353.628418 295.402374,358.268036 299.674805,363.585327 
	C295.687744,367.176056 294.723816,379.123627 297.791809,382.667816 
	C298.110077,383.035522 298.614594,383.243408 298.927155,383.614380 
	C299.763428,384.606934 300.542267,385.647858 301.343933,386.669556 
	C300.002075,387.113434 298.655273,387.947784 297.319214,387.930847 
	C292.530060,387.870148 290.905609,390.305939 290.968964,394.778717 
	C291.091187,403.405640 291.029083,412.035706 290.980530,420.664124 
	C290.968475,422.808319 290.843597,424.968842 290.549255,427.091187 
	C289.763794,432.755493 288.793854,438.394470 288.025452,444.060883 
	C287.604034,447.168488 287.743683,450.382782 287.027618,453.406219 
	C286.700348,454.788025 284.917267,455.825043 283.794434,457.018433 
	C283.053558,452.954010 282.082092,448.914825 281.633606,444.818451 
	C281.137268,440.285126 281.296722,435.677582 280.740936,431.155212 
	C280.632263,430.271118 278.650085,429.368103 277.375214,428.917969 
	C270.336945,426.432953 263.127686,424.388306 256.218811,421.594757 
	C250.737885,419.378662 245.604446,416.303162 240.080627,413.348083 
M283.227875,425.285950 
	C282.849762,425.494659 282.471619,425.703339 282.093506,425.912018 
	C282.416107,426.175690 282.738708,426.439331 283.061310,426.703003 
	C283.257874,426.282898 283.454437,425.862762 283.227875,425.285950 
z"/>
<path fill="#693989" opacity="1.000000" stroke="none" 
	d="
M283.843170,457.385071 
	C284.917267,455.825043 286.700348,454.788025 287.027618,453.406219 
	C287.743683,450.382782 287.604034,447.168488 288.025452,444.060883 
	C288.793854,438.394470 289.763794,432.755493 290.549255,427.091187 
	C290.843597,424.968842 290.968475,422.808319 290.980530,420.664124 
	C291.029083,412.035706 291.091187,403.405640 290.968964,394.778717 
	C290.905609,390.305939 292.530060,387.870148 297.319214,387.930847 
	C298.655273,387.947784 300.002075,387.113434 301.343933,386.669556 
	C300.542267,385.647858 299.763428,384.606934 298.927155,383.614380 
	C298.614594,383.243408 298.110077,383.035522 297.791809,382.667816 
	C294.723816,379.123627 295.687744,367.176056 299.988525,363.722931 
	C308.926361,368.093323 315.292847,366.254242 319.801941,358.044861 
	C322.757355,352.664154 325.643646,347.245514 328.560913,341.843842 
	C328.999664,343.349457 329.438446,344.855072 330.115631,347.178772 
	C331.492645,345.161957 332.419708,343.804138 333.813141,341.763214 
	C337.397461,346.714172 336.080963,351.728027 335.424988,356.304352 
	C335.257141,357.475372 331.590210,358.589447 329.408630,358.917877 
	C326.490326,359.357269 325.595734,360.319427 325.715363,363.409668 
	C326.056335,372.219696 326.072144,381.050659 325.901154,389.867279 
	C325.847656,392.625122 324.780701,395.360870 324.200409,398.111511 
	C323.420227,401.809662 320.127045,406.217377 326.909332,407.829346 
	C327.169739,407.891235 327.536896,408.295013 327.538177,408.541138 
	C327.572723,415.101257 327.565643,421.661591 327.565643,428.221863 
	C327.068329,428.262543 326.571014,428.303223 326.073700,428.343903 
	C325.672516,427.519562 325.466675,426.468048 324.828552,425.919189 
	C323.587494,424.851807 321.982941,423.235748 320.757233,423.414276 
	C319.683136,423.570679 318.187317,425.849518 318.143097,427.231323 
	C317.887421,435.214478 318.233154,443.218964 317.903015,451.196686 
	C317.741272,455.105469 316.491333,458.960968 315.861176,462.861115 
	C315.312988,466.254181 312.540253,470.253174 318.696198,471.954315 
	C319.509583,472.179077 320.267426,477.371460 319.167633,478.678619 
	C317.341370,480.849335 313.987122,481.734467 310.842834,483.216522 
	C297.833771,478.647552 289.119690,470.010895 283.843170,457.385071 
z"/>
<path fill="#6E3989" opacity="1.000000" stroke="none" 
	d="
M266.462250,236.173706 
	C264.325562,235.682373 262.747040,235.339859 264.066589,232.228302 
	C265.203827,229.546555 266.034698,226.119278 265.387177,223.406952 
	C263.064911,213.679993 268.615295,204.883789 267.024414,195.362305 
	C267.745758,195.396393 268.467072,195.430481 269.188385,195.464584 
	C268.867676,201.448166 268.597046,207.435165 268.186646,213.412598 
	C268.097900,214.705597 267.070068,216.033173 267.258087,217.220840 
	C267.488525,218.676331 268.542633,220.001404 269.240631,221.382874 
	C270.159271,220.268600 271.154236,219.208191 271.984589,218.031601 
	C278.825378,208.338120 274.948975,197.255676 276.044250,186.810104 
	C276.557922,181.911057 277.644958,177.074265 278.261993,172.182739 
	C278.474518,170.498199 278.528351,168.498428 277.819031,167.052658 
	C276.212585,163.778397 274.086456,160.759155 272.074951,157.276367 
	C273.506012,156.410431 275.033813,155.904358 276.904968,155.645599 
	C277.553558,156.168976 277.858734,156.445023 278.163940,156.721069 
	C278.385895,156.181793 278.607849,155.642517 278.829834,155.103256 
	C285.474152,153.990356 292.118439,152.877441 299.365295,151.819489 
	C300.201050,151.840393 300.431946,151.794617 300.660492,151.737122 
	C307.475342,151.643127 314.290161,151.549118 321.682434,151.869507 
	C322.608002,153.818359 323.598389,155.548691 323.199890,156.855438 
	C320.629242,165.284912 319.377899,173.810974 319.914215,182.638519 
	C320.025726,184.473801 319.660004,187.387421 318.503357,188.056427 
	C314.827972,190.182281 314.576813,193.344894 315.079224,196.648651 
	C315.763153,201.146408 317.001526,205.559875 317.540131,210.068314 
	C295.122131,208.929642 278.124756,217.368103 266.462250,236.173706 
z"/>
<path fill="#693989" opacity="1.000000" stroke="none" 
	d="
M318.002167,210.009476 
	C317.001526,205.559875 315.763153,201.146408 315.079224,196.648651 
	C314.576813,193.344894 314.827972,190.182281 318.503357,188.056427 
	C319.660004,187.387421 320.025726,184.473801 319.914215,182.638519 
	C319.377899,173.810974 320.629242,165.284912 323.199890,156.855438 
	C323.598389,155.548691 322.608002,153.818359 322.132538,152.008438 
	C328.285339,153.332291 330.747681,150.262924 332.737518,144.536530 
	C336.996674,132.279419 345.499390,123.105934 356.593750,115.899338 
	C356.285553,119.696045 355.973022,123.673851 354.926056,127.447929 
	C352.560455,135.975342 351.461151,144.595367 351.845642,153.426605 
	C351.872345,154.040634 351.643158,154.920822 351.207764,155.261063 
	C346.037079,159.301575 347.024658,165.007111 347.005188,170.438400 
	C346.986725,175.598602 347.306915,180.782486 346.911469,185.912277 
	C346.547943,190.628510 345.153442,195.261169 344.720001,199.977234 
	C344.266754,204.908264 344.017609,209.935410 344.514160,214.835938 
	C344.697021,216.640533 347.263458,218.203598 349.045746,220.219635 
	C347.879242,220.576660 346.712311,220.933838 345.185303,221.337982 
	C344.825226,221.384933 344.875977,221.416290 344.688721,221.177032 
	C343.993103,220.630707 343.484802,220.323639 342.987518,220.006897 
	C342.998566,219.997238 342.987732,220.023270 342.803741,219.847977 
	C342.346069,219.473602 342.072388,219.274536 341.465729,218.993896 
	C333.422546,215.944702 325.712372,212.977081 318.002167,210.009476 
z"/>
<path fill="#743988" opacity="1.000000" stroke="none" 
	d="
M385.995697,493.846741 
	C378.296570,492.014771 373.207001,486.777893 372.042816,479.490021 
	C370.789581,471.644897 373.781311,464.164124 380.320709,460.695587 
	C383.249878,459.141937 386.873413,458.897491 390.468201,458.414062 
	C390.413849,460.171387 389.933014,461.556030 389.754944,462.978577 
	C388.467499,473.263641 387.241302,483.556427 385.995697,493.846741 
z"/>
<path fill="#743988" opacity="1.000000" stroke="none" 
	d="
M309.000793,145.722397 
	C300.306458,142.254974 295.874786,134.702316 297.283142,125.752777 
	C298.573730,117.551643 305.100250,111.874176 314.571899,111.485275 
	C314.821503,113.875641 314.855957,115.876572 314.490143,117.801445 
	C312.719330,127.119637 310.841003,136.417404 309.000793,145.722397 
z"/>
<path fill="#693989" opacity="1.000000" stroke="none" 
	d="
M386.359009,493.981445 
	C387.241302,483.556427 388.467499,473.263641 389.754944,462.978577 
	C389.933014,461.556030 390.413849,460.171387 390.872864,458.469849 
	C393.826691,458.977570 396.662170,459.784607 399.810242,461.204590 
	C400.197510,462.950104 400.478638,464.113525 400.314514,465.210327 
	C398.908783,474.605011 397.422485,483.987640 395.960236,493.373871 
	C392.880951,493.621307 389.801636,493.868744 386.359009,493.981445 
z"/>
<path fill="#693989" opacity="1.000000" stroke="none" 
	d="
M309.278137,145.879150 
	C310.841003,136.417404 312.719330,127.119637 314.490143,117.801445 
	C314.855957,115.876572 314.821503,113.875641 314.979614,111.536697 
	C318.376495,112.113937 321.765228,113.064247 325.100403,114.626923 
	C323.692047,125.412415 322.337311,135.585556 320.982544,145.758682 
	C318.556549,146.110519 316.130524,146.462372 313.050385,146.609680 
	C312.070801,146.278351 311.745331,146.151550 311.419891,146.024765 
	C310.798431,146.028488 310.176971,146.032211 309.278137,145.879150 
z"/>
<path fill="#6E3989" opacity="1.000000" stroke="none" 
	d="
M168.969894,401.271393 
	C164.146088,402.339478 160.592010,400.439178 158.094696,396.416718 
	C155.688904,392.541718 155.826874,388.537781 158.293182,384.769226 
	C161.191177,380.341064 165.435303,379.251404 170.730103,381.104095 
	C170.352020,388.276459 169.660965,394.773926 168.969894,401.271393 
z"/>
<path fill="#5E3A89" opacity="1.000000" stroke="none" 
	d="
M321.325348,145.713348 
	C322.337311,135.585556 323.692047,125.412415 325.327606,114.912094 
	C331.929779,118.430908 333.542725,124.480431 332.839417,131.229416 
	C332.115204,138.179398 328.279602,143.088776 321.325348,145.713348 
z"/>
<path fill="#553B8A" opacity="1.000000" stroke="none" 
	d="
M396.284973,493.334717 
	C397.422485,483.987640 398.908783,474.605011 400.314514,465.210327 
	C400.478638,464.113525 400.197510,462.950104 400.047852,461.473816 
	C406.329498,464.486511 408.542450,470.219452 408.269348,476.881409 
	C407.949127,484.693787 403.952881,490.278900 396.284973,493.334717 
z"/>
<path fill="#5E3A89" opacity="1.000000" stroke="none" 
	d="
M169.312897,401.305511 
	C169.660965,394.773926 170.352020,388.276459 171.062012,381.317230 
	C176.231537,382.469177 178.235474,386.236908 178.007324,391.334045 
	C177.766495,396.714478 175.135956,400.255341 169.312897,401.305511 
z"/>
<path fill="#743988" opacity="1.000000" stroke="none" 
	d="
M278.544556,155.070862 
	C278.607849,155.642517 278.385895,156.181793 278.163940,156.721069 
	C277.858734,156.445023 277.553558,156.168976 277.203796,155.616959 
	C277.525909,155.240158 277.892609,155.139328 278.544556,155.070862 
z"/>
<path fill="#743988" opacity="1.000000" stroke="none" 
	d="
M311.603516,146.236099 
	C311.745331,146.151550 312.070801,146.278351 312.633270,146.515060 
	C312.509247,146.565796 312.148193,146.506622 311.603516,146.236099 
z"/>
<path fill="#693989" opacity="1.000000" stroke="none" 
	d="
M300.479919,151.678955 
	C300.431946,151.794617 300.201050,151.840393 299.786377,151.893936 
	C299.792969,151.712540 300.024445,151.614990 300.479919,151.678955 
z"/>
<path fill="#FDFCFD" opacity="1.000000" stroke="none" 
	d="
M317.540131,210.068314 
	C325.712372,212.977081 333.422546,215.944702 341.577332,219.243912 
	C342.343842,219.724762 342.665802,219.874008 342.987732,220.023270 
	C342.987732,220.023270 342.998566,219.997238 343.140564,220.268967 
	C343.813690,220.832565 344.344849,221.124420 344.875977,221.416290 
	C344.875977,221.416290 344.825226,221.384933 344.825745,221.414795 
	C354.003540,229.358917 360.368256,239.268204 362.924988,250.963867 
	C365.265228,261.669159 364.553375,272.665405 359.501495,282.686493 
	C351.834625,297.894836 343.694214,312.864441 335.756592,327.936340 
	C333.435883,332.342834 331.120667,336.752228 328.681946,341.502075 
	C325.643646,347.245514 322.757355,352.664154 319.801941,358.044861 
	C315.292847,366.254242 308.926361,368.093323 300.368164,363.487732 
	C295.402374,358.268036 294.701691,353.628418 297.933624,347.546204 
	C303.765656,336.570862 309.702606,325.651276 315.810181,314.310303 
	C294.424561,313.696869 276.900940,306.947144 266.154633,286.927673 
	C265.628143,286.067749 265.363617,285.765533 265.099091,285.463318 
	C265.099091,285.463318 265.147430,285.179932 265.032837,284.807007 
	C264.677795,284.166443 264.437378,283.898773 264.196960,283.631104 
	C264.196960,283.631104 264.226257,283.631073 264.229492,283.616547 
	C259.345520,270.591583 258.158752,257.457336 263.040955,244.165024 
	C263.954407,241.678040 265.156281,239.297043 266.343658,236.520416 
	C278.124756,217.368103 295.122131,208.929642 317.540131,210.068314 
M312.438965,233.000824 
	C300.352600,233.262939 291.299835,238.668304 286.168488,249.594849 
	C281.309479,259.941498 282.628235,270.079834 289.489532,279.193359 
	C297.300446,289.568207 311.669434,293.087952 323.592621,287.913422 
	C335.427490,282.777222 342.764374,269.780792 340.714386,257.584167 
	C338.366943,243.617569 327.935028,234.253403 312.438965,233.000824 
z"/>
<path fill="#693989" opacity="1.000000" stroke="none" 
	d="
M283.439423,425.364319 
	C283.454437,425.862762 283.257874,426.282898 283.061310,426.703003 
	C282.738708,426.439331 282.416107,426.175690 282.093506,425.912048 
	C282.471619,425.703339 282.849762,425.494659 283.439423,425.364319 
z"/>
<path fill="#743988" opacity="1.000000" stroke="none" 
	d="
M264.290222,283.873596 
	C264.437378,283.898773 264.677795,284.166443 264.923035,284.714264 
	C264.746399,284.701630 264.564941,284.408875 264.290222,283.873596 
z"/>
<path fill="#743988" opacity="1.000000" stroke="none" 
	d="
M265.212067,285.731262 
	C265.363617,285.765533 265.628143,286.067749 265.910339,286.678528 
	C265.727020,286.657776 265.526031,286.328491 265.212067,285.731262 
z"/>
<path fill="#64398A" opacity="1.000000" stroke="none" 
	d="
M344.688721,221.177032 
	C344.344849,221.124420 343.813690,220.832565 343.129517,220.278625 
	C343.484802,220.323639 343.993103,220.630707 344.688721,221.177032 
z"/>
<path fill="#64398A" opacity="1.000000" stroke="none" 
	d="
M342.803741,219.847977 
	C342.665802,219.874008 342.343842,219.724762 341.910309,219.325485 
	C342.072388,219.274536 342.346069,219.473602 342.803741,219.847977 
z"/>
<path fill="#6C3A8A" opacity="1.000000" stroke="none" 
	d="
M312.881836,232.999420 
	C327.935028,234.253403 338.366943,243.617569 340.714386,257.584167 
	C342.764374,269.780792 335.427490,282.777222 323.592621,287.913422 
	C311.669434,293.087952 297.300446,289.568207 289.489532,279.193359 
	C282.628235,270.079834 281.309479,259.941498 286.168488,249.594849 
	C291.299835,238.668304 300.352600,233.262939 312.881836,232.999420 
z"/>
</svg>