<?xml version="1.0" standalone="no"?><!DOCTYPE svg PUBLIC "-//W3C//DTD SVG 1.1//EN" "http://www.w3.org/Graphics/SVG/1.1/DTD/svg11.dtd"><svg t="1727404991035" class="icon" viewBox="0 0 1024 1024" version="1.1" xmlns="http://www.w3.org/2000/svg" p-id="4239" xmlns:xlink="http://www.w3.org/1999/xlink" width="16" height="16"><path d="M512 896a384 384 0 1 0 0-768 384 384 0 0 0 0 768z" fill="#1afa29" fill-opacity=".2" p-id="4240"></path><path d="M512.1024 350.4128c-42.496 0-67.7888 35.072-67.7888 75.264a35.84 35.84 0 0 1-71.68 0c0-65.8432 44.8-146.944 139.4688-146.944 85.6064 0 139.4688 64.6656 139.4688 139.52 0 52.6336-36.352 84.7872-59.8016 105.472l-3.9936 3.584c-27.0336 24.1152-39.8336 38.3488-39.8336 61.184a35.84 35.84 0 1 1-71.68 0c0-57.7024 37.8368-91.4944 62.6688-113.664l1.0752-0.9728c28.8256-25.7536 39.8848-37.376 39.8848-55.6032 0-38.7072-25.088-67.84-67.7888-67.84zM512 751.3088a49.3568 49.3568 0 1 0 0-98.6624 49.3568 49.3568 0 0 0 0 98.7136z" fill="#1afa29" p-id="4241"></path></svg>