<svg version="1.1" id="Layer_1" xmlns="http://www.w3.org/2000/svg" xmlns:xlink="http://www.w3.org/1999/xlink" x="0px" y="0px"
	 width="100%" viewBox="0 0 3000 3000" enable-background="new 0 0 3000 3000" xml:space="preserve">
<path fill="#000000" opacity="1.000000" stroke="none" 
	d="
M1662.000000,3002.000000 
	C1108.000122,3002.000000 555.000183,3002.000000 2.000223,3002.000000 
	C2.000148,2002.000244 2.000148,1002.000549 2.000074,2.000625 
	C1001.999512,2.000417 2001.999023,2.000417 3001.999023,2.000208 
	C3001.999268,1001.999329 3001.999268,2001.998657 3001.999512,3001.999023 
	C2555.666748,3002.000000 2109.333252,3002.000000 1662.000000,3002.000000 
M757.643677,516.683044 
	C756.409241,516.623108 755.174744,516.563110 752.090454,516.321106 
	C736.968445,517.530457 722.426514,514.249084 707.765686,511.149750 
	C693.194885,508.069427 678.388367,508.119812 664.989502,515.541870 
	C652.453491,522.485962 643.040100,532.610474 639.128601,546.987427 
	C638.702576,548.553467 637.919373,550.208496 636.826294,551.377563 
	C627.812927,561.016968 618.806824,570.668945 609.553711,580.076355 
	C603.314636,586.419495 596.474548,592.173096 590.265930,598.543884 
	C579.462524,609.629333 569.108215,621.153748 558.259644,632.193481 
	C541.536133,649.211670 524.557739,665.979370 507.681183,682.847046 
	C494.978058,695.543518 482.220734,708.186157 469.566528,720.931274 
	C449.189575,741.454773 428.940491,762.105469 408.516876,782.582275 
	C394.156433,796.979919 380.546387,811.904907 370.723633,829.944824 
	C368.524658,833.983337 365.485260,837.686035 362.308990,841.048462 
	C351.584686,852.401428 340.648895,863.555359 329.746307,874.738831 
	C322.535919,882.135132 315.261871,889.381226 313.354187,900.281799 
	C312.929291,902.709534 311.087311,905.116455 309.357788,907.049866 
	C301.602203,915.719299 293.655762,924.218018 285.769958,932.770752 
	C280.141968,938.874756 274.287354,944.713440 272.829681,953.566284 
	C272.312378,956.707947 270.555176,959.895874 268.619476,962.511719 
	C258.451996,976.251892 253.700424,991.519104 253.449982,1008.637573 
	C253.328140,1016.965393 256.318878,1022.446289 263.860718,1024.636230 
	C275.333160,1027.967407 283.047821,1036.227295 291.303009,1043.875854 
	C295.211487,1047.497192 298.706146,1051.572266 302.680939,1055.113159 
	C307.851868,1059.719849 312.655334,1064.940674 319.951782,1066.436646 
	C327.760590,1068.037476 333.501648,1072.787476 339.099945,1078.309692 
	C344.455109,1083.591919 350.295807,1089.508667 357.075684,1091.963989 
	C368.130402,1095.967651 376.816071,1102.444580 385.004761,1110.346558 
	C388.556732,1113.774170 392.420593,1118.159424 396.820618,1119.175903 
	C407.878479,1121.730957 415.502960,1128.705566 423.476227,1135.807739 
	C428.378784,1140.174438 433.626678,1145.401001 439.598083,1147.039307 
	C449.519592,1149.761353 456.634430,1155.688965 463.689026,1162.248535 
	C470.274597,1168.372070 476.876953,1174.046143 486.087158,1176.407593 
	C490.626373,1177.571289 494.690247,1181.174438 498.576111,1184.181519 
	C507.156006,1190.821411 513.745361,1200.268066 525.168396,1202.836426 
	C531.562317,1204.273926 536.382996,1207.978394 541.161743,1212.363770 
	C545.457275,1216.305908 550.574585,1220.680298 555.956970,1221.773193 
	C562.636414,1223.129517 568.072327,1225.886597 572.382263,1230.333618 
	C579.316650,1237.488647 587.107971,1242.439331 596.788147,1244.920532 
	C599.775024,1245.686157 602.441711,1248.284546 604.894287,1250.451904 
	C615.992737,1260.259766 626.805725,1270.462402 643.085815,1274.531372 
	C651.539246,1281.787109 658.764954,1290.872437 671.144897,1292.074097 
	C673.519958,1292.304443 675.930176,1294.310303 677.912048,1295.984741 
	C681.444336,1298.969238 684.471375,1302.560913 688.055115,1305.473633 
	C693.836426,1310.172485 698.518127,1317.040649 706.548462,1317.806152 
	C711.560425,1318.283936 715.448975,1319.812134 718.931091,1323.216187 
	C722.968506,1327.163330 726.997192,1331.150024 731.338074,1334.747314 
	C735.397461,1338.111328 739.582031,1343.032104 744.202759,1343.661621 
	C754.353882,1345.044678 760.812561,1351.184448 767.904663,1357.201782 
	C771.195312,1359.993530 775.465820,1361.630371 780.203125,1364.305176 
	C780.642456,1366.810791 781.221436,1371.226562 786.287842,1371.702026 
	C797.223511,1372.728149 803.804932,1380.197876 810.853088,1387.268066 
	C815.733582,1392.163818 820.505981,1397.478271 827.984680,1398.526245 
	C835.630493,1399.597412 841.336975,1404.086670 846.646912,1409.206421 
	C850.484924,1412.906982 854.208618,1416.726562 857.965881,1420.510376 
	C864.106201,1426.694092 870.701111,1431.955078 879.501526,1434.165161 
	C882.867493,1435.010376 886.244751,1437.157104 888.822571,1439.562012 
	C900.453552,1450.412964 911.834473,1461.533569 923.235107,1472.629150 
	C929.416565,1478.645020 935.440674,1484.822266 941.565430,1490.896851 
	C949.907837,1499.171021 960.710083,1505.830444 960.281677,1519.817505 
	C960.254883,1520.692871 960.883179,1521.896240 961.594421,1522.436279 
	C966.306274,1526.014038 965.131836,1531.141235 965.755554,1536.010742 
	C967.526062,1549.834351 960.291565,1561.730469 958.037964,1574.668823 
	C957.682190,1576.711670 955.693542,1578.593506 954.168884,1580.287964 
	C946.847473,1588.424438 938.983215,1596.057129 937.044617,1607.735107 
	C936.563477,1610.633545 933.605835,1613.329468 931.339539,1615.689209 
	C916.135010,1631.519531 900.857483,1647.280762 885.501892,1662.964722 
	C878.463562,1670.153320 871.938232,1677.514160 869.488770,1687.736694 
	C868.830383,1690.484619 866.938904,1693.176025 864.991821,1695.331909 
	C858.762268,1702.229248 851.991638,1708.646851 845.908813,1715.664795 
	C840.749329,1721.617432 834.868469,1727.551758 831.851990,1734.585693 
	C828.791443,1741.722290 825.581665,1748.359619 820.364380,1754.022217 
	C815.404968,1759.404541 810.118835,1764.507812 805.438843,1770.119385 
	C800.934998,1775.519653 795.023743,1780.110474 795.554077,1788.637329 
	C795.727356,1791.424438 793.113098,1794.752686 791.052063,1797.234131 
	C786.808838,1802.343262 781.938416,1806.927124 777.600769,1811.963745 
	C774.807129,1815.207153 770.737793,1818.666992 770.307312,1822.385010 
	C768.993286,1833.733032 761.927429,1840.926392 754.412048,1848.023804 
	C748.297180,1853.798584 742.662720,1860.264404 741.003479,1868.387817 
	C739.410645,1876.185303 734.364441,1880.987305 729.997070,1886.686646 
	C727.469971,1889.984497 725.802795,1893.941284 722.365234,1898.023438 
	C720.216858,1900.364258 717.389771,1902.374146 716.054749,1905.111694 
	C712.801697,1911.782104 710.240417,1918.790039 706.042114,1925.846558 
	C699.836121,1928.757568 696.349854,1934.053101 694.809570,1940.319824 
	C693.073975,1947.381836 689.526245,1952.977295 684.590149,1958.202881 
	C675.933167,1967.367432 667.450378,1976.665283 664.587280,1989.743652 
	C663.887634,1992.939453 660.233826,1995.430542 658.148315,1998.393677 
	C654.570679,2003.477173 649.478577,2008.261353 648.075867,2013.927124 
	C646.040344,2022.149536 642.307617,2028.602661 636.341736,2034.126953 
	C631.317505,2038.779419 627.781494,2044.288452 626.296570,2051.009033 
	C624.956665,2057.073730 621.411072,2061.639648 617.402466,2066.285889 
	C610.545471,2074.233643 601.643372,2080.889893 599.183716,2091.975098 
	C597.762878,2098.378906 594.107300,2103.223877 589.709106,2108.004150 
	C585.756165,2112.301025 581.015015,2117.479004 580.298645,2122.766357 
	C579.253784,2130.478516 575.030762,2135.313477 570.781067,2140.791504 
	C566.556763,2146.237305 561.558838,2151.606445 559.244751,2157.874512 
	C556.516418,2165.264893 553.133850,2171.547607 547.601257,2177.159668 
	C543.756165,2181.059814 538.584961,2186.209473 538.593201,2190.792725 
	C538.608154,2199.053467 533.913086,2203.536865 529.641357,2208.870850 
	C525.096497,2214.546387 519.969238,2219.675293 517.665344,2227.019775 
	C516.016479,2232.275879 513.356689,2237.397217 510.261169,2241.979492 
	C504.054718,2251.167480 503.298492,2258.313477 510.340088,2266.403320 
	C517.737854,2274.902588 525.924194,2282.763672 534.240356,2290.386230 
	C536.728638,2292.666748 540.908447,2293.009277 544.136719,2294.598145 
	C548.523804,2296.757080 553.388733,2298.547363 556.912170,2301.747559 
	C568.242126,2312.037354 579.129211,2322.821533 590.038025,2333.566406 
	C602.359192,2345.702637 614.486694,2358.034912 626.762634,2370.217285 
	C632.928162,2376.335938 639.471130,2381.758301 648.222107,2384.157959 
	C651.529358,2385.064697 654.671875,2387.471436 657.283691,2389.857422 
	C668.036377,2399.680176 678.675720,2409.634277 689.135193,2419.768799 
	C707.277100,2437.347168 725.349060,2455.000488 743.266724,2472.807129 
	C754.535400,2484.005859 765.346497,2495.664795 776.587402,2506.892090 
	C788.047607,2518.338379 799.993591,2529.302002 811.340698,2540.856201 
	C823.644958,2553.384766 836.192444,2565.541260 850.131226,2576.321045 
	C865.896606,2588.513428 881.714294,2600.764404 896.384277,2614.216797 
	C915.948364,2632.156738 934.487549,2651.219238 953.355530,2669.912109 
	C970.641052,2687.036621 987.757629,2704.331299 1005.004333,2721.494873 
	C1007.586609,2724.064697 1010.322144,2726.534424 1013.252441,2728.689209 
	C1019.619385,2733.371338 1020.295715,2733.375244 1026.400513,2729.010498 
	C1029.088867,2727.088379 1031.603149,2724.871094 1033.963379,2722.550537 
	C1041.805176,2714.841309 1049.541748,2707.024902 1057.317505,2699.248535 
	C1071.847412,2684.718018 1086.375854,2670.185791 1100.905273,2655.654541 
	C1110.269531,2646.289062 1119.779785,2637.063477 1128.947998,2627.510010 
	C1134.916992,2621.289795 1140.529297,2614.814941 1142.643311,2605.904785 
	C1143.431030,2602.584229 1145.885010,2599.376709 1148.286377,2596.768799 
	C1160.865234,2583.108887 1173.879395,2569.844971 1186.278198,2556.026855 
	C1190.281372,2551.565186 1192.875122,2545.838867 1196.798706,2539.602051 
	C1205.462036,2535.882080 1212.142334,2528.426514 1216.255981,2518.025146 
	C1218.282471,2512.900879 1221.274780,2507.818848 1224.971313,2503.756104 
	C1237.709839,2489.754883 1251.027710,2476.282471 1263.932617,2462.429443 
	C1266.345825,2459.839111 1268.785400,2456.657227 1269.634155,2453.343994 
	C1271.983887,2444.170898 1277.141357,2437.532959 1284.424561,2431.603027 
	C1291.729492,2425.655518 1299.388550,2419.244629 1298.469116,2409.370117 
	C1311.551392,2404.377197 1321.564087,2398.191895 1324.783813,2383.957275 
	C1325.885620,2379.086670 1329.013306,2374.233154 1332.387817,2370.405518 
	C1340.742676,2360.928955 1350.081421,2352.316650 1358.383545,2342.797607 
	C1361.699463,2338.995605 1363.358154,2333.737793 1365.714600,2329.113525 
	C1367.498169,2325.613037 1368.529785,2321.477539 1371.047363,2318.649902 
	C1378.984131,2309.734863 1387.585327,2301.415039 1395.669922,2292.626221 
	C1398.767212,2289.259033 1402.698486,2285.574463 1403.575684,2281.463867 
	C1405.761963,2271.217773 1411.470215,2263.630371 1418.479370,2256.509033 
	C1428.457520,2246.370850 1439.588989,2237.033203 1442.559692,2221.936523 
	C1442.916870,2220.121338 1444.425659,2218.389648 1445.746582,2216.932617 
	C1451.317017,2210.788818 1456.905029,2204.652588 1462.704224,2198.726562 
	C1468.340210,2192.967529 1473.504517,2187.264160 1474.684814,2178.619873 
	C1475.180542,2174.989990 1477.926025,2171.397949 1480.367310,2168.367676 
	C1483.886108,2164.000000 1488.114502,2160.210449 1491.942261,2156.083740 
	C1499.371216,2148.074707 1507.224243,2140.381836 1509.723511,2129.042480 
	C1510.268799,2126.568359 1511.763062,2124.041504 1513.481934,2122.135498 
	C1519.469849,2115.494629 1526.001221,2109.333252 1531.825562,2102.559326 
	C1535.596191,2098.174072 1539.785645,2094.208008 1540.563843,2087.417725 
	C1541.106567,2082.681396 1544.488159,2077.747314 1547.806763,2073.956543 
	C1555.656128,2064.990234 1564.235718,2056.664062 1572.497192,2048.057129 
	C1576.848633,2043.523438 1582.179688,2039.212402 1581.817871,2032.298950 
	C1581.555542,2027.289185 1584.151978,2023.971313 1586.848145,2020.929199 
	C1594.126709,2012.716919 1601.822510,2004.863159 1609.562256,1997.075195 
	C1613.829102,1992.781982 1618.629028,1991.994141 1622.940308,1995.672729 
	C1628.220215,2000.177856 1634.360229,2002.171509 1640.614502,2004.454102 
	C1643.923584,2005.661865 1647.053589,2007.918945 1649.682251,2010.335571 
	C1661.417725,2021.124756 1672.923096,2032.164062 1684.555542,2043.065918 
	C1688.709229,2046.958740 1693.030884,2050.146729 1699.234497,2050.698486 
	C1702.545532,2050.992920 1706.186768,2053.138916 1708.734009,2055.478027 
	C1719.002441,2064.908447 1728.881714,2074.761230 1738.946777,2084.414551 
	C1745.409912,2090.612793 1751.720581,2096.820312 1761.043457,2099.034668 
	C1764.618042,2099.883545 1767.839722,2102.836426 1770.855469,2105.282715 
	C1776.005005,2109.459717 1780.623413,2114.321777 1785.947388,2118.240967 
	C1788.690674,2120.260254 1792.473022,2120.868164 1796.234863,2123.512695 
	C1796.726074,2125.374756 1796.630859,2127.811035 1797.802124,2129.007324 
	C1806.318237,2137.706787 1814.966431,2146.288574 1823.873047,2154.585205 
	C1825.911255,2156.483887 1829.196777,2156.983154 1831.771729,2158.378174 
	C1837.491211,2161.477051 1843.873169,2163.906494 1848.581665,2168.161865 
	C1853.283203,2172.411133 1857.708130,2176.468506 1863.818359,2179.700195 
	C1871.062622,2193.053467 1883.682373,2201.450439 1893.875000,2212.073730 
	C1896.766846,2215.087646 1900.494263,2218.449219 1904.320801,2219.203613 
	C1916.244629,2221.553711 1923.747070,2230.063965 1931.818237,2237.586182 
	C1944.965210,2249.839600 1957.480713,2262.769775 1970.300903,2275.375244 
	C1976.681030,2281.648438 1983.595947,2287.057373 1992.435303,2289.623047 
	C1995.189697,2290.422852 1998.072998,2291.706299 2000.201782,2293.564941 
	C2007.687500,2300.100830 2014.998291,2306.851562 2022.140137,2313.763916 
	C2033.852905,2325.100586 2045.251099,2336.764893 2057.072021,2347.985596 
	C2060.351074,2351.098389 2064.356201,2354.472900 2068.544678,2355.403320 
	C2080.015625,2357.951904 2087.433838,2366.187012 2095.294678,2373.413818 
	C2109.674072,2386.633057 2123.155518,2400.827637 2137.071777,2414.554199 
	C2141.831543,2419.249268 2147.213623,2422.774414 2153.906738,2424.514160 
	C2157.607666,2425.475830 2161.466064,2427.444824 2164.254883,2430.035156 
	C2179.499512,2444.194336 2194.974609,2458.175293 2209.268555,2473.261475 
	C2217.580322,2482.034180 2225.662598,2490.098877 2237.651855,2493.413574 
	C2240.342285,2494.157471 2242.866455,2496.219482 2244.986816,2498.191406 
	C2257.385986,2509.724365 2269.575684,2521.482178 2281.974365,2533.015869 
	C2288.212402,2538.818359 2294.445068,2544.701172 2301.230713,2549.817627 
	C2306.962891,2554.139893 2313.723145,2553.100342 2319.561279,2549.168457 
	C2330.145020,2542.040527 2337.755859,2531.903076 2346.645508,2523.076660 
	C2365.037354,2504.816406 2383.162842,2486.288330 2401.405273,2467.877686 
	C2408.891846,2460.322266 2416.672119,2453.099609 2418.764404,2441.780762 
	C2419.314697,2438.802734 2421.832520,2435.914062 2424.058838,2433.564453 
	C2440.078613,2416.656494 2456.238037,2399.880371 2472.392822,2383.100342 
	C2478.414551,2376.845703 2484.250488,2370.594238 2486.340820,2361.680420 
	C2486.990967,2358.908203 2488.729736,2356.079590 2490.714844,2353.980957 
	C2506.661621,2337.124512 2522.993408,2320.627686 2538.742676,2303.591309 
	C2544.074707,2297.823242 2549.527832,2291.389404 2552.316650,2284.241943 
	C2555.951660,2274.925049 2561.368652,2267.399414 2568.093994,2260.464111 
	C2572.733398,2255.679932 2577.801025,2251.278564 2582.132812,2246.238281 
	C2586.206787,2241.498291 2591.130615,2236.630859 2592.893311,2230.954102 
	C2595.908936,2221.242188 2601.893311,2214.096436 2608.479248,2207.082520 
	C2612.349121,2202.961426 2616.795898,2199.343994 2620.380859,2195.002197 
	C2625.194092,2189.173096 2630.586426,2183.379639 2633.592285,2176.620361 
	C2636.862305,2169.266846 2639.683838,2162.039795 2645.657959,2156.364014 
	C2649.990723,2152.247070 2653.930176,2147.718750 2658.096191,2143.423096 
	C2663.468018,2137.884766 2667.923340,2132.069336 2669.154297,2123.938965 
	C2669.700684,2120.333008 2672.410156,2116.764648 2674.876953,2113.792725 
	C2683.132568,2103.845703 2693.162842,2095.617188 2696.974365,2082.018555 
	C2698.865723,2075.270264 2705.538818,2069.648926 2710.654053,2064.073242 
	C2716.551025,2057.645264 2721.933105,2051.282471 2723.931885,2042.356445 
	C2724.819092,2038.395386 2727.285156,2034.319458 2730.137451,2031.358276 
	C2737.442383,2023.774902 2743.021729,2015.417847 2745.659424,2005.135986 
	C2746.128906,2003.306763 2747.438232,2001.622803 2748.605225,2000.054321 
	C2753.897705,1992.939941 2753.645508,1986.191040 2747.374023,1979.907349 
	C2738.916016,1971.432739 2730.010742,1963.390503 2721.802246,1954.686279 
	C2716.180908,1948.725708 2710.099854,1944.302002 2702.127686,1941.838989 
	C2697.253174,1940.333008 2692.406982,1937.361450 2688.648193,1933.865356 
	C2675.027588,1921.197510 2662.059082,1907.827515 2648.410156,1895.191772 
	C2644.958008,1891.995605 2640.114990,1889.670166 2635.515381,1888.500366 
	C2629.384766,1886.940918 2624.554688,1883.796143 2620.224854,1879.626221 
	C2606.825439,1866.721436 2593.648193,1853.583130 2580.112549,1840.824341 
	C2577.657227,1838.510010 2573.860840,1837.660645 2570.781250,1835.958130 
	C2565.077881,1832.805054 2558.563477,1830.462402 2553.941406,1826.125488 
	C2536.034180,1809.321899 2518.940430,1791.652222 2501.065918,1774.812256 
	C2496.926025,1770.911987 2491.143311,1768.332886 2485.676514,1766.375977 
	C2479.526367,1764.174561 2474.265869,1761.166016 2469.898438,1756.381592 
	C2467.458252,1753.708374 2464.865234,1751.169922 2462.268555,1748.645264 
	C2453.203613,1739.831421 2444.090088,1731.067505 2435.028320,1722.250000 
	C2428.603271,1715.998169 2422.315430,1709.601562 2415.778320,1703.470337 
	C2414.154785,1701.947632 2411.793457,1700.249146 2409.784912,1700.265625 
	C2401.233398,1700.335449 2395.826416,1694.950439 2390.390625,1689.740356 
	C2376.260986,1676.197510 2362.478760,1662.288086 2348.187012,1648.921387 
	C2344.206543,1645.198364 2338.934082,1642.856567 2333.938232,1638.498169 
	C2325.966553,1621.731567 2312.306152,1614.189331 2293.869141,1612.473145 
	C2293.732666,1604.800903 2287.354248,1601.894531 2282.708008,1597.530518 
	C2270.720947,1586.271240 2258.845215,1574.888306 2247.124268,1563.352173 
	C2232.179199,1548.643188 2217.486816,1533.677612 2202.562012,1518.947754 
	C2198.149414,1514.593018 2193.686523,1510.688354 2186.811768,1509.588989 
	C2182.323975,1508.871338 2177.788086,1505.560425 2174.252197,1502.337769 
	C2164.595459,1493.536987 2155.387939,1484.236938 2146.127197,1475.009277 
	C2121.837402,1450.805786 2097.609131,1426.540649 2073.375977,1402.280396 
	C2071.733398,1400.635864 2069.957275,1399.011108 2068.754395,1397.061768 
	C2065.138916,1391.204224 2061.525146,1385.265747 2067.252441,1378.533569 
	C2073.426514,1371.276489 2079.367432,1363.818970 2085.608154,1356.620972 
	C2090.433594,1351.055786 2097.507812,1346.791992 2097.822510,1338.563232 
	C2098.016846,1333.477539 2100.227051,1329.788330 2103.245361,1326.396484 
	C2107.668457,1321.426025 2112.571533,1316.885254 2117.068359,1311.976929 
	C2119.483643,1309.340698 2122.307373,1306.626099 2123.497070,1303.410522 
	C2126.267822,1295.922729 2128.160400,1288.110107 2130.322266,1280.724976 
	C2142.820557,1278.618042 2148.956055,1269.980103 2152.095703,1259.717163 
	C2154.636963,1251.409424 2158.601807,1244.631104 2164.688721,1238.768433 
	C2167.568115,1235.995361 2170.576904,1233.304932 2173.102783,1230.228882 
	C2176.649170,1225.910278 2180.122803,1221.696289 2180.717041,1215.476562 
	C2181.067139,1211.808960 2183.477539,1207.984863 2185.868164,1204.943970 
	C2189.962402,1199.735840 2194.574463,1194.887939 2199.332764,1190.262939 
	C2203.539062,1186.174438 2206.814697,1181.589111 2207.452637,1175.806396 
	C2208.125732,1169.702515 2211.459473,1165.350830 2215.372314,1161.215942 
	C2218.806396,1157.586914 2222.840332,1154.448975 2225.842773,1150.509766 
	C2228.994385,1146.374634 2232.313232,1141.828369 2233.597656,1136.945801 
	C2235.181885,1130.921631 2237.612549,1125.757446 2241.703857,1121.283203 
	C2245.296387,1117.354248 2249.444336,1113.880249 2252.674805,1109.687744 
	C2256.065186,1105.287720 2260.218262,1100.568481 2261.190186,1095.448242 
	C2262.331543,1089.435059 2265.052002,1085.140259 2268.658691,1080.748657 
	C2272.849121,1075.646118 2278.528076,1070.805542 2280.298340,1064.877075 
	C2283.912354,1052.774780 2292.115479,1044.511963 2299.815430,1035.458130 
	C2303.582031,1031.029297 2306.130859,1025.528809 2309.000000,1020.384583 
	C2311.079346,1016.656738 2312.140869,1012.195007 2314.774902,1008.976257 
	C2321.080322,1001.271240 2328.014893,994.077759 2334.757324,986.734619 
	C2338.614014,982.534424 2341.507568,978.209167 2342.710205,972.208008 
	C2343.686279,967.337097 2347.083008,962.716919 2350.191650,958.575134 
	C2353.161133,954.618347 2357.366211,951.613770 2360.624268,947.841614 
	C2364.235596,943.659851 2368.771973,939.860413 2368.121826,933.293945 
	C2367.986572,931.928772 2369.317871,930.429199 2369.938477,928.976685 
	C2373.983154,919.509644 2381.899170,913.204895 2388.570801,905.841797 
	C2393.640869,900.246094 2399.753662,894.728149 2402.386475,887.996033 
	C2406.257080,878.099426 2410.947998,869.419434 2418.966064,862.446350 
	C2422.701416,859.197754 2426.306396,855.687500 2429.392822,851.833435 
	C2433.258301,847.006714 2437.562988,842.519470 2438.102051,835.492920 
	C2438.376221,831.922791 2440.997803,828.055481 2443.556885,825.225403 
	C2452.012207,815.874817 2460.950684,806.962402 2469.645752,797.826904 
	C2474.007812,793.244263 2477.166016,788.325134 2478.987793,781.820190 
	C2480.677490,775.786865 2485.579834,770.571777 2489.430664,765.259460 
	C2491.339844,762.625366 2494.113525,760.629700 2496.413330,758.264465 
	C2509.141357,745.174255 2521.584717,731.793457 2534.646729,719.046631 
	C2543.277588,710.624207 2551.613037,702.335083 2554.876953,690.195129 
	C2555.530029,687.766113 2557.370605,685.499329 2559.102295,683.547241 
	C2563.954102,678.078613 2568.987549,672.768066 2574.036621,667.478638 
	C2582.284912,658.837830 2590.714600,650.367676 2598.857910,641.629944 
	C2606.226074,633.723755 2605.809326,627.251953 2597.875000,620.331299 
	C2592.618164,615.746094 2587.566162,610.879761 2581.981201,606.733215 
	C2578.103271,603.854126 2573.704590,600.967102 2569.121826,599.937256 
	C2564.045166,598.796326 2559.837158,597.130066 2555.961914,593.659851 
	C2550.801270,589.038940 2545.809570,583.068176 2539.632080,580.995972 
	C2528.199951,577.161011 2519.215088,570.405701 2510.289307,562.943726 
	C2507.643311,560.731628 2504.034424,558.503662 2500.812744,558.422119 
	C2496.007324,558.300415 2492.562256,556.103149 2489.336914,553.492493 
	C2484.178223,549.317078 2479.615723,544.412109 2474.538574,540.126709 
	C2471.020508,537.157410 2467.297607,532.912842 2463.252197,532.379517 
	C2452.427002,530.952271 2445.518311,524.041260 2438.028809,517.554504 
	C2435.798340,515.622803 2433.440674,513.017639 2430.801270,512.518250 
	C2418.255615,510.144623 2409.806885,501.737396 2401.028076,493.612396 
	C2395.654541,488.639252 2389.960205,484.475586 2382.401611,482.665985 
	C2377.850586,481.576385 2373.481934,478.309784 2369.852539,475.094513 
	C2363.349609,469.333679 2357.012207,464.075165 2348.016357,462.180573 
	C2343.477295,461.224548 2339.307129,457.675415 2335.421875,454.707428 
	C2332.010742,452.101501 2329.479004,448.355713 2326.106689,445.684418 
	C2321.976807,442.413055 2317.599609,437.737305 2312.932373,437.215302 
	C2302.968262,436.100861 2297.128662,429.789551 2290.342285,424.004181 
	C2286.400146,420.643707 2281.696289,417.643585 2276.822754,416.037170 
	C2270.021973,413.795593 2264.277588,410.656494 2258.945801,405.785187 
	C2254.433594,401.662689 2248.951660,397.806671 2243.219238,396.049042 
	C2237.987549,394.444885 2233.509033,392.635925 2229.299805,389.118011 
	C2222.506836,383.440857 2216.739014,376.131226 2207.202637,374.414154 
	C2201.114990,373.317993 2196.511963,369.670441 2191.871826,365.625671 
	C2187.256836,361.602966 2181.911377,357.712097 2176.204590,355.831055 
	C2169.387695,353.584198 2163.335938,350.878113 2158.254395,345.803040 
	C2155.444092,342.996307 2152.617188,339.588470 2149.107422,338.214661 
	C2137.974854,333.856812 2128.034912,327.156494 2117.280273,322.408813 
	C2109.291260,318.881897 2101.700439,315.501892 2095.184814,309.707855 
	C2089.480225,304.635010 2083.928955,299.445068 2075.254395,299.894470 
	C2073.112061,300.005402 2070.792969,297.457092 2068.618652,296.034180 
	C2064.487061,293.330444 2060.731445,289.676758 2056.230469,287.987396 
	C2045.451538,283.941437 2034.137207,281.307953 2023.399414,277.169220 
	C2011.329590,272.517242 1999.497559,274.446655 1990.909790,283.609467 
	C1975.490479,300.061157 1960.146973,316.587128 1944.496704,332.816742 
	C1940.386719,337.078735 1938.090820,341.836456 1936.488037,347.364624 
	C1935.418213,351.055176 1933.962158,355.048737 1931.478394,357.837677 
	C1923.535400,366.757141 1914.879883,375.037842 1906.798706,383.839874 
	C1901.211060,389.926239 1893.924194,395.681549 1891.309814,402.985474 
	C1887.215088,414.426361 1880.502930,423.341980 1872.535278,431.809143 
	C1868.213989,436.401459 1863.622803,440.739014 1859.262817,445.296112 
	C1853.946655,450.852753 1849.355103,456.721069 1847.503784,464.600128 
	C1846.639526,468.278198 1844.128418,471.876221 1841.545410,474.783478 
	C1834.919434,482.241150 1827.594971,489.080811 1821.017212,496.577698 
	C1816.459106,501.772675 1811.099243,507.104248 1808.941162,513.356323 
	C1806.113647,521.547729 1801.679077,528.153931 1796.128296,534.319763 
	C1790.788086,540.251709 1785.279663,546.039062 1779.692017,551.739624 
	C1773.598022,557.956848 1767.976562,564.352295 1765.986206,573.237122 
	C1765.424194,575.745422 1764.194336,578.437256 1762.466187,580.297363 
	C1751.177368,592.447571 1739.725586,604.448242 1728.208374,616.383423 
	C1721.274658,623.568726 1714.397949,630.559143 1711.659546,640.772644 
	C1710.513794,645.046265 1707.725952,649.255920 1704.682007,652.575134 
	C1694.806274,663.343201 1684.278809,673.513611 1674.406616,684.284851 
	C1670.907471,688.102783 1666.942505,692.689209 1666.076538,697.449768 
	C1664.722900,704.892273 1661.152710,710.299866 1656.156494,715.298462 
	C1646.524414,724.935303 1636.622192,734.320251 1627.363159,744.302307 
	C1623.892944,748.043518 1621.901733,753.156799 1617.804688,757.554077 
	C1615.703735,758.365295 1613.094116,758.640259 1611.583130,760.073486 
	C1600.727295,770.371582 1593.556885,782.493347 1592.439453,797.981873 
	C1586.597412,798.806458 1581.118164,799.899170 1578.088013,806.124573 
	C1576.845947,808.676880 1574.071045,810.492310 1571.962769,812.612366 
	C1550.268555,834.427185 1528.497559,856.166016 1506.899658,878.075378 
	C1496.102173,889.028503 1485.703857,900.374023 1474.964966,911.386047 
	C1466.275146,920.297058 1457.280762,928.910583 1448.546143,937.778870 
	C1443.044312,943.365173 1437.338867,943.484680 1431.605347,937.907898 
	C1428.747437,935.128174 1425.965820,932.199036 1422.764282,929.866638 
	C1420.267944,928.047974 1417.083374,925.758240 1414.369141,925.954468 
	C1408.988037,926.343445 1405.514404,923.792786 1402.181641,920.579102 
	C1393.071411,911.794373 1384.245361,902.710876 1375.022095,894.048950 
	C1367.264648,886.763733 1359.977661,878.674500 1348.492554,876.872375 
	C1346.153687,876.505371 1343.855835,874.534912 1341.973633,872.825195 
	C1332.670410,864.374756 1323.904053,855.284729 1314.186768,847.353516 
	C1305.693726,840.421631 1298.389038,831.687134 1287.070068,828.465454 
	C1283.490356,827.446594 1280.267700,824.437988 1277.403198,821.778198 
	C1268.379150,813.399536 1259.572998,804.784790 1250.744751,796.197327 
	C1247.099731,792.651733 1243.280884,789.947327 1237.862549,789.470886 
	C1233.232056,789.063782 1229.218628,786.910156 1225.727417,783.355225 
	C1217.355103,774.830078 1208.556396,766.723816 1199.939209,758.438721 
	C1195.868408,754.525085 1192.003052,749.670715 1185.784302,750.165771 
	C1180.483154,750.587952 1176.986816,748.125916 1173.647095,744.968201 
	C1168.355103,739.964661 1163.494385,734.489197 1158.046387,729.671082 
	C1152.614624,724.867676 1147.322144,718.662842 1140.837402,716.558105 
	C1128.155029,712.441650 1118.876221,704.502014 1109.980469,695.434143 
	C1106.951782,692.346924 1104.041260,688.995422 1100.513794,686.590210 
	C1097.391724,684.461426 1093.592651,683.107056 1089.906982,682.069702 
	C1082.648193,680.026733 1077.129639,675.582275 1071.913086,670.452393 
	C1068.695679,667.288513 1066.127808,662.757141 1059.815918,662.598206 
	C1058.546021,660.650696 1057.379639,658.625671 1055.988525,656.769043 
	C1049.548584,648.173706 1042.579102,640.728394 1031.105957,638.386475 
	C1026.301025,637.405640 1021.892822,633.432190 1017.828186,630.167114 
	C1013.704224,626.854309 1010.508423,622.389343 1006.397339,619.056519 
	C1000.781555,614.503784 995.175903,609.362183 988.659363,606.654602 
	C981.767822,603.791077 975.535400,600.472839 970.107910,595.518066 
	C964.473206,590.374084 958.907166,585.153198 953.384949,579.888306 
	C949.225281,575.922485 944.551086,573.442444 938.867065,571.818542 
	C933.685242,570.338135 928.802979,567.027100 924.442139,563.673218 
	C919.998230,560.255615 916.154663,555.977539 912.392822,551.768188 
	C901.683960,539.785583 887.097107,535.699646 871.872314,530.803955 
	C871.216125,530.743713 870.559937,530.683411 868.067139,530.339539 
	C856.194153,529.586731 844.058167,531.182495 832.562378,527.007324 
	C823.913452,523.866150 815.139465,523.412842 806.074036,523.979492 
	C795.810730,524.620972 785.321289,525.686768 775.555176,521.428101 
	C769.928223,518.974426 764.320312,517.595947 757.643677,516.683044 
z"/>
<path fill="#F5B0B2" opacity="1.000000" stroke="none" 
	d="
M1795.785767,2122.114014 
	C1792.473022,2120.868164 1788.690674,2120.260254 1785.947388,2118.240967 
	C1780.623413,2114.321777 1776.005005,2109.459717 1770.855469,2105.282715 
	C1767.839722,2102.836426 1764.618042,2099.883545 1761.043457,2099.034668 
	C1751.720581,2096.820312 1745.409912,2090.612793 1738.946777,2084.414551 
	C1728.881714,2074.761230 1719.002441,2064.908447 1708.734009,2055.478027 
	C1706.186768,2053.138916 1702.545532,2050.992920 1699.234497,2050.698486 
	C1693.030884,2050.146729 1688.709229,2046.958740 1684.555542,2043.065918 
	C1672.923096,2032.164062 1661.417725,2021.124756 1649.682251,2010.335571 
	C1647.053589,2007.918945 1643.923584,2005.661865 1640.614502,2004.454102 
	C1634.360229,2002.171509 1628.220215,2000.177856 1622.940308,1995.672729 
	C1618.629028,1991.994141 1613.829102,1992.781982 1609.562256,1997.075195 
	C1601.822510,2004.863159 1594.126709,2012.716919 1586.848145,2020.929199 
	C1584.151978,2023.971313 1581.555542,2027.289185 1581.817871,2032.298950 
	C1582.179688,2039.212402 1576.848633,2043.523438 1572.497192,2048.057129 
	C1564.235718,2056.664062 1555.656128,2064.990234 1547.806763,2073.956543 
	C1544.488159,2077.747314 1541.106567,2082.681396 1540.563843,2087.417725 
	C1539.785645,2094.208008 1535.596191,2098.174072 1531.825562,2102.559326 
	C1526.001221,2109.333252 1519.469849,2115.494629 1513.481934,2122.135498 
	C1511.763062,2124.041504 1510.268799,2126.568359 1509.723511,2129.042480 
	C1507.224243,2140.381836 1499.371216,2148.074707 1491.942261,2156.083740 
	C1488.114502,2160.210449 1483.886108,2164.000000 1480.367310,2168.367676 
	C1477.926025,2171.397949 1475.180542,2174.989990 1474.684814,2178.619873 
	C1473.504517,2187.264160 1468.340210,2192.967529 1462.704224,2198.726562 
	C1456.905029,2204.652588 1451.317017,2210.788818 1445.746582,2216.932617 
	C1444.425659,2218.389648 1442.916870,2220.121338 1442.559692,2221.936523 
	C1439.588989,2237.033203 1428.457520,2246.370850 1418.479370,2256.509033 
	C1411.470215,2263.630371 1405.761963,2271.217773 1403.575684,2281.463867 
	C1402.698486,2285.574463 1398.767212,2289.259033 1395.669922,2292.626221 
	C1387.585327,2301.415039 1378.984131,2309.734863 1371.047363,2318.649902 
	C1368.529785,2321.477539 1367.498169,2325.613037 1365.714600,2329.113525 
	C1363.358154,2333.737793 1361.699463,2338.995605 1358.383545,2342.797607 
	C1350.081421,2352.316650 1340.742676,2360.928955 1332.387817,2370.405518 
	C1329.013306,2374.233154 1325.885620,2379.086670 1324.783813,2383.957275 
	C1321.564087,2398.191895 1311.551392,2404.377197 1298.469116,2409.370117 
	C1299.388550,2419.244629 1291.729492,2425.655518 1284.424561,2431.603027 
	C1277.141357,2437.532959 1271.983887,2444.170898 1269.634155,2453.343994 
	C1268.785400,2456.657227 1266.345825,2459.839111 1263.932617,2462.429443 
	C1251.027710,2476.282471 1237.709839,2489.754883 1224.971313,2503.756104 
	C1221.274780,2507.818848 1218.282471,2512.900879 1216.255981,2518.025146 
	C1212.142334,2528.426514 1205.462036,2535.882080 1196.798706,2539.602051 
	C1192.875122,2545.838867 1190.281372,2551.565186 1186.278198,2556.026855 
	C1173.879395,2569.844971 1160.865234,2583.108887 1148.286377,2596.768799 
	C1145.885010,2599.376709 1143.431030,2602.584229 1142.643311,2605.904785 
	C1140.529297,2614.814941 1134.916992,2621.289795 1128.947998,2627.510010 
	C1119.779785,2637.063477 1110.269531,2646.289062 1100.905273,2655.654541 
	C1086.375854,2670.185791 1071.847412,2684.718018 1057.317505,2699.248535 
	C1049.541748,2707.024902 1041.805176,2714.841309 1033.963379,2722.550537 
	C1031.603149,2724.871094 1029.088867,2727.088379 1026.400513,2729.010498 
	C1020.295715,2733.375244 1019.619385,2733.371338 1013.252441,2728.689209 
	C1010.322144,2726.534424 1007.586609,2724.064697 1005.004333,2721.494873 
	C987.757629,2704.331299 970.641052,2687.036621 953.355530,2669.912109 
	C934.487549,2651.219238 915.948364,2632.156738 896.384277,2614.216797 
	C881.714294,2600.764404 865.896606,2588.513428 850.131226,2576.321045 
	C836.192444,2565.541260 823.644958,2553.384766 811.340698,2540.856201 
	C799.993591,2529.302002 788.047607,2518.338379 776.587402,2506.892090 
	C765.346497,2495.664795 754.535400,2484.005859 743.266724,2472.807129 
	C725.349060,2455.000488 707.277100,2437.347168 689.135193,2419.768799 
	C678.675720,2409.634277 668.036377,2399.680176 657.283691,2389.857422 
	C654.671875,2387.471436 651.529358,2385.064697 648.222107,2384.157959 
	C639.471130,2381.758301 632.928162,2376.335938 626.762634,2370.217285 
	C614.486694,2358.034912 602.359192,2345.702637 590.038025,2333.566406 
	C579.129211,2322.821533 568.242126,2312.037354 556.912170,2301.747559 
	C553.388733,2298.547363 548.523804,2296.757080 544.136719,2294.598145 
	C540.908447,2293.009277 536.728638,2292.666748 534.240356,2290.386230 
	C525.924194,2282.763672 517.737854,2274.902588 510.340088,2266.403320 
	C503.298492,2258.313477 504.054718,2251.167480 510.261169,2241.979492 
	C513.356689,2237.397217 516.016479,2232.275879 517.665344,2227.019775 
	C519.969238,2219.675293 525.096497,2214.546387 529.641357,2208.870850 
	C533.913086,2203.536865 538.608154,2199.053467 538.593201,2190.792725 
	C538.584961,2186.209473 543.756165,2181.059814 547.601257,2177.159668 
	C553.133850,2171.547607 556.516418,2165.264893 559.244751,2157.874512 
	C561.558838,2151.606445 566.556763,2146.237305 570.781067,2140.791504 
	C575.030762,2135.313477 579.253784,2130.478516 580.298645,2122.766357 
	C581.015015,2117.479004 585.756165,2112.301025 589.709106,2108.004150 
	C594.107300,2103.223877 597.762878,2098.378906 599.183716,2091.975098 
	C601.643372,2080.889893 610.545471,2074.233643 617.402466,2066.285889 
	C621.411072,2061.639648 624.956665,2057.073730 626.296570,2051.009033 
	C627.781494,2044.288452 631.317505,2038.779419 636.341736,2034.126953 
	C642.307617,2028.602661 646.040344,2022.149536 648.075867,2013.927124 
	C649.478577,2008.261353 654.570679,2003.477173 658.148315,1998.393677 
	C660.233826,1995.430542 663.887634,1992.939453 664.587280,1989.743652 
	C667.450378,1976.665283 675.933167,1967.367432 684.590149,1958.202881 
	C689.526245,1952.977295 693.073975,1947.381836 694.809570,1940.319824 
	C696.349854,1934.053101 699.836121,1928.757568 707.554626,1925.904541 
	C713.479187,1926.507202 713.999878,1929.663208 713.992859,1933.227661 
	C713.977844,1940.858154 713.429199,1948.544434 714.164856,1956.104126 
	C714.959290,1964.267822 716.600830,1972.405396 718.596802,1980.373047 
	C719.672791,1984.668091 721.979614,1988.817383 726.620911,1991.073853 
	C737.832886,1978.523438 739.935852,1964.143677 737.148315,1948.840820 
	C734.426147,1933.897461 731.103394,1919.058228 727.747864,1904.240479 
	C727.206177,1901.848267 725.120544,1899.805664 723.748535,1897.601440 
	C725.802795,1893.941284 727.469971,1889.984497 729.997070,1886.686646 
	C734.364441,1880.987305 739.410645,1876.185303 741.003479,1868.387817 
	C742.662720,1860.264404 748.297180,1853.798584 754.412048,1848.023804 
	C761.927429,1840.926392 768.993286,1833.733032 770.307312,1822.385010 
	C770.737793,1818.666992 774.807129,1815.207153 777.600769,1811.963745 
	C781.938416,1806.927124 786.808838,1802.343262 791.052063,1797.234131 
	C793.113098,1794.752686 795.727356,1791.424438 795.554077,1788.637329 
	C795.023743,1780.110474 800.934998,1775.519653 805.438843,1770.119385 
	C810.118835,1764.507812 815.404968,1759.404541 820.364380,1754.022217 
	C825.581665,1748.359619 828.791443,1741.722290 831.851990,1734.585693 
	C834.868469,1727.551758 840.749329,1721.617432 845.908813,1715.664795 
	C851.991638,1708.646851 858.762268,1702.229248 864.991821,1695.331909 
	C866.938904,1693.176025 868.830383,1690.484619 869.488770,1687.736694 
	C871.938232,1677.514160 878.463562,1670.153320 885.501892,1662.964722 
	C900.857483,1647.280762 916.135010,1631.519531 931.339539,1615.689209 
	C933.605835,1613.329468 936.563477,1610.633545 937.044617,1607.735107 
	C938.983215,1596.057129 946.847473,1588.424438 954.168884,1580.287964 
	C955.693542,1578.593506 957.682190,1576.711670 958.037964,1574.668823 
	C960.291565,1561.730469 967.526062,1549.834351 965.755554,1536.010742 
	C965.131836,1531.141235 966.306274,1526.014038 961.594421,1522.436279 
	C960.883179,1521.896240 960.254883,1520.692871 960.281677,1519.817505 
	C960.710083,1505.830444 949.907837,1499.171021 941.565430,1490.896851 
	C935.440674,1484.822266 929.416565,1478.645020 923.235107,1472.629150 
	C911.834473,1461.533569 900.453552,1450.412964 888.822571,1439.562012 
	C886.244751,1437.157104 882.867493,1435.010376 879.501526,1434.165161 
	C870.701111,1431.955078 864.106201,1426.694092 857.965881,1420.510376 
	C854.208618,1416.726562 850.484924,1412.906982 846.646912,1409.206421 
	C841.336975,1404.086670 835.630493,1399.597412 827.984680,1398.526245 
	C820.505981,1397.478271 815.733582,1392.163818 810.853088,1387.268066 
	C803.804932,1380.197876 797.223511,1372.728149 786.287842,1371.702026 
	C781.221436,1371.226562 780.642456,1366.810791 780.203125,1364.305176 
	C775.465820,1361.630371 771.195312,1359.993530 767.904663,1357.201782 
	C760.812561,1351.184448 754.353882,1345.044678 744.202759,1343.661621 
	C739.582031,1343.032104 735.397461,1338.111328 731.338074,1334.747314 
	C726.997192,1331.150024 722.968506,1327.163330 718.931091,1323.216187 
	C715.448975,1319.812134 711.560425,1318.283936 706.548462,1317.806152 
	C698.518127,1317.040649 693.836426,1310.172485 688.055115,1305.473633 
	C684.471375,1302.560913 681.444336,1298.969238 677.912048,1295.984741 
	C675.930176,1294.310303 673.519958,1292.304443 671.144897,1292.074097 
	C658.764954,1290.872437 651.539246,1281.787109 642.551331,1273.371582 
	C641.352905,1265.733398 646.179138,1263.794067 650.750610,1261.629517 
	C668.603333,1253.176636 684.940796,1242.302490 699.628601,1229.211548 
	C722.883911,1208.484253 739.556396,1183.123169 750.947205,1154.123169 
	C758.164856,1135.747559 763.170959,1116.757935 765.652649,1097.328125 
	C768.126892,1077.955933 768.597107,1058.329834 770.028870,1038.821289 
	C770.835327,1027.832764 776.592651,1020.589050 788.062134,1015.923157 
	C790.167114,1020.073364 792.631714,1023.594421 793.803406,1027.503052 
	C796.852722,1037.675537 799.366089,1048.009888 802.032959,1058.295410 
	C804.216675,1066.717163 808.604065,1073.642212 816.239563,1077.970581 
	C824.475281,1082.639160 833.660767,1077.273193 833.906250,1067.796265 
	C833.974060,1065.178101 833.251770,1062.546143 832.986328,1059.911011 
	C832.323303,1053.329224 831.059814,1046.727661 831.201782,1040.159302 
	C831.708313,1016.724670 841.547058,996.577881 857.255798,980.238342 
	C882.372742,954.112854 909.061340,929.502502 934.950623,904.113953 
	C949.633911,889.714783 964.636658,875.575195 978.439331,860.360535 
	C996.841492,840.075928 1008.421387,815.760986 1015.567749,789.467834 
	C1018.264343,779.546570 1023.258423,772.049072 1031.964844,766.701233 
	C1040.746704,761.307068 1049.675293,756.050415 1057.914551,749.896545 
	C1072.374756,739.096558 1078.720947,723.719299 1072.684570,708.157104 
	C1069.854736,700.861511 1064.375244,694.632263 1060.550049,687.670532 
	C1058.048828,683.118286 1055.877930,678.257568 1054.448730,673.279663 
	C1053.086060,668.533447 1054.790283,664.688660 1060.414673,663.841003 
	C1066.127808,662.757141 1068.695679,667.288513 1071.913086,670.452393 
	C1077.129639,675.582275 1082.648193,680.026733 1089.906982,682.069702 
	C1093.592651,683.107056 1097.391724,684.461426 1100.513794,686.590210 
	C1104.041260,688.995422 1106.951782,692.346924 1109.980469,695.434143 
	C1118.876221,704.502014 1128.155029,712.441650 1140.837402,716.558105 
	C1147.322144,718.662842 1152.614624,724.867676 1158.046387,729.671082 
	C1163.494385,734.489197 1168.355103,739.964661 1173.647095,744.968201 
	C1176.986816,748.125916 1180.483154,750.587952 1185.784302,750.165771 
	C1192.003052,749.670715 1195.868408,754.525085 1199.939209,758.438721 
	C1208.556396,766.723816 1217.355103,774.830078 1225.727417,783.355225 
	C1229.218628,786.910156 1233.232056,789.063782 1237.862549,789.470886 
	C1243.280884,789.947327 1247.099731,792.651733 1250.744751,796.197327 
	C1259.572998,804.784790 1268.379150,813.399536 1277.403198,821.778198 
	C1280.267700,824.437988 1283.490356,827.446594 1287.070068,828.465454 
	C1298.389038,831.687134 1305.693726,840.421631 1314.186768,847.353516 
	C1323.904053,855.284729 1332.670410,864.374756 1341.973633,872.825195 
	C1343.855835,874.534912 1346.153687,876.505371 1348.492554,876.872375 
	C1359.977661,878.674500 1367.264648,886.763733 1375.022095,894.048950 
	C1384.245361,902.710876 1393.071411,911.794373 1402.181641,920.579102 
	C1405.514404,923.792786 1408.988037,926.343445 1414.369141,925.954468 
	C1417.083374,925.758240 1420.267944,928.047974 1422.764282,929.866638 
	C1425.965820,932.199036 1428.747437,935.128174 1431.605347,937.907898 
	C1437.338867,943.484680 1443.044312,943.365173 1448.546143,937.778870 
	C1457.280762,928.910583 1466.275146,920.297058 1474.964966,911.386047 
	C1485.703857,900.374023 1496.102173,889.028503 1506.899658,878.075378 
	C1528.497559,856.166016 1550.268555,834.427185 1571.962769,812.612366 
	C1574.071045,810.492310 1576.845947,808.676880 1578.088013,806.124573 
	C1581.118164,799.899170 1586.597412,798.806458 1593.220581,798.962341 
	C1594.666870,822.865845 1595.418823,845.786682 1595.979126,868.712280 
	C1597.150146,916.615356 1593.316162,964.619629 1598.237671,1012.418701 
	C1599.445312,1024.148071 1602.975586,1035.806396 1606.732056,1047.065430 
	C1612.294678,1063.736816 1624.494263,1076.590088 1634.097168,1090.912354 
	C1646.744019,1109.775024 1658.217285,1129.168213 1663.479248,1151.567261 
	C1673.111694,1192.570557 1690.172241,1230.348145 1714.072510,1264.865723 
	C1736.624512,1297.436035 1762.053589,1327.721069 1790.470947,1355.407715 
	C1792.020508,1356.917358 1794.001099,1357.984985 1796.113037,1359.495850 
	C1800.904175,1352.258423 1800.721069,1345.162231 1798.942017,1337.908813 
	C1796.645752,1328.547363 1793.656128,1319.314453 1792.013916,1309.844238 
	C1789.920532,1297.773071 1788.699097,1285.538452 1787.427246,1273.340332 
	C1786.087036,1260.487061 1784.068237,1247.577148 1784.269897,1234.722168 
	C1784.533569,1217.904663 1788.666626,1201.715698 1799.335327,1188.034912 
	C1811.033447,1173.033936 1817.187500,1156.362793 1816.062744,1137.143921 
	C1815.674316,1130.503418 1815.384399,1123.748169 1816.144043,1117.171753 
	C1817.833130,1102.546143 1822.044434,1088.586304 1836.292480,1081.398926 
	C1852.303223,1073.322266 1869.387085,1069.811890 1887.519043,1073.313477 
	C1893.849976,1074.536133 1900.463135,1075.092407 1907.813232,1072.318359 
	C1904.848022,1067.358643 1902.798340,1062.765381 1899.734131,1058.997559 
	C1882.469482,1037.768433 1862.624023,1019.093933 1841.958252,1001.232605 
	C1826.135498,987.557007 1810.527100,973.633240 1794.821045,959.822632 
	C1791.833374,957.195496 1788.834839,954.580688 1785.777954,951.261963 
	C1780.673462,937.792725 1770.960327,929.577881 1759.124512,923.525818 
	C1721.918091,904.500916 1691.222656,878.249878 1669.007812,842.554932 
	C1663.934570,834.403381 1658.913696,826.219177 1653.763672,817.273621 
	C1650.114258,805.632507 1647.230469,794.489380 1642.807739,783.994812 
	C1639.518555,776.190308 1634.223022,769.237305 1625.856689,764.771606 
	C1623.550781,761.964783 1621.393555,759.804626 1619.236328,757.644531 
	C1621.901733,753.156799 1623.892944,748.043518 1627.363159,744.302307 
	C1636.622192,734.320251 1646.524414,724.935303 1656.156494,715.298462 
	C1661.152710,710.299866 1664.722900,704.892273 1666.076538,697.449768 
	C1666.942505,692.689209 1670.907471,688.102783 1674.406616,684.284851 
	C1684.278809,673.513611 1694.806274,663.343201 1704.682007,652.575134 
	C1707.725952,649.255920 1710.513794,645.046265 1711.659546,640.772644 
	C1714.397949,630.559143 1721.274658,623.568726 1728.208374,616.383423 
	C1739.725586,604.448242 1751.177368,592.447571 1762.466187,580.297363 
	C1764.194336,578.437256 1765.424194,575.745422 1765.986206,573.237122 
	C1767.976562,564.352295 1773.598022,557.956848 1779.692017,551.739624 
	C1785.279663,546.039062 1790.788086,540.251709 1796.128296,534.319763 
	C1801.679077,528.153931 1806.113647,521.547729 1808.941162,513.356323 
	C1811.099243,507.104248 1816.459106,501.772675 1821.017212,496.577698 
	C1827.594971,489.080811 1834.919434,482.241150 1841.545410,474.783478 
	C1844.128418,471.876221 1846.639526,468.278198 1847.503784,464.600128 
	C1849.355103,456.721069 1853.946655,450.852753 1859.262817,445.296112 
	C1863.622803,440.739014 1868.213989,436.401459 1872.535278,431.809143 
	C1880.502930,423.341980 1887.215088,414.426361 1891.309814,402.985474 
	C1893.924194,395.681549 1901.211060,389.926239 1906.798706,383.839874 
	C1914.879883,375.037842 1923.535400,366.757141 1931.478394,357.837677 
	C1933.962158,355.048737 1935.418213,351.055176 1936.488037,347.364624 
	C1938.090820,341.836456 1940.386719,337.078735 1944.496704,332.816742 
	C1960.146973,316.587128 1975.490479,300.061157 1990.909790,283.609467 
	C1999.497559,274.446655 2011.329590,272.517242 2023.399414,277.169220 
	C2034.137207,281.307953 2045.451538,283.941437 2056.230469,287.987396 
	C2060.731445,289.676758 2064.487061,293.330444 2068.618652,296.034180 
	C2070.792969,297.457092 2073.112061,300.005402 2075.254395,299.894470 
	C2083.928955,299.445068 2089.480225,304.635010 2095.184814,309.707855 
	C2101.700439,315.501892 2109.291260,318.881897 2117.280273,322.408813 
	C2128.034912,327.156494 2137.974854,333.856812 2149.107422,338.214661 
	C2152.617188,339.588470 2155.444092,342.996307 2158.254395,345.803040 
	C2163.335938,350.878113 2169.387695,353.584198 2176.204590,355.831055 
	C2181.911377,357.712097 2187.256836,361.602966 2191.871826,365.625671 
	C2196.511963,369.670441 2201.114990,373.317993 2207.202637,374.414154 
	C2216.739014,376.131226 2222.506836,383.440857 2229.299805,389.118011 
	C2233.509033,392.635925 2237.987549,394.444885 2243.219238,396.049042 
	C2248.951660,397.806671 2254.433594,401.662689 2258.945801,405.785187 
	C2264.277588,410.656494 2270.021973,413.795593 2276.822754,416.037170 
	C2281.696289,417.643585 2286.400146,420.643707 2290.342285,424.004181 
	C2297.128662,429.789551 2302.968262,436.100861 2312.932373,437.215302 
	C2317.599609,437.737305 2321.976807,442.413055 2326.106689,445.684418 
	C2329.479004,448.355713 2332.010742,452.101501 2335.421875,454.707428 
	C2339.307129,457.675415 2343.477295,461.224548 2348.016357,462.180573 
	C2357.012207,464.075165 2363.349609,469.333679 2369.852539,475.094513 
	C2373.481934,478.309784 2377.850586,481.576385 2382.401611,482.665985 
	C2389.960205,484.475586 2395.654541,488.639252 2401.028076,493.612396 
	C2409.806885,501.737396 2418.255615,510.144623 2430.801270,512.518250 
	C2433.440674,513.017639 2435.798340,515.622803 2438.028809,517.554504 
	C2445.518311,524.041260 2452.427002,530.952271 2463.252197,532.379517 
	C2467.297607,532.912842 2471.020508,537.157410 2474.538574,540.126709 
	C2479.615723,544.412109 2484.178223,549.317078 2489.336914,553.492493 
	C2492.562256,556.103149 2496.007324,558.300415 2500.812744,558.422119 
	C2504.034424,558.503662 2507.643311,560.731628 2510.289307,562.943726 
	C2519.215088,570.405701 2528.199951,577.161011 2539.632080,580.995972 
	C2545.809570,583.068176 2550.801270,589.038940 2555.961914,593.659851 
	C2559.837158,597.130066 2564.045166,598.796326 2569.121826,599.937256 
	C2573.704590,600.967102 2578.103271,603.854126 2581.981201,606.733215 
	C2587.566162,610.879761 2592.618164,615.746094 2597.875000,620.331299 
	C2605.809326,627.251953 2606.226074,633.723755 2598.857910,641.629944 
	C2590.714600,650.367676 2582.284912,658.837830 2574.036621,667.478638 
	C2568.987549,672.768066 2563.954102,678.078613 2559.102295,683.547241 
	C2557.370605,685.499329 2555.530029,687.766113 2554.876953,690.195129 
	C2551.613037,702.335083 2543.277588,710.624207 2534.646729,719.046631 
	C2521.584717,731.793457 2509.141357,745.174255 2496.413330,758.264465 
	C2494.113525,760.629700 2491.339844,762.625366 2489.430664,765.259460 
	C2485.579834,770.571777 2480.677490,775.786865 2478.987793,781.820190 
	C2477.166016,788.325134 2474.007812,793.244263 2469.645752,797.826904 
	C2460.950684,806.962402 2452.012207,815.874817 2443.556885,825.225403 
	C2440.997803,828.055481 2438.376221,831.922791 2438.102051,835.492920 
	C2437.562988,842.519470 2433.258301,847.006714 2429.392822,851.833435 
	C2426.306396,855.687500 2422.701416,859.197754 2418.966064,862.446350 
	C2410.947998,869.419434 2406.257080,878.099426 2402.386475,887.996033 
	C2399.753662,894.728149 2393.640869,900.246094 2388.570801,905.841797 
	C2381.899170,913.204895 2373.983154,919.509644 2369.938477,928.976685 
	C2369.317871,930.429199 2367.986572,931.928772 2368.121826,933.293945 
	C2368.771973,939.860413 2364.235596,943.659851 2360.624268,947.841614 
	C2357.366211,951.613770 2353.161133,954.618347 2350.191650,958.575134 
	C2347.083008,962.716919 2343.686279,967.337097 2342.710205,972.208008 
	C2341.507568,978.209167 2338.614014,982.534424 2334.757324,986.734619 
	C2328.014893,994.077759 2321.080322,1001.271240 2314.774902,1008.976257 
	C2312.140869,1012.195007 2311.079346,1016.656738 2309.000000,1020.384583 
	C2306.130859,1025.528809 2303.582031,1031.029297 2299.815430,1035.458130 
	C2292.115479,1044.511963 2283.912354,1052.774780 2280.298340,1064.877075 
	C2278.528076,1070.805542 2272.849121,1075.646118 2268.658691,1080.748657 
	C2265.052002,1085.140259 2262.331543,1089.435059 2261.190186,1095.448242 
	C2260.218262,1100.568481 2256.065186,1105.287720 2252.674805,1109.687744 
	C2249.444336,1113.880249 2245.296387,1117.354248 2241.703857,1121.283203 
	C2237.612549,1125.757446 2235.181885,1130.921631 2233.597656,1136.945801 
	C2232.313232,1141.828369 2228.994385,1146.374634 2225.842773,1150.509766 
	C2222.840332,1154.448975 2218.806396,1157.586914 2215.372314,1161.215942 
	C2211.459473,1165.350830 2208.125732,1169.702515 2207.452637,1175.806396 
	C2206.814697,1181.589111 2203.539062,1186.174438 2199.332764,1190.262939 
	C2194.574463,1194.887939 2189.962402,1199.735840 2185.868164,1204.943970 
	C2183.477539,1207.984863 2181.067139,1211.808960 2180.717041,1215.476562 
	C2180.122803,1221.696289 2176.649170,1225.910278 2173.102783,1230.228882 
	C2170.576904,1233.304932 2167.568115,1235.995361 2164.688721,1238.768433 
	C2158.601807,1244.631104 2154.636963,1251.409424 2152.095703,1259.717163 
	C2148.956055,1269.980103 2142.820557,1278.618042 2130.322266,1280.724976 
	C2128.160400,1288.110107 2126.267822,1295.922729 2123.497070,1303.410522 
	C2122.307373,1306.626099 2119.483643,1309.340698 2117.068359,1311.976929 
	C2112.571533,1316.885254 2107.668457,1321.426025 2103.245361,1326.396484 
	C2100.227051,1329.788330 2098.016846,1333.477539 2097.822510,1338.563232 
	C2097.507812,1346.791992 2090.433594,1351.055786 2085.608154,1356.620972 
	C2079.367432,1363.818970 2073.426514,1371.276489 2067.252441,1378.533569 
	C2061.525146,1385.265747 2065.138916,1391.204224 2068.754395,1397.061768 
	C2069.957275,1399.011108 2071.733398,1400.635864 2073.375977,1402.280396 
	C2097.609131,1426.540649 2121.837402,1450.805786 2146.127197,1475.009277 
	C2155.387939,1484.236938 2164.595459,1493.536987 2174.252197,1502.337769 
	C2177.788086,1505.560425 2182.323975,1508.871338 2186.811768,1509.588989 
	C2193.686523,1510.688354 2198.149414,1514.593018 2202.562012,1518.947754 
	C2217.486816,1533.677612 2232.179199,1548.643188 2247.124268,1563.352173 
	C2258.845215,1574.888306 2270.720947,1586.271240 2282.708008,1597.530518 
	C2287.354248,1601.894531 2293.732666,1604.800903 2293.277100,1613.326416 
	C2276.056885,1621.062012 2260.799072,1629.615723 2246.732666,1641.460693 
	C2227.881592,1657.334473 2205.891602,1668.961304 2182.302979,1676.799194 
	C2164.625732,1682.672729 2146.709961,1687.827515 2128.911621,1693.338013 
	C2109.734375,1699.275269 2090.195557,1702.752563 2070.044189,1701.938843 
	C2055.783447,1701.362915 2041.533936,1700.432129 2027.268799,1700.050049 
	C2007.680176,1699.525269 1989.931641,1705.116699 1974.113403,1716.826904 
	C1967.252686,1721.905884 1960.418701,1721.296875 1954.463135,1715.408325 
	C1953.049805,1714.010742 1951.857666,1712.390747 1950.542358,1710.892090 
	C1941.364258,1700.435303 1930.269531,1694.095459 1915.937378,1693.937500 
	C1903.255005,1693.797729 1890.789673,1694.760376 1878.311279,1697.340088 
	C1859.081421,1701.315430 1844.213379,1691.716919 1842.277466,1674.115601 
	C1840.983154,1662.347046 1837.669800,1651.432251 1832.496338,1640.886230 
	C1826.943970,1629.567261 1821.595825,1618.143555 1816.396606,1606.657837 
	C1814.008301,1601.381958 1812.188477,1595.848755 1810.130981,1590.484375 
	C1808.581665,1591.031006 1807.772339,1591.071411 1807.426025,1591.492554 
	C1806.818481,1592.231567 1806.390137,1593.166992 1806.067017,1594.083740 
	C1801.076660,1608.242310 1800.600952,1623.007812 1802.603394,1637.496216 
	C1805.529419,1658.665649 1813.057861,1678.638916 1820.998535,1698.468994 
	C1824.674438,1707.648926 1830.192261,1712.818726 1839.608521,1715.823120 
	C1854.021118,1720.421753 1859.082275,1733.000122 1853.300903,1746.915039 
	C1852.290161,1749.347412 1850.931152,1751.709961 1849.350098,1753.817749 
	C1841.357178,1764.473999 1840.927979,1776.169434 1843.115723,1788.830078 
	C1848.590698,1820.510742 1855.901733,1851.845093 1858.687012,1884.058472 
	C1859.684814,1895.598267 1858.430176,1906.556396 1857.320312,1917.629883 
	C1856.541382,1925.403320 1853.580200,1933.126099 1850.616455,1940.477539 
	C1844.353149,1956.012939 1833.300293,1967.946411 1820.066162,1977.853760 
	C1816.294556,1980.677612 1814.122192,1983.639771 1813.951904,1988.498413 
	C1813.146240,2011.499756 1808.163696,2033.867798 1803.613525,2056.327393 
	C1799.659668,2075.843018 1796.041626,2095.505371 1798.921387,2115.582031 
	C1799.382324,2118.796387 1798.382690,2120.680176 1795.785767,2122.114014 
M783.364014,1357.770020 
	C790.485107,1351.924316 798.002380,1346.489502 804.615601,1340.116821 
	C811.175415,1333.795288 812.048889,1328.103882 806.971497,1320.454102 
	C801.526062,1312.249756 794.690735,1304.954956 788.291077,1297.408081 
	C786.979309,1295.860962 784.911011,1294.955200 781.983337,1292.909790 
	C781.983337,1315.640137 781.983337,1336.819580 781.632385,1358.174561 
	C781.632385,1358.174561 781.606323,1358.641357 781.606323,1358.641357 
	C781.606323,1358.641357 782.001160,1358.015747 783.364014,1357.770020 
z"/>
<path fill="#F6B0B0" opacity="1.000000" stroke="none" 
	d="
M2334.254150,1639.881104 
	C2338.934082,1642.856567 2344.206543,1645.198364 2348.187012,1648.921387 
	C2362.478760,1662.288086 2376.260986,1676.197510 2390.390625,1689.740356 
	C2395.826416,1694.950439 2401.233398,1700.335449 2409.784912,1700.265625 
	C2411.793457,1700.249146 2414.154785,1701.947632 2415.778320,1703.470337 
	C2422.315430,1709.601562 2428.603271,1715.998169 2435.028320,1722.250000 
	C2444.090088,1731.067505 2453.203613,1739.831421 2462.268555,1748.645264 
	C2464.865234,1751.169922 2467.458252,1753.708374 2469.898438,1756.381592 
	C2474.265869,1761.166016 2479.526367,1764.174561 2485.676514,1766.375977 
	C2491.143311,1768.332886 2496.926025,1770.911987 2501.065918,1774.812256 
	C2518.940430,1791.652222 2536.034180,1809.321899 2553.941406,1826.125488 
	C2558.563477,1830.462402 2565.077881,1832.805054 2570.781250,1835.958130 
	C2573.860840,1837.660645 2577.657227,1838.510010 2580.112549,1840.824341 
	C2593.648193,1853.583130 2606.825439,1866.721436 2620.224854,1879.626221 
	C2624.554688,1883.796143 2629.384766,1886.940918 2635.515381,1888.500366 
	C2640.114990,1889.670166 2644.958008,1891.995605 2648.410156,1895.191772 
	C2662.059082,1907.827515 2675.027588,1921.197510 2688.648193,1933.865356 
	C2692.406982,1937.361450 2697.253174,1940.333008 2702.127686,1941.838989 
	C2710.099854,1944.302002 2716.180908,1948.725708 2721.802246,1954.686279 
	C2730.010742,1963.390503 2738.916016,1971.432739 2747.374023,1979.907349 
	C2753.645508,1986.191040 2753.897705,1992.939941 2748.605225,2000.054321 
	C2747.438232,2001.622803 2746.128906,2003.306763 2745.659424,2005.135986 
	C2743.021729,2015.417847 2737.442383,2023.774902 2730.137451,2031.358276 
	C2727.285156,2034.319458 2724.819092,2038.395386 2723.931885,2042.356445 
	C2721.933105,2051.282471 2716.551025,2057.645264 2710.654053,2064.073242 
	C2705.538818,2069.648926 2698.865723,2075.270264 2696.974365,2082.018555 
	C2693.162842,2095.617188 2683.132568,2103.845703 2674.876953,2113.792725 
	C2672.410156,2116.764648 2669.700684,2120.333008 2669.154297,2123.938965 
	C2667.923340,2132.069336 2663.468018,2137.884766 2658.096191,2143.423096 
	C2653.930176,2147.718750 2649.990723,2152.247070 2645.657959,2156.364014 
	C2639.683838,2162.039795 2636.862305,2169.266846 2633.592285,2176.620361 
	C2630.586426,2183.379639 2625.194092,2189.173096 2620.380859,2195.002197 
	C2616.795898,2199.343994 2612.349121,2202.961426 2608.479248,2207.082520 
	C2601.893311,2214.096436 2595.908936,2221.242188 2592.893311,2230.954102 
	C2591.130615,2236.630859 2586.206787,2241.498291 2582.132812,2246.238281 
	C2577.801025,2251.278564 2572.733398,2255.679932 2568.093994,2260.464111 
	C2561.368652,2267.399414 2555.951660,2274.925049 2552.316650,2284.241943 
	C2549.527832,2291.389404 2544.074707,2297.823242 2538.742676,2303.591309 
	C2522.993408,2320.627686 2506.661621,2337.124512 2490.714844,2353.980957 
	C2488.729736,2356.079590 2486.990967,2358.908203 2486.340820,2361.680420 
	C2484.250488,2370.594238 2478.414551,2376.845703 2472.392822,2383.100342 
	C2456.238037,2399.880371 2440.078613,2416.656494 2424.058838,2433.564453 
	C2421.832520,2435.914062 2419.314697,2438.802734 2418.764404,2441.780762 
	C2416.672119,2453.099609 2408.891846,2460.322266 2401.405273,2467.877686 
	C2383.162842,2486.288330 2365.037354,2504.816406 2346.645508,2523.076660 
	C2337.755859,2531.903076 2330.145020,2542.040527 2319.561279,2549.168457 
	C2313.723145,2553.100342 2306.962891,2554.139893 2301.230713,2549.817627 
	C2294.445068,2544.701172 2288.212402,2538.818359 2281.974365,2533.015869 
	C2269.575684,2521.482178 2257.385986,2509.724365 2244.986816,2498.191406 
	C2242.866455,2496.219482 2240.342285,2494.157471 2237.651855,2493.413574 
	C2225.662598,2490.098877 2217.580322,2482.034180 2209.268555,2473.261475 
	C2194.974609,2458.175293 2179.499512,2444.194336 2164.254883,2430.035156 
	C2161.466064,2427.444824 2157.607666,2425.475830 2153.906738,2424.514160 
	C2147.213623,2422.774414 2141.831543,2419.249268 2137.071777,2414.554199 
	C2123.155518,2400.827637 2109.674072,2386.633057 2095.294678,2373.413818 
	C2087.433838,2366.187012 2080.015625,2357.951904 2068.544678,2355.403320 
	C2064.356201,2354.472900 2060.351074,2351.098389 2057.072021,2347.985596 
	C2045.251099,2336.764893 2033.852905,2325.100586 2022.140137,2313.763916 
	C2014.998291,2306.851562 2007.687500,2300.100830 2000.201782,2293.564941 
	C1998.072998,2291.706299 1995.189697,2290.422852 1992.435303,2289.623047 
	C1983.595947,2287.057373 1976.681030,2281.648438 1970.300903,2275.375244 
	C1957.480713,2262.769775 1944.965210,2249.839600 1931.818237,2237.586182 
	C1923.747070,2230.063965 1916.244629,2221.553711 1904.320801,2219.203613 
	C1900.494263,2218.449219 1896.766846,2215.087646 1893.875000,2212.073730 
	C1883.682373,2201.450439 1871.062622,2193.053467 1864.175537,2178.391846 
	C1866.699951,2174.560547 1869.607178,2172.369141 1870.911011,2169.459473 
	C1877.942627,2153.767090 1892.161499,2144.017578 1902.393555,2130.977295 
	C1911.186035,2119.771729 1921.746338,2109.956543 1931.488770,2099.492920 
	C1940.323730,2090.003662 1949.205444,2080.555420 1957.898071,2070.936768 
	C1975.046753,2051.961182 1992.044922,2032.849365 2009.169556,2013.851807 
	C2022.740967,1998.795898 2036.663086,1984.047729 2049.961426,1968.755981 
	C2063.247314,1953.479004 2076.065430,1937.789795 2088.882080,1922.112305 
	C2104.854492,1902.574707 2121.297852,1883.368652 2136.278564,1863.089355 
	C2151.868896,1841.984497 2165.878906,1819.716675 2180.727295,1798.058105 
	C2195.342041,1776.739868 2213.434082,1760.021118 2238.576172,1751.238281 
	C2256.330078,1745.036255 2272.186523,1734.689453 2284.339600,1720.120850 
	C2296.057373,1706.074707 2305.839355,1690.615234 2314.123047,1674.156006 
	C2320.067383,1662.345459 2327.490723,1651.279419 2334.254150,1639.881104 
z"/>
<path fill="#F5AFB0" opacity="1.000000" stroke="none" 
	d="
M1060.115234,663.219604 
	C1054.790283,664.688660 1053.086060,668.533447 1054.448730,673.279663 
	C1055.877930,678.257568 1058.048828,683.118286 1060.550049,687.670532 
	C1064.375244,694.632263 1069.854736,700.861511 1072.684570,708.157104 
	C1078.720947,723.719299 1072.374756,739.096558 1057.914551,749.896545 
	C1049.675293,756.050415 1040.746704,761.307068 1031.964844,766.701233 
	C1023.258423,772.049072 1018.264343,779.546570 1015.567749,789.467834 
	C1008.421387,815.760986 996.841492,840.075928 978.439331,860.360535 
	C964.636658,875.575195 949.633911,889.714783 934.950623,904.113953 
	C909.061340,929.502502 882.372742,954.112854 857.255798,980.238342 
	C841.547058,996.577881 831.708313,1016.724670 831.201782,1040.159302 
	C831.059814,1046.727661 832.323303,1053.329224 832.986328,1059.911011 
	C833.251770,1062.546143 833.974060,1065.178101 833.906250,1067.796265 
	C833.660767,1077.273193 824.475281,1082.639160 816.239563,1077.970581 
	C808.604065,1073.642212 804.216675,1066.717163 802.032959,1058.295410 
	C799.366089,1048.009888 796.852722,1037.675537 793.803406,1027.503052 
	C792.631714,1023.594421 790.167114,1020.073364 788.062134,1015.923157 
	C776.592651,1020.589050 770.835327,1027.832764 770.028870,1038.821289 
	C768.597107,1058.329834 768.126892,1077.955933 765.652649,1097.328125 
	C763.170959,1116.757935 758.164856,1135.747559 750.947205,1154.123169 
	C739.556396,1183.123169 722.883911,1208.484253 699.628601,1229.211548 
	C684.940796,1242.302490 668.603333,1253.176636 650.750610,1261.629517 
	C646.179138,1263.794067 641.352905,1265.733398 642.010010,1272.960938 
	C626.805725,1270.462402 615.992737,1260.259766 604.894287,1250.451904 
	C602.441711,1248.284546 599.775024,1245.686157 596.788147,1244.920532 
	C587.107971,1242.439331 579.316650,1237.488647 572.382263,1230.333618 
	C568.072327,1225.886597 562.636414,1223.129517 555.956970,1221.773193 
	C550.574585,1220.680298 545.457275,1216.305908 541.161743,1212.363770 
	C536.382996,1207.978394 531.562317,1204.273926 525.168396,1202.836426 
	C513.745361,1200.268066 507.156006,1190.821411 498.576111,1184.181519 
	C494.690247,1181.174438 490.626373,1177.571289 486.087158,1176.407593 
	C476.876953,1174.046143 470.274597,1168.372070 463.689026,1162.248535 
	C456.634430,1155.688965 449.519592,1149.761353 439.598083,1147.039307 
	C433.626678,1145.401001 428.378784,1140.174438 423.476227,1135.807739 
	C415.502960,1128.705566 407.878479,1121.730957 396.820618,1119.175903 
	C392.420593,1118.159424 388.556732,1113.774170 385.004761,1110.346558 
	C376.816071,1102.444580 368.130402,1095.967651 357.075684,1091.963989 
	C350.295807,1089.508667 344.455109,1083.591919 339.099945,1078.309692 
	C333.501648,1072.787476 327.760590,1068.037476 319.951782,1066.436646 
	C312.655334,1064.940674 307.851868,1059.719849 302.680939,1055.113159 
	C298.706146,1051.572266 295.211487,1047.497192 291.303009,1043.875854 
	C283.047821,1036.227295 275.333160,1027.967407 263.860718,1024.636230 
	C256.318878,1022.446289 253.328140,1016.965393 253.449982,1008.637573 
	C253.700424,991.519104 258.451996,976.251892 268.619476,962.511719 
	C270.555176,959.895874 272.312378,956.707947 272.829681,953.566284 
	C274.287354,944.713440 280.141968,938.874756 285.769958,932.770752 
	C293.655762,924.218018 301.602203,915.719299 309.357788,907.049866 
	C311.087311,905.116455 312.929291,902.709534 313.354187,900.281799 
	C315.261871,889.381226 322.535919,882.135132 329.746307,874.738831 
	C340.648895,863.555359 351.584686,852.401428 362.308990,841.048462 
	C365.485260,837.686035 368.524658,833.983337 370.723633,829.944824 
	C380.546387,811.904907 394.156433,796.979919 408.516876,782.582275 
	C428.940491,762.105469 449.189575,741.454773 469.566528,720.931274 
	C482.220734,708.186157 494.978058,695.543518 507.681183,682.847046 
	C524.557739,665.979370 541.536133,649.211670 558.259644,632.193481 
	C569.108215,621.153748 579.462524,609.629333 590.265930,598.543884 
	C596.474548,592.173096 603.314636,586.419495 609.553711,580.076355 
	C618.806824,570.668945 627.812927,561.016968 636.826294,551.377563 
	C637.919373,550.208496 638.702576,548.553467 639.128601,546.987427 
	C643.040100,532.610474 652.453491,522.485962 664.989502,515.541870 
	C678.388367,508.119812 693.194885,508.069427 707.765686,511.149750 
	C722.426514,514.249084 736.968445,517.530457 753.461060,516.789307 
	C755.971863,517.451233 757.112000,517.644958 758.252197,517.838623 
	C764.320312,517.595947 769.928223,518.974426 775.555176,521.428101 
	C785.321289,525.686768 795.810730,524.620972 806.074036,523.979492 
	C815.139465,523.412842 823.913452,523.866150 832.562378,527.007324 
	C844.058167,531.182495 856.194153,529.586731 869.276367,530.898193 
	C871.132568,531.539429 871.779541,531.622009 872.426514,531.704529 
	C887.097107,535.699646 901.683960,539.785583 912.392822,551.768188 
	C916.154663,555.977539 919.998230,560.255615 924.442139,563.673218 
	C928.802979,567.027100 933.685242,570.338135 938.867065,571.818542 
	C944.551086,573.442444 949.225281,575.922485 953.384949,579.888306 
	C958.907166,585.153198 964.473206,590.374084 970.107910,595.518066 
	C975.535400,600.472839 981.767822,603.791077 988.659363,606.654602 
	C995.175903,609.362183 1000.781555,614.503784 1006.397339,619.056519 
	C1010.508423,622.389343 1013.704224,626.854309 1017.828186,630.167114 
	C1021.892822,633.432190 1026.301025,637.405640 1031.105957,638.386475 
	C1042.579102,640.728394 1049.548584,648.173706 1055.988525,656.769043 
	C1057.379639,658.625671 1058.546021,660.650696 1060.115234,663.219604 
z"/>
<path fill="#F4A8AA" opacity="1.000000" stroke="none" 
	d="
M2334.096191,1639.189697 
	C2327.490723,1651.279419 2320.067383,1662.345459 2314.123047,1674.156006 
	C2305.839355,1690.615234 2296.057373,1706.074707 2284.339600,1720.120850 
	C2272.186523,1734.689453 2256.330078,1745.036255 2238.576172,1751.238281 
	C2213.434082,1760.021118 2195.342041,1776.739868 2180.727295,1798.058105 
	C2165.878906,1819.716675 2151.868896,1841.984497 2136.278564,1863.089355 
	C2121.297852,1883.368652 2104.854492,1902.574707 2088.882080,1922.112305 
	C2076.065430,1937.789795 2063.247314,1953.479004 2049.961426,1968.755981 
	C2036.663086,1984.047729 2022.740967,1998.795898 2009.169556,2013.851807 
	C1992.044922,2032.849365 1975.046753,2051.961182 1957.898071,2070.936768 
	C1949.205444,2080.555420 1940.323730,2090.003662 1931.488770,2099.492920 
	C1921.746338,2109.956543 1911.186035,2119.771729 1902.393555,2130.977295 
	C1892.161499,2144.017578 1877.942627,2153.767090 1870.911011,2169.459473 
	C1869.607178,2172.369141 1866.699951,2174.560547 1864.192139,2177.685791 
	C1857.708130,2176.468506 1853.283203,2172.411133 1848.581665,2168.161865 
	C1843.873169,2163.906494 1837.491211,2161.477051 1831.771729,2158.378174 
	C1829.196777,2156.983154 1825.911255,2156.483887 1823.873047,2154.585205 
	C1814.966431,2146.288574 1806.318237,2137.706787 1797.802124,2129.007324 
	C1796.630859,2127.811035 1796.726074,2125.374756 1796.010254,2122.813477 
	C1798.382690,2120.680176 1799.382324,2118.796387 1798.921387,2115.582031 
	C1796.041626,2095.505371 1799.659668,2075.843018 1803.613525,2056.327393 
	C1808.163696,2033.867798 1813.146240,2011.499756 1813.951904,1988.498413 
	C1814.122192,1983.639771 1816.294556,1980.677612 1820.066162,1977.853760 
	C1833.300293,1967.946411 1844.353149,1956.012939 1850.616455,1940.477539 
	C1853.580200,1933.126099 1856.541382,1925.403320 1857.320312,1917.629883 
	C1858.430176,1906.556396 1859.684814,1895.598267 1858.687012,1884.058472 
	C1855.901733,1851.845093 1848.590698,1820.510742 1843.115723,1788.830078 
	C1840.927979,1776.169434 1841.357178,1764.473999 1849.350098,1753.817749 
	C1850.931152,1751.709961 1852.290161,1749.347412 1853.300903,1746.915039 
	C1859.082275,1733.000122 1854.021118,1720.421753 1839.608521,1715.823120 
	C1830.192261,1712.818726 1824.674438,1707.648926 1820.998535,1698.468994 
	C1813.057861,1678.638916 1805.529419,1658.665649 1802.603394,1637.496216 
	C1800.600952,1623.007812 1801.076660,1608.242310 1806.067017,1594.083740 
	C1806.390137,1593.166992 1806.818481,1592.231567 1807.426025,1591.492554 
	C1807.772339,1591.071411 1808.581665,1591.031006 1810.130981,1590.484375 
	C1812.188477,1595.848755 1814.008301,1601.381958 1816.396606,1606.657837 
	C1821.595825,1618.143555 1826.943970,1629.567261 1832.496338,1640.886230 
	C1837.669800,1651.432251 1840.983154,1662.347046 1842.277466,1674.115601 
	C1844.213379,1691.716919 1859.081421,1701.315430 1878.311279,1697.340088 
	C1890.789673,1694.760376 1903.255005,1693.797729 1915.937378,1693.937500 
	C1930.269531,1694.095459 1941.364258,1700.435303 1950.542358,1710.892090 
	C1951.857666,1712.390747 1953.049805,1714.010742 1954.463135,1715.408325 
	C1960.418701,1721.296875 1967.252686,1721.905884 1974.113403,1716.826904 
	C1989.931641,1705.116699 2007.680176,1699.525269 2027.268799,1700.050049 
	C2041.533936,1700.432129 2055.783447,1701.362915 2070.044189,1701.938843 
	C2090.195557,1702.752563 2109.734375,1699.275269 2128.911621,1693.338013 
	C2146.709961,1687.827515 2164.625732,1682.672729 2182.302979,1676.799194 
	C2205.891602,1668.961304 2227.881592,1657.334473 2246.732666,1641.460693 
	C2260.799072,1629.615723 2276.056885,1621.062012 2293.412354,1614.066406 
	C2312.306152,1614.189331 2325.966553,1621.731567 2334.096191,1639.189697 
z"/>
<path fill="#F5A9AB" opacity="1.000000" stroke="none" 
	d="
M1618.520508,757.599304 
	C1621.393555,759.804626 1623.550781,761.964783 1625.424805,765.539917 
	C1624.944580,776.806885 1623.075562,786.986816 1624.929565,796.436340 
	C1627.966797,811.915344 1633.424438,826.919373 1637.855957,843.045898 
	C1637.860962,847.620178 1638.093018,851.287537 1637.845093,854.922058 
	C1636.501587,874.614624 1645.470459,889.023804 1661.615845,898.872437 
	C1692.469482,917.693176 1723.720459,935.861816 1754.758179,954.382141 
	C1761.572144,958.448181 1768.256470,959.221558 1775.512329,955.463135 
	C1778.703857,953.809937 1782.383301,953.098938 1785.841309,951.960205 
	C1788.834839,954.580688 1791.833374,957.195496 1794.821045,959.822632 
	C1810.527100,973.633240 1826.135498,987.557007 1841.958252,1001.232605 
	C1862.624023,1019.093933 1882.469482,1037.768433 1899.734131,1058.997559 
	C1902.798340,1062.765381 1904.848022,1067.358643 1907.813232,1072.318359 
	C1900.463135,1075.092407 1893.849976,1074.536133 1887.519043,1073.313477 
	C1869.387085,1069.811890 1852.303223,1073.322266 1836.292480,1081.398926 
	C1822.044434,1088.586304 1817.833130,1102.546143 1816.144043,1117.171753 
	C1815.384399,1123.748169 1815.674316,1130.503418 1816.062744,1137.143921 
	C1817.187500,1156.362793 1811.033447,1173.033936 1799.335327,1188.034912 
	C1788.666626,1201.715698 1784.533569,1217.904663 1784.269897,1234.722168 
	C1784.068237,1247.577148 1786.087036,1260.487061 1787.427246,1273.340332 
	C1788.699097,1285.538452 1789.920532,1297.773071 1792.013916,1309.844238 
	C1793.656128,1319.314453 1796.645752,1328.547363 1798.942017,1337.908813 
	C1800.721069,1345.162231 1800.904175,1352.258423 1796.113037,1359.495850 
	C1794.001099,1357.984985 1792.020508,1356.917358 1790.470947,1355.407715 
	C1762.053589,1327.721069 1736.624512,1297.436035 1714.072510,1264.865723 
	C1690.172241,1230.348145 1673.111694,1192.570557 1663.479248,1151.567261 
	C1658.217285,1129.168213 1646.744019,1109.775024 1634.097168,1090.912354 
	C1624.494263,1076.590088 1612.294678,1063.736816 1606.732056,1047.065430 
	C1602.975586,1035.806396 1599.445312,1024.148071 1598.237671,1012.418701 
	C1593.316162,964.619629 1597.150146,916.615356 1595.979126,868.712280 
	C1595.418823,845.786682 1594.666870,822.865845 1594.014160,799.010437 
	C1593.556885,782.493347 1600.727295,770.371582 1611.583130,760.073486 
	C1613.094116,758.640259 1615.703735,758.365295 1618.520508,757.599304 
z"/>
<path fill="#EF9C9E" opacity="1.000000" stroke="none" 
	d="
M723.056885,1897.812500 
	C725.120544,1899.805664 727.206177,1901.848267 727.747864,1904.240479 
	C731.103394,1919.058228 734.426147,1933.897461 737.148315,1948.840820 
	C739.935852,1964.143677 737.832886,1978.523438 726.620911,1991.073853 
	C721.979614,1988.817383 719.672791,1984.668091 718.596802,1980.373047 
	C716.600830,1972.405396 714.959290,1964.267822 714.164856,1956.104126 
	C713.429199,1948.544434 713.977844,1940.858154 713.992859,1933.227661 
	C713.999878,1929.663208 713.479187,1926.507202 708.233887,1925.812256 
	C710.240417,1918.790039 712.801697,1911.782104 716.054749,1905.111694 
	C717.389771,1902.374146 720.216858,1900.364258 723.056885,1897.812500 
z"/>
<path fill="#B98787" opacity="1.000000" stroke="none" 
	d="
M757.947937,517.260864 
	C757.112000,517.644958 755.971863,517.451233 754.385986,516.880371 
	C755.174744,516.563110 756.409241,516.623108 757.947937,517.260864 
z"/>
<path fill="#B68585" opacity="1.000000" stroke="none" 
	d="
M872.149414,531.254272 
	C871.779541,531.622009 871.132568,531.539429 870.194702,531.040039 
	C870.559937,530.683411 871.216125,530.743713 872.149414,531.254272 
z"/>
<path fill="#ED8082" opacity="1.000000" stroke="none" 
	d="
M1785.777954,951.261902 
	C1782.383301,953.098938 1778.703857,953.809937 1775.512329,955.463135 
	C1768.256470,959.221558 1761.572144,958.448181 1754.758179,954.382141 
	C1723.720459,935.861816 1692.469482,917.693176 1661.615845,898.872437 
	C1645.470459,889.023804 1636.501587,874.614624 1637.845093,854.922058 
	C1638.093018,851.287537 1637.860962,847.620178 1638.558838,842.902771 
	C1645.536743,839.252258 1648.488403,834.202759 1650.103516,827.897278 
	C1650.969849,824.515259 1652.589111,821.326172 1653.868652,818.050049 
	C1658.913696,826.219177 1663.934570,834.403381 1669.007812,842.554932 
	C1691.222656,878.249878 1721.918091,904.500916 1759.124512,923.525818 
	C1770.960327,929.577881 1780.673462,937.792725 1785.777954,951.261902 
z"/>
<path fill="#E66568" opacity="1.000000" stroke="none" 
	d="
M1653.763672,817.273682 
	C1652.589111,821.326172 1650.969849,824.515259 1650.103516,827.897278 
	C1648.488403,834.202759 1645.536743,839.252258 1638.564331,841.980591 
	C1633.424438,826.919373 1627.966797,811.915344 1624.929565,796.436340 
	C1623.075562,786.986816 1624.944580,776.806885 1625.573486,766.186646 
	C1634.223022,769.237305 1639.518555,776.190308 1642.807739,783.994812 
	C1647.230469,794.489380 1650.114258,805.632507 1653.763672,817.273682 
z"/>
<path fill="#F29B9F" opacity="1.000000" stroke="none" 
	d="
M781.983337,1357.999023 
	C781.983337,1336.819580 781.983337,1315.640137 781.983337,1292.909790 
	C784.911011,1294.955200 786.979309,1295.860962 788.291077,1297.408081 
	C794.690735,1304.954956 801.526062,1312.249756 806.971497,1320.454102 
	C812.048889,1328.103882 811.175415,1333.795288 804.615601,1340.116821 
	C798.002380,1346.489502 790.485107,1351.924316 782.682007,1357.885010 
	C782.000000,1358.000000 781.983337,1357.999023 781.983337,1357.999023 
z"/>
<path fill="#F5AFB0" opacity="1.000000" stroke="none" 
	d="
M782.000610,1358.007812 
	C782.001160,1358.015747 781.606323,1358.641357 781.606323,1358.641357 
	C781.606323,1358.641357 781.632385,1358.174561 781.807861,1358.086792 
	C781.983337,1357.999023 782.000000,1358.000000 782.000610,1358.007812 
z"/>
</svg>