<svg version="1.1" id="Layer_1" xmlns="http://www.w3.org/2000/svg" xmlns:xlink="http://www.w3.org/1999/xlink" x="0px" y="0px"
	 width="100%" viewBox="0 0 3000 3000" enable-background="new 0 0 3000 3000" xml:space="preserve">
<path fill="#FAF1E2" opacity="1.000000" stroke="none" 
	d="
M1662.000000,3002.000000 
	C1108.000122,3002.000000 555.000183,3002.000000 2.000223,3002.000000 
	C2.000148,2002.000244 2.000148,1002.000549 2.000074,2.000625 
	C1001.999512,2.000417 2001.999023,2.000417 3001.999023,2.000208 
	C3001.999268,1001.999329 3001.999268,2001.998657 3001.999512,3001.999023 
	C2555.666748,3002.000000 2109.333252,3002.000000 1662.000000,3002.000000 
M2333.853760,1638.590698 
	C2330.254150,1634.388916 2326.821289,1630.029297 2323.020264,1626.018188 
	C2315.192383,1617.756836 2305.046143,1614.799072 2293.965820,1612.492798 
	C2293.545898,1607.165405 2290.669434,1603.297974 2286.887939,1599.749023 
	C2274.025146,1587.677368 2261.155762,1575.606812 2248.546631,1563.272583 
	C2233.539062,1548.592529 2218.705078,1533.731079 2203.991699,1518.756226 
	C2198.984131,1513.659912 2193.628174,1509.834106 2186.606201,1507.691895 
	C2181.709961,1506.197876 2176.894775,1503.168213 2173.067383,1499.695801 
	C2164.292236,1491.734375 2156.140869,1483.084595 2147.740967,1474.709717 
	C2122.486572,1449.531128 2097.143066,1424.441284 2072.033447,1399.119141 
	C2063.580078,1390.594482 2063.623291,1382.351196 2071.620361,1373.594604 
	C2077.649658,1366.992676 2084.291016,1360.932861 2090.092773,1354.146851 
	C2093.264160,1350.437378 2097.236816,1345.775269 2097.355957,1341.446655 
	C2097.579346,1333.315186 2102.161621,1328.746216 2107.072021,1323.821167 
	C2110.366455,1320.516968 2113.952148,1317.445801 2116.864258,1313.832397 
	C2120.161377,1309.741089 2123.656982,1305.489136 2125.605957,1300.711304 
	C2128.191162,1294.372803 2129.362305,1287.457520 2131.068359,1281.062500 
	C2141.435547,1277.731689 2149.886230,1269.488647 2152.482422,1258.874634 
	C2154.474854,1250.728394 2159.021240,1244.510864 2164.495605,1238.665527 
	C2167.000488,1235.990967 2169.645508,1233.446655 2172.247070,1230.863647 
	C2176.330078,1226.809570 2179.425537,1222.424561 2180.426514,1216.396362 
	C2181.047852,1212.656250 2183.020020,1208.792114 2185.384277,1205.763428 
	C2190.080078,1199.748535 2195.363037,1194.175537 2200.601074,1188.605957 
	C2204.575684,1184.379761 2207.395020,1179.949463 2208.217773,1173.880371 
	C2208.711914,1170.233643 2211.214844,1166.576904 2213.598145,1163.538696 
	C2216.663574,1159.630981 2220.679932,1156.485352 2223.987061,1152.746338 
	C2228.833252,1147.267090 2233.163330,1141.653931 2234.596191,1133.929688 
	C2235.386230,1129.671265 2238.401855,1125.568604 2241.193359,1122.005859 
	C2244.460449,1117.835815 2248.930908,1114.611816 2252.224609,1110.458252 
	C2255.699219,1106.076538 2260.059814,1101.404663 2261.054688,1096.281006 
	C2262.559326,1088.532959 2266.125488,1082.662231 2271.496094,1077.584229 
	C2277.001953,1072.378418 2280.258301,1066.112305 2282.724121,1059.031372 
	C2284.195312,1054.806763 2287.019287,1050.922363 2289.787354,1047.307739 
	C2295.227539,1040.204346 2303.077637,1034.197998 2306.218994,1026.267456 
	C2310.386230,1015.748047 2315.761719,1006.730225 2323.486572,998.767639 
	C2327.416748,994.716797 2331.442139,990.682678 2334.800293,986.175964 
	C2337.693848,982.292786 2340.579590,978.001282 2341.885742,973.437256 
	C2343.598145,967.454102 2346.003662,962.337280 2350.630127,958.152649 
	C2354.085693,955.027039 2357.602539,951.849487 2360.437988,948.188538 
	C2363.867188,943.760681 2368.619873,939.032959 2369.203613,934.016418 
	C2370.247314,925.046875 2375.345703,919.572632 2381.015869,913.914368 
	C2384.554688,910.382935 2388.479736,907.150208 2391.526855,903.235168 
	C2395.974121,897.520569 2401.002686,891.784668 2403.561768,885.195251 
	C2406.669434,877.192688 2411.038330,870.467407 2416.755127,864.387878 
	C2420.635254,860.261536 2425.204834,856.684692 2428.550537,852.181885 
	C2432.229980,847.230042 2434.900879,841.521423 2437.933838,836.099060 
	C2440.003906,832.397888 2441.317871,828.071106 2444.051514,824.980652 
	C2452.864502,815.016846 2462.332031,805.633667 2471.209229,795.723816 
	C2474.006348,792.601440 2476.798584,788.776733 2477.734131,784.832458 
	C2479.599854,776.968323 2483.814697,771.045532 2489.321777,765.472534 
	C2498.907959,755.772217 2508.051025,745.635498 2517.563965,735.860840 
	C2523.549316,729.710999 2529.643555,723.628601 2536.099121,717.985107 
	C2543.752686,711.294373 2549.732178,703.606812 2553.705566,694.202148 
	C2555.475342,690.013672 2557.680176,685.757446 2560.648682,682.375183 
	C2568.978516,672.883850 2577.773193,663.798218 2586.454834,654.618896 
	C2590.805176,650.019287 2595.535156,645.761719 2599.687988,640.996094 
	C2605.707275,634.089111 2605.487061,628.047668 2598.926270,621.841064 
	C2592.411377,615.677979 2585.675049,609.721008 2578.704102,604.083557 
	C2576.239746,602.090698 2572.787354,601.328552 2569.803711,599.966492 
	C2565.385742,597.949890 2560.749512,596.284668 2556.623535,593.781921 
	C2548.466064,588.833618 2542.792725,580.144775 2532.732910,577.982056 
	C2526.682861,576.681335 2522.066162,573.135498 2517.599121,568.898865 
	C2511.896729,563.490784 2506.112061,558.338501 2497.403320,557.147705 
	C2492.910156,556.533386 2488.652100,552.649658 2484.760010,549.633972 
	C2481.098877,546.797302 2478.357178,542.763062 2474.665039,539.979980 
	C2470.510742,536.848328 2466.043457,533.481018 2461.177002,532.094727 
	C2453.533447,529.917358 2446.862793,526.766663 2441.708496,520.725037 
	C2437.214355,515.456848 2431.464600,512.501526 2424.940430,510.459595 
	C2421.215820,509.293823 2417.425537,507.576233 2414.368408,505.201416 
	C2408.342529,500.520721 2402.996094,494.968048 2396.993164,490.254486 
	C2393.694824,487.664978 2389.638916,486.036896 2385.912354,483.997528 
	C2380.736572,481.164856 2375.353760,478.653839 2370.419922,475.450653 
	C2365.162109,472.037170 2360.768066,465.777466 2355.210693,464.655518 
	C2343.455566,462.282379 2336.003174,454.894440 2327.912842,447.383972 
	C2323.148438,442.960968 2317.453125,438.109467 2311.450684,436.815155 
	C2304.024170,435.213654 2298.978516,431.478851 2293.571777,426.940399 
	C2288.572754,422.744385 2283.076904,418.438232 2277.048340,416.343323 
	C2268.898193,413.511230 2262.265381,409.332245 2256.134766,403.402100 
	C2252.738525,400.116486 2247.875488,398.279633 2243.537842,396.053986 
	C2239.500732,393.982422 2234.774658,392.932526 2231.245605,390.254913 
	C2222.010498,383.248230 2213.656250,375.157532 2201.655762,372.528809 
	C2198.443115,371.825104 2195.939941,368.185608 2192.938721,366.147675 
	C2187.808105,362.664185 2182.928955,358.187988 2177.227295,356.337097 
	C2171.072998,354.339172 2165.554688,352.059509 2160.661377,347.833344 
	C2153.399170,341.560944 2146.326904,335.008575 2136.332764,332.944214 
	C2133.212402,332.299591 2130.440430,329.962250 2127.511230,328.396027 
	C2122.585938,325.762726 2117.658447,323.133728 2112.739258,320.489166 
	C2108.691650,318.313202 2104.473145,316.392517 2100.651611,313.871918 
	C2093.036865,308.849060 2087.090332,301.143097 2076.592529,300.971771 
	C2073.824707,300.926605 2071.140381,297.486969 2068.366943,295.684570 
	C2062.916992,292.142609 2058.430664,286.735748 2050.743164,287.656982 
	C2048.760010,287.894653 2046.515137,285.990723 2044.397339,285.054749 
	C2040.773682,283.453278 2037.210693,281.697418 2033.522339,280.263336 
	C2027.740601,278.015381 2021.875732,275.981232 2014.055908,273.131134 
	C2002.572754,273.982727 1991.699219,280.046082 1984.477051,292.166534 
	C1983.977051,293.005676 1983.156006,293.660919 1982.452515,294.370239 
	C1970.052612,306.873444 1957.432861,319.169617 1945.370728,331.990601 
	C1941.617310,335.980316 1937.753540,341.090454 1936.810791,346.215607 
	C1935.364868,354.076172 1931.215454,359.522461 1926.050537,364.752258 
	C1917.151367,373.763245 1908.299194,382.825287 1899.209106,391.640961 
	C1894.047729,396.646637 1890.736816,402.462982 1888.300171,409.221039 
	C1886.558838,414.050201 1883.626343,418.722870 1880.263428,422.639374 
	C1872.467163,431.719025 1863.937012,440.165222 1856.025513,449.151093 
	C1853.222534,452.334961 1850.388916,456.060944 1849.243896,460.023285 
	C1846.430298,469.760223 1840.497314,477.063599 1833.405273,483.800049 
	C1829.057129,487.930328 1824.579834,491.997070 1820.756470,496.588470 
	C1816.323486,501.911743 1810.868896,507.244324 1808.863037,513.531555 
	C1805.659790,523.571899 1799.148560,530.779114 1792.677490,538.253906 
	C1788.760498,542.778564 1784.230591,546.768555 1780.045166,551.066040 
	C1773.741089,557.539001 1768.248291,564.438232 1765.748047,573.476440 
	C1764.819946,576.831116 1762.572754,580.106079 1760.167725,582.718201 
	C1748.901611,594.954407 1737.366089,606.942444 1725.936279,619.028137 
	C1719.739014,625.581177 1714.224854,632.472046 1711.680542,641.467957 
	C1710.728149,644.835327 1708.593506,648.163757 1706.197998,650.776489 
	C1695.631592,662.301208 1684.830200,673.613037 1673.991455,684.884216 
	C1670.005615,689.029236 1666.460693,693.168701 1665.679077,699.252930 
	C1664.935791,705.040344 1661.775635,709.609863 1657.532349,713.716125 
	C1647.235474,723.680969 1637.289307,734.007263 1627.097168,744.082092 
	C1623.195557,747.938782 1620.025513,752.057739 1618.295166,757.885620 
	C1616.756104,758.354614 1614.904541,758.426514 1613.725952,759.353699 
	C1601.227539,769.185669 1593.879272,781.715210 1592.447510,798.036621 
	C1586.630615,797.841858 1582.167847,800.008789 1579.188354,805.206848 
	C1578.216675,806.901917 1576.664429,808.290649 1575.268677,809.712402 
	C1546.221313,839.297791 1517.166138,868.875244 1488.090942,898.433167 
	C1483.234131,903.370667 1478.300659,908.233704 1473.361816,913.089539 
	C1465.603394,920.717346 1457.510132,928.031311 1450.119995,935.998840 
	C1443.335571,943.313232 1437.536987,943.928223 1431.309937,936.390503 
	C1426.858398,931.002197 1421.259277,927.511047 1414.702026,926.079590 
	C1407.542847,924.516846 1401.900513,921.016541 1396.887817,915.893250 
	C1388.037964,906.848328 1378.818359,898.158997 1370.125366,888.969116 
	C1364.922363,883.468750 1358.879883,879.842651 1351.788696,877.491638 
	C1348.382812,876.362488 1344.710449,875.075195 1342.060181,872.806519 
	C1333.501221,865.479858 1325.336426,857.690613 1317.066895,850.028870 
	C1311.014282,844.421204 1305.132812,838.623779 1298.958984,833.155029 
	C1297.312866,831.696899 1294.909302,830.405640 1292.789185,830.297058 
	C1285.832764,829.940735 1281.119019,825.836182 1276.574463,821.420654 
	C1268.215210,813.298767 1260.261230,804.737854 1251.599121,796.960510 
	C1248.086670,793.806763 1243.205688,792.139893 1238.868286,789.953430 
	C1235.094116,788.050781 1230.557739,787.117371 1227.491943,784.451721 
	C1217.717041,775.952454 1208.388428,766.930847 1199.055908,757.936096 
	C1194.653931,753.693359 1190.336182,749.911133 1183.649414,749.799133 
	C1181.195068,749.758118 1178.322266,748.490784 1176.413696,746.871399 
	C1170.103882,741.517334 1164.074219,735.823853 1158.074219,730.116333 
	C1151.578369,723.937134 1145.437134,716.953430 1136.478638,714.677490 
	C1129.642212,712.940613 1124.449707,709.286804 1119.634399,704.637512 
	C1114.603638,699.780212 1109.960327,694.472168 1104.597412,690.024719 
	C1100.611450,686.719238 1096.056763,683.413208 1091.203857,681.994812 
	C1083.267822,679.675232 1076.406006,676.366943 1070.972656,670.037354 
	C1068.186523,666.791687 1065.278564,663.305115 1059.554199,662.704407 
	C1057.399048,659.345703 1055.802002,655.383789 1052.966187,652.760925 
	C1047.932495,648.105164 1042.712280,642.358826 1036.543335,640.527222 
	C1027.439209,637.824036 1020.498352,632.879517 1013.913147,626.754700 
	C1010.743347,623.806458 1007.694519,620.720215 1004.704895,617.587708 
	C999.320496,611.946045 993.097290,607.960510 985.596252,605.366333 
	C980.738159,603.686096 976.218506,600.416077 972.190613,597.081238 
	C965.028625,591.151611 958.630981,584.285217 951.362305,578.503784 
	C947.647400,575.548950 942.720459,574.130859 938.373657,571.953735 
	C934.584290,570.055786 930.366333,568.637390 927.182556,565.990845 
	C921.822144,561.534973 917.350037,556.023621 912.094910,551.424011 
	C907.121033,547.070679 902.173279,541.899719 896.240173,539.589539 
	C882.714783,534.323120 868.983765,529.234375 853.882874,529.819153 
	C847.338623,530.072632 840.322266,529.613647 834.233582,527.460999 
	C825.137817,524.245178 816.051941,523.832397 806.713989,523.976379 
	C801.050781,524.063782 795.350525,524.435181 789.731812,523.940979 
	C784.501709,523.481140 778.999695,522.869446 774.269653,520.819641 
	C768.840820,518.466980 763.446411,518.248718 757.813171,517.711792 
	C744.310242,516.424683 730.871399,514.477539 717.395203,512.894531 
	C708.186157,511.812775 698.964478,510.827118 689.736633,509.919250 
	C670.607849,508.037292 647.190125,521.863098 639.754333,545.261047 
	C638.600342,548.892395 636.178772,552.435242 633.507446,555.216064 
	C621.281311,567.942932 608.688843,580.316895 596.363831,592.950134 
	C587.546448,601.987976 579.137756,611.429932 570.196960,620.340698 
	C558.974243,631.525757 547.202515,642.161255 536.021240,653.386047 
	C524.357910,665.094849 513.290466,677.396423 501.654144,689.133179 
	C470.923828,720.128784 440.084167,751.016602 409.167084,781.825989 
	C396.891541,794.058838 384.587830,806.303589 375.911835,821.436768 
	C367.532532,836.052429 356.287018,848.199646 344.690979,860.128174 
	C337.492004,867.533630 330.014465,874.675293 322.991974,882.241638 
	C320.105438,885.351685 317.027802,888.955322 315.874298,892.875122 
	C312.617432,903.942505 305.291077,911.835205 297.601196,919.787598 
	C286.568817,931.196594 274.392303,941.910095 270.729736,958.514099 
	C270.390015,960.054138 269.208984,961.456726 268.252075,962.804932 
	C258.574188,976.440125 253.582565,991.524231 253.933578,1008.322205 
	C254.145065,1018.443848 256.289490,1022.310181 265.696136,1025.480103 
	C273.215546,1028.014038 279.373535,1032.098022 284.777710,1037.727295 
	C289.622040,1042.773315 294.342682,1048.027710 299.735931,1052.433838 
	C306.112335,1057.643066 312.623596,1063.264648 320.043335,1066.467163 
	C328.514404,1070.123535 336.136169,1074.276733 342.156586,1081.229370 
	C348.227386,1088.240234 355.767792,1092.787109 364.692780,1095.278687 
	C367.182098,1095.973633 369.737701,1097.170044 371.721405,1098.796753 
	C377.372437,1103.431030 382.628052,1108.546997 388.273041,1113.188965 
	C391.307343,1115.684082 394.562012,1118.726685 398.168762,1119.554077 
	C408.161530,1121.846558 415.132538,1128.096069 422.241577,1134.796753 
	C427.257141,1139.524292 432.794067,1144.984375 439.060883,1146.806274 
	C449.241760,1149.766113 456.582703,1155.689819 463.947266,1162.576172 
	C468.721680,1167.040527 474.050842,1171.837402 480.023315,1173.890015 
	C490.504944,1177.492310 499.052338,1183.132202 506.312836,1191.224609 
	C511.322784,1196.808838 517.411499,1200.743408 524.773499,1202.528198 
	C531.800354,1204.231689 537.529114,1207.902832 542.320801,1213.341064 
	C546.569275,1218.162964 551.586121,1221.504272 558.347717,1222.640625 
	C562.335449,1223.310791 566.128296,1226.073242 569.639954,1228.441528 
	C576.209717,1232.872070 581.910400,1239.359009 589.072754,1241.953979 
	C598.562988,1245.392578 605.940186,1250.803955 612.882324,1257.606934 
	C620.889954,1265.454102 629.678894,1271.858643 642.068298,1271.662720 
	C648.915649,1280.771851 656.253113,1288.774780 668.546570,1290.897339 
	C673.080627,1291.680176 677.366455,1295.358521 681.186890,1298.434814 
	C685.574463,1301.967773 688.984497,1306.736084 693.443604,1310.152832 
	C697.535706,1313.288696 702.233765,1316.740234 707.071960,1317.516846 
	C713.165710,1318.494751 717.604797,1321.377197 721.821777,1325.065308 
	C726.075867,1328.785767 729.917236,1332.979248 733.926758,1336.978149 
	C737.773376,1340.814575 742.014465,1343.391846 747.680786,1344.337280 
	C751.669434,1345.002808 755.392578,1347.734863 759.038147,1349.877808 
	C765.733643,1353.814087 770.261963,1361.482178 779.483765,1360.853882 
	C780.072021,1368.522461 783.703003,1371.937622 791.048218,1372.498291 
	C794.320923,1372.748047 797.696777,1375.368896 800.465088,1377.607178 
	C804.332642,1380.734009 807.424500,1384.824341 811.307861,1387.927002 
	C815.912415,1391.605591 820.611328,1396.359375 825.978333,1397.613892 
	C834.256836,1399.549194 840.679932,1403.347412 846.345093,1409.228027 
	C849.810974,1412.825806 853.136475,1416.637939 857.016296,1419.739136 
	C862.658081,1424.249023 868.205383,1429.795288 874.768433,1432.013550 
	C884.017517,1435.139526 891.217834,1440.538086 897.803345,1446.985229 
	C916.367310,1465.159424 934.576782,1483.695312 953.002380,1502.011597 
	C957.170105,1506.154663 960.109985,1510.579834 960.189087,1516.801392 
	C960.219788,1519.208374 962.046326,1521.567017 962.924133,1523.994995 
	C964.012939,1527.006226 965.562988,1530.007568 965.870056,1533.116211 
	C966.937012,1543.916504 963.300598,1553.874878 960.790649,1564.228516 
	C958.528076,1573.562012 954.983948,1580.950806 947.987793,1586.961182 
	C943.243713,1591.036865 940.649658,1596.213257 938.799805,1602.058716 
	C937.614258,1605.805298 936.243958,1609.802246 933.843201,1612.793457 
	C928.242249,1619.771851 922.171265,1626.407715 915.924927,1632.826416 
	C903.845276,1645.239258 891.402344,1657.299316 879.365662,1669.752563 
	C876.444885,1672.774292 873.376587,1676.458984 872.360291,1680.356323 
	C869.887512,1689.838745 864.562927,1697.054565 857.574280,1703.488892 
	C853.166748,1707.546509 848.713318,1711.646851 844.917419,1716.252930 
	C840.121094,1722.073120 835.712830,1728.259888 831.623657,1734.602173 
	C828.074036,1740.107788 825.779907,1746.483521 821.879639,1751.686523 
	C817.321777,1757.766479 811.488342,1762.873169 806.458252,1768.620728 
	C801.452332,1774.341064 796.512573,1779.967529 795.666992,1788.305054 
	C795.302734,1791.897217 792.577454,1795.556885 790.149109,1798.558105 
	C786.814026,1802.680054 782.724304,1806.188354 778.989746,1809.990845 
	C774.286560,1814.779663 770.792114,1820.041992 769.083252,1826.854004 
	C767.838928,1831.814209 764.839233,1836.550537 761.779053,1840.776123 
	C758.882446,1844.775635 754.854919,1847.948486 751.382812,1851.541016 
	C746.506836,1856.585693 742.094238,1861.694336 741.538696,1869.388794 
	C741.323853,1872.363770 738.727905,1875.257202 736.943665,1878.010986 
	C732.123474,1885.450317 724.401978,1890.876343 720.357361,1900.130859 
	C714.118713,1906.890869 712.922546,1915.811279 708.857605,1924.607544 
	C702.241333,1927.648315 697.063660,1932.006226 695.177124,1939.425415 
	C692.890808,1948.416870 687.703796,1955.451416 681.224060,1962.015991 
	C675.463074,1967.852295 669.497131,1973.879395 667.537170,1982.444824 
	C665.848145,1989.826294 661.898926,1995.797974 656.205872,2000.797363 
	C651.629639,2004.815918 648.453491,2009.588013 647.441223,2015.990234 
	C646.325378,2023.047485 642.359192,2029.014648 637.047424,2033.735107 
	C631.600769,2038.575562 628.606201,2044.571655 626.194397,2051.299805 
	C624.567932,2055.837402 621.755615,2060.080566 618.866882,2064.009277 
	C610.907959,2074.833740 599.432556,2083.206299 596.803467,2097.725830 
	C596.224915,2100.920898 592.814331,2103.681641 590.495911,2106.466064 
	C586.036987,2111.821289 580.782715,2116.842285 580.106140,2124.195312 
	C579.576965,2129.947021 576.543823,2133.868164 573.086487,2138.074707 
	C568.095215,2144.148193 562.735107,2150.326416 559.555298,2157.372559 
	C555.958191,2165.343506 552.533142,2172.884521 546.128052,2179.182861 
	C542.541199,2182.709717 539.507507,2187.720947 538.389465,2192.563232 
	C537.382751,2196.923096 536.213501,2200.559814 533.420471,2204.063965 
	C528.481506,2210.260742 523.128052,2216.383545 519.590942,2223.369141 
	C516.024841,2230.412354 513.886414,2238.125977 508.601227,2244.346191 
	C504.493469,2249.180420 504.186340,2255.890625 506.811646,2260.429443 
	C514.707825,2274.080322 526.013672,2284.927979 539.351868,2293.431396 
	C541.475098,2294.784912 544.528809,2294.584961 546.959229,2295.576416 
	C549.660095,2296.678223 552.565247,2297.866211 554.646423,2299.805420 
	C568.030273,2312.275391 581.324707,2324.846436 594.428894,2337.609863 
	C607.077515,2349.929688 619.375244,2362.610107 632.028748,2374.924805 
	C634.821655,2377.642822 638.179504,2380.628418 641.766968,2381.519531 
	C651.650879,2383.975830 658.881226,2390.321289 665.720337,2396.923340 
	C695.812744,2425.973389 725.606140,2455.333740 755.458862,2484.631592 
	C760.885681,2489.957764 766.104248,2495.497070 771.381714,2500.973877 
	C777.794373,2507.628662 784.025330,2514.465332 790.597412,2520.957520 
	C797.406616,2527.683838 804.953674,2533.701172 811.430298,2540.718750 
	C826.345947,2556.880371 843.234436,2570.712402 860.370178,2584.370117 
	C874.890869,2595.943604 889.604980,2607.447998 902.889526,2620.365234 
	C937.523682,2654.041748 971.225342,2688.675537 1005.712585,2722.505859 
	C1018.383911,2734.935547 1019.367798,2735.156006 1032.259277,2722.526367 
	C1063.670288,2691.753174 1094.594238,2660.481689 1125.619995,2629.317383 
	C1133.114014,2621.789551 1140.088501,2613.874756 1142.830078,2603.069580 
	C1143.523438,2600.336914 1145.556519,2597.716309 1147.546875,2595.577637 
	C1159.313110,2582.932861 1171.404541,2570.588135 1183.040527,2557.826660 
	C1187.005615,2553.478027 1189.987671,2548.229248 1193.377197,2543.362305 
	C1194.463135,2541.802979 1195.123657,2539.074219 1196.473267,2538.709229 
	C1207.567871,2535.708008 1210.782837,2526.038574 1215.533936,2517.440674 
	C1218.702148,2511.707275 1222.305054,2506.089355 1226.515747,2501.096191 
	C1229.876709,2497.110596 1234.724976,2494.418457 1238.421997,2490.668213 
	C1244.685303,2484.314209 1251.122192,2477.998535 1256.444092,2470.886963 
	C1261.894287,2463.604004 1268.558960,2457.125488 1270.799316,2447.443115 
	C1272.160156,2441.562012 1276.673218,2436.843018 1281.869629,2432.671875 
	C1289.651855,2426.425293 1299.296387,2420.914307 1298.890503,2409.028564 
	C1310.236694,2405.872803 1316.131714,2397.275635 1322.368530,2389.145020 
	C1323.319702,2387.905273 1323.969238,2386.052979 1323.933472,2384.503174 
	C1323.778687,2377.824951 1327.485229,2373.298340 1331.923462,2369.071777 
	C1337.224854,2364.023193 1342.836060,2359.248291 1347.702271,2353.808594 
	C1353.410645,2347.426758 1361.312500,2341.171143 1363.208252,2333.595947 
	C1367.212769,2317.593750 1378.454590,2308.226807 1389.482056,2298.358887 
	C1396.060059,2292.472412 1402.377808,2286.232422 1404.787476,2277.979980 
	C1409.154175,2263.025879 1419.292847,2252.753174 1430.382812,2243.159912 
	C1433.571289,2240.401367 1435.831909,2237.690918 1437.293335,2233.862061 
	C1439.531250,2227.999023 1441.150513,2221.540283 1444.800415,2216.655762 
	C1450.927124,2208.456299 1458.077271,2200.910156 1465.508423,2193.836670 
	C1470.317505,2189.259033 1473.394531,2184.632324 1474.425659,2177.913330 
	C1475.022827,2174.022461 1477.840332,2170.128662 1480.522461,2166.969727 
	C1486.920898,2159.433838 1493.916504,2152.408936 1500.493652,2145.019775 
	C1503.111450,2142.078857 1506.709229,2138.992676 1507.363281,2135.504395 
	C1509.682495,2123.136719 1517.976685,2115.522217 1526.402222,2107.371094 
	C1532.193237,2101.768311 1538.195312,2096.036621 1540.639404,2087.438232 
	C1543.477661,2077.453125 1549.134277,2068.857666 1557.105591,2061.811279 
	C1562.835449,2056.745850 1567.995117,2051.033936 1573.392456,2045.593750 
	C1578.090942,2040.857788 1581.859863,2035.912109 1583.031006,2028.785889 
	C1583.790649,2024.163818 1586.659424,2019.421265 1589.783447,2015.755615 
	C1595.601318,2008.929199 1602.132690,2002.676270 1608.684814,1996.522827 
	C1612.643555,1992.804932 1618.300781,1993.254883 1623.359741,1996.224731 
	C1628.169678,1999.048096 1633.345581,2001.240356 1638.271606,2003.876343 
	C1642.023682,2005.884155 1646.120239,2007.613647 1649.223755,2010.401611 
	C1660.346924,2020.394897 1671.098267,2030.801147 1682.020142,2041.019287 
	C1686.878540,2045.564575 1691.720825,2049.679932 1699.015625,2050.464844 
	C1702.578003,2050.848389 1706.285400,2053.645752 1709.134521,2056.225586 
	C1719.981201,2066.047852 1730.654053,2076.075195 1741.089111,2086.333740 
	C1746.657837,2091.808105 1752.630371,2096.082275 1760.175903,2098.551514 
	C1764.083984,2099.830322 1767.433960,2102.922363 1770.920166,2105.360840 
	C1779.522339,2111.377930 1785.691895,2120.735352 1796.221191,2125.301514 
	C1805.968018,2135.436768 1815.655518,2145.630859 1825.534180,2155.635986 
	C1826.818970,2156.937012 1829.020630,2157.613281 1830.914185,2157.985352 
	C1839.781616,2159.726562 1846.686279,2164.523193 1852.245972,2171.400391 
	C1855.210205,2175.067139 1859.011230,2176.460449 1863.749634,2177.809570 
	C1865.666016,2181.264160 1866.968018,2185.310303 1869.615723,2188.060791 
	C1877.180908,2195.919189 1885.181396,2203.373291 1893.242920,2210.732178 
	C1896.644653,2213.837402 1900.258301,2217.691406 1904.417114,2218.801025 
	C1916.694214,2222.077148 1924.969727,2230.739746 1933.591553,2238.836670 
	C1945.732300,2250.238281 1957.237305,2262.314697 1969.122803,2273.991943 
	C1976.036621,2280.784668 1983.411621,2286.904053 1993.125732,2289.508545 
	C1995.602051,2290.172363 1998.149414,2291.458984 2000.073975,2293.136230 
	C2007.338257,2299.468262 2014.522095,2305.911865 2021.434204,2312.624512 
	C2032.191040,2323.070557 2042.792358,2333.680908 2053.279785,2344.397705 
	C2059.003906,2350.246826 2065.448975,2354.577881 2073.397461,2356.845703 
	C2076.495605,2357.729980 2079.707520,2359.252197 2082.108887,2361.352051 
	C2090.618896,2368.792236 2098.939453,2376.464844 2107.072266,2384.318115 
	C2116.420166,2393.344238 2125.564453,2402.585205 2134.658203,2411.869385 
	C2140.349609,2417.680176 2146.589355,2422.318848 2154.608643,2424.577637 
	C2158.042480,2425.544922 2161.636230,2427.302979 2164.218994,2429.708984 
	C2179.277588,2443.737793 2194.555420,2457.590820 2208.742676,2472.472168 
	C2217.132812,2481.272949 2225.285645,2489.488770 2237.355713,2492.901855 
	C2240.092285,2493.675781 2242.707031,2495.671143 2244.835449,2497.678955 
	C2261.020264,2512.947998 2277.267090,2528.160889 2293.075195,2543.814697 
	C2300.505371,2551.172119 2309.817871,2554.656738 2317.085938,2550.312256 
	C2322.452148,2547.104248 2327.492676,2543.080322 2331.948975,2538.681396 
	C2339.712891,2531.017090 2346.731445,2522.603027 2354.388916,2514.824463 
	C2371.921631,2497.014648 2389.626465,2479.374023 2407.315674,2461.719238 
	C2412.605713,2456.439453 2416.493408,2450.568359 2418.340820,2443.112549 
	C2419.246338,2439.458008 2421.652588,2435.825684 2424.265381,2433.002930 
	C2437.150146,2419.081543 2450.307373,2405.411377 2463.421143,2391.703369 
	C2468.027588,2386.888672 2473.012939,2382.417969 2477.390869,2377.410400 
	C2480.189453,2374.209717 2483.087158,2370.606689 2484.377197,2366.671631 
	C2487.607178,2356.819580 2493.887939,2349.224365 2500.869873,2342.087402 
	C2513.875732,2328.791992 2527.346191,2315.941895 2540.088379,2302.403076 
	C2545.019531,2297.163818 2550.194580,2291.083740 2552.249756,2284.453857 
	C2555.506592,2273.947021 2562.085938,2266.578613 2569.490234,2259.358154 
	C2573.546143,2255.403320 2577.764160,2251.572998 2581.455078,2247.294922 
	C2587.052734,2240.807129 2593.242920,2234.716064 2594.749512,2225.494873 
	C2595.239990,2222.491455 2597.695068,2219.548828 2599.863281,2217.125732 
	C2607.843994,2208.205811 2616.339844,2199.736328 2624.116211,2190.647705 
	C2628.145752,2185.938477 2632.235840,2180.690918 2634.229248,2174.966064 
	C2637.302246,2166.139893 2642.651367,2159.200928 2648.668457,2152.549561 
	C2652.911621,2147.858398 2657.746582,2143.697021 2661.915771,2138.946777 
	C2664.274658,2136.259033 2667.149658,2132.988525 2667.464600,2129.753662 
	C2668.163086,2122.579102 2671.336914,2117.275879 2676.192383,2112.372803 
	C2680.628906,2107.893311 2684.581299,2102.938721 2688.887939,2098.324463 
	C2692.585938,2094.362305 2695.413086,2090.263428 2696.225342,2084.539307 
	C2696.750244,2080.840332 2698.931396,2077.093994 2701.223389,2074.001221 
	C2703.975098,2070.288574 2707.675293,2067.287598 2710.890625,2063.907959 
	C2716.639160,2057.865967 2721.429688,2051.456299 2723.650391,2042.994385 
	C2724.927246,2038.128052 2728.085938,2033.255371 2731.646240,2029.602661 
	C2737.377441,2023.722534 2741.828857,2017.513794 2743.987305,2009.492676 
	C2744.905518,2006.080200 2746.899170,2002.799438 2749.004395,1999.893799 
	C2755.265625,1991.252075 2755.400391,1988.560791 2748.030029,1981.021362 
	C2737.780518,1970.536987 2727.474854,1960.092041 2716.793701,1950.055054 
	C2713.817627,1947.258423 2709.395752,1946.027832 2705.704346,1943.958618 
	C2700.275146,1940.915527 2694.171143,1938.580566 2689.648926,1934.507324 
	C2675.810303,1922.042847 2662.728516,1908.742065 2649.033936,1896.111694 
	C2645.473877,1892.828369 2641.013672,1889.360474 2636.501465,1888.541626 
	C2629.732178,1887.313232 2624.987549,1883.982422 2620.358643,1879.493286 
	C2606.743652,1866.288818 2593.111572,1853.095337 2579.172852,1840.237305 
	C2576.146973,1837.446167 2571.838623,1836.025269 2568.076172,1834.059082 
	C2563.420410,1831.626099 2558.120117,1830.004883 2554.169922,1826.737549 
	C2547.563965,1821.273926 2541.803223,1814.787598 2535.693848,1808.724487 
	C2524.141602,1797.260376 2512.846436,1785.518555 2500.903320,1774.477173 
	C2496.913086,1770.788208 2491.552002,1767.657471 2486.317871,1766.466064 
	C2479.312500,1764.871338 2474.300781,1761.154053 2469.669678,1756.312012 
	C2468.302002,1754.882080 2467.438965,1752.955322 2466.026611,1751.584106 
	C2450.741211,1736.745728 2435.621826,1721.722168 2419.915039,1707.341187 
	C2415.454102,1703.256836 2409.250732,1701.062134 2403.811523,1698.064453 
	C2400.371582,1696.168457 2396.325195,1694.993896 2393.487305,1692.451050 
	C2383.088135,1683.132690 2373.030762,1673.428955 2362.945557,1663.765015 
	C2357.171875,1658.232178 2351.851074,1652.198730 2345.825928,1646.967285 
	C2342.437012,1644.024658 2338.030273,1642.254272 2333.853760,1638.590698 
z"/>
<path fill="#F6B0B2" opacity="1.000000" stroke="none" 
	d="
M1796.379883,2123.893555 
	C1785.691895,2120.735352 1779.522339,2111.377930 1770.920166,2105.360840 
	C1767.433960,2102.922363 1764.083984,2099.830322 1760.175903,2098.551514 
	C1752.630371,2096.082275 1746.657837,2091.808105 1741.089111,2086.333740 
	C1730.654053,2076.075195 1719.981201,2066.047852 1709.134521,2056.225586 
	C1706.285400,2053.645752 1702.578003,2050.848389 1699.015625,2050.464844 
	C1691.720825,2049.679932 1686.878540,2045.564575 1682.020142,2041.019287 
	C1671.098267,2030.801147 1660.346924,2020.394897 1649.223755,2010.401611 
	C1646.120239,2007.613647 1642.023682,2005.884155 1638.271606,2003.876343 
	C1633.345581,2001.240356 1628.169678,1999.048096 1623.359741,1996.224731 
	C1618.300781,1993.254883 1612.643555,1992.804932 1608.684814,1996.522827 
	C1602.132690,2002.676270 1595.601318,2008.929199 1589.783447,2015.755615 
	C1586.659424,2019.421265 1583.790649,2024.163818 1583.031006,2028.785889 
	C1581.859863,2035.912109 1578.090942,2040.857788 1573.392456,2045.593750 
	C1567.995117,2051.033936 1562.835449,2056.745850 1557.105591,2061.811279 
	C1549.134277,2068.857666 1543.477661,2077.453125 1540.639404,2087.438232 
	C1538.195312,2096.036621 1532.193237,2101.768311 1526.402222,2107.371094 
	C1517.976685,2115.522217 1509.682495,2123.136719 1507.363281,2135.504395 
	C1506.709229,2138.992676 1503.111450,2142.078857 1500.493652,2145.019775 
	C1493.916504,2152.408936 1486.920898,2159.433838 1480.522461,2166.969727 
	C1477.840332,2170.128662 1475.022827,2174.022461 1474.425659,2177.913330 
	C1473.394531,2184.632324 1470.317505,2189.259033 1465.508423,2193.836670 
	C1458.077271,2200.910156 1450.927124,2208.456299 1444.800415,2216.655762 
	C1441.150513,2221.540283 1439.531250,2227.999023 1437.293335,2233.862061 
	C1435.831909,2237.690918 1433.571289,2240.401367 1430.382812,2243.159912 
	C1419.292847,2252.753174 1409.154175,2263.025879 1404.787476,2277.979980 
	C1402.377808,2286.232422 1396.060059,2292.472412 1389.482056,2298.358887 
	C1378.454590,2308.226807 1367.212769,2317.593750 1363.208252,2333.595947 
	C1361.312500,2341.171143 1353.410645,2347.426758 1347.702271,2353.808594 
	C1342.836060,2359.248291 1337.224854,2364.023193 1331.923462,2369.071777 
	C1327.485229,2373.298340 1323.778687,2377.824951 1323.933472,2384.503174 
	C1323.969238,2386.052979 1323.319702,2387.905273 1322.368530,2389.145020 
	C1316.131714,2397.275635 1310.236694,2405.872803 1298.890503,2409.028564 
	C1299.296387,2420.914307 1289.651855,2426.425293 1281.869629,2432.671875 
	C1276.673218,2436.843018 1272.160156,2441.562012 1270.799316,2447.443115 
	C1268.558960,2457.125488 1261.894287,2463.604004 1256.444092,2470.886963 
	C1251.122192,2477.998535 1244.685303,2484.314209 1238.421997,2490.668213 
	C1234.724976,2494.418457 1229.876709,2497.110596 1226.515747,2501.096191 
	C1222.305054,2506.089355 1218.702148,2511.707275 1215.533936,2517.440674 
	C1210.782837,2526.038574 1207.567871,2535.708008 1196.473267,2538.709229 
	C1195.123657,2539.074219 1194.463135,2541.802979 1193.377197,2543.362305 
	C1189.987671,2548.229248 1187.005615,2553.478027 1183.040527,2557.826660 
	C1171.404541,2570.588135 1159.313110,2582.932861 1147.546875,2595.577637 
	C1145.556519,2597.716309 1143.523438,2600.336914 1142.830078,2603.069580 
	C1140.088501,2613.874756 1133.114014,2621.789551 1125.619995,2629.317383 
	C1094.594238,2660.481689 1063.670288,2691.753174 1032.259277,2722.526367 
	C1019.367798,2735.156006 1018.383911,2734.935547 1005.712585,2722.505859 
	C971.225342,2688.675537 937.523682,2654.041748 902.889526,2620.365234 
	C889.604980,2607.447998 874.890869,2595.943604 860.370178,2584.370117 
	C843.234436,2570.712402 826.345947,2556.880371 811.430298,2540.718750 
	C804.953674,2533.701172 797.406616,2527.683838 790.597412,2520.957520 
	C784.025330,2514.465332 777.794373,2507.628662 771.381714,2500.973877 
	C766.104248,2495.497070 760.885681,2489.957764 755.458862,2484.631592 
	C725.606140,2455.333740 695.812744,2425.973389 665.720337,2396.923340 
	C658.881226,2390.321289 651.650879,2383.975830 641.766968,2381.519531 
	C638.179504,2380.628418 634.821655,2377.642822 632.028748,2374.924805 
	C619.375244,2362.610107 607.077515,2349.929688 594.428894,2337.609863 
	C581.324707,2324.846436 568.030273,2312.275391 554.646423,2299.805420 
	C552.565247,2297.866211 549.660095,2296.678223 546.959229,2295.576416 
	C544.528809,2294.584961 541.475098,2294.784912 539.351868,2293.431396 
	C526.013672,2284.927979 514.707825,2274.080322 506.811646,2260.429443 
	C504.186340,2255.890625 504.493469,2249.180420 508.601227,2244.346191 
	C513.886414,2238.125977 516.024841,2230.412354 519.590942,2223.369141 
	C523.128052,2216.383545 528.481506,2210.260742 533.420471,2204.063965 
	C536.213501,2200.559814 537.382751,2196.923096 538.389465,2192.563232 
	C539.507507,2187.720947 542.541199,2182.709717 546.128052,2179.182861 
	C552.533142,2172.884521 555.958191,2165.343506 559.555298,2157.372559 
	C562.735107,2150.326416 568.095215,2144.148193 573.086487,2138.074707 
	C576.543823,2133.868164 579.576965,2129.947021 580.106140,2124.195312 
	C580.782715,2116.842285 586.036987,2111.821289 590.495911,2106.466064 
	C592.814331,2103.681641 596.224915,2100.920898 596.803467,2097.725830 
	C599.432556,2083.206299 610.907959,2074.833740 618.866882,2064.009277 
	C621.755615,2060.080566 624.567932,2055.837402 626.194397,2051.299805 
	C628.606201,2044.571655 631.600769,2038.575562 637.047424,2033.735107 
	C642.359192,2029.014648 646.325378,2023.047485 647.441223,2015.990234 
	C648.453491,2009.588013 651.629639,2004.815918 656.205872,2000.797363 
	C661.898926,1995.797974 665.848145,1989.826294 667.537170,1982.444824 
	C669.497131,1973.879395 675.463074,1967.852295 681.224060,1962.015991 
	C687.703796,1955.451416 692.890808,1948.416870 695.177124,1939.425415 
	C697.063660,1932.006226 702.241333,1927.648315 710.151611,1924.731689 
	C712.298340,1927.925537 713.765076,1930.971191 713.886414,1934.069580 
	C714.224731,1942.707886 713.418152,1951.418091 714.150879,1960.007324 
	C715.123840,1971.412598 716.709778,1982.899292 726.185669,1991.511841 
	C738.640808,1978.035400 739.961670,1962.506470 736.968994,1946.270630 
	C734.394287,1932.302490 730.783264,1918.527710 728.057068,1904.583862 
	C727.259644,1900.505371 724.910645,1900.038940 721.778992,1899.850098 
	C724.401978,1890.876343 732.123474,1885.450317 736.943665,1878.010986 
	C738.727905,1875.257202 741.323853,1872.363770 741.538696,1869.388794 
	C742.094238,1861.694336 746.506836,1856.585693 751.382812,1851.541016 
	C754.854919,1847.948486 758.882446,1844.775635 761.779053,1840.776123 
	C764.839233,1836.550537 767.838928,1831.814209 769.083252,1826.854004 
	C770.792114,1820.041992 774.286560,1814.779663 778.989746,1809.990845 
	C782.724304,1806.188354 786.814026,1802.680054 790.149109,1798.558105 
	C792.577454,1795.556885 795.302734,1791.897217 795.666992,1788.305054 
	C796.512573,1779.967529 801.452332,1774.341064 806.458252,1768.620728 
	C811.488342,1762.873169 817.321777,1757.766479 821.879639,1751.686523 
	C825.779907,1746.483521 828.074036,1740.107788 831.623657,1734.602173 
	C835.712830,1728.259888 840.121094,1722.073120 844.917419,1716.252930 
	C848.713318,1711.646851 853.166748,1707.546509 857.574280,1703.488892 
	C864.562927,1697.054565 869.887512,1689.838745 872.360291,1680.356323 
	C873.376587,1676.458984 876.444885,1672.774292 879.365662,1669.752563 
	C891.402344,1657.299316 903.845276,1645.239258 915.924927,1632.826416 
	C922.171265,1626.407715 928.242249,1619.771851 933.843201,1612.793457 
	C936.243958,1609.802246 937.614258,1605.805298 938.799805,1602.058716 
	C940.649658,1596.213257 943.243713,1591.036865 947.987793,1586.961182 
	C954.983948,1580.950806 958.528076,1573.562012 960.790649,1564.228516 
	C963.300598,1553.874878 966.937012,1543.916504 965.870056,1533.116211 
	C965.562988,1530.007568 964.012939,1527.006226 962.924133,1523.994995 
	C962.046326,1521.567017 960.219788,1519.208374 960.189087,1516.801392 
	C960.109985,1510.579834 957.170105,1506.154663 953.002380,1502.011597 
	C934.576782,1483.695312 916.367310,1465.159424 897.803345,1446.985229 
	C891.217834,1440.538086 884.017517,1435.139526 874.768433,1432.013550 
	C868.205383,1429.795288 862.658081,1424.249023 857.016296,1419.739136 
	C853.136475,1416.637939 849.810974,1412.825806 846.345093,1409.228027 
	C840.679932,1403.347412 834.256836,1399.549194 825.978333,1397.613892 
	C820.611328,1396.359375 815.912415,1391.605591 811.307861,1387.927002 
	C807.424500,1384.824341 804.332642,1380.734009 800.465088,1377.607178 
	C797.696777,1375.368896 794.320923,1372.748047 791.048218,1372.498291 
	C783.703003,1371.937622 780.072021,1368.522461 779.483765,1360.853882 
	C770.261963,1361.482178 765.733643,1353.814087 759.038147,1349.877808 
	C755.392578,1347.734863 751.669434,1345.002808 747.680786,1344.337280 
	C742.014465,1343.391846 737.773376,1340.814575 733.926758,1336.978149 
	C729.917236,1332.979248 726.075867,1328.785767 721.821777,1325.065308 
	C717.604797,1321.377197 713.165710,1318.494751 707.071960,1317.516846 
	C702.233765,1316.740234 697.535706,1313.288696 693.443604,1310.152832 
	C688.984497,1306.736084 685.574463,1301.967773 681.186890,1298.434814 
	C677.366455,1295.358521 673.080627,1291.680176 668.546570,1290.897339 
	C656.253113,1288.774780 648.915649,1280.771851 642.086243,1270.255615 
	C643.996948,1262.747925 650.042603,1262.165649 654.567993,1259.841797 
	C681.568726,1245.977173 704.888855,1227.664917 723.412598,1203.516602 
	C739.790161,1182.166138 750.650146,1158.160889 758.398865,1132.434814 
	C767.313660,1102.837280 767.740784,1072.270264 769.673828,1041.933350 
	C770.489014,1029.140747 776.888489,1022.242493 787.742249,1015.165710 
	C790.140442,1020.115234 792.664978,1023.955933 793.913269,1028.174316 
	C796.920898,1038.337891 799.121704,1048.738525 802.048096,1058.928467 
	C804.413940,1067.166260 808.886658,1074.167969 816.739258,1078.268799 
	C824.637329,1082.393188 833.580139,1077.233765 833.910034,1068.384766 
	C834.019409,1065.453491 832.895264,1062.487183 832.908752,1059.539307 
	C832.961548,1047.977905 832.070679,1036.249268 833.699585,1024.893921 
	C836.549316,1005.027161 848.364014,989.452271 861.788757,975.391785 
	C877.890381,958.527649 894.569397,942.207703 911.222595,925.880676 
	C918.565308,918.681824 926.210510,911.742004 934.155334,905.216675 
	C952.996094,889.742188 969.952148,872.332092 984.959717,853.284180 
	C999.690002,834.588013 1009.696167,813.087769 1015.574707,789.933289 
	C1018.177307,779.682251 1023.415344,771.803406 1032.470337,766.404236 
	C1037.604614,763.342834 1042.605713,760.047729 1047.822876,757.138123 
	C1057.291748,751.857361 1065.159546,744.777100 1070.836914,735.643677 
	C1074.720093,729.396606 1075.942627,722.337769 1074.635620,714.778748 
	C1072.797241,704.146545 1067.019897,695.564636 1060.300903,687.847717 
	C1055.648193,682.504150 1055.787842,676.269287 1054.322876,670.341003 
	C1053.356689,666.431213 1056.302734,664.326721 1060.185913,663.922913 
	C1065.278564,663.305115 1068.186523,666.791687 1070.972656,670.037354 
	C1076.406006,676.366943 1083.267822,679.675232 1091.203857,681.994812 
	C1096.056763,683.413208 1100.611450,686.719238 1104.597412,690.024719 
	C1109.960327,694.472168 1114.603638,699.780212 1119.634399,704.637512 
	C1124.449707,709.286804 1129.642212,712.940613 1136.478638,714.677490 
	C1145.437134,716.953430 1151.578369,723.937134 1158.074219,730.116333 
	C1164.074219,735.823853 1170.103882,741.517334 1176.413696,746.871399 
	C1178.322266,748.490784 1181.195068,749.758118 1183.649414,749.799133 
	C1190.336182,749.911133 1194.653931,753.693359 1199.055908,757.936096 
	C1208.388428,766.930847 1217.717041,775.952454 1227.491943,784.451721 
	C1230.557739,787.117371 1235.094116,788.050781 1238.868286,789.953430 
	C1243.205688,792.139893 1248.086670,793.806763 1251.599121,796.960510 
	C1260.261230,804.737854 1268.215210,813.298767 1276.574463,821.420654 
	C1281.119019,825.836182 1285.832764,829.940735 1292.789185,830.297058 
	C1294.909302,830.405640 1297.312866,831.696899 1298.958984,833.155029 
	C1305.132812,838.623779 1311.014282,844.421204 1317.066895,850.028870 
	C1325.336426,857.690613 1333.501221,865.479858 1342.060181,872.806519 
	C1344.710449,875.075195 1348.382812,876.362488 1351.788696,877.491638 
	C1358.879883,879.842651 1364.922363,883.468750 1370.125366,888.969116 
	C1378.818359,898.158997 1388.037964,906.848328 1396.887817,915.893250 
	C1401.900513,921.016541 1407.542847,924.516846 1414.702026,926.079590 
	C1421.259277,927.511047 1426.858398,931.002197 1431.309937,936.390503 
	C1437.536987,943.928223 1443.335571,943.313232 1450.119995,935.998840 
	C1457.510132,928.031311 1465.603394,920.717346 1473.361816,913.089539 
	C1478.300659,908.233704 1483.234131,903.370667 1488.090942,898.433167 
	C1517.166138,868.875244 1546.221313,839.297791 1575.268677,809.712402 
	C1576.664429,808.290649 1578.216675,806.901917 1579.188354,805.206848 
	C1582.167847,800.008789 1586.630615,797.841858 1593.226318,798.963440 
	C1594.670044,822.143250 1595.746460,844.393127 1595.911255,866.649841 
	C1596.219727,908.313538 1595.850708,949.982178 1596.112427,991.646545 
	C1596.172485,1001.224487 1596.864014,1010.940430 1598.633057,1020.335266 
	C1602.040039,1038.428223 1608.525513,1055.402832 1619.521362,1070.496338 
	C1627.333618,1081.220215 1634.846313,1092.176636 1642.132324,1103.265991 
	C1652.412109,1118.912109 1660.225586,1135.647339 1664.113281,1154.143188 
	C1665.748657,1161.923706 1668.206665,1169.559692 1670.701050,1177.126221 
	C1681.709229,1210.518921 1697.406372,1241.489624 1717.950684,1270.112793 
	C1739.894409,1300.685425 1763.951904,1329.387085 1790.804443,1355.741821 
	C1792.330688,1357.239502 1794.297607,1358.288086 1796.005249,1359.506958 
	C1796.955566,1358.412720 1797.507202,1357.993774 1797.774170,1357.438110 
	C1802.560425,1347.472778 1798.341797,1337.946045 1796.383301,1328.280640 
	C1794.150024,1317.260132 1791.900757,1306.235840 1790.039062,1295.149414 
	C1788.834106,1287.974854 1788.195679,1280.696777 1787.508301,1273.445557 
	C1786.259399,1260.268188 1783.955811,1247.044312 1784.301270,1233.897949 
	C1784.759766,1216.442139 1789.910278,1200.230591 1800.873657,1185.761353 
	C1810.388672,1173.203979 1816.677979,1158.858887 1816.055176,1142.349365 
	C1815.741211,1134.027954 1815.567261,1125.657104 1816.100220,1117.357910 
	C1817.060425,1102.399414 1822.211548,1089.011841 1835.956909,1081.519775 
	C1851.465942,1073.066528 1868.393555,1070.070923 1886.069946,1073.035767 
	C1893.161743,1074.225098 1900.204468,1075.010498 1907.718872,1072.432007 
	C1906.722290,1070.622803 1906.157837,1069.458984 1905.471313,1068.372314 
	C1888.514771,1041.536133 1864.563843,1021.336121 1841.121582,1000.668518 
	C1826.938477,988.164246 1812.610474,975.824280 1798.388916,963.363342 
	C1794.147827,959.647339 1790.046509,955.771790 1785.835938,951.264893 
	C1781.311035,938.287354 1772.225098,930.463257 1761.063232,924.429565 
	C1745.286011,915.901062 1729.745728,907.056519 1715.911499,895.383484 
	C1683.477783,868.016296 1658.685669,835.791931 1647.575317,793.952209 
	C1644.411743,782.038879 1638.083618,771.254761 1625.932617,764.797791 
	C1623.786621,762.043152 1621.751221,759.914795 1619.715820,757.786438 
	C1620.025513,752.057739 1623.195557,747.938782 1627.097168,744.082092 
	C1637.289307,734.007263 1647.235474,723.680969 1657.532349,713.716125 
	C1661.775635,709.609863 1664.935791,705.040344 1665.679077,699.252930 
	C1666.460693,693.168701 1670.005615,689.029236 1673.991455,684.884216 
	C1684.830200,673.613037 1695.631592,662.301208 1706.197998,650.776489 
	C1708.593506,648.163757 1710.728149,644.835327 1711.680542,641.467957 
	C1714.224854,632.472046 1719.739014,625.581177 1725.936279,619.028137 
	C1737.366089,606.942444 1748.901611,594.954407 1760.167725,582.718201 
	C1762.572754,580.106079 1764.819946,576.831116 1765.748047,573.476440 
	C1768.248291,564.438232 1773.741089,557.539001 1780.045166,551.066040 
	C1784.230591,546.768555 1788.760498,542.778564 1792.677490,538.253906 
	C1799.148560,530.779114 1805.659790,523.571899 1808.863037,513.531555 
	C1810.868896,507.244324 1816.323486,501.911743 1820.756470,496.588470 
	C1824.579834,491.997070 1829.057129,487.930328 1833.405273,483.800049 
	C1840.497314,477.063599 1846.430298,469.760223 1849.243896,460.023285 
	C1850.388916,456.060944 1853.222534,452.334961 1856.025513,449.151093 
	C1863.937012,440.165222 1872.467163,431.719025 1880.263428,422.639374 
	C1883.626343,418.722870 1886.558838,414.050201 1888.300171,409.221039 
	C1890.736816,402.462982 1894.047729,396.646637 1899.209106,391.640961 
	C1908.299194,382.825287 1917.151367,373.763245 1926.050537,364.752258 
	C1931.215454,359.522461 1935.364868,354.076172 1936.810791,346.215607 
	C1937.753540,341.090454 1941.617310,335.980316 1945.370728,331.990601 
	C1957.432861,319.169617 1970.052612,306.873444 1982.452515,294.370239 
	C1983.156006,293.660919 1983.977051,293.005676 1984.477051,292.166534 
	C1991.699219,280.046082 2002.572754,273.982727 2014.055908,273.131134 
	C2021.875732,275.981232 2027.740601,278.015381 2033.522339,280.263336 
	C2037.210693,281.697418 2040.773682,283.453278 2044.397339,285.054749 
	C2046.515137,285.990723 2048.760010,287.894653 2050.743164,287.656982 
	C2058.430664,286.735748 2062.916992,292.142609 2068.366943,295.684570 
	C2071.140381,297.486969 2073.824707,300.926605 2076.592529,300.971771 
	C2087.090332,301.143097 2093.036865,308.849060 2100.651611,313.871918 
	C2104.473145,316.392517 2108.691650,318.313202 2112.739258,320.489166 
	C2117.658447,323.133728 2122.585938,325.762726 2127.511230,328.396027 
	C2130.440430,329.962250 2133.212402,332.299591 2136.332764,332.944214 
	C2146.326904,335.008575 2153.399170,341.560944 2160.661377,347.833344 
	C2165.554688,352.059509 2171.072998,354.339172 2177.227295,356.337097 
	C2182.928955,358.187988 2187.808105,362.664185 2192.938721,366.147675 
	C2195.939941,368.185608 2198.443115,371.825104 2201.655762,372.528809 
	C2213.656250,375.157532 2222.010498,383.248230 2231.245605,390.254913 
	C2234.774658,392.932526 2239.500732,393.982422 2243.537842,396.053986 
	C2247.875488,398.279633 2252.738525,400.116486 2256.134766,403.402100 
	C2262.265381,409.332245 2268.898193,413.511230 2277.048340,416.343323 
	C2283.076904,418.438232 2288.572754,422.744385 2293.571777,426.940399 
	C2298.978516,431.478851 2304.024170,435.213654 2311.450684,436.815155 
	C2317.453125,438.109467 2323.148438,442.960968 2327.912842,447.383972 
	C2336.003174,454.894440 2343.455566,462.282379 2355.210693,464.655518 
	C2360.768066,465.777466 2365.162109,472.037170 2370.419922,475.450653 
	C2375.353760,478.653839 2380.736572,481.164856 2385.912354,483.997528 
	C2389.638916,486.036896 2393.694824,487.664978 2396.993164,490.254486 
	C2402.996094,494.968048 2408.342529,500.520721 2414.368408,505.201416 
	C2417.425537,507.576233 2421.215820,509.293823 2424.940430,510.459595 
	C2431.464600,512.501526 2437.214355,515.456848 2441.708496,520.725037 
	C2446.862793,526.766663 2453.533447,529.917358 2461.177002,532.094727 
	C2466.043457,533.481018 2470.510742,536.848328 2474.665039,539.979980 
	C2478.357178,542.763062 2481.098877,546.797302 2484.760010,549.633972 
	C2488.652100,552.649658 2492.910156,556.533386 2497.403320,557.147705 
	C2506.112061,558.338501 2511.896729,563.490784 2517.599121,568.898865 
	C2522.066162,573.135498 2526.682861,576.681335 2532.732910,577.982056 
	C2542.792725,580.144775 2548.466064,588.833618 2556.623535,593.781921 
	C2560.749512,596.284668 2565.385742,597.949890 2569.803711,599.966492 
	C2572.787354,601.328552 2576.239746,602.090698 2578.704102,604.083557 
	C2585.675049,609.721008 2592.411377,615.677979 2598.926270,621.841064 
	C2605.487061,628.047668 2605.707275,634.089111 2599.687988,640.996094 
	C2595.535156,645.761719 2590.805176,650.019287 2586.454834,654.618896 
	C2577.773193,663.798218 2568.978516,672.883850 2560.648682,682.375183 
	C2557.680176,685.757446 2555.475342,690.013672 2553.705566,694.202148 
	C2549.732178,703.606812 2543.752686,711.294373 2536.099121,717.985107 
	C2529.643555,723.628601 2523.549316,729.710999 2517.563965,735.860840 
	C2508.051025,745.635498 2498.907959,755.772217 2489.321777,765.472534 
	C2483.814697,771.045532 2479.599854,776.968323 2477.734131,784.832458 
	C2476.798584,788.776733 2474.006348,792.601440 2471.209229,795.723816 
	C2462.332031,805.633667 2452.864502,815.016846 2444.051514,824.980652 
	C2441.317871,828.071106 2440.003906,832.397888 2437.933838,836.099060 
	C2434.900879,841.521423 2432.229980,847.230042 2428.550537,852.181885 
	C2425.204834,856.684692 2420.635254,860.261536 2416.755127,864.387878 
	C2411.038330,870.467407 2406.669434,877.192688 2403.561768,885.195251 
	C2401.002686,891.784668 2395.974121,897.520569 2391.526855,903.235168 
	C2388.479736,907.150208 2384.554688,910.382935 2381.015869,913.914368 
	C2375.345703,919.572632 2370.247314,925.046875 2369.203613,934.016418 
	C2368.619873,939.032959 2363.867188,943.760681 2360.437988,948.188538 
	C2357.602539,951.849487 2354.085693,955.027039 2350.630127,958.152649 
	C2346.003662,962.337280 2343.598145,967.454102 2341.885742,973.437256 
	C2340.579590,978.001282 2337.693848,982.292786 2334.800293,986.175964 
	C2331.442139,990.682678 2327.416748,994.716797 2323.486572,998.767639 
	C2315.761719,1006.730225 2310.386230,1015.748047 2306.218994,1026.267456 
	C2303.077637,1034.197998 2295.227539,1040.204346 2289.787354,1047.307739 
	C2287.019287,1050.922363 2284.195312,1054.806763 2282.724121,1059.031372 
	C2280.258301,1066.112305 2277.001953,1072.378418 2271.496094,1077.584229 
	C2266.125488,1082.662231 2262.559326,1088.532959 2261.054688,1096.281006 
	C2260.059814,1101.404663 2255.699219,1106.076538 2252.224609,1110.458252 
	C2248.930908,1114.611816 2244.460449,1117.835815 2241.193359,1122.005859 
	C2238.401855,1125.568604 2235.386230,1129.671265 2234.596191,1133.929688 
	C2233.163330,1141.653931 2228.833252,1147.267090 2223.987061,1152.746338 
	C2220.679932,1156.485352 2216.663574,1159.630981 2213.598145,1163.538696 
	C2211.214844,1166.576904 2208.711914,1170.233643 2208.217773,1173.880371 
	C2207.395020,1179.949463 2204.575684,1184.379761 2200.601074,1188.605957 
	C2195.363037,1194.175537 2190.080078,1199.748535 2185.384277,1205.763428 
	C2183.020020,1208.792114 2181.047852,1212.656250 2180.426514,1216.396362 
	C2179.425537,1222.424561 2176.330078,1226.809570 2172.247070,1230.863647 
	C2169.645508,1233.446655 2167.000488,1235.990967 2164.495605,1238.665527 
	C2159.021240,1244.510864 2154.474854,1250.728394 2152.482422,1258.874634 
	C2149.886230,1269.488647 2141.435547,1277.731689 2131.068359,1281.062500 
	C2129.362305,1287.457520 2128.191162,1294.372803 2125.605957,1300.711304 
	C2123.656982,1305.489136 2120.161377,1309.741089 2116.864258,1313.832397 
	C2113.952148,1317.445801 2110.366455,1320.516968 2107.072021,1323.821167 
	C2102.161621,1328.746216 2097.579346,1333.315186 2097.355957,1341.446655 
	C2097.236816,1345.775269 2093.264160,1350.437378 2090.092773,1354.146851 
	C2084.291016,1360.932861 2077.649658,1366.992676 2071.620361,1373.594604 
	C2063.623291,1382.351196 2063.580078,1390.594482 2072.033447,1399.119141 
	C2097.143066,1424.441284 2122.486572,1449.531128 2147.740967,1474.709717 
	C2156.140869,1483.084595 2164.292236,1491.734375 2173.067383,1499.695801 
	C2176.894775,1503.168213 2181.709961,1506.197876 2186.606201,1507.691895 
	C2193.628174,1509.834106 2198.984131,1513.659912 2203.991699,1518.756226 
	C2218.705078,1533.731079 2233.539062,1548.592529 2248.546631,1563.272583 
	C2261.155762,1575.606812 2274.025146,1587.677368 2286.887939,1599.749023 
	C2290.669434,1603.297974 2293.545898,1607.165405 2293.293945,1613.329712 
	C2275.136719,1622.211548 2258.325928,1630.891113 2243.507080,1643.865356 
	C2224.036377,1660.912109 2200.234619,1671.005493 2175.778076,1678.975952 
	C2155.262451,1685.661865 2134.625977,1692.110718 2113.732910,1697.451416 
	C2102.611572,1700.294434 2090.846191,1701.608398 2079.347412,1701.755493 
	C2061.116943,1701.988770 2042.866211,1700.148682 2024.623779,1700.144775 
	C2006.299683,1700.140869 1989.294922,1705.245605 1974.451416,1716.534790 
	C1967.274902,1721.992798 1960.755981,1721.473755 1954.160400,1715.135498 
	C1951.038452,1712.135498 1947.985107,1709.061157 1944.971191,1705.952148 
	C1937.144775,1697.878174 1927.614746,1694.107910 1916.393677,1693.951660 
	C1903.403320,1693.770874 1890.640869,1694.809082 1877.855347,1697.499512 
	C1858.967896,1701.473877 1843.834229,1691.270630 1842.182617,1673.755859 
	C1841.103027,1662.305664 1837.833496,1651.738037 1832.803345,1641.508301 
	C1827.696411,1631.122681 1822.826660,1620.615845 1818.075317,1610.061890 
	C1815.154785,1603.574707 1812.651855,1596.899536 1809.630005,1589.496460 
	C1808.079712,1590.977905 1806.749390,1591.647339 1806.439209,1592.636597 
	C1802.106079,1606.456909 1800.519531,1620.730957 1802.369507,1634.989624 
	C1805.290894,1657.506226 1812.970093,1678.699707 1821.542847,1699.687134 
	C1825.089233,1708.368896 1830.379761,1712.785156 1838.913208,1715.545654 
	C1854.255981,1720.508911 1859.549316,1733.387573 1852.887207,1747.965942 
	C1851.378418,1751.267700 1849.520508,1754.522217 1847.258179,1757.345947 
	C1841.056030,1765.087524 1840.912720,1774.111694 1842.340942,1782.967896 
	C1846.133667,1806.485840 1850.892212,1829.847900 1854.684204,1853.365967 
	C1857.779175,1872.561646 1860.959961,1891.637085 1858.299683,1911.459839 
	C1855.058716,1935.609741 1845.947998,1956.161133 1827.157471,1971.739502 
	C1818.326782,1979.060791 1811.145142,1986.441284 1813.926758,1999.060181 
	C1814.063477,1999.680420 1813.891968,2000.390381 1813.773193,2001.041992 
	C1809.377686,2025.122192 1804.639893,2049.146240 1800.693848,2073.299561 
	C1798.401611,2087.329590 1796.367676,2101.490234 1798.777954,2115.861328 
	C1799.192871,2118.334961 1797.239380,2121.206055 1796.379883,2123.893555 
M782.007996,1349.982056 
	C782.354980,1352.397583 782.702026,1354.813110 783.317566,1359.097656 
	C791.603027,1351.767944 798.706909,1345.927124 805.273804,1339.534668 
	C810.581665,1334.368042 811.906982,1327.833252 807.615662,1321.445068 
	C803.031067,1314.620605 797.875793,1308.156494 792.661255,1301.787598 
	C790.048218,1298.596069 786.749695,1295.965576 782.007324,1291.388672 
	C782.007324,1312.007080 782.007324,1330.109985 782.007996,1349.982056 
z"/>
<path fill="#F6B0B0" opacity="1.000000" stroke="none" 
	d="
M2334.082275,1639.955811 
	C2338.030273,1642.254272 2342.437012,1644.024658 2345.825928,1646.967285 
	C2351.851074,1652.198730 2357.171875,1658.232178 2362.945557,1663.765015 
	C2373.030762,1673.428955 2383.088135,1683.132690 2393.487305,1692.451050 
	C2396.325195,1694.993896 2400.371582,1696.168457 2403.811523,1698.064453 
	C2409.250732,1701.062134 2415.454102,1703.256836 2419.915039,1707.341187 
	C2435.621826,1721.722168 2450.741211,1736.745728 2466.026611,1751.584106 
	C2467.438965,1752.955322 2468.302002,1754.882080 2469.669678,1756.312012 
	C2474.300781,1761.154053 2479.312500,1764.871338 2486.317871,1766.466064 
	C2491.552002,1767.657471 2496.913086,1770.788208 2500.903320,1774.477173 
	C2512.846436,1785.518555 2524.141602,1797.260376 2535.693848,1808.724487 
	C2541.803223,1814.787598 2547.563965,1821.273926 2554.169922,1826.737549 
	C2558.120117,1830.004883 2563.420410,1831.626099 2568.076172,1834.059082 
	C2571.838623,1836.025269 2576.146973,1837.446167 2579.172852,1840.237305 
	C2593.111572,1853.095337 2606.743652,1866.288818 2620.358643,1879.493286 
	C2624.987549,1883.982422 2629.732178,1887.313232 2636.501465,1888.541626 
	C2641.013672,1889.360474 2645.473877,1892.828369 2649.033936,1896.111694 
	C2662.728516,1908.742065 2675.810303,1922.042847 2689.648926,1934.507324 
	C2694.171143,1938.580566 2700.275146,1940.915527 2705.704346,1943.958618 
	C2709.395752,1946.027832 2713.817627,1947.258423 2716.793701,1950.055054 
	C2727.474854,1960.092041 2737.780518,1970.536987 2748.030029,1981.021362 
	C2755.400391,1988.560791 2755.265625,1991.252075 2749.004395,1999.893799 
	C2746.899170,2002.799438 2744.905518,2006.080200 2743.987305,2009.492676 
	C2741.828857,2017.513794 2737.377441,2023.722534 2731.646240,2029.602661 
	C2728.085938,2033.255371 2724.927246,2038.128052 2723.650391,2042.994385 
	C2721.429688,2051.456299 2716.639160,2057.865967 2710.890625,2063.907959 
	C2707.675293,2067.287598 2703.975098,2070.288574 2701.223389,2074.001221 
	C2698.931396,2077.093994 2696.750244,2080.840332 2696.225342,2084.539307 
	C2695.413086,2090.263428 2692.585938,2094.362305 2688.887939,2098.324463 
	C2684.581299,2102.938721 2680.628906,2107.893311 2676.192383,2112.372803 
	C2671.336914,2117.275879 2668.163086,2122.579102 2667.464600,2129.753662 
	C2667.149658,2132.988525 2664.274658,2136.259033 2661.915771,2138.946777 
	C2657.746582,2143.697021 2652.911621,2147.858398 2648.668457,2152.549561 
	C2642.651367,2159.200928 2637.302246,2166.139893 2634.229248,2174.966064 
	C2632.235840,2180.690918 2628.145752,2185.938477 2624.116211,2190.647705 
	C2616.339844,2199.736328 2607.843994,2208.205811 2599.863281,2217.125732 
	C2597.695068,2219.548828 2595.239990,2222.491455 2594.749512,2225.494873 
	C2593.242920,2234.716064 2587.052734,2240.807129 2581.455078,2247.294922 
	C2577.764160,2251.572998 2573.546143,2255.403320 2569.490234,2259.358154 
	C2562.085938,2266.578613 2555.506592,2273.947021 2552.249756,2284.453857 
	C2550.194580,2291.083740 2545.019531,2297.163818 2540.088379,2302.403076 
	C2527.346191,2315.941895 2513.875732,2328.791992 2500.869873,2342.087402 
	C2493.887939,2349.224365 2487.607178,2356.819580 2484.377197,2366.671631 
	C2483.087158,2370.606689 2480.189453,2374.209717 2477.390869,2377.410400 
	C2473.012939,2382.417969 2468.027588,2386.888672 2463.421143,2391.703369 
	C2450.307373,2405.411377 2437.150146,2419.081543 2424.265381,2433.002930 
	C2421.652588,2435.825684 2419.246338,2439.458008 2418.340820,2443.112549 
	C2416.493408,2450.568359 2412.605713,2456.439453 2407.315674,2461.719238 
	C2389.626465,2479.374023 2371.921631,2497.014648 2354.388916,2514.824463 
	C2346.731445,2522.603027 2339.712891,2531.017090 2331.948975,2538.681396 
	C2327.492676,2543.080322 2322.452148,2547.104248 2317.085938,2550.312256 
	C2309.817871,2554.656738 2300.505371,2551.172119 2293.075195,2543.814697 
	C2277.267090,2528.160889 2261.020264,2512.947998 2244.835449,2497.678955 
	C2242.707031,2495.671143 2240.092285,2493.675781 2237.355713,2492.901855 
	C2225.285645,2489.488770 2217.132812,2481.272949 2208.742676,2472.472168 
	C2194.555420,2457.590820 2179.277588,2443.737793 2164.218994,2429.708984 
	C2161.636230,2427.302979 2158.042480,2425.544922 2154.608643,2424.577637 
	C2146.589355,2422.318848 2140.349609,2417.680176 2134.658203,2411.869385 
	C2125.564453,2402.585205 2116.420166,2393.344238 2107.072266,2384.318115 
	C2098.939453,2376.464844 2090.618896,2368.792236 2082.108887,2361.352051 
	C2079.707520,2359.252197 2076.495605,2357.729980 2073.397461,2356.845703 
	C2065.448975,2354.577881 2059.003906,2350.246826 2053.279785,2344.397705 
	C2042.792358,2333.680908 2032.191040,2323.070557 2021.434204,2312.624512 
	C2014.522095,2305.911865 2007.338257,2299.468262 2000.073975,2293.136230 
	C1998.149414,2291.458984 1995.602051,2290.172363 1993.125732,2289.508545 
	C1983.411621,2286.904053 1976.036621,2280.784668 1969.122803,2273.991943 
	C1957.237305,2262.314697 1945.732300,2250.238281 1933.591553,2238.836670 
	C1924.969727,2230.739746 1916.694214,2222.077148 1904.417114,2218.801025 
	C1900.258301,2217.691406 1896.644653,2213.837402 1893.242920,2210.732178 
	C1885.181396,2203.373291 1877.180908,2195.919189 1869.615723,2188.060791 
	C1866.968018,2185.310303 1865.666016,2181.264160 1864.285645,2176.735596 
	C1866.944946,2173.566895 1869.806641,2171.842529 1871.072510,2169.317627 
	C1879.767090,2151.979492 1895.365723,2140.456299 1907.324951,2125.886963 
	C1915.524780,2115.897705 1924.915527,2106.893799 1933.606689,2097.297852 
	C1951.417847,2077.632812 1969.032471,2057.788818 1986.894287,2038.169922 
	C1997.177734,2026.874878 2007.848267,2015.933105 2018.225342,2004.722046 
	C2024.533813,1997.906372 2030.703491,1990.956909 2036.779175,1983.932373 
	C2048.265869,1970.652100 2059.689453,1957.316040 2071.045654,1943.923950 
	C2080.256836,1933.061646 2089.422363,1922.158081 2098.440674,1911.135742 
	C2107.463379,1900.108154 2116.458740,1889.049194 2125.136230,1877.750732 
	C2135.231201,1864.607422 2145.267822,1851.399048 2154.778320,1837.832275 
	C2164.859863,1823.450684 2174.150879,1808.517700 2184.050293,1794.005005 
	C2194.285889,1778.998901 2206.636230,1766.081665 2223.185059,1757.959839 
	C2233.307129,1752.992188 2243.914795,1749.001709 2253.963379,1743.900391 
	C2265.890625,1737.845459 2276.674805,1729.887085 2285.027832,1719.393921 
	C2296.616211,1704.836060 2306.646240,1689.242920 2314.962402,1672.472778 
	C2320.534424,1661.236450 2327.654785,1650.767822 2334.082275,1639.955811 
z"/>
<path fill="#F5AFB0" opacity="1.000000" stroke="none" 
	d="
M1059.870117,663.313660 
	C1056.302734,664.326721 1053.356689,666.431213 1054.322876,670.341003 
	C1055.787842,676.269287 1055.648193,682.504150 1060.300903,687.847717 
	C1067.019897,695.564636 1072.797241,704.146545 1074.635620,714.778748 
	C1075.942627,722.337769 1074.720093,729.396606 1070.836914,735.643677 
	C1065.159546,744.777100 1057.291748,751.857361 1047.822876,757.138123 
	C1042.605713,760.047729 1037.604614,763.342834 1032.470337,766.404236 
	C1023.415344,771.803406 1018.177307,779.682251 1015.574707,789.933289 
	C1009.696167,813.087769 999.690002,834.588013 984.959717,853.284180 
	C969.952148,872.332092 952.996094,889.742188 934.155334,905.216675 
	C926.210510,911.742004 918.565308,918.681824 911.222595,925.880676 
	C894.569397,942.207703 877.890381,958.527649 861.788757,975.391785 
	C848.364014,989.452271 836.549316,1005.027161 833.699585,1024.893921 
	C832.070679,1036.249268 832.961548,1047.977905 832.908752,1059.539307 
	C832.895264,1062.487183 834.019409,1065.453491 833.910034,1068.384766 
	C833.580139,1077.233765 824.637329,1082.393188 816.739258,1078.268799 
	C808.886658,1074.167969 804.413940,1067.166260 802.048096,1058.928467 
	C799.121704,1048.738525 796.920898,1038.337891 793.913269,1028.174316 
	C792.664978,1023.955933 790.140442,1020.115234 787.742249,1015.165710 
	C776.888489,1022.242493 770.489014,1029.140747 769.673828,1041.933350 
	C767.740784,1072.270264 767.313660,1102.837280 758.398865,1132.434814 
	C750.650146,1158.160889 739.790161,1182.166138 723.412598,1203.516602 
	C704.888855,1227.664917 681.568726,1245.977173 654.567993,1259.841797 
	C650.042603,1262.165649 643.996948,1262.747925 641.988037,1269.581909 
	C629.678894,1271.858643 620.889954,1265.454102 612.882324,1257.606934 
	C605.940186,1250.803955 598.562988,1245.392578 589.072754,1241.953979 
	C581.910400,1239.359009 576.209717,1232.872070 569.639954,1228.441528 
	C566.128296,1226.073242 562.335449,1223.310791 558.347717,1222.640625 
	C551.586121,1221.504272 546.569275,1218.162964 542.320801,1213.341064 
	C537.529114,1207.902832 531.800354,1204.231689 524.773499,1202.528198 
	C517.411499,1200.743408 511.322784,1196.808838 506.312836,1191.224609 
	C499.052338,1183.132202 490.504944,1177.492310 480.023315,1173.890015 
	C474.050842,1171.837402 468.721680,1167.040527 463.947266,1162.576172 
	C456.582703,1155.689819 449.241760,1149.766113 439.060883,1146.806274 
	C432.794067,1144.984375 427.257141,1139.524292 422.241577,1134.796753 
	C415.132538,1128.096069 408.161530,1121.846558 398.168762,1119.554077 
	C394.562012,1118.726685 391.307343,1115.684082 388.273041,1113.188965 
	C382.628052,1108.546997 377.372437,1103.431030 371.721405,1098.796753 
	C369.737701,1097.170044 367.182098,1095.973633 364.692780,1095.278687 
	C355.767792,1092.787109 348.227386,1088.240234 342.156586,1081.229370 
	C336.136169,1074.276733 328.514404,1070.123535 320.043335,1066.467163 
	C312.623596,1063.264648 306.112335,1057.643066 299.735931,1052.433838 
	C294.342682,1048.027710 289.622040,1042.773315 284.777710,1037.727295 
	C279.373535,1032.098022 273.215546,1028.014038 265.696136,1025.480103 
	C256.289490,1022.310181 254.145065,1018.443848 253.933578,1008.322205 
	C253.582565,991.524231 258.574188,976.440125 268.252075,962.804932 
	C269.208984,961.456726 270.390015,960.054138 270.729736,958.514099 
	C274.392303,941.910095 286.568817,931.196594 297.601196,919.787598 
	C305.291077,911.835205 312.617432,903.942505 315.874298,892.875122 
	C317.027802,888.955322 320.105438,885.351685 322.991974,882.241638 
	C330.014465,874.675293 337.492004,867.533630 344.690979,860.128174 
	C356.287018,848.199646 367.532532,836.052429 375.911835,821.436768 
	C384.587830,806.303589 396.891541,794.058838 409.167084,781.825989 
	C440.084167,751.016602 470.923828,720.128784 501.654144,689.133179 
	C513.290466,677.396423 524.357910,665.094849 536.021240,653.386047 
	C547.202515,642.161255 558.974243,631.525757 570.196960,620.340698 
	C579.137756,611.429932 587.546448,601.987976 596.363831,592.950134 
	C608.688843,580.316895 621.281311,567.942932 633.507446,555.216064 
	C636.178772,552.435242 638.600342,548.892395 639.754333,545.261047 
	C647.190125,521.863098 670.607849,508.037292 689.736633,509.919250 
	C698.964478,510.827118 708.186157,511.812775 717.395203,512.894531 
	C730.871399,514.477539 744.310242,516.424683 757.813171,517.711792 
	C763.446411,518.248718 768.840820,518.466980 774.269653,520.819641 
	C778.999695,522.869446 784.501709,523.481140 789.731812,523.940979 
	C795.350525,524.435181 801.050781,524.063782 806.713989,523.976379 
	C816.051941,523.832397 825.137817,524.245178 834.233582,527.460999 
	C840.322266,529.613647 847.338623,530.072632 853.882874,529.819153 
	C868.983765,529.234375 882.714783,534.323120 896.240173,539.589539 
	C902.173279,541.899719 907.121033,547.070679 912.094910,551.424011 
	C917.350037,556.023621 921.822144,561.534973 927.182556,565.990845 
	C930.366333,568.637390 934.584290,570.055786 938.373657,571.953735 
	C942.720459,574.130859 947.647400,575.548950 951.362305,578.503784 
	C958.630981,584.285217 965.028625,591.151611 972.190613,597.081238 
	C976.218506,600.416077 980.738159,603.686096 985.596252,605.366333 
	C993.097290,607.960510 999.320496,611.946045 1004.704895,617.587708 
	C1007.694519,620.720215 1010.743347,623.806458 1013.913147,626.754700 
	C1020.498352,632.879517 1027.439209,637.824036 1036.543335,640.527222 
	C1042.712280,642.358826 1047.932495,648.105164 1052.966187,652.760925 
	C1055.802002,655.383789 1057.399048,659.345703 1059.870117,663.313660 
z"/>
<path fill="#F4A8AA" opacity="1.000000" stroke="none" 
	d="
M2333.968018,1639.273193 
	C2327.654785,1650.767822 2320.534424,1661.236450 2314.962402,1672.472778 
	C2306.646240,1689.242920 2296.616211,1704.836060 2285.027832,1719.393921 
	C2276.674805,1729.887085 2265.890625,1737.845459 2253.963379,1743.900391 
	C2243.914795,1749.001709 2233.307129,1752.992188 2223.185059,1757.959839 
	C2206.636230,1766.081665 2194.285889,1778.998901 2184.050293,1794.005005 
	C2174.150879,1808.517700 2164.859863,1823.450684 2154.778320,1837.832275 
	C2145.267822,1851.399048 2135.231201,1864.607422 2125.136230,1877.750732 
	C2116.458740,1889.049194 2107.463379,1900.108154 2098.440674,1911.135742 
	C2089.422363,1922.158081 2080.256836,1933.061646 2071.045654,1943.923950 
	C2059.689453,1957.316040 2048.265869,1970.652100 2036.779175,1983.932373 
	C2030.703491,1990.956909 2024.533813,1997.906372 2018.225342,2004.722046 
	C2007.848267,2015.933105 1997.177734,2026.874878 1986.894287,2038.169922 
	C1969.032471,2057.788818 1951.417847,2077.632812 1933.606689,2097.297852 
	C1924.915527,2106.893799 1915.524780,2115.897705 1907.324951,2125.886963 
	C1895.365723,2140.456299 1879.767090,2151.979492 1871.072510,2169.317627 
	C1869.806641,2171.842529 1866.944946,2173.566895 1864.180908,2176.029297 
	C1859.011230,2176.460449 1855.210205,2175.067139 1852.245972,2171.400391 
	C1846.686279,2164.523193 1839.781616,2159.726562 1830.914185,2157.985352 
	C1829.020630,2157.613281 1826.818970,2156.937012 1825.534180,2155.635986 
	C1815.655518,2145.630859 1805.968018,2135.436768 1796.300537,2124.597656 
	C1797.239380,2121.206055 1799.192871,2118.334961 1798.777954,2115.861328 
	C1796.367676,2101.490234 1798.401611,2087.329590 1800.693848,2073.299561 
	C1804.639893,2049.146240 1809.377686,2025.122192 1813.773193,2001.041992 
	C1813.891968,2000.390381 1814.063477,1999.680420 1813.926758,1999.060181 
	C1811.145142,1986.441284 1818.326782,1979.060791 1827.157471,1971.739502 
	C1845.947998,1956.161133 1855.058716,1935.609741 1858.299683,1911.459839 
	C1860.959961,1891.637085 1857.779175,1872.561646 1854.684204,1853.365967 
	C1850.892212,1829.847900 1846.133667,1806.485840 1842.340942,1782.967896 
	C1840.912720,1774.111694 1841.056030,1765.087524 1847.258179,1757.345947 
	C1849.520508,1754.522217 1851.378418,1751.267700 1852.887207,1747.965942 
	C1859.549316,1733.387573 1854.255981,1720.508911 1838.913208,1715.545654 
	C1830.379761,1712.785156 1825.089233,1708.368896 1821.542847,1699.687134 
	C1812.970093,1678.699707 1805.290894,1657.506226 1802.369507,1634.989624 
	C1800.519531,1620.730957 1802.106079,1606.456909 1806.439209,1592.636597 
	C1806.749390,1591.647339 1808.079712,1590.977905 1809.630005,1589.496460 
	C1812.651855,1596.899536 1815.154785,1603.574707 1818.075317,1610.061890 
	C1822.826660,1620.615845 1827.696411,1631.122681 1832.803345,1641.508301 
	C1837.833496,1651.738037 1841.103027,1662.305664 1842.182617,1673.755859 
	C1843.834229,1691.270630 1858.967896,1701.473877 1877.855347,1697.499512 
	C1890.640869,1694.809082 1903.403320,1693.770874 1916.393677,1693.951660 
	C1927.614746,1694.107910 1937.144775,1697.878174 1944.971191,1705.952148 
	C1947.985107,1709.061157 1951.038452,1712.135498 1954.160400,1715.135498 
	C1960.755981,1721.473755 1967.274902,1721.992798 1974.451416,1716.534790 
	C1989.294922,1705.245605 2006.299683,1700.140869 2024.623779,1700.144775 
	C2042.866211,1700.148682 2061.116943,1701.988770 2079.347412,1701.755493 
	C2090.846191,1701.608398 2102.611572,1700.294434 2113.732910,1697.451416 
	C2134.625977,1692.110718 2155.262451,1685.661865 2175.778076,1678.975952 
	C2200.234619,1671.005493 2224.036377,1660.912109 2243.507080,1643.865356 
	C2258.325928,1630.891113 2275.136719,1622.211548 2293.344727,1614.066650 
	C2305.046143,1614.799072 2315.192383,1617.756836 2323.020264,1626.018188 
	C2326.821289,1630.029297 2330.254150,1634.388916 2333.968018,1639.273193 
z"/>
<path fill="#F5A9AB" opacity="1.000000" stroke="none" 
	d="
M1619.005493,757.836060 
	C1621.751221,759.914795 1623.786621,762.043152 1625.389404,765.505554 
	C1623.143188,781.367432 1622.274902,795.744934 1627.556763,809.947632 
	C1633.343750,825.508667 1637.432007,841.590027 1637.834229,858.275024 
	C1638.250854,875.561462 1645.073730,888.963318 1659.958984,897.954468 
	C1689.190063,915.610657 1718.601074,932.973328 1747.670410,950.890930 
	C1759.430298,958.139404 1770.779175,960.453308 1782.977661,952.572998 
	C1783.752197,952.072632 1784.904663,952.157043 1785.881226,951.969360 
	C1790.046509,955.771790 1794.147827,959.647339 1798.388916,963.363342 
	C1812.610474,975.824280 1826.938477,988.164246 1841.121582,1000.668518 
	C1864.563843,1021.336121 1888.514771,1041.536133 1905.471313,1068.372314 
	C1906.157837,1069.458984 1906.722290,1070.622803 1907.718872,1072.432007 
	C1900.204468,1075.010498 1893.161743,1074.225098 1886.069946,1073.035767 
	C1868.393555,1070.070923 1851.465942,1073.066528 1835.956909,1081.519775 
	C1822.211548,1089.011841 1817.060425,1102.399414 1816.100220,1117.357910 
	C1815.567261,1125.657104 1815.741211,1134.027954 1816.055176,1142.349365 
	C1816.677979,1158.858887 1810.388672,1173.203979 1800.873657,1185.761353 
	C1789.910278,1200.230591 1784.759766,1216.442139 1784.301270,1233.897949 
	C1783.955811,1247.044312 1786.259399,1260.268188 1787.508301,1273.445557 
	C1788.195679,1280.696777 1788.834106,1287.974854 1790.039062,1295.149414 
	C1791.900757,1306.235840 1794.150024,1317.260132 1796.383301,1328.280640 
	C1798.341797,1337.946045 1802.560425,1347.472778 1797.774170,1357.438110 
	C1797.507202,1357.993774 1796.955566,1358.412720 1796.005249,1359.506958 
	C1794.297607,1358.288086 1792.330688,1357.239502 1790.804443,1355.741821 
	C1763.951904,1329.387085 1739.894409,1300.685425 1717.950684,1270.112793 
	C1697.406372,1241.489624 1681.709229,1210.518921 1670.701050,1177.126221 
	C1668.206665,1169.559692 1665.748657,1161.923706 1664.113281,1154.143188 
	C1660.225586,1135.647339 1652.412109,1118.912109 1642.132324,1103.265991 
	C1634.846313,1092.176636 1627.333618,1081.220215 1619.521362,1070.496338 
	C1608.525513,1055.402832 1602.040039,1038.428223 1598.633057,1020.335266 
	C1596.864014,1010.940430 1596.172485,1001.224487 1596.112427,991.646545 
	C1595.850708,949.982178 1596.219727,908.313538 1595.911255,866.649841 
	C1595.746460,844.393127 1594.670044,822.143250 1594.006226,798.954956 
	C1593.879272,781.715210 1601.227539,769.185669 1613.725952,759.353699 
	C1614.904541,758.426514 1616.756104,758.354614 1619.005493,757.836060 
z"/>
<path fill="#F19D9F" opacity="1.000000" stroke="none" 
	d="
M721.068176,1899.990479 
	C724.910645,1900.038940 727.259644,1900.505371 728.057068,1904.583862 
	C730.783264,1918.527710 734.394287,1932.302490 736.968994,1946.270630 
	C739.961670,1962.506470 738.640808,1978.035400 726.185669,1991.511841 
	C716.709778,1982.899292 715.123840,1971.412598 714.150879,1960.007324 
	C713.418152,1951.418091 714.224731,1942.707886 713.886414,1934.069580 
	C713.765076,1930.971191 712.298340,1927.925537 710.779175,1924.448120 
	C712.922546,1915.811279 714.118713,1906.890869 721.068176,1899.990479 
z"/>
<path fill="#ED8082" opacity="1.000000" stroke="none" 
	d="
M1785.835938,951.264954 
	C1784.904663,952.157043 1783.752197,952.072632 1782.977661,952.572998 
	C1770.779175,960.453308 1759.430298,958.139404 1747.670410,950.890930 
	C1718.601074,932.973328 1689.190063,915.610657 1659.958984,897.954468 
	C1645.073730,888.963318 1638.250854,875.561462 1637.834229,858.275024 
	C1637.432007,841.590027 1633.343750,825.508667 1627.556763,809.947632 
	C1622.274902,795.744934 1623.143188,781.367432 1625.500122,766.131836 
	C1638.083618,771.254761 1644.411743,782.038879 1647.575317,793.952209 
	C1658.685669,835.791931 1683.477783,868.016296 1715.911499,895.383484 
	C1729.745728,907.056519 1745.286011,915.901062 1761.063232,924.429565 
	C1772.225098,930.463257 1781.311035,938.287354 1785.835938,951.264954 
z"/>
<path fill="#F19D9F" opacity="1.000000" stroke="none" 
	d="
M782.007690,1349.097412 
	C782.007324,1330.109985 782.007324,1312.007080 782.007324,1291.388672 
	C786.749695,1295.965576 790.048218,1298.596069 792.661255,1301.787598 
	C797.875793,1308.156494 803.031067,1314.620605 807.615662,1321.445068 
	C811.906982,1327.833252 810.581665,1334.368042 805.273804,1339.534668 
	C798.706909,1345.927124 791.603027,1351.767944 783.317566,1359.097656 
	C782.702026,1354.813110 782.354980,1352.397583 782.007690,1349.097412 
z"/>
</svg>