<svg version="1.1" id="Layer_1" xmlns="http://www.w3.org/2000/svg" xmlns:xlink="http://www.w3.org/1999/xlink" x="0px" y="0px"
	 width="100%" viewBox="0 0 650 650" enable-background="new 0 0 650 650" xml:space="preserve">
<path fill="#000000" opacity="1.000000" stroke="none" 
	d="
M387.000000,651.000000 
	C258.000061,651.000000 129.500092,651.000000 1.000103,651.000000 
	C1.000069,434.333466 1.000069,217.666916 1.000034,1.000278 
	C217.666458,1.000185 434.332916,1.000185 650.999512,1.000093 
	C650.999695,217.666382 650.999695,434.332764 650.999878,650.999573 
	C563.166687,651.000000 475.333344,651.000000 387.000000,651.000000 
M318.636871,522.716553 
	C313.436279,532.615723 308.771790,542.849182 302.871002,552.311707 
	C297.857849,560.350891 299.516479,572.040710 308.032471,577.030579 
	C318.052399,582.901794 327.782745,580.321655 332.973053,569.952148 
	C337.456909,560.994019 341.240845,551.683960 345.776367,542.753967 
	C349.577576,535.269897 355.913971,534.107361 363.172302,538.512939 
	C372.058258,543.906372 378.112671,551.918091 383.989380,560.137634 
	C387.471069,565.007324 392.024200,568.668579 398.071411,567.704163 
	C405.115082,566.580872 410.304626,562.486755 413.383942,555.475403 
	C416.910156,547.446472 413.583893,541.307739 408.948242,535.579834 
	C403.925659,529.373840 398.284546,523.668457 393.421356,517.213684 
	C407.466431,513.394287 420.412537,507.068390 433.629639,500.368622 
	C434.759094,509.844116 435.963898,519.311401 436.996979,528.797424 
	C438.041229,538.386719 447.379395,544.797302 457.785370,542.920959 
	C467.115021,541.238770 473.586243,532.141174 471.707062,523.435547 
	C469.809296,514.643921 467.916687,505.850311 466.135773,497.034546 
	C463.966675,486.297028 469.223907,479.221893 480.076569,480.239105 
	C489.964874,481.165924 499.717316,483.895538 509.424927,486.260284 
	C514.974548,487.612152 519.910522,487.401886 524.136475,483.328705 
	C529.340942,478.312347 530.556274,472.074402 528.928528,465.252319 
	C527.317444,458.500000 523.037720,453.884979 516.344910,452.235291 
	C506.657715,449.847534 496.838348,447.996155 487.286255,445.262939 
	C487.794617,444.433472 488.285706,443.592834 488.813782,442.776123 
	C502.872467,421.033539 512.149170,397.308990 518.732239,372.336487 
	C527.940857,379.537537 537.395264,386.451294 546.269409,394.043304 
	C551.936768,398.891815 563.141968,400.870605 570.828796,391.883270 
	C576.932068,384.747345 577.634827,375.678192 570.375732,369.133972 
	C563.983521,363.371277 556.262817,359.101837 549.279297,353.968170 
	C545.035278,350.848358 540.026062,348.151337 539.064209,342.231232 
	C537.957031,335.416351 541.803955,330.638367 546.831238,327.222595 
	C553.885437,322.429565 561.361084,318.221863 568.845459,314.107422 
	C575.485107,310.457306 579.028870,305.044281 577.910522,299.149994 
	C576.180298,290.030029 569.563232,283.724365 561.988953,282.906311 
	C554.179688,282.062866 547.791016,285.138550 541.523682,288.923309 
	C535.650940,292.469818 529.890320,296.201965 524.016357,298.967590 
	C523.018494,292.030762 522.424622,285.006226 520.941162,278.174835 
	C517.544250,262.531158 512.215210,247.537048 503.929810,233.755005 
	C499.504120,226.393280 494.700439,219.258789 490.910675,212.020889 
	C491.576630,212.023407 492.259125,212.123611 492.906036,212.013824 
	C502.787506,210.336731 512.692993,208.778046 522.524780,206.845383 
	C525.484070,206.263687 528.698059,205.201950 530.995972,203.361847 
	C538.146423,197.635941 539.528198,188.718597 535.142273,180.304611 
	C531.617859,173.543381 523.246521,170.467697 514.592041,172.707718 
	C506.982147,174.677368 499.430695,176.964767 491.726746,178.458221 
	C479.325653,180.862244 472.331085,179.529984 473.220215,164.221695 
	C473.796906,154.292755 476.829773,144.528244 478.022400,134.601196 
	C478.422577,131.270142 477.337677,127.159386 475.525726,124.294006 
	C472.165436,118.980103 466.606781,117.782196 460.335938,117.853584 
	C451.674072,117.952187 446.525238,121.123444 443.779388,129.485001 
	C439.884277,141.346176 438.405731,153.523346 438.256866,165.992050 
	C432.541107,162.652359 427.091705,158.692581 421.055176,156.099640 
	C407.717621,150.370636 394.338593,144.502182 380.496796,140.253174 
	C368.003571,136.418121 354.889130,134.576843 342.014923,132.026276 
	C336.001373,130.834900 329.908295,130.044785 323.996246,128.312012 
	C328.201874,118.491394 332.187225,108.568275 336.692413,98.887054 
	C339.584351,92.672546 339.906372,86.935616 336.063904,81.121193 
	C332.017273,74.997810 326.088440,73.047783 319.080536,72.952484 
	C312.772430,72.866699 308.896515,76.228806 306.237549,81.377388 
	C304.894073,83.978821 304.028076,86.828102 302.963470,89.572021 
	C299.942932,97.357033 297.369324,105.354393 293.784760,112.869911 
	C290.621735,119.501640 283.647827,121.766144 277.723450,117.647026 
	C270.658630,112.734962 264.526123,106.477165 258.021606,100.766075 
	C254.720322,97.867493 251.935379,93.937515 248.129654,92.152496 
	C241.025696,88.820480 233.619232,91.406731 229.258575,97.441956 
	C223.893173,104.867737 223.329178,114.016975 228.952667,120.227524 
	C235.231125,127.161407 242.343384,133.340302 248.799271,140.549393 
	C244.785645,142.252380 240.508774,143.517456 236.808609,145.741852 
	C226.417953,151.988327 216.264984,158.630203 205.398926,164.667206 
	C203.275711,155.430191 201.282883,146.160553 198.981766,136.968063 
	C197.534607,131.186966 194.755310,125.936111 188.525986,124.327858 
	C182.120728,122.674194 175.747849,122.344353 170.042038,127.289658 
	C163.349792,133.089951 163.695892,140.040283 165.771820,147.476440 
	C168.187790,156.130615 170.828613,164.723602 173.142227,173.404327 
	C175.205887,181.147171 171.548431,187.241501 163.656708,187.812744 
	C156.065491,188.362244 148.359894,187.705078 140.728790,187.207062 
	C135.044205,186.836075 129.377045,185.200317 123.741463,185.377655 
	C118.840881,185.531891 113.341644,192.077499 113.063019,196.992523 
	C112.619179,204.822113 112.329582,212.809860 120.743706,217.315750 
	C129.730911,222.128571 139.652695,222.381058 149.492249,223.020340 
	C152.387619,223.208466 155.266953,223.643204 157.839142,224.621216 
	C141.469513,255.000504 133.440781,287.689911 130.161453,321.913055 
	C119.853111,316.951904 109.559906,311.958984 99.231224,307.040558 
	C92.123619,303.656006 85.205978,304.337219 80.434837,308.994873 
	C69.796135,319.380493 71.847771,333.570953 86.733566,339.868011 
	C95.492035,343.573059 104.476265,346.844147 112.912956,351.178528 
	C119.686501,354.658417 120.703621,359.720520 117.010162,366.586639 
	C115.238205,369.880676 113.107346,373.164978 110.463425,375.767334 
	C105.413979,380.737427 99.723259,385.052673 94.619774,389.972748 
	C92.335907,392.174500 89.842636,394.949097 89.157982,397.865967 
	C87.370140,405.482819 90.949928,412.871460 97.563652,416.791656 
	C104.485123,420.894226 112.395889,420.943237 118.594620,415.556061 
	C126.168640,408.973663 132.894135,401.414886 140.698761,394.336243 
	C147.806595,410.240479 155.794601,425.629578 166.454239,439.751678 
	C154.695053,441.862457 142.925323,443.916595 131.180008,446.101929 
	C121.766922,447.853363 115.999329,457.321503 118.177673,467.215759 
	C120.298798,476.850098 128.992340,482.454987 138.484146,480.269440 
	C147.600510,478.170349 156.670685,475.852936 165.828018,473.953888 
	C177.114899,471.613190 184.853012,479.065369 182.864822,490.527985 
	C181.357956,499.215607 179.262863,507.805939 177.273300,516.403442 
	C175.881546,522.417603 178.065826,528.582520 183.116272,532.050964 
	C193.941360,539.485413 208.014023,535.105591 211.885452,522.628540 
	C215.663055,510.453827 217.619415,497.902496 217.801514,485.041138 
	C242.496017,500.837982 269.191498,511.792175 297.832916,517.980225 
	C304.811035,519.487854 311.851379,520.707458 318.636871,522.716553 
z"/>
<path fill="#E95C4B" opacity="1.000000" stroke="none" 
	d="
M166.939072,439.171295 
	C155.794601,425.629578 147.806595,410.240479 140.445557,393.967957 
	C143.777374,387.443390 148.169144,381.610413 150.791061,375.068146 
	C157.717056,357.786346 155.382614,335.710266 134.047150,324.292999 
	C132.898804,323.678528 131.942673,322.704895 130.897064,321.898438 
	C133.440781,287.689911 141.469513,255.000504 158.349457,224.129745 
	C165.014435,222.411163 171.279877,221.577850 177.303055,219.883362 
	C195.613922,214.732056 212.102737,198.433014 207.095123,173.959076 
	C206.501831,171.059372 206.366104,168.066040 206.018280,165.116119 
	C216.264984,158.630203 226.417953,151.988327 236.808609,145.741852 
	C240.508774,143.517456 244.785645,142.252380 249.273193,140.310455 
	C258.186218,146.174240 267.168518,151.103271 277.482330,153.319092 
	C295.894135,157.274628 311.770905,150.046448 320.804901,133.552826 
	C321.668396,131.976257 322.828735,130.562271 323.851257,129.072800 
	C329.908295,130.044785 336.001373,130.834900 342.014923,132.026276 
	C354.889130,134.576843 368.003571,136.418121 380.496796,140.253174 
	C394.338593,144.502182 407.717621,150.370636 421.055176,156.099640 
	C427.091705,158.692581 432.541107,162.652359 438.609558,166.427567 
	C439.843567,186.174835 446.626373,202.013870 465.052185,211.415802 
	C467.746429,222.827713 470.354004,233.876328 472.632019,245.042465 
	C461.520966,251.688705 453.591705,260.709442 450.192322,272.896606 
	C446.717743,285.353394 451.186676,294.216370 462.812378,299.960999 
	C465.790161,301.432404 468.866028,302.705292 471.822906,304.452026 
	C469.123840,316.838684 466.498688,328.842743 463.661255,340.895630 
	C463.448975,340.944458 463.023529,341.042023 462.652893,340.890259 
	C458.199097,340.819550 454.115936,340.900665 450.145508,340.663879 
	C452.671265,337.888916 455.020447,335.364349 457.520752,332.999573 
	C459.074402,331.530243 461.162506,330.547516 462.470306,328.913788 
	C464.853668,325.936432 464.699249,322.317139 462.029877,319.903351 
	C460.647736,318.653564 457.231293,318.250916 455.462463,319.059418 
	C444.140137,324.234650 436.937256,336.822693 437.600159,349.109436 
	C434.038635,354.382050 429.810120,359.086670 427.633209,364.601135 
	C422.595276,377.363403 426.814789,391.010376 436.711975,397.549469 
	C436.692017,398.496063 436.660492,399.125549 436.355896,399.934753 
	C430.060181,407.761658 424.037598,415.408905 417.758057,423.055420 
	C417.329895,423.053436 417.158661,423.052155 416.812897,422.757538 
	C410.733063,416.557159 402.927155,415.211334 395.245636,414.025482 
	C376.840546,411.184143 363.104919,401.573730 354.351349,385.422211 
	C349.794128,377.013519 346.130585,367.996063 343.107300,358.906372 
	C336.881805,340.188995 333.922455,320.370667 323.998474,302.906555 
	C321.951111,299.303558 319.969360,295.663239 318.429321,292.013733 
	C329.539612,291.968658 340.177856,291.949982 351.074158,291.944702 
	C351.503510,291.962616 351.674835,291.967133 351.889160,292.348236 
	C353.201569,295.606079 354.194244,298.651489 355.788544,301.340088 
	C362.618408,312.857727 370.624878,323.211792 384.428802,326.874115 
	C413.622772,334.619568 445.123505,311.153778 446.955750,280.356598 
	C448.364319,256.680298 442.337677,235.073441 427.957458,216.186264 
	C420.427704,206.296570 410.876312,198.904282 397.423035,197.752319 
	C395.405304,197.034058 393.696106,196.437347 392.240387,195.622940 
	C394.978790,194.058044 397.460541,192.704956 399.949219,191.364777 
	C406.392975,187.894760 408.214844,182.684830 404.973938,176.976974 
	C401.936493,171.627457 396.338318,170.497696 390.328400,174.248337 
	C386.805756,176.446716 383.561554,179.088699 380.058838,181.322159 
	C373.655884,185.404922 368.050476,183.353714 365.963959,175.957199 
	C364.889435,172.148071 364.425873,168.138382 363.980591,164.186157 
	C363.180634,157.085526 360.294678,154.343399 353.784637,154.873169 
	C347.597748,155.376633 343.676086,160.208725 344.299591,166.561172 
	C344.542877,169.039749 344.787994,171.518158 344.592834,173.997162 
	C321.462097,171.627670 299.039062,172.896576 276.938599,178.570114 
	C275.935791,172.101852 272.960632,169.115128 267.752319,168.997559 
	C262.679443,168.883041 259.961823,171.419342 258.715485,177.668015 
	C258.165375,180.426071 257.885040,183.237915 257.088043,186.086639 
	C252.105347,188.447998 247.516846,190.748047 242.612549,192.920120 
	C239.711380,191.007309 237.175201,189.145462 234.529846,187.454422 
	C229.734573,184.389038 224.552429,186.019623 222.176849,191.181442 
	C219.674728,196.618195 222.397980,200.358047 225.840561,203.965317 
	C215.733765,213.359741 205.728073,222.377548 196.247894,231.917526 
	C192.567993,235.620651 190.075409,240.503647 186.625748,244.874344 
	C175.703857,245.594681 172.663895,251.264542 176.952484,262.065918 
	C174.835022,270.409241 172.934784,278.446411 170.659195,286.597656 
	C168.306259,286.858856 166.314331,286.902191 164.353821,287.173004 
	C158.880386,287.929016 155.912659,291.956451 156.748520,297.357452 
	C157.688812,303.433228 162.388077,307.197144 168.750031,306.673981 
	C172.200073,306.390259 175.614075,305.668518 179.231857,305.425995 
	C182.942749,307.135376 186.466110,308.563141 189.954849,310.384674 
	C186.258850,324.012726 184.534790,337.438232 185.968857,351.169098 
	C186.624054,357.442657 187.316818,363.712280 187.605469,369.950165 
	C184.353500,369.064789 181.512726,368.117950 178.617981,367.383972 
	C174.577469,366.359497 171.053085,367.087494 168.468948,370.719452 
	C163.937775,377.088013 166.356583,384.298309 173.958450,386.355652 
	C178.117996,387.481384 182.453384,387.942078 186.647675,388.957825 
	C195.738174,391.159454 197.506149,395.238342 192.756546,403.426208 
	C190.935455,406.565613 188.607452,409.443634 186.280167,412.249786 
	C181.864716,417.573730 181.627014,422.567139 185.839020,426.322266 
	C190.280670,430.282104 196.718140,429.970428 200.981750,425.360657 
	C203.455551,422.685974 205.604950,419.711304 208.130707,417.129395 
	C221.027374,436.388062 236.752670,452.273315 256.145386,464.456390 
	C257.630524,465.389374 258.803680,466.818939 259.945740,468.307922 
	C259.137939,470.023621 258.506256,471.449066 257.512024,472.756531 
	C254.078354,472.018982 250.953033,471.592133 247.945587,470.746185 
	C235.567078,467.264374 223.224380,463.655304 210.629944,459.862579 
	C200.503510,443.050903 185.652069,437.010712 166.939072,439.171295 
z"/>
<path fill="#D63429" opacity="1.000000" stroke="none" 
	d="
M210.868500,460.093048 
	C223.224380,463.655304 235.567078,467.264374 247.945587,470.746185 
	C250.953033,471.592133 254.078354,472.018982 257.553284,473.155670 
	C259.843903,484.516907 267.570221,487.374115 276.185364,480.443573 
	C277.730011,479.200958 279.401093,478.115479 281.370117,477.054535 
	C287.789978,478.799347 293.853516,480.447021 300.019501,482.470581 
	C300.774658,485.918213 301.386627,488.999298 302.089355,492.059601 
	C303.225159,497.005981 306.380188,499.310303 311.416382,498.952820 
	C318.093231,498.478912 320.868439,494.771484 321.487213,486.089172 
	C333.993927,485.735474 346.220001,486.332092 358.149475,484.725830 
	C376.939850,482.195801 394.921814,476.568329 410.316010,464.760437 
	C423.815277,454.406036 427.459808,435.723969 418.015015,423.056152 
	C424.037598,415.408905 430.060181,407.761658 436.444458,400.373962 
	C439.357208,409.380310 441.854736,418.143188 444.477905,426.868286 
	C446.268799,432.825195 451.537750,435.466766 457.431549,433.534607 
	C462.519318,431.866699 465.038177,426.553192 463.067291,420.971069 
	C461.631348,416.903931 459.760986,412.990173 458.461243,408.915649 
	C460.282532,408.547302 461.717438,408.199585 463.172821,408.007538 
	C470.534760,407.035919 475.319824,402.867889 478.486267,396.114502 
	C488.152527,395.919006 492.382751,390.227692 488.471405,382.598938 
	C487.259338,380.234894 484.228241,378.803467 482.022308,376.500488 
	C481.443573,361.498138 478.575256,348.123962 463.873566,340.846771 
	C466.498688,328.842743 469.123840,316.838684 472.171143,304.561951 
	C474.861450,305.292999 477.181549,306.194702 479.387817,307.319763 
	C485.810852,310.594971 491.525238,309.155762 494.132263,303.510986 
	C496.755341,297.831299 494.617188,292.929138 488.111206,290.052429 
	C483.434937,287.984741 478.682678,286.088867 473.974396,283.651489 
	C474.287109,278.479736 474.589752,273.772827 475.000122,268.738770 
	C477.538330,265.978516 480.341553,263.805206 482.277985,261.027557 
	C483.749207,258.917267 484.865356,256.025330 484.821716,253.503967 
	C484.730103,248.213181 480.467712,245.431229 472.961609,244.924957 
	C470.354004,233.876328 467.746429,222.827713 465.441101,211.488007 
	C473.851349,211.471878 481.959351,211.746811 490.067322,212.021744 
	C494.700439,219.258789 499.504120,226.393280 503.929810,233.755005 
	C512.215210,247.537048 517.544250,262.531158 520.941162,278.174835 
	C522.424622,285.006226 523.018494,292.030762 523.964600,299.753326 
	C522.468140,302.324738 521.038574,304.122986 519.575439,305.893433 
	C516.519409,309.591248 513.097595,313.040985 510.440216,317.004395 
	C499.591766,333.184479 500.615265,351.550140 512.912048,366.179474 
	C514.612549,368.202606 516.354370,370.191132 518.077026,372.195679 
	C512.149170,397.308990 502.872467,421.033539 488.813782,442.776123 
	C488.285706,443.592834 487.794617,444.433472 486.710114,445.607544 
	C475.437073,445.686005 464.775848,445.861755 454.947968,450.868500 
	C442.910858,457.000732 434.060516,465.803528 432.931183,480.043884 
	C432.410400,486.610291 432.928986,493.259155 432.976318,499.870636 
	C420.412537,507.068390 407.466431,513.394287 392.876892,517.355103 
	C385.500336,513.128296 379.007446,508.061523 371.762421,504.543732 
	C358.492859,498.100708 336.718384,498.435944 325.287018,513.203979 
	C323.055939,516.086304 320.999878,519.104187 318.863098,522.059570 
	C311.851379,520.707458 304.811035,519.487854 297.832916,517.980225 
	C269.191498,511.792175 242.496017,500.837982 217.247559,484.703308 
	C214.751907,476.274689 212.810211,468.183868 210.868500,460.093048 
z"/>
<path fill="#A73127" opacity="1.000000" stroke="none" 
	d="
M210.629944,459.862579 
	C212.810211,468.183868 214.751907,476.274689 216.892776,484.717529 
	C217.619415,497.902496 215.663055,510.453827 211.885452,522.628540 
	C208.014023,535.105591 193.941360,539.485413 183.116272,532.050964 
	C178.065826,528.582520 175.881546,522.417603 177.273300,516.403442 
	C179.262863,507.805939 181.357956,499.215607 182.864822,490.527985 
	C184.853012,479.065369 177.114899,471.613190 165.828018,473.953888 
	C156.670685,475.852936 147.600510,478.170349 138.484146,480.269440 
	C128.992340,482.454987 120.298798,476.850098 118.177673,467.215759 
	C115.999329,457.321503 121.766922,447.853363 131.180008,446.101929 
	C142.925323,443.916595 154.695053,441.862457 166.696655,439.461487 
	C185.652069,437.010712 200.503510,443.050903 210.629944,459.862579 
M209.339828,504.802002 
	C209.555328,499.672119 209.855515,494.543823 209.953445,489.411682 
	C210.009018,486.499268 209.718719,483.248077 205.798813,483.359589 
	C202.246124,483.460663 202.208160,486.523590 201.983124,489.272461 
	C201.227127,498.506927 200.200485,507.723328 199.675781,516.969177 
	C199.571426,518.807983 200.773514,521.827332 202.168808,522.415833 
	C205.126099,523.663086 206.616180,521.130066 207.115860,518.447632 
	C207.904678,514.213013 208.510239,509.944183 209.339828,504.802002 
M133.796951,465.023651 
	C130.752472,465.127991 127.137001,465.004913 127.368126,469.289825 
	C127.574295,473.112183 131.039688,473.133179 133.880096,472.952362 
	C138.842072,472.636566 143.858932,472.376099 148.695358,471.350250 
	C150.298080,471.010284 151.416641,468.387726 152.756561,466.808746 
	C151.041550,465.880585 149.346146,464.216034 147.607651,464.169708 
	C143.319473,464.055511 139.011536,464.683929 133.796951,465.023651 
z"/>
<path fill="#A73127" opacity="1.000000" stroke="none" 
	d="
M130.529266,321.905762 
	C131.942673,322.704895 132.898804,323.678528 134.047150,324.292999 
	C155.382614,335.710266 157.717056,357.786346 150.791061,375.068146 
	C148.169144,381.610413 143.777374,387.443390 140.089447,393.939026 
	C132.894135,401.414886 126.168640,408.973663 118.594620,415.556061 
	C112.395889,420.943237 104.485123,420.894226 97.563652,416.791656 
	C90.949928,412.871460 87.370140,405.482819 89.157982,397.865967 
	C89.842636,394.949097 92.335907,392.174500 94.619774,389.972748 
	C99.723259,385.052673 105.413979,380.737427 110.463425,375.767334 
	C113.107346,373.164978 115.238205,369.880676 117.010162,366.586639 
	C120.703621,359.720520 119.686501,354.658417 112.912956,351.178528 
	C104.476265,346.844147 95.492035,343.573059 86.733566,339.868011 
	C71.847771,333.570953 69.796135,319.380493 80.434837,308.994873 
	C85.205978,304.337219 92.123619,303.656006 99.231224,307.040558 
	C109.559906,311.958984 119.853111,316.951904 130.529266,321.905762 
M119.016586,407.557831 
	C124.680573,401.047913 130.436310,394.614349 135.955963,387.984253 
	C137.750336,385.828857 139.587082,382.841492 136.237534,380.666473 
	C133.375458,378.808014 131.396744,381.084290 129.698044,383.372955 
	C127.023048,386.976990 124.370628,390.622650 121.394859,393.971832 
	C118.194366,397.573914 114.381844,400.651520 111.356529,404.380005 
	C110.220215,405.780426 109.576050,408.984650 110.404808,410.283844 
	C112.152397,413.023468 114.708855,411.714539 116.718224,409.800476 
	C117.320694,409.226624 117.912872,408.641968 119.016586,407.557831 
M92.703224,334.884369 
	C94.183350,335.619568 95.634544,336.877197 97.150726,336.961151 
	C99.162735,337.072540 101.225464,336.267792 103.266396,335.856659 
	C102.425148,334.020081 102.071381,331.528259 100.650330,330.471039 
	C96.559547,327.427734 92.154411,324.737762 87.620605,322.397522 
	C86.080406,321.602539 83.788681,322.263550 81.840378,322.259247 
	C82.232567,324.321594 81.933037,327.079865 83.161476,328.300934 
	C85.691093,330.815369 89.037056,332.508514 92.703224,334.884369 
z"/>
<path fill="#A73127" opacity="1.000000" stroke="none" 
	d="
M318.750000,522.388062 
	C320.999878,519.104187 323.055939,516.086304 325.287018,513.203979 
	C336.718384,498.435944 358.492859,498.100708 371.762421,504.543732 
	C379.007446,508.061523 385.500336,513.128296 392.622803,517.620605 
	C398.284546,523.668457 403.925659,529.373840 408.948242,535.579834 
	C413.583893,541.307739 416.910156,547.446472 413.383942,555.475403 
	C410.304626,562.486755 405.115082,566.580872 398.071411,567.704163 
	C392.024200,568.668579 387.471069,565.007324 383.989380,560.137634 
	C378.112671,551.918091 372.058258,543.906372 363.172302,538.512939 
	C355.913971,534.107361 349.577576,535.269897 345.776367,542.753967 
	C341.240845,551.683960 337.456909,560.994019 332.973053,569.952148 
	C327.782745,580.321655 318.052399,582.901794 308.032471,577.030579 
	C299.516479,572.040710 297.857849,560.350891 302.871002,552.311707 
	C308.771790,542.849182 313.436279,532.615723 318.750000,522.388062 
M405.643463,546.154541 
	C405.684601,544.021667 406.662750,540.943298 405.617126,539.906982 
	C397.967468,532.325684 389.984100,525.071167 381.870941,517.982666 
	C381.073029,517.285522 378.009064,517.854553 377.237579,518.823608 
	C376.447571,519.815918 376.837891,522.143982 377.366730,523.658569 
	C377.753662,524.766785 379.206787,525.498230 380.173981,526.408997 
	C386.572754,532.434753 392.879578,538.563477 399.437347,544.410828 
	C400.822723,545.646118 403.123413,545.854919 405.643463,546.154541 
M315.748413,570.144043 
	C317.621613,570.923645 320.913330,572.687195 321.156799,572.336182 
	C325.310181,566.349060 329.168152,560.147217 332.803986,553.827515 
	C333.127716,553.264771 331.701721,550.958374 330.662872,550.553345 
	C329.596161,550.137634 327.325562,550.611267 326.756683,551.472046 
	C322.870026,557.353271 319.292786,563.438965 315.748413,570.144043 
z"/>
<path fill="#A73127" opacity="1.000000" stroke="none" 
	d="
M518.404663,372.266083 
	C516.354370,370.191132 514.612549,368.202606 512.912048,366.179474 
	C500.615265,351.550140 499.591766,333.184479 510.440216,317.004395 
	C513.097595,313.040985 516.519409,309.591248 519.575439,305.893433 
	C521.038574,304.122986 522.468140,302.324738 523.996582,300.195740 
	C529.890320,296.201965 535.650940,292.469818 541.523682,288.923309 
	C547.791016,285.138550 554.179688,282.062866 561.988953,282.906311 
	C569.563232,283.724365 576.180298,290.030029 577.910522,299.149994 
	C579.028870,305.044281 575.485107,310.457306 568.845459,314.107422 
	C561.361084,318.221863 553.885437,322.429565 546.831238,327.222595 
	C541.803955,330.638367 537.957031,335.416351 539.064209,342.231232 
	C540.026062,348.151337 545.035278,350.848358 549.279297,353.968170 
	C556.262817,359.101837 563.983521,363.371277 570.375732,369.133972 
	C577.634827,375.678192 576.932068,384.747345 570.828796,391.883270 
	C563.141968,400.870605 551.936768,398.891815 546.269409,394.043304 
	C537.395264,386.451294 527.940857,379.537537 518.404663,372.266083 
M535.498840,311.009247 
	C536.768250,309.936432 537.961060,308.753235 539.320496,307.810150 
	C544.784546,304.019440 550.443787,300.489563 555.704651,296.439453 
	C557.180664,295.303162 557.540771,292.717346 558.412720,290.796417 
	C556.316162,290.395508 554.231689,289.869965 552.116150,289.664764 
	C551.422607,289.597443 550.582336,290.272186 549.921387,290.759735 
	C543.108459,295.785126 536.230408,300.729065 529.566528,305.946167 
	C526.965515,307.982513 522.808472,310.591797 526.385864,314.310333 
	C529.983032,318.049500 532.403137,313.482758 535.498840,311.009247 
M567.572388,377.063141 
	C563.345520,372.911224 559.288635,368.557556 554.771240,364.750366 
	C553.653503,363.808289 551.041199,364.639465 549.115906,364.655518 
	C549.375061,366.569672 548.960205,369.062622 550.016357,370.292328 
	C553.562439,374.421295 557.493469,378.258789 561.588623,381.853027 
	C562.802002,382.917969 565.042786,382.812195 566.812805,383.242889 
	C567.204712,381.381989 567.596619,379.521118 567.572388,377.063141 
z"/>
<path fill="#A73127" opacity="1.000000" stroke="none" 
	d="
M433.302979,500.119629 
	C432.928986,493.259155 432.410400,486.610291 432.931183,480.043884 
	C434.060516,465.803528 442.910858,457.000732 454.947968,450.868500 
	C464.775848,445.861755 475.437073,445.686005 486.604675,445.934021 
	C496.838348,447.996155 506.657715,449.847534 516.344910,452.235291 
	C523.037720,453.884979 527.317444,458.500000 528.928528,465.252319 
	C530.556274,472.074402 529.340942,478.312347 524.136475,483.328705 
	C519.910522,487.401886 514.974548,487.612152 509.424927,486.260284 
	C499.717316,483.895538 489.964874,481.165924 480.076569,480.239105 
	C469.223907,479.221893 463.966675,486.297028 466.135773,497.034546 
	C467.916687,505.850311 469.809296,514.643921 471.707062,523.435547 
	C473.586243,532.141174 467.115021,541.238770 457.785370,542.920959 
	C447.379395,544.797302 438.041229,538.386719 436.996979,528.797424 
	C435.963898,519.311401 434.759094,509.844116 433.302979,500.119629 
M487.306732,452.603851 
	C485.335663,452.730560 483.193756,452.427887 481.448517,453.122223 
	C480.095947,453.660309 478.607941,455.342987 478.387329,456.711517 
	C478.243774,457.601654 480.137512,459.601013 481.338928,459.804962 
	C491.934784,461.603455 502.566254,463.220459 513.228516,464.562866 
	C514.540161,464.728027 516.914978,463.229950 517.303162,462.022430 
	C517.683655,460.838745 516.474060,458.728943 515.369995,457.610107 
	C514.433411,456.660980 512.686340,456.322174 511.238464,456.098663 
	C503.554596,454.912567 495.851959,453.848053 487.306732,452.603851 
M463.196869,512.673035 
	C461.689362,511.270996 460.181854,509.868958 458.674347,508.466980 
	C457.768677,510.216248 456.201569,511.921967 456.082977,513.723083 
	C455.746490,518.834534 455.696350,524.014893 456.195496,529.103210 
	C456.362640,530.807312 458.525513,532.315735 459.776154,533.913574 
	C461.156250,532.389587 463.611267,530.937561 463.718964,529.328369 
	C464.070160,524.080261 463.564697,518.774841 463.196869,512.673035 
z"/>
<path fill="#A73127" opacity="1.000000" stroke="none" 
	d="
M323.923767,128.692413 
	C322.828735,130.562271 321.668396,131.976257 320.804901,133.552826 
	C311.770905,150.046448 295.894135,157.274628 277.482330,153.319092 
	C267.168518,151.103271 258.186218,146.174240 249.419937,139.959656 
	C242.343384,133.340302 235.231125,127.161407 228.952667,120.227524 
	C223.329178,114.016975 223.893173,104.867737 229.258575,97.441956 
	C233.619232,91.406731 241.025696,88.820480 248.129654,92.152496 
	C251.935379,93.937515 254.720322,97.867493 258.021606,100.766075 
	C264.526123,106.477165 270.658630,112.734962 277.723450,117.647026 
	C283.647827,121.766144 290.621735,119.501640 293.784760,112.869911 
	C297.369324,105.354393 299.942932,97.357033 302.963470,89.572021 
	C304.028076,86.828102 304.894073,83.978821 306.237549,81.377388 
	C308.896515,76.228806 312.772430,72.866699 319.080536,72.952484 
	C326.088440,73.047783 332.017273,74.997810 336.063904,81.121193 
	C339.906372,86.935616 339.584351,92.672546 336.692413,98.887054 
	C332.187225,108.568275 328.201874,118.491394 323.923767,128.692413 
M251.446869,133.061737 
	C254.086258,134.767273 256.552704,136.944977 259.430725,137.999039 
	C261.122772,138.618729 263.468781,137.452881 265.520630,137.090134 
	C264.814148,135.264420 264.625580,132.832336 263.315521,131.713303 
	C255.901978,125.380936 248.317566,119.233757 240.541718,113.353630 
	C239.083755,112.251114 235.838654,111.680428 234.563065,112.547829 
	C231.873352,114.376854 233.264160,116.976212 235.284943,118.805321 
	C240.434677,123.466576 245.671814,128.031265 251.446869,133.061737 
M310.098297,89.640358 
	C308.953064,92.028053 307.321198,94.321342 306.833221,96.836555 
	C306.506744,98.519485 307.805450,100.517700 308.376892,102.374832 
	C310.146393,101.620552 312.652832,101.360703 313.551025,100.021881 
	C316.583252,95.502144 319.270203,90.705605 321.588959,85.779449 
	C322.301086,84.266541 321.408142,81.998131 321.250183,80.075676 
	C319.234100,80.523064 316.616150,80.340263 315.338348,81.560661 
	C313.249359,83.555779 312.033112,86.464676 310.098297,89.640358 
z"/>
<path fill="#A73127" opacity="1.000000" stroke="none" 
	d="
M205.708588,164.891663 
	C206.366104,168.066040 206.501831,171.059372 207.095123,173.959076 
	C212.102737,198.433014 195.613922,214.732056 177.303055,219.883362 
	C171.279877,221.577850 165.014435,222.411163 158.506714,223.801605 
	C155.266953,223.643204 152.387619,223.208466 149.492249,223.020340 
	C139.652695,222.381058 129.730911,222.128571 120.743706,217.315750 
	C112.329582,212.809860 112.619179,204.822113 113.063019,196.992523 
	C113.341644,192.077499 118.840881,185.531891 123.741463,185.377655 
	C129.377045,185.200317 135.044205,186.836075 140.728790,187.207062 
	C148.359894,187.705078 156.065491,188.362244 163.656708,187.812744 
	C171.548431,187.241501 175.205887,181.147171 173.142227,173.404327 
	C170.828613,164.723602 168.187790,156.130615 165.771820,147.476440 
	C163.695892,140.040283 163.349792,133.089951 170.042038,127.289658 
	C175.747849,122.344353 182.120728,122.674194 188.525986,124.327858 
	C194.755310,125.936111 197.534607,131.186966 198.981766,136.968063 
	C201.282883,146.160553 203.275711,155.430191 205.708588,164.891663 
M142.307678,208.073181 
	C138.344910,207.735672 134.355103,206.987259 130.431549,207.245514 
	C128.647842,207.362930 126.995293,209.472916 125.283241,210.679047 
	C126.682068,212.063034 128.009674,214.558182 129.491119,214.653107 
	C140.191605,215.338867 150.922653,215.671265 161.645645,215.714249 
	C162.888809,215.719223 165.127213,213.254150 165.112579,211.954437 
	C165.098007,210.660172 163.029419,208.936813 161.484131,208.247452 
	C160.116562,207.637344 158.229919,208.228485 156.572678,208.222809 
	C152.124741,208.207581 147.676926,208.156723 142.307678,208.073181 
M181.129852,149.250046 
	C180.671127,144.967041 180.491989,140.625122 179.608566,136.431580 
	C179.280243,134.873001 177.509766,133.224426 175.978897,132.498444 
	C175.327148,132.189377 172.478958,134.228821 172.542770,135.052689 
	C173.086914,142.075516 173.941345,149.085938 175.102905,156.033188 
	C175.235107,156.823868 178.014465,157.893021 179.230865,157.569916 
	C180.351776,157.272171 181.377808,155.376816 181.778549,153.992111 
	C182.111908,152.840179 181.476746,151.407990 181.129852,149.250046 
z"/>
<path fill="#A73127" opacity="1.000000" stroke="none" 
	d="
M490.489014,212.021317 
	C481.959351,211.746811 473.851349,211.471878 465.354462,211.124741 
	C446.626373,202.013870 439.843567,186.174835 438.973083,166.417358 
	C438.405731,153.523346 439.884277,141.346176 443.779388,129.485001 
	C446.525238,121.123444 451.674072,117.952187 460.335938,117.853584 
	C466.606781,117.782196 472.165436,118.980103 475.525726,124.294006 
	C477.337677,127.159386 478.422577,131.270142 478.022400,134.601196 
	C476.829773,144.528244 473.796906,154.292755 473.220215,164.221695 
	C472.331085,179.529984 479.325653,180.862244 491.726746,178.458221 
	C499.430695,176.964767 506.982147,174.677368 514.592041,172.707718 
	C523.246521,170.467697 531.617859,173.543381 535.142273,180.304611 
	C539.528198,188.718597 538.146423,197.635941 530.995972,203.361847 
	C528.698059,205.201950 525.484070,206.263687 522.524780,206.845383 
	C512.692993,208.778046 502.787506,210.336731 492.906036,212.013824 
	C492.259125,212.123611 491.576630,212.023407 490.489014,212.021317 
M446.184204,143.876282 
	C445.865570,147.176895 445.355682,150.472992 445.277649,153.779282 
	C445.184143,157.742416 445.111847,161.773544 445.773193,165.648422 
	C445.988953,166.912552 448.427917,168.234085 450.061768,168.610336 
	C450.742126,168.767044 452.700470,166.605179 452.843292,165.356415 
	C454.028656,154.991150 455.078613,144.602631 455.741669,134.193878 
	C455.839844,132.652817 453.697876,130.969040 452.592285,129.351303 
	C451.176849,130.482117 449.016296,131.346634 448.497620,132.797928 
	C447.338318,136.041870 446.997375,139.578247 446.184204,143.876282 
M521.290161,179.033661 
	C516.196594,179.649719 511.034027,179.958649 506.053650,181.078201 
	C504.649261,181.393906 503.343903,183.976364 502.905121,185.745377 
	C502.756836,186.343323 505.458008,188.519119 506.796509,188.465454 
	C512.915955,188.220093 519.036011,187.593262 525.101624,186.724686 
	C526.364075,186.543915 528.171997,184.853134 528.318787,183.681580 
	C528.468567,182.486343 527.126221,180.765854 525.977783,179.853790 
	C525.067444,179.130844 523.462891,179.281967 521.290161,179.033661 
z"/>
<path fill="#D33C31" opacity="1.000000" stroke="none" 
	d="
M187.992554,369.983704 
	C187.316818,363.712280 186.624054,357.442657 185.968857,351.169098 
	C184.534790,337.438232 186.258850,324.012726 190.157944,310.310394 
	C190.395676,309.842316 190.811462,309.723572 191.288513,309.792053 
	C195.902405,309.722992 200.222366,310.310944 204.144165,309.321228 
	C220.366592,305.227386 236.596298,301.069305 252.574066,296.128723 
	C265.247314,292.209930 278.056915,290.071442 291.236267,290.085114 
	C299.518280,290.093719 307.799713,290.604553 316.322601,291.023010 
	C317.028290,291.450623 317.492828,291.745361 317.957336,292.040131 
	C319.969360,295.663239 321.951111,299.303558 323.998474,302.906555 
	C333.922455,320.370667 336.881805,340.188995 343.107300,358.906372 
	C346.130585,367.996063 349.794128,377.013519 354.351349,385.422211 
	C363.104919,401.573730 376.840546,411.184143 395.245636,414.025482 
	C402.927155,415.211334 410.733063,416.557159 416.644653,423.041809 
	C409.096771,430.737701 401.542633,437.855957 393.579712,444.900116 
	C389.370972,444.544708 385.568329,443.996918 381.771545,444.034790 
	C372.445709,444.127808 366.959412,448.354553 364.079071,457.268799 
	C363.364441,459.480560 362.668457,461.698395 361.587860,463.962219 
	C347.117249,467.694824 333.022644,471.378601 318.707367,474.793945 
	C316.633728,470.816437 315.079926,466.918091 312.874756,463.431763 
	C304.440002,450.096283 291.434326,447.163330 278.201904,455.611115 
	C272.044617,459.542053 266.140656,463.869812 260.121857,468.017700 
	C258.803680,466.818939 257.630524,465.389374 256.145386,464.456390 
	C236.752670,452.273315 221.027374,436.388062 208.249329,416.806000 
	C210.232956,411.211121 212.980057,406.362030 214.296768,401.151520 
	C217.713089,387.632324 211.691483,377.309448 198.478287,372.992950 
	C195.024002,371.864471 191.489960,370.980133 187.992554,369.983704 
M239.840897,322.937469 
	C235.638824,319.207428 231.499207,315.403809 227.217072,311.768036 
	C222.941833,308.138153 218.587753,309.689606 217.265335,315.180420 
	C215.937912,320.691986 219.467285,323.363037 223.393661,325.951538 
	C231.541016,331.322815 231.794388,334.496643 224.918610,341.604431 
	C222.957565,343.631653 220.123413,345.496155 219.466293,347.917419 
	C218.762390,350.511017 219.600372,353.963104 220.899628,356.447235 
	C221.431427,357.463989 225.591782,357.886017 226.985092,356.937988 
	C236.153214,350.699829 245.561493,334.599060 239.840897,322.937469 
M236.871231,402.173279 
	C236.842148,404.770233 235.838562,408.031128 237.037720,409.791321 
	C238.446381,411.859070 241.654694,413.305511 244.294678,413.743866 
	C246.523575,414.114014 249.072510,412.716003 251.449905,412.001160 
	C257.305511,410.240540 260.291534,411.697113 261.821381,417.642761 
	C262.598145,420.661743 262.673462,423.862823 263.045624,426.983978 
	C263.572174,431.400146 266.980713,434.346954 271.173859,433.946991 
	C276.151428,433.472107 276.717041,429.721832 275.759094,426.267639 
	C273.833557,419.324249 272.042786,412.093384 268.562988,405.898682 
	C264.782898,399.169403 257.869019,396.719971 250.011444,398.526276 
	C245.811905,399.491608 241.654663,400.640991 236.871231,402.173279 
z"/>
<path fill="#EF7B6C" opacity="1.000000" stroke="none" 
	d="
M318.429321,292.013733 
	C317.492828,291.745361 317.028290,291.450623 316.208008,290.706421 
	C300.688141,269.544373 281.691681,255.885101 254.802216,256.654907 
	C258.331299,251.279419 258.807251,245.868515 257.291748,240.105988 
	C256.661682,237.710220 256.373322,235.223938 255.942139,232.776611 
	C255.215240,228.650848 252.888840,227.151459 248.865616,228.227509 
	C244.282288,229.453369 241.774124,233.404068 242.760910,238.089859 
	C243.238403,240.357269 244.039993,242.554382 244.618759,244.802917 
	C245.726837,249.107925 244.171814,252.160172 239.826477,253.064514 
	C236.292923,253.799927 232.481461,253.350647 229.034134,254.300751 
	C226.422318,255.020569 223.114670,256.607544 222.099762,258.748657 
	C221.139404,260.774658 222.762802,264.025421 223.001709,266.992798 
	C217.494598,271.506836 212.235626,275.765564 206.896973,279.639984 
	C204.967163,274.147583 203.409332,268.907440 201.179459,263.970886 
	C199.201553,259.592163 196.760712,255.349396 193.981094,251.432007 
	C192.170959,248.880905 189.388718,247.019531 187.041962,244.849182 
	C190.075409,240.503647 192.567993,235.620651 196.247894,231.917526 
	C205.728073,222.377548 215.733765,213.359741 226.149109,204.116974 
	C232.864655,207.086395 238.686432,211.037109 245.111984,212.862625 
	C259.730255,217.015717 269.868195,210.237000 273.039154,195.425766 
	C274.220703,189.906738 275.651672,184.441101 276.968872,178.951111 
	C299.039062,172.896576 321.462097,171.627670 344.756836,174.332153 
	C348.553589,187.416718 353.195221,199.092834 366.881165,204.218933 
	C366.125854,205.103729 365.616425,205.787445 364.963348,206.281189 
	C350.064117,217.545258 343.824402,232.931030 342.891174,251.175446 
	C342.158417,265.501038 345.488922,278.869507 350.816132,291.931305 
	C340.177856,291.949982 329.539612,291.968658 318.429321,292.013733 
z"/>
<path fill="#D33C31" opacity="1.000000" stroke="none" 
	d="
M397.731567,197.873840 
	C410.876312,198.904282 420.427704,206.296570 427.957458,216.186264 
	C442.337677,235.073441 448.364319,256.680298 446.955750,280.356598 
	C445.123505,311.153778 413.622772,334.619568 384.428802,326.874115 
	C370.624878,323.211792 362.618408,312.857727 355.788544,301.340088 
	C354.194244,298.651489 353.201569,295.606079 352.323669,292.331604 
	C368.065002,290.100739 382.926300,286.635712 395.566620,277.170715 
	C403.369995,271.327576 409.969757,264.343292 412.335205,254.139923 
	C416.491089,253.442627 420.262970,252.983124 423.932678,252.099380 
	C427.522095,251.234985 428.496277,248.637573 427.488556,245.224930 
	C425.967102,240.072571 423.282928,238.767105 415.106201,238.735931 
	C414.500702,234.698898 414.033325,231.082504 413.352936,227.506653 
	C411.172333,216.045883 404.535583,206.910568 397.731567,197.873840 
z"/>
<path fill="#DF5D50" opacity="1.000000" stroke="none" 
	d="
M397.423035,197.752319 
	C404.535583,206.910568 411.172333,216.045883 413.352936,227.506653 
	C414.033325,231.082504 414.500702,234.698898 414.802063,238.954376 
	C406.615967,242.775543 402.829773,240.551575 402.089722,232.167526 
	C401.842560,229.367188 402.139709,226.511810 401.804199,223.727859 
	C401.306763,219.600174 397.774475,216.747711 393.868591,217.070877 
	C389.263367,217.451920 388.658661,220.941895 389.104401,224.321716 
	C389.856873,230.027771 390.544952,235.897263 392.479248,241.258133 
	C395.822968,250.525055 403.730896,255.328766 411.906525,254.192032 
	C409.969757,264.343292 403.369995,271.327576 395.566620,277.170715 
	C382.926300,286.635712 368.065002,290.100739 352.280701,291.954987 
	C351.674835,291.967133 351.503510,291.962616 351.074158,291.944702 
	C345.488922,278.869507 342.158417,265.501038 342.891174,251.175446 
	C343.824402,232.931030 350.064117,217.545258 364.963348,206.281189 
	C365.616425,205.787445 366.125854,205.103729 367.333069,204.230133 
	C377.425049,205.552933 384.713135,200.718002 391.986877,195.840637 
	C393.696106,196.437347 395.405304,197.034058 397.423035,197.752319 
z"/>
<path fill="#C3221C" opacity="1.000000" stroke="none" 
	d="
M318.928040,475.062378 
	C333.022644,471.378601 347.117249,467.694824 361.516907,464.349060 
	C360.493408,471.113129 361.870483,472.965576 367.675598,473.050964 
	C372.062317,473.115479 374.442169,470.903717 375.512665,466.908112 
	C376.113190,464.666626 376.595154,462.392548 377.227692,460.160675 
	C378.443512,455.870819 381.291748,454.213867 385.557129,455.480377 
	C387.925598,456.183624 390.119904,457.475494 392.489929,458.170807 
	C395.137421,458.947601 398.120880,460.254456 400.539093,459.651093 
	C402.808044,459.084961 405.180054,456.626984 406.209351,454.401428 
	C406.699890,453.340790 404.570404,450.316711 402.933594,449.194092 
	C400.249695,447.353271 396.999725,446.337769 393.988495,444.974182 
	C401.542633,437.855957 409.096771,430.737701 416.819153,423.335175 
	C417.158661,423.052155 417.329895,423.053436 417.758057,423.055420 
	C427.459808,435.723969 423.815277,454.406036 410.316010,464.760437 
	C394.921814,476.568329 376.939850,482.195801 358.149475,484.725830 
	C346.220001,486.332092 333.993927,485.735474 321.385529,485.703308 
	C320.222839,481.874054 319.575439,478.468231 318.928040,475.062378 
z"/>
<path fill="#A83127" opacity="1.000000" stroke="none" 
	d="
M392.240387,195.622940 
	C384.713135,200.718002 377.425049,205.552933 367.512024,203.940582 
	C353.195221,199.092834 348.553589,187.416718 345.196289,174.331635 
	C344.787994,171.518158 344.542877,169.039749 344.299591,166.561172 
	C343.676086,160.208725 347.597748,155.376633 353.784637,154.873169 
	C360.294678,154.343399 363.180634,157.085526 363.980591,164.186157 
	C364.425873,168.138382 364.889435,172.148071 365.963959,175.957199 
	C368.050476,183.353714 373.655884,185.404922 380.058838,181.322159 
	C383.561554,179.088699 386.805756,176.446716 390.328400,174.248337 
	C396.338318,170.497696 401.936493,171.627457 404.973938,176.976974 
	C408.214844,182.684830 406.392975,187.894760 399.949219,191.364777 
	C397.460541,192.704956 394.978790,194.058044 392.240387,195.622940 
M354.490082,176.856354 
	C353.650574,173.483459 352.990723,170.049728 351.879700,166.768784 
	C351.458191,165.524002 349.997681,164.631073 349.010712,163.577759 
	C348.532745,164.823807 347.483490,166.169556 347.680359,167.297836 
	C348.361725,171.202072 349.148987,175.155426 350.551666,178.840454 
	C351.373352,180.999069 353.439423,182.684036 354.945740,184.582062 
	C354.874146,182.254227 354.802551,179.926392 354.490082,176.856354 
M387.844238,184.309540 
	C391.317352,182.853622 394.829498,181.480087 398.229248,179.869278 
	C398.875946,179.562881 399.563995,178.145874 399.354065,177.551956 
	C399.124512,176.902512 397.638336,176.041351 397.108215,176.260468 
	C393.661499,177.685089 390.283478,179.301300 387.015198,181.095566 
	C386.661499,181.289734 387.153839,183.024963 387.844238,184.309540 
z"/>
<path fill="#A83127" opacity="1.000000" stroke="none" 
	d="
M187.605469,369.950165 
	C191.489960,370.980133 195.024002,371.864471 198.478287,372.992950 
	C211.691483,377.309448 217.713089,387.632324 214.296768,401.151520 
	C212.980057,406.362030 210.232956,411.211121 208.018936,416.548248 
	C205.604950,419.711304 203.455551,422.685974 200.981750,425.360657 
	C196.718140,429.970428 190.280670,430.282104 185.839020,426.322266 
	C181.627014,422.567139 181.864716,417.573730 186.280167,412.249786 
	C188.607452,409.443634 190.935455,406.565613 192.756546,403.426208 
	C197.506149,395.238342 195.738174,391.159454 186.647675,388.957825 
	C182.453384,387.942078 178.117996,387.481384 173.958450,386.355652 
	C166.356583,384.298309 163.937775,377.088013 168.468948,370.719452 
	C171.053085,367.087494 174.577469,366.359497 178.617981,367.383972 
	C181.512726,368.117950 184.353500,369.064789 187.605469,369.950165 
M200.011337,413.475159 
	C198.730698,415.424316 197.232452,417.272034 196.257202,419.363617 
	C195.735260,420.482971 196.114349,422.022491 196.086823,423.372406 
	C197.362045,422.920654 199.223221,422.852142 199.812225,421.951569 
	C202.537384,417.785004 205.044937,413.456909 207.316254,409.025604 
	C207.919220,407.849243 207.407333,406.101471 207.407333,404.616058 
	C206.845657,404.403107 206.283981,404.190155 205.722305,403.977173 
	C203.949707,406.937744 202.177094,409.898285 200.011337,413.475159 
M177.164795,378.457550 
	C174.974472,378.229309 172.784134,378.001038 170.593811,377.772797 
	C172.268433,379.449829 173.940674,381.129303 175.623123,382.798431 
	C175.731766,382.906250 175.912903,382.967438 176.070145,382.995850 
	C178.546616,383.442993 181.119141,386.498871 183.249512,382.911530 
	C183.391724,382.672058 179.745148,380.182587 177.164795,378.457550 
z"/>
<path fill="#A83127" opacity="1.000000" stroke="none" 
	d="
M186.625748,244.874344 
	C189.388718,247.019531 192.170959,248.880905 193.981094,251.432007 
	C196.760712,255.349396 199.201553,259.592163 201.179459,263.970886 
	C203.409332,268.907440 204.967163,274.147583 206.761795,279.987610 
	C205.667801,289.199585 200.553192,294.965454 193.655792,299.879639 
	C188.547104,301.699524 183.795715,303.421936 179.044342,305.144348 
	C175.614075,305.668518 172.200073,306.390259 168.750031,306.673981 
	C162.388077,307.197144 157.688812,303.433228 156.748520,297.357452 
	C155.912659,291.956451 158.880386,287.929016 164.353821,287.173004 
	C166.314331,286.902191 168.306259,286.858856 171.084259,286.553833 
	C174.634613,285.821381 177.479141,285.522430 180.115738,284.617645 
	C186.559006,282.406372 188.114639,278.627899 184.776352,272.765808 
	C182.577881,268.905182 179.727936,265.415527 177.169693,261.759766 
	C172.663895,251.264542 175.703857,245.594681 186.625748,244.874344 
M183.349091,300.048187 
	C184.569122,298.795837 185.789154,297.543518 187.009186,296.291168 
	C185.338165,296.049377 183.575577,295.344879 182.013580,295.653992 
	C177.621613,296.523193 173.269272,297.672821 168.996094,299.013855 
	C167.690262,299.423676 166.691315,300.811310 165.551819,301.751160 
	C167.053101,302.320465 168.667297,303.563232 170.034668,303.333954 
	C174.280396,302.622009 178.432404,301.351135 183.349091,300.048187 
M184.654831,264.624847 
	C187.735565,262.028534 184.876953,253.774399 179.655319,251.496887 
	C178.223007,256.929413 180.952042,260.722382 184.654831,264.624847 
z"/>
<path fill="#A73027" opacity="1.000000" stroke="none" 
	d="
M482.029938,376.945068 
	C484.228241,378.803467 487.259338,380.234894 488.471405,382.598938 
	C492.382751,390.227692 488.152527,395.919006 478.014282,396.081635 
	C473.976807,396.027374 470.840149,395.948547 467.704681,395.981537 
	C457.294586,396.091125 455.058533,399.136658 458.084259,409.008026 
	C459.760986,412.990173 461.631348,416.903931 463.067291,420.971069 
	C465.038177,426.553192 462.519318,431.866699 457.431549,433.534607 
	C451.537750,435.466766 446.268799,432.825195 444.477905,426.868286 
	C441.854736,418.143188 439.357208,409.380310 436.717529,400.194305 
	C436.660492,399.125549 436.692017,398.496063 436.817566,397.162170 
	C438.163452,389.355347 443.696381,385.135437 448.357330,380.039551 
	C459.622498,376.535950 470.638153,374.706757 482.029938,376.945068 
M459.981110,381.986572 
	C459.437469,385.795105 462.332764,384.916290 464.218750,384.860199 
	C468.830536,384.722931 473.447021,384.422211 478.031799,383.916626 
	C479.249969,383.782318 480.360229,382.669464 481.520050,382.005859 
	C480.464752,381.147003 479.357330,379.494080 478.362701,379.559387 
	C472.364899,379.953156 466.392914,380.740479 459.981110,381.986572 
M454.861786,424.546112 
	C455.982361,425.816345 457.102936,427.086609 458.223480,428.356842 
	C458.678192,426.753998 459.607239,425.111786 459.478271,423.557404 
	C459.276733,421.128510 458.522980,418.697205 457.657135,416.397186 
	C457.345184,415.568481 456.034454,415.115692 455.179535,414.491364 
	C454.545624,415.494751 453.347504,416.524933 453.393677,417.495972 
	C453.493835,419.602753 454.230042,421.679321 454.861786,424.546112 
z"/>
<path fill="#A73027" opacity="1.000000" stroke="none" 
	d="
M318.707367,474.793976 
	C319.575439,478.468231 320.222839,481.874054 320.971893,485.665771 
	C320.868439,494.771484 318.093231,498.478912 311.416382,498.952820 
	C306.380188,499.310303 303.225159,497.005981 302.089355,492.059601 
	C301.386627,488.999298 300.774658,485.918213 299.969238,482.109497 
	C299.179108,479.570099 298.541687,477.767639 297.731567,475.677887 
	C292.389893,469.324280 288.490082,469.476654 282.684814,476.038879 
	C281.951447,476.396759 281.482635,476.677094 281.013794,476.957458 
	C279.401093,478.115479 277.730011,479.200958 276.185364,480.443573 
	C267.570221,487.374115 259.843903,484.516907 257.915863,473.273682 
	C258.506256,471.449066 259.137939,470.023621 259.945740,468.307922 
	C266.140656,463.869812 272.044617,459.542053 278.201904,455.611115 
	C291.434326,447.163330 304.440002,450.096283 312.874756,463.431763 
	C315.079926,466.918091 316.633728,470.816437 318.707367,474.793976 
M308.856567,473.672058 
	C310.233276,477.731628 311.459167,481.852325 313.066650,485.818390 
	C313.647369,487.251038 315.143036,488.312805 316.221130,489.543854 
	C316.703735,487.989349 317.900879,486.239929 317.539551,484.915680 
	C316.283295,480.311462 314.616638,475.801392 312.804749,471.378967 
	C312.347687,470.263306 310.769379,469.606995 309.706329,468.739594 
	C309.330902,470.150421 308.955505,471.561249 308.856567,473.672058 
M265.486725,477.769653 
	C266.162415,478.661957 267.268127,480.410828 267.450012,480.319519 
	C270.793518,478.640991 274.069489,476.809753 277.223633,474.797424 
	C277.582764,474.568298 277.455902,472.707672 276.958099,472.244385 
	C276.435974,471.758545 274.997894,471.680389 274.303284,472.057007 
	C271.400970,473.630646 268.627686,475.442230 265.486725,477.769653 
z"/>
<path fill="#A73027" opacity="1.000000" stroke="none" 
	d="
M473.964325,284.116364 
	C478.682678,286.088867 483.434937,287.984741 488.111206,290.052429 
	C494.617188,292.929138 496.755341,297.831299 494.132263,303.510986 
	C491.525238,309.155762 485.810852,310.594971 479.387817,307.319763 
	C477.181549,306.194702 474.861450,305.292999 472.245087,304.179321 
	C468.866028,302.705292 465.790161,301.432404 462.812378,299.960999 
	C451.186676,294.216370 446.717743,285.353394 450.192322,272.896606 
	C453.591705,260.709442 461.520966,251.688705 472.632019,245.042465 
	C480.467712,245.431229 484.730103,248.213181 484.821716,253.503967 
	C484.865356,256.025330 483.749207,258.917267 482.277985,261.027557 
	C480.341553,263.805206 477.538330,265.978516 474.680756,268.821411 
	C467.700226,275.272125 467.265259,282.195435 473.964325,284.116364 
M463.371185,256.888245 
	C461.855164,259.071960 460.157745,261.158539 458.911011,263.486481 
	C458.401611,264.437683 458.867950,265.911469 458.890381,267.147491 
	C460.041443,266.804810 461.596710,266.822113 462.276154,266.059296 
	C465.917206,261.971863 469.424988,257.755219 472.756073,253.412369 
	C473.324890,252.670822 472.815277,251.102142 472.803864,249.915573 
	C471.731720,249.991013 470.296051,249.653122 469.654114,250.217728 
	C467.545990,252.071701 465.725952,254.253235 463.371185,256.888245 
M480.319427,295.219971 
	C482.744476,296.641418 485.100647,298.209290 487.634003,299.400330 
	C488.457214,299.787323 489.863159,299.409241 490.755310,298.925354 
	C491.080566,298.748901 491.017792,296.716156 490.568604,296.436981 
	C487.518219,294.541382 484.486603,292.251617 481.112427,291.353271 
	C478.291901,290.602325 477.564941,292.562897 480.319427,295.219971 
z"/>
<path fill="#A83128" opacity="1.000000" stroke="none" 
	d="
M276.938599,178.570114 
	C275.651672,184.441101 274.220703,189.906738 273.039154,195.425766 
	C269.868195,210.237000 259.730255,217.015717 245.111984,212.862625 
	C238.686432,211.037109 232.864655,207.086395 226.460190,203.948975 
	C222.397980,200.358047 219.674728,196.618195 222.176849,191.181442 
	C224.552429,186.019623 229.734573,184.389038 234.529846,187.454422 
	C237.175201,189.145462 239.711380,191.007309 242.873016,193.169403 
	C252.696991,198.384430 255.838562,196.804108 257.420349,186.518143 
	C257.445526,186.354584 257.461792,186.189636 257.482239,186.025345 
	C257.885040,183.237915 258.165375,180.426071 258.715485,177.668015 
	C259.961823,171.419342 262.679443,168.883041 267.752319,168.997559 
	C272.960632,169.115128 275.935791,172.101852 276.938599,178.570114 
M238.486481,207.151276 
	C240.099014,207.290604 241.711533,207.429932 243.953354,207.623642 
	C243.402908,206.092575 243.366104,205.210953 242.960800,204.982162 
	C238.384659,202.399139 233.781601,199.857788 229.095154,197.484146 
	C228.540497,197.203232 227.446198,197.987762 226.602051,198.278412 
	C226.918320,199.151855 226.973434,200.432678 227.594421,200.830750 
	C230.915298,202.959366 234.377426,204.867645 238.486481,207.151276 
M264.918304,173.562439 
	C264.069214,174.929794 262.758698,176.209869 262.479706,177.685059 
	C262.066101,179.871628 262.383789,182.196533 262.390167,184.462540 
	C263.720978,182.728546 265.570679,181.168442 266.227417,179.208572 
	C266.809998,177.469925 269.889496,174.765625 264.918304,173.562439 
z"/>
<path fill="#D33C31" opacity="1.000000" stroke="none" 
	d="
M447.954529,380.057220 
	C443.696381,385.135437 438.163452,389.355347 436.805969,396.845093 
	C426.814789,391.010376 422.595276,377.363403 427.633209,364.601135 
	C429.810120,359.086670 434.038635,354.382050 437.709259,349.457153 
	C441.700165,356.705566 446.310028,362.851990 453.858215,366.443420 
	C451.838348,371.210602 449.896454,375.633911 447.954529,380.057220 
z"/>
<path fill="#C3221C" opacity="1.000000" stroke="none" 
	d="
M448.357300,380.039551 
	C449.896454,375.633911 451.838348,371.210602 454.198883,366.328552 
	C460.463379,363.265228 460.170532,358.149139 459.935638,352.643372 
	C461.008331,348.518463 462.015930,344.780243 463.023560,341.042023 
	C463.023529,341.042023 463.448975,340.944458 463.661255,340.895630 
	C478.575256,348.123962 481.443573,361.498138 482.022308,376.500488 
	C470.638153,374.706757 459.622498,376.535950 448.357300,380.039551 
z"/>
<path fill="#A83128" opacity="1.000000" stroke="none" 
	d="
M459.870544,353.030121 
	C460.170532,358.149139 460.463379,363.265228 454.276855,365.984650 
	C446.310028,362.851990 441.700165,356.705566 437.974243,349.257080 
	C436.937256,336.822693 444.140137,324.234650 455.462463,319.059418 
	C457.231293,318.250916 460.647736,318.653564 462.029877,319.903351 
	C464.699249,322.317139 464.853668,325.936432 462.470306,328.913788 
	C461.162506,330.547516 459.074402,331.530243 457.520752,332.999573 
	C455.020447,335.364349 452.671265,337.888916 450.122711,341.059418 
	C450.095795,348.322327 455.639008,350.100433 459.870544,353.030121 
M455.425568,325.057831 
	C456.078186,324.025757 456.730804,322.993652 457.975128,321.025879 
	C450.572784,323.647156 446.854675,327.576172 447.306274,332.026306 
	C450.015198,329.711792 452.465027,327.618622 455.425568,325.057831 
M456.526825,359.233215 
	C458.045166,355.849365 457.140320,354.386414 451.828949,353.699127 
	C453.196777,355.494781 454.564575,357.290405 456.526825,359.233215 
z"/>
<path fill="#EE796B" opacity="1.000000" stroke="none" 
	d="
M176.952484,262.065918 
	C179.727936,265.415527 182.577881,268.905182 184.776352,272.765808 
	C188.114639,278.627899 186.559006,282.406372 180.115738,284.617645 
	C177.479141,285.522430 174.634613,285.821381 171.459595,286.439758 
	C172.934784,278.446411 174.835022,270.409241 176.952484,262.065918 
z"/>
<path fill="#D33C31" opacity="1.000000" stroke="none" 
	d="
M459.935638,352.643372 
	C455.639008,350.100433 450.095795,348.322327 450.009949,341.377319 
	C454.115936,340.900665 458.199097,340.819550 462.652924,340.890259 
	C462.015930,344.780243 461.008331,348.518463 459.935638,352.643372 
z"/>
<path fill="#EE796B" opacity="1.000000" stroke="none" 
	d="
M257.088043,186.086639 
	C257.461792,186.189636 257.445526,186.354584 257.420349,186.518143 
	C255.838562,196.804108 252.696991,198.384430 243.188812,193.297363 
	C247.516846,190.748047 252.105347,188.447998 257.088043,186.086639 
z"/>
<path fill="#EE796B" opacity="1.000000" stroke="none" 
	d="
M179.231857,305.425995 
	C183.795715,303.421936 188.547104,301.699524 193.578491,300.256104 
	C192.842819,303.597900 191.827133,306.660736 190.811462,309.723572 
	C190.811462,309.723572 190.395676,309.842316 190.192581,309.916595 
	C186.466110,308.563141 182.942749,307.135376 179.231857,305.425995 
z"/>
<path fill="#C3221C" opacity="1.000000" stroke="none" 
	d="
M458.461243,408.915649 
	C455.058533,399.136658 457.294586,396.091125 467.704681,395.981537 
	C470.840149,395.948547 473.976807,396.027374 477.584900,396.087830 
	C475.319824,402.867889 470.534760,407.035919 463.172821,408.007538 
	C461.717438,408.199585 460.282532,408.547302 458.461243,408.915649 
z"/>
<path fill="#C3221C" opacity="1.000000" stroke="none" 
	d="
M281.370117,477.054565 
	C281.482635,476.677094 281.951447,476.396759 283.156311,476.048279 
	C288.562988,475.975220 293.233612,475.970215 297.904266,475.965210 
	C298.541687,477.767639 299.179108,479.570099 299.866760,481.733643 
	C293.853516,480.447021 287.789978,478.799347 281.370117,477.054565 
z"/>
<path fill="#E95C4B" opacity="1.000000" stroke="none" 
	d="
M473.974396,283.651489 
	C467.265259,282.195435 467.700226,275.272125 474.573059,269.148529 
	C474.589752,273.772827 474.287109,278.479736 473.974396,283.651489 
z"/>
<path fill="#BA4F43" opacity="1.000000" stroke="none" 
	d="
M209.266602,505.245911 
	C208.510239,509.944183 207.904678,514.213013 207.115860,518.447632 
	C206.616180,521.130066 205.126099,523.663086 202.168808,522.415833 
	C200.773514,521.827332 199.571426,518.807983 199.675781,516.969177 
	C200.200485,507.723328 201.227127,498.506927 201.983124,489.272461 
	C202.208160,486.523590 202.246124,483.460663 205.798813,483.359589 
	C209.718719,483.248077 210.009018,486.499268 209.953445,489.411682 
	C209.855515,494.543823 209.555328,499.672119 209.266602,505.245911 
z"/>
<path fill="#BA4F43" opacity="1.000000" stroke="none" 
	d="
M134.254242,465.018738 
	C139.011536,464.683929 143.319473,464.055511 147.607651,464.169708 
	C149.346146,464.216034 151.041550,465.880585 152.756561,466.808746 
	C151.416641,468.387726 150.298080,471.010284 148.695358,471.350250 
	C143.858932,472.376099 138.842072,472.636566 133.880096,472.952362 
	C131.039688,473.133179 127.574295,473.112183 127.368126,469.289825 
	C127.137001,465.004913 130.752472,465.127991 134.254242,465.018738 
z"/>
<path fill="#BA4F43" opacity="1.000000" stroke="none" 
	d="
M118.763176,407.810059 
	C117.912872,408.641968 117.320694,409.226624 116.718224,409.800476 
	C114.708855,411.714539 112.152397,413.023468 110.404808,410.283844 
	C109.576050,408.984650 110.220215,405.780426 111.356529,404.380005 
	C114.381844,400.651520 118.194366,397.573914 121.394859,393.971832 
	C124.370628,390.622650 127.023048,386.976990 129.698044,383.372955 
	C131.396744,381.084290 133.375458,378.808014 136.237534,380.666473 
	C139.587082,382.841492 137.750336,385.828857 135.955963,387.984253 
	C130.436310,394.614349 124.680573,401.047913 118.763176,407.810059 
z"/>
<path fill="#BA4F43" opacity="1.000000" stroke="none" 
	d="
M92.375168,334.712006 
	C89.037056,332.508514 85.691093,330.815369 83.161476,328.300934 
	C81.933037,327.079865 82.232567,324.321594 81.840378,322.259247 
	C83.788681,322.263550 86.080406,321.602539 87.620605,322.397522 
	C92.154411,324.737762 96.559547,327.427734 100.650330,330.471039 
	C102.071381,331.528259 102.425148,334.020081 103.266396,335.856659 
	C101.225464,336.267792 99.162735,337.072540 97.150726,336.961151 
	C95.634544,336.877197 94.183350,335.619568 92.375168,334.712006 
z"/>
<path fill="#BA4F43" opacity="1.000000" stroke="none" 
	d="
M405.322937,546.345581 
	C403.123413,545.854919 400.822723,545.646118 399.437347,544.410828 
	C392.879578,538.563477 386.572754,532.434753 380.173981,526.408997 
	C379.206787,525.498230 377.753662,524.766785 377.366730,523.658569 
	C376.837891,522.143982 376.447571,519.815918 377.237579,518.823608 
	C378.009064,517.854553 381.073029,517.285522 381.870941,517.982666 
	C389.984100,525.071167 397.967468,532.325684 405.617126,539.906982 
	C406.662750,540.943298 405.684601,544.021667 405.322937,546.345581 
z"/>
<path fill="#BA4F43" opacity="1.000000" stroke="none" 
	d="
M315.682129,569.801392 
	C319.292786,563.438965 322.870026,557.353271 326.756683,551.472046 
	C327.325562,550.611267 329.596161,550.137634 330.662872,550.553345 
	C331.701721,550.958374 333.127716,553.264771 332.803986,553.827515 
	C329.168152,560.147217 325.310181,566.349060 321.156799,572.336182 
	C320.913330,572.687195 317.621613,570.923645 315.682129,569.801392 
z"/>
<path fill="#BA4F43" opacity="1.000000" stroke="none" 
	d="
M535.241943,311.257568 
	C532.403137,313.482758 529.983032,318.049500 526.385864,314.310333 
	C522.808472,310.591797 526.965515,307.982513 529.566528,305.946167 
	C536.230408,300.729065 543.108459,295.785126 549.921387,290.759735 
	C550.582336,290.272186 551.422607,289.597443 552.116150,289.664764 
	C554.231689,289.869965 556.316162,290.395508 558.412720,290.796417 
	C557.540771,292.717346 557.180664,295.303162 555.704651,296.439453 
	C550.443787,300.489563 544.784546,304.019440 539.320496,307.810150 
	C537.961060,308.753235 536.768250,309.936432 535.241943,311.257568 
z"/>
<path fill="#BA4F43" opacity="1.000000" stroke="none" 
	d="
M567.780396,377.361694 
	C567.596619,379.521118 567.204712,381.381989 566.812805,383.242889 
	C565.042786,382.812195 562.802002,382.917969 561.588623,381.853027 
	C557.493469,378.258789 553.562439,374.421295 550.016357,370.292328 
	C548.960205,369.062622 549.375061,366.569672 549.115906,364.655518 
	C551.041199,364.639465 553.653503,363.808289 554.771240,364.750366 
	C559.288635,368.557556 563.345520,372.911224 567.780396,377.361694 
z"/>
<path fill="#BA4F43" opacity="1.000000" stroke="none" 
	d="
M487.731262,452.672638 
	C495.851959,453.848053 503.554596,454.912567 511.238464,456.098663 
	C512.686340,456.322174 514.433411,456.660980 515.369995,457.610107 
	C516.474060,458.728943 517.683655,460.838745 517.303162,462.022430 
	C516.914978,463.229950 514.540161,464.728027 513.228516,464.562866 
	C502.566254,463.220459 491.934784,461.603455 481.338928,459.804962 
	C480.137512,459.601013 478.243774,457.601654 478.387329,456.711517 
	C478.607941,455.342987 480.095947,453.660309 481.448517,453.122223 
	C483.193756,452.427887 485.335663,452.730560 487.731262,452.672638 
z"/>
<path fill="#BA4F43" opacity="1.000000" stroke="none" 
	d="
M463.292847,513.082275 
	C463.564697,518.774841 464.070160,524.080261 463.718964,529.328369 
	C463.611267,530.937561 461.156250,532.389587 459.776123,533.913574 
	C458.525513,532.315735 456.362640,530.807312 456.195496,529.103210 
	C455.696350,524.014893 455.746490,518.834534 456.082977,513.723083 
	C456.201569,511.921967 457.768677,510.216248 458.674347,508.466949 
	C460.181854,509.868958 461.689362,511.270996 463.292847,513.082275 
z"/>
<path fill="#BA4F43" opacity="1.000000" stroke="none" 
	d="
M251.160431,132.848175 
	C245.671814,128.031265 240.434677,123.466576 235.284943,118.805321 
	C233.264160,116.976212 231.873352,114.376854 234.563065,112.547829 
	C235.838654,111.680428 239.083755,112.251114 240.541718,113.353630 
	C248.317566,119.233757 255.901978,125.380936 263.315521,131.713303 
	C264.625580,132.832336 264.814148,135.264420 265.520630,137.090149 
	C263.468781,137.452881 261.122772,138.618729 259.430725,137.999039 
	C256.552704,136.944977 254.086258,134.767273 251.160431,132.848175 
z"/>
<path fill="#BA4F43" opacity="1.000000" stroke="none" 
	d="
M310.273499,89.314224 
	C312.033112,86.464676 313.249359,83.555779 315.338348,81.560661 
	C316.616150,80.340263 319.234100,80.523064 321.250183,80.075676 
	C321.408142,81.998131 322.301086,84.266541 321.588959,85.779449 
	C319.270203,90.705605 316.583252,95.502144 313.551025,100.021881 
	C312.652832,101.360703 310.146393,101.620552 308.376892,102.374832 
	C307.805450,100.517700 306.506744,98.519485 306.833221,96.836555 
	C307.321198,94.321342 308.953064,92.028053 310.273499,89.314224 
z"/>
<path fill="#BA4E43" opacity="1.000000" stroke="none" 
	d="
M142.768372,208.096588 
	C147.676926,208.156723 152.124741,208.207581 156.572678,208.222809 
	C158.229919,208.228485 160.116562,207.637344 161.484131,208.247452 
	C163.029419,208.936813 165.098007,210.660172 165.112579,211.954437 
	C165.127213,213.254150 162.888809,215.719223 161.645645,215.714249 
	C150.922653,215.671265 140.191605,215.338867 129.491119,214.653107 
	C128.009674,214.558182 126.682068,212.063034 125.283249,210.679047 
	C126.995293,209.472916 128.647842,207.362930 130.431549,207.245514 
	C134.355103,206.987259 138.344910,207.735672 142.768372,208.096588 
z"/>
<path fill="#BA4F43" opacity="1.000000" stroke="none" 
	d="
M181.200226,149.674988 
	C181.476746,151.407990 182.111908,152.840179 181.778549,153.992111 
	C181.377808,155.376816 180.351776,157.272171 179.230865,157.569916 
	C178.014465,157.893021 175.235107,156.823868 175.102905,156.033188 
	C173.941345,149.085938 173.086914,142.075516 172.542770,135.052689 
	C172.478958,134.228821 175.327148,132.189377 175.978897,132.498444 
	C177.509766,133.224426 179.280243,134.873001 179.608566,136.431580 
	C180.491989,140.625122 180.671127,144.967041 181.200226,149.674988 
z"/>
<path fill="#BA4F43" opacity="1.000000" stroke="none" 
	d="
M446.253662,143.435898 
	C446.997375,139.578247 447.338318,136.041870 448.497620,132.797928 
	C449.016296,131.346634 451.176849,130.482117 452.592285,129.351288 
	C453.697876,130.969040 455.839844,132.652817 455.741669,134.193878 
	C455.078613,144.602631 454.028656,154.991150 452.843292,165.356415 
	C452.700470,166.605179 450.742126,168.767044 450.061768,168.610336 
	C448.427917,168.234085 445.988953,166.912552 445.773193,165.648422 
	C445.111847,161.773544 445.184143,157.742416 445.277649,153.779282 
	C445.355682,150.472992 445.865570,147.176895 446.253662,143.435898 
z"/>
<path fill="#BA4E43" opacity="1.000000" stroke="none" 
	d="
M521.728394,179.039322 
	C523.462891,179.281967 525.067444,179.130844 525.977783,179.853790 
	C527.126221,180.765854 528.468567,182.486343 528.318787,183.681580 
	C528.171997,184.853134 526.364075,186.543915 525.101624,186.724686 
	C519.036011,187.593262 512.915955,188.220093 506.796509,188.465454 
	C505.458008,188.519119 502.756836,186.343323 502.905121,185.745377 
	C503.343903,183.976364 504.649261,181.393906 506.053650,181.078201 
	C511.034027,179.958649 516.196594,179.649719 521.728394,179.039322 
z"/>
<path fill="#DF5D50" opacity="1.000000" stroke="none" 
	d="
M191.288498,309.792053 
	C191.827133,306.660736 192.842819,303.597900 193.935806,300.158600 
	C200.553192,294.965454 205.667801,289.199585 206.841461,280.371948 
	C212.235626,275.765564 217.494598,271.506836 223.440735,267.055908 
	C235.703247,267.908691 246.035660,265.102142 254.662369,257.009979 
	C281.691681,255.885101 300.688141,269.544373 315.966827,290.573547 
	C307.799713,290.604553 299.518280,290.093719 291.236267,290.085114 
	C278.056915,290.071442 265.247314,292.209930 252.574066,296.128723 
	C236.596298,301.069305 220.366592,305.227386 204.144165,309.321228 
	C200.222366,310.310944 195.902405,309.722992 191.288498,309.792053 
z"/>
<path fill="#A83128" opacity="1.000000" stroke="none" 
	d="
M240.009918,323.280243 
	C245.561493,334.599060 236.153214,350.699829 226.985092,356.937988 
	C225.591782,357.886017 221.431427,357.463989 220.899628,356.447235 
	C219.600372,353.963104 218.762390,350.511017 219.466293,347.917419 
	C220.123413,345.496155 222.957565,343.631653 224.918610,341.604431 
	C231.794388,334.496643 231.541016,331.322815 223.393661,325.951538 
	C219.467285,323.363037 215.937912,320.691986 217.265335,315.180420 
	C218.587753,309.689606 222.941833,308.138153 227.217072,311.768036 
	C231.499207,315.403809 235.638824,319.207428 240.009918,323.280243 
M225.417389,353.160339 
	C226.766083,352.800720 228.485229,352.842743 229.393143,352.005280 
	C231.992279,349.607819 234.644409,347.032074 234.776123,343.358185 
	C234.314178,343.095947 233.852219,342.833740 233.390274,342.571503 
	C230.765533,345.901215 228.140793,349.230927 225.417389,353.160339 
M219.568604,317.258728 
	C220.031998,320.664490 222.135956,322.324829 225.068604,323.103516 
	C225.465195,322.646332 225.861786,322.189178 226.258362,321.731995 
	C224.167023,320.106598 222.075684,318.481201 219.568604,317.258728 
z"/>
<path fill="#A83127" opacity="1.000000" stroke="none" 
	d="
M237.174774,401.940308 
	C241.654663,400.640991 245.811905,399.491608 250.011444,398.526276 
	C257.869019,396.719971 264.782898,399.169403 268.562988,405.898682 
	C272.042786,412.093384 273.833557,419.324249 275.759094,426.267639 
	C276.717041,429.721832 276.151428,433.472107 271.173859,433.946991 
	C266.980713,434.346954 263.572174,431.400146 263.045624,426.983978 
	C262.673462,423.862823 262.598145,420.661743 261.821381,417.642761 
	C260.291534,411.697113 257.305511,410.240540 251.449905,412.001160 
	C249.072510,412.716003 246.523575,414.114014 244.294678,413.743866 
	C241.654694,413.305511 238.446381,411.859070 237.037720,409.791321 
	C235.838562,408.031128 236.842148,404.770233 237.174774,401.940308 
M270.870575,415.332031 
	C270.175171,415.385193 269.479797,415.438354 268.784393,415.491486 
	C269.728088,420.076324 270.671783,424.661163 271.615479,429.246002 
	C272.530701,429.036926 273.445923,428.827820 274.361176,428.618744 
	C273.330017,424.367035 272.298828,420.115326 270.870575,415.332031 
M247.945145,408.798920 
	C245.499100,408.673401 243.053040,408.547913 240.606995,408.422394 
	C240.616302,409.082611 240.625595,409.742859 240.634903,410.403076 
	C243.277298,412.393951 245.786240,411.821228 247.945145,408.798920 
z"/>
<path fill="#A83127" opacity="1.000000" stroke="none" 
	d="
M393.579712,444.900146 
	C396.999725,446.337769 400.249695,447.353271 402.933594,449.194092 
	C404.570404,450.316711 406.699890,453.340790 406.209351,454.401428 
	C405.180054,456.626984 402.808044,459.084961 400.539093,459.651093 
	C398.120880,460.254456 395.137421,458.947601 392.489929,458.170807 
	C390.119904,457.475494 387.925598,456.183624 385.557129,455.480377 
	C381.291748,454.213867 378.443512,455.870819 377.227692,460.160675 
	C376.595154,462.392548 376.113190,464.666626 375.512665,466.908112 
	C374.442169,470.903717 372.062317,473.115479 367.675598,473.050964 
	C361.870483,472.965576 360.493408,471.113129 361.892914,464.300262 
	C362.668457,461.698395 363.364441,459.480560 364.079071,457.268799 
	C366.959412,448.354553 372.445709,444.127808 381.771545,444.034790 
	C385.568329,443.996918 389.370972,444.544708 393.579712,444.900146 
M394.557861,451.007965 
	C396.994781,451.620850 399.431702,452.233765 401.868622,452.846649 
	C401.994202,452.243408 402.119781,451.640167 402.245392,451.036926 
	C398.199982,448.772125 394.146820,446.538513 389.308289,447.469574 
	C389.169739,447.923248 389.031219,448.376923 388.892700,448.830597 
	C390.539917,449.478546 392.187164,450.126495 394.557861,451.007965 
M372.844238,463.647125 
	C368.772339,464.355438 368.813599,467.268463 368.746246,470.123291 
	C369.358826,470.410553 369.971375,470.697784 370.583954,470.985016 
	C371.470642,468.696808 372.357330,466.408600 372.844238,463.647125 
z"/>
<path fill="#A83228" opacity="1.000000" stroke="none" 
	d="
M254.802216,256.654907 
	C246.035660,265.102142 235.703247,267.908691 223.688873,266.800598 
	C222.762802,264.025421 221.139404,260.774658 222.099762,258.748657 
	C223.114670,256.607544 226.422318,255.020569 229.034134,254.300751 
	C232.481461,253.350647 236.292923,253.799927 239.826477,253.064514 
	C244.171814,252.160172 245.726837,249.107925 244.618759,244.802917 
	C244.039993,242.554382 243.238403,240.357269 242.760910,238.089859 
	C241.774124,233.404068 244.282288,229.453369 248.865616,228.227509 
	C252.888840,227.151459 255.215240,228.650848 255.942139,232.776611 
	C256.373322,235.223938 256.661682,237.710220 257.291748,240.105988 
	C258.807251,245.868515 258.331299,251.279419 254.802216,256.654907 
M237.001694,263.877045 
	C238.201431,263.166809 239.401169,262.456573 240.600891,261.746338 
	C240.395020,261.250610 240.189148,260.754913 239.983276,260.259186 
	C235.536469,261.064026 231.089645,261.868866 226.642822,262.673676 
	C226.724945,263.400330 226.807068,264.126984 226.889191,264.853638 
	C229.995605,264.564331 233.102036,264.275024 237.001694,263.877045 
M245.190292,237.928665 
	C246.030106,238.622147 246.869904,239.315613 247.709717,240.009094 
	C248.091919,237.610352 248.474121,235.211609 248.856323,232.812866 
	C248.046051,232.655685 247.235794,232.498505 246.425537,232.341324 
	C245.986053,233.957413 245.546555,235.573486 245.190292,237.928665 
z"/>
<path fill="#A83128" opacity="1.000000" stroke="none" 
	d="
M412.335205,254.139923 
	C403.730896,255.328766 395.822968,250.525055 392.479248,241.258133 
	C390.544952,235.897263 389.856873,230.027771 389.104401,224.321716 
	C388.658661,220.941895 389.263367,217.451920 393.868591,217.070877 
	C397.774475,216.747711 401.306763,219.600174 401.804199,223.727859 
	C402.139709,226.511810 401.842560,229.367188 402.089722,232.167526 
	C402.829773,240.551575 406.615967,242.775543 414.842651,239.393585 
	C423.282928,238.767105 425.967102,240.072571 427.488556,245.224930 
	C428.496277,248.637573 427.522095,251.234985 423.932678,252.099380 
	C420.262970,252.983124 416.491089,253.442627 412.335205,254.139923 
M391.832458,223.002975 
	C390.268646,228.835159 391.605469,234.339081 396.393982,236.835754 
	C394.906586,231.501007 393.689911,227.137161 391.832458,223.002975 
M419.485931,241.986343 
	C418.206696,242.263794 416.927429,242.541245 415.648193,242.818710 
	C415.708099,243.267059 415.767975,243.715408 415.827850,244.163757 
	C418.267700,244.163757 420.707520,244.163757 423.147369,244.163757 
	C423.186432,243.756439 423.225525,243.349106 423.264587,242.941788 
	C422.261444,242.627228 421.258331,242.312668 419.485931,241.986343 
z"/>
<path fill="#BA4E43" opacity="1.000000" stroke="none" 
	d="
M354.610535,177.227448 
	C354.802551,179.926392 354.874146,182.254227 354.945740,184.582062 
	C353.439423,182.684036 351.373352,180.999069 350.551666,178.840454 
	C349.148987,175.155426 348.361725,171.202072 347.680359,167.297836 
	C347.483490,166.169556 348.532745,164.823807 349.010742,163.577759 
	C349.997681,164.631073 351.458191,165.524002 351.879700,166.768784 
	C352.990723,170.049728 353.650574,173.483459 354.610535,177.227448 
z"/>
<path fill="#BA4E43" opacity="1.000000" stroke="none" 
	d="
M387.549011,184.177460 
	C387.153839,183.024963 386.661499,181.289734 387.015198,181.095566 
	C390.283478,179.301300 393.661499,177.685089 397.108215,176.260468 
	C397.638336,176.041351 399.124512,176.902512 399.354065,177.551956 
	C399.563995,178.145874 398.875946,179.562881 398.229248,179.869278 
	C394.829498,181.480087 391.317352,182.853622 387.549011,184.177460 
z"/>
<path fill="#BA4F43" opacity="1.000000" stroke="none" 
	d="
M200.207916,413.166992 
	C202.177094,409.898285 203.949707,406.937744 205.722305,403.977173 
	C206.283981,404.190155 206.845657,404.403107 207.407333,404.616058 
	C207.407333,406.101471 207.919220,407.849243 207.316254,409.025604 
	C205.044937,413.456909 202.537384,417.785004 199.812225,421.951569 
	C199.223221,422.852142 197.362045,422.920654 196.086823,423.372406 
	C196.114349,422.022491 195.735260,420.482971 196.257202,419.363617 
	C197.232452,417.272034 198.730698,415.424316 200.207916,413.166992 
z"/>
<path fill="#BA4E43" opacity="1.000000" stroke="none" 
	d="
M177.512787,378.598572 
	C179.745148,380.182587 183.391724,382.672058 183.249512,382.911530 
	C181.119141,386.498871 178.546616,383.442993 176.070145,382.995850 
	C175.912903,382.967438 175.731766,382.906250 175.623123,382.798431 
	C173.940674,381.129303 172.268433,379.449829 170.593811,377.772797 
	C172.784134,378.001038 174.974472,378.229309 177.512787,378.598572 
z"/>
<path fill="#BA4E43" opacity="1.000000" stroke="none" 
	d="
M182.984924,300.172668 
	C178.432404,301.351135 174.280396,302.622009 170.034668,303.333954 
	C168.667297,303.563232 167.053101,302.320465 165.551819,301.751160 
	C166.691315,300.811310 167.690262,299.423676 168.996094,299.013855 
	C173.269272,297.672821 177.621613,296.523193 182.013580,295.653992 
	C183.575577,295.344879 185.338165,296.049377 187.009186,296.291168 
	C185.789154,297.543518 184.569122,298.795837 182.984924,300.172668 
z"/>
<path fill="#BA4E43" opacity="1.000000" stroke="none" 
	d="
M184.323486,264.523499 
	C180.952042,260.722382 178.223007,256.929413 179.655319,251.496887 
	C184.876953,253.774399 187.735565,262.028534 184.323486,264.523499 
z"/>
<path fill="#BA4E43" opacity="1.000000" stroke="none" 
	d="
M460.196716,381.691345 
	C466.392914,380.740479 472.364899,379.953156 478.362701,379.559387 
	C479.357330,379.494080 480.464752,381.147003 481.520050,382.005859 
	C480.360229,382.669464 479.249969,383.782318 478.031799,383.916626 
	C473.447021,384.422211 468.830536,384.722931 464.218750,384.860199 
	C462.332764,384.916290 459.437469,385.795105 460.196716,381.691345 
z"/>
<path fill="#BA4E43" opacity="1.000000" stroke="none" 
	d="
M454.783966,424.157166 
	C454.230042,421.679321 453.493835,419.602753 453.393677,417.495972 
	C453.347504,416.524933 454.545624,415.494751 455.179535,414.491364 
	C456.034454,415.115692 457.345184,415.568481 457.657135,416.397186 
	C458.522980,418.697205 459.276733,421.128510 459.478271,423.557404 
	C459.607239,425.111786 458.678192,426.753998 458.223511,428.356842 
	C457.102936,427.086609 455.982361,425.816345 454.783966,424.157166 
z"/>
<path fill="#BA4E43" opacity="1.000000" stroke="none" 
	d="
M308.718323,473.322083 
	C308.955505,471.561249 309.330902,470.150421 309.706329,468.739594 
	C310.769379,469.606995 312.347687,470.263306 312.804749,471.378967 
	C314.616638,475.801392 316.283295,480.311462 317.539551,484.915680 
	C317.900879,486.239929 316.703735,487.989349 316.221130,489.543854 
	C315.143036,488.312805 313.647369,487.251038 313.066650,485.818390 
	C311.459167,481.852325 310.233276,477.731628 308.718323,473.322083 
z"/>
<path fill="#BA4E43" opacity="1.000000" stroke="none" 
	d="
M265.646912,477.468140 
	C268.627686,475.442230 271.400970,473.630646 274.303284,472.057007 
	C274.997894,471.680389 276.435974,471.758545 276.958099,472.244385 
	C277.455902,472.707672 277.582764,474.568298 277.223633,474.797424 
	C274.069489,476.809753 270.793518,478.640991 267.450012,480.319519 
	C267.268127,480.410828 266.162415,478.661957 265.646912,477.468140 
z"/>
<path fill="#D33C31" opacity="1.000000" stroke="none" 
	d="
M297.731567,475.677887 
	C293.233612,475.970215 288.562988,475.975220 283.420837,475.970795 
	C288.490082,469.476654 292.389893,469.324280 297.731567,475.677887 
z"/>
<path fill="#BA4E43" opacity="1.000000" stroke="none" 
	d="
M463.583191,256.598572 
	C465.725952,254.253235 467.545990,252.071701 469.654114,250.217728 
	C470.296051,249.653122 471.731720,249.991013 472.803864,249.915573 
	C472.815277,251.102142 473.324890,252.670822 472.756073,253.412369 
	C469.424988,257.755219 465.917206,261.971863 462.276154,266.059296 
	C461.596710,266.822113 460.041443,266.804810 458.890381,267.147491 
	C458.867950,265.911469 458.401611,264.437683 458.911011,263.486481 
	C460.157745,261.158539 461.855164,259.071960 463.583191,256.598572 
z"/>
<path fill="#BA4E43" opacity="1.000000" stroke="none" 
	d="
M480.031433,295.016327 
	C477.564941,292.562897 478.291901,290.602325 481.112427,291.353271 
	C484.486603,292.251617 487.518219,294.541382 490.568604,296.436981 
	C491.017792,296.716156 491.080566,298.748901 490.755310,298.925354 
	C489.863159,299.409241 488.457214,299.787323 487.634003,299.400330 
	C485.100647,298.209290 482.744476,296.641418 480.031433,295.016327 
z"/>
<path fill="#BA4E43" opacity="1.000000" stroke="none" 
	d="
M238.138596,207.001694 
	C234.377426,204.867645 230.915298,202.959366 227.594421,200.830750 
	C226.973434,200.432678 226.918320,199.151855 226.602051,198.278412 
	C227.446198,197.987762 228.540497,197.203232 229.095154,197.484146 
	C233.781601,199.857788 238.384659,202.399139 242.960800,204.982162 
	C243.366104,205.210953 243.402908,206.092575 243.953354,207.623642 
	C241.711533,207.429932 240.099014,207.290604 238.138596,207.001694 
z"/>
<path fill="#BA4E43" opacity="1.000000" stroke="none" 
	d="
M265.246857,173.454346 
	C269.889496,174.765625 266.809998,177.469925 266.227417,179.208572 
	C265.570679,181.168442 263.720978,182.728546 262.390167,184.462540 
	C262.383789,182.196533 262.066101,179.871628 262.479706,177.685059 
	C262.758698,176.209869 264.069214,174.929794 265.246857,173.454346 
z"/>
<path fill="#BA4E43" opacity="1.000000" stroke="none" 
	d="
M455.170227,325.291626 
	C452.465027,327.618622 450.015198,329.711792 447.306274,332.026306 
	C446.854675,327.576172 450.572784,323.647156 457.975128,321.025879 
	C456.730804,322.993652 456.078186,324.025757 455.170227,325.291626 
z"/>
<path fill="#BA4E43" opacity="1.000000" stroke="none" 
	d="
M456.229614,359.159607 
	C454.564575,357.290405 453.196777,355.494781 451.828949,353.699127 
	C457.140320,354.386414 458.045166,355.849365 456.229614,359.159607 
z"/>
<path fill="#BA4F43" opacity="1.000000" stroke="none" 
	d="
M225.466721,352.860474 
	C228.140793,349.230927 230.765533,345.901215 233.390274,342.571503 
	C233.852219,342.833740 234.314178,343.095947 234.776123,343.358185 
	C234.644409,347.032074 231.992279,349.607819 229.393143,352.005280 
	C228.485229,352.842743 226.766083,352.800720 225.466721,352.860474 
z"/>
<path fill="#BA4F43" opacity="1.000000" stroke="none" 
	d="
M219.776474,317.057251 
	C222.075684,318.481201 224.167023,320.106598 226.258362,321.731995 
	C225.861786,322.189178 225.465195,322.646332 225.068604,323.103516 
	C222.135956,322.324829 220.031998,320.664490 219.776474,317.057251 
z"/>
<path fill="#BA4E43" opacity="1.000000" stroke="none" 
	d="
M271.069122,415.597839 
	C272.298828,420.115326 273.330017,424.367035 274.361176,428.618744 
	C273.445923,428.827820 272.530701,429.036926 271.615479,429.246002 
	C270.671783,424.661163 269.728088,420.076324 268.784393,415.491516 
	C269.479797,415.438354 270.175171,415.385193 271.069122,415.597839 
z"/>
<path fill="#BA4E43" opacity="1.000000" stroke="none" 
	d="
M248.072266,409.103821 
	C245.786240,411.821228 243.277298,412.393951 240.634903,410.403076 
	C240.625595,409.742859 240.616302,409.082611 240.606995,408.422394 
	C243.053040,408.547913 245.499100,408.673401 248.072266,409.103821 
z"/>
<path fill="#BA4E43" opacity="1.000000" stroke="none" 
	d="
M394.196106,450.891205 
	C392.187164,450.126495 390.539917,449.478546 388.892700,448.830597 
	C389.031219,448.376923 389.169739,447.923248 389.308289,447.469574 
	C394.146820,446.538513 398.199982,448.772125 402.245392,451.036926 
	C402.119781,451.640167 401.994202,452.243408 401.868622,452.846649 
	C399.431702,452.233765 396.994781,451.620850 394.196106,450.891205 
z"/>
<path fill="#BA4E43" opacity="1.000000" stroke="none" 
	d="
M373.044128,463.883759 
	C372.357330,466.408600 371.470642,468.696808 370.583954,470.985016 
	C369.971375,470.697784 369.358826,470.410553 368.746246,470.123291 
	C368.813599,467.268463 368.772339,464.355438 373.044128,463.883759 
z"/>
<path fill="#BA4E43" opacity="1.000000" stroke="none" 
	d="
M236.605072,263.931396 
	C233.102036,264.275024 229.995605,264.564331 226.889191,264.853638 
	C226.807068,264.126984 226.724945,263.400330 226.642822,262.673676 
	C231.089645,261.868866 235.536469,261.064026 239.983276,260.259186 
	C240.189148,260.754913 240.395020,261.250610 240.600891,261.746338 
	C239.401169,262.456573 238.201431,263.166809 236.605072,263.931396 
z"/>
<path fill="#BA4E43" opacity="1.000000" stroke="none" 
	d="
M245.148682,237.559113 
	C245.546555,235.573486 245.986053,233.957413 246.425537,232.341324 
	C247.235794,232.498505 248.046051,232.655685 248.856323,232.812866 
	C248.474121,235.211609 248.091919,237.610352 247.709717,240.009094 
	C246.869904,239.315613 246.030106,238.622147 245.148682,237.559113 
z"/>
<path fill="#BA4E43" opacity="1.000000" stroke="none" 
	d="
M392.152832,222.888138 
	C393.689911,227.137161 394.906586,231.501007 396.393982,236.835754 
	C391.605469,234.339081 390.268646,228.835159 392.152832,222.888138 
z"/>
<path fill="#BA4F43" opacity="1.000000" stroke="none" 
	d="
M419.870544,241.992218 
	C421.258331,242.312668 422.261444,242.627228 423.264587,242.941788 
	C423.225525,243.349106 423.186432,243.756439 423.147369,244.163757 
	C420.707520,244.163757 418.267700,244.163757 415.827850,244.163757 
	C415.767975,243.715408 415.708099,243.267059 415.648193,242.818710 
	C416.927429,242.541245 418.206696,242.263794 419.870544,241.992218 
z"/>
</svg>