<svg version="1.1" id="Layer_1" xmlns="http://www.w3.org/2000/svg" xmlns:xlink="http://www.w3.org/1999/xlink" x="0px" y="0px"
	 width="100%" viewBox="0 0 650 650" enable-background="new 0 0 650 650" xml:space="preserve">
<path fill="#000000" opacity="1.000000" stroke="none" 
	d="
M1.000000,260.000000 
	C1.000000,173.349884 1.000000,87.199783 1.000000,1.024837 
	C217.608475,1.024837 434.216949,1.024837 650.912720,1.024837 
	C650.912720,217.566803 650.912720,434.133636 650.912720,650.850220 
	C434.333405,650.850220 217.666718,650.850220 1.000000,650.850220 
	C1.000000,520.783020 1.000000,390.641510 1.000000,260.000000 
M509.974060,281.064148 
	C501.016968,281.036957 492.059875,281.009735 483.009247,280.206055 
	C482.403534,277.498047 481.797852,274.790009 481.812103,271.797363 
	C486.622803,268.998169 491.231171,265.744812 496.285645,263.492676 
	C507.400665,258.540131 519.257751,255.963623 531.338562,257.287628 
	C537.799744,257.995758 543.302612,257.063599 548.721313,254.088516 
	C554.582153,250.870728 557.446167,245.415588 557.754333,239.132416 
	C558.061157,232.878799 552.532288,226.217834 546.745300,224.282745 
	C538.154419,221.410095 527.798035,224.448318 522.149658,232.379745 
	C510.769043,248.360321 495.060852,256.192749 475.344635,257.752350 
	C468.952728,240.575470 459.585968,225.149979 448.031982,210.322296 
	C450.415131,205.383560 452.515625,200.283310 455.229675,195.533676 
	C467.895905,173.367508 486.322815,157.985001 510.221405,148.959686 
	C517.356750,146.265030 523.518982,141.867279 527.426453,135.039688 
	C534.565308,122.565895 531.898926,102.762009 514.954407,99.376694 
	C498.066406,96.002655 484.326355,107.091812 481.048126,121.670303 
	C478.120514,134.689728 475.225403,147.844131 466.795502,158.440277 
	C460.857666,165.904022 453.641083,172.482285 446.343872,178.690018 
	C440.741608,183.455917 434.122803,187.026901 427.342865,190.816986 
	C422.240265,187.188126 417.137695,183.559280 412.014679,179.989120 
	C412.014679,179.989120 412.075928,179.978531 411.950714,179.494583 
	C411.776367,179.180893 411.511749,178.997818 410.827789,178.306442 
	C404.876770,174.881287 398.925720,171.456131 393.663971,167.630219 
	C396.249268,150.203568 405.397797,136.349380 418.084229,124.848755 
	C422.261230,121.062164 425.853180,117.405212 427.472412,112.036758 
	C430.321960,102.589279 425.342499,92.185287 417.368591,89.964546 
	C401.623047,85.579399 391.998291,101.143509 393.750183,112.649612 
	C395.668213,125.246872 395.349640,137.774719 388.852600,149.305283 
	C386.448456,153.572006 383.632446,157.606674 380.369995,162.175156 
	C375.648132,161.104141 370.962708,159.820419 366.197174,159.004242 
	C354.538147,157.007401 342.842072,155.226578 330.422821,153.240799 
	C327.995575,142.491409 324.343048,131.545990 323.268158,120.353020 
	C321.575928,102.731453 324.428711,85.349457 331.607025,69.019775 
	C335.415161,60.356770 339.434540,52.270134 337.210022,42.086910 
	C334.616913,30.216211 326.049438,22.732864 314.198853,21.822620 
	C297.847717,20.566690 289.170349,38.491470 290.131897,50.678989 
	C290.687683,57.723545 294.497894,63.628311 297.963074,69.707153 
	C304.751068,81.615196 311.128265,94.050865 309.845490,108.256981 
	C308.432770,123.902260 305.812714,139.438507 303.747345,154.808426 
	C297.167694,155.227997 292.089905,155.551804 286.753296,155.220535 
	C277.710144,137.942337 275.919617,119.854240 280.926300,101.092476 
	C283.422302,91.738953 280.985565,84.060547 274.036163,77.470612 
	C268.607178,72.322449 255.927002,72.278481 251.046890,80.222946 
	C245.807632,88.752060 246.823090,99.964111 254.359451,107.847839 
	C265.528778,119.531975 272.358307,132.881302 271.084259,149.600433 
	C270.825684,152.994278 271.587006,156.465851 271.107300,160.012238 
	C270.194427,160.335724 269.302582,160.748520 268.365540,160.969513 
	C248.500656,165.654297 230.374222,174.351501 212.909409,184.856842 
	C211.530167,183.984695 210.049225,183.013855 208.535828,182.096619 
	C194.288422,173.461411 180.536133,164.052979 172.044418,149.276764 
	C166.041290,138.830887 160.000626,128.059433 156.425369,116.665001 
	C152.980835,105.687172 148.215591,97.318214 137.395645,92.743813 
	C127.242439,88.451271 115.425140,91.107254 109.908661,99.391090 
	C101.887054,111.436768 105.672760,128.146042 117.139114,135.737244 
	C124.780357,140.796066 134.341873,142.851746 142.543030,147.196960 
	C150.374054,151.346054 159.245697,155.323685 164.648926,161.864120 
	C173.966553,173.142807 180.933090,186.360764 188.927200,198.738464 
	C190.489288,201.157135 189.737854,202.724869 187.856201,204.710602 
	C181.975464,210.916534 176.438034,217.447083 170.591125,223.686508 
	C169.770691,224.562012 167.810638,225.106262 166.638138,224.801941 
	C154.005341,221.523041 141.482025,217.849899 130.234528,210.956482 
	C116.859428,202.759094 104.861320,192.840195 96.420212,179.522003 
	C89.293762,168.278091 79.976357,162.351135 66.547134,162.964005 
	C57.985519,163.354721 49.216946,169.127625 46.986359,176.533737 
	C42.227150,192.335541 52.271549,207.440491 67.579689,210.761276 
	C77.281113,212.865814 87.557739,212.232269 97.553368,213.093964 
	C105.869499,213.810883 114.091248,215.653351 120.916710,220.567886 
	C132.678223,229.036499 144.013977,238.096390 155.347580,246.769775 
	C143.435684,272.164825 139.865234,290.026611 138.135056,317.037842 
	C127.065567,319.837921 115.930000,322.689941 104.417328,320.913208 
	C93.646072,319.250916 82.771545,317.608368 73.103653,311.990143 
	C65.595444,307.626953 57.732723,306.757935 49.717144,309.991943 
	C43.279472,312.589325 38.642040,317.108704 37.855064,324.457855 
	C37.062359,331.860535 38.999371,337.992249 45.647034,342.410645 
	C55.828960,349.178162 65.629349,348.242584 75.592148,342.084198 
	C89.419983,333.536652 104.172119,329.504364 120.513016,332.926270 
	C126.912704,334.266388 133.429184,335.048859 139.963623,336.914368 
	C140.641098,340.729553 141.101501,344.598816 142.035431,348.350159 
	C145.262115,361.310974 148.682983,374.223358 151.933990,387.178284 
	C152.232483,388.367737 151.847336,389.728699 151.169647,391.249268 
	C135.774277,404.534943 117.725143,410.065002 97.596680,410.143250 
	C93.177971,410.160400 88.429871,411.203918 84.424988,413.054718 
	C77.328773,416.334198 74.121895,423.355682 75.018921,431.057800 
	C75.696365,436.874451 80.918114,442.147675 87.631813,443.795166 
	C95.904205,445.825104 105.233574,442.091553 110.084717,434.796722 
	C118.239502,422.534119 128.431534,412.945099 143.269531,409.416046 
	C148.195816,408.244385 153.109955,407.021637 158.745377,405.981567 
	C159.290909,406.322052 160.061295,406.531586 160.347534,407.023071 
	C163.517517,412.466522 166.727386,417.894135 169.621124,423.484100 
	C170.139084,424.484619 169.635712,426.417755 168.979111,427.561646 
	C159.574066,443.946533 148.653488,458.984833 132.015518,468.948303 
	C120.905113,475.601685 109.573380,481.155945 96.728264,484.357697 
	C79.957382,488.537994 71.565689,501.446960 74.245865,517.649841 
	C76.555771,531.614319 92.256699,538.015198 107.352196,531.909851 
	C117.750481,527.704285 122.833740,519.133423 126.017754,508.861084 
	C131.895111,489.899353 142.352142,474.477264 160.449356,464.926483 
	C169.847794,459.966492 178.922607,454.393280 188.757172,449.328766 
	C198.882782,462.088348 211.966614,471.467377 224.282806,481.414215 
	C221.030289,498.422272 211.815079,511.884766 198.920761,522.905640 
	C193.420395,527.606812 187.007370,531.356506 185.439255,539.144226 
	C184.077454,545.907166 184.567932,552.604492 190.091019,557.346191 
	C195.503052,561.992615 202.157028,562.734253 208.405960,559.098694 
	C215.252777,555.115234 219.795700,549.197021 219.986374,540.801636 
	C220.213852,530.784546 218.356140,520.321228 223.152771,511.080536 
	C227.336334,503.021027 233.024628,495.742554 238.733963,488.292297 
	C246.442413,491.200500 254.150879,494.108704 261.952332,497.858856 
	C264.205261,509.391693 264.702667,520.918640 263.100403,532.643127 
	C260.611908,550.852173 254.005173,567.264587 243.318970,582.146729 
	C240.787338,585.672424 238.181564,589.261414 236.385971,593.177185 
	C231.013367,604.893311 234.668976,621.626770 246.709106,627.802368 
	C259.991028,634.614929 275.786896,627.896423 280.993530,610.055237 
	C283.358459,601.951538 281.503967,594.374573 278.497925,586.762085 
	C273.602631,574.365112 271.072815,561.177124 273.354065,548.180908 
	C276.144196,532.285645 282.916473,517.457031 291.054810,503.003540 
	C291.721100,503.003418 292.406372,502.899933 293.050842,503.018433 
	C305.085266,505.231354 316.992310,503.406128 328.942230,502.090790 
	C332.874329,501.657990 336.901825,502.092346 340.936188,502.864136 
	C340.966980,503.027924 340.956726,503.214966 341.034454,503.352173 
	C349.661469,518.579651 350.622986,534.927734 347.900757,551.733826 
	C346.779694,558.654968 344.571930,565.338501 347.609131,572.463745 
	C350.425507,579.071045 356.593872,583.991455 363.627136,583.998474 
	C371.096313,584.005920 376.593872,580.016968 378.961823,572.494690 
	C381.964325,562.956726 378.357269,555.169434 371.957397,548.335022 
	C365.384644,541.315979 359.516785,533.769897 358.124268,524.017883 
	C356.846680,515.070557 356.537811,505.984924 356.257996,496.323517 
	C357.821320,495.906342 359.443085,495.637451 360.938538,495.048065 
	C370.941406,491.105682 380.917297,487.094971 391.203064,483.727631 
	C393.548065,485.750061 395.860382,487.811951 398.243530,489.788361 
	C410.316498,499.800446 421.199646,510.725067 428.084717,525.197937 
	C433.754425,537.115906 439.212524,549.227539 439.795135,562.456055 
	C440.459198,577.533813 453.598633,592.299561 468.807343,591.177917 
	C480.805969,590.292908 491.180115,579.921753 489.886261,567.998108 
	C488.516663,555.376770 482.518311,546.077637 470.829620,540.061707 
	C462.128601,535.583496 453.748779,530.200806 446.004364,524.213989 
	C435.905640,516.407166 430.947418,504.757141 426.227234,493.316193 
	C422.677856,484.713104 419.947906,475.771942 417.182312,466.373291 
	C425.051727,459.485321 432.935638,452.613831 440.781036,445.698608 
	C442.917877,443.815155 444.938690,441.800140 447.815704,439.985168 
	C449.232971,440.327911 450.646210,440.688232 452.068054,441.010803 
	C481.412567,447.668152 504.668152,463.330170 520.971130,488.647003 
	C526.813538,497.719666 532.624573,506.008026 543.963562,508.664307 
	C552.422119,510.645844 564.589783,507.253296 568.983521,501.164764 
	C579.018127,487.259277 570.480835,466.936157 555.248352,462.194458 
	C547.901245,459.907440 539.828125,459.881592 532.062012,459.030060 
	C522.159546,457.944275 512.770386,455.298340 504.042297,450.446808 
	C490.468658,442.901886 480.104706,431.579712 469.356079,420.743317 
	C467.473907,418.845795 466.362091,416.184143 465.272339,413.288330 
	C467.502106,409.811523 469.731842,406.334717 472.789246,402.972778 
	C474.383942,403.332642 475.963165,403.796356 477.575714,404.036346 
	C495.088318,406.643036 509.531860,415.112823 521.178833,428.052551 
	C526.669861,434.153107 532.590515,437.449615 540.789185,437.077545 
	C547.148376,436.788940 552.965881,433.096344 555.356262,427.181030 
	C557.416931,422.081421 555.593323,414.531464 551.939819,410.345337 
	C545.060181,402.462646 536.208679,401.949127 527.009094,403.575562 
	C516.701721,405.397797 506.801270,404.950836 497.457855,400.017853 
	C490.880615,396.545349 484.516022,392.670135 478.014801,388.198914 
	C487.413818,362.974060 491.237946,337.034576 488.684692,309.938385 
	C489.035522,309.583679 489.328888,309.129639 489.745514,308.888611 
	C504.360657,300.433868 519.063782,292.425659 536.444519,290.880371 
	C550.132690,289.663300 563.587585,289.259003 577.079285,292.837311 
	C589.625000,296.164673 600.903809,293.852631 610.043823,283.616669 
	C616.985596,275.842621 617.181885,260.304077 608.280029,252.690048 
	C597.932129,243.839142 577.245056,245.380997 568.317383,254.862518 
	C562.776794,260.746857 555.821655,265.365631 549.227234,270.176605 
	C537.840149,278.484131 524.573608,280.661652 509.974060,281.064148 
z"/>
<path fill="#6199C8" opacity="1.000000" stroke="none" 
	d="
M188.143616,449.097076 
	C178.922607,454.393280 169.847794,459.966492 160.449356,464.926483 
	C142.352142,474.477264 131.895111,489.899353 126.017754,508.861084 
	C122.833740,519.133423 117.750481,527.704285 107.352196,531.909851 
	C92.256699,538.015198 76.555771,531.614319 74.245865,517.649841 
	C71.565689,501.446960 79.957382,488.537994 96.728264,484.357697 
	C109.573380,481.155945 120.905113,475.601685 132.015518,468.948303 
	C148.653488,458.984833 159.574066,443.946533 168.979111,427.561646 
	C169.635712,426.417755 170.139084,424.484619 169.621124,423.484100 
	C166.727386,417.894135 163.517517,412.466522 160.347534,407.023071 
	C160.061295,406.531586 159.290909,406.322052 158.546631,405.600922 
	C157.977631,399.642670 156.306992,394.666138 151.779633,391.010040 
	C151.847336,389.728699 152.232483,388.367737 151.933990,387.178284 
	C148.682983,374.223358 145.262115,361.310974 142.035431,348.350159 
	C141.101501,344.598816 140.641098,340.729553 139.975067,336.030121 
	C139.630829,329.090210 139.275131,323.034546 138.919449,316.978882 
	C139.865234,290.026611 143.435684,272.164825 155.347580,246.769775 
	C144.013977,238.096390 132.678223,229.036499 120.916710,220.567886 
	C114.091248,215.653351 105.869499,213.810883 97.553368,213.093964 
	C87.557739,212.232269 77.281113,212.865814 67.579689,210.761276 
	C52.271549,207.440491 42.227150,192.335541 46.986359,176.533737 
	C49.216946,169.127625 57.985519,163.354721 66.547134,162.964005 
	C79.976357,162.351135 89.293762,168.278091 96.420212,179.522003 
	C104.861320,192.840195 116.859428,202.759094 130.234528,210.956482 
	C141.482025,217.849899 154.005341,221.523041 166.638138,224.801941 
	C167.810638,225.106262 169.770691,224.562012 170.591125,223.686508 
	C176.438034,217.447083 181.975464,210.916534 187.856201,204.710602 
	C189.737854,202.724869 190.489288,201.157135 188.927200,198.738464 
	C180.933090,186.360764 173.966553,173.142807 164.648926,161.864120 
	C159.245697,155.323685 150.374054,151.346054 142.543030,147.196960 
	C134.341873,142.851746 124.780357,140.796066 117.139114,135.737244 
	C105.672760,128.146042 101.887054,111.436768 109.908661,99.391090 
	C115.425140,91.107254 127.242439,88.451271 137.395645,92.743813 
	C148.215591,97.318214 152.980835,105.687172 156.425369,116.665001 
	C160.000626,128.059433 166.041290,138.830887 172.044418,149.276764 
	C180.536133,164.052979 194.288422,173.461411 208.535828,182.096619 
	C210.049225,183.013855 211.530167,183.984695 212.909409,184.856842 
	C230.374222,174.351501 248.500656,165.654297 268.365540,160.969513 
	C269.302582,160.748520 270.194427,160.335724 271.887695,159.900970 
	C277.449432,158.485016 282.230743,157.180298 287.012085,155.875610 
	C292.089905,155.551804 297.167694,155.227997 303.747345,154.808426 
	C305.812714,139.438507 308.432770,123.902260 309.845490,108.256981 
	C311.128265,94.050865 304.751068,81.615196 297.963074,69.707153 
	C294.497894,63.628311 290.687683,57.723545 290.131897,50.678989 
	C289.170349,38.491470 297.847717,20.566690 314.198853,21.822620 
	C326.049438,22.732864 334.616913,30.216211 337.210022,42.086910 
	C339.434540,52.270134 335.415161,60.356770 331.607025,69.019775 
	C324.428711,85.349457 321.575928,102.731453 323.268158,120.353020 
	C324.343048,131.545990 327.995575,142.491409 330.422821,153.240799 
	C342.842072,155.226578 354.538147,157.007401 366.197174,159.004242 
	C370.962708,159.820419 375.648132,161.104141 380.749634,162.322372 
	C385.077759,164.323380 389.026215,166.177170 392.974701,168.030975 
	C398.925720,171.456131 404.876770,174.881287 411.103027,178.830750 
	C411.561310,179.618195 411.793884,179.826035 412.075928,179.978531 
	C412.075928,179.978531 412.014679,179.989120 412.081909,180.313217 
	C418.007874,191.592468 424.448120,202.283218 429.579559,213.569061 
	C436.129944,227.975586 440.288605,243.222519 441.729431,258.842957 
	C440.779755,257.702301 440.064941,256.788055 439.433197,255.819626 
	C425.255310,234.085602 408.934418,214.200089 387.463257,199.316528 
	C380.223022,194.297714 371.862823,190.477295 363.498901,187.616577 
	C355.470215,184.870514 349.834381,188.620850 347.486023,195.994141 
	C347.267395,196.013626 346.830688,196.057739 346.485168,195.955902 
	C333.391357,190.144516 319.901093,189.132507 306.265961,190.244385 
	C300.461945,190.717682 294.779724,192.685226 288.702271,193.958908 
	C286.890656,193.990311 285.418945,194.036514 283.574951,194.072266 
	C281.791779,194.375946 280.380920,194.690079 278.985840,195.004150 
	C279.001648,195.004074 279.023499,194.981232 278.591095,194.967987 
	C276.667664,195.076660 275.146149,195.048203 273.690155,195.343063 
	C251.829910,199.769897 231.725937,208.352921 213.903610,221.759644 
	C208.669815,225.696732 203.871445,230.607071 200.042725,235.914780 
	C195.554092,242.137283 197.471085,247.639099 204.000961,251.419647 
	C204.039627,251.855896 204.057144,252.030212 203.974487,252.530243 
	C199.514618,260.713593 194.798462,268.398102 190.877777,276.468994 
	C184.814728,288.950073 180.023819,301.976349 179.103424,315.963654 
	C178.467117,325.633698 184.303207,331.460480 194.270966,332.212463 
	C194.657578,332.589752 194.857590,332.824890 195.096817,333.445404 
	C197.978149,344.919556 202.476349,355.252716 209.819382,364.127167 
	C212.381805,367.224060 215.616013,369.978851 220.172424,368.662842 
	C224.559387,367.395813 225.408859,363.479034 226.148300,359.653290 
	C228.349442,348.264862 226.316055,337.144257 223.983963,325.781494 
	C223.995422,325.340698 223.999786,325.164368 224.311951,324.839722 
	C233.110809,319.132233 241.601883,313.573090 250.332489,308.137665 
	C251.056992,308.503265 251.541946,308.745148 252.476837,308.993103 
	C261.787567,309.672241 269.410919,306.775055 276.015991,300.993713 
	C275.998383,300.996826 275.971252,301.020203 276.228882,301.015259 
	C276.658203,301.005859 276.829956,301.001343 277.257202,300.841949 
	C278.334045,300.128296 279.155334,299.569550 280.405457,299.004395 
	C288.949066,298.071625 297.063873,297.145294 305.064514,296.547363 
	C300.181793,305.909271 296.400726,315.019440 296.781281,325.728119 
	C297.456512,344.727295 312.134979,355.614929 330.205048,349.799530 
	C348.103271,344.039429 362.513458,324.165283 363.051331,304.982361 
	C363.303131,296.002197 359.681122,288.560577 355.171936,281.102539 
	C361.292267,274.517456 367.211975,268.218597 373.344849,262.171753 
	C384.719360,277.591095 397.341705,291.426544 411.951630,303.314484 
	C420.576202,310.332214 429.676880,316.758850 440.959381,319.307831 
	C440.996735,319.515900 441.076355,319.931122 440.978088,320.310425 
	C438.216797,329.377167 435.693054,338.110718 432.838531,346.734772 
	C431.132874,351.887878 428.908783,356.869354 426.744324,362.215302 
	C420.757568,371.385651 414.944244,380.268677 408.838318,389.307373 
	C403.541077,394.966370 398.930450,400.904388 393.444519,405.876648 
	C383.902496,414.525269 373.820160,422.577698 363.599518,430.918640 
	C362.502808,431.017761 361.770874,431.078278 360.681183,430.951935 
	C355.409668,429.973022 350.522308,428.793793 345.577576,428.457550 
	C326.723358,427.175262 307.955231,427.352783 289.957031,434.237244 
	C286.574829,435.530975 283.187958,437.215057 280.337128,439.411865 
	C274.309784,444.056305 274.547974,450.284058 280.688873,454.746582 
	C282.960510,456.397369 285.561096,457.595490 287.694336,459.212463 
	C283.293365,459.998749 279.221436,460.678894 275.124268,461.129639 
	C243.842148,464.571198 214.750687,457.606842 187.374649,442.558411 
	C186.015808,441.811432 184.631882,441.110168 183.259628,440.387634 
	C183.021881,440.672546 182.784134,440.957428 182.546402,441.242340 
	C184.412140,443.860596 186.277878,446.478821 188.143616,449.097076 
M395.975922,382.476318 
	C399.382477,377.031494 403.595947,371.914978 405.980347,366.054260 
	C408.641907,359.512451 405.445587,353.629059 398.792053,351.300171 
	C394.947845,349.954620 390.621002,349.113312 386.585541,349.343750 
	C370.996735,350.233917 357.241730,356.435394 344.646210,365.313080 
	C336.765625,370.867554 330.149384,377.656342 326.902435,387.001129 
	C324.382996,394.252014 327.195587,400.804108 334.492004,403.019379 
	C339.294128,404.477325 344.709656,405.139252 349.680298,404.597076 
	C367.325867,402.672363 382.296936,394.612061 395.975922,382.476318 
M261.319031,337.381195 
	C255.220337,338.177734 252.370682,340.759155 251.076416,347.095154 
	C248.502533,359.695343 252.087769,371.299561 257.970673,382.103302 
	C260.932220,387.542023 265.051239,392.694611 269.687683,396.801575 
	C277.950897,404.121094 287.043152,400.289307 288.779388,389.339539 
	C288.960999,388.194275 288.962952,387.017029 289.001495,385.853058 
	C289.505829,370.631073 284.083191,357.320801 274.734375,345.794434 
	C271.709900,342.065521 266.356537,340.225494 261.319031,337.381195 
M252.618698,428.970367 
	C255.612564,427.966431 260.634064,427.559479 261.144867,425.824493 
	C262.000305,422.918884 259.988922,419.163757 259.150299,415.774536 
	C259.077637,415.480865 258.763550,415.241211 258.546021,414.989960 
	C246.348694,400.904388 230.961746,392.348785 212.786819,388.667786 
	C208.759140,387.852051 204.429672,387.483978 201.996399,391.455414 
	C199.598679,395.368805 202.576340,398.692261 204.639694,401.886566 
	C204.997421,402.440399 205.470978,402.925049 205.924271,403.410614 
	C218.460236,416.837982 233.722946,425.369354 252.618698,428.970367 
M297.261444,40.097626 
	C297.438080,42.541340 297.132904,45.150837 297.903473,47.390186 
	C299.080109,50.809700 301.758667,51.713856 305.083588,49.884975 
	C309.749969,47.318203 313.233063,38.270058 311.471619,33.281303 
	C309.903870,28.841127 305.906677,27.616632 302.632812,31.055235 
	C300.439545,33.358814 299.151520,36.524242 297.261444,40.097626 
M61.295227,200.528137 
	C67.533051,201.277542 70.297096,198.699417 68.644394,193.175934 
	C67.094894,187.997421 63.847050,183.882126 58.378094,182.506592 
	C56.555134,182.048096 53.665562,182.434967 52.518253,183.634964 
	C51.357674,184.848877 51.078991,187.737930 51.593739,189.559906 
	C52.941261,194.329483 55.564678,198.376938 61.295227,200.528137 
M93.133690,528.889099 
	C98.504486,529.510986 103.704918,528.798157 107.393227,524.644104 
	C108.877495,522.972412 109.827469,519.567688 109.139900,517.613403 
	C108.560478,515.966492 104.965088,514.010742 103.221306,514.415771 
	C99.004196,515.395325 94.579681,517.005493 91.178802,519.595703 
	C86.776619,522.948547 87.475761,525.683655 93.133690,528.889099 
M125.829674,118.761925 
	C123.862549,115.007011 122.235962,111.000420 119.746254,107.631737 
	C118.857414,106.429100 115.620056,106.041237 113.935646,106.638329 
	C112.583183,107.117729 111.057076,109.721809 111.186905,111.248840 
	C111.501251,114.946381 112.027222,118.981163 113.839134,122.077637 
	C115.159096,124.333366 118.633194,126.502800 121.205688,126.573517 
	C124.973541,126.677109 125.777000,122.925926 125.829674,118.761925 
z"/>
<path fill="#4682B9" opacity="1.000000" stroke="none" 
	d="
M363.964325,430.880035 
	C373.820160,422.577698 383.902496,414.525269 393.444519,405.876648 
	C398.930450,400.904388 403.541077,394.966370 408.807251,389.684875 
	C408.066040,392.894318 406.667511,395.813873 406.139709,398.883148 
	C404.887390,406.165497 403.344147,413.512756 403.280579,420.845581 
	C403.235657,426.024017 407.352814,428.175171 412.159973,425.942993 
	C416.598663,423.881866 421.089508,421.217377 424.491943,417.767731 
	C437.197266,404.886200 446.443176,389.687469 451.475769,372.285126 
	C453.086548,366.715271 453.356567,360.508881 452.954498,354.682495 
	C452.617523,349.799255 448.935303,348.103607 444.145447,349.546265 
	C441.962341,350.203796 439.762787,351.253510 437.959778,352.633667 
	C434.143616,355.554779 430.583099,358.809845 426.917725,361.927948 
	C428.908783,356.869354 431.132874,351.887878 432.838531,346.734772 
	C435.693054,338.110718 438.216797,329.377167 441.420715,320.324524 
	C454.694092,321.187805 457.766357,315.214111 458.672913,306.636719 
	C458.927429,304.228546 458.407990,301.696503 457.986053,299.265991 
	C455.691223,286.046326 450.704620,273.919159 442.932434,262.593201 
	C442.576752,261.191803 442.289856,260.117950 442.002960,259.044098 
	C440.288605,243.222519 436.129944,227.975586 429.579559,213.569061 
	C424.448120,202.283218 418.007874,191.592468 412.092102,180.283875 
	C417.137695,183.559280 422.240265,187.188126 427.875366,191.214874 
	C434.898590,198.109055 441.389282,204.605347 447.880005,211.101654 
	C459.585968,225.149979 468.952728,240.575470 475.744202,258.313538 
	C477.826569,263.277130 479.509338,267.679565 481.192139,272.082001 
	C481.797852,274.790009 482.403534,277.498047 483.139526,280.830994 
	C483.484680,281.710724 483.699524,281.965485 483.930847,282.628845 
	C485.303040,292.088806 486.658752,301.140259 488.014465,310.191681 
	C491.237946,337.034576 487.413818,362.974060 477.788544,388.831573 
	C475.695374,393.928772 473.828461,398.393311 471.961548,402.857849 
	C469.731842,406.334717 467.502106,409.811523 464.820282,413.800964 
	C459.515472,421.120911 454.628387,427.904205 449.835602,434.753479 
	C448.729034,436.334900 447.945129,438.142120 447.012756,439.845459 
	C444.938690,441.800140 442.917877,443.815155 440.781036,445.698608 
	C432.935638,452.613831 425.051727,459.485321 416.681976,466.755615 
	C411.615845,470.026306 407.051392,472.916809 402.483765,475.802338 
	C398.625092,478.240082 394.762726,480.671997 390.901978,483.106445 
	C380.917297,487.094971 370.941406,491.105682 360.938538,495.048065 
	C359.443085,495.637451 357.821320,495.906342 355.634277,496.659973 
	C350.303528,498.711182 344.415894,497.177521 340.885712,502.130157 
	C336.901825,502.092346 332.874329,501.657990 328.942230,502.090790 
	C316.992310,503.406128 305.085266,505.231354 293.050842,503.018433 
	C292.406372,502.899933 291.721100,503.003418 290.206177,502.942017 
	C280.191498,500.925964 271.025421,498.971436 261.859344,497.016907 
	C254.150879,494.108704 246.442413,491.200500 238.143707,487.963501 
	C233.345917,485.417480 229.138382,483.200287 224.930847,480.983093 
	C211.966614,471.467377 198.882782,462.088348 188.450394,449.212921 
	C186.277878,446.478821 184.412140,443.860596 182.546402,441.242340 
	C182.784134,440.957428 183.021881,440.672546 183.259628,440.387634 
	C184.631882,441.110168 186.015808,441.811432 187.374649,442.558411 
	C214.750687,457.606842 243.842148,464.571198 275.124268,461.129639 
	C279.221436,460.678894 283.293365,459.998749 288.026489,459.212402 
	C289.119293,459.002441 289.562561,459.004883 290.268097,459.246277 
	C292.686615,460.326324 294.787048,461.372711 297.007843,461.976166 
	C315.623840,467.034882 334.605469,467.365082 353.454376,464.521179 
	C362.503174,463.155945 371.704071,460.196747 379.833588,456.011902 
	C389.604156,450.982391 389.122528,442.894897 379.510406,437.507843 
	C374.624756,434.769745 369.164703,433.056549 363.964325,430.880035 
z"/>
<path fill="#639AC8" opacity="1.000000" stroke="none" 
	d="
M391.052521,483.417053 
	C394.762726,480.671997 398.625092,478.240082 402.483765,475.802338 
	C407.051392,472.916809 411.615845,470.026306 416.517395,467.059631 
	C419.947906,475.771942 422.677856,484.713104 426.227234,493.316193 
	C430.947418,504.757141 435.905640,516.407166 446.004364,524.213989 
	C453.748779,530.200806 462.128601,535.583496 470.829620,540.061707 
	C482.518311,546.077637 488.516663,555.376770 489.886261,567.998108 
	C491.180115,579.921753 480.805969,590.292908 468.807343,591.177917 
	C453.598633,592.299561 440.459198,577.533813 439.795135,562.456055 
	C439.212524,549.227539 433.754425,537.115906 428.084717,525.197937 
	C421.199646,510.725067 410.316498,499.800446 398.243530,489.788361 
	C395.860382,487.811951 393.548065,485.750061 391.052521,483.417053 
M484.014587,566.803406 
	C482.754608,563.815552 481.927338,560.507568 480.052887,557.974487 
	C479.110107,556.700378 476.136536,556.189880 474.324371,556.551514 
	C473.064270,556.802979 471.573212,559.022766 471.325043,560.548523 
	C470.852997,563.450745 470.852142,566.536438 471.281097,569.453979 
	C471.968811,574.131775 476.102875,578.353516 479.238159,577.723145 
	C484.303650,576.704773 484.055634,572.555664 484.039948,568.671143 
	C484.038605,568.339050 484.035400,568.007019 484.014587,566.803406 
z"/>
<path fill="#639AC8" opacity="1.000000" stroke="none" 
	d="
M447.414215,439.915314 
	C447.945129,438.142120 448.729034,436.334900 449.835602,434.753479 
	C454.628387,427.904205 459.515472,421.120911 464.631378,414.094482 
	C466.362091,416.184143 467.473907,418.845795 469.356079,420.743317 
	C480.104706,431.579712 490.468658,442.901886 504.042297,450.446808 
	C512.770386,455.298340 522.159546,457.944275 532.062012,459.030060 
	C539.828125,459.881592 547.901245,459.907440 555.248352,462.194458 
	C570.480835,466.936157 579.018127,487.259277 568.983521,501.164764 
	C564.589783,507.253296 552.422119,510.645844 543.963562,508.664307 
	C532.624573,506.008026 526.813538,497.719666 520.971130,488.647003 
	C504.668152,463.330170 481.412567,447.668152 452.068054,441.010803 
	C450.646210,440.688232 449.232971,440.327911 447.414215,439.915314 
M563.517334,490.866089 
	C567.222778,490.532440 568.231262,488.059387 567.930237,484.900024 
	C567.367920,478.997894 564.538635,474.411865 558.978821,472.124115 
	C557.223022,471.401611 554.340698,471.233612 553.032104,472.218231 
	C551.709473,473.213470 550.908508,476.104431 551.255127,477.899231 
	C552.495056,484.320129 555.795044,489.297943 563.517334,490.866089 
z"/>
<path fill="#629AC8" opacity="1.000000" stroke="none" 
	d="
M488.349548,310.065033 
	C486.658752,301.140259 485.303040,292.088806 484.403687,282.574707 
	C493.535645,281.800079 502.211304,281.488129 510.886932,281.176178 
	C524.573608,280.661652 537.840149,278.484131 549.227234,270.176605 
	C555.821655,265.365631 562.776794,260.746857 568.317383,254.862518 
	C577.245056,245.380997 597.932129,243.839142 608.280029,252.690048 
	C617.181885,260.304077 616.985596,275.842621 610.043823,283.616669 
	C600.903809,293.852631 589.625000,296.164673 577.079285,292.837311 
	C563.587585,289.259003 550.132690,289.663300 536.444519,290.880371 
	C519.063782,292.425659 504.360657,300.433868 489.745514,308.888611 
	C489.328888,309.129639 489.035522,309.583679 488.349548,310.065033 
M591.757568,252.059265 
	C590.620300,252.291199 589.266724,252.211716 588.390747,252.819946 
	C586.571472,254.083252 583.960571,255.514771 583.635010,257.245758 
	C583.322083,258.909821 585.023376,261.677979 586.643555,262.841980 
	C591.183838,266.104004 596.466003,267.152222 601.717468,264.711090 
	C603.412476,263.923187 605.369446,261.761292 605.501160,260.093231 
	C605.632629,258.428772 604.031067,255.791290 602.471985,255.007660 
	C599.445679,253.486633 595.916687,252.965637 591.757568,252.059265 
z"/>
<path fill="#639AC8" opacity="1.000000" stroke="none" 
	d="
M261.905823,497.437866 
	C271.025421,498.971436 280.191498,500.925964 289.777039,502.947327 
	C282.916473,517.457031 276.144196,532.285645 273.354065,548.180908 
	C271.072815,561.177124 273.602631,574.365112 278.497925,586.762085 
	C281.503967,594.374573 283.358459,601.951538 280.993530,610.055237 
	C275.786896,627.896423 259.991028,634.614929 246.709106,627.802368 
	C234.668976,621.626770 231.013367,604.893311 236.385971,593.177185 
	C238.181564,589.261414 240.787338,585.672424 243.318970,582.146729 
	C254.005173,567.264587 260.611908,550.852173 263.100403,532.643127 
	C264.702667,520.918640 264.205261,509.391693 261.905823,497.437866 
M273.578674,612.695435 
	C273.706024,611.876526 274.118683,610.973999 273.907684,610.254272 
	C273.251099,608.014648 272.861938,604.511841 271.434021,603.971924 
	C269.486603,603.235657 266.253418,604.155640 264.324005,605.470093 
	C259.970551,608.435974 257.879028,612.969910 258.024689,618.330017 
	C258.162018,623.384338 262.109955,625.759827 266.087891,622.631836 
	C269.066681,620.289551 270.962738,616.570312 273.578674,612.695435 
z"/>
<path fill="#639AC8" opacity="1.000000" stroke="none" 
	d="
M447.955994,210.711975 
	C441.389282,204.605347 434.898590,198.109055 428.181946,191.371002 
	C434.122803,187.026901 440.741608,183.455917 446.343872,178.690018 
	C453.641083,172.482285 460.857666,165.904022 466.795502,158.440277 
	C475.225403,147.844131 478.120514,134.689728 481.048126,121.670303 
	C484.326355,107.091812 498.066406,96.002655 514.954407,99.376694 
	C531.898926,102.762009 534.565308,122.565895 527.426453,135.039688 
	C523.518982,141.867279 517.356750,146.265030 510.221405,148.959686 
	C486.322815,157.985001 467.895905,173.367508 455.229675,195.533676 
	C452.515625,200.283310 450.415131,205.383560 447.955994,210.711975 
M495.978668,109.652435 
	C495.623016,112.107155 494.272888,115.099037 495.219025,116.850594 
	C496.008911,118.312920 499.800201,119.345268 501.711731,118.762413 
	C505.685028,117.550873 509.636597,115.578728 512.890320,113.020439 
	C514.279236,111.928337 514.917847,108.029900 514.039673,106.420372 
	C513.137146,104.766174 509.630188,103.139267 507.860474,103.634720 
	C503.864838,104.753319 500.237671,107.188240 495.978668,109.652435 
z"/>
<path fill="#3B749A" opacity="1.000000" stroke="none" 
	d="
M138.527252,317.008362 
	C139.275131,323.034546 139.630829,329.090210 139.939484,335.615570 
	C133.429184,335.048859 126.912704,334.266388 120.513016,332.926270 
	C104.172119,329.504364 89.419983,333.536652 75.592148,342.084198 
	C65.629349,348.242584 55.828960,349.178162 45.647034,342.410645 
	C38.999371,337.992249 37.062359,331.860535 37.855064,324.457855 
	C38.642040,317.108704 43.279472,312.589325 49.717144,309.991943 
	C57.732723,306.757935 65.595444,307.626953 73.103653,311.990143 
	C82.771545,317.608368 93.646072,319.250916 104.417328,320.913208 
	C115.930000,322.689941 127.065567,319.837921 138.527252,317.008362 
M53.538967,329.701691 
	C49.880280,328.837738 45.674377,328.026886 44.409924,332.605347 
	C43.179996,337.058777 47.350761,338.639801 50.613277,340.267456 
	C50.906036,340.413513 51.225525,340.559082 51.544250,340.591949 
	C55.064995,340.954803 59.506073,342.625824 61.247025,338.413147 
	C63.054489,334.039612 58.757137,332.299744 55.677761,330.461639 
	C55.260513,330.212555 54.754971,330.111450 53.538967,329.701691 
z"/>
<path fill="#3B749A" opacity="1.000000" stroke="none" 
	d="
M151.474640,391.129639 
	C156.306992,394.666138 157.977631,399.642670 158.188766,405.521240 
	C153.109955,407.021637 148.195816,408.244385 143.269531,409.416046 
	C128.431534,412.945099 118.239502,422.534119 110.084717,434.796722 
	C105.233574,442.091553 95.904205,445.825104 87.631813,443.795166 
	C80.918114,442.147675 75.696365,436.874451 75.018921,431.057800 
	C74.121895,423.355682 77.328773,416.334198 84.424988,413.054718 
	C88.429871,411.203918 93.177971,410.160400 97.596680,410.143250 
	C117.725143,410.065002 135.774277,404.534943 151.474640,391.129639 
M98.830177,434.713135 
	C95.878326,430.372711 87.317894,429.507538 84.434303,433.514832 
	C83.666573,434.581757 83.639572,437.214630 84.430351,438.187622 
	C87.521179,441.990967 96.880867,440.087463 98.830177,434.713135 
z"/>
<path fill="#3B749A" opacity="1.000000" stroke="none" 
	d="
M340.910950,502.497131 
	C344.415894,497.177521 350.303528,498.711182 355.406372,496.978333 
	C356.537811,505.984924 356.846680,515.070557 358.124268,524.017883 
	C359.516785,533.769897 365.384644,541.315979 371.957397,548.335022 
	C378.357269,555.169434 381.964325,562.956726 378.961823,572.494690 
	C376.593872,580.016968 371.096313,584.005920 363.627136,583.998474 
	C356.593872,583.991455 350.425507,579.071045 347.609131,572.463745 
	C344.571930,565.338501 346.779694,558.654968 347.900757,551.733826 
	C350.622986,534.927734 349.661469,518.579651 341.034454,503.352173 
	C340.956726,503.214966 340.966980,503.027924 340.910950,502.497131 
M375.812378,569.272522 
	C375.541565,565.984131 375.642273,561.548645 371.429779,561.661865 
	C367.179718,561.776123 365.736328,566.090210 366.183838,569.873047 
	C366.467560,572.271729 368.082703,576.152039 369.644287,576.442078 
	C373.742706,577.203430 374.736115,573.268555 375.812378,569.272522 
z"/>
<path fill="#3B749A" opacity="1.000000" stroke="none" 
	d="
M286.882690,155.548065 
	C282.230743,157.180298 277.449432,158.485016 272.273132,159.845642 
	C271.587006,156.465851 270.825684,152.994278 271.084259,149.600433 
	C272.358307,132.881302 265.528778,119.531975 254.359451,107.847839 
	C246.823090,99.964111 245.807632,88.752060 251.046890,80.222946 
	C255.927002,72.278481 268.607178,72.322449 274.036163,77.470612 
	C280.985565,84.060547 283.422302,91.738953 280.926300,101.092476 
	C275.919617,119.854240 277.710144,137.942337 286.882690,155.548065 
M258.976440,94.471893 
	C259.592468,93.506371 260.399475,92.611877 260.789825,91.562416 
	C262.124268,87.974907 262.434387,84.346558 259.522217,81.379303 
	C258.850403,80.694786 256.852020,80.430054 256.034943,80.921387 
	C252.292389,83.171844 251.546494,86.924438 252.150024,90.896683 
	C252.675781,94.357079 253.977997,97.219299 258.976440,94.471893 
z"/>
<path fill="#3B749A" opacity="1.000000" stroke="none" 
	d="
M472.375397,402.915314 
	C473.828461,398.393311 475.695374,393.928772 477.809387,389.219482 
	C484.516022,392.670135 490.880615,396.545349 497.457855,400.017853 
	C506.801270,404.950836 516.701721,405.397797 527.009094,403.575562 
	C536.208679,401.949127 545.060181,402.462646 551.939819,410.345337 
	C555.593323,414.531464 557.416931,422.081421 555.356262,427.181030 
	C552.965881,433.096344 547.148376,436.788940 540.789185,437.077545 
	C532.590515,437.449615 526.669861,434.153107 521.178833,428.052551 
	C509.531860,415.112823 495.088318,406.643036 477.575714,404.036346 
	C475.963165,403.796356 474.383942,403.332642 472.375397,402.915314 
M548.483948,412.002106 
	C545.764771,410.057678 542.926147,407.575317 539.744690,410.833374 
	C537.673706,412.954224 539.399658,417.986664 543.286499,419.967621 
	C545.453796,421.072205 549.527222,421.850342 550.762390,420.682343 
	C553.616577,417.983459 551.156494,414.975616 548.483948,412.002106 
z"/>
<path fill="#3C749A" opacity="1.000000" stroke="none" 
	d="
M224.606827,481.198669 
	C229.138382,483.200287 233.345917,485.417480 237.800781,487.876831 
	C233.024628,495.742554 227.336334,503.021027 223.152771,511.080536 
	C218.356140,520.321228 220.213852,530.784546 219.986374,540.801636 
	C219.795700,549.197021 215.252777,555.115234 208.405960,559.098694 
	C202.157028,562.734253 195.503052,561.992615 190.091019,557.346191 
	C184.567932,552.604492 184.077454,545.907166 185.439255,539.144226 
	C187.007370,531.356506 193.420395,527.606812 198.920761,522.905640 
	C211.815079,511.884766 221.030289,498.422272 224.606827,481.198669 
M199.115540,553.557983 
	C200.607956,554.679321 202.662842,557.061768 203.490509,556.692688 
	C206.310989,555.434692 209.128632,553.560913 211.071945,551.201233 
	C212.051956,550.011230 211.449020,547.184021 210.908310,545.283081 
	C210.750854,544.729492 208.174728,544.315918 206.989700,544.702942 
	C203.055130,545.988037 199.973053,548.359253 199.115540,553.557983 
z"/>
<path fill="#3B749A" opacity="1.000000" stroke="none" 
	d="
M481.502136,271.939697 
	C479.509338,267.679565 477.826569,263.277130 476.057251,258.519104 
	C495.060852,256.192749 510.769043,248.360321 522.149658,232.379745 
	C527.798035,224.448318 538.154419,221.410095 546.745300,224.282745 
	C552.532288,226.217834 558.061157,232.878799 557.754333,239.132416 
	C557.446167,245.415588 554.582153,250.870728 548.721313,254.088516 
	C543.302612,257.063599 537.799744,257.995758 531.338562,257.287628 
	C519.257751,255.963623 507.400665,258.540131 496.285645,263.492676 
	C491.231171,265.744812 486.622803,268.998169 481.502136,271.939697 
M549.200806,232.888687 
	C548.602112,231.373230 548.216248,228.701309 547.367493,228.545166 
	C543.937683,227.914185 540.325439,227.709885 536.866943,228.104874 
	C535.650452,228.243790 533.784119,230.597580 533.846985,231.858704 
	C533.912720,233.177780 535.754333,235.180267 537.148438,235.515030 
	C541.174072,236.481644 545.388428,236.884949 549.200806,232.888687 
z"/>
<path fill="#3C749A" opacity="1.000000" stroke="none" 
	d="
M393.319336,167.830597 
	C389.026215,166.177170 385.077759,164.323380 381.066772,162.108368 
	C383.632446,157.606674 386.448456,153.572006 388.852600,149.305283 
	C395.349640,137.774719 395.668213,125.246872 393.750183,112.649612 
	C391.998291,101.143509 401.623047,85.579399 417.368591,89.964546 
	C425.342499,92.185287 430.321960,102.589279 427.472412,112.036758 
	C425.853180,117.405212 422.261230,121.062164 418.084229,124.848755 
	C405.397797,136.349380 396.249268,150.203568 393.319336,167.830597 
M403.569550,96.155159 
	C401.286011,99.015495 399.010162,102.682777 402.506195,105.260666 
	C405.806610,107.694351 409.019104,104.637596 411.420593,101.960587 
	C412.173859,101.120941 412.945160,100.011803 413.061523,98.954834 
	C413.227692,97.445282 413.350555,95.190628 412.488129,94.490181 
	C411.334869,93.553543 409.183899,93.468605 407.531067,93.650673 
	C406.343079,93.781540 405.269073,94.947289 403.569550,96.155159 
z"/>
<path fill="#A9C4D2" opacity="1.000000" stroke="none" 
	d="
M510.430481,281.120178 
	C502.211304,281.488129 493.535645,281.800079 484.387207,282.166138 
	C483.699524,281.965485 483.484680,281.710724 483.186310,281.219238 
	C492.059875,281.009735 501.016968,281.036957 510.430481,281.120178 
z"/>
<path fill="#4682B9" opacity="1.000000" stroke="none" 
	d="
M412.013306,179.736557 
	C411.793884,179.826035 411.561310,179.618195 411.267548,179.150208 
	C411.511749,178.997818 411.776367,179.180893 412.013306,179.736557 
z"/>
<path fill="#7FB1D6" opacity="1.000000" stroke="none" 
	d="
M194.101532,332.055664 
	C184.303207,331.460480 178.467117,325.633698 179.103424,315.963654 
	C180.023819,301.976349 184.814728,288.950073 190.877777,276.468994 
	C194.798462,268.398102 199.514618,260.713593 204.402039,252.485199 
	C213.028595,251.889648 221.273422,252.559753 229.197952,251.266785 
	C250.221237,247.836594 269.428467,239.306259 286.777435,227.140381 
	C293.307465,222.561234 299.135010,216.474304 303.925354,210.060822 
	C308.845154,203.473984 306.136078,197.333084 298.395721,195.064789 
	C295.426300,194.194580 292.168549,194.308319 289.042175,193.973709 
	C294.779724,192.685226 300.461945,190.717682 306.265961,190.244385 
	C319.901093,189.132507 333.391357,190.144516 346.525543,196.412994 
	C347.133179,201.095612 346.827698,205.329971 347.666229,209.324188 
	C351.730896,228.685745 361.387238,245.369125 373.123169,261.224945 
	C373.123810,261.456573 373.131714,261.919769 373.131714,261.919769 
	C367.211975,268.218597 361.292267,274.517456 354.804565,281.063446 
	C353.499603,281.283752 352.762665,281.256927 351.840027,280.910461 
	C348.818970,279.407379 346.056305,277.442047 343.136200,277.170654 
	C327.253357,275.694275 315.360840,282.526642 306.488708,295.716736 
	C305.875427,295.946381 305.527039,296.082672 305.178650,296.218964 
	C297.063873,297.145294 288.949066,298.071625 280.596069,298.729675 
	C282.897064,295.830475 285.448730,293.211517 287.972931,290.566315 
	C293.603271,284.666077 297.466888,277.750214 299.450165,269.857666 
	C301.945953,259.925476 295.396118,253.014114 285.520233,255.754333 
	C266.520355,261.026123 254.200531,273.874908 247.119659,291.889648 
	C244.879166,297.589783 245.167389,303.367249 250.092957,308.013947 
	C241.601883,313.573090 233.110809,319.132233 224.114456,324.536499 
	C222.251984,320.288940 221.051758,316.135895 219.505280,312.116028 
	C216.154541,303.406250 212.360687,294.945557 205.133072,288.563324 
	C200.169037,284.179932 194.435944,285.085510 192.604614,291.405579 
	C191.071625,296.695953 190.354614,302.496887 190.682816,307.987671 
	C191.164703,316.049652 192.900162,324.036682 194.101532,332.055664 
z"/>
<path fill="#3980AE" opacity="1.000000" stroke="none" 
	d="
M373.344849,262.171753 
	C373.131714,261.919769 373.123810,261.456573 373.348755,260.967896 
	C381.990845,243.721008 378.696259,227.948364 367.892212,213.966370 
	C362.474823,206.955490 354.514740,201.909348 347.704620,195.974640 
	C349.834381,188.620850 355.470215,184.870514 363.498901,187.616577 
	C371.862823,190.477295 380.223022,194.297714 387.463257,199.316528 
	C408.934418,214.200089 425.255310,234.085602 439.433197,255.819626 
	C440.064941,256.788055 440.779755,257.702301 441.729431,258.842957 
	C442.289856,260.117950 442.576752,261.191803 442.932922,263.039612 
	C444.683258,282.331604 445.002075,300.798431 440.922028,319.099762 
	C429.676880,316.758850 420.576202,310.332214 411.951630,303.314484 
	C397.341705,291.426544 384.719360,277.591095 373.344849,262.171753 
z"/>
<path fill="#3980AE" opacity="1.000000" stroke="none" 
	d="
M305.064514,296.547363 
	C305.527039,296.082672 305.875427,295.946381 306.905762,295.724396 
	C319.497467,292.654602 331.466614,289.880890 343.277405,286.546326 
	C346.441620,285.652985 349.122803,283.048889 352.025726,281.230103 
	C352.762665,281.256927 353.499603,281.283752 354.603943,281.349670 
	C359.681122,288.560577 363.303131,296.002197 363.051331,304.982361 
	C362.513458,324.165283 348.103271,344.039429 330.205048,349.799530 
	C312.134979,355.614929 297.456512,344.727295 296.781281,325.728119 
	C296.400726,315.019440 300.181793,305.909271 305.064514,296.547363 
z"/>
<path fill="#3A80AE" opacity="1.000000" stroke="none" 
	d="
M395.723755,382.724701 
	C382.296936,394.612061 367.325867,402.672363 349.680298,404.597076 
	C344.709656,405.139252 339.294128,404.477325 334.492004,403.019379 
	C327.195587,400.804108 324.382996,394.252014 326.902435,387.001129 
	C330.149384,377.656342 336.765625,370.867554 344.646210,365.313080 
	C357.241730,356.435394 370.996735,350.233917 386.585541,349.343750 
	C390.621002,349.113312 394.947845,349.954620 398.792053,351.300171 
	C405.445587,353.629059 408.641907,359.512451 405.980347,366.054260 
	C403.595947,371.914978 399.382477,377.031494 395.723755,382.724701 
z"/>
<path fill="#5A9BC1" opacity="1.000000" stroke="none" 
	d="
M288.702271,193.958908 
	C292.168549,194.308319 295.426300,194.194580 298.395721,195.064789 
	C306.136078,197.333084 308.845154,203.473984 303.925354,210.060822 
	C299.135010,216.474304 293.307465,222.561234 286.777435,227.140381 
	C269.428467,239.306259 250.221237,247.836594 229.197952,251.266785 
	C221.273422,252.559753 213.028595,251.889648 204.502228,252.159485 
	C204.057144,252.030212 204.039627,251.855896 204.328766,251.301025 
	C205.600159,250.037674 206.724091,249.276672 207.506271,248.254227 
	C225.331909,224.953110 247.674408,207.680862 275.218933,197.288696 
	C276.583099,196.774002 277.759613,195.761765 279.023499,194.981232 
	C279.023499,194.981232 279.001648,195.004074 279.360840,195.010437 
	C281.129120,194.705444 282.538177,194.394073 283.947235,194.082733 
	C285.418945,194.036514 286.890656,193.990311 288.702271,193.958908 
z"/>
<path fill="#2A6DA2" opacity="1.000000" stroke="none" 
	d="
M426.744324,362.215302 
	C430.583099,358.809845 434.143616,355.554779 437.959778,352.633667 
	C439.762787,351.253510 441.962341,350.203796 444.145447,349.546265 
	C448.935303,348.103607 452.617523,349.799255 452.954498,354.682495 
	C453.356567,360.508881 453.086548,366.715271 451.475769,372.285126 
	C446.443176,389.687469 437.197266,404.886200 424.491943,417.767731 
	C421.089508,421.217377 416.598663,423.881866 412.159973,425.942993 
	C407.352814,428.175171 403.235657,426.024017 403.280579,420.845581 
	C403.344147,413.512756 404.887390,406.165497 406.139709,398.883148 
	C406.667511,395.813873 408.066040,392.894318 409.099854,389.529175 
	C414.944244,380.268677 420.757568,371.385651 426.744324,362.215302 
z"/>
<path fill="#2A6DA2" opacity="1.000000" stroke="none" 
	d="
M363.599518,430.918640 
	C369.164703,433.056549 374.624756,434.769745 379.510406,437.507843 
	C389.122528,442.894897 389.604156,450.982391 379.833588,456.011902 
	C371.704071,460.196747 362.503174,463.155945 353.454376,464.521179 
	C334.605469,467.365082 315.623840,467.034882 297.007843,461.976166 
	C294.787048,461.372711 292.686615,460.326324 290.689850,459.243439 
	C292.162476,458.854034 293.486328,458.769714 294.787109,458.549225 
	C311.745056,455.674774 327.742615,449.805511 343.103119,442.299225 
	C349.396759,439.223694 355.078735,434.896545 361.038940,431.138733 
	C361.770874,431.078278 362.502808,431.017761 363.599518,430.918640 
z"/>
<path fill="#5A9BC1" opacity="1.000000" stroke="none" 
	d="
M250.332489,308.137665 
	C245.167389,303.367249 244.879166,297.589783 247.119659,291.889648 
	C254.200531,273.874908 266.520355,261.026123 285.520233,255.754333 
	C295.396118,253.014114 301.945953,259.925476 299.450165,269.857666 
	C297.466888,277.750214 293.603271,284.666077 287.972931,290.566315 
	C285.448730,293.211517 282.897064,295.830475 280.167267,298.736084 
	C279.155334,299.569550 278.334045,300.128296 277.134583,300.767578 
	C276.465363,300.748322 276.203613,300.805695 275.971252,301.020203 
	C275.971252,301.020203 275.998383,300.996826 275.586304,300.981262 
	C266.881805,301.975403 258.766541,303.496429 252.026901,308.987061 
	C251.541946,308.745148 251.056992,308.503265 250.332489,308.137665 
z"/>
<path fill="#3A80AF" opacity="1.000000" stroke="none" 
	d="
M261.693756,337.451294 
	C266.356537,340.225494 271.709900,342.065521 274.734375,345.794434 
	C284.083191,357.320801 289.505829,370.631073 289.001495,385.853058 
	C288.962952,387.017029 288.960999,388.194275 288.779388,389.339539 
	C287.043152,400.289307 277.950897,404.121094 269.687683,396.801575 
	C265.051239,392.694611 260.932220,387.542023 257.970673,382.103302 
	C252.087769,371.299561 248.502533,359.695343 251.076416,347.095154 
	C252.370682,340.759155 255.220337,338.177734 261.693756,337.451294 
z"/>
<path fill="#3980AF" opacity="1.000000" stroke="none" 
	d="
M360.681152,430.951904 
	C355.078735,434.896545 349.396759,439.223694 343.103119,442.299225 
	C327.742615,449.805511 311.745056,455.674774 294.787109,458.549225 
	C293.486328,458.769714 292.162476,458.854034 290.427582,459.004486 
	C289.562561,459.004883 289.119293,459.002441 288.343842,459.000061 
	C285.561096,457.595490 282.960510,456.397369 280.688873,454.746582 
	C274.547974,450.284058 274.309784,444.056305 280.337128,439.411865 
	C283.187958,437.215057 286.574829,435.530975 289.957031,434.237244 
	C307.955231,427.352783 326.723358,427.175262 345.577576,428.457550 
	C350.522308,428.793793 355.409668,429.973022 360.681152,430.951904 
z"/>
<path fill="#3A80AF" opacity="1.000000" stroke="none" 
	d="
M252.187592,428.945801 
	C233.722946,425.369354 218.460236,416.837982 205.924271,403.410614 
	C205.470978,402.925049 204.997421,402.440399 204.639694,401.886566 
	C202.576340,398.692261 199.598679,395.368805 201.996399,391.455414 
	C204.429672,387.483978 208.759140,387.852051 212.786819,388.667786 
	C230.961746,392.348785 246.348694,400.904388 258.546021,414.989960 
	C258.763550,415.241211 259.077637,415.480865 259.150299,415.774536 
	C259.988922,419.163757 262.000305,422.918884 261.144867,425.824493 
	C260.634064,427.559479 255.612564,427.966431 252.187592,428.945801 
z"/>
<path fill="#5A9BC1" opacity="1.000000" stroke="none" 
	d="
M194.270966,332.212463 
	C192.900162,324.036682 191.164703,316.049652 190.682816,307.987671 
	C190.354614,302.496887 191.071625,296.695953 192.604614,291.405579 
	C194.435944,285.085510 200.169037,284.179932 205.133072,288.563324 
	C212.360687,294.945557 216.154541,303.406250 219.505280,312.116028 
	C221.051758,316.135895 222.251984,320.288940 223.806671,324.684845 
	C223.999786,325.164368 223.995422,325.340698 223.629578,325.838318 
	C214.338699,330.423187 205.235870,333.978973 195.040436,333.074585 
	C194.857590,332.824890 194.657578,332.589752 194.270966,332.212463 
z"/>
<path fill="#5A9BC1" opacity="1.000000" stroke="none" 
	d="
M347.486023,195.994141 
	C354.514740,201.909348 362.474823,206.955490 367.892212,213.966370 
	C378.696259,227.948364 381.990845,243.721008 373.348145,260.736267 
	C361.387238,245.369125 351.730896,228.685745 347.666229,209.324188 
	C346.827698,205.329971 347.133179,201.095612 346.871033,196.514832 
	C346.830688,196.057739 347.267395,196.013626 347.486023,195.994141 
z"/>
<path fill="#3A80AF" opacity="1.000000" stroke="none" 
	d="
M195.096817,333.445404 
	C205.235870,333.978973 214.338699,330.423187 223.622498,326.102783 
	C226.316055,337.144257 228.349442,348.264862 226.148300,359.653290 
	C225.408859,363.479034 224.559387,367.395813 220.172424,368.662842 
	C215.616013,369.978851 212.381805,367.224060 209.819382,364.127167 
	C202.476349,355.252716 197.978149,344.919556 195.096817,333.445404 
z"/>
<path fill="#3A81AF" opacity="1.000000" stroke="none" 
	d="
M278.591095,194.967987 
	C277.759613,195.761765 276.583099,196.774002 275.218933,197.288696 
	C247.674408,207.680862 225.331909,224.953110 207.506271,248.254227 
	C206.724091,249.276672 205.600159,250.037674 204.307617,251.039093 
	C197.471085,247.639099 195.554092,242.137283 200.042725,235.914780 
	C203.871445,230.607071 208.669815,225.696732 213.903610,221.759644 
	C231.725937,208.352921 251.829910,199.769897 273.690155,195.343063 
	C275.146149,195.048203 276.667664,195.076660 278.591095,194.967987 
z"/>
<path fill="#2B6DA3" opacity="1.000000" stroke="none" 
	d="
M440.959381,319.307831 
	C445.002075,300.798431 444.683258,282.331604 443.001678,263.367157 
	C450.704620,273.919159 455.691223,286.046326 457.986053,299.265991 
	C458.407990,301.696503 458.927429,304.228546 458.672913,306.636719 
	C457.766357,315.214111 454.694092,321.187805 441.518982,319.945221 
	C441.076355,319.931122 440.996735,319.515900 440.959381,319.307831 
z"/>
<path fill="#7EB0D5" opacity="1.000000" stroke="none" 
	d="
M297.359924,39.700825 
	C299.151520,36.524242 300.439545,33.358814 302.632812,31.055235 
	C305.906677,27.616632 309.903870,28.841127 311.471619,33.281303 
	C313.233063,38.270058 309.749969,47.318203 305.083588,49.884975 
	C301.758667,51.713856 299.080109,50.809700 297.903473,47.390186 
	C297.132904,45.150837 297.438080,42.541340 297.359924,39.700825 
z"/>
<path fill="#7EB0D5" opacity="1.000000" stroke="none" 
	d="
M60.929947,200.387329 
	C55.564678,198.376938 52.941261,194.329483 51.593739,189.559906 
	C51.078991,187.737930 51.357674,184.848877 52.518253,183.634964 
	C53.665562,182.434967 56.555134,182.048096 58.378094,182.506592 
	C63.847050,183.882126 67.094894,187.997421 68.644394,193.175934 
	C70.297096,198.699417 67.533051,201.277542 60.929947,200.387329 
z"/>
<path fill="#7EB0D5" opacity="1.000000" stroke="none" 
	d="
M92.733536,528.807739 
	C87.475761,525.683655 86.776619,522.948547 91.178802,519.595703 
	C94.579681,517.005493 99.004196,515.395325 103.221306,514.415771 
	C104.965088,514.010742 108.560478,515.966492 109.139900,517.613403 
	C109.827469,519.567688 108.877495,522.972412 107.393227,524.644104 
	C103.704918,528.798157 98.504486,529.510986 92.733536,528.807739 
z"/>
<path fill="#7EB0D5" opacity="1.000000" stroke="none" 
	d="
M125.862144,119.162125 
	C125.777000,122.925926 124.973541,126.677109 121.205688,126.573517 
	C118.633194,126.502800 115.159096,124.333366 113.839134,122.077637 
	C112.027222,118.981163 111.501251,114.946381 111.186905,111.248840 
	C111.057076,109.721809 112.583183,107.117729 113.935646,106.638329 
	C115.620056,106.041237 118.857414,106.429100 119.746254,107.631737 
	C122.235962,111.000420 123.862549,115.007011 125.862144,119.162125 
z"/>
<path fill="#3A81AF" opacity="1.000000" stroke="none" 
	d="
M252.476837,308.993103 
	C258.766541,303.496429 266.881805,301.975403 275.603943,300.978149 
	C269.410919,306.775055 261.787567,309.672241 252.476837,308.993103 
z"/>
<path fill="#3A81AF" opacity="1.000000" stroke="none" 
	d="
M283.574951,194.072266 
	C282.538177,194.394073 281.129120,194.705444 279.345032,195.010498 
	C280.380920,194.690079 281.791779,194.375946 283.574951,194.072266 
z"/>
<path fill="#3A81AF" opacity="1.000000" stroke="none" 
	d="
M276.228882,301.015259 
	C276.203613,300.805695 276.465363,300.748322 276.879059,300.922485 
	C276.829956,301.001343 276.658203,301.005859 276.228882,301.015259 
z"/>
<path fill="#7EB0D5" opacity="1.000000" stroke="none" 
	d="
M484.023834,567.239136 
	C484.035400,568.007019 484.038605,568.339050 484.039948,568.671143 
	C484.055634,572.555664 484.303650,576.704773 479.238159,577.723145 
	C476.102875,578.353516 471.968811,574.131775 471.281097,569.453979 
	C470.852142,566.536438 470.852997,563.450745 471.325043,560.548523 
	C471.573212,559.022766 473.064270,556.802979 474.324371,556.551514 
	C476.136536,556.189880 479.110107,556.700378 480.052887,557.974487 
	C481.927338,560.507568 482.754608,563.815552 484.023834,567.239136 
z"/>
<path fill="#7EB0D5" opacity="1.000000" stroke="none" 
	d="
M563.130249,490.848907 
	C555.795044,489.297943 552.495056,484.320129 551.255127,477.899231 
	C550.908508,476.104431 551.709473,473.213470 553.032104,472.218231 
	C554.340698,471.233612 557.223022,471.401611 558.978821,472.124115 
	C564.538635,474.411865 567.367920,478.997894 567.930237,484.900024 
	C568.231262,488.059387 567.222778,490.532440 563.130249,490.848907 
z"/>
<path fill="#7EAFD5" opacity="1.000000" stroke="none" 
	d="
M592.176758,252.044785 
	C595.916687,252.965637 599.445679,253.486633 602.471985,255.007660 
	C604.031067,255.791290 605.632629,258.428772 605.501160,260.093231 
	C605.369446,261.761292 603.412476,263.923187 601.717468,264.711090 
	C596.466003,267.152222 591.183838,266.104004 586.643555,262.841980 
	C585.023376,261.677979 583.322083,258.909821 583.635010,257.245758 
	C583.960571,255.514771 586.571472,254.083252 588.390747,252.819946 
	C589.266724,252.211716 590.620300,252.291199 592.176758,252.044785 
z"/>
<path fill="#7EAFD5" opacity="1.000000" stroke="none" 
	d="
M273.459778,613.079834 
	C270.962738,616.570312 269.066681,620.289551 266.087891,622.631836 
	C262.109955,625.759827 258.162018,623.384338 258.024689,618.330017 
	C257.879028,612.969910 259.970551,608.435974 264.324005,605.470093 
	C266.253418,604.155640 269.486603,603.235657 271.434021,603.971924 
	C272.861938,604.511841 273.251099,608.014648 273.907684,610.254272 
	C274.118683,610.973999 273.706024,611.876526 273.459778,613.079834 
z"/>
<path fill="#7EAFD5" opacity="1.000000" stroke="none" 
	d="
M496.219666,109.370049 
	C500.237671,107.188240 503.864838,104.753319 507.860474,103.634720 
	C509.630188,103.139267 513.137146,104.766174 514.039673,106.420372 
	C514.917847,108.029900 514.279236,111.928337 512.890320,113.020439 
	C509.636597,115.578728 505.685028,117.550873 501.711731,118.762413 
	C499.800201,119.345268 496.008911,118.312920 495.219025,116.850594 
	C494.272888,115.099037 495.623016,112.107155 496.219666,109.370049 
z"/>
<path fill="#598EAF" opacity="1.000000" stroke="none" 
	d="
M53.914642,329.821747 
	C54.754971,330.111450 55.260513,330.212555 55.677761,330.461639 
	C58.757137,332.299744 63.054489,334.039612 61.247025,338.413147 
	C59.506073,342.625824 55.064995,340.954803 51.544250,340.591949 
	C51.225525,340.559082 50.906036,340.413513 50.613277,340.267456 
	C47.350761,338.639801 43.179996,337.058777 44.409924,332.605347 
	C45.674377,328.026886 49.880280,328.837738 53.914642,329.821747 
z"/>
<path fill="#598EAF" opacity="1.000000" stroke="none" 
	d="
M98.858780,435.099945 
	C96.880867,440.087463 87.521179,441.990967 84.430351,438.187622 
	C83.639572,437.214630 83.666573,434.581757 84.434303,433.514832 
	C87.317894,429.507538 95.878326,430.372711 98.858780,435.099945 
z"/>
<path fill="#598EAF" opacity="1.000000" stroke="none" 
	d="
M375.752991,569.659912 
	C374.736115,573.268555 373.742706,577.203430 369.644287,576.442078 
	C368.082703,576.152039 366.467560,572.271729 366.183838,569.873047 
	C365.736328,566.090210 367.179718,561.776123 371.429779,561.661865 
	C375.642273,561.548645 375.541565,565.984131 375.752991,569.659912 
z"/>
<path fill="#598EAF" opacity="1.000000" stroke="none" 
	d="
M258.689270,94.714165 
	C253.977997,97.219299 252.675781,94.357079 252.150024,90.896683 
	C251.546494,86.924438 252.292389,83.171844 256.034943,80.921387 
	C256.852020,80.430054 258.850403,80.694786 259.522217,81.379303 
	C262.434387,84.346558 262.124268,87.974907 260.789825,91.562416 
	C260.399475,92.611877 259.592468,93.506371 258.689270,94.714165 
z"/>
<path fill="#598EAF" opacity="1.000000" stroke="none" 
	d="
M548.748962,412.263855 
	C551.156494,414.975616 553.616577,417.983459 550.762390,420.682343 
	C549.527222,421.850342 545.453796,421.072205 543.286499,419.967621 
	C539.399658,417.986664 537.673706,412.954224 539.744690,410.833374 
	C542.926147,407.575317 545.764771,410.057678 548.748962,412.263855 
z"/>
<path fill="#598EAF" opacity="1.000000" stroke="none" 
	d="
M199.130127,553.170044 
	C199.973053,548.359253 203.055130,545.988037 206.989700,544.702942 
	C208.174728,544.315918 210.750854,544.729492 210.908310,545.283081 
	C211.449020,547.184021 212.051956,550.011230 211.071945,551.201233 
	C209.128632,553.560913 206.310989,555.434692 203.490509,556.692688 
	C202.662842,557.061768 200.607956,554.679321 199.130127,553.170044 
z"/>
<path fill="#598EAF" opacity="1.000000" stroke="none" 
	d="
M548.992432,233.192795 
	C545.388428,236.884949 541.174072,236.481644 537.148438,235.515030 
	C535.754333,235.180267 533.912720,233.177780 533.846985,231.858704 
	C533.784119,230.597580 535.650452,228.243790 536.866943,228.104874 
	C540.325439,227.709885 543.937683,227.914185 547.367493,228.545166 
	C548.216248,228.701309 548.602112,231.373230 548.992432,233.192795 
z"/>
<path fill="#598EAF" opacity="1.000000" stroke="none" 
	d="
M403.856873,95.903275 
	C405.269073,94.947289 406.343079,93.781540 407.531067,93.650673 
	C409.183899,93.468605 411.334869,93.553543 412.488129,94.490181 
	C413.350555,95.190628 413.227692,97.445282 413.061523,98.954834 
	C412.945160,100.011803 412.173859,101.120941 411.420593,101.960587 
	C409.019104,104.637596 405.806610,107.694351 402.506195,105.260666 
	C399.010162,102.682777 401.286011,99.015495 403.856873,95.903275 
z"/>
<path fill="#5A9BC1" opacity="1.000000" stroke="none" 
	d="
M351.840027,280.910492 
	C349.122803,283.048889 346.441620,285.652985 343.277405,286.546326 
	C331.466614,289.880890 319.497467,292.654602 307.170685,295.631042 
	C315.360840,282.526642 327.253357,275.694275 343.136200,277.170654 
	C346.056305,277.442047 348.818970,279.407379 351.840027,280.910492 
z"/>
</svg>