<svg version="1.1" id="Layer_1" xmlns="http://www.w3.org/2000/svg" xmlns:xlink="http://www.w3.org/1999/xlink" x="0px" y="0px"
	 width="100%" viewBox="0 0 2000 2000" enable-background="new 0 0 2000 2000" xml:space="preserve">
<path fill="#000000" opacity="1.000000" stroke="none" 
	d="
M1118.000000,2001.000000 
	C745.333313,2001.000000 373.166656,2001.000000 1.000000,2001.000000 
	C1.000000,1334.333374 1.000000,667.666687 1.000000,1.000000 
	C667.666687,1.000000 1334.333374,1.000000 2001.000000,1.000000 
	C2001.000000,667.666687 2001.000000,1334.333374 2001.000000,2001.000000 
	C1706.833374,2001.000000 1412.666626,2001.000000 1118.000000,2001.000000 
M1030.626099,1172.083984 
	C1030.819092,1171.789307 1031.012085,1171.494751 1031.989136,1171.085815 
	C1042.255127,1167.041870 1052.520996,1162.997803 1063.530518,1159.122803 
	C1069.061768,1163.341431 1074.941772,1167.179199 1080.051636,1171.857910 
	C1090.821899,1181.719360 1099.593750,1193.194824 1104.806885,1206.985107 
	C1107.518677,1214.158936 1109.812866,1221.518677 1111.809082,1228.925537 
	C1113.144531,1233.880127 1113.485107,1239.093506 1114.515991,1244.141113 
	C1116.479248,1253.752441 1122.978638,1259.855835 1130.983276,1264.625488 
	C1136.421143,1267.865601 1149.487915,1267.159912 1154.205688,1263.435913 
	C1166.224487,1253.948975 1165.839355,1239.963257 1160.034912,1228.411865 
	C1155.662109,1219.709717 1147.330811,1216.000244 1139.274170,1211.874390 
	C1127.355225,1205.770996 1116.735962,1197.915039 1109.962158,1186.144287 
	C1105.417358,1178.246826 1101.727539,1169.811401 1098.201050,1161.388306 
	C1095.440063,1154.793823 1093.516846,1147.848511 1091.923950,1141.103760 
	C1100.704834,1133.218506 1109.422241,1125.259888 1118.338135,1117.530273 
	C1119.619141,1116.419678 1122.039429,1115.641113 1123.625122,1116.014526 
	C1141.780396,1120.288452 1158.661621,1126.985352 1173.084961,1139.551025 
	C1182.205566,1147.497070 1190.685425,1155.906006 1196.354004,1166.418335 
	C1203.999390,1180.596680 1215.382202,1185.549561 1228.378784,1184.144287 
	C1239.504761,1182.941162 1248.037476,1174.817871 1247.838745,1163.235596 
	C1247.571289,1147.649658 1237.883179,1136.558838 1221.110962,1134.881592 
	C1211.462891,1133.916626 1201.790161,1132.683716 1192.317871,1130.677368 
	C1187.086426,1129.569336 1181.481934,1127.578247 1177.369507,1124.316162 
	C1164.007568,1113.717163 1151.256592,1102.348267 1138.520996,1091.489502 
	C1141.160522,1086.185425 1143.152222,1082.183350 1145.956543,1078.074585 
	C1147.008789,1078.430420 1148.038574,1078.993286 1149.116699,1079.109985 
	C1158.545654,1080.129395 1167.469604,1082.655273 1175.354858,1088.083862 
	C1181.343628,1092.206787 1188.252930,1095.634521 1192.827393,1101.010010 
	C1198.747803,1107.967041 1204.656738,1112.518433 1214.200073,1112.127197 
	C1221.075684,1111.845337 1226.117065,1109.431396 1229.309448,1103.420532 
	C1232.101196,1098.163940 1229.963501,1088.240967 1226.004639,1084.032227 
	C1218.661377,1076.225464 1209.584961,1078.245728 1200.689087,1078.155151 
	C1193.413330,1078.081055 1185.587036,1079.107544 1179.002319,1076.799927 
	C1169.566772,1073.493408 1161.039429,1067.595825 1152.504883,1062.185303 
	C1152.713013,1061.423218 1152.845581,1060.630493 1153.140381,1059.903564 
	C1161.068604,1040.350220 1163.898071,1019.987671 1162.985107,998.078796 
	C1162.985107,993.479797 1162.985107,988.880798 1162.985107,984.542725 
	C1169.212280,981.195251 1174.733398,977.849060 1180.563110,975.175720 
	C1191.281982,970.260376 1202.159302,965.695007 1214.343750,966.025146 
	C1224.587158,966.302612 1235.002075,965.406738 1245.034790,966.981873 
	C1257.249512,968.899475 1268.644043,971.062866 1279.969849,963.291931 
	C1290.111816,956.333435 1292.986084,938.089355 1283.787231,928.844971 
	C1274.805908,919.819092 1264.199097,921.171082 1254.004761,922.822388 
	C1248.683228,923.684326 1243.959473,928.759338 1239.161133,932.203735 
	C1232.065918,937.296875 1225.473022,943.162781 1218.073730,947.742554 
	C1206.524658,954.890747 1193.178711,955.235901 1179.138916,955.976501 
	C1171.759277,955.945740 1164.379761,955.914978 1157.039795,955.081421 
	C1156.411499,952.417053 1155.783081,949.752747 1155.879639,947.123352 
	C1163.507690,943.391174 1170.815552,938.557739 1178.849731,936.222961 
	C1187.644043,933.667236 1197.203491,931.978760 1206.255615,932.570557 
	C1215.354248,933.165283 1222.361084,931.428101 1228.051392,924.597534 
	C1233.009277,918.646301 1233.136963,908.029785 1227.371948,902.309937 
	C1223.044067,898.015930 1218.305542,899.515076 1213.567505,898.975281 
	C1207.290161,898.260071 1201.888672,899.646729 1197.664673,904.557739 
	C1195.745972,906.788635 1193.734985,908.958008 1192.004639,911.329590 
	C1185.538208,920.192505 1177.101685,926.129211 1166.448608,928.827637 
	C1161.019287,930.202881 1155.563721,931.474426 1150.127686,932.056396 
	C1149.185425,930.187317 1148.080811,928.381348 1147.326660,926.439209 
	C1141.456543,911.324463 1132.597046,898.073181 1122.093140,885.086304 
	C1129.955444,869.406006 1138.152954,854.014282 1152.573608,843.035034 
	C1162.576050,835.419617 1172.543701,827.961060 1184.760376,823.984802 
	C1191.078979,821.928101 1196.580688,818.247009 1200.367676,812.347961 
	C1205.226196,804.779724 1206.906128,796.420288 1204.501343,788.075989 
	C1201.579346,777.936951 1194.657471,774.344543 1183.331299,773.912598 
	C1170.415283,773.419983 1161.691772,779.405945 1156.822144,790.711487 
	C1154.009521,797.241211 1152.961670,804.513123 1150.860962,811.371826 
	C1147.679810,821.758606 1144.056030,832.179688 1135.618286,839.491394 
	C1124.980957,848.709167 1113.686279,857.168396 1102.189453,865.525024 
	C1096.621460,861.356995 1091.053345,857.189026 1084.735718,852.864441 
	C1079.183472,849.721069 1073.631226,846.577637 1068.182861,842.701233 
	C1069.616333,837.617981 1070.515259,832.304504 1072.586792,827.496216 
	C1078.016235,814.893616 1086.717896,804.695801 1096.933350,795.602966 
	C1103.657104,789.618103 1103.437866,781.593628 1101.347168,773.729431 
	C1099.899658,768.285034 1095.705688,764.758362 1090.196411,764.015991 
	C1082.948853,763.039551 1076.584839,764.806152 1071.671021,771.140137 
	C1065.368530,779.264160 1068.441162,788.277527 1068.035400,797.033142 
	C1067.732422,803.570435 1067.821777,810.503479 1065.618530,816.479492 
	C1062.873169,823.926208 1057.951172,830.570496 1053.228149,837.517395 
	C1038.039062,832.326538 1022.518005,828.891235 1006.450867,828.785278 
	C999.568420,814.228027 996.613342,794.066895 998.033020,777.121338 
	C999.151855,763.766541 1002.056091,750.943970 1008.195679,739.088684 
	C1012.407349,730.956055 1013.214417,722.682007 1010.998657,714.160278 
	C1007.027588,698.887695 990.068176,690.078979 975.575867,699.655518 
	C965.835510,706.091980 960.904053,720.566956 965.594299,733.034485 
	C968.618042,741.072144 973.788330,748.275696 977.319275,756.156616 
	C980.868530,764.078308 983.939148,772.244995 983.938538,781.219116 
	C983.937500,796.765198 980.470703,811.751526 976.812073,826.703796 
	C976.508179,827.945801 975.034851,829.581726 973.868347,829.806335 
	C970.204712,830.511963 966.428040,830.630676 962.043213,830.808716 
	C960.683472,827.960754 959.217590,825.158081 957.982239,822.257141 
	C952.338928,809.005981 951.573730,795.297852 953.767822,781.175110 
	C954.730713,774.976624 955.119080,768.611023 954.975891,762.339417 
	C954.818115,755.430664 947.100220,748.898682 940.169617,749.023010 
	C935.178223,749.112549 930.265320,748.140747 926.124207,752.896667 
	C920.019043,759.908142 920.388123,774.801392 926.808472,781.743530 
	C931.630798,786.957947 936.114075,792.704773 939.641235,798.850037 
	C946.037964,809.994812 945.404480,822.486877 944.052979,834.898010 
	C925.011780,839.502625 907.256958,847.285278 890.459961,857.202393 
	C888.037292,858.632751 886.526245,858.860352 884.416504,857.608948 
	C872.362488,850.458984 860.739075,842.850037 852.063110,831.439758 
	C842.024841,818.237854 833.715149,804.329285 829.972839,787.872253 
	C826.484314,772.531250 809.434082,761.898071 794.572144,766.222839 
	C781.563782,770.008301 776.907288,782.229126 780.692932,796.257141 
	C783.676392,807.312805 791.527100,813.785156 802.338806,817.132263 
	C815.226074,821.122009 827.477478,826.440552 837.342651,836.053101 
	C849.133667,847.541931 855.502686,862.550964 863.532776,875.906372 
	C857.187744,883.255310 851.326050,890.351990 845.048218,897.059204 
	C843.773560,898.421082 840.702576,899.213989 838.846191,898.743713 
	C823.373596,894.823975 808.068970,889.992004 795.642578,879.589478 
	C786.972412,872.331482 777.957947,864.700867 771.780273,855.445801 
	C763.863647,843.585327 754.996643,837.250916 740.318787,837.774170 
	C723.435608,838.375977 716.226685,854.152832 720.540344,867.087036 
	C723.823181,876.930115 730.846741,884.020630 741.079956,885.924805 
	C750.346313,887.649048 759.980896,887.329041 769.434448,888.130676 
	C778.841614,888.928284 788.010803,890.873474 795.803772,896.578125 
	C804.560181,902.988220 813.223694,909.544495 821.642090,916.388306 
	C825.355652,919.407166 830.188171,922.584900 825.937866,928.774048 
	C824.593628,930.731567 823.757568,933.078979 822.912537,935.331909 
	C816.065002,953.588623 812.606140,972.450867 812.128845,991.956909 
	C801.364380,994.143555 790.756104,997.743042 779.526062,995.979919 
	C767.287598,994.058411 755.341248,991.414673 744.265991,985.283020 
	C736.568481,981.021545 728.189392,982.100037 720.688782,986.232117 
	C713.418091,990.237549 710.230164,997.442505 711.604370,1005.106873 
	C714.144165,1019.272339 727.526672,1024.288452 739.541687,1021.473450 
	C745.572754,1020.060364 751.202087,1016.586853 756.761963,1013.580688 
	C768.371338,1007.303528 780.505920,1005.368652 793.460205,1007.891846 
	C799.884277,1009.143127 806.387207,1009.989319 813.123657,1011.774902 
	C814.384094,1018.358398 815.256836,1025.046021 816.991089,1031.502319 
	C820.000305,1042.705322 823.542603,1053.765259 826.220398,1065.137695 
	C824.152954,1066.699951 822.135193,1068.333740 820.010071,1069.813232 
	C804.543701,1080.581909 787.232910,1085.142700 768.542358,1085.024170 
	C758.581177,1084.960938 752.771729,1088.382935 749.646118,1097.827393 
	C747.207642,1105.195923 748.481628,1115.822754 759.083801,1118.094604 
	C771.324280,1120.717285 776.640381,1119.354980 785.261108,1109.135986 
	C790.308533,1103.152954 795.585327,1097.172607 801.632690,1092.268555 
	C810.810120,1084.826416 822.576172,1083.643311 833.874939,1081.800659 
	C836.680359,1086.852417 839.366821,1091.975830 842.345764,1096.922974 
	C843.659607,1099.105103 843.870178,1100.875977 842.370850,1102.979126 
	C837.601807,1109.668335 833.142273,1116.590576 828.148499,1123.105103 
	C814.529846,1140.870728 796.210388,1151.848511 774.975342,1157.717529 
	C763.788940,1160.809082 754.642578,1165.331909 749.726257,1176.553467 
	C743.637329,1190.451538 749.658813,1204.728516 762.871399,1208.558960 
	C775.076172,1212.097290 790.602478,1205.588623 796.034302,1194.035156 
	C798.679749,1188.408203 800.666809,1182.475586 803.128113,1176.757202 
	C807.897400,1165.677002 813.172729,1154.740112 823.749207,1148.018188 
	C836.349976,1140.009644 849.363098,1132.650024 862.713257,1125.379517 
	C873.381592,1136.590820 884.666565,1147.080078 897.801147,1156.141602 
	C897.822021,1156.973511 898.036743,1157.855957 897.835327,1158.630005 
	C893.473511,1175.395996 883.768311,1189.006348 870.392395,1199.256714 
	C862.403137,1205.379272 858.446045,1211.674805 858.825439,1221.574707 
	C859.046631,1227.345459 861.326660,1231.577393 865.968323,1234.051025 
	C878.406616,1240.679565 892.805298,1232.251831 893.910645,1218.018433 
	C894.309082,1212.887817 893.883728,1207.698486 893.997009,1202.539551 
	C894.190002,1193.747314 896.545227,1185.579102 901.545593,1178.278931 
	C905.016846,1173.211304 908.593628,1168.215942 912.775146,1163.433105 
	C920.115784,1166.313232 927.456482,1169.193237 934.958740,1172.617310 
	C935.281433,1172.775635 935.604187,1172.933838 935.867676,1173.089111 
	C935.867676,1173.089111 935.877747,1173.147461 935.893616,1173.993408 
	C938.405090,1186.153564 939.185059,1198.528809 936.757446,1210.622681 
	C933.587341,1226.415161 928.391907,1241.774658 918.385742,1254.694580 
	C910.526428,1264.842651 905.440063,1275.421021 908.989136,1288.330933 
	C911.908691,1298.951294 921.492065,1307.475220 932.768738,1305.859375 
	C954.170349,1302.792725 958.947937,1282.169067 954.945129,1266.660889 
	C953.827820,1262.332275 951.967102,1258.201538 950.654175,1253.916748 
	C946.010254,1238.761597 945.487976,1223.721069 951.778931,1208.783569 
	C956.068787,1198.597534 960.053040,1188.282715 964.720276,1177.993286 
	C965.085144,1177.988037 965.450012,1177.982666 966.197510,1178.804810 
	C974.559875,1178.893921 982.922241,1179.006958 991.284790,1179.024170 
	C991.917236,1179.025391 992.551086,1178.344360 994.073975,1177.989746 
	C1000.057251,1177.324097 1006.040466,1176.658447 1012.716797,1176.163696 
	C1014.464172,1179.318604 1016.359192,1182.401855 1017.932434,1185.641235 
	C1023.591003,1197.293335 1023.705017,1209.786865 1022.849609,1222.279663 
	C1022.398743,1228.863892 1019.903381,1235.419189 1020.154846,1241.916992 
	C1020.651306,1254.745117 1032.106812,1263.296753 1045.352905,1257.373169 
	C1056.307129,1252.474854 1055.713135,1233.443237 1049.377930,1226.498901 
	C1044.482300,1221.132446 1039.935059,1215.241089 1036.321411,1208.957153 
	C1029.795776,1197.609619 1029.859131,1184.838013 1030.109863,1172.141479 
	C1030.109863,1172.141479 1030.071289,1172.120483 1030.626099,1172.083984 
z"/>
<path fill="#639AC8" opacity="1.000000" stroke="none" 
	d="
M812.944458,991.976624 
	C812.606140,972.450867 816.065002,953.588623 822.912537,935.331909 
	C823.757568,933.078979 824.593628,930.731567 825.937866,928.774048 
	C830.188171,922.584900 825.355652,919.407166 821.642090,916.388306 
	C813.223694,909.544495 804.560181,902.988220 795.803772,896.578125 
	C788.010803,890.873474 778.841614,888.928284 769.434448,888.130676 
	C759.980896,887.329041 750.346313,887.649048 741.079956,885.924805 
	C730.846741,884.020630 723.823181,876.930115 720.540344,867.087036 
	C716.226685,854.152832 723.435608,838.375977 740.318787,837.774170 
	C754.996643,837.250916 763.863647,843.585327 771.780273,855.445801 
	C777.957947,864.700867 786.972412,872.331482 795.642578,879.589478 
	C808.068970,889.992004 823.373596,894.823975 838.846191,898.743713 
	C840.702576,899.213989 843.773560,898.421082 845.048218,897.059204 
	C851.326050,890.351990 857.187744,883.255310 863.532776,875.906372 
	C855.502686,862.550964 849.133667,847.541931 837.342651,836.053101 
	C827.477478,826.440552 815.226074,821.122009 802.338806,817.132263 
	C791.527100,813.785156 783.676392,807.312805 780.692932,796.257141 
	C776.907288,782.229126 781.563782,770.008301 794.572144,766.222839 
	C809.434082,761.898071 826.484314,772.531250 829.972839,787.872253 
	C833.715149,804.329285 842.024841,818.237854 852.063110,831.439758 
	C860.739075,842.850037 872.362488,850.458984 884.416504,857.608948 
	C886.526245,858.860352 888.037292,858.632751 890.459961,857.202393 
	C907.256958,847.285278 925.011780,839.502625 944.860962,834.834595 
	C951.344360,833.506287 957.019714,832.241455 962.695129,830.976562 
	C966.428040,830.630676 970.204712,830.511963 973.868347,829.806335 
	C975.034851,829.581726 976.508179,827.945801 976.812073,826.703796 
	C980.470703,811.751526 983.937500,796.765198 983.938538,781.219116 
	C983.939148,772.244995 980.868530,764.078308 977.319275,756.156616 
	C973.788330,748.275696 968.618042,741.072144 965.594299,733.034485 
	C960.904053,720.566956 965.835510,706.091980 975.575867,699.655518 
	C990.068176,690.078979 1007.027588,698.887695 1010.998657,714.160278 
	C1013.214417,722.682007 1012.407349,730.956055 1008.195679,739.088684 
	C1002.056091,750.943970 999.151855,763.766541 998.033020,777.121338 
	C996.613342,794.066895 999.568420,814.228027 1006.450867,828.785278 
	C1022.518005,828.891235 1038.039062,832.326538 1053.866333,837.796265 
	C1059.029297,839.861511 1063.554199,841.647888 1068.078979,843.434265 
	C1073.631226,846.577637 1079.183472,849.721069 1085.072021,853.299805 
	C1086.451660,855.929138 1087.265503,858.271301 1088.572998,860.294495 
	C1103.144409,882.842834 1112.219604,907.419189 1115.719482,933.790161 
	C1108.644165,924.398132 1102.207520,914.895081 1094.963013,906.053955 
	C1082.913330,891.348755 1069.496582,877.890869 1052.668457,868.687744 
	C1046.584961,865.360840 1039.469971,863.275513 1032.583496,862.250732 
	C1026.225098,861.304504 1022.651184,865.472107 1021.685303,871.998413 
	C1021.455017,871.995056 1020.994446,871.995117 1020.739136,871.752319 
	C1006.954651,864.817261 992.569397,863.894409 977.923096,865.605591 
	C973.871704,866.078979 969.969666,867.830444 965.549988,869.000488 
	C962.697571,869.015747 960.294373,869.026062 957.478027,869.039307 
	C932.954956,871.876587 910.997742,880.621948 891.238464,894.419189 
	C884.587524,899.063354 878.686829,905.301208 873.823425,911.837585 
	C869.106934,918.176636 871.527405,923.204773 878.984619,926.431885 
	C878.994263,926.645996 879.020081,927.073792 878.830383,927.350220 
	C866.256226,946.032532 856.911682,965.685425 853.471191,987.854370 
	C851.751038,998.938049 856.918152,1005.925232 868.265503,1007.204590 
	C868.654907,1007.582153 868.855835,1007.818054 869.093140,1008.438232 
	C872.311462,1019.538452 876.116943,1029.939453 883.599792,1038.597900 
	C886.302551,1041.725220 889.096313,1044.749634 893.623535,1043.760498 
	C898.324219,1042.733643 899.180054,1038.544312 900.042175,1034.587646 
	C902.521118,1023.211670 900.108582,1012.133972 897.986145,1000.775635 
	C897.998535,1000.334900 898.003174,1000.158630 898.315063,999.833679 
	C907.109497,994.117004 915.596802,988.549011 924.387207,982.986084 
	C925.095276,982.994080 925.500305,982.997070 926.255981,983.216675 
	C936.373596,985.334106 944.107849,981.351746 951.329651,974.923645 
	C952.725708,974.238159 953.814636,973.626404 955.225830,973.207764 
	C956.846436,973.407471 958.157593,973.535706 959.441040,973.400513 
	C966.024353,972.706665 972.600525,971.944946 979.064270,971.536438 
	C974.440613,980.651245 970.627319,989.510864 970.821777,999.802551 
	C971.212158,1020.468262 987.083435,1031.431519 1006.305298,1023.932312 
	C1022.977417,1017.427917 1036.475586,998.428833 1036.972168,980.589478 
	C1037.185791,972.912292 1035.766846,965.695984 1030.394653,959.713379 
	C1028.454956,957.553345 1026.572144,956.968872 1023.855042,958.456909 
	C1010.172424,965.950317 995.175720,968.891174 980.099121,970.586182 
	C985.277832,962.932678 992.006653,957.578796 1000.094849,954.060181 
	C1007.868591,950.678467 1015.947571,949.903687 1023.687378,953.986877 
	C1027.298096,955.891785 1029.992920,955.388916 1032.612427,952.790283 
	C1037.540283,947.901733 1042.384033,942.928589 1047.545166,938.123901 
	C1057.627441,949.089172 1066.968994,960.386230 1077.355835,970.622803 
	C1087.792725,980.908813 1099.438843,989.872986 1113.977539,994.469238 
	C1112.891113,1000.080139 1112.345947,1005.459412 1110.572632,1010.397827 
	C1107.095459,1020.082336 1102.934326,1029.521362 1098.931152,1039.381592 
	C1093.780762,1047.760864 1088.755371,1055.820679 1083.417480,1063.989746 
	C1082.229248,1064.841309 1081.285522,1065.517212 1080.488403,1066.335815 
	C1072.631958,1074.405029 1065.058472,1082.771973 1056.873779,1090.491699 
	C1050.987915,1096.042969 1044.295898,1100.739380 1037.600342,1105.870605 
	C1036.505371,1105.989624 1035.773682,1106.055298 1034.661865,1105.982666 
	C1014.832703,1101.517944 995.287598,1101.595703 975.957764,1105.946411 
	C968.492554,1107.626709 961.125854,1110.825439 954.451782,1114.627075 
	C948.163574,1118.208984 948.482971,1125.049438 954.280884,1129.440552 
	C956.646301,1131.232056 959.398743,1132.512451 961.642456,1134.221802 
	C924.219421,1141.305786 889.654907,1133.678711 856.632812,1116.335693 
	C858.487732,1119.226929 860.342651,1122.118042 862.197571,1125.009277 
	C849.363098,1132.650024 836.349976,1140.009644 823.749207,1148.018188 
	C813.172729,1154.740112 807.897400,1165.677002 803.128113,1176.757202 
	C800.666809,1182.475586 798.679749,1188.408203 796.034302,1194.035156 
	C790.602478,1205.588623 775.076172,1212.097290 762.871399,1208.558960 
	C749.658813,1204.728516 743.637329,1190.451538 749.726257,1176.553467 
	C754.642578,1165.331909 763.788940,1160.809082 774.975342,1157.717529 
	C796.210388,1151.848511 814.529846,1140.870728 828.148499,1123.105103 
	C833.142273,1116.590576 837.601807,1109.668335 842.370850,1102.979126 
	C843.870178,1100.875977 843.659607,1099.105103 842.345764,1096.922974 
	C839.366821,1091.975830 836.680359,1086.852417 833.690979,1081.097900 
	C831.291809,1075.225220 829.076599,1070.055176 826.861450,1064.885132 
	C823.542603,1053.765259 820.000305,1042.705322 816.991089,1031.502319 
	C815.256836,1025.046021 814.384094,1018.358398 813.269653,1011.082336 
	C813.258606,1004.252075 813.101501,998.114319 812.944458,991.976624 
M1075.435303,1050.858276 
	C1078.671021,1046.124268 1081.444214,1041.197754 1080.511353,1035.162842 
	C1079.179810,1026.550049 1068.886597,1023.700500 1059.976196,1024.371582 
	C1046.259399,1025.404541 1033.656494,1030.206665 1022.383118,1037.932617 
	C1013.034851,1044.339355 1004.123474,1051.447754 1000.748535,1063.120728 
	C998.976257,1069.250610 1001.249023,1075.500244 1007.288452,1077.442993 
	C1012.488831,1079.115845 1018.416138,1080.052124 1023.788452,1079.397339 
	C1044.424561,1076.882202 1061.555664,1067.396362 1075.435303,1050.858276 
M950.057983,1022.485229 
	C947.926331,1020.378174 945.950500,1018.079346 943.635315,1016.198181 
	C935.067932,1009.236877 926.732788,1012.063171 925.140015,1022.965393 
	C922.415466,1041.613525 929.260315,1057.235718 942.024048,1070.491211 
	C945.603027,1074.208008 950.169922,1076.730225 955.516602,1074.900757 
	C960.826538,1073.083740 961.809631,1068.012451 962.828491,1063.236084 
	C963.034424,1062.270874 963.007263,1061.246216 963.009155,1060.248779 
	C963.035400,1046.438843 958.596008,1034.121094 950.057983,1022.485229 
M919.289368,1102.375732 
	C922.402893,1102.905518 925.507202,1103.810425 928.631897,1103.887329 
	C935.252808,1104.049927 937.728516,1100.167725 935.089905,1094.153198 
	C934.494690,1092.796631 933.738953,1091.431519 932.761414,1090.333618 
	C920.780090,1076.876831 906.155273,1067.815674 888.450439,1063.972656 
	C884.002808,1063.007324 878.879700,1061.802002 876.147705,1066.337524 
	C873.209167,1071.215698 877.163452,1075.293213 880.242126,1078.628174 
	C890.756531,1090.017822 903.681763,1097.670898 919.289368,1102.375732 
M975.028320,707.574707 
	C973.729919,711.757019 971.962158,715.874695 971.372925,720.154663 
	C971.149292,721.779114 973.281799,724.601196 975.003479,725.347229 
	C976.412109,725.957764 979.678101,724.881409 980.587219,723.525085 
	C982.725891,720.334351 984.640442,716.651306 985.296936,712.929565 
	C985.733643,710.453674 984.513550,706.869873 982.721741,705.150513 
	C981.783875,704.250488 978.014160,706.301392 975.028320,707.574707 
M742.834717,869.715393 
	C741.787659,864.242676 738.637390,860.189941 733.653320,858.064575 
	C731.680969,857.223511 728.213074,857.198792 726.841125,858.407837 
	C725.507019,859.583618 724.949585,863.407104 725.875366,865.022034 
	C727.958679,868.655823 730.723389,872.234131 734.037964,874.741516 
	C738.140686,877.845032 741.542664,875.874451 742.834717,869.715393 
M785.791382,783.584656 
	C783.752563,789.294617 785.206299,794.527832 788.891174,798.849243 
	C790.326538,800.532593 793.772827,801.975281 795.640869,801.395142 
	C797.453491,800.832275 799.839844,797.234375 799.473022,795.497620 
	C798.557678,791.164429 796.738464,786.789185 794.288391,783.088623 
	C792.401062,780.238220 788.986450,779.915649 785.791382,783.584656 
M765.584595,1203.204102 
	C771.570496,1205.289917 776.867798,1203.650513 781.263245,1199.578491 
	C782.725342,1198.223877 783.948730,1195.298462 783.492249,1193.561279 
	C783.048401,1191.872070 780.502747,1190.151489 778.544067,1189.563354 
	C774.206482,1188.260742 766.077332,1191.607422 764.236328,1195.723877 
	C763.393433,1197.608521 764.602600,1200.410767 765.584595,1203.204102 
z"/>
<path fill="#4D87BC" opacity="1.000000" stroke="none" 
	d="
M1099.056274,1039.062012 
	C1102.934326,1029.521362 1107.095459,1020.082336 1110.572632,1010.397827 
	C1112.345947,1005.459412 1112.891113,1000.080139 1114.241455,994.452148 
	C1114.667603,993.998169 1114.843628,993.992188 1115.354492,994.198608 
	C1126.580688,996.540100 1133.431763,990.846130 1132.584351,979.828003 
	C1131.398926,964.411316 1125.622681,950.579285 1116.939941,937.531860 
	C1116.579834,936.128601 1116.287476,935.052612 1115.995117,933.976624 
	C1112.219604,907.419189 1103.144409,882.842834 1088.572998,860.294495 
	C1087.265503,858.271301 1086.451660,855.929138 1085.446899,853.378052 
	C1091.053345,857.189026 1096.621460,861.356995 1102.655273,866.006226 
	C1109.469360,872.921265 1115.817383,879.355042 1122.165527,885.788879 
	C1132.597046,898.073181 1141.456543,911.324463 1147.326660,926.439209 
	C1148.080811,928.381348 1149.185425,930.187317 1150.158936,932.806702 
	C1151.844971,938.067505 1153.499756,942.578003 1155.154541,947.088501 
	C1155.783081,949.752747 1156.411499,952.417053 1157.134033,955.734009 
	C1157.443848,956.681824 1157.659180,956.977051 1157.906006,957.673706 
	C1159.304932,970.766968 1160.662109,983.460022 1162.061768,996.148376 
	C1162.168579,997.117432 1162.575562,998.053406 1162.843018,999.004761 
	C1163.898071,1019.987671 1161.068604,1040.350220 1153.140381,1059.903564 
	C1152.845581,1060.630493 1152.713013,1061.423218 1152.148804,1062.822266 
	C1149.576416,1068.366577 1147.360107,1073.273804 1145.143799,1078.181152 
	C1143.152222,1082.183350 1141.160522,1086.185425 1138.520996,1091.489502 
	C1151.256592,1102.348267 1164.007568,1113.717163 1177.369507,1124.316162 
	C1181.481934,1127.578247 1187.086426,1129.569336 1192.317871,1130.677368 
	C1201.790161,1132.683716 1211.462891,1133.916626 1221.110962,1134.881592 
	C1237.883179,1136.558838 1247.571289,1147.649658 1247.838745,1163.235596 
	C1248.037476,1174.817871 1239.504761,1182.941162 1228.378784,1184.144287 
	C1215.382202,1185.549561 1203.999390,1180.596680 1196.354004,1166.418335 
	C1190.685425,1155.906006 1182.205566,1147.497070 1173.084961,1139.551025 
	C1158.661621,1126.985352 1141.780396,1120.288452 1123.625122,1116.014526 
	C1122.039429,1115.641113 1119.619141,1116.419678 1118.338135,1117.530273 
	C1109.422241,1125.259888 1100.704834,1133.218506 1091.250732,1141.203857 
	C1081.313965,1147.187378 1072.050415,1153.070679 1062.786987,1158.953857 
	C1052.520996,1162.997803 1042.255127,1167.041870 1031.405273,1171.288574 
	C1030.576294,1171.706909 1030.326294,1171.916626 1030.071289,1172.120483 
	C1030.071289,1172.120483 1030.109863,1172.141479 1029.687012,1172.120605 
	C1023.517456,1173.397461 1017.770569,1174.695190 1012.023743,1175.992920 
	C1006.040466,1176.658447 1000.057251,1177.324097 993.150635,1177.925171 
	C983.423096,1177.899536 974.619019,1177.938477 965.814880,1177.977295 
	C965.450012,1177.982666 965.085144,1177.988037 964.018066,1177.970459 
	C954.169861,1176.347534 945.023804,1174.747437 935.877747,1173.147461 
	C935.877747,1173.147461 935.867676,1173.089111 935.787842,1172.847168 
	C935.404419,1172.427979 935.100769,1172.250610 934.797119,1172.073364 
	C927.456482,1169.193237 920.115784,1166.313232 912.197876,1163.063354 
	C907.023987,1160.251953 902.427307,1157.810425 897.830688,1155.368774 
	C884.666565,1147.080078 873.381592,1136.590820 862.455444,1125.194336 
	C860.342651,1122.118042 858.487732,1119.226929 856.632812,1116.335693 
	C889.654907,1133.678711 924.219421,1141.305786 961.972900,1134.216187 
	C963.075745,1134.010986 963.515442,1134.007935 964.217651,1134.249023 
	C966.151184,1135.213989 967.761536,1136.169434 969.502502,1136.620850 
	C992.154846,1142.494263 1015.001770,1142.936646 1037.661621,1137.360718 
	C1044.698120,1135.629272 1051.469971,1131.753662 1057.580933,1127.684937 
	C1062.060303,1124.702515 1061.679565,1119.893555 1057.605591,1116.130493 
	C1054.968872,1113.694946 1051.784058,1111.727417 1048.576050,1110.070435 
	C1045.205444,1108.329346 1041.514526,1107.208862 1037.963501,1105.817261 
	C1044.295898,1100.739380 1050.987915,1096.042969 1056.873779,1090.491699 
	C1065.058472,1082.771973 1072.631958,1074.405029 1080.488403,1066.335815 
	C1081.285522,1065.517212 1082.229248,1064.841309 1083.403076,1064.357178 
	C1083.155884,1066.002808 1082.627930,1067.397705 1082.062134,1068.776978 
	C1078.689941,1076.996460 1076.093750,1085.359375 1076.939453,1094.431641 
	C1077.495361,1100.394653 1081.429565,1103.087280 1086.923218,1100.809692 
	C1089.487549,1099.746460 1091.916260,1098.146484 1094.097534,1096.403198 
	C1108.318848,1085.037598 1116.827271,1069.683105 1123.374268,1053.164795 
	C1125.554199,1047.664551 1127.005493,1041.674683 1127.529663,1035.796387 
	C1127.829956,1032.429810 1126.466309,1028.098633 1124.286011,1025.531616 
	C1121.497559,1022.248413 1117.513184,1024.548828 1114.247192,1026.319214 
	C1113.084473,1026.949463 1111.920776,1027.646973 1110.928711,1028.510254 
	C1106.934814,1031.985718 1103.007935,1035.538086 1099.056274,1039.062012 
M1233.101807,1164.682251 
	C1239.872559,1167.327637 1243.153198,1164.933228 1242.006348,1157.852417 
	C1241.118530,1152.371094 1237.555054,1148.579346 1232.600586,1146.470703 
	C1228.020020,1144.521118 1224.756348,1147.091431 1224.918091,1152.167114 
	C1225.091431,1157.614014 1227.985352,1161.466064 1233.101807,1164.682251 
z"/>
<path fill="#639AC8" opacity="1.000000" stroke="none" 
	d="
M1063.158691,1159.038330 
	C1072.050415,1153.070679 1081.313965,1147.187378 1090.899414,1141.181641 
	C1093.516846,1147.848511 1095.440063,1154.793823 1098.201050,1161.388306 
	C1101.727539,1169.811401 1105.417358,1178.246826 1109.962158,1186.144287 
	C1116.735962,1197.915039 1127.355225,1205.770996 1139.274170,1211.874390 
	C1147.330811,1216.000244 1155.662109,1219.709717 1160.034912,1228.411865 
	C1165.839355,1239.963257 1166.224487,1253.948975 1154.205688,1263.435913 
	C1149.487915,1267.159912 1136.421143,1267.865601 1130.983276,1264.625488 
	C1122.978638,1259.855835 1116.479248,1253.752441 1114.515991,1244.141113 
	C1113.485107,1239.093506 1113.144531,1233.880127 1111.809082,1228.925537 
	C1109.812866,1221.518677 1107.518677,1214.158936 1104.806885,1206.985107 
	C1099.593750,1193.194824 1090.821899,1181.719360 1080.051636,1171.857910 
	C1074.941772,1167.179199 1069.061768,1163.341431 1063.158691,1159.038330 
M1157.067017,1250.179810 
	C1158.880005,1244.704834 1158.667114,1239.259644 1155.395996,1234.530273 
	C1154.203247,1232.805786 1151.412598,1231.726440 1149.189209,1231.374634 
	C1148.129028,1231.206787 1145.890137,1233.238525 1145.565308,1234.602539 
	C1144.311157,1239.869263 1144.398804,1245.179443 1147.895874,1249.769897 
	C1150.359253,1253.003418 1153.237915,1254.256836 1157.067017,1250.179810 
z"/>
<path fill="#639AC8" opacity="1.000000" stroke="none" 
	d="
M1162.914062,998.541748 
	C1162.575562,998.053406 1162.168579,997.117432 1162.061768,996.148376 
	C1160.662109,983.460022 1159.304932,970.766968 1158.383423,957.629944 
	C1165.914673,956.827881 1172.999878,956.471069 1180.084961,956.114197 
	C1193.178711,955.235901 1206.524658,954.890747 1218.073730,947.742554 
	C1225.473022,943.162781 1232.065918,937.296875 1239.161133,932.203735 
	C1243.959473,928.759338 1248.683228,923.684326 1254.004761,922.822388 
	C1264.199097,921.171082 1274.805908,919.819092 1283.787231,928.844971 
	C1292.986084,938.089355 1290.111816,956.333435 1279.969849,963.291931 
	C1268.644043,971.062866 1257.249512,968.899475 1245.034790,966.981873 
	C1235.002075,965.406738 1224.587158,966.302612 1214.343750,966.025146 
	C1202.159302,965.695007 1191.281982,970.260376 1180.563110,975.175720 
	C1174.733398,977.849060 1169.212280,981.195251 1162.985107,984.542725 
	C1162.985107,988.880798 1162.985107,993.479797 1162.914062,998.541748 
M1267.433350,927.088013 
	C1265.499878,927.487915 1263.468018,927.633606 1261.651367,928.335632 
	C1256.329956,930.392212 1255.802002,933.893860 1260.104858,937.581604 
	C1264.253662,941.137451 1271.835205,941.888000 1276.498535,939.204834 
	C1280.153931,937.101624 1280.891357,933.719971 1277.580078,931.275513 
	C1274.910156,929.304626 1271.391846,928.483154 1267.433350,927.088013 
z"/>
<path fill="#639AC8" opacity="1.000000" stroke="none" 
	d="
M935.885681,1173.570435 
	C945.023804,1174.747437 954.169861,1176.347534 963.744873,1177.986572 
	C960.053040,1188.282715 956.068787,1198.597534 951.778931,1208.783569 
	C945.487976,1223.721069 946.010254,1238.761597 950.654175,1253.916748 
	C951.967102,1258.201538 953.827820,1262.332275 954.945129,1266.660889 
	C958.947937,1282.169067 954.170349,1302.792725 932.768738,1305.859375 
	C921.492065,1307.475220 911.908691,1298.951294 908.989136,1288.330933 
	C905.440063,1275.421021 910.526428,1264.842651 918.385742,1254.694580 
	C928.391907,1241.774658 933.587341,1226.415161 936.757446,1210.622681 
	C939.185059,1198.528809 938.405090,1186.153564 935.885681,1173.570435 
M945.268677,1292.607910 
	C948.846375,1286.289795 948.838867,1280.579224 945.250671,1278.783691 
	C941.874512,1277.094482 936.706482,1280.349731 933.703247,1286.056885 
	C931.309265,1290.606567 931.305176,1296.641479 934.166870,1297.983765 
	C938.910400,1300.208496 941.818542,1296.833130 944.572144,1293.636963 
	C944.679626,1293.512207 944.764526,1293.368042 945.268677,1292.607910 
z"/>
<path fill="#639AC8" opacity="1.000000" stroke="none" 
	d="
M1122.129395,885.437622 
	C1115.817383,879.355042 1109.469360,872.921265 1102.898193,866.221130 
	C1113.686279,857.168396 1124.980957,848.709167 1135.618286,839.491394 
	C1144.056030,832.179688 1147.679810,821.758606 1150.860962,811.371826 
	C1152.961670,804.513123 1154.009521,797.241211 1156.822144,790.711487 
	C1161.691772,779.405945 1170.415283,773.419983 1183.331299,773.912598 
	C1194.657471,774.344543 1201.579346,777.936951 1204.501343,788.075989 
	C1206.906128,796.420288 1205.226196,804.779724 1200.367676,812.347961 
	C1196.580688,818.247009 1191.078979,821.928101 1184.760376,823.984802 
	C1172.543701,827.961060 1162.576050,835.419617 1152.573608,843.035034 
	C1138.152954,854.014282 1129.955444,869.406006 1122.129395,885.437622 
M1168.757202,791.701721 
	C1175.281372,796.328064 1186.616699,792.375916 1188.398560,784.606445 
	C1188.732178,783.151855 1187.207520,779.823425 1186.538574,779.822937 
	C1182.399414,779.819824 1177.945679,779.728210 1174.208618,781.210205 
	C1170.433472,782.707336 1167.367065,785.994934 1168.757202,791.701721 
z"/>
<path fill="#437A9D" opacity="1.000000" stroke="none" 
	d="
M812.536621,991.966797 
	C813.101501,998.114319 813.258606,1004.252075 813.135071,1010.704224 
	C806.387207,1009.989319 799.884277,1009.143127 793.460205,1007.891846 
	C780.505920,1005.368652 768.371338,1007.303528 756.761963,1013.580688 
	C751.202087,1016.586853 745.572754,1020.060364 739.541687,1021.473450 
	C727.526672,1024.288452 714.144165,1019.272339 711.604370,1005.106873 
	C710.230164,997.442505 713.418091,990.237549 720.688782,986.232117 
	C728.189392,982.100037 736.568481,981.021545 744.265991,985.283020 
	C755.341248,991.414673 767.287598,994.058411 779.526062,995.979919 
	C790.756104,997.743042 801.364380,994.143555 812.536621,991.966797 
z"/>
<path fill="#437A9D" opacity="1.000000" stroke="none" 
	d="
M826.540894,1065.011475 
	C829.076599,1070.055176 831.291809,1075.225220 833.593750,1080.735596 
	C822.576172,1083.643311 810.810120,1084.826416 801.632690,1092.268555 
	C795.585327,1097.172607 790.308533,1103.152954 785.261108,1109.135986 
	C776.640381,1119.354980 771.324280,1120.717285 759.083801,1118.094604 
	C748.481628,1115.822754 747.207642,1105.195923 749.646118,1097.827393 
	C752.771729,1088.382935 758.581177,1084.960938 768.542358,1085.024170 
	C787.232910,1085.142700 804.543701,1080.581909 820.010071,1069.813232 
	C822.135193,1068.333740 824.152954,1066.699951 826.540894,1065.011475 
M761.291077,1114.713379 
	C761.783813,1114.790039 762.331726,1115.046143 762.760437,1114.914429 
	C765.934753,1113.938721 769.139587,1113.010620 772.171448,1111.691895 
	C772.532104,1111.535034 772.112854,1107.993042 771.708069,1107.919067 
	C768.267700,1107.290405 764.580811,1106.293701 761.289062,1106.970337 
	C756.344177,1107.986694 756.242126,1110.834473 761.291077,1114.713379 
z"/>
<path fill="#437A9D" opacity="1.000000" stroke="none" 
	d="
M962.369141,830.892700 
	C957.019714,832.241455 951.344360,833.506287 945.261353,834.794678 
	C945.404480,822.486877 946.037964,809.994812 939.641235,798.850037 
	C936.114075,792.704773 931.630798,786.957947 926.808472,781.743530 
	C920.388123,774.801392 920.019043,759.908142 926.124207,752.896667 
	C930.265320,748.140747 935.178223,749.112549 940.169617,749.023010 
	C947.100220,748.898682 954.818115,755.430664 954.975891,762.339417 
	C955.119080,768.611023 954.730713,774.976624 953.767822,781.175110 
	C951.573730,795.297852 952.338928,809.005981 957.982239,822.257141 
	C959.217590,825.158081 960.683472,827.960754 962.369141,830.892700 
M935.747498,762.401855 
	C935.169250,759.450012 935.431458,755.149231 931.030579,755.867126 
	C926.770203,756.562195 925.831970,760.876953 926.243103,764.536316 
	C926.486816,766.704956 928.546265,768.669617 929.789246,770.725952 
	C931.615356,768.683350 933.464417,766.660217 935.244812,764.578613 
	C935.534546,764.239868 935.521118,763.641968 935.747498,762.401855 
z"/>
<path fill="#437A9D" opacity="1.000000" stroke="none" 
	d="
M1012.370239,1176.078369 
	C1017.770569,1174.695190 1023.517456,1173.397461 1029.675049,1172.139160 
	C1029.859131,1184.838013 1029.795776,1197.609619 1036.321411,1208.957153 
	C1039.935059,1215.241089 1044.482300,1221.132446 1049.377930,1226.498901 
	C1055.713135,1233.443237 1056.307129,1252.474854 1045.352905,1257.373169 
	C1032.106812,1263.296753 1020.651306,1254.745117 1020.154846,1241.916992 
	C1019.903381,1235.419189 1022.398743,1228.863892 1022.849609,1222.279663 
	C1023.705017,1209.786865 1023.591003,1197.293335 1017.932434,1185.641235 
	C1016.359192,1182.401855 1014.464172,1179.318604 1012.370239,1176.078369 
M1048.742188,1238.987915 
	C1045.710938,1235.702637 1043.227173,1235.614868 1041.748413,1239.422974 
	C1040.625366,1242.315186 1040.266724,1245.902344 1040.830688,1248.946289 
	C1041.469971,1252.396606 1045.541260,1253.030396 1047.053711,1249.902710 
	C1048.512573,1246.885620 1048.428101,1243.122314 1048.742188,1238.987915 
z"/>
<path fill="#437A9D" opacity="1.000000" stroke="none" 
	d="
M1145.550171,1078.127930 
	C1147.360107,1073.273804 1149.576416,1068.366577 1151.958496,1063.131836 
	C1161.039429,1067.595825 1169.566772,1073.493408 1179.002319,1076.799927 
	C1185.587036,1079.107544 1193.413330,1078.081055 1200.689087,1078.155151 
	C1209.584961,1078.245728 1218.661377,1076.225464 1226.004639,1084.032227 
	C1229.963501,1088.240967 1232.101196,1098.163940 1229.309448,1103.420532 
	C1226.117065,1109.431396 1221.075684,1111.845337 1214.200073,1112.127197 
	C1204.656738,1112.518433 1198.747803,1107.967041 1192.827393,1101.010010 
	C1188.252930,1095.634521 1181.343628,1092.206787 1175.354858,1088.083862 
	C1167.469604,1082.655273 1158.545654,1080.129395 1149.116699,1079.109985 
	C1148.038574,1078.993286 1147.008789,1078.430420 1145.550171,1078.127930 
M1225.568115,1095.006836 
	C1225.731323,1089.801392 1222.557861,1085.517090 1217.736816,1084.571533 
	C1214.525513,1083.941650 1212.955688,1085.440186 1213.139160,1088.624390 
	C1213.431885,1093.702393 1220.396729,1097.723633 1225.568115,1095.006836 
z"/>
<path fill="#437A9D" opacity="1.000000" stroke="none" 
	d="
M897.815918,1155.755127 
	C902.427307,1157.810425 907.023987,1160.251953 911.871948,1162.940918 
	C908.593628,1168.215942 905.016846,1173.211304 901.545593,1178.278931 
	C896.545227,1185.579102 894.190002,1193.747314 893.997009,1202.539551 
	C893.883728,1207.698486 894.309082,1212.887817 893.910645,1218.018433 
	C892.805298,1232.251831 878.406616,1240.679565 865.968323,1234.051025 
	C861.326660,1231.577393 859.046631,1227.345459 858.825439,1221.574707 
	C858.446045,1211.674805 862.403137,1205.379272 870.392395,1199.256714 
	C883.768311,1189.006348 893.473511,1175.395996 897.835327,1158.630005 
	C898.036743,1157.855957 897.822021,1156.973511 897.815918,1155.755127 
M873.813599,1225.588745 
	C872.842896,1228.497437 872.272766,1231.345825 876.548462,1231.818970 
	C880.136292,1232.216064 885.123047,1228.439087 885.648621,1224.824951 
	C885.860413,1223.368408 885.584534,1221.227417 884.645935,1220.392944 
	C883.739014,1219.586548 881.371521,1219.469360 880.217163,1220.098511 
	C877.986633,1221.313843 876.158325,1223.267456 873.813599,1225.588745 
z"/>
<path fill="#437A9D" opacity="1.000000" stroke="none" 
	d="
M1155.517090,947.105957 
	C1153.499756,942.578003 1151.844971,938.067505 1150.155029,933.174927 
	C1155.563721,931.474426 1161.019287,930.202881 1166.448608,928.827637 
	C1177.101685,926.129211 1185.538208,920.192505 1192.004639,911.329590 
	C1193.734985,908.958008 1195.745972,906.788635 1197.664673,904.557739 
	C1201.888672,899.646729 1207.290161,898.260071 1213.567505,898.975281 
	C1218.305542,899.515076 1223.044067,898.015930 1227.371948,902.309937 
	C1233.136963,908.029785 1233.009277,918.646301 1228.051392,924.597534 
	C1222.361084,931.428101 1215.354248,933.165283 1206.255615,932.570557 
	C1197.203491,931.978760 1187.644043,933.667236 1178.849731,936.222961 
	C1170.815552,938.557739 1163.507690,943.391174 1155.517090,947.105957 
M1217.980103,902.275757 
	C1214.954712,903.156006 1211.863403,903.878357 1208.973267,905.083008 
	C1208.528198,905.268494 1208.659180,908.726807 1209.116211,908.877747 
	C1211.992188,909.827393 1215.057861,910.798096 1218.014648,910.672302 
	C1219.659302,910.602356 1221.214478,908.425781 1222.809937,907.198669 
	C1221.462036,905.621826 1220.114014,904.044983 1217.980103,902.275757 
z"/>
<path fill="#437A9D" opacity="1.000000" stroke="none" 
	d="
M1068.130859,843.067749 
	C1063.554199,841.647888 1059.029297,839.861511 1054.236816,837.818237 
	C1057.951172,830.570496 1062.873169,823.926208 1065.618530,816.479492 
	C1067.821777,810.503479 1067.732422,803.570435 1068.035400,797.033142 
	C1068.441162,788.277527 1065.368530,779.264160 1071.671021,771.140137 
	C1076.584839,764.806152 1082.948853,763.039551 1090.196411,764.015991 
	C1095.705688,764.758362 1099.899658,768.285034 1101.347168,773.729431 
	C1103.437866,781.593628 1103.657104,789.618103 1096.933350,795.602966 
	C1086.717896,804.695801 1078.016235,814.893616 1072.586792,827.496216 
	C1070.515259,832.304504 1069.616333,837.617981 1068.130859,843.067749 
M1086.516113,774.954712 
	C1088.157349,770.319702 1086.455933,766.954712 1083.235107,768.536560 
	C1080.033569,770.108887 1077.607544,773.478882 1075.269531,776.402893 
	C1074.811523,776.975830 1075.989502,780.029236 1076.963989,780.372070 
	C1081.132080,781.838257 1083.710327,779.120972 1085.918213,776.029541 
	C1086.013672,775.895935 1086.086060,775.745850 1086.516113,774.954712 
z"/>
<path fill="#7FB1D6" opacity="1.000000" stroke="none" 
	d="
M966.006226,1178.391113 
	C974.619019,1177.938477 983.423096,1177.899536 992.705811,1177.920532 
	C992.551086,1178.344360 991.917236,1179.025391 991.284790,1179.024170 
	C982.922241,1179.006958 974.559875,1178.893921 966.006226,1178.391113 
z"/>
<path fill="#7FB1D6" opacity="1.000000" stroke="none" 
	d="
M1179.611938,956.045349 
	C1172.999878,956.471069 1165.914673,956.827881 1158.352051,957.228516 
	C1157.659180,956.977051 1157.443848,956.681824 1157.114258,956.135376 
	C1164.379761,955.914978 1171.759277,955.945740 1179.611938,956.045349 
z"/>
<path fill="#639AC8" opacity="1.000000" stroke="none" 
	d="
M934.877930,1172.345337 
	C935.100769,1172.250610 935.404419,1172.427979 935.817505,1172.848633 
	C935.604187,1172.933838 935.281433,1172.775635 934.877930,1172.345337 
z"/>
<path fill="#437A9D" opacity="1.000000" stroke="none" 
	d="
M1030.348633,1172.102295 
	C1030.326294,1171.916626 1030.576294,1171.706909 1031.013184,1171.345703 
	C1031.012085,1171.494751 1030.819092,1171.789307 1030.348633,1172.102295 
z"/>
<path fill="#7FB1D6" opacity="1.000000" stroke="none" 
	d="
M979.179199,971.207031 
	C972.600525,971.944946 966.024353,972.706665 959.441040,973.400513 
	C958.157593,973.535706 956.846436,973.407471 955.432373,972.937683 
	C957.510132,970.199280 959.709839,967.930176 961.895630,965.647705 
	C967.540649,959.753357 971.416382,952.843201 973.426208,944.950500 
	C975.966064,934.976257 969.472046,928.016663 959.597656,930.734680 
	C940.565002,935.973633 928.241638,948.839233 921.132568,966.849426 
	C918.888000,972.535889 919.120117,978.334900 924.084045,982.981018 
	C915.596802,988.549011 907.109497,994.117004 898.154053,999.506226 
	C896.189819,994.930298 894.889526,990.454163 893.155701,986.152832 
	C889.925354,978.138672 886.412842,970.283997 879.841919,964.230835 
	C873.960510,958.812988 868.019836,960.014771 866.075317,967.814026 
	C864.778564,973.014954 864.283875,978.637878 864.667542,983.983093 
	C865.222473,991.713501 866.897522,999.363525 868.094666,1007.047852 
	C856.918152,1005.925232 851.751038,998.938049 853.471191,987.854370 
	C856.911682,965.685425 866.256226,946.032532 879.258667,927.336914 
	C884.335510,927.305359 888.835815,928.080200 893.245300,927.725403 
	C906.754822,926.638367 919.748657,923.124695 932.137451,917.697510 
	C947.988953,910.753479 963.454773,903.104736 975.000244,889.549194 
	C978.577148,885.349670 981.709229,880.647766 979.238281,875.104736 
	C976.830627,869.703552 971.233459,869.297974 965.999146,868.995544 
	C969.969666,867.830444 973.871704,866.078979 977.923096,865.605591 
	C992.569397,863.894409 1006.954651,864.817261 1020.736816,872.214233 
	C1021.144165,876.554138 1020.801880,880.292908 1021.535095,883.807129 
	C1025.613037,903.351196 1035.224365,920.246826 1047.134888,936.326904 
	C1047.188110,937.103577 1047.225464,937.547058 1047.262817,937.990601 
	C1042.384033,942.928589 1037.540283,947.901733 1032.612427,952.790283 
	C1029.992920,955.388916 1027.298096,955.891785 1023.687378,953.986877 
	C1015.947571,949.903687 1007.868591,950.678467 1000.094849,954.060181 
	C992.006653,957.578796 985.277832,962.932678 979.918579,970.681030 
	C979.557007,971.053467 979.179199,971.207031 979.179199,971.207031 
z"/>
<path fill="#3A80AE" opacity="1.000000" stroke="none" 
	d="
M1047.545166,938.123901 
	C1047.225464,937.547058 1047.188110,937.103577 1047.360962,936.070068 
	C1048.708496,932.557495 1050.267334,929.725159 1050.915771,926.697815 
	C1055.588623,904.887817 1043.590210,882.402344 1021.915588,872.001831 
	C1022.651184,865.472107 1026.225098,861.304504 1032.583496,862.250732 
	C1039.469971,863.275513 1046.584961,865.360840 1052.668457,868.687744 
	C1069.496582,877.890869 1082.913330,891.348755 1094.963013,906.053955 
	C1102.207520,914.895081 1108.644165,924.398132 1115.719482,933.790161 
	C1116.287476,935.052612 1116.579834,936.128601 1116.938721,937.985107 
	C1118.702393,957.257263 1118.939209,975.696411 1115.019653,993.986145 
	C1114.843628,993.992188 1114.667603,993.998169 1114.227783,994.021301 
	C1099.438843,989.872986 1087.792725,980.908813 1077.355835,970.622803 
	C1066.968994,960.386230 1057.627441,949.089172 1047.545166,938.123901 
z"/>
<path fill="#3A80AE" opacity="1.000000" stroke="none" 
	d="
M979.064270,971.536438 
	C979.179199,971.207031 979.557007,971.053467 979.737549,970.958618 
	C995.175720,968.891174 1010.172424,965.950317 1023.855042,958.456909 
	C1026.572144,956.968872 1028.454956,957.553345 1030.394653,959.713379 
	C1035.766846,965.695984 1037.185791,972.912292 1036.972168,980.589478 
	C1036.475586,998.428833 1022.977417,1017.427917 1006.305298,1023.932312 
	C987.083435,1031.431519 971.212158,1020.468262 970.821777,999.802551 
	C970.627319,989.510864 974.440613,980.651245 979.064270,971.536438 
z"/>
<path fill="#3A80AE" opacity="1.000000" stroke="none" 
	d="
M1075.216675,1051.144287 
	C1061.555664,1067.396362 1044.424561,1076.882202 1023.788452,1079.397339 
	C1018.416138,1080.052124 1012.488831,1079.115845 1007.288452,1077.442993 
	C1001.249023,1075.500244 998.976257,1069.250610 1000.748535,1063.120728 
	C1004.123474,1051.447754 1013.034851,1044.339355 1022.383118,1037.932617 
	C1033.656494,1030.206665 1046.259399,1025.404541 1059.976196,1024.371582 
	C1068.886597,1023.700500 1079.179810,1026.550049 1080.511353,1035.162842 
	C1081.444214,1041.197754 1078.671021,1046.124268 1075.216675,1051.144287 
z"/>
<path fill="#5A9BC1" opacity="1.000000" stroke="none" 
	d="
M965.549988,869.000488 
	C971.233459,869.297974 976.830627,869.703552 979.238281,875.104736 
	C981.709229,880.647766 978.577148,885.349670 975.000244,889.549194 
	C963.454773,903.104736 947.988953,910.753479 932.137451,917.697510 
	C919.748657,923.124695 906.754822,926.638367 893.245300,927.725403 
	C888.835815,928.080200 884.335510,927.305359 879.448364,927.060486 
	C879.020081,927.073792 878.994263,926.645996 879.247253,926.200073 
	C892.027466,909.331604 906.259705,894.606567 924.463867,884.559631 
	C935.193726,878.637756 946.721924,874.162354 957.891113,869.036438 
	C960.294373,869.026062 962.697571,869.015747 965.549988,869.000488 
z"/>
<path fill="#2A6DA2" opacity="1.000000" stroke="none" 
	d="
M1098.931152,1039.381592 
	C1103.007935,1035.538086 1106.934814,1031.985718 1110.928711,1028.510254 
	C1111.920776,1027.646973 1113.084473,1026.949463 1114.247192,1026.319214 
	C1117.513184,1024.548828 1121.497559,1022.248413 1124.286011,1025.531616 
	C1126.466309,1028.098633 1127.829956,1032.429810 1127.529663,1035.796387 
	C1127.005493,1041.674683 1125.554199,1047.664551 1123.374268,1053.164795 
	C1116.827271,1069.683105 1108.318848,1085.037598 1094.097534,1096.403198 
	C1091.916260,1098.146484 1089.487549,1099.746460 1086.923218,1100.809692 
	C1081.429565,1103.087280 1077.495361,1100.394653 1076.939453,1094.431641 
	C1076.093750,1085.359375 1078.689941,1076.996460 1082.062134,1068.776978 
	C1082.627930,1067.397705 1083.155884,1066.002808 1083.715576,1064.247803 
	C1088.755371,1055.820679 1093.780762,1047.760864 1098.931152,1039.381592 
z"/>
<path fill="#5A9BC1" opacity="1.000000" stroke="none" 
	d="
M924.387207,982.986084 
	C919.120117,978.334900 918.888000,972.535889 921.132568,966.849426 
	C928.241638,948.839233 940.565002,935.973633 959.597656,930.734680 
	C969.472046,928.016663 975.966064,934.976257 973.426208,944.950500 
	C971.416382,952.843201 967.540649,959.753357 961.895630,965.647705 
	C959.709839,967.930176 957.510132,970.199280 955.110107,972.744507 
	C953.814636,973.626404 952.725708,974.238159 950.933472,974.965942 
	C942.121826,977.721375 934.013550,980.360718 925.905273,983.000122 
	C925.500305,982.997070 925.095276,982.994080 924.387207,982.986084 
z"/>
<path fill="#2A6DA2" opacity="1.000000" stroke="none" 
	d="
M1037.600342,1105.870605 
	C1041.514526,1107.208862 1045.205444,1108.329346 1048.576050,1110.070435 
	C1051.784058,1111.727417 1054.968872,1113.694946 1057.605591,1116.130493 
	C1061.679565,1119.893555 1062.060303,1124.702515 1057.580933,1127.684937 
	C1051.469971,1131.753662 1044.698120,1135.629272 1037.661621,1137.360718 
	C1015.001770,1142.936646 992.154846,1142.494263 969.502502,1136.620850 
	C967.761536,1136.169434 966.151184,1135.213989 964.645020,1134.246948 
	C966.124390,1133.856201 967.449951,1133.777344 968.751526,1133.556763 
	C985.722046,1130.680908 1001.733398,1124.812378 1017.104431,1117.298218 
	C1023.400391,1114.220337 1029.081299,1109.884277 1035.041992,1106.120850 
	C1035.773682,1106.055298 1036.505371,1105.989624 1037.600342,1105.870605 
z"/>
<path fill="#3A80AE" opacity="1.000000" stroke="none" 
	d="
M950.297607,1022.751343 
	C958.596008,1034.121094 963.035400,1046.438843 963.009155,1060.248779 
	C963.007263,1061.246216 963.034424,1062.270874 962.828491,1063.236084 
	C961.809631,1068.012451 960.826538,1073.083740 955.516602,1074.900757 
	C950.169922,1076.730225 945.603027,1074.208008 942.024048,1070.491211 
	C929.260315,1057.235718 922.415466,1041.613525 925.140015,1022.965393 
	C926.732788,1012.063171 935.067932,1009.236877 943.635315,1016.198181 
	C945.950500,1018.079346 947.926331,1020.378174 950.297607,1022.751343 
z"/>
<path fill="#3A80AE" opacity="1.000000" stroke="none" 
	d="
M1034.661865,1105.982666 
	C1029.081299,1109.884277 1023.400391,1114.220337 1017.104431,1117.298218 
	C1001.733398,1124.812378 985.722046,1130.680908 968.751526,1133.556763 
	C967.449951,1133.777344 966.124390,1133.856201 964.382568,1134.002930 
	C963.515442,1134.007935 963.075745,1134.010986 962.305542,1134.019775 
	C959.398743,1132.512451 956.646301,1131.232056 954.280884,1129.440552 
	C948.482971,1125.049438 948.163574,1118.208984 954.451782,1114.627075 
	C961.125854,1110.825439 968.492554,1107.626709 975.957764,1105.946411 
	C995.287598,1101.595703 1014.832703,1101.517944 1034.661865,1105.982666 
z"/>
<path fill="#3A80AE" opacity="1.000000" stroke="none" 
	d="
M918.891724,1102.272217 
	C903.681763,1097.670898 890.756531,1090.017822 880.242126,1078.628174 
	C877.163452,1075.293213 873.209167,1071.215698 876.147705,1066.337524 
	C878.879700,1061.802002 884.002808,1063.007324 888.450439,1063.972656 
	C906.155273,1067.815674 920.780090,1076.876831 932.761414,1090.333618 
	C933.738953,1091.431519 934.494690,1092.796631 935.089905,1094.153198 
	C937.728516,1100.167725 935.252808,1104.049927 928.631897,1103.887329 
	C925.507202,1103.810425 922.402893,1102.905518 918.891724,1102.272217 
z"/>
<path fill="#5A9BC1" opacity="1.000000" stroke="none" 
	d="
M868.265503,1007.204590 
	C866.897522,999.363525 865.222473,991.713501 864.667542,983.983093 
	C864.283875,978.637878 864.778564,973.014954 866.075317,967.814026 
	C868.019836,960.014771 873.960510,958.812988 879.841919,964.230835 
	C886.412842,970.283997 889.925354,978.138672 893.155701,986.152832 
	C894.889526,990.454163 896.189819,994.930298 897.846802,999.654907 
	C898.003174,1000.158630 897.998535,1000.334900 897.631714,1000.834106 
	C888.339294,1005.420715 879.238892,1008.989868 869.039185,1008.068909 
	C868.855835,1007.818054 868.654907,1007.582153 868.265503,1007.204590 
z"/>
<path fill="#5A9BC1" opacity="1.000000" stroke="none" 
	d="
M1021.685303,871.998413 
	C1043.590210,882.402344 1055.588623,904.887817 1050.915771,926.697815 
	C1050.267334,929.725159 1048.708496,932.557495 1047.345093,935.736938 
	C1035.224365,920.246826 1025.613037,903.351196 1021.535095,883.807129 
	C1020.801880,880.292908 1021.144165,876.554138 1020.992188,872.457092 
	C1020.994446,871.995117 1021.455017,871.995056 1021.685303,871.998413 
z"/>
<path fill="#3A80AE" opacity="1.000000" stroke="none" 
	d="
M869.093140,1008.438232 
	C879.238892,1008.989868 888.339294,1005.420715 897.624023,1001.098511 
	C900.108582,1012.133972 902.521118,1023.211670 900.042175,1034.587646 
	C899.180054,1038.544312 898.324219,1042.733643 893.623535,1043.760498 
	C889.096313,1044.749634 886.302551,1041.725220 883.599792,1038.597900 
	C876.116943,1029.939453 872.311462,1019.538452 869.093140,1008.438232 
z"/>
<path fill="#3A80AE" opacity="1.000000" stroke="none" 
	d="
M957.478027,869.039307 
	C946.721924,874.162354 935.193726,878.637756 924.463867,884.559631 
	C906.259705,894.606567 892.027466,909.331604 879.237549,925.985962 
	C871.527405,923.204773 869.106934,918.176636 873.823425,911.837585 
	C878.686829,905.301208 884.587524,899.063354 891.238464,894.419189 
	C910.997742,880.621948 932.954956,871.876587 957.478027,869.039307 
z"/>
<path fill="#7FB1D6" opacity="1.000000" stroke="none" 
	d="
M975.275879,707.297119 
	C978.014160,706.301392 981.783875,704.250488 982.721741,705.150513 
	C984.513550,706.869873 985.733643,710.453674 985.296936,712.929565 
	C984.640442,716.651306 982.725891,720.334351 980.587219,723.525085 
	C979.678101,724.881409 976.412109,725.957764 975.003479,725.347229 
	C973.281799,724.601196 971.149292,721.779114 971.372925,720.154663 
	C971.962158,715.874695 973.729919,711.757019 975.275879,707.297119 
z"/>
<path fill="#7FB1D6" opacity="1.000000" stroke="none" 
	d="
M742.854431,870.107178 
	C741.542664,875.874451 738.140686,877.845032 734.037964,874.741516 
	C730.723389,872.234131 727.958679,868.655823 725.875366,865.022034 
	C724.949585,863.407104 725.507019,859.583618 726.841125,858.407837 
	C728.213074,857.198792 731.680969,857.223511 733.653320,858.064575 
	C738.637390,860.189941 741.787659,864.242676 742.854431,870.107178 
z"/>
<path fill="#7FB1D6" opacity="1.000000" stroke="none" 
	d="
M785.995422,783.233154 
	C788.986450,779.915649 792.401062,780.238220 794.288391,783.088623 
	C796.738464,786.789185 798.557678,791.164429 799.473022,795.497620 
	C799.839844,797.234375 797.453491,800.832275 795.640869,801.395142 
	C793.772827,801.975281 790.326538,800.532593 788.891174,798.849243 
	C785.206299,794.527832 783.752563,789.294617 785.995422,783.233154 
z"/>
<path fill="#7FB1D6" opacity="1.000000" stroke="none" 
	d="
M765.232910,1203.000488 
	C764.602600,1200.410767 763.393433,1197.608521 764.236328,1195.723877 
	C766.077332,1191.607422 774.206482,1188.260742 778.544067,1189.563354 
	C780.502747,1190.151489 783.048401,1191.872070 783.492249,1193.561279 
	C783.948730,1195.298462 782.725342,1198.223877 781.263245,1199.578491 
	C776.867798,1203.650513 771.570496,1205.289917 765.232910,1203.000488 
z"/>
<path fill="#3A80AE" opacity="1.000000" stroke="none" 
	d="
M926.255981,983.216614 
	C934.013550,980.360718 942.121826,977.721375 950.626343,975.039673 
	C944.107849,981.351746 936.373596,985.334106 926.255981,983.216614 
z"/>
<path fill="#2A6DA2" opacity="1.000000" stroke="none" 
	d="
M1115.354492,994.198608 
	C1118.939209,975.696411 1118.702393,957.257263 1117.006348,938.312378 
	C1125.622681,950.579285 1131.398926,964.411316 1132.584351,979.828003 
	C1133.431763,990.846130 1126.580688,996.540100 1115.354492,994.198608 
z"/>
<path fill="#7FB1D6" opacity="1.000000" stroke="none" 
	d="
M1232.771362,1164.494019 
	C1227.985352,1161.466064 1225.091431,1157.614014 1224.918091,1152.167114 
	C1224.756348,1147.091431 1228.020020,1144.521118 1232.600586,1146.470703 
	C1237.555054,1148.579346 1241.118530,1152.371094 1242.006348,1157.852417 
	C1243.153198,1164.933228 1239.872559,1167.327637 1232.771362,1164.494019 
z"/>
<path fill="#7FB1D6" opacity="1.000000" stroke="none" 
	d="
M1156.829346,1250.499268 
	C1153.237915,1254.256836 1150.359253,1253.003418 1147.895874,1249.769897 
	C1144.398804,1245.179443 1144.311157,1239.869263 1145.565308,1234.602539 
	C1145.890137,1233.238525 1148.129028,1231.206787 1149.189209,1231.374634 
	C1151.412598,1231.726440 1154.203247,1232.805786 1155.395996,1234.530273 
	C1158.667114,1239.259644 1158.880005,1244.704834 1156.829346,1250.499268 
z"/>
<path fill="#7FB1D6" opacity="1.000000" stroke="none" 
	d="
M1267.841553,927.119873 
	C1271.391846,928.483154 1274.910156,929.304626 1277.580078,931.275513 
	C1280.891357,933.719971 1280.153931,937.101624 1276.498535,939.204834 
	C1271.835205,941.888000 1264.253662,941.137451 1260.104858,937.581604 
	C1255.802002,933.893860 1256.329956,930.392212 1261.651367,928.335632 
	C1263.468018,927.633606 1265.499878,927.487915 1267.841553,927.119873 
z"/>
<path fill="#7FB1D6" opacity="1.000000" stroke="none" 
	d="
M945.064331,1292.920410 
	C944.764526,1293.368042 944.679626,1293.512207 944.572144,1293.636963 
	C941.818542,1296.833130 938.910400,1300.208496 934.166870,1297.983765 
	C931.305176,1296.641479 931.309265,1290.606567 933.703247,1286.056885 
	C936.706482,1280.349731 941.874512,1277.094482 945.250671,1278.783691 
	C948.838867,1280.579224 948.846375,1286.289795 945.064331,1292.920410 
z"/>
<path fill="#7FB1D6" opacity="1.000000" stroke="none" 
	d="
M1168.578369,791.357971 
	C1167.367065,785.994934 1170.433472,782.707336 1174.208618,781.210205 
	C1177.945679,779.728210 1182.399414,779.819824 1186.538574,779.822937 
	C1187.207520,779.823425 1188.732178,783.151855 1188.398560,784.606445 
	C1186.616699,792.375916 1175.281372,796.328064 1168.578369,791.357971 
z"/>
<path fill="#4D87BC" opacity="1.000000" stroke="none" 
	d="
M760.917786,1114.582275 
	C756.242126,1110.834473 756.344177,1107.986694 761.289062,1106.970337 
	C764.580811,1106.293701 768.267700,1107.290405 771.708069,1107.919067 
	C772.112854,1107.993042 772.532104,1111.535034 772.171448,1111.691895 
	C769.139587,1113.010620 765.934753,1113.938721 762.760437,1114.914429 
	C762.331726,1115.046143 761.783813,1114.790039 760.917786,1114.582275 
z"/>
<path fill="#4D87BC" opacity="1.000000" stroke="none" 
	d="
M935.697693,762.782837 
	C935.521118,763.641968 935.534546,764.239868 935.244812,764.578613 
	C933.464417,766.660217 931.615356,768.683350 929.789246,770.725952 
	C928.546265,768.669617 926.486816,766.704956 926.243103,764.536316 
	C925.831970,760.876953 926.770203,756.562195 931.030579,755.867126 
	C935.431458,755.149231 935.169250,759.450012 935.697693,762.782837 
z"/>
<path fill="#4D87BC" opacity="1.000000" stroke="none" 
	d="
M1048.881958,1239.337402 
	C1048.428101,1243.122314 1048.512573,1246.885620 1047.053711,1249.902710 
	C1045.541260,1253.030396 1041.469971,1252.396606 1040.830688,1248.946289 
	C1040.266724,1245.902344 1040.625366,1242.315186 1041.748413,1239.422974 
	C1043.227173,1235.614868 1045.710938,1235.702637 1048.881958,1239.337402 
z"/>
<path fill="#4D87BC" opacity="1.000000" stroke="none" 
	d="
M1225.381836,1095.333252 
	C1220.396729,1097.723633 1213.431885,1093.702393 1213.139160,1088.624390 
	C1212.955688,1085.440186 1214.525513,1083.941650 1217.736816,1084.571533 
	C1222.557861,1085.517090 1225.731323,1089.801392 1225.381836,1095.333252 
z"/>
<path fill="#4D87BC" opacity="1.000000" stroke="none" 
	d="
M873.988403,1225.251953 
	C876.158325,1223.267456 877.986633,1221.313843 880.217163,1220.098511 
	C881.371521,1219.469360 883.739014,1219.586548 884.645935,1220.392944 
	C885.584534,1221.227417 885.860413,1223.368408 885.648621,1224.824951 
	C885.123047,1228.439087 880.136292,1232.216064 876.548462,1231.818970 
	C872.272766,1231.345825 872.842896,1228.497437 873.988403,1225.251953 
z"/>
<path fill="#4D87BC" opacity="1.000000" stroke="none" 
	d="
M1218.373047,902.371948 
	C1220.114014,904.044983 1221.462036,905.621826 1222.809937,907.198669 
	C1221.214478,908.425781 1219.659302,910.602356 1218.014648,910.672302 
	C1215.057861,910.798096 1211.992188,909.827393 1209.116211,908.877747 
	C1208.659180,908.726807 1208.528198,905.268494 1208.973267,905.083008 
	C1211.863403,903.878357 1214.954712,903.156006 1218.373047,902.371948 
z"/>
<path fill="#4D87BC" opacity="1.000000" stroke="none" 
	d="
M1086.342529,775.279053 
	C1086.086060,775.745850 1086.013672,775.895935 1085.918213,776.029541 
	C1083.710327,779.120972 1081.132080,781.838257 1076.963989,780.372070 
	C1075.989502,780.029236 1074.811523,776.975830 1075.269531,776.402893 
	C1077.607544,773.478882 1080.033569,770.108887 1083.235107,768.536560 
	C1086.455933,766.954712 1088.157349,770.319702 1086.342529,775.279053 
z"/>
</svg>