<svg version="1.1" id="Layer_1" xmlns="http://www.w3.org/2000/svg" xmlns:xlink="http://www.w3.org/1999/xlink" x="0px" y="0px"
	 width="100%" viewBox="0 0 2000 2000" enable-background="new 0 0 2000 2000" xml:space="preserve">
<path fill="#000000" opacity="1.000000" stroke="none" 
	d="
M1170.000000,2001.000000 
	C780.000000,2001.000000 390.500000,2001.000000 1.000000,2001.000000 
	C1.000000,1334.333374 1.000000,667.666687 1.000000,1.000000 
	C667.666687,1.000000 1334.333374,1.000000 2001.000000,1.000000 
	C2001.000000,667.666687 2001.000000,1334.333374 2001.000000,2001.000000 
	C1724.166626,2001.000000 1447.333374,2001.000000 1170.000000,2001.000000 
M925.846191,1160.028198 
	C925.846191,1160.028198 925.734497,1160.170410 925.839355,1160.903076 
	C925.853027,1161.235352 925.998779,1161.640503 925.861511,1161.889648 
	C917.430969,1177.183228 907.469177,1191.360962 894.797546,1203.460083 
	C889.351868,1208.659668 883.636414,1213.595093 877.834167,1218.397705 
	C872.005615,1223.222168 869.944702,1229.337036 873.779663,1236.148193 
	C876.775574,1241.469238 880.436035,1247.123535 885.269836,1250.569702 
	C899.597168,1260.783936 915.504639,1266.218750 933.611633,1263.122925 
	C944.720093,1261.223511 950.013245,1253.209106 947.973206,1242.143555 
	C945.711670,1229.876465 944.258484,1217.427490 943.145203,1204.995850 
	C942.623047,1199.165161 943.491943,1193.163208 944.150940,1187.285889 
	C944.906372,1180.548340 946.128235,1173.862915 947.914001,1167.126709 
	C961.275208,1170.864380 974.831116,1173.261353 989.073181,1173.773193 
	C989.971191,1174.055542 990.869202,1174.337891 991.771362,1174.621582 
	C990.802612,1180.895874 990.175537,1187.018555 988.875732,1192.995117 
	C984.745972,1211.984009 978.368469,1230.146973 968.440857,1246.974731 
	C967.175781,1249.119141 966.275879,1251.713257 966.028931,1254.181274 
	C965.185181,1262.612305 970.582275,1267.416626 977.162720,1270.667847 
	C987.456665,1275.753296 998.365540,1277.131226 1009.992126,1276.270020 
	C1020.367981,1275.501465 1029.806641,1272.902100 1038.069458,1267.004761 
	C1045.281860,1261.857056 1048.916504,1253.405151 1043.604126,1246.043823 
	C1032.823486,1231.104858 1024.744629,1214.851685 1019.220276,1197.365234 
	C1016.723877,1189.463623 1015.214233,1181.250244 1013.132263,1173.042603 
	C1013.132263,1173.042603 1012.996765,1173.167358 1013.753784,1173.139526 
	C1014.579712,1172.781860 1015.405640,1172.424072 1017.082642,1172.027710 
	C1023.837402,1170.807251 1030.678589,1169.937622 1037.329590,1168.296631 
	C1053.618286,1164.277954 1068.587402,1157.115234 1083.104492,1148.926880 
	C1091.409424,1164.590210 1093.807495,1181.688599 1094.836182,1199.013428 
	C1095.319580,1207.151855 1101.154541,1212.426636 1109.190552,1210.834839 
	C1110.312378,1210.612671 1111.402344,1210.201172 1112.530273,1210.042114 
	C1127.694336,1207.901733 1137.700562,1198.723511 1144.719482,1185.898071 
	C1146.984863,1181.758667 1144.383667,1174.068970 1140.864746,1172.149292 
	C1137.470337,1170.297607 1133.925781,1168.719971 1130.542480,1166.849609 
	C1117.394653,1159.581543 1105.058838,1151.288086 1096.354126,1138.359619 
	C1104.927979,1130.361328 1113.501831,1122.363037 1122.744385,1114.182373 
	C1129.070801,1120.612915 1136.171143,1126.458618 1141.562866,1133.595337 
	C1152.868774,1148.560425 1162.060303,1164.831299 1168.216919,1182.712769 
	C1170.670410,1189.839111 1177.841187,1193.461426 1185.035034,1192.109375 
	C1195.168091,1190.205078 1203.107178,1184.274292 1209.947754,1177.260986 
	C1219.342041,1167.629639 1225.976562,1156.117920 1227.860474,1142.512085 
	C1228.782837,1135.849976 1226.429199,1125.386230 1216.624634,1123.976807 
	C1213.587158,1123.540283 1210.488647,1123.470581 1207.479614,1122.905396 
	C1191.028198,1119.815674 1174.585938,1116.449951 1159.189331,1109.733154 
	C1151.125366,1106.215332 1143.694702,1101.246094 1136.331543,1096.354370 
	C1143.870117,1082.653320 1152.350708,1069.368286 1158.644043,1055.117310 
	C1163.526855,1044.060791 1165.678223,1031.798096 1169.860474,1020.066772 
	C1177.783936,1022.093018 1185.793701,1023.834106 1193.613037,1026.203857 
	C1210.712402,1031.385864 1226.693481,1039.076904 1241.441162,1049.148682 
	C1246.772583,1052.789673 1254.536133,1053.222534 1259.439209,1049.137573 
	C1265.508789,1044.080811 1268.971802,1037.463745 1271.113403,1029.954590 
	C1274.873657,1016.768982 1274.403076,1003.669983 1271.139526,990.471313 
	C1268.652832,980.415283 1259.971313,972.504517 1250.749268,973.140198 
	C1247.931641,973.334473 1245.197754,975.377686 1242.511963,976.744263 
	C1226.810059,984.734070 1210.620850,991.490784 1193.450073,995.596741 
	C1186.946411,997.151917 1180.278931,998.022095 1172.900269,999.345459 
	C1172.900269,994.636963 1172.900269,990.834961 1172.999512,986.100464 
	C1173.068848,981.106445 1173.138184,976.112366 1174.107544,971.121338 
	C1188.777222,970.858215 1202.913330,973.779602 1216.808716,978.209412 
	C1225.429199,980.957703 1232.663208,976.527344 1234.157104,967.779114 
	C1236.487061,954.133484 1234.116821,941.383423 1225.808838,930.306763 
	C1221.052490,923.965332 1213.458252,920.304138 1205.898926,928.189758 
	C1202.842651,931.377869 1199.733276,934.702148 1196.076782,937.089844 
	C1187.593262,942.629700 1178.761597,947.636902 1170.037231,952.073364 
	C1166.825806,942.645996 1163.943848,933.088501 1160.290283,923.835693 
	C1157.733643,917.360962 1154.122314,911.302490 1151.160889,904.339966 
	C1151.557373,903.906982 1151.871826,903.308228 1152.362427,903.065002 
	C1172.989868,892.837097 1194.708008,886.584595 1217.749878,885.129089 
	C1223.283447,884.779663 1227.690918,882.683044 1230.054688,877.175171 
	C1232.405273,871.698120 1232.666504,866.324951 1231.110840,860.533447 
	C1225.193115,838.502930 1213.235718,822.093994 1190.315552,815.560364 
	C1183.905518,813.733032 1176.403320,817.531006 1173.962769,823.623840 
	C1171.391602,830.042419 1169.259033,836.744812 1165.836304,842.690796 
	C1159.572632,853.572205 1152.766479,864.171875 1145.632446,874.506653 
	C1142.842773,878.547729 1138.559448,881.557739 1134.345703,884.766663 
	C1124.953491,876.828186 1115.561279,868.889709 1105.869385,860.295593 
	C1099.997314,856.784912 1094.125122,853.274292 1088.617554,849.229553 
	C1088.957764,848.503967 1089.130859,847.612061 1089.662964,847.077454 
	C1099.738525,836.954712 1109.473999,826.361450 1122.339233,819.635681 
	C1126.755981,817.326599 1130.094727,814.172119 1129.725708,809.405884 
	C1129.442383,805.747864 1127.693604,801.626099 1125.302124,798.809692 
	C1115.635254,787.425293 1103.586182,780.670410 1088.046997,781.890137 
	C1083.016235,782.285095 1078.077271,786.421021 1077.933960,790.494629 
	C1077.567993,800.898438 1077.743652,811.357788 1076.669800,821.687500 
	C1075.928101,828.822083 1073.465088,835.777771 1071.158325,842.466797 
	C1051.670166,834.382141 1031.178955,830.570251 1010.033630,828.477417 
	C1010.033630,826.371765 1009.902588,824.536316 1010.078491,822.730774 
	C1010.201599,821.467041 1010.932678,820.264709 1011.070740,818.999878 
	C1013.098511,800.417664 1020.458496,783.572937 1028.179932,766.880005 
	C1030.273315,762.354187 1033.487549,758.349121 1035.611572,753.834229 
	C1037.104858,750.660095 1038.996338,747.652344 1037.341064,743.336670 
	C1034.060181,734.783142 1027.239868,730.930359 1019.541260,727.974060 
	C1007.198059,723.234131 994.312683,724.030029 981.797852,726.269775 
	C975.454651,727.405029 969.112000,730.961182 963.804138,734.839478 
	C957.453613,739.479675 955.858887,747.027527 959.857727,753.368408 
	C970.686218,770.538635 979.068970,788.798401 984.463318,808.361267 
	C986.187256,814.613342 987.106995,821.087219 988.478333,827.873352 
	C971.738281,827.749878 956.576721,829.837524 941.862488,834.856995 
	C939.706970,835.592285 938.420654,834.800903 938.025208,832.160156 
	C936.519531,822.105042 933.942505,812.140808 933.292664,802.044373 
	C932.460388,789.112793 931.554749,775.846863 933.517334,763.163879 
	C935.756165,748.695435 928.445190,742.921265 916.414307,742.070374 
	C896.216919,740.642090 879.062988,748.203125 865.511841,763.019836 
	C858.368286,770.830322 854.439575,782.237854 864.882141,789.336914 
	C878.408508,798.532227 890.492981,809.325317 901.477112,821.314636 
	C907.802002,828.218323 913.277222,835.900513 919.223572,843.343201 
	C915.630493,845.558594 912.926392,847.038025 910.423401,848.802734 
	C901.194824,855.308960 891.545532,861.335510 882.966858,868.617432 
	C871.750488,878.138245 862.555298,889.679626 853.790222,901.100769 
	C848.901367,896.086487 843.447510,891.498535 839.262695,885.952942 
	C833.690063,878.568359 829.119629,870.429077 824.090759,862.631958 
	C820.422974,856.945068 817.427368,856.055847 810.706482,857.637756 
	C798.479431,860.515747 783.159668,882.239929 786.182617,898.165649 
	C787.322205,904.169678 790.928650,906.718872 797.313110,907.036743 
	C804.395569,907.389526 811.550171,907.625366 818.505920,908.857605 
	C827.367737,910.427490 836.061584,912.945496 844.996948,915.669983 
	C843.966125,918.217651 842.976624,920.782959 841.896667,923.309631 
	C838.735596,930.705017 835.538452,938.084961 832.375183,945.425293 
	C827.296265,943.286133 821.840393,941.576233 816.968811,938.829956 
	C800.057007,929.296143 783.934082,918.595947 770.824158,904.020020 
	C762.703552,894.991272 753.467102,896.374817 745.293579,904.109375 
	C737.514038,911.471069 733.018921,920.816895 730.485107,930.925293 
	C727.719788,941.957458 726.573120,953.218140 730.882874,964.297485 
	C734.616211,973.894592 741.808838,978.253906 752.217407,974.757263 
	C760.858826,971.854309 769.878540,969.941711 778.848999,968.199768 
	C785.224365,966.961731 791.929016,967.331604 798.250122,965.922607 
	C807.965210,963.757019 817.317078,965.698120 826.768311,966.447998 
	C821.330688,996.468140 820.705872,1025.856079 829.003357,1055.373657 
	C827.615417,1055.906250 826.330261,1056.708618 824.967712,1056.874146 
	C813.348267,1058.285522 801.739258,1060.296021 790.078064,1060.696655 
	C779.798706,1061.049805 769.436157,1059.784302 759.146790,1058.837646 
	C746.814392,1057.703003 741.867737,1059.559082 738.748962,1069.939941 
	C737.015015,1075.711304 737.590637,1082.381226 738.070618,1088.572998 
	C739.324951,1104.752441 746.714111,1118.163086 759.010559,1128.409668 
	C767.101807,1135.151978 777.151611,1138.503906 785.280884,1125.985718 
	C789.860229,1118.933960 795.616760,1112.565674 801.371399,1106.381226 
	C806.870972,1100.471069 812.824097,1094.922852 819.007751,1089.727173 
	C824.479187,1085.129883 830.542419,1081.237183 836.467834,1076.943970 
	C839.451782,1082.218506 841.847351,1087.004028 844.756714,1091.453613 
	C848.259216,1096.810547 852.198425,1101.881958 856.014038,1107.774902 
	C858.465332,1110.810547 860.685608,1114.074463 863.414795,1116.835449 
	C869.531616,1123.023682 875.901550,1128.961792 881.803833,1135.594116 
	C880.357239,1136.634766 878.796021,1137.548584 877.482300,1138.736206 
	C867.945740,1147.357422 856.582764,1153.210327 844.808716,1157.510132 
	C835.227234,1161.009033 834.530090,1166.474854 836.684998,1174.209961 
	C840.653931,1188.456299 857.581909,1199.801514 871.849609,1200.903320 
	C878.340698,1201.404663 883.375732,1197.227295 884.167236,1191.493774 
	C884.544128,1188.764038 884.585144,1185.961670 885.224976,1183.299561 
	C887.558044,1173.592896 889.826416,1163.856079 892.678345,1154.297363 
	C893.576355,1151.287842 896.230164,1148.802002 898.687256,1146.401855 
	C899.641663,1146.988647 900.550659,1147.671631 901.557800,1148.146484 
	C909.306030,1151.800781 917.073303,1155.414551 925.022766,1159.583618 
	C925.344604,1159.769043 925.666443,1159.954590 925.846191,1160.028198 
z"/>
<path fill="#708046" opacity="1.000000" stroke="none" 
	d="
M1082.793335,1148.288330 
	C1068.587402,1157.115234 1053.618286,1164.277954 1037.329590,1168.296631 
	C1030.678589,1169.937622 1023.837402,1170.807251 1016.297607,1171.997437 
	C1014.673950,1172.367188 1013.835327,1172.767334 1012.996765,1173.167358 
	C1012.996765,1173.167358 1013.132263,1173.042603 1012.714050,1173.037354 
	C1004.452026,1173.041626 996.608215,1173.051147 988.764404,1173.060547 
	C974.831116,1173.261353 961.275208,1170.864380 947.200684,1166.953369 
	C939.569763,1164.576904 932.652100,1162.373657 925.734497,1160.170410 
	C925.734497,1160.170410 925.846191,1160.028198 925.732788,1159.892822 
	C925.357788,1159.518677 925.096252,1159.279785 924.834656,1159.040771 
	C917.073303,1155.414551 909.306030,1151.800781 901.557800,1148.146484 
	C900.550659,1147.671631 899.641663,1146.988647 898.118164,1146.022217 
	C892.422180,1142.095581 887.295288,1138.548706 882.168396,1135.001831 
	C875.901550,1128.961792 869.531616,1123.023682 863.414795,1116.835449 
	C860.685608,1114.074463 858.465332,1110.810547 856.267944,1107.344482 
	C858.214661,1107.480835 860.036682,1107.809937 861.581116,1108.649536 
	C889.366516,1123.755859 919.175293,1131.465576 950.676025,1131.841064 
	C984.692444,1132.246704 1015.627136,1122.005371 1043.507935,1102.544922 
	C1044.932007,1101.551025 1046.190186,1100.319336 1047.680298,1099.068481 
	C1046.792603,1098.346191 1046.463745,1097.911743 1046.035278,1097.761230 
	C1044.781860,1097.320923 1043.493042,1096.977905 1042.210449,1096.624390 
	C1026.752075,1092.362671 1011.608032,1093.649170 996.487793,1098.637695 
	C984.635559,1102.547974 972.753357,1106.735229 960.557068,1109.135986 
	C947.118591,1111.781616 933.577393,1111.096191 921.970581,1101.995483 
	C916.772644,1097.919922 916.746582,1096.920532 921.667297,1092.676514 
	C935.154297,1081.044067 937.896729,1060.194336 927.771729,1045.706787 
	C927.674377,1044.649780 927.604187,1043.946289 927.609619,1042.781128 
	C928.684814,1036.288452 927.714233,1030.366821 924.115295,1025.646851 
	C919.727478,1019.892334 914.562683,1014.666870 909.312927,1009.653381 
	C905.252563,1005.775879 900.544312,1002.576782 896.561584,999.068359 
	C907.647949,999.160889 917.457092,996.210693 926.129333,990.153015 
	C935.122681,983.871033 944.045837,977.433716 952.533142,970.493835 
	C968.705078,957.270447 987.205078,950.703918 1007.848206,948.778503 
	C1021.538574,947.501465 1035.460938,946.548950 1048.276611,939.897461 
	C1048.524170,939.910950 1049.019287,939.936646 1049.293091,940.145264 
	C1062.265991,948.105042 1076.246704,948.469543 1090.478760,947.512451 
	C1103.065918,946.665955 1115.662354,945.869446 1127.944946,950.397522 
	C1125.779297,964.298767 1124.708130,978.037292 1121.221558,991.132751 
	C1111.124390,1029.055786 1091.329346,1061.341187 1062.010254,1087.629639 
	C1058.359131,1090.903320 1054.761475,1094.236450 1050.004150,1098.577637 
	C1061.924438,1101.786865 1072.088623,1106.671997 1083.519775,1105.405762 
	C1089.334351,1104.761841 1092.666504,1100.708984 1093.517700,1095.061646 
	C1094.308838,1089.811768 1094.777832,1084.487061 1094.979126,1079.179810 
	C1095.467041,1066.316406 1099.264771,1054.916870 1109.254272,1046.285156 
	C1114.789062,1041.502686 1120.576294,1037.004517 1126.357422,1032.516968 
	C1135.646240,1025.306641 1143.977295,1017.462158 1148.885010,1006.336853 
	C1158.847778,983.752686 1149.969849,959.359314 1127.960205,949.458801 
	C1129.528320,919.075745 1123.106079,891.161865 1107.162842,865.593140 
	C1106.375366,864.330322 1106.479858,862.511292 1106.169067,860.951294 
	C1115.561279,868.889709 1124.953491,876.828186 1134.783447,885.210266 
	C1140.474854,892.121948 1145.728516,898.590027 1150.982178,905.058105 
	C1154.122314,911.302490 1157.733643,917.360962 1160.290283,923.835693 
	C1163.943848,933.088501 1166.825806,942.645996 1170.131836,952.867798 
	C1171.220093,959.480957 1172.213745,965.299622 1173.207520,971.118347 
	C1173.138184,976.112366 1173.068848,981.106445 1172.773682,986.938599 
	C1171.379761,998.541626 1170.211792,1009.306580 1169.043823,1020.071533 
	C1165.678223,1031.798096 1163.526855,1044.060791 1158.644043,1055.117310 
	C1152.350708,1069.368286 1143.870117,1082.653320 1135.865234,1096.817749 
	C1130.957886,1102.975586 1126.516846,1108.670166 1122.075806,1114.364746 
	C1113.501831,1122.363037 1104.927979,1130.361328 1095.890869,1138.832520 
	C1091.216064,1142.299683 1087.004761,1145.293945 1082.793335,1148.288330 
z"/>
<path fill="#85975D" opacity="1.000000" stroke="none" 
	d="
M1106.019287,860.623413 
	C1106.479858,862.511292 1106.375366,864.330322 1107.162842,865.593140 
	C1123.106079,891.161865 1129.528320,919.075745 1127.977539,949.483765 
	C1127.985229,949.972534 1127.936157,949.941101 1127.936157,949.941101 
	C1115.662354,945.869446 1103.065918,946.665955 1090.478760,947.512451 
	C1076.246704,948.469543 1062.265991,948.105042 1049.564697,939.953247 
	C1055.701782,935.421875 1062.693848,932.258667 1066.335693,925.013794 
	C1066.772827,925.039856 1066.947876,925.049988 1067.381348,925.282227 
	C1076.454590,930.381958 1085.986816,932.339539 1095.948242,931.930664 
	C1110.191528,931.346008 1118.853027,920.169800 1115.350830,906.289795 
	C1114.091553,901.298950 1111.590942,896.211853 1108.366577,892.207642 
	C1100.602417,882.565918 1090.080444,876.857483 1077.948486,874.577209 
	C1071.751221,873.412354 1065.359619,873.027588 1059.455322,877.036743 
	C1058.831055,877.018005 1058.473999,877.008362 1057.951660,876.701782 
	C1054.573853,874.094666 1051.601562,871.306702 1048.110352,869.550964 
	C1023.818176,857.334656 997.899170,854.815369 971.281433,857.546265 
	C957.208862,858.989990 943.993774,863.381775 931.980713,871.002930 
	C932.000305,871.000244 932.033997,870.979431 931.772583,871.078674 
	C931.024048,871.447510 930.536987,871.717041 929.740479,872.101257 
	C928.248352,872.801025 927.065735,873.386169 925.767822,873.971741 
	C925.417969,873.969360 925.184387,873.982849 924.975769,874.003296 
	C924.999817,873.994080 925.050781,873.986511 924.729248,874.039062 
	C923.603271,874.399719 922.798767,874.707886 921.998535,875.002136 
	C922.002747,874.988220 922.018127,875.013489 921.635376,875.043518 
	C901.675964,880.862854 887.434814,893.382141 877.688293,910.893311 
	C874.446045,916.718567 873.163635,923.634583 870.993408,930.026001 
	C871.001648,930.000061 871.028015,929.952393 870.890869,930.192627 
	C870.509766,930.926086 870.265930,931.419312 870.006104,932.276917 
	C869.763977,934.065735 869.537842,935.490173 869.034912,937.165710 
	C866.581360,944.126465 863.386169,950.692871 862.418274,957.572632 
	C859.477112,978.479309 873.780029,996.741394 894.371582,999.017334 
	C895.189087,999.044067 895.656616,999.060059 896.124146,999.076050 
	C900.544312,1002.576782 905.252563,1005.775879 909.312927,1009.653381 
	C914.562683,1014.666870 919.727478,1019.892334 924.115295,1025.646851 
	C927.714233,1030.366821 928.684814,1036.288452 927.344849,1042.613525 
	C925.752014,1041.580688 924.439148,1040.305054 923.257141,1038.917969 
	C917.299561,1031.926147 910.175598,1026.540894 901.420166,1023.641602 
	C899.011597,1022.843933 896.269775,1023.052551 893.463074,1022.643860 
	C892.463196,1021.978088 891.681091,1021.467896 890.697998,1020.699097 
	C885.009155,1017.905029 879.743652,1014.510254 873.985229,1013.020325 
	C863.350769,1010.268738 853.887024,1014.322998 849.880066,1022.111816 
	C844.971375,1031.653442 846.960693,1044.954224 854.443604,1052.339600 
	C854.671448,1053.373413 854.815186,1054.129150 854.971375,1055.302856 
	C857.052246,1072.338501 867.204590,1083.352783 880.618286,1091.770264 
	C889.520691,1097.356934 899.230347,1100.760254 910.018311,1098.165894 
	C915.177002,1096.925293 915.382202,1096.109985 913.174500,1091.447021 
	C908.287842,1081.125488 908.503418,1071.327271 915.989319,1062.074097 
	C920.156677,1056.922974 923.877136,1051.410156 927.799011,1046.060303 
	C937.896729,1060.194336 935.154297,1081.044067 921.667297,1092.676514 
	C916.746582,1096.920532 916.772644,1097.919922 921.970581,1101.995483 
	C933.577393,1111.096191 947.118591,1111.781616 960.557068,1109.135986 
	C972.753357,1106.735229 984.635559,1102.547974 996.487793,1098.637695 
	C1011.608032,1093.649170 1026.752075,1092.362671 1042.210449,1096.624390 
	C1043.493042,1096.977905 1044.781860,1097.320923 1046.035278,1097.761230 
	C1046.463745,1097.911743 1046.792603,1098.346191 1047.680298,1099.068481 
	C1046.190186,1100.319336 1044.932007,1101.551025 1043.507935,1102.544922 
	C1015.627136,1122.005371 984.692444,1132.246704 950.676025,1131.841064 
	C919.175293,1131.465576 889.366516,1123.755859 861.581116,1108.649536 
	C860.036682,1107.809937 858.214661,1107.480835 856.235229,1106.995483 
	C852.198425,1101.881958 848.259216,1096.810547 844.756714,1091.453613 
	C841.847351,1087.004028 839.451782,1082.218506 836.467834,1076.943970 
	C830.542419,1081.237183 824.479187,1085.129883 819.007751,1089.727173 
	C812.824097,1094.922852 806.870972,1100.471069 801.371399,1106.381226 
	C795.616760,1112.565674 789.860229,1118.933960 785.280884,1125.985718 
	C777.151611,1138.503906 767.101807,1135.151978 759.010559,1128.409668 
	C746.714111,1118.163086 739.324951,1104.752441 738.070618,1088.572998 
	C737.590637,1082.381226 737.015015,1075.711304 738.748962,1069.939941 
	C741.867737,1059.559082 746.814392,1057.703003 759.146790,1058.837646 
	C769.436157,1059.784302 779.798706,1061.049805 790.078064,1060.696655 
	C801.739258,1060.296021 813.348267,1058.285522 824.967712,1056.874146 
	C826.330261,1056.708618 827.615417,1055.906250 829.003357,1055.373657 
	C820.705872,1025.856079 821.330688,996.468140 826.768311,966.447998 
	C817.317078,965.698120 807.965210,963.757019 798.250122,965.922607 
	C791.929016,967.331604 785.224365,966.961731 778.848999,968.199768 
	C769.878540,969.941711 760.858826,971.854309 752.217407,974.757263 
	C741.808838,978.253906 734.616211,973.894592 730.882874,964.297485 
	C726.573120,953.218140 727.719788,941.957458 730.485107,930.925293 
	C733.018921,920.816895 737.514038,911.471069 745.293579,904.109375 
	C753.467102,896.374817 762.703552,894.991272 770.824158,904.020020 
	C783.934082,918.595947 800.057007,929.296143 816.968811,938.829956 
	C821.840393,941.576233 827.296265,943.286133 832.375183,945.425293 
	C835.538452,938.084961 838.735596,930.705017 841.896667,923.309631 
	C842.976624,920.782959 843.966125,918.217651 845.229370,915.216675 
	C848.329712,910.414062 851.197632,906.064697 854.065491,901.715332 
	C862.555298,889.679626 871.750488,878.138245 882.966858,868.617432 
	C891.545532,861.335510 901.194824,855.308960 910.423401,848.802734 
	C912.926392,847.038025 915.630493,845.558594 919.223572,843.343201 
	C913.277222,835.900513 907.802002,828.218323 901.477112,821.314636 
	C890.492981,809.325317 878.408508,798.532227 864.882141,789.336914 
	C854.439575,782.237854 858.368286,770.830322 865.511841,763.019836 
	C879.062988,748.203125 896.216919,740.642090 916.414307,742.070374 
	C928.445190,742.921265 935.756165,748.695435 933.517334,763.163879 
	C931.554749,775.846863 932.460388,789.112793 933.292664,802.044373 
	C933.942505,812.140808 936.519531,822.105042 938.025208,832.160156 
	C938.420654,834.800903 939.706970,835.592285 941.862488,834.856995 
	C956.576721,829.837524 971.738281,827.749878 988.478333,827.873352 
	C987.106995,821.087219 986.187256,814.613342 984.463318,808.361267 
	C979.068970,788.798401 970.686218,770.538635 959.857727,753.368408 
	C955.858887,747.027527 957.453613,739.479675 963.804138,734.839478 
	C969.112000,730.961182 975.454651,727.405029 981.797852,726.269775 
	C994.312683,724.030029 1007.198059,723.234131 1019.541260,727.974060 
	C1027.239868,730.930359 1034.060181,734.783142 1037.341064,743.336670 
	C1038.996338,747.652344 1037.104858,750.660095 1035.611572,753.834229 
	C1033.487549,758.349121 1030.273315,762.354187 1028.179932,766.880005 
	C1020.458496,783.572937 1013.098511,800.417664 1011.070740,818.999878 
	C1010.932678,820.264709 1010.201599,821.467041 1010.078491,822.730774 
	C1009.902588,824.536316 1010.033630,826.371765 1010.033630,828.477417 
	C1031.178955,830.570251 1051.670166,834.382141 1071.829834,842.726318 
	C1077.751953,845.245178 1083.002441,847.504395 1088.253052,849.763672 
	C1094.125122,853.274292 1099.997314,856.784912 1106.019287,860.623413 
M1012.713196,737.581421 
	C1003.066956,733.289307 993.311707,733.197266 983.651978,737.297913 
	C979.587524,739.023376 975.894165,741.649841 976.073059,746.816040 
	C976.240112,751.638611 979.712830,754.167847 983.634644,755.878479 
	C993.132629,760.021240 1002.909851,760.186707 1012.163208,755.673218 
	C1015.332092,754.127563 1018.469482,750.480713 1019.518494,747.134644 
	C1020.867371,742.831848 1017.000183,740.011353 1012.713196,737.581421 
M754.896790,955.593140 
	C763.866394,946.396667 766.957153,935.400024 763.837769,923.066467 
	C761.683289,914.548035 754.474915,912.733887 748.396667,918.977844 
	C739.852356,927.755188 737.277893,938.526184 739.963013,950.293640 
	C741.759033,958.164734 747.111145,960.038330 754.896790,955.593140 
M768.857727,1082.703003 
	C766.642456,1080.723633 764.670959,1078.332886 762.163574,1076.846558 
	C756.141235,1073.276978 750.150085,1076.001709 749.156860,1082.932983 
	C747.406128,1095.150269 751.220459,1105.604980 760.471924,1113.857178 
	C763.444092,1116.508301 767.519470,1118.554199 770.911682,1116.082520 
	C773.472412,1114.216675 775.516235,1110.391968 776.002869,1107.169312 
	C777.326599,1098.402588 774.402527,1090.446533 768.857727,1082.703003 
M891.041931,781.763550 
	C900.443848,780.355652 908.872925,776.778748 914.387451,768.825134 
	C916.200195,766.210754 917.133301,761.505920 916.003906,758.777100 
	C915.010620,756.377319 910.709351,754.399719 907.633789,753.986389 
	C898.437866,752.750793 890.245911,755.949341 883.037170,761.639038 
	C877.208679,766.239258 874.480469,771.812012 876.454407,776.105408 
	C879.168640,782.008972 884.744507,781.982727 891.041931,781.763550 
z"/>
<path fill="#86975E" opacity="1.000000" stroke="none" 
	d="
M1122.410156,1114.273560 
	C1126.516846,1108.670166 1130.957886,1102.975586 1135.688477,1097.106812 
	C1143.694702,1101.246094 1151.125366,1106.215332 1159.189331,1109.733154 
	C1174.585938,1116.449951 1191.028198,1119.815674 1207.479614,1122.905396 
	C1210.488647,1123.470581 1213.587158,1123.540283 1216.624634,1123.976807 
	C1226.429199,1125.386230 1228.782837,1135.849976 1227.860474,1142.512085 
	C1225.976562,1156.117920 1219.342041,1167.629639 1209.947754,1177.260986 
	C1203.107178,1184.274292 1195.168091,1190.205078 1185.035034,1192.109375 
	C1177.841187,1193.461426 1170.670410,1189.839111 1168.216919,1182.712769 
	C1162.060303,1164.831299 1152.868774,1148.560425 1141.562866,1133.595337 
	C1136.171143,1126.458618 1129.070801,1120.612915 1122.410156,1114.273560 
M1214.065063,1148.480835 
	C1213.518677,1141.018066 1210.292358,1138.071533 1203.783569,1139.090942 
	C1192.247803,1140.897461 1179.636353,1157.541382 1181.016357,1169.137695 
	C1181.576294,1173.841553 1184.237427,1176.448364 1189.027832,1176.144165 
	C1191.763062,1175.970337 1194.770752,1175.334839 1197.073730,1173.943726 
	C1206.354370,1168.336914 1212.465454,1160.343140 1214.065063,1148.480835 
z"/>
<path fill="#86975E" opacity="1.000000" stroke="none" 
	d="
M988.918823,1173.416870 
	C996.608215,1173.051147 1004.452026,1173.041626 1012.776367,1173.105225 
	C1015.214233,1181.250244 1016.723877,1189.463623 1019.220276,1197.365234 
	C1024.744629,1214.851685 1032.823486,1231.104858 1043.604126,1246.043823 
	C1048.916504,1253.405151 1045.281860,1261.857056 1038.069458,1267.004761 
	C1029.806641,1272.902100 1020.367981,1275.501465 1009.992126,1276.270020 
	C998.365540,1277.131226 987.456665,1275.753296 977.162720,1270.667847 
	C970.582275,1267.416626 965.185181,1262.612305 966.028931,1254.181274 
	C966.275879,1251.713257 967.175781,1249.119141 968.440857,1246.974731 
	C978.368469,1230.146973 984.745972,1211.984009 988.875732,1192.995117 
	C990.175537,1187.018555 990.802612,1180.895874 991.771362,1174.621582 
	C990.869202,1174.337891 989.971191,1174.055542 988.918823,1173.416870 
M1009.151306,1242.235718 
	C1001.691040,1241.998047 994.495239,1243.011597 988.270874,1247.480103 
	C982.661072,1251.507446 982.471436,1257.575073 987.599915,1261.730957 
	C996.189819,1268.691895 1016.001648,1268.156372 1024.151001,1260.742798 
	C1029.174683,1256.172607 1029.241943,1250.510742 1023.458618,1247.052979 
	C1019.461060,1244.663086 1014.528015,1243.837769 1009.151306,1242.235718 
z"/>
<path fill="#86975E" opacity="1.000000" stroke="none" 
	d="
M1169.452148,1020.069153 
	C1170.211792,1009.306580 1171.379761,998.541626 1172.724121,987.404785 
	C1172.900269,990.834961 1172.900269,994.636963 1172.900269,999.345459 
	C1180.278931,998.022095 1186.946411,997.151917 1193.450073,995.596741 
	C1210.620850,991.490784 1226.810059,984.734070 1242.511963,976.744263 
	C1245.197754,975.377686 1247.931641,973.334473 1250.749268,973.140198 
	C1259.971313,972.504517 1268.652832,980.415283 1271.139526,990.471313 
	C1274.403076,1003.669983 1274.873657,1016.768982 1271.113403,1029.954590 
	C1268.971802,1037.463745 1265.508789,1044.080811 1259.439209,1049.137573 
	C1254.536133,1053.222534 1246.772583,1052.789673 1241.441162,1049.148682 
	C1226.693481,1039.076904 1210.712402,1031.385864 1193.613037,1026.203857 
	C1185.793701,1023.834106 1177.783936,1022.093018 1169.452148,1020.069153 
M1258.970703,1029.338379 
	C1264.863037,1018.958984 1265.843872,1008.124756 1260.650757,997.371033 
	C1259.295654,994.564941 1255.673096,991.957397 1252.583252,991.106750 
	C1248.484985,989.978516 1245.424561,993.235107 1243.560303,996.790100 
	C1238.313110,1006.795898 1237.618408,1017.190247 1242.205566,1027.557007 
	C1245.858398,1035.812256 1252.255615,1036.579834 1258.970703,1029.338379 
z"/>
<path fill="#86975E" opacity="1.000000" stroke="none" 
	d="
M925.786926,1160.536743 
	C932.652100,1162.373657 939.569763,1164.576904 946.817383,1166.967529 
	C946.128235,1173.862915 944.906372,1180.548340 944.150940,1187.285889 
	C943.491943,1193.163208 942.623047,1199.165161 943.145203,1204.995850 
	C944.258484,1217.427490 945.711670,1229.876465 947.973206,1242.143555 
	C950.013245,1253.209106 944.720093,1261.223511 933.611633,1263.122925 
	C915.504639,1266.218750 899.597168,1260.783936 885.269836,1250.569702 
	C880.436035,1247.123535 876.775574,1241.469238 873.779663,1236.148193 
	C869.944702,1229.337036 872.005615,1223.222168 877.834167,1218.397705 
	C883.636414,1213.595093 889.351868,1208.659668 894.797546,1203.460083 
	C907.469177,1191.360962 917.430969,1177.183228 925.861511,1161.889648 
	C925.998779,1161.640503 925.853027,1161.235352 925.786926,1160.536743 
M899.988770,1247.655029 
	C907.675110,1251.726807 915.679138,1254.326172 924.423889,1251.884766 
	C931.017517,1250.043945 933.056641,1244.513184 929.634583,1238.598999 
	C924.054321,1228.954834 905.255432,1222.372559 895.090759,1226.503784 
	C889.583130,1228.742432 887.468323,1233.616211 890.709595,1238.539062 
	C892.918457,1241.893799 896.426392,1244.393188 899.988770,1247.655029 
z"/>
<path fill="#86975E" opacity="1.000000" stroke="none" 
	d="
M1151.071533,904.699036 
	C1145.728516,898.590027 1140.474854,892.121948 1135.088867,885.345581 
	C1138.559448,881.557739 1142.842773,878.547729 1145.632446,874.506653 
	C1152.766479,864.171875 1159.572632,853.572205 1165.836304,842.690796 
	C1169.259033,836.744812 1171.391602,830.042419 1173.962769,823.623840 
	C1176.403320,817.531006 1183.905518,813.733032 1190.315552,815.560364 
	C1213.235718,822.093994 1225.193115,838.502930 1231.110840,860.533447 
	C1232.666504,866.324951 1232.405273,871.698120 1230.054688,877.175171 
	C1227.690918,882.683044 1223.283447,884.779663 1217.749878,885.129089 
	C1194.708008,886.584595 1172.989868,892.837097 1152.362427,903.065002 
	C1151.871826,903.308228 1151.557373,903.906982 1151.071533,904.699036 
M1194.491455,830.961731 
	C1188.586060,831.737000 1186.265625,834.212769 1186.062500,839.955017 
	C1185.682495,850.699036 1196.571167,865.555298 1206.988892,868.506409 
	C1214.063965,870.510681 1218.860840,866.833435 1218.787231,859.462158 
	C1218.666992,847.431702 1207.234985,833.571777 1194.491455,830.961731 
z"/>
<path fill="#6A7749" opacity="1.000000" stroke="none" 
	d="
M853.927856,901.408081 
	C851.197632,906.064697 848.329712,910.414062 845.144836,914.909119 
	C836.061584,912.945496 827.367737,910.427490 818.505920,908.857605 
	C811.550171,907.625366 804.395569,907.389526 797.313110,907.036743 
	C790.928650,906.718872 787.322205,904.169678 786.182617,898.165649 
	C783.159668,882.239929 798.479431,860.515747 810.706482,857.637756 
	C817.427368,856.055847 820.422974,856.945068 824.090759,862.631958 
	C829.119629,870.429077 833.690063,878.568359 839.262695,885.952942 
	C843.447510,891.498535 848.901367,896.086487 853.927856,901.408081 
z"/>
<path fill="#6A7749" opacity="1.000000" stroke="none" 
	d="
M1082.948975,1148.607666 
	C1087.004761,1145.293945 1091.216064,1142.299683 1095.718506,1139.122559 
	C1105.058838,1151.288086 1117.394653,1159.581543 1130.542480,1166.849609 
	C1133.925781,1168.719971 1137.470337,1170.297607 1140.864746,1172.149292 
	C1144.383667,1174.068970 1146.984863,1181.758667 1144.719482,1185.898071 
	C1137.700562,1198.723511 1127.694336,1207.901733 1112.530273,1210.042114 
	C1111.402344,1210.201172 1110.312378,1210.612671 1109.190552,1210.834839 
	C1101.154541,1212.426636 1095.319580,1207.151855 1094.836182,1199.013428 
	C1093.807495,1181.688599 1091.409424,1164.590210 1082.948975,1148.607666 
M1130.369995,1180.779663 
	C1121.482788,1178.732666 1110.851440,1184.011475 1107.238525,1192.265137 
	C1105.267090,1196.768555 1107.158447,1200.171265 1112.044434,1200.911621 
	C1119.667358,1202.066650 1129.880615,1196.286133 1132.834717,1189.171753 
	C1134.124390,1186.065796 1133.827026,1183.350098 1130.369995,1180.779663 
z"/>
<path fill="#6A7749" opacity="1.000000" stroke="none" 
	d="
M1088.435303,849.496582 
	C1083.002441,847.504395 1077.751953,845.245178 1072.136230,842.899658 
	C1073.465088,835.777771 1075.928101,828.822083 1076.669800,821.687500 
	C1077.743652,811.357788 1077.567993,800.898438 1077.933960,790.494629 
	C1078.077271,786.421021 1083.016235,782.285095 1088.046997,781.890137 
	C1103.586182,780.670410 1115.635254,787.425293 1125.302124,798.809692 
	C1127.693604,801.626099 1129.442383,805.747864 1129.725708,809.405884 
	C1130.094727,814.172119 1126.755981,817.326599 1122.339233,819.635681 
	C1109.473999,826.361450 1099.738525,836.954712 1089.662964,847.077454 
	C1089.130859,847.612061 1088.957764,848.503967 1088.435303,849.496582 
M1110.346680,795.047729 
	C1105.485596,793.706177 1100.676758,791.558777 1095.749390,791.239380 
	C1090.327515,790.887878 1088.335449,795.173523 1090.744873,800.193420 
	C1094.018311,807.013000 1105.545288,812.518982 1112.832397,810.743652 
	C1116.933594,809.744507 1118.758179,806.577820 1116.751953,802.839600 
	C1115.298096,800.130554 1112.892456,797.932312 1110.346680,795.047729 
z"/>
<path fill="#6A7749" opacity="1.000000" stroke="none" 
	d="
M881.986084,1135.297974 
	C887.295288,1138.548706 892.422180,1142.095581 897.814697,1145.859497 
	C896.230164,1148.802002 893.576355,1151.287842 892.678345,1154.297363 
	C889.826416,1163.856079 887.558044,1173.592896 885.224976,1183.299561 
	C884.585144,1185.961670 884.544128,1188.764038 884.167236,1191.493774 
	C883.375732,1197.227295 878.340698,1201.404663 871.849609,1200.903320 
	C857.581909,1199.801514 840.653931,1188.456299 836.684998,1174.209961 
	C834.530090,1166.474854 835.227234,1161.009033 844.808716,1157.510132 
	C856.582764,1153.210327 867.945740,1147.357422 877.482300,1138.736206 
	C878.796021,1137.548584 880.357239,1136.634766 881.986084,1135.297974 
M862.409546,1170.932373 
	C860.101562,1170.041626 857.824768,1168.549194 855.476868,1168.427368 
	C853.071533,1168.302612 849.483582,1168.775024 848.436584,1170.339966 
	C847.155457,1172.254761 846.967834,1176.117310 848.076904,1178.191406 
	C851.643494,1184.861816 857.115295,1189.716431 865.003601,1190.732910 
	C871.162659,1191.526611 874.823669,1186.696045 871.756714,1181.309204 
	C869.614746,1177.547119 865.994263,1174.626831 862.409546,1170.932373 
z"/>
<path fill="#6A7749" opacity="1.000000" stroke="none" 
	d="
M1173.657471,971.119873 
	C1172.213745,965.299622 1171.220093,959.480957 1170.148682,953.261169 
	C1178.761597,947.636902 1187.593262,942.629700 1196.076782,937.089844 
	C1199.733276,934.702148 1202.842651,931.377869 1205.898926,928.189758 
	C1213.458252,920.304138 1221.052490,923.965332 1225.808838,930.306763 
	C1234.116821,941.383423 1236.487061,954.133484 1234.157104,967.779114 
	C1232.663208,976.527344 1225.429199,980.957703 1216.808716,978.209412 
	C1202.913330,973.779602 1188.777222,970.858215 1173.657471,971.119873 
M1224.381104,943.310913 
	C1223.012085,941.672119 1221.902954,939.669250 1220.221069,938.469055 
	C1216.531128,935.836182 1212.095825,937.073242 1210.966064,941.256409 
	C1208.839355,949.130066 1209.236450,956.904663 1215.008301,963.277344 
	C1216.552856,964.982727 1219.930054,966.721741 1221.669067,966.124573 
	C1223.797119,965.393860 1226.423340,962.253967 1226.475342,960.098755 
	C1226.604492,954.751831 1225.392456,949.372620 1224.381104,943.310913 
z"/>
<path fill="#86975E" opacity="1.000000" stroke="none" 
	d="
M1013.375244,1173.153442 
	C1013.835327,1172.767334 1014.673950,1172.367188 1015.872009,1172.016724 
	C1015.405640,1172.424072 1014.579712,1172.781860 1013.375244,1173.153442 
z"/>
<path fill="#86975E" opacity="1.000000" stroke="none" 
	d="
M924.928711,1159.312256 
	C925.096252,1159.279785 925.357788,1159.518677 925.803833,1159.948730 
	C925.666443,1159.954590 925.344604,1159.769043 924.928711,1159.312256 
z"/>
<path fill="#8B9765" opacity="1.000000" stroke="none" 
	d="
M869.311646,936.914612 
	C869.537842,935.490173 869.763977,934.065735 870.152100,932.044678 
	C870.552002,930.949524 870.790039,930.450928 871.028015,929.952393 
	C871.028015,929.952393 871.001648,930.000061 871.220459,929.773926 
	C884.203064,909.344666 899.892395,891.875183 919.464294,878.007141 
	C920.501709,877.271973 921.175232,876.023193 922.018188,875.013489 
	C922.018127,875.013489 922.002747,874.988220 922.322876,874.968506 
	C923.445679,874.628052 924.248230,874.307312 925.050781,873.986572 
	C925.050781,873.986511 924.999817,873.994080 925.208618,873.991699 
	C925.417480,873.989319 925.883118,873.971313 925.883118,873.971313 
	C927.065735,873.386169 928.248352,872.801025 929.995850,871.992188 
	C931.051758,871.505493 931.542908,871.242432 932.033997,870.979431 
	C932.033997,870.979431 932.000305,871.000244 932.452271,871.011963 
	C935.401794,870.998108 937.905212,871.075439 940.395813,870.931091 
	C972.635986,869.063110 997.738953,882.332947 1017.648438,906.988220 
	C1027.036743,918.614380 1035.496948,931.143311 1048.029175,939.884033 
	C1035.460938,946.548950 1021.538574,947.501465 1007.848206,948.778503 
	C987.205078,950.703918 968.705078,957.270447 952.533142,970.493835 
	C944.045837,977.433716 935.122681,983.871033 926.129333,990.153015 
	C917.457092,996.210693 907.647949,999.160889 896.561584,999.068359 
	C895.656616,999.060059 895.189087,999.044067 894.183472,998.740906 
	C892.526245,997.232422 891.461548,995.955505 890.279785,994.798157 
	C874.008362,978.861572 867.927490,959.242249 869.311646,936.914612 
z"/>
<path fill="#9FAD7A" opacity="1.000000" stroke="none" 
	d="
M1048.276611,939.897461 
	C1035.496948,931.143311 1027.036743,918.614380 1017.648438,906.988220 
	C997.738953,882.332947 972.635986,869.063110 940.395813,870.931091 
	C937.905212,871.075439 935.401794,870.998108 932.432678,871.014648 
	C943.993774,863.381775 957.208862,858.989990 971.281433,857.546265 
	C997.899170,854.815369 1023.818176,857.334656 1048.110352,869.550964 
	C1051.601562,871.306702 1054.573853,874.094666 1057.630371,876.848145 
	C1043.432129,885.380859 1039.103760,901.276733 1048.861572,911.923096 
	C1053.651855,917.149536 1060.278320,920.692871 1066.073853,924.997925 
	C1062.693848,932.258667 1055.701782,935.421875 1049.290894,939.744568 
	C1049.019287,939.936646 1048.524170,939.910950 1048.276611,939.897461 
z"/>
<path fill="#5E6D32" opacity="1.000000" stroke="none" 
	d="
M1127.967896,949.947510 
	C1149.969849,959.359314 1158.847778,983.752686 1148.885010,1006.336853 
	C1143.977295,1017.462158 1135.646240,1025.306641 1126.357422,1032.516968 
	C1120.576294,1037.004517 1114.789062,1041.502686 1109.254272,1046.285156 
	C1099.264771,1054.916870 1095.467041,1066.316406 1094.979126,1079.179810 
	C1094.777832,1084.487061 1094.308838,1089.811768 1093.517700,1095.061646 
	C1092.666504,1100.708984 1089.334351,1104.761841 1083.519775,1105.405762 
	C1072.088623,1106.671997 1061.924438,1101.786865 1050.004150,1098.577637 
	C1054.761475,1094.236450 1058.359131,1090.903320 1062.010254,1087.629639 
	C1091.329346,1061.341187 1111.124390,1029.055786 1121.221558,991.132751 
	C1124.708130,978.037292 1125.779297,964.298767 1127.944946,950.397522 
	C1127.936157,949.941101 1127.985229,949.972534 1127.967896,949.947510 
z"/>
<path fill="#9FAD7A" opacity="1.000000" stroke="none" 
	d="
M893.680908,1022.799438 
	C896.269775,1023.052551 899.011597,1022.843933 901.420166,1023.641602 
	C910.175598,1026.540894 917.299561,1031.926147 923.257141,1038.917969 
	C924.439148,1040.305054 925.752014,1041.580688 927.269287,1043.075317 
	C927.604187,1043.946289 927.674377,1044.649780 927.771729,1045.706787 
	C923.877136,1051.410156 920.156677,1056.922974 915.989319,1062.074097 
	C908.503418,1071.327271 908.287842,1081.125488 913.174500,1091.447021 
	C915.382202,1096.109985 915.177002,1096.925293 910.018311,1098.165894 
	C899.230347,1100.760254 889.520691,1097.356934 880.618286,1091.770264 
	C867.204590,1083.352783 857.052246,1072.338501 855.244019,1055.511841 
	C858.844299,1058.047363 861.944153,1061.170532 865.567078,1063.469604 
	C879.582214,1072.363403 896.618286,1065.547729 900.821106,1049.559570 
	C903.521118,1039.288330 900.550232,1030.521729 893.680908,1022.799438 
z"/>
<path fill="#708046" opacity="1.000000" stroke="none" 
	d="
M1059.722534,877.045837 
	C1065.359619,873.027588 1071.751221,873.412354 1077.948486,874.577209 
	C1090.080444,876.857483 1100.602417,882.565918 1108.366577,892.207642 
	C1111.590942,896.211853 1114.091553,901.298950 1115.350830,906.289795 
	C1118.853027,920.169800 1110.191528,931.346008 1095.948242,931.930664 
	C1085.986816,932.339539 1076.454590,930.381958 1067.609619,925.036499 
	C1073.651123,916.276978 1075.158325,907.210999 1072.575806,897.274597 
	C1070.450684,889.098267 1065.789429,882.655334 1059.722534,877.045837 
z"/>
<path fill="#8B9765" opacity="1.000000" stroke="none" 
	d="
M893.463074,1022.643860 
	C900.550232,1030.521729 903.521118,1039.288330 900.821106,1049.559570 
	C896.618286,1065.547729 879.582214,1072.363403 865.567078,1063.469604 
	C861.944153,1061.170532 858.844299,1058.047363 855.231567,1055.093750 
	C854.815186,1054.129150 854.671448,1053.373413 854.465454,1051.938477 
	C854.919983,1039.932739 859.864868,1031.260864 869.773804,1025.538208 
	C876.332336,1021.750610 883.449524,1020.603516 890.899048,1020.957642 
	C891.681091,1021.467896 892.463196,1021.978088 893.463074,1022.643860 
z"/>
<path fill="#8B9765" opacity="1.000000" stroke="none" 
	d="
M1059.455322,877.036743 
	C1065.789429,882.655334 1070.450684,889.098267 1072.575806,897.274597 
	C1075.158325,907.210999 1073.651123,916.276978 1067.351318,924.814453 
	C1066.947876,925.049988 1066.772827,925.039856 1066.335693,925.013794 
	C1060.278320,920.692871 1053.651855,917.149536 1048.861572,911.923096 
	C1039.103760,901.276733 1043.432129,885.380859 1057.795654,877.145142 
	C1058.473999,877.008362 1058.831055,877.018005 1059.455322,877.036743 
z"/>
<path fill="#58633B" opacity="1.000000" stroke="none" 
	d="
M1013.046265,737.759521 
	C1017.000183,740.011353 1020.867371,742.831848 1019.518494,747.134644 
	C1018.469482,750.480713 1015.332092,754.127563 1012.163208,755.673218 
	C1002.909851,760.186707 993.132629,760.021240 983.634644,755.878479 
	C979.712830,754.167847 976.240112,751.638611 976.073059,746.816040 
	C975.894165,741.649841 979.587524,739.023376 983.651978,737.297913 
	C993.311707,733.197266 1003.066956,733.289307 1013.046265,737.759521 
z"/>
<path fill="#58633B" opacity="1.000000" stroke="none" 
	d="
M754.600098,955.825439 
	C747.111145,960.038330 741.759033,958.164734 739.963013,950.293640 
	C737.277893,938.526184 739.852356,927.755188 748.396667,918.977844 
	C754.474915,912.733887 761.683289,914.548035 763.837769,923.066467 
	C766.957153,935.400024 763.866394,946.396667 754.600098,955.825439 
z"/>
<path fill="#58633B" opacity="1.000000" stroke="none" 
	d="
M769.071960,1082.996460 
	C774.402527,1090.446533 777.326599,1098.402588 776.002869,1107.169312 
	C775.516235,1110.391968 773.472412,1114.216675 770.911682,1116.082520 
	C767.519470,1118.554199 763.444092,1116.508301 760.471924,1113.857178 
	C751.220459,1105.604980 747.406128,1095.150269 749.156860,1082.932983 
	C750.150085,1076.001709 756.141235,1073.276978 762.163574,1076.846558 
	C764.670959,1078.332886 766.642456,1080.723633 769.071960,1082.996460 
z"/>
<path fill="#58633B" opacity="1.000000" stroke="none" 
	d="
M890.614685,781.811646 
	C884.744507,781.982727 879.168640,782.008972 876.454407,776.105408 
	C874.480469,771.812012 877.208679,766.239258 883.037170,761.639038 
	C890.245911,755.949341 898.437866,752.750793 907.633789,753.986389 
	C910.709351,754.399719 915.010620,756.377319 916.003906,758.777100 
	C917.133301,761.505920 916.200195,766.210754 914.387451,768.825134 
	C908.872925,776.778748 900.443848,780.355652 890.614685,781.811646 
z"/>
<path fill="#708046" opacity="1.000000" stroke="none" 
	d="
M890.697998,1020.699097 
	C883.449524,1020.603516 876.332336,1021.750610 869.773804,1025.538208 
	C859.864868,1031.260864 854.919983,1039.932739 854.381348,1051.660278 
	C846.960693,1044.954224 844.971375,1031.653442 849.880066,1022.111816 
	C853.887024,1014.322998 863.350769,1010.268738 873.985229,1013.020325 
	C879.743652,1014.510254 885.009155,1017.905029 890.697998,1020.699097 
z"/>
<path fill="#9FAD7A" opacity="1.000000" stroke="none" 
	d="
M869.034912,937.165710 
	C867.927490,959.242249 874.008362,978.861572 890.279785,994.798157 
	C891.461548,995.955505 892.526245,997.232422 893.833435,998.730225 
	C873.780029,996.741394 859.477112,978.479309 862.418274,957.572632 
	C863.386169,950.692871 866.581360,944.126465 869.034912,937.165710 
z"/>
<path fill="#708046" opacity="1.000000" stroke="none" 
	d="
M921.635376,875.043518 
	C921.175232,876.023193 920.501709,877.271973 919.464294,878.007141 
	C899.892395,891.875183 884.203064,909.344666 871.212280,929.799866 
	C873.163635,923.634583 874.446045,916.718567 877.688293,910.893311 
	C887.434814,893.382141 901.675964,880.862854 921.635376,875.043518 
z"/>
<path fill="#708046" opacity="1.000000" stroke="none" 
	d="
M924.729248,874.039062 
	C924.248230,874.307312 923.445679,874.628052 922.318726,874.982422 
	C922.798767,874.707886 923.603271,874.399719 924.729248,874.039062 
z"/>
<path fill="#708046" opacity="1.000000" stroke="none" 
	d="
M870.890869,930.192627 
	C870.790039,930.450928 870.552002,930.949524 870.168091,931.680298 
	C870.265930,931.419312 870.509766,930.926086 870.890869,930.192627 
z"/>
<path fill="#9FAD7A" opacity="1.000000" stroke="none" 
	d="
M931.772583,871.078674 
	C931.542908,871.242432 931.051758,871.505493 930.305298,871.877563 
	C930.536987,871.717041 931.024048,871.447510 931.772583,871.078674 
z"/>
<path fill="#708046" opacity="1.000000" stroke="none" 
	d="
M925.767822,873.971741 
	C925.883118,873.971313 925.417480,873.989319 925.184570,874.000916 
	C925.184387,873.982849 925.417969,873.969360 925.767822,873.971741 
z"/>
<path fill="#58633B" opacity="1.000000" stroke="none" 
	d="
M1214.048828,1148.902344 
	C1212.465454,1160.343140 1206.354370,1168.336914 1197.073730,1173.943726 
	C1194.770752,1175.334839 1191.763062,1175.970337 1189.027832,1176.144165 
	C1184.237427,1176.448364 1181.576294,1173.841553 1181.016357,1169.137695 
	C1179.636353,1157.541382 1192.247803,1140.897461 1203.783569,1139.090942 
	C1210.292358,1138.071533 1213.518677,1141.018066 1214.048828,1148.902344 
z"/>
<path fill="#58633B" opacity="1.000000" stroke="none" 
	d="
M1009.582153,1242.274536 
	C1014.528015,1243.837769 1019.461060,1244.663086 1023.458618,1247.052979 
	C1029.241943,1250.510742 1029.174683,1256.172607 1024.151001,1260.742798 
	C1016.001648,1268.156372 996.189819,1268.691895 987.599915,1261.730957 
	C982.471436,1257.575073 982.661072,1251.507446 988.270874,1247.480103 
	C994.495239,1243.011597 1001.691040,1241.998047 1009.582153,1242.274536 
z"/>
<path fill="#58633B" opacity="1.000000" stroke="none" 
	d="
M1258.758789,1029.639648 
	C1252.255615,1036.579834 1245.858398,1035.812256 1242.205566,1027.557007 
	C1237.618408,1017.190247 1238.313110,1006.795898 1243.560303,996.790100 
	C1245.424561,993.235107 1248.484985,989.978516 1252.583252,991.106750 
	C1255.673096,991.957397 1259.295654,994.564941 1260.650757,997.371033 
	C1265.843872,1008.124756 1264.863037,1018.958984 1258.758789,1029.639648 
z"/>
<path fill="#58633B" opacity="1.000000" stroke="none" 
	d="
M899.671143,1247.465088 
	C896.426392,1244.393188 892.918457,1241.893799 890.709595,1238.539062 
	C887.468323,1233.616211 889.583130,1228.742432 895.090759,1226.503784 
	C905.255432,1222.372559 924.054321,1228.954834 929.634583,1238.598999 
	C933.056641,1244.513184 931.017517,1250.043945 924.423889,1251.884766 
	C915.679138,1254.326172 907.675110,1251.726807 899.671143,1247.465088 
z"/>
<path fill="#58633B" opacity="1.000000" stroke="none" 
	d="
M1194.898926,830.978210 
	C1207.234985,833.571777 1218.666992,847.431702 1218.787231,859.462158 
	C1218.860840,866.833435 1214.063965,870.510681 1206.988892,868.506409 
	C1196.571167,865.555298 1185.682495,850.699036 1186.062500,839.955017 
	C1186.265625,834.212769 1188.586060,831.737000 1194.898926,830.978210 
z"/>
<path fill="#58633B" opacity="1.000000" stroke="none" 
	d="
M1130.706299,1180.976929 
	C1133.827026,1183.350098 1134.124390,1186.065796 1132.834717,1189.171753 
	C1129.880615,1196.286133 1119.667358,1202.066650 1112.044434,1200.911621 
	C1107.158447,1200.171265 1105.267090,1196.768555 1107.238525,1192.265137 
	C1110.851440,1184.011475 1121.482788,1178.732666 1130.706299,1180.976929 
z"/>
<path fill="#58633B" opacity="1.000000" stroke="none" 
	d="
M1110.628906,795.276978 
	C1112.892456,797.932312 1115.298096,800.130554 1116.751953,802.839600 
	C1118.758179,806.577820 1116.933594,809.744507 1112.832397,810.743652 
	C1105.545288,812.518982 1094.018311,807.013000 1090.744873,800.193420 
	C1088.335449,795.173523 1090.327515,790.887878 1095.749390,791.239380 
	C1100.676758,791.558777 1105.485596,793.706177 1110.628906,795.276978 
z"/>
<path fill="#58633B" opacity="1.000000" stroke="none" 
	d="
M862.721863,1171.131470 
	C865.994263,1174.626831 869.614746,1177.547119 871.756714,1181.309204 
	C874.823669,1186.696045 871.162659,1191.526611 865.003601,1190.732910 
	C857.115295,1189.716431 851.643494,1184.861816 848.076904,1178.191406 
	C846.967834,1176.117310 847.155457,1172.254761 848.436584,1170.339966 
	C849.483582,1168.775024 853.071533,1168.302612 855.476868,1168.427368 
	C857.824768,1168.549194 860.101562,1170.041626 862.721863,1171.131470 
z"/>
<path fill="#58633B" opacity="1.000000" stroke="none" 
	d="
M1224.550171,943.658630 
	C1225.392456,949.372620 1226.604492,954.751831 1226.475342,960.098755 
	C1226.423340,962.253967 1223.797119,965.393860 1221.669067,966.124573 
	C1219.930054,966.721741 1216.552856,964.982727 1215.008301,963.277344 
	C1209.236450,956.904663 1208.839355,949.130066 1210.966064,941.256409 
	C1212.095825,937.073242 1216.531128,935.836182 1220.221069,938.469055 
	C1221.902954,939.669250 1223.012085,941.672119 1224.550171,943.658630 
z"/>
</svg>