<svg version="1.1" id="Layer_1" xmlns="http://www.w3.org/2000/svg" xmlns:xlink="http://www.w3.org/1999/xlink" x="0px" y="0px"
	 width="100%" viewBox="0 0 650 650" enable-background="new 0 0 650 650" xml:space="preserve">
<path fill="#000000" opacity="1.000000" stroke="none" 
	d="
M365.000000,651.000000 
	C243.333359,651.000000 122.166710,651.000000 1.000049,651.000000 
	C1.000033,434.333405 1.000033,217.666794 1.000016,1.000136 
	C217.666565,1.000091 434.333130,1.000091 650.999756,1.000045 
	C650.999878,217.666519 650.999878,434.333038 650.999939,650.999756 
	C555.833313,651.000000 460.666656,651.000000 365.000000,651.000000 
M221.846939,471.078644 
	C231.592911,476.042786 241.338898,481.006897 250.771484,486.618713 
	C238.942276,508.668579 223.359375,527.603271 203.530518,542.902649 
	C194.558807,549.825012 196.162247,558.816040 200.327942,565.065308 
	C208.463425,577.270020 220.625443,583.240417 234.081070,587.003662 
	C244.379669,589.883972 254.840195,590.505188 264.988525,586.011536 
	C271.906891,582.948120 274.427856,577.556274 273.072052,570.176880 
	C271.537689,561.825623 269.395813,553.430054 269.218872,545.017883 
	C268.847504,527.361511 267.557190,509.561432 272.852173,492.414093 
	C281.523865,493.964386 290.175598,495.640442 298.874390,497.019989 
	C304.520142,497.915375 310.234497,498.378204 315.984100,499.933716 
	C315.655823,503.366302 315.441498,506.814301 314.980621,510.229004 
	C312.111847,531.484192 304.986572,551.310608 294.423859,569.893311 
	C288.513672,580.290894 290.115906,586.157837 296.964386,592.233032 
	C299.810211,594.757507 303.522614,596.596252 307.145966,597.897827 
	C317.441528,601.596436 327.991211,603.087280 338.996124,601.142822 
	C348.272797,599.503662 357.115326,597.113281 364.496490,590.963623 
	C370.586029,585.890015 372.771851,578.074402 369.245941,572.759216 
	C359.997223,558.817200 351.397186,544.495422 346.125397,528.565491 
	C342.827271,518.599426 340.761871,508.225372 338.973511,498.003906 
	C342.068817,497.614044 345.200775,497.409119 348.253479,496.804199 
	C367.914307,492.908203 386.505188,486.174194 403.728455,475.795898 
	C405.237488,474.886627 407.171631,474.682770 408.970734,474.878204 
	C415.969391,489.989807 419.427216,505.958466 419.902893,522.522949 
	C420.169250,531.797363 424.293762,536.859985 433.477142,535.843384 
	C449.480469,534.071960 462.172089,526.648926 469.181824,511.432037 
	C471.519165,506.358093 469.608429,500.117065 465.194550,497.670227 
	C462.081909,495.944733 458.785431,494.548767 455.686310,492.801239 
	C442.589752,485.416595 430.653900,476.564392 421.121735,464.254181 
	C429.768494,455.962036 438.415253,447.669891 447.730469,439.187683 
	C453.049255,444.549042 458.784424,449.563080 463.604156,455.340759 
	C475.281250,469.338898 484.102112,485.081055 491.074493,501.939331 
	C493.001953,506.599731 495.443634,511.799255 499.209656,514.780273 
	C505.685272,519.906067 513.251587,516.969727 519.650757,513.635864 
	C537.963318,504.095184 548.777893,488.596802 552.862549,468.557556 
	C555.163513,457.269104 549.022827,449.889282 537.617554,448.975372 
	C534.681885,448.740143 531.725464,448.448120 528.848511,447.847504 
	C511.701263,444.267700 494.482605,440.781860 478.715576,432.751404 
	C472.560364,429.616425 466.873108,425.562561 461.324158,421.347931 
	C470.999786,408.152374 478.669098,393.775970 484.512054,378.593933 
	C488.542755,368.120605 490.921265,357.011383 494.903839,346.034546 
	C496.728943,346.092377 498.610596,345.880341 500.370636,346.248901 
	C523.530029,351.098938 545.150024,359.808441 564.577637,373.338745 
	C575.933533,381.247559 583.572815,376.812683 589.934998,368.088593 
	C595.286255,360.750885 597.330933,352.213501 598.463928,343.270752 
	C600.039368,330.836609 598.399719,318.907806 592.463623,308.048248 
	C586.879578,297.832916 577.517578,295.495850 568.972168,300.447968 
	C550.202393,311.325317 530.216736,319.111481 508.789154,322.846466 
	C505.248840,323.463562 501.519958,322.998810 497.966949,322.095886 
	C498.000336,313.441956 498.033691,304.788025 498.972504,296.037567 
	C513.972290,295.596558 528.432800,298.636902 542.520264,303.363464 
	C551.121521,306.249268 555.602417,301.687347 557.858643,296.049530 
	C563.255615,282.564209 558.082336,261.415649 546.682983,252.131485 
	C542.735413,248.916428 535.573364,249.053177 531.823853,252.686203 
	C521.180237,262.999329 509.231812,271.458191 495.320496,277.561676 
	C494.901031,276.168243 494.414734,274.790985 494.072449,273.378845 
	C490.919861,260.371918 486.411072,247.934555 479.321594,236.476242 
	C477.773285,233.973816 477.164124,230.890274 476.866028,228.038757 
	C490.137756,222.074051 503.569305,216.532776 517.985474,213.960648 
	C526.367676,212.465103 534.782654,211.084534 543.231262,210.046432 
	C555.569824,208.530365 558.788818,199.216568 556.447266,187.076355 
	C554.431030,176.623230 549.802612,167.371368 542.819824,158.994797 
	C536.020569,150.838364 528.584595,143.846252 518.133667,141.767197 
	C507.009796,139.554306 503.174774,139.918579 498.407013,150.139893 
	C494.819885,157.830078 491.860718,165.853378 487.778168,173.263458 
	C480.411224,186.634964 472.070526,199.409332 460.351776,209.999115 
	C455.871704,205.752502 451.656738,201.172256 446.842529,197.346085 
	C441.182678,192.847885 435.002777,189.004044 428.739380,184.249237 
	C423.550903,180.844269 418.362396,177.439316 413.751282,173.702393 
	C414.660156,172.543930 415.510681,171.333603 416.487000,170.235092 
	C425.985504,159.548050 437.034271,150.746719 449.282166,143.424057 
	C453.384064,140.971664 455.674744,137.451691 453.970032,132.821823 
	C452.488647,128.798401 450.656494,124.555450 447.840515,121.438347 
	C439.806976,112.545708 429.263794,108.198273 417.450500,107.053970 
	C406.970795,106.038864 403.094727,109.918739 402.944214,120.473289 
	C402.821655,129.066086 402.632904,137.691284 401.763947,146.229919 
	C401.023224,153.508316 399.272125,160.683899 397.187683,167.974686 
	C377.095459,160.651031 356.367737,155.990738 335.084778,153.598312 
	C335.084778,151.190216 334.815216,149.154266 335.125702,147.210999 
	C339.052155,122.635277 347.952423,99.943115 360.762848,78.645958 
	C362.346802,76.012650 362.966705,71.923409 362.245331,68.941376 
	C359.952209,59.462070 351.879791,55.946880 343.684601,52.985279 
	C334.676819,49.730015 325.274536,49.599522 315.873962,50.032852 
	C306.543640,50.462948 297.803406,53.133839 290.125641,58.495373 
	C282.380249,63.904144 280.617950,72.655449 285.569733,80.133560 
	C296.758850,97.031197 304.553528,115.431534 309.811462,134.920959 
	C311.359253,140.658142 312.138245,146.602753 313.107666,151.615250 
	C296.301514,154.327515 280.337433,156.903870 263.970551,159.545227 
	C263.899963,159.375580 263.243347,158.372711 263.070251,157.292358 
	C261.316498,146.346191 258.820343,135.436066 258.166992,124.418892 
	C257.458984,112.481018 257.709595,100.355591 258.997040,88.469543 
	C260.117889,78.121567 256.665283,70.784058 246.659714,68.299736 
	C243.338165,67.475021 239.710968,66.649292 236.426743,67.151932 
	C228.563934,68.355339 220.480286,69.443146 213.108841,72.227264 
	C201.236115,76.711487 191.138077,83.990692 185.354355,95.954910 
	C181.858292,103.186867 183.912369,110.233688 190.279648,115.015007 
	C198.695282,121.334480 207.156097,127.667000 214.983063,134.679672 
	C226.116821,144.655106 235.907562,155.898972 243.754196,168.999374 
	C227.204086,177.466324 212.423706,187.829071 200.123688,201.374268 
	C192.836838,209.398773 186.057083,217.883743 178.355087,226.008102 
	C177.186234,225.122635 175.875031,224.374146 174.870560,223.330475 
	C164.952545,213.025146 156.345215,201.775162 149.959244,188.894623 
	C146.566238,182.050964 142.808868,181.090530 135.416687,182.684265 
	C124.983681,184.933548 111.200912,204.295090 110.987450,216.517853 
	C110.754967,229.830139 114.527588,232.090515 126.009605,232.209412 
	C134.984589,232.302353 143.986343,234.040085 152.887039,235.566757 
	C158.683289,236.560959 164.319717,238.486862 170.022964,240.759155 
	C165.713776,250.830124 161.404572,260.901093 156.642288,272.031006 
	C144.032684,264.597839 131.832230,258.186646 120.510414,250.483994 
	C111.503754,244.356415 103.028397,237.193756 95.316055,229.490540 
	C87.854271,222.037567 78.517540,221.170853 70.799988,228.449203 
	C62.227959,236.533432 57.835098,246.752121 54.983028,257.794678 
	C51.956791,269.511536 51.885433,281.164856 57.109283,292.388947 
	C60.418850,299.499969 67.092705,302.288635 74.684441,300.158112 
	C81.127914,298.349823 87.536026,296.223236 94.107491,295.107605 
	C104.446907,293.352264 114.878639,291.897308 125.331108,291.126312 
	C134.091156,290.480164 142.936752,290.993591 151.700272,290.993591 
	C150.402695,300.049957 148.724228,308.429108 148.124771,316.884766 
	C147.522522,325.379974 147.374771,334.007843 148.145645,342.475800 
	C149.227539,354.360413 151.122742,366.189240 153.168762,377.955200 
	C153.685272,380.925415 153.489212,381.695709 150.551834,382.034027 
	C139.985931,383.251038 129.387146,384.339508 118.907921,386.110596 
	C106.946251,388.132202 95.270775,386.288696 83.681343,384.114258 
	C72.156540,381.951965 65.557495,385.660614 62.947224,396.956238 
	C60.481758,407.625244 62.249474,417.960968 66.138489,427.829681 
	C70.553474,439.033112 76.370834,449.351440 87.257416,455.971283 
	C96.065315,461.327087 103.789635,459.857117 109.922440,451.741669 
	C115.968575,443.740875 122.049217,435.589569 129.237885,428.671417 
	C139.242264,419.043549 150.292496,410.502441 161.277328,401.171448 
	C162.556366,403.607758 163.138718,404.938995 163.909760,406.150055 
	C169.233887,414.512543 174.597366,422.849945 179.979095,431.884521 
	C189.042725,441.251862 198.106354,450.619232 206.806152,460.576050 
	C194.935089,470.416840 181.817276,478.204559 167.464676,483.775360 
	C160.196732,486.596283 159.316818,491.678528 161.688736,498.855133 
	C166.873535,514.542480 179.416977,522.389954 194.819656,525.850525 
	C201.470871,527.344910 208.427811,522.746826 208.910156,517.203125 
	C210.307785,501.139374 214.500854,485.855896 221.846939,471.078644 
z"/>
<path fill="#85965C" opacity="1.000000" stroke="none" 
	d="
M179.948212,431.195404 
	C174.597366,422.849945 169.233887,414.512543 163.909760,406.150055 
	C163.138718,404.938995 162.556366,403.607758 161.277328,401.171448 
	C150.292496,410.502441 139.242264,419.043549 129.237885,428.671417 
	C122.049217,435.589569 115.968575,443.740875 109.922440,451.741669 
	C103.789635,459.857117 96.065315,461.327087 87.257416,455.971283 
	C76.370834,449.351440 70.553474,439.033112 66.138489,427.829681 
	C62.249474,417.960968 60.481758,407.625244 62.947224,396.956238 
	C65.557495,385.660614 72.156540,381.951965 83.681343,384.114258 
	C95.270775,386.288696 106.946251,388.132202 118.907921,386.110596 
	C129.387146,384.339508 139.985931,383.251038 150.551834,382.034027 
	C153.489212,381.695709 153.685272,380.925415 153.168762,377.955200 
	C151.122742,366.189240 149.227539,354.360413 148.145645,342.475800 
	C147.374771,334.007843 147.522522,325.379974 148.124771,316.884766 
	C148.724228,308.429108 150.402695,300.049957 151.700272,290.993591 
	C142.936752,290.993591 134.091156,290.480164 125.331108,291.126312 
	C114.878639,291.897308 104.446907,293.352264 94.107491,295.107605 
	C87.536026,296.223236 81.127914,298.349823 74.684441,300.158112 
	C67.092705,302.288635 60.418850,299.499969 57.109283,292.388947 
	C51.885433,281.164856 51.956791,269.511536 54.983028,257.794678 
	C57.835098,246.752121 62.227959,236.533432 70.799988,228.449203 
	C78.517540,221.170853 87.854271,222.037567 95.316055,229.490540 
	C103.028397,237.193756 111.503754,244.356415 120.510414,250.483994 
	C131.832230,258.186646 144.032684,264.597839 156.642288,272.031006 
	C161.404572,260.901093 165.713776,250.830124 170.340485,240.262375 
	C173.455109,235.230957 176.252197,230.696304 179.049301,226.161667 
	C186.057083,217.883743 192.836838,209.398773 200.123688,201.374268 
	C212.423706,187.829071 227.204086,177.466324 243.754196,168.999374 
	C235.907562,155.898972 226.116821,144.655106 214.983063,134.679672 
	C207.156097,127.667000 198.695282,121.334480 190.279648,115.015007 
	C183.912369,110.233688 181.858292,103.186867 185.354355,95.954910 
	C191.138077,83.990692 201.236115,76.711487 213.108841,72.227264 
	C220.480286,69.443146 228.563934,68.355339 236.426743,67.151932 
	C239.710968,66.649292 243.338165,67.475021 246.659714,68.299736 
	C256.665283,70.784058 260.117889,78.121567 258.997040,88.469543 
	C257.709595,100.355591 257.458984,112.481018 258.166992,124.418892 
	C258.820343,135.436066 261.316498,146.346191 263.070251,157.292358 
	C263.243347,158.372711 263.899963,159.375580 263.970551,159.545227 
	C280.337433,156.903870 296.301514,154.327515 313.107666,151.615250 
	C312.138245,146.602753 311.359253,140.658142 309.811462,134.920959 
	C304.553528,115.431534 296.758850,97.031197 285.569733,80.133560 
	C280.617950,72.655449 282.380249,63.904144 290.125641,58.495373 
	C297.803406,53.133839 306.543640,50.462948 315.873962,50.032852 
	C325.274536,49.599522 334.676819,49.730015 343.684601,52.985279 
	C351.879791,55.946880 359.952209,59.462070 362.245331,68.941376 
	C362.966705,71.923409 362.346802,76.012650 360.762848,78.645958 
	C347.952423,99.943115 339.052155,122.635277 335.125702,147.210999 
	C334.815216,149.154266 335.084778,151.190216 335.084778,153.598312 
	C356.367737,155.990738 377.095459,160.651031 397.844788,168.168472 
	C403.392578,170.252960 408.283234,172.143661 413.173920,174.034363 
	C418.362396,177.439316 423.550903,180.844269 429.023743,184.889954 
	C429.995087,186.861572 430.586731,188.252655 431.383179,189.514481 
	C447.845520,215.596420 454.484924,244.148193 452.518738,274.729065 
	C440.343750,270.762848 428.195007,272.287079 416.107544,272.216522 
	C406.383667,272.159790 396.600891,271.714752 386.973633,270.454193 
	C382.815399,269.909760 378.983093,266.875885 375.211182,264.713043 
	C380.702637,259.979187 385.985626,255.505188 391.493103,251.013245 
	C391.717529,250.995300 392.171234,250.957733 392.513000,251.068268 
	C401.866241,254.863190 411.084137,257.497467 420.973236,256.987274 
	C433.773590,256.326843 441.618683,247.959518 440.877960,235.136047 
	C440.672150,231.573166 439.723145,227.844406 438.229797,224.599121 
	C429.523071,205.678070 404.937775,195.074814 383.934937,201.030029 
	C383.486420,201.002380 383.307007,200.991760 382.872009,200.757141 
	C377.321381,197.443863 372.286133,193.740021 366.685913,191.372910 
	C343.759216,181.682220 319.642273,179.714615 295.221710,182.477707 
	C281.620850,184.016571 268.585663,188.300812 256.981812,196.002625 
	C257.000427,196.000885 257.029938,195.977936 256.760681,196.065125 
	C256.003967,196.432220 255.516541,196.712112 254.716400,197.091095 
	C253.233902,197.782608 252.064117,198.375000 250.778412,198.944016 
	C250.419830,198.894592 250.184891,198.928391 249.978760,199.010468 
	C249.999878,198.998901 250.046783,198.988190 249.645767,199.003143 
	C247.626495,199.370544 245.945694,199.548447 244.399689,200.102509 
	C229.589462,205.410278 217.439697,214.480621 208.116043,227.041046 
	C202.157715,235.067810 197.279846,243.805740 195.993759,254.018066 
	C195.996399,253.997864 196.019974,253.964630 195.867783,254.239777 
	C195.483612,255.311707 195.251648,256.108490 194.941315,257.217407 
	C194.573700,258.336792 194.284439,259.143982 193.812256,260.259155 
	C189.370193,270.078125 186.427734,279.821136 186.965729,290.466278 
	C187.810074,307.173889 202.715652,322.946655 219.375549,324.018005 
	C220.189926,324.042633 220.655716,324.058411 221.308258,324.340515 
	C225.971695,328.054474 230.513992,331.420654 234.912186,334.965637 
	C246.083969,343.970337 255.001236,354.181122 252.755081,369.998962 
	C252.557968,369.986420 252.163162,369.961090 252.036407,369.635864 
	C243.885742,356.259460 232.256256,348.598694 216.862610,346.050262 
	C216.325363,345.996307 216.110367,345.975677 215.716568,345.679871 
	C210.058929,342.844910 204.808090,339.398590 199.051682,337.918091 
	C188.521942,335.209900 179.115402,339.498657 174.850952,347.065704 
	C169.259460,356.987488 172.776398,371.321442 179.371826,377.326233 
	C179.647186,378.368317 179.806488,379.136932 179.966736,380.332092 
	C180.570282,383.669983 180.706039,386.780792 181.851013,389.460358 
	C189.472382,407.296417 202.815628,418.756104 221.598297,423.417938 
	C228.103607,425.032562 234.856262,424.616974 241.183868,420.979797 
	C241.418304,420.978210 241.887177,420.973480 242.006668,421.297791 
	C246.652634,425.103699 250.737717,429.546356 255.796204,431.869629 
	C266.806763,436.926605 278.611298,436.076813 290.069000,433.339569 
	C299.109741,431.179749 308.064117,428.407837 316.767303,425.137238 
	C335.352661,418.153015 353.997345,416.918823 372.856750,423.305725 
	C371.506287,424.727600 370.414703,426.014618 369.075684,426.945923 
	C338.579529,448.156281 305.066101,458.475067 267.650360,456.218323 
	C238.047241,454.432861 210.354401,446.828979 184.522888,432.295746 
	C183.207901,431.555878 181.482513,431.545441 179.948212,431.195404 
M301.852966,75.302818 
	C309.778442,85.860382 333.684265,86.982010 342.389496,77.204750 
	C346.307800,72.803871 345.521851,67.836838 340.306305,64.039780 
	C331.966034,57.967827 314.010681,57.904568 305.692902,63.935608 
	C302.032074,66.589981 299.877838,69.858261 301.852966,75.302818 
M64.123070,263.891724 
	C64.371300,267.686737 64.047760,271.629181 64.980919,275.247559 
	C67.270668,284.126160 74.843056,286.129395 81.074379,279.358734 
	C89.455215,270.252441 91.986130,259.270782 88.701447,247.372406 
	C86.543060,239.553894 79.734856,238.123642 73.654671,243.659912 
	C67.936142,248.866867 65.496826,255.648499 64.123070,263.891724 
M82.415886,400.141418 
	C77.104111,400.354462 74.710945,403.697662 74.078606,408.432251 
	C73.685646,411.374542 73.638641,414.450928 74.018394,417.391998 
	C75.148384,426.143311 78.727005,433.890381 85.996025,439.039215 
	C88.604660,440.886932 93.243828,441.985107 95.971413,440.915009 
	C98.395569,439.964020 100.049644,435.709686 100.942383,432.597473 
	C101.730949,429.848480 101.517204,426.542084 100.847504,423.692993 
	C98.418381,413.358948 94.529411,403.932831 82.415886,400.141418 
M201.480515,101.602776 
	C203.368713,103.112778 205.030884,105.242203 207.183472,106.027657 
	C217.588425,109.824280 236.446655,101.587532 241.078598,91.505898 
	C243.908127,85.347321 241.073990,79.847595 234.359497,79.026291 
	C222.873093,77.621300 213.055450,81.285515 204.983353,89.514961 
	C201.935669,92.622070 200.249054,96.326706 201.480515,101.602776 
z"/>
<path fill="#718645" opacity="1.000000" stroke="none" 
	d="
M179.963654,431.539978 
	C181.482513,431.545441 183.207901,431.555878 184.522888,432.295746 
	C210.354401,446.828979 238.047241,454.432861 267.650360,456.218323 
	C305.066101,458.475067 338.579529,448.156281 369.075684,426.945923 
	C370.414703,426.014618 371.506287,424.727600 373.171387,423.307434 
	C374.049164,423.012482 374.468719,423.016327 375.202759,423.211304 
	C384.653137,425.871490 393.687317,428.868408 402.954895,430.654602 
	C411.475555,432.296875 417.149170,427.914490 418.747101,419.342865 
	C419.624207,414.637817 419.833649,409.776337 419.985168,404.974091 
	C420.406830,391.606750 424.164978,379.708710 434.740845,370.805695 
	C439.823853,366.526703 445.033112,362.379333 450.377563,358.432892 
	C463.577759,348.685852 474.140228,337.225372 477.416534,320.363739 
	C481.126678,301.269257 470.289917,280.847412 453.014954,275.022125 
	C452.970276,274.942200 452.882629,274.781372 452.882629,274.781372 
	C454.484924,244.148193 447.845520,215.596420 431.383179,189.514481 
	C430.586731,188.252655 429.995087,186.861572 429.178253,185.203568 
	C435.002777,189.004044 441.182678,192.847885 446.842529,197.346085 
	C451.656738,201.172256 455.871704,205.752502 460.812836,210.399841 
	C464.741730,215.344116 468.126526,219.954956 471.724579,224.392929 
	C472.906281,225.850525 474.640717,226.859985 476.122437,228.074371 
	C477.164124,230.890274 477.773285,233.973816 479.321594,236.476242 
	C486.411072,247.934555 490.919861,260.371918 494.072449,273.378845 
	C494.414734,274.790985 494.901031,276.168243 495.648132,278.234528 
	C496.672852,284.649628 497.369965,290.391846 498.067078,296.134094 
	C498.033691,304.788025 498.000336,313.441956 497.740540,322.913879 
	C496.355499,331.216675 495.196808,338.701508 494.038147,346.186340 
	C490.921265,357.011383 488.542755,368.120605 484.512054,378.593933 
	C478.669098,393.775970 470.999786,408.152374 460.862366,421.817108 
	C455.954376,427.983459 451.508209,433.680603 447.062012,439.377747 
	C438.415253,447.669891 429.768494,455.962036 420.687164,464.668152 
	C416.471161,468.105194 412.689728,471.128265 408.908325,474.151306 
	C407.171631,474.682770 405.237488,474.886627 403.728455,475.795898 
	C386.505188,486.174194 367.914307,492.908203 348.253479,496.804199 
	C345.200775,497.409119 342.068817,497.614044 338.080872,498.003510 
	C330.098175,498.347046 323.008148,498.690948 315.918121,499.034851 
	C310.234497,498.378204 304.520142,497.915375 298.874390,497.019989 
	C290.175598,495.640442 281.523865,493.964386 272.168121,492.090759 
	C264.684326,489.835266 257.884613,487.903168 251.084869,485.971039 
	C241.338898,481.006897 231.592911,476.042786 221.349304,470.815125 
	C216.291092,467.029938 211.730545,463.508270 207.169983,459.986572 
	C198.106354,450.619232 189.042725,441.251862 179.963654,431.539978 
z"/>
<path fill="#85975D" opacity="1.000000" stroke="none" 
	d="
M447.396240,439.282715 
	C451.508209,433.680603 455.954376,427.983459 460.686646,422.106750 
	C466.873108,425.562561 472.560364,429.616425 478.715576,432.751404 
	C494.482605,440.781860 511.701263,444.267700 528.848511,447.847504 
	C531.725464,448.448120 534.681885,448.740143 537.617554,448.975372 
	C549.022827,449.889282 555.163513,457.269104 552.862549,468.557556 
	C548.777893,488.596802 537.963318,504.095184 519.650757,513.635864 
	C513.251587,516.969727 505.685272,519.906067 499.209656,514.780273 
	C495.443634,511.799255 493.001953,506.599731 491.074493,501.939331 
	C484.102112,485.081055 475.281250,469.338898 463.604156,455.340759 
	C458.784424,449.563080 453.049255,444.549042 447.396240,439.282715 
M525.754944,464.920990 
	C515.463440,469.492828 509.176208,477.519043 506.384277,488.208130 
	C505.340027,492.206085 504.671844,497.486664 508.901093,499.500305 
	C512.144165,501.044403 517.299683,501.038605 520.601196,499.528412 
	C530.339539,495.073914 536.426392,486.919464 538.722107,476.460236 
	C540.821289,466.896240 536.147644,462.631927 525.754944,464.920990 
z"/>
<path fill="#85965D" opacity="1.000000" stroke="none" 
	d="
M315.951111,499.484314 
	C323.008148,498.690948 330.098175,498.347046 337.665771,498.018738 
	C340.761871,508.225372 342.827271,518.599426 346.125397,528.565491 
	C351.397186,544.495422 359.997223,558.817200 369.245941,572.759216 
	C372.771851,578.074402 370.586029,585.890015 364.496490,590.963623 
	C357.115326,597.113281 348.272797,599.503662 338.996124,601.142822 
	C327.991211,603.087280 317.441528,601.596436 307.145966,597.897827 
	C303.522614,596.596252 299.810211,594.757507 296.964386,592.233032 
	C290.115906,586.157837 288.513672,580.290894 294.423859,569.893311 
	C304.986572,551.310608 312.111847,531.484192 314.980621,510.229004 
	C315.441498,506.814301 315.655823,503.366302 315.951111,499.484314 
M326.915955,591.669250 
	C334.712524,591.931824 342.281250,591.098022 348.712341,586.166077 
	C353.873810,582.207764 354.106354,576.647461 349.537689,572.525024 
	C341.420441,565.200623 320.010590,565.688660 312.092987,573.378601 
	C307.541199,577.799500 307.629822,583.641663 313.094330,586.878357 
	C316.975250,589.177124 321.708679,590.036682 326.915955,591.669250 
z"/>
<path fill="#85965D" opacity="1.000000" stroke="none" 
	d="
M250.928177,486.294861 
	C257.884613,487.903168 264.684326,489.835266 271.815948,491.956665 
	C267.557190,509.561432 268.847504,527.361511 269.218872,545.017883 
	C269.395813,553.430054 271.537689,561.825623 273.072052,570.176880 
	C274.427856,577.556274 271.906891,582.948120 264.988525,586.011536 
	C254.840195,590.505188 244.379669,589.883972 234.081070,587.003662 
	C220.625443,583.240417 208.463425,577.270020 200.327942,565.065308 
	C196.162247,558.816040 194.558807,549.825012 203.530518,542.902649 
	C223.359375,527.603271 238.942276,508.668579 250.928177,486.294861 
M252.814621,575.416504 
	C256.840149,571.393066 257.510010,566.895386 253.908997,562.624268 
	C245.916946,553.144714 235.447784,548.977844 223.226913,550.772705 
	C213.709061,552.170593 211.501480,559.143433 217.562561,566.713318 
	C224.837814,575.799683 241.290237,580.133972 252.814621,575.416504 
z"/>
<path fill="#85965D" opacity="1.000000" stroke="none" 
	d="
M494.471008,346.110443 
	C495.196808,338.701508 496.355499,331.216675 497.696167,323.382935 
	C501.519958,322.998810 505.248840,323.463562 508.789154,322.846466 
	C530.216736,319.111481 550.202393,311.325317 568.972168,300.447968 
	C577.517578,295.495850 586.879578,297.832916 592.463623,308.048248 
	C598.399719,318.907806 600.039368,330.836609 598.463928,343.270752 
	C597.330933,352.213501 595.286255,360.750885 589.934998,368.088593 
	C583.572815,376.812683 575.933533,381.247559 564.577637,373.338745 
	C545.150024,359.808441 523.530029,351.098938 500.370636,346.248901 
	C498.610596,345.880341 496.728943,346.092377 494.471008,346.110443 
M571.667175,317.936615 
	C563.576477,326.721771 561.778992,343.783173 567.877930,353.904022 
	C572.117310,360.939117 578.518677,361.359680 583.575989,354.935333 
	C589.814331,347.010895 590.714539,329.751984 585.337402,321.165955 
	C581.895203,315.669556 578.294312,314.649628 571.667175,317.936615 
z"/>
<path fill="#85975D" opacity="1.000000" stroke="none" 
	d="
M476.494232,228.056564 
	C474.640717,226.859985 472.906281,225.850525 471.724579,224.392929 
	C468.126526,219.954956 464.741730,215.344116 461.160278,210.492172 
	C472.070526,199.409332 480.411224,186.634964 487.778168,173.263458 
	C491.860718,165.853378 494.819885,157.830078 498.407013,150.139893 
	C503.174774,139.918579 507.009796,139.554306 518.133667,141.767197 
	C528.584595,143.846252 536.020569,150.838364 542.819824,158.994797 
	C549.802612,167.371368 554.431030,176.623230 556.447266,187.076355 
	C558.788818,199.216568 555.569824,208.530365 543.231262,210.046432 
	C534.782654,211.084534 526.367676,212.465103 517.985474,213.960648 
	C503.569305,216.532776 490.137756,222.074051 476.494232,228.056564 
M521.099792,156.073883 
	C513.934875,155.936035 510.853790,158.908234 511.045105,165.773331 
	C511.331360,176.045685 520.856201,189.402954 530.448059,192.983383 
	C539.112244,196.217545 545.232300,191.649414 543.570557,182.641754 
	C541.241150,170.015396 534.449158,160.657303 521.099792,156.073883 
z"/>
<path fill="#687547" opacity="1.000000" stroke="none" 
	d="
M408.939514,474.514771 
	C412.689728,471.128265 416.471161,468.105194 420.606018,465.006470 
	C430.653900,476.564392 442.589752,485.416595 455.686310,492.801239 
	C458.785431,494.548767 462.081909,495.944733 465.194550,497.670227 
	C469.608429,500.117065 471.519165,506.358093 469.181824,511.432037 
	C462.172089,526.648926 449.480469,534.071960 433.477142,535.843384 
	C424.293762,536.859985 420.169250,531.797363 419.902893,522.522949 
	C419.427216,505.958466 415.969391,489.989807 408.939514,474.514771 
M458.739441,511.245911 
	C458.905640,507.005066 456.504791,505.351196 452.625702,505.034729 
	C445.163055,504.425934 435.549835,509.652008 432.648163,516.560059 
	C431.738586,518.725586 431.378937,522.374390 432.589325,523.854492 
	C434.033081,525.619934 437.602753,526.832703 439.957855,526.454895 
	C448.614746,525.065979 455.450317,520.756287 458.739441,511.245911 
z"/>
<path fill="#687547" opacity="1.000000" stroke="none" 
	d="
M413.462585,173.868378 
	C408.283234,172.143661 403.392578,170.252960 398.234955,168.133606 
	C399.272125,160.683899 401.023224,153.508316 401.763947,146.229919 
	C402.632904,137.691284 402.821655,129.066086 402.944214,120.473289 
	C403.094727,109.918739 406.970795,106.038864 417.450500,107.053970 
	C429.263794,108.198273 439.806976,112.545708 447.840515,121.438347 
	C450.656494,124.555450 452.488647,128.798401 453.970032,132.821823 
	C455.674744,137.451691 453.384064,140.971664 449.282166,143.424057 
	C437.034271,150.746719 425.985504,159.548050 416.487000,170.235092 
	C415.510681,171.333603 414.660156,172.543930 413.462585,173.868378 
M437.083405,121.393784 
	C432.243774,117.630981 427.068237,114.588264 420.637329,115.665123 
	C414.682220,116.662315 412.303345,121.334152 416.222321,125.711823 
	C419.830933,129.742767 424.705688,133.132629 429.679810,135.289383 
	C433.499573,136.945618 439.043671,137.739182 441.875885,132.948166 
	C444.741547,128.100616 440.443146,125.052521 437.083405,121.393784 
z"/>
<path fill="#687547" opacity="1.000000" stroke="none" 
	d="
M206.988068,460.281311 
	C211.730545,463.508270 216.291092,467.029938 220.986862,470.874817 
	C214.500854,485.855896 210.307785,501.139374 208.910156,517.203125 
	C208.427811,522.746826 201.470871,527.344910 194.819656,525.850525 
	C179.416977,522.389954 166.873535,514.542480 161.688736,498.855133 
	C159.316818,491.678528 160.196732,486.596283 167.464676,483.775360 
	C181.817276,478.204559 194.935089,470.416840 206.988068,460.281311 
M187.467850,515.289734 
	C194.784592,516.651306 198.751205,513.955322 197.684952,508.345428 
	C196.275681,500.930908 185.197922,492.495697 177.584854,493.040161 
	C172.664078,493.392090 170.670792,495.979858 171.957321,500.702118 
	C174.039230,508.343903 179.813293,512.300171 187.467850,515.289734 
z"/>
<path fill="#687447" opacity="1.000000" stroke="none" 
	d="
M178.702194,226.084885 
	C176.252197,230.696304 173.455109,235.230957 170.342896,239.880478 
	C164.319717,238.486862 158.683289,236.560959 152.887039,235.566757 
	C143.986343,234.040085 134.984589,232.302353 126.009605,232.209412 
	C114.527588,232.090515 110.754967,229.830139 110.987450,216.517853 
	C111.200912,204.295090 124.983681,184.933548 135.416687,182.684265 
	C142.808868,181.090530 146.566238,182.050964 149.959244,188.894623 
	C156.345215,201.775162 164.952545,213.025146 174.870560,223.330475 
	C175.875031,224.374146 177.186234,225.122635 178.702194,226.084885 
M140.029221,207.349503 
	C140.484985,205.928619 141.440567,204.453659 141.293884,203.097961 
	C140.975143,200.152115 140.999786,196.112671 139.183426,194.687164 
	C137.423050,193.305573 132.899261,193.607880 130.697861,194.966751 
	C123.847893,199.195114 119.896500,205.647232 120.077744,213.986069 
	C120.201530,219.681564 124.536797,222.586044 129.135651,219.384598 
	C133.289139,216.493210 136.264038,211.908783 140.029221,207.349503 
z"/>
<path fill="#687447" opacity="1.000000" stroke="none" 
	d="
M498.519806,296.085815 
	C497.369965,290.391846 496.672852,284.649628 495.954163,278.455933 
	C509.231812,271.458191 521.180237,262.999329 531.823853,252.686203 
	C535.573364,249.053177 542.735413,248.916428 546.682983,252.131485 
	C558.082336,261.415649 563.255615,282.564209 557.858643,296.049530 
	C555.602417,301.687347 551.121521,306.249268 542.520264,303.363464 
	C528.432800,298.636902 513.972290,295.596558 498.519806,296.085815 
M550.954590,271.851532 
	C549.362793,269.172028 548.220215,266.039795 546.078552,263.914368 
	C542.459290,260.322449 536.750244,261.672272 535.716736,266.401764 
	C533.959778,274.441803 534.199646,282.474487 540.487976,288.801208 
	C542.013000,290.335602 545.192139,291.837463 546.834045,291.235565 
	C548.880432,290.485443 551.177979,287.689789 551.485901,285.511444 
	C552.077820,281.323639 551.345764,276.948700 550.954590,271.851532 
z"/>
<path fill="#6F7C46" opacity="1.000000" stroke="none" 
	d="
M374.888275,423.020203 
	C374.468719,423.016327 374.049164,423.012482 373.315002,423.006866 
	C353.997345,416.918823 335.352661,418.153015 316.767303,425.137238 
	C308.064117,428.407837 299.109741,431.179749 290.069000,433.339569 
	C278.611298,436.076813 266.806763,436.926605 255.796204,431.869629 
	C250.737717,429.546356 246.652634,425.103699 242.285812,421.099976 
	C251.113052,415.388214 255.883942,407.617035 258.076813,397.872437 
	C260.350464,387.768738 257.055237,378.855072 252.952194,370.011475 
	C255.001236,354.181122 246.083969,343.970337 234.912186,334.965637 
	C230.513992,331.420654 225.971695,328.054474 221.750168,324.333130 
	C231.977646,324.403870 241.119080,321.631439 249.452255,316.324646 
	C254.776352,312.934113 259.916840,309.239014 265.002960,305.494781 
	C272.904602,299.677948 280.523224,293.464661 288.559723,287.845490 
	C304.357422,276.799652 322.874512,275.115601 341.269470,272.925568 
	C352.141510,271.631195 363.139374,270.459229 373.307251,264.904053 
	C374.098389,264.939514 374.550568,264.956207 375.002747,264.972870 
	C378.983093,266.875885 382.815399,269.909760 386.973633,270.454193 
	C396.600891,271.714752 406.383667,272.159790 416.107544,272.216522 
	C428.195007,272.287079 440.343750,270.762848 452.518738,274.729065 
	C452.882629,274.781372 452.970276,274.942200 452.998749,275.452240 
	C452.131958,283.554688 451.695801,291.234680 450.267365,298.725403 
	C440.587402,349.486023 415.569000,391.021667 374.888275,423.020203 
z"/>
<path fill="#8B9765" opacity="1.000000" stroke="none" 
	d="
M372.968292,264.885315 
	C363.139374,270.459229 352.141510,271.631195 341.269470,272.925568 
	C322.874512,275.115601 304.357422,276.799652 288.559723,287.845490 
	C280.523224,293.464661 272.904602,299.677948 265.002960,305.494781 
	C259.916840,309.239014 254.776352,312.934113 249.452255,316.324646 
	C241.119080,321.631439 231.977646,324.403870 221.563385,324.066772 
	C220.655716,324.058411 220.189926,324.042633 219.191635,323.738037 
	C208.080444,313.452148 199.560715,301.962494 196.614944,287.531036 
	C194.778519,278.534332 194.804840,269.157471 193.995209,259.951202 
	C194.284439,259.143982 194.573700,258.336792 195.104126,256.951721 
	C195.570190,255.570786 195.795090,254.767715 196.019974,253.964630 
	C196.019974,253.964630 195.996399,253.997864 196.280396,253.838043 
	C197.611389,252.404572 198.803848,251.223526 199.682709,249.842865 
	C207.832809,237.039276 217.278519,225.316299 228.939560,215.549759 
	C235.792114,209.810516 242.999176,204.494553 250.046783,198.988190 
	C250.046783,198.988190 249.999878,198.998901 250.213013,198.994934 
	C250.426132,198.990952 250.894333,198.967392 250.894333,198.967392 
	C252.064117,198.375000 253.233902,197.782608 254.980301,196.994324 
	C256.047913,196.524948 256.538910,196.251434 257.029938,195.977936 
	C257.029938,195.977936 257.000427,196.000885 257.453491,196.010895 
	C260.903595,195.995956 263.905792,196.076599 266.896820,195.929764 
	C298.398499,194.383469 322.811188,207.671417 342.302612,231.604660 
	C351.837860,243.312820 360.373138,255.981445 372.968292,264.885315 
z"/>
<path fill="#9FAD7A" opacity="1.000000" stroke="none" 
	d="
M373.307251,264.904053 
	C360.373138,255.981445 351.837860,243.312820 342.302612,231.604660 
	C322.811188,207.671417 298.398499,194.383469 266.896820,195.929764 
	C263.905792,196.076599 260.903595,195.995956 257.434875,196.012634 
	C268.585663,188.300812 281.620850,184.016571 295.221710,182.477707 
	C319.642273,179.714615 343.759216,181.682220 366.685913,191.372910 
	C372.286133,193.740021 377.321381,197.443863 382.643677,201.014008 
	C381.362427,202.502365 380.078369,203.543716 378.741394,204.512070 
	C366.791290,213.167419 365.305725,229.048828 375.966370,239.332047 
	C380.557251,243.760345 386.137726,247.162720 391.268646,251.031189 
	C385.985626,255.505188 380.702637,259.979187 375.211182,264.713043 
	C374.550568,264.956207 374.098389,264.939514 373.307251,264.904053 
z"/>
<path fill="#9FAD7A" opacity="1.000000" stroke="none" 
	d="
M240.949432,420.981354 
	C234.856262,424.616974 228.103607,425.032562 221.598297,423.417938 
	C202.815628,418.756104 189.472382,407.296417 181.851013,389.460358 
	C180.706039,386.780792 180.570282,383.669983 180.242584,380.533936 
	C182.901596,382.378052 185.179520,384.586914 187.688843,386.490753 
	C196.849518,393.440918 207.681610,394.216583 216.023590,388.652283 
	C224.761108,382.824158 229.183060,371.718231 225.748505,360.987152 
	C224.040985,355.652191 220.110001,351.028870 217.184860,346.083618 
	C232.256256,348.598694 243.885742,356.259460 251.959808,370.007141 
	C249.547928,374.764984 247.527771,379.193115 244.527237,382.807404 
	C239.122040,389.318268 233.488068,395.793762 235.176575,404.866547 
	C236.207199,410.404449 238.966522,415.620667 240.949432,420.981354 
z"/>
<path fill="#6F7C46" opacity="1.000000" stroke="none" 
	d="
M384.203979,201.047089 
	C404.937775,195.074814 429.523071,205.678070 438.229797,224.599121 
	C439.723145,227.844406 440.672150,231.573166 440.877960,235.136047 
	C441.618683,247.959518 433.773590,256.326843 420.973236,256.987274 
	C411.084137,257.497467 401.866241,254.863190 392.652893,250.767975 
	C402.401886,233.818863 400.600769,218.490341 387.087219,204.471298 
	C386.054016,203.399414 385.161774,202.191681 384.203979,201.047089 
z"/>
<path fill="#8B9765" opacity="1.000000" stroke="none" 
	d="
M216.862610,346.050262 
	C220.110001,351.028870 224.040985,355.652191 225.748505,360.987152 
	C229.183060,371.718231 224.761108,382.824158 216.023590,388.652283 
	C207.681610,394.216583 196.849518,393.440918 187.688843,386.490753 
	C185.179520,384.586914 182.901596,382.378052 180.241653,380.107361 
	C179.806488,379.136932 179.647186,378.368317 179.407745,376.925476 
	C179.937332,364.956268 184.798111,356.221985 194.753235,350.515808 
	C201.326004,346.748352 208.431442,345.543854 215.895370,345.955048 
	C216.110367,345.975677 216.325363,345.996307 216.862610,346.050262 
z"/>
<path fill="#8B9765" opacity="1.000000" stroke="none" 
	d="
M383.934937,201.030029 
	C385.161774,202.191681 386.054016,203.399414 387.087219,204.471298 
	C400.600769,218.490341 402.401886,233.818863 392.311127,250.657425 
	C392.171234,250.957733 391.717529,250.995300 391.493103,251.013245 
	C386.137726,247.162720 380.557251,243.760345 375.966370,239.332047 
	C365.305725,229.048828 366.791290,213.167419 378.741394,204.512070 
	C380.078369,203.543716 381.362427,202.502365 382.899323,201.238007 
	C383.307007,200.991760 383.486420,201.002380 383.934937,201.030029 
z"/>
<path fill="#58633B" opacity="1.000000" stroke="none" 
	d="
M301.693207,74.950958 
	C299.877838,69.858261 302.032074,66.589981 305.692902,63.935608 
	C314.010681,57.904568 331.966034,57.967827 340.306305,64.039780 
	C345.521851,67.836838 346.307800,72.803871 342.389496,77.204750 
	C333.684265,86.982010 309.778442,85.860382 301.693207,74.950958 
z"/>
<path fill="#58633B" opacity="1.000000" stroke="none" 
	d="
M64.172043,263.450378 
	C65.496826,255.648499 67.936142,248.866867 73.654671,243.659912 
	C79.734856,238.123642 86.543060,239.553894 88.701447,247.372406 
	C91.986130,259.270782 89.455215,270.252441 81.074379,279.358734 
	C74.843056,286.129395 67.270668,284.126160 64.980919,275.247559 
	C64.047760,271.629181 64.371300,267.686737 64.172043,263.450378 
z"/>
<path fill="#58633B" opacity="1.000000" stroke="none" 
	d="
M82.801994,400.182312 
	C94.529411,403.932831 98.418381,413.358948 100.847504,423.692993 
	C101.517204,426.542084 101.730949,429.848480 100.942383,432.597473 
	C100.049644,435.709686 98.395569,439.964020 95.971413,440.915009 
	C93.243828,441.985107 88.604660,440.886932 85.996025,439.039215 
	C78.727005,433.890381 75.148384,426.143311 74.018394,417.391998 
	C73.638641,414.450928 73.685646,411.374542 74.078606,408.432251 
	C74.710945,403.697662 77.104111,400.354462 82.801994,400.182312 
z"/>
<path fill="#58633B" opacity="1.000000" stroke="none" 
	d="
M201.358109,101.221878 
	C200.249054,96.326706 201.935669,92.622070 204.983353,89.514961 
	C213.055450,81.285515 222.873093,77.621300 234.359497,79.026291 
	C241.073990,79.847595 243.908127,85.347321 241.078598,91.505898 
	C236.446655,101.587532 217.588425,109.824280 207.183472,106.027657 
	C205.030884,105.242203 203.368713,103.112778 201.358109,101.221878 
z"/>
<path fill="#8B9765" opacity="1.000000" stroke="none" 
	d="
M241.183868,420.979797 
	C238.966522,415.620667 236.207199,410.404449 235.176575,404.866547 
	C233.488068,395.793762 239.122040,389.318268 244.527237,382.807404 
	C247.527771,379.193115 249.547928,374.764984 252.086548,370.332367 
	C252.163162,369.961090 252.557968,369.986420 252.755081,369.998962 
	C257.055237,378.855072 260.350464,387.768738 258.076813,397.872437 
	C255.883942,407.617035 251.113052,415.388214 242.166321,420.775696 
	C241.887177,420.973480 241.418304,420.978210 241.183868,420.979797 
z"/>
<path fill="#6F7D46" opacity="1.000000" stroke="none" 
	d="
M215.716568,345.679871 
	C208.431442,345.543854 201.326004,346.748352 194.753235,350.515808 
	C184.798111,356.221985 179.937332,364.956268 179.291687,376.651978 
	C172.776398,371.321442 169.259460,356.987488 174.850952,347.065704 
	C179.115402,339.498657 188.521942,335.209900 199.051682,337.918091 
	C204.808090,339.398590 210.058929,342.844910 215.716568,345.679871 
z"/>
<path fill="#9EAC7A" opacity="1.000000" stroke="none" 
	d="
M193.812271,260.259155 
	C194.804840,269.157471 194.778519,278.534332 196.614944,287.531036 
	C199.560715,301.962494 208.080444,313.452148 218.843033,323.729248 
	C202.715652,322.946655 187.810074,307.173889 186.965729,290.466278 
	C186.427734,279.821136 189.370193,270.078125 193.812271,260.259155 
z"/>
<path fill="#6F7D47" opacity="1.000000" stroke="none" 
	d="
M249.645767,199.003143 
	C242.999176,204.494553 235.792114,209.810516 228.939560,215.549759 
	C217.278519,225.316299 207.832809,237.039276 199.682709,249.842865 
	C198.803848,251.223526 197.611389,252.404572 196.277756,253.858246 
	C197.279846,243.805740 202.157715,235.067810 208.116043,227.041046 
	C217.439697,214.480621 229.589462,205.410278 244.399689,200.102509 
	C245.945694,199.548447 247.626495,199.370544 249.645767,199.003143 
z"/>
<path fill="#6F7D47" opacity="1.000000" stroke="none" 
	d="
M195.867783,254.239777 
	C195.795090,254.767715 195.570190,255.570786 195.182480,256.639587 
	C195.251648,256.108490 195.483612,255.311707 195.867783,254.239777 
z"/>
<path fill="#9FAD7A" opacity="1.000000" stroke="none" 
	d="
M256.760681,196.065125 
	C256.538910,196.251434 256.047913,196.524948 255.292999,196.895233 
	C255.516541,196.712112 256.003967,196.432220 256.760681,196.065125 
z"/>
<path fill="#6F7D47" opacity="1.000000" stroke="none" 
	d="
M250.778412,198.944016 
	C250.894333,198.967392 250.426132,198.990952 250.191895,199.006485 
	C250.184891,198.928391 250.419830,198.894592 250.778412,198.944016 
z"/>
<path fill="#5E6D32" opacity="1.000000" stroke="none" 
	d="
M375.202759,423.211334 
	C415.569000,391.021667 440.587402,349.486023 450.267365,298.725403 
	C451.695801,291.234680 452.131958,283.554688 453.043396,275.532166 
	C470.289917,280.847412 481.126678,301.269257 477.416534,320.363739 
	C474.140228,337.225372 463.577759,348.685852 450.377563,358.432892 
	C445.033112,362.379333 439.823853,366.526703 434.740845,370.805695 
	C424.164978,379.708710 420.406830,391.606750 419.985168,404.974091 
	C419.833649,409.776337 419.624207,414.637817 418.747101,419.342865 
	C417.149170,427.914490 411.475555,432.296875 402.954895,430.654602 
	C393.687317,428.868408 384.653137,425.871490 375.202759,423.211334 
z"/>
<path fill="#58633B" opacity="1.000000" stroke="none" 
	d="
M526.134155,464.785614 
	C536.147644,462.631927 540.821289,466.896240 538.722107,476.460236 
	C536.426392,486.919464 530.339539,495.073914 520.601196,499.528412 
	C517.299683,501.038605 512.144165,501.044403 508.901093,499.500305 
	C504.671844,497.486664 505.340027,492.206085 506.384277,488.208130 
	C509.176208,477.519043 515.463440,469.492828 526.134155,464.785614 
z"/>
<path fill="#58633B" opacity="1.000000" stroke="none" 
	d="
M326.488770,591.603943 
	C321.708679,590.036682 316.975250,589.177124 313.094330,586.878357 
	C307.629822,583.641663 307.541199,577.799500 312.092987,573.378601 
	C320.010590,565.688660 341.420441,565.200623 349.537689,572.525024 
	C354.106354,576.647461 353.873810,582.207764 348.712341,586.166077 
	C342.281250,591.098022 334.712524,591.931824 326.488770,591.603943 
z"/>
<path fill="#58633B" opacity="1.000000" stroke="none" 
	d="
M252.477859,575.619629 
	C241.290237,580.133972 224.837814,575.799683 217.562561,566.713318 
	C211.501480,559.143433 213.709061,552.170593 223.226913,550.772705 
	C235.447784,548.977844 245.916946,553.144714 253.908997,562.624268 
	C257.510010,566.895386 256.840149,571.393066 252.477859,575.619629 
z"/>
<path fill="#58633B" opacity="1.000000" stroke="none" 
	d="
M571.973206,317.702026 
	C578.294312,314.649628 581.895203,315.669556 585.337402,321.165955 
	C590.714539,329.751984 589.814331,347.010895 583.575989,354.935333 
	C578.518677,361.359680 572.117310,360.939117 567.877930,353.904022 
	C561.778992,343.783173 563.576477,326.721771 571.973206,317.702026 
z"/>
<path fill="#58633B" opacity="1.000000" stroke="none" 
	d="
M521.502625,156.142639 
	C534.449158,160.657303 541.241150,170.015396 543.570557,182.641754 
	C545.232300,191.649414 539.112244,196.217545 530.448059,192.983383 
	C520.856201,189.402954 511.331360,176.045685 511.045105,165.773331 
	C510.853790,158.908234 513.934875,155.936035 521.502625,156.142639 
z"/>
<path fill="#57623B" opacity="1.000000" stroke="none" 
	d="
M458.677948,511.624878 
	C455.450317,520.756287 448.614746,525.065979 439.957855,526.454895 
	C437.602753,526.832703 434.033081,525.619934 432.589325,523.854492 
	C431.378937,522.374390 431.738586,518.725586 432.648163,516.560059 
	C435.549835,509.652008 445.163055,504.425934 452.625702,505.034729 
	C456.504791,505.351196 458.905640,507.005066 458.677948,511.624878 
z"/>
<path fill="#57623B" opacity="1.000000" stroke="none" 
	d="
M437.357971,121.628098 
	C440.443146,125.052521 444.741547,128.100616 441.875885,132.948166 
	C439.043671,137.739182 433.499573,136.945618 429.679810,135.289383 
	C424.705688,133.132629 419.830933,129.742767 416.222321,125.711823 
	C412.303345,121.334152 414.682220,116.662315 420.637329,115.665123 
	C427.068237,114.588264 432.243774,117.630981 437.357971,121.628098 
z"/>
<path fill="#57623B" opacity="1.000000" stroke="none" 
	d="
M187.089203,515.169189 
	C179.813293,512.300171 174.039230,508.343903 171.957321,500.702118 
	C170.670792,495.979858 172.664078,493.392090 177.584854,493.040161 
	C185.197922,492.495697 196.275681,500.930908 197.684952,508.345428 
	C198.751205,513.955322 194.784592,516.651306 187.089203,515.169189 
z"/>
<path fill="#57623B" opacity="1.000000" stroke="none" 
	d="
M139.893951,207.710236 
	C136.264038,211.908783 133.289139,216.493210 129.135651,219.384598 
	C124.536797,222.586044 120.201530,219.681564 120.077744,213.986069 
	C119.896500,205.647232 123.847893,199.195114 130.697861,194.966751 
	C132.899261,193.607880 137.423050,193.305573 139.183426,194.687164 
	C140.999786,196.112671 140.975143,200.152115 141.293884,203.097961 
	C141.440567,204.453659 140.484985,205.928619 139.893951,207.710236 
z"/>
<path fill="#57623B" opacity="1.000000" stroke="none" 
	d="
M551.058716,272.251465 
	C551.345764,276.948700 552.077820,281.323639 551.485901,285.511444 
	C551.177979,287.689789 548.880432,290.485443 546.834045,291.235565 
	C545.192139,291.837463 542.013000,290.335602 540.487976,288.801208 
	C534.199646,282.474487 533.959778,274.441803 535.716736,266.401764 
	C536.750244,261.672272 542.459290,260.322449 546.078552,263.914368 
	C548.220215,266.039795 549.362793,269.172028 551.058716,272.251465 
z"/>
</svg>