<svg version="1.1" id="Layer_1" xmlns="http://www.w3.org/2000/svg" xmlns:xlink="http://www.w3.org/1999/xlink" x="0px" y="0px"
	 width="100%" viewBox="0 0 650 650" enable-background="new 0 0 650 650" xml:space="preserve">
<path fill="#000000" opacity="1.000000" stroke="none" 
	d="
M352.000000,651.000000 
	C234.666687,651.000000 117.833374,651.000000 1.000047,651.000000 
	C1.000031,434.333405 1.000031,217.666779 1.000016,1.000134 
	C217.666565,1.000090 434.333130,1.000090 650.999756,1.000045 
	C650.999878,217.666519 650.999878,434.333038 650.999939,650.999756 
	C551.500000,651.000000 452.000000,651.000000 352.000000,651.000000 
M525.017334,289.990326 
	C505.350922,289.942383 485.684540,289.894440 465.693481,289.162598 
	C462.411804,279.792572 459.130127,270.422546 456.001221,260.330078 
	C478.435455,239.911179 500.869720,219.492294 523.037354,199.316025 
	C526.127197,201.067764 528.809937,202.864624 531.711792,204.176773 
	C537.878967,206.965485 543.549561,204.755798 543.911438,199.333954 
	C544.124634,196.140518 544.072388,192.572922 542.864319,189.712112 
	C539.962891,182.841507 537.131348,175.679306 532.747253,169.764664 
	C527.497498,162.682175 521.433411,155.886047 512.486084,152.813370 
	C508.776917,151.539581 505.555267,151.214615 502.819550,154.659882 
	C499.626007,158.681808 500.645721,163.005432 502.048370,167.178329 
	C503.139191,170.423492 503.027283,172.226868 499.560455,174.235077 
	C488.130798,180.855927 477.004517,188.002808 465.796356,195.003113 
	C453.497131,202.684845 441.236359,210.428070 428.362152,217.825577 
	C423.665070,213.471130 418.950623,209.135193 414.277039,204.755661 
	C411.216858,201.887970 408.215820,198.957153 405.829346,195.720139 
	C412.751343,179.917755 419.673340,164.115356 426.295685,148.997101 
	C429.525909,148.997101 431.966675,149.102493 434.395172,148.974350 
	C438.919525,148.735580 441.321533,145.067993 438.915771,141.253769 
	C436.476807,137.386978 433.511658,133.616028 430.029327,130.694107 
	C423.463593,125.184967 415.772034,121.832382 406.954285,122.026932 
	C401.071503,122.156731 399.097839,125.701721 401.962830,130.929810 
	C403.178528,133.148178 404.721222,135.187317 405.841095,136.890793 
	C395.721161,151.775101 385.891327,166.232758 375.256287,180.925262 
	C374.002411,180.660721 372.750183,180.388260 371.494415,180.132980 
	C364.707397,178.753204 357.963531,176.688858 351.115906,176.251511 
	C346.806610,175.976273 345.483185,173.921646 345.121643,170.828476 
	C343.885406,160.252304 343.010620,149.633759 342.007690,139.030472 
	C341.312927,131.685196 340.725739,124.328423 339.925873,116.994736 
	C338.826843,106.917709 337.572113,96.857658 336.446075,87.315453 
	C340.519745,85.277542 343.890839,83.866867 346.974915,81.985634 
	C351.993591,78.924294 352.708771,73.544899 348.177094,69.865875 
	C345.030945,67.311707 341.154083,65.028519 337.259125,64.147377 
	C326.845215,61.791512 316.113098,60.658947 305.620972,63.174648 
	C300.336151,64.441788 295.148285,67.100716 290.595978,70.145912 
	C286.410187,72.945930 287.031403,78.931290 291.319672,81.679184 
	C294.114441,83.470055 297.409882,84.461594 300.344360,86.061806 
	C301.428589,86.653061 302.875732,87.970398 302.864471,88.941582 
	C302.811432,93.518555 302.358307,98.094582 301.959259,102.663200 
	C300.660522,117.531349 299.248260,132.389954 298.027008,147.264328 
	C297.219452,157.100174 296.678497,166.957779 295.967987,176.802032 
	C295.916534,177.514893 295.585480,178.708176 295.163391,178.816467 
	C290.805908,179.934280 286.402954,180.874634 282.004883,181.130844 
	C273.980560,163.393066 265.956238,145.655304 258.401855,128.956345 
	C260.520447,126.392479 262.519165,124.434219 263.961578,122.128014 
	C266.606659,117.898941 265.323639,114.644363 260.378784,114.115036 
	C255.129623,113.553139 249.397339,112.799850 244.553024,114.306641 
	C237.939041,116.363892 231.772858,120.173935 225.842636,123.911522 
	C224.217911,124.935516 222.909119,128.916840 223.638870,130.587006 
	C224.513809,132.589462 227.590332,133.905350 229.975189,134.874603 
	C231.531296,135.507034 233.553009,134.993851 235.613403,134.993851 
	C238.435715,146.779068 241.131302,158.411560 244.024292,169.994751 
	C246.282944,179.038162 248.786758,188.020355 251.021927,197.749725 
	C246.660492,200.921783 242.299057,204.093826 238.094666,207.151657 
	C212.243881,186.464233 186.736237,166.051407 161.334824,145.723602 
	C162.535049,142.927475 163.907303,140.375717 164.738815,137.658478 
	C166.443024,132.089371 164.604218,126.482880 160.873444,126.138153 
	C157.843674,125.858215 154.408279,125.808266 151.713593,126.963982 
	C146.742096,129.096191 141.935303,131.836502 137.500992,134.951416 
	C127.782173,141.778488 121.123055,151.177429 117.442757,162.358597 
	C116.506340,165.203506 117.070564,170.162460 118.985115,171.891876 
	C121.102943,173.804901 125.620842,173.722458 128.984085,173.392776 
	C131.844147,173.112457 134.548721,171.246002 137.681137,169.930527 
	C158.779968,194.233963 179.914719,218.578766 201.181854,243.076065 
	C199.474136,245.489456 197.832199,247.809891 196.151108,250.185623 
	C188.989777,248.075027 182.123795,245.852203 175.152252,244.034164 
	C154.314743,238.600159 133.417419,233.395248 112.585411,227.940674 
	C106.964958,226.469025 100.231041,226.276199 101.634346,216.860748 
	C102.146469,213.424637 100.485008,208.291336 95.790451,207.144882 
	C91.279289,206.043228 87.236488,208.348755 84.681602,211.962952 
	C80.411072,218.004135 76.105171,224.146667 72.875008,230.764343 
	C69.000549,238.702026 67.121132,247.461456 68.190804,256.326416 
	C68.595940,259.684021 70.435165,263.814270 73.007622,265.727966 
	C76.303986,268.180206 80.303932,266.055817 83.276413,263.232056 
	C84.753113,261.829224 85.963860,260.025543 87.658821,259.011383 
	C89.026466,258.193115 91.274162,257.529114 92.558701,258.095490 
	C103.460762,262.902863 114.253098,267.962128 125.036461,273.034912 
	C139.882278,280.018768 154.648010,287.174835 169.550140,294.035400 
	C172.858826,295.558594 173.206467,296.932251 172.342972,300.526642 
	C170.346191,308.838684 169.368561,317.395569 167.201035,326.294769 
	C167.133423,331.752625 166.948624,337.212616 167.046432,342.667511 
	C167.097168,345.496216 167.648117,348.315948 167.997345,352.028107 
	C167.938705,356.353638 167.880066,360.679199 167.085876,364.985962 
	C152.460419,371.417725 137.825806,377.828827 123.218246,384.300995 
	C120.716438,385.409454 119.553482,384.792786 117.603340,382.622894 
	C115.745193,380.555389 111.967522,379.226959 109.150177,379.405945 
	C107.645889,379.501556 105.348396,383.397339 105.191925,385.699219 
	C104.363319,397.888611 107.438751,409.010468 116.446983,417.753693 
	C117.936630,419.199493 121.120422,420.296631 122.871765,419.687469 
	C124.661964,419.064819 126.070908,416.300262 126.862686,414.180481 
	C127.507202,412.454956 126.993652,410.296814 126.993652,408.192261 
	C133.169235,406.741669 138.992813,405.416199 144.794724,404.001740 
	C155.562225,401.376678 166.317093,398.699707 177.765991,396.313293 
	C180.939926,402.813110 184.260849,409.247803 187.188156,415.856842 
	C187.954086,417.586121 188.380356,420.508850 187.451126,421.768524 
	C183.007523,427.792419 178.020065,433.413208 173.271378,439.214478 
	C166.474808,447.517487 159.723572,455.857605 152.941772,464.172760 
	C147.731995,470.560455 142.504883,476.934052 138.302231,482.071075 
	C133.063324,481.240509 129.168854,480.234558 125.241638,480.084229 
	C117.863747,479.801819 115.728279,483.157166 117.627045,490.275482 
	C119.607010,497.698212 123.785828,503.578918 128.615570,509.393372 
	C135.983917,518.264038 144.924881,524.515991 155.838593,527.881958 
	C160.451675,529.304810 166.406647,524.896545 165.799362,520.672302 
	C165.350616,517.550842 164.234131,514.488892 163.124023,511.508881 
	C161.930054,508.303772 161.984085,505.808380 164.986313,503.437775 
	C171.258072,498.485535 177.276901,493.213837 183.421982,488.100220 
	C191.185684,481.639618 199.043152,475.289490 206.724152,468.732391 
	C212.307175,463.966248 217.669708,458.941772 223.764847,454.282837 
	C230.782898,458.202728 237.693680,462.333679 244.854599,465.972412 
	C250.119858,468.647919 255.712494,470.679108 260.802032,473.716400 
	C260.312805,475.567505 259.763611,477.405182 259.343994,479.271942 
	C256.541840,491.738159 253.447388,504.152100 251.150360,516.711487 
	C250.300644,521.357483 248.988770,523.344727 244.054123,523.108643 
	C238.692810,522.852173 236.268692,527.242188 239.007095,531.894592 
	C240.139175,533.817993 241.773361,535.964417 243.703827,536.805969 
	C250.597672,539.811523 257.540527,543.082397 264.810150,544.719849 
	C269.944672,545.876404 276.271332,546.629456 280.294250,539.459229 
	C278.706696,537.232178 277.232025,534.109009 274.827362,532.097778 
	C272.589264,530.225952 272.567719,529.237305 273.675751,526.677185 
	C280.655792,510.549774 287.332489,494.291046 294.976654,478.011658 
	C300.314667,478.285767 305.652649,478.559875 311.792847,479.001862 
	C312.157990,479.263306 312.773438,479.464783 312.852570,479.794800 
	C318.253326,502.325226 323.621765,524.863403 328.965485,547.407471 
	C330.478943,553.792419 331.909607,560.196960 333.305756,566.276733 
	C331.172394,567.416870 329.741821,568.167664 328.323975,568.941833 
	C324.108246,571.243652 319.675446,574.340637 320.403503,579.310303 
	C321.118591,584.191162 325.933258,586.924805 330.726440,587.822083 
	C340.933350,589.732605 351.178528,589.862854 361.389008,587.319397 
	C368.164795,585.631531 374.771118,583.717285 379.879242,578.617432 
	C384.880829,573.623901 383.895691,567.948364 377.423523,564.924683 
	C375.137695,563.856812 372.551483,563.449097 370.193298,562.511475 
	C369.025757,562.047302 367.356445,561.227478 367.140289,560.286865 
	C366.450836,557.286438 366.160522,554.161377 366.031281,551.071289 
	C365.609650,540.992554 365.473419,530.900574 364.959442,520.827332 
	C364.112427,504.227631 363.055847,487.638641 362.830292,470.989105 
	C364.871674,470.365265 366.913025,469.741394 368.989075,469.847809 
	C377.931213,486.297546 386.873383,502.747284 395.914673,519.379456 
	C394.654480,520.700195 393.188568,522.048035 391.943695,523.575989 
	C387.925995,528.507202 389.349426,532.828857 395.613312,533.924255 
	C398.687500,534.461914 402.024414,534.480103 405.088715,533.908875 
	C414.629913,532.130249 422.856506,527.762329 429.237549,520.276489 
	C431.699005,517.388855 431.411407,514.484192 428.563660,512.198669 
	C427.453979,511.308044 425.531586,510.928375 424.060150,511.083313 
	C419.478668,511.565735 417.259277,510.191437 415.805756,505.305725 
	C410.888641,488.777954 405.244629,472.466431 400.163940,455.422699 
	C405.116211,451.988922 410.068512,448.555115 415.747559,445.024658 
	C416.773193,445.476654 417.903503,445.777130 418.809174,446.402771 
	C440.324554,461.265625 461.815338,476.164093 483.311737,491.054443 
	C487.290710,493.810669 490.513672,496.189880 487.607483,502.316864 
	C486.147003,505.395874 486.845764,510.898529 488.784729,513.848022 
	C491.405579,517.834961 496.821808,516.675842 500.505402,514.715393 
	C516.813110,506.036194 528.659485,493.136932 532.649231,474.842743 
	C534.105347,468.166107 530.137878,463.661865 522.450073,465.364014 
	C518.663757,466.202362 515.144226,468.245667 511.249084,469.848602 
	C491.841339,450.405701 472.299927,430.846619 452.805542,411.240784 
	C451.933655,410.363922 451.488861,409.062439 451.174042,407.330505 
	C454.768921,401.258179 458.363800,395.185883 462.347656,389.775940 
	C477.829254,393.826996 493.243530,398.173492 508.838745,401.725739 
	C512.840149,402.637146 512.683167,404.368927 513.166443,407.332123 
	C513.597534,409.975342 514.892273,413.760315 516.806580,414.520111 
	C518.741394,415.288116 522.603699,413.662201 524.413086,411.866943 
	C533.236511,403.112793 537.005493,392.216553 535.856445,379.871796 
	C535.666260,377.829041 533.738708,374.967865 531.955078,374.331238 
	C530.197449,373.703918 527.296448,374.975616 525.462463,376.236511 
	C523.660339,377.475464 522.568970,379.748291 521.498230,381.136261 
	C512.309753,376.713226 504.355865,372.745178 496.282623,369.036926 
	C487.949158,365.209137 479.499634,361.634003 471.013977,357.050476 
	C471.348602,351.418365 471.683197,345.786224 472.831726,340.040710 
	C473.894257,339.698395 474.934631,339.240326 476.022766,339.031586 
	C487.272491,336.873444 498.544769,334.830780 509.781586,332.608368 
	C525.584778,329.482849 541.352844,326.177094 557.176636,323.162231 
	C558.204468,322.966370 559.906921,324.345703 560.729004,325.424225 
	C562.766479,328.097015 564.116028,331.362488 566.401123,333.762115 
	C569.775940,337.306030 573.867493,337.096069 576.985840,333.399231 
	C578.703003,331.363556 580.480469,328.832123 580.859192,326.317627 
	C581.946777,319.097137 582.842773,311.773438 582.872925,304.486420 
	C582.912170,294.995636 580.372925,286.006256 575.031555,277.972961 
	C571.711548,272.979797 565.405396,272.033844 561.984375,276.788177 
	C559.460022,280.296295 558.480042,284.915649 555.910645,289.030518 
	C548.100464,289.018372 540.289551,288.940063 532.480713,289.036652 
	C530.298828,289.063660 528.123291,289.606689 525.017334,289.990326 
z"/>
<path fill="#F1983C" opacity="1.000000" stroke="none" 
	d="
M261.159241,472.997406 
	C255.712494,470.679108 250.119858,468.647919 244.854599,465.972412 
	C237.693680,462.333679 230.782898,458.202728 223.155762,453.980408 
	C215.393661,447.313416 208.023102,441.171112 201.188705,434.481079 
	C198.218414,431.573486 196.350388,427.539886 193.989609,424.010071 
	C193.997482,424.002441 194.008499,423.986206 194.361755,424.057373 
	C195.032486,424.228394 195.376221,424.279633 195.663666,424.434998 
	C214.718246,434.736084 235.205566,440.063568 256.681030,441.770935 
	C261.683289,442.168671 266.744110,441.829712 271.276154,441.829712 
	C269.539764,436.431976 267.649994,431.663513 266.495819,426.723175 
	C264.513184,418.236938 259.660583,412.324219 251.607224,409.311890 
	C244.606888,406.693420 237.423538,404.560242 230.304276,402.264679 
	C218.985580,398.614990 211.150452,391.347595 206.652176,380.273743 
	C200.259872,364.537109 205.827698,350.475128 221.379379,343.684509 
	C224.735764,342.218903 228.170425,340.902039 231.418854,339.225616 
	C240.629120,334.472351 245.654510,326.838165 245.916122,316.462463 
	C246.045334,311.336823 245.390259,306.191406 245.452423,301.016571 
	C247.198898,300.440521 248.590164,299.920471 249.965942,299.362274 
	C260.272919,295.180267 270.374054,290.365509 280.927063,286.943481 
	C298.766602,281.158539 317.385742,282.213165 335.854492,281.814484 
	C343.367706,281.652344 351.043274,280.054260 358.265778,277.860931 
	C365.725708,275.595520 371.746033,270.705750 375.312836,263.157806 
	C375.531952,263.087891 375.973022,262.957306 376.422485,262.965759 
	C378.698944,262.919586 380.545105,263.015747 382.350006,262.786926 
	C399.649658,260.593567 414.842163,265.309479 428.086151,276.564392 
	C428.751617,277.129883 429.606445,277.472504 430.858673,278.201569 
	C430.858673,276.276550 431.095276,274.923401 430.820984,273.683258 
	C428.779083,264.450989 426.946564,255.156311 424.459229,246.041992 
	C419.418274,227.570374 410.491333,210.891113 400.357056,195.032440 
	C402.220917,195.389694 403.704590,195.722153 405.188263,196.054626 
	C408.215820,198.957153 411.216858,201.887970 414.277039,204.755661 
	C418.950623,209.135193 423.665070,213.471130 428.755249,218.307877 
	C439.775330,231.786606 449.212799,245.534515 455.848450,261.052521 
	C459.130127,270.422546 462.411804,279.792572 465.868652,289.912354 
	C470.196564,306.898560 471.663818,323.459137 472.017792,340.154114 
	C471.683197,345.786224 471.348602,351.418365 470.822266,357.793518 
	C467.739929,368.728882 464.849304,378.921234 461.958679,389.113586 
	C458.363800,395.185883 454.768921,401.258179 450.777527,407.883423 
	C440.985962,422.970001 428.768127,434.782776 415.020813,445.121338 
	C410.068512,448.555115 405.116211,451.988922 399.651184,455.760315 
	C389.077087,460.437805 379.015747,464.777679 368.954407,469.117554 
	C366.913025,469.741394 364.871674,470.365265 362.072998,471.078613 
	C350.596588,473.156097 339.906769,475.325989 329.146759,477.060333 
	C323.155090,478.026093 317.046539,478.266602 310.990662,478.833984 
	C305.652649,478.559875 300.314667,478.285767 294.115845,478.017822 
	C284.163055,476.350647 275.078003,474.637451 265.972290,473.042236 
	C264.413177,472.769073 262.765839,472.999573 261.159241,472.997406 
M406.265991,425.594238 
	C413.777130,411.371918 408.332153,397.967590 404.013672,382.894775 
	C389.942230,398.996338 374.464996,411.259216 356.038635,421.254791 
	C365.388031,428.235077 374.373566,433.838776 385.527496,435.007294 
	C393.960480,435.890686 401.011841,433.597382 406.265991,425.594238 
M352.277130,418.910461 
	C345.058502,415.582214 338.079102,411.496094 330.559204,409.122162 
	C321.634186,406.304565 313.527771,409.565826 307.969574,416.906403 
	C302.303528,424.389343 297.585999,432.590485 292.368805,440.606812 
	C294.203125,440.403259 296.148712,440.239471 298.078583,439.965057 
	C316.700104,437.317291 334.388458,431.608215 351.352997,423.583954 
	C353.072968,422.770386 355.493347,421.809998 352.277130,418.910461 
M401.995789,369.409424 
	C402.529205,373.327637 403.062622,377.245819 403.596039,381.164032 
	C416.247681,366.863831 424.539307,351.162872 428.407379,333.187164 
	C423.824615,336.135345 419.684570,339.403229 415.519440,342.638824 
	C407.074524,349.199036 401.582672,357.294891 401.995789,369.409424 
M439.766998,312.855652 
	C440.882782,297.968384 438.582764,288.644440 433.165161,283.994568 
	C432.544769,298.589508 431.901917,313.712921 431.250031,329.048706 
	C436.040955,325.015259 438.053925,319.498077 439.766998,312.855652 
M282.281128,443.960541 
	C284.121307,443.402008 285.961456,442.843475 287.801636,442.284912 
	C287.693268,441.919403 287.584900,441.553864 287.476562,441.188354 
	C283.857727,441.567993 280.238892,441.947662 276.620056,442.327301 
	C276.592499,442.661438 276.564941,442.995605 276.537384,443.329773 
	C278.190674,443.548615 279.843964,443.767456 282.281128,443.960541 
z"/>
<path fill="#FFB553" opacity="1.000000" stroke="none" 
	d="
M245.090057,301.054932 
	C245.390259,306.191406 246.045334,311.336823 245.916122,316.462463 
	C245.654510,326.838165 240.629120,334.472351 231.418854,339.225616 
	C228.170425,340.902039 224.735764,342.218903 221.379379,343.684509 
	C205.827698,350.475128 200.259872,364.537109 206.652176,380.273743 
	C211.150452,391.347595 218.985580,398.614990 230.304276,402.264679 
	C237.423538,404.560242 244.606888,406.693420 251.607224,409.311890 
	C259.660583,412.324219 264.513184,418.236938 266.495819,426.723175 
	C267.649994,431.663513 269.539764,436.431976 271.276154,441.829712 
	C266.744110,441.829712 261.683289,442.168671 256.681030,441.770935 
	C235.205566,440.063568 214.718246,434.736084 195.663666,424.434998 
	C195.376221,424.279633 195.032486,424.228394 194.259308,423.939697 
	C193.598633,423.747925 193.393692,423.745056 193.188736,423.742188 
	C193.453064,423.834015 193.717407,423.925842 193.981735,424.017670 
	C196.350388,427.539886 198.218414,431.573486 201.188705,434.481079 
	C208.023102,441.171112 215.393661,447.313416 222.838593,453.855225 
	C217.669708,458.941772 212.307175,463.966248 206.724152,468.732391 
	C199.043152,475.289490 191.185684,481.639618 183.421982,488.100220 
	C177.276901,493.213837 171.258072,498.485535 164.986313,503.437775 
	C161.984085,505.808380 161.930054,508.303772 163.124023,511.508881 
	C164.234131,514.488892 165.350616,517.550842 165.799362,520.672302 
	C166.406647,524.896545 160.451675,529.304810 155.838593,527.881958 
	C144.924881,524.515991 135.983917,518.264038 128.615570,509.393372 
	C123.785828,503.578918 119.607010,497.698212 117.627045,490.275482 
	C115.728279,483.157166 117.863747,479.801819 125.241638,480.084229 
	C129.168854,480.234558 133.063324,481.240509 138.302231,482.071075 
	C142.504883,476.934052 147.731995,470.560455 152.941772,464.172760 
	C159.723572,455.857605 166.474808,447.517487 173.271378,439.214478 
	C178.020065,433.413208 183.007523,427.792419 187.451126,421.768524 
	C188.380356,420.508850 187.954086,417.586121 187.188156,415.856842 
	C184.260849,409.247803 180.939926,402.813110 177.379517,395.791443 
	C174.634995,386.227509 172.319473,377.173859 169.866074,368.157684 
	C169.552811,367.006470 168.520584,366.050934 167.821426,365.004730 
	C167.880066,360.679199 167.938705,356.353638 168.011261,351.106323 
	C168.009338,342.074066 167.993469,333.963623 167.977615,325.853149 
	C169.368561,317.395569 170.346191,308.838684 172.342972,300.526642 
	C173.206467,296.932251 172.858826,295.558594 169.550140,294.035400 
	C154.648010,287.174835 139.882278,280.018768 125.036461,273.034912 
	C114.253098,267.962128 103.460762,262.902863 92.558701,258.095490 
	C91.274162,257.529114 89.026466,258.193115 87.658821,259.011383 
	C85.963860,260.025543 84.753113,261.829224 83.276413,263.232056 
	C80.303932,266.055817 76.303986,268.180206 73.007622,265.727966 
	C70.435165,263.814270 68.595940,259.684021 68.190804,256.326416 
	C67.121132,247.461456 69.000549,238.702026 72.875008,230.764343 
	C76.105171,224.146667 80.411072,218.004135 84.681602,211.962952 
	C87.236488,208.348755 91.279289,206.043228 95.790451,207.144882 
	C100.485008,208.291336 102.146469,213.424637 101.634346,216.860748 
	C100.231041,226.276199 106.964958,226.469025 112.585411,227.940674 
	C133.417419,233.395248 154.314743,238.600159 175.152252,244.034164 
	C182.123795,245.852203 188.989777,248.075027 196.151108,250.185623 
	C197.832199,247.809891 199.474136,245.489456 201.181854,243.076065 
	C179.914719,218.578766 158.779968,194.233963 137.681137,169.930527 
	C134.548721,171.246002 131.844147,173.112457 128.984085,173.392776 
	C125.620842,173.722458 121.102943,173.804901 118.985115,171.891876 
	C117.070564,170.162460 116.506340,165.203506 117.442757,162.358597 
	C121.123055,151.177429 127.782173,141.778488 137.500992,134.951416 
	C141.935303,131.836502 146.742096,129.096191 151.713593,126.963982 
	C154.408279,125.808266 157.843674,125.858215 160.873444,126.138153 
	C164.604218,126.482880 166.443024,132.089371 164.738815,137.658478 
	C163.907303,140.375717 162.535049,142.927475 161.334824,145.723602 
	C186.736237,166.051407 212.243881,186.464233 238.094666,207.151657 
	C242.299057,204.093826 246.660492,200.921783 251.466171,197.367630 
	C261.609467,192.501038 271.315277,188.030899 280.987854,183.490005 
	C281.476196,183.260727 281.677612,182.420273 282.012634,181.864380 
	C286.402954,180.874634 290.805908,179.934280 295.163391,178.816467 
	C295.585480,178.708176 295.916534,177.514893 295.967987,176.802032 
	C296.678497,166.957779 297.219452,157.100174 298.027008,147.264328 
	C299.248260,132.389954 300.660522,117.531349 301.959259,102.663200 
	C302.358307,98.094582 302.811432,93.518555 302.864471,88.941582 
	C302.875732,87.970398 301.428589,86.653061 300.344360,86.061806 
	C297.409882,84.461594 294.114441,83.470055 291.319672,81.679184 
	C287.031403,78.931290 286.410187,72.945930 290.595978,70.145912 
	C295.148285,67.100716 300.336151,64.441788 305.620972,63.174648 
	C316.113098,60.658947 326.845215,61.791512 337.259125,64.147377 
	C341.154083,65.028519 345.030945,67.311707 348.177094,69.865875 
	C352.708771,73.544899 351.993591,78.924294 346.974915,81.985634 
	C343.890839,83.866867 340.519745,85.277542 336.446075,87.315453 
	C337.572113,96.857658 338.826843,106.917709 339.925873,116.994736 
	C340.725739,124.328423 341.312927,131.685196 342.007690,139.030472 
	C343.010620,149.633759 343.885406,160.252304 345.121643,170.828476 
	C345.483185,173.921646 346.806610,175.976273 351.115906,176.251511 
	C357.963531,176.688858 364.707397,178.753204 371.494415,180.132980 
	C372.750183,180.388260 374.002411,180.660721 375.813416,181.135773 
	C377.752411,182.162155 379.127533,182.989792 380.517334,183.791901 
	C387.001617,187.534332 393.489960,191.269730 399.976868,195.007645 
	C410.491333,210.891113 419.418274,227.570374 424.459229,246.041992 
	C426.946564,255.156311 428.779083,264.450989 430.820984,273.683258 
	C431.095276,274.923401 430.858673,276.276550 430.858673,278.201569 
	C429.606445,277.472504 428.751617,277.129883 428.086151,276.564392 
	C414.842163,265.309479 399.649658,260.593567 382.350006,262.786926 
	C380.545105,263.015747 378.698944,262.919586 376.460876,262.574951 
	C376.701935,257.756561 377.354004,253.337402 378.008728,248.670242 
	C378.011383,248.422226 378.022369,247.926270 378.312103,247.770386 
	C391.588562,238.565964 386.446350,221.758499 373.765747,216.710495 
	C367.953766,214.396805 361.304077,214.187286 354.687653,213.015808 
	C353.878326,212.994095 353.415649,212.980087 352.671936,212.752579 
	C346.811646,211.035156 341.310577,208.713516 335.639435,208.171585 
	C313.386597,206.045105 292.473755,211.190125 272.694977,221.266693 
	C271.234100,222.010971 270.252441,223.695801 268.658783,224.956146 
	C266.528595,225.308701 264.787659,225.648438 262.667877,226.016815 
	C252.442825,229.038376 244.427460,234.306442 239.988220,244.001831 
	C240.001205,244.001465 240.001892,243.975510 239.803772,244.191528 
	C239.374344,244.943207 239.143051,245.478851 238.695709,246.243561 
	C237.659760,247.954117 236.839828,249.435577 235.703552,251.039703 
	C231.942825,254.958633 228.253296,258.563324 225.105026,262.591034 
	C218.529282,271.003693 212.330399,279.681549 211.551086,291.009888 
	C199.103165,289.362915 186.872818,300.978516 187.959534,313.857605 
	C188.794769,323.756134 198.350128,333.043884 209.623520,332.114227 
	C218.662369,331.368805 224.904846,324.239136 225.016190,313.444641 
	C225.041901,310.951874 225.038620,308.458771 225.501190,305.973572 
	C228.090530,305.984894 230.396896,306.510620 232.328934,305.883362 
	C236.350800,304.577637 240.174515,302.661499 244.332352,301.009460 
	C244.753387,301.033447 244.921722,301.044189 245.090057,301.054932 
M142.809372,157.415833 
	C145.946198,153.412399 149.356125,149.582336 152.068848,145.309647 
	C152.993927,143.852600 152.951065,140.600937 151.918976,139.413162 
	C150.886368,138.224808 147.730301,137.757019 146.083313,138.416824 
	C137.843384,141.717972 132.047729,147.726257 129.331848,156.219162 
	C128.098297,160.076645 131.148514,162.669464 135.120026,161.347733 
	C137.598419,160.522934 139.849442,159.014877 142.809372,157.415833 
M131.943344,502.403442 
	C135.505569,507.776123 139.855164,512.319824 146.120300,514.367615 
	C147.811554,514.920349 150.765076,514.956116 151.600098,513.950806 
	C152.684372,512.645447 152.909027,509.833710 152.315475,508.070282 
	C150.225204,501.860107 146.050690,497.006653 140.173645,494.209320 
	C137.361404,492.870789 133.830566,493.041992 130.625198,492.529388 
	C130.929398,495.616241 131.233597,498.703064 131.943344,502.403442 
M89.538086,242.895111 
	C90.684242,237.598068 92.056007,232.333221 92.819572,226.981583 
	C93.012970,225.626129 91.585320,223.234238 90.322723,222.706909 
	C89.106422,222.198898 86.713280,223.019623 85.574310,224.061996 
	C79.159271,229.933029 76.425362,237.427750 77.066154,246.043549 
	C77.184006,247.628128 78.218025,250.227097 79.217171,250.427963 
	C81.040749,250.794571 83.538681,250.233185 85.047241,249.108856 
	C86.820045,247.787628 87.839035,245.454941 89.538086,242.895111 
M309.455750,80.310341 
	C316.641113,82.623596 323.856201,83.044884 330.791656,79.718735 
	C332.475464,78.911209 334.468811,76.716133 334.506836,75.115982 
	C334.540771,73.687424 332.340668,71.534439 330.659607,70.853493 
	C323.652069,68.014915 316.370117,68.027115 309.284027,70.544258 
	C307.341278,71.234360 304.408600,73.464020 304.547546,74.690765 
	C304.764923,76.610161 307.211334,78.277107 309.455750,80.310341 
z"/>
<path fill="#FFB553" opacity="1.000000" stroke="none" 
	d="
M311.391754,478.917908 
	C317.046539,478.266602 323.155090,478.026093 329.146759,477.060333 
	C339.906769,475.325989 350.596588,473.156097 361.701660,471.106628 
	C363.055847,487.638641 364.112427,504.227631 364.959442,520.827332 
	C365.473419,530.900574 365.609650,540.992554 366.031281,551.071289 
	C366.160522,554.161377 366.450836,557.286438 367.140289,560.286865 
	C367.356445,561.227478 369.025757,562.047302 370.193298,562.511475 
	C372.551483,563.449097 375.137695,563.856812 377.423523,564.924683 
	C383.895691,567.948364 384.880829,573.623901 379.879242,578.617432 
	C374.771118,583.717285 368.164795,585.631531 361.389008,587.319397 
	C351.178528,589.862854 340.933350,589.732605 330.726440,587.822083 
	C325.933258,586.924805 321.118591,584.191162 320.403503,579.310303 
	C319.675446,574.340637 324.108246,571.243652 328.323975,568.941833 
	C329.741821,568.167664 331.172394,567.416870 333.305756,566.276733 
	C331.909607,560.196960 330.478943,553.792419 328.965485,547.407471 
	C323.621765,524.863403 318.253326,502.325226 312.852570,479.794800 
	C312.773438,479.464783 312.157990,479.263306 311.391754,478.917908 
M343.969604,581.974426 
	C350.618866,582.152649 357.407928,582.628845 363.223694,578.664917 
	C364.864441,577.546631 366.732513,574.830688 366.407684,573.286865 
	C366.062653,571.646912 363.218292,569.364929 361.496277,569.391235 
	C355.119049,569.488525 348.654480,569.954895 342.437561,571.286072 
	C340.144470,571.777100 337.112030,574.849365 336.778900,577.094788 
	C336.231232,580.786255 340.170807,581.272949 343.969604,581.974426 
z"/>
<path fill="#FFB653" opacity="1.000000" stroke="none" 
	d="
M455.924835,260.691284 
	C449.212799,245.534515 439.775330,231.786606 429.053589,218.467346 
	C441.236359,210.428070 453.497131,202.684845 465.796356,195.003113 
	C477.004517,188.002808 488.130798,180.855927 499.560455,174.235077 
	C503.027283,172.226868 503.139191,170.423492 502.048370,167.178329 
	C500.645721,163.005432 499.626007,158.681808 502.819550,154.659882 
	C505.555267,151.214615 508.776917,151.539581 512.486084,152.813370 
	C521.433411,155.886047 527.497498,162.682175 532.747253,169.764664 
	C537.131348,175.679306 539.962891,182.841507 542.864319,189.712112 
	C544.072388,192.572922 544.124634,196.140518 543.911438,199.333954 
	C543.549561,204.755798 537.878967,206.965485 531.711792,204.176773 
	C528.809937,202.864624 526.127197,201.067764 523.037354,199.316025 
	C500.869720,219.492294 478.435455,239.911179 455.924835,260.691284 
M512.041504,171.287231 
	C514.006042,179.542084 518.439636,186.135529 525.666809,190.590240 
	C527.147034,191.502594 529.663269,191.866486 531.166687,191.226257 
	C532.238831,190.769653 532.884460,188.215347 532.907593,186.585617 
	C532.996338,180.333023 524.774414,168.772614 518.956482,166.558884 
	C514.979309,165.045532 512.994568,166.165924 512.041504,171.287231 
z"/>
<path fill="#FFB553" opacity="1.000000" stroke="none" 
	d="
M472.424744,340.097412 
	C471.663818,323.459137 470.196564,306.898560 466.031006,290.254303 
	C485.684540,289.894440 505.350922,289.942383 525.950684,289.982666 
	C530.008118,289.988953 533.136108,290.110718 536.255310,289.994812 
	C543.109863,289.740265 549.960022,289.365570 556.811951,289.039917 
	C558.480042,284.915649 559.460022,280.296295 561.984375,276.788177 
	C565.405396,272.033844 571.711548,272.979797 575.031555,277.972961 
	C580.372925,286.006256 582.912170,294.995636 582.872925,304.486420 
	C582.842773,311.773438 581.946777,319.097137 580.859192,326.317627 
	C580.480469,328.832123 578.703003,331.363556 576.985840,333.399231 
	C573.867493,337.096069 569.775940,337.306030 566.401123,333.762115 
	C564.116028,331.362488 562.766479,328.097015 560.729004,325.424225 
	C559.906921,324.345703 558.204468,322.966370 557.176636,323.162231 
	C541.352844,326.177094 525.584778,329.482849 509.781586,332.608368 
	C498.544769,334.830780 487.272491,336.873444 476.022766,339.031586 
	C474.934631,339.240326 473.894257,339.698395 472.424744,340.097412 
M575.329346,315.431244 
	C576.367737,308.145050 577.282593,300.779388 573.621887,293.984406 
	C572.575012,292.041199 570.195618,289.963440 568.197144,289.701324 
	C566.976624,289.541229 564.538208,292.505981 563.993591,294.445465 
	C561.906921,301.876099 562.470703,309.334747 565.970093,316.272064 
	C568.550598,321.387543 571.882263,321.236725 575.329346,315.431244 
z"/>
<path fill="#FFB653" opacity="1.000000" stroke="none" 
	d="
M415.384186,445.072998 
	C428.768127,434.782776 440.985962,422.970001 450.613098,408.197540 
	C451.488861,409.062439 451.933655,410.363922 452.805542,411.240784 
	C472.299927,430.846619 491.841339,450.405701 511.249084,469.848602 
	C515.144226,468.245667 518.663757,466.202362 522.450073,465.364014 
	C530.137878,463.661865 534.105347,468.166107 532.649231,474.842743 
	C528.659485,493.136932 516.813110,506.036194 500.505402,514.715393 
	C496.821808,516.675842 491.405579,517.834961 488.784729,513.848022 
	C486.845764,510.898529 486.147003,505.395874 487.607483,502.316864 
	C490.513672,496.189880 487.290710,493.810669 483.311737,491.054443 
	C461.815338,476.164093 440.324554,461.265625 418.809174,446.402771 
	C417.903503,445.777130 416.773193,445.476654 415.384186,445.072998 
M504.477386,486.022491 
	C502.489471,489.434143 500.186676,492.713348 498.668335,496.322571 
	C498.058990,497.770996 498.574677,500.595703 499.672058,501.605743 
	C500.774719,502.620667 503.608459,502.915710 505.043152,502.214966 
	C512.646362,498.501526 518.031433,492.549011 520.531677,484.393768 
	C521.027893,482.775116 520.654419,479.974487 519.556152,479.035248 
	C518.418274,478.062042 515.504211,477.964325 514.086243,478.761993 
	C510.820343,480.599396 507.990692,483.212067 504.477386,486.022491 
z"/>
<path fill="#F49436" opacity="1.000000" stroke="none" 
	d="
M282.008759,181.497620 
	C281.677612,182.420273 281.476196,183.260727 280.987854,183.490005 
	C271.315277,188.030899 261.609467,192.501038 251.546021,197.007629 
	C248.786758,188.020355 246.282944,179.038162 244.024292,169.994751 
	C241.131302,158.411560 238.435715,146.779068 235.613403,134.993851 
	C233.553009,134.993851 231.531296,135.507034 229.975189,134.874603 
	C227.590332,133.905350 224.513809,132.589462 223.638870,130.587006 
	C222.909119,128.916840 224.217911,124.935516 225.842636,123.911522 
	C231.772858,120.173935 237.939041,116.363892 244.553024,114.306641 
	C249.397339,112.799850 255.129623,113.553139 260.378784,114.115036 
	C265.323639,114.644363 266.606659,117.898941 263.961578,122.128014 
	C262.519165,124.434219 260.520447,126.392479 258.401855,128.956345 
	C265.956238,145.655304 273.980560,163.393066 282.008759,181.497620 
M251.715332,118.541374 
	C246.742783,119.869659 241.689056,120.969872 236.855957,122.690010 
	C235.678864,123.108955 235.226654,125.564651 234.441147,127.083855 
	C236.119186,127.947853 237.999146,129.788345 239.437027,129.491028 
	C243.591660,128.631927 247.752274,127.283630 251.551468,125.402275 
	C254.174240,124.103508 255.130905,121.471458 251.715332,118.541374 
z"/>
<path fill="#F49436" opacity="1.000000" stroke="none" 
	d="
M368.971741,469.482666 
	C379.015747,464.777679 389.077087,460.437805 399.508453,456.085114 
	C405.244629,472.466431 410.888641,488.777954 415.805756,505.305725 
	C417.259277,510.191437 419.478668,511.565735 424.060150,511.083313 
	C425.531586,510.928375 427.453979,511.308044 428.563660,512.198669 
	C431.411407,514.484192 431.699005,517.388855 429.237549,520.276489 
	C422.856506,527.762329 414.629913,532.130249 405.088715,533.908875 
	C402.024414,534.480103 398.687500,534.461914 395.613312,533.924255 
	C389.349426,532.828857 387.925995,528.507202 391.943695,523.575989 
	C393.188568,522.048035 394.654480,520.700195 395.914673,519.379456 
	C386.873383,502.747284 377.931213,486.297546 368.971741,469.482666 
M410.465637,527.325623 
	C413.187927,525.772339 416.114288,524.473572 418.529419,522.537231 
	C419.460175,521.791016 419.799683,519.387695 419.340973,518.128235 
	C418.993286,517.173645 416.856567,516.179565 415.685364,516.352234 
	C412.759735,516.783386 409.529114,517.269958 407.169281,518.851257 
	C404.514923,520.629944 402.680969,523.632996 400.490143,526.103516 
	C403.554199,526.593018 406.618256,527.082520 410.465637,527.325623 
z"/>
<path fill="#F49436" opacity="1.000000" stroke="none" 
	d="
M462.153168,389.444763 
	C464.849304,378.921234 467.739929,368.728882 470.865723,358.242432 
	C479.499634,361.634003 487.949158,365.209137 496.282623,369.036926 
	C504.355865,372.745178 512.309753,376.713226 521.498230,381.136261 
	C522.568970,379.748291 523.660339,377.475464 525.462463,376.236511 
	C527.296448,374.975616 530.197449,373.703918 531.955078,374.331238 
	C533.738708,374.967865 535.666260,377.829041 535.856445,379.871796 
	C537.005493,392.216553 533.236511,403.112793 524.413086,411.866943 
	C522.603699,413.662201 518.741394,415.288116 516.806580,414.520111 
	C514.892273,413.760315 513.597534,409.975342 513.166443,407.332123 
	C512.683167,404.368927 512.840149,402.637146 508.838745,401.725739 
	C493.243530,398.173492 477.829254,393.826996 462.153168,389.444763 
M520.446655,392.231628 
	C519.975403,394.808990 519.234985,397.377838 519.152710,399.967560 
	C519.114685,401.162994 520.109741,403.055939 521.097168,403.436249 
	C522.127319,403.833038 524.242737,403.202484 524.948242,402.294403 
	C526.635132,400.123138 528.575562,397.636749 528.933350,395.071136 
	C529.410095,391.652771 528.482849,388.038605 528.158752,384.508575 
	C525.692200,386.843842 523.225647,389.179108 520.446655,392.231628 
z"/>
<path fill="#F49436" opacity="1.000000" stroke="none" 
	d="
M400.357056,195.032440 
	C393.489960,191.269730 387.001617,187.534332 380.517334,183.791901 
	C379.127533,182.989792 377.752411,182.162155 376.216003,181.018341 
	C385.891327,166.232758 395.721161,151.775101 405.841095,136.890793 
	C404.721222,135.187317 403.178528,133.148178 401.962830,130.929810 
	C399.097839,125.701721 401.071503,122.156731 406.954285,122.026932 
	C415.772034,121.832382 423.463593,125.184967 430.029327,130.694107 
	C433.511658,133.616028 436.476807,137.386978 438.915771,141.253769 
	C441.321533,145.067993 438.919525,148.735580 434.395172,148.974350 
	C431.966675,149.102493 429.525909,148.997101 426.295685,148.997101 
	C419.673340,164.115356 412.751343,179.917755 405.508789,195.887375 
	C403.704590,195.722153 402.220917,195.389694 400.357056,195.032440 
M424.752777,141.877487 
	C426.337646,141.311554 427.922546,140.745605 429.507446,140.179688 
	C428.912048,138.548172 428.796692,136.242004 427.630737,135.412399 
	C424.217957,132.984177 420.513947,130.835770 416.650238,129.241089 
	C415.299133,128.683441 413.150940,130.057037 411.366730,130.548721 
	C412.010376,132.293518 412.145813,134.732880 413.396515,135.648041 
	C416.660065,138.035995 420.411987,139.756470 424.752777,141.877487 
z"/>
<path fill="#F49436" opacity="1.000000" stroke="none" 
	d="
M260.980652,473.356903 
	C262.765839,472.999573 264.413177,472.769073 265.972290,473.042236 
	C275.078003,474.637451 284.163055,476.350647 293.682251,478.049866 
	C287.332489,494.291046 280.655792,510.549774 273.675751,526.677185 
	C272.567719,529.237305 272.589264,530.225952 274.827362,532.097778 
	C277.232025,534.109009 278.706696,537.232178 280.294250,539.459229 
	C276.271332,546.629456 269.944672,545.876404 264.810150,544.719849 
	C257.540527,543.082397 250.597672,539.811523 243.703827,536.805969 
	C241.773361,535.964417 240.139175,533.817993 239.007095,531.894592 
	C236.268692,527.242188 238.692810,522.852173 244.054123,523.108643 
	C248.988770,523.344727 250.300644,521.357483 251.150360,516.711487 
	C253.447388,504.152100 256.541840,491.738159 259.343994,479.271942 
	C259.763611,477.405182 260.312805,475.567505 260.980652,473.356903 
M265.861237,538.900940 
	C269.219971,538.088196 269.457123,536.238342 267.352875,533.900818 
	C263.525574,529.649231 258.468994,528.073608 252.973419,528.235779 
	C251.487564,528.279602 249.508224,529.651062 248.802643,530.972351 
	C248.411362,531.705078 249.888885,534.397766 251.035126,534.820129 
	C255.594345,536.500183 260.354645,537.634460 265.861237,538.900940 
z"/>
<path fill="#F49436" opacity="1.000000" stroke="none" 
	d="
M167.453644,364.995361 
	C168.520584,366.050934 169.552811,367.006470 169.866074,368.157684 
	C172.319473,377.173859 174.634995,386.227509 177.035126,395.656982 
	C166.317093,398.699707 155.562225,401.376678 144.794724,404.001740 
	C138.992813,405.416199 133.169235,406.741669 126.993652,408.192261 
	C126.993652,410.296814 127.507202,412.454956 126.862686,414.180481 
	C126.070908,416.300262 124.661964,419.064819 122.871765,419.687469 
	C121.120422,420.296631 117.936630,419.199493 116.446983,417.753693 
	C107.438751,409.010468 104.363319,397.888611 105.191925,385.699219 
	C105.348396,383.397339 107.645889,379.501556 109.150177,379.405945 
	C111.967522,379.226959 115.745193,380.555389 117.603340,382.622894 
	C119.553482,384.792786 120.716438,385.409454 123.218246,384.300995 
	C137.825806,377.828827 152.460419,371.417725 167.453644,364.995361 
M121.795883,405.222839 
	C119.935829,400.392120 118.629120,395.232208 116.020088,390.847107 
	C114.296745,387.950623 111.574974,389.033234 111.089317,392.461151 
	C110.334991,397.785370 111.517303,402.703339 114.749985,407.030426 
	C117.563164,410.796021 119.413544,410.486359 121.795883,405.222839 
z"/>
<path fill="#FFD591" opacity="1.000000" stroke="none" 
	d="
M556.361328,289.035217 
	C549.960022,289.365570 543.109863,289.740265 536.255310,289.994812 
	C533.136108,290.110718 530.008118,289.988953 526.414490,289.943970 
	C528.123291,289.606689 530.298828,289.063660 532.480713,289.036652 
	C540.289551,288.940063 548.100464,289.018372 556.361328,289.035217 
z"/>
<path fill="#FFC672" opacity="1.000000" stroke="none" 
	d="
M167.589325,326.073975 
	C167.993469,333.963623 168.009338,342.074066 167.999146,350.662140 
	C167.648117,348.315948 167.097168,345.496216 167.046432,342.667511 
	C166.948624,337.212616 167.133423,331.752625 167.589325,326.073975 
z"/>
<path fill="#F2A553" opacity="1.000000" stroke="none" 
	d="
M245.452423,301.016571 
	C244.921722,301.044189 244.753387,301.033447 244.278900,300.624451 
	C242.701462,296.270721 241.609543,292.246552 240.125641,288.372559 
	C235.474014,276.228668 232.563599,263.932556 236.019897,250.917053 
	C236.839828,249.435577 237.659760,247.954117 238.904236,246.031952 
	C239.553162,245.052689 239.777527,244.514099 240.001892,243.975510 
	C240.001892,243.975510 240.001205,244.001465 240.326599,243.928391 
	C248.116898,237.899597 255.581787,231.943878 263.046692,225.988174 
	C264.787659,225.648438 266.528595,225.308701 269.118225,224.957336 
	C278.801300,224.393265 287.516846,225.100952 294.615723,230.893112 
	C301.028564,236.125504 307.214905,241.765152 312.774811,247.885056 
	C322.954041,259.089569 334.374664,267.259796 350.354462,265.980835 
	C358.621368,265.319183 366.848572,264.161377 375.093719,263.227722 
	C371.746033,270.705750 365.725708,275.595520 358.265778,277.860931 
	C351.043274,280.054260 343.367706,281.652344 335.854492,281.814484 
	C317.385742,282.213165 298.766602,281.158539 280.927063,286.943481 
	C270.374054,290.365509 260.272919,295.180267 249.965942,299.362274 
	C248.590164,299.920471 247.198898,300.440521 245.452423,301.016571 
z"/>
<path fill="#FFC672" opacity="1.000000" stroke="none" 
	d="
M375.312836,263.157837 
	C366.848572,264.161377 358.621368,265.319183 350.354462,265.980835 
	C334.374664,267.259796 322.954041,259.089569 312.774811,247.885056 
	C307.214905,241.765152 301.028564,236.125504 294.615723,230.893112 
	C287.516846,225.100952 278.801300,224.393265 269.507446,224.944519 
	C270.252441,223.695801 271.234100,222.010971 272.694977,221.266693 
	C292.473755,211.190125 313.386597,206.045105 335.639435,208.171585 
	C341.310577,208.713516 346.811646,211.035156 352.266968,212.778610 
	C342.924622,214.261383 334.269135,216.971680 327.000885,223.045898 
	C318.808838,229.892166 319.089935,239.663437 327.787476,245.768021 
	C330.752014,247.848724 334.042786,249.665314 337.440948,250.892334 
	C351.184113,255.854736 364.782715,255.690399 378.006104,248.918259 
	C377.354004,253.337402 376.701935,257.756561 376.011414,262.566498 
	C375.973022,262.957306 375.531952,263.087891 375.312836,263.157837 
z"/>
<path fill="#E6802C" opacity="1.000000" stroke="none" 
	d="
M406.068604,425.906555 
	C401.011841,433.597382 393.960480,435.890686 385.527496,435.007294 
	C374.373566,433.838776 365.388031,428.235077 356.038635,421.254791 
	C374.464996,411.259216 389.942230,398.996338 404.013672,382.894775 
	C408.332153,397.967590 413.777130,411.371918 406.068604,425.906555 
z"/>
<path fill="#FFB552" opacity="1.000000" stroke="none" 
	d="
M352.527313,419.122314 
	C355.493347,421.809998 353.072968,422.770386 351.352997,423.583954 
	C334.388458,431.608215 316.700104,437.317291 298.078583,439.965057 
	C296.148712,440.239471 294.203125,440.403259 292.368805,440.606812 
	C297.585999,432.590485 302.303528,424.389343 307.969574,416.906403 
	C313.527771,409.565826 321.634186,406.304565 330.559204,409.122162 
	C338.079102,411.496094 345.058502,415.582214 352.527313,419.122314 
z"/>
<path fill="#FFB552" opacity="1.000000" stroke="none" 
	d="
M401.994019,368.947021 
	C401.582672,357.294891 407.074524,349.199036 415.519440,342.638824 
	C419.684570,339.403229 423.824615,336.135345 428.407379,333.187164 
	C424.539307,351.162872 416.247681,366.863831 403.596039,381.164032 
	C403.062622,377.245819 402.529205,373.327637 401.994019,368.947021 
z"/>
<path fill="#E6802C" opacity="1.000000" stroke="none" 
	d="
M439.669861,313.278198 
	C438.053925,319.498077 436.040955,325.015259 431.250031,329.048706 
	C431.901917,313.712921 432.544769,298.589508 433.165161,283.994568 
	C438.582764,288.644440 440.882782,297.968384 439.669861,313.278198 
z"/>
<path fill="#E6802C" opacity="1.000000" stroke="none" 
	d="
M281.889191,443.973450 
	C279.843964,443.767456 278.190674,443.548615 276.537384,443.329773 
	C276.564941,442.995605 276.592499,442.661438 276.620056,442.327301 
	C280.238892,441.947662 283.857727,441.567993 287.476562,441.188354 
	C287.584900,441.553864 287.693268,441.919403 287.801636,442.284912 
	C285.961456,442.843475 284.121307,443.402008 281.889191,443.973450 
z"/>
<path fill="#F2A553" opacity="1.000000" stroke="none" 
	d="
M378.008728,248.670242 
	C364.782715,255.690399 351.184113,255.854736 337.440948,250.892334 
	C334.042786,249.665314 330.752014,247.848724 327.787476,245.768021 
	C319.089935,239.663437 318.808838,229.892166 327.000885,223.045898 
	C334.269135,216.971680 342.924622,214.261383 352.548035,212.992111 
	C353.415649,212.980087 353.878326,212.994095 354.924988,213.247314 
	C368.499176,221.380371 377.443359,231.919159 378.022369,247.926270 
	C378.022369,247.926270 378.011383,248.422226 378.008728,248.670242 
z"/>
<path fill="#F2983C" opacity="1.000000" stroke="none" 
	d="
M225.048676,305.965820 
	C225.038620,308.458771 225.041901,310.951874 225.016190,313.444641 
	C224.904846,324.239136 218.662369,331.368805 209.623520,332.114227 
	C198.350128,333.043884 188.794769,323.756134 187.959534,313.857605 
	C186.872818,300.978516 199.103165,289.362915 211.703262,291.192505 
	C212.507614,291.611755 212.738007,291.829071 212.994553,292.411072 
	C213.976715,299.304016 218.160645,302.905701 224.219360,305.125000 
	C224.634857,305.489288 224.850388,305.719482 225.048676,305.965820 
z"/>
<path fill="#FFC672" opacity="1.000000" stroke="none" 
	d="
M212.985687,292.028046 
	C212.738007,291.829071 212.507614,291.611755 212.142365,291.193451 
	C212.330399,279.681549 218.529282,271.003693 225.105026,262.591034 
	C228.253296,258.563324 231.942825,254.958633 235.703552,251.039703 
	C232.563599,263.932556 235.474014,276.228668 240.125641,288.372559 
	C241.609543,292.246552 242.701462,296.270721 244.026215,300.611206 
	C240.174515,302.661499 236.350800,304.577637 232.328934,305.883362 
	C230.396896,306.510620 228.090530,305.984894 225.501190,305.973572 
	C224.850388,305.719482 224.634857,305.489288 224.186249,304.756042 
	C222.422150,298.265808 219.185654,293.813751 212.985687,292.028046 
z"/>
<path fill="#F2993D" opacity="1.000000" stroke="none" 
	d="
M378.312103,247.770386 
	C377.443359,231.919159 368.499176,221.380371 355.271637,213.255020 
	C361.304077,214.187286 367.953766,214.396805 373.765747,216.710495 
	C386.446350,221.758499 391.588562,238.565964 378.312103,247.770386 
z"/>
<path fill="#F2993D" opacity="1.000000" stroke="none" 
	d="
M142.505936,157.614624 
	C139.849442,159.014877 137.598419,160.522934 135.120026,161.347733 
	C131.148514,162.669464 128.098297,160.076645 129.331848,156.219162 
	C132.047729,147.726257 137.843384,141.717972 146.083313,138.416824 
	C147.730301,137.757019 150.886368,138.224808 151.918976,139.413162 
	C152.951065,140.600937 152.993927,143.852600 152.068848,145.309647 
	C149.356125,149.582336 145.946198,153.412399 142.505936,157.614624 
z"/>
<path fill="#F2993D" opacity="1.000000" stroke="none" 
	d="
M131.740570,502.096680 
	C131.233597,498.703064 130.929398,495.616241 130.625198,492.529388 
	C133.830566,493.041992 137.361404,492.870789 140.173645,494.209320 
	C146.050690,497.006653 150.225204,501.860107 152.315475,508.070282 
	C152.909027,509.833710 152.684372,512.645447 151.600098,513.950806 
	C150.765076,514.956116 147.811554,514.920349 146.120300,514.367615 
	C139.855164,512.319824 135.505569,507.776123 131.740570,502.096680 
z"/>
<path fill="#F2993D" opacity="1.000000" stroke="none" 
	d="
M89.361504,243.227997 
	C87.839035,245.454941 86.820045,247.787628 85.047241,249.108856 
	C83.538681,250.233185 81.040749,250.794571 79.217171,250.427963 
	C78.218025,250.227097 77.184006,247.628128 77.066154,246.043549 
	C76.425362,237.427750 79.159271,229.933029 85.574310,224.061996 
	C86.713280,223.019623 89.106422,222.198898 90.322723,222.706909 
	C91.585320,223.234238 93.012970,225.626129 92.819572,226.981583 
	C92.056007,232.333221 90.684242,237.598068 89.361504,243.227997 
z"/>
<path fill="#F2983C" opacity="1.000000" stroke="none" 
	d="
M309.084656,80.180664 
	C307.211334,78.277107 304.764923,76.610161 304.547546,74.690765 
	C304.408600,73.464020 307.341278,71.234360 309.284027,70.544258 
	C316.370117,68.027115 323.652069,68.014915 330.659607,70.853493 
	C332.340668,71.534439 334.540771,73.687424 334.506836,75.115982 
	C334.468811,76.716133 332.475464,78.911209 330.791656,79.718735 
	C323.856201,83.044884 316.641113,82.623596 309.084656,80.180664 
z"/>
<path fill="#F2993D" opacity="1.000000" stroke="none" 
	d="
M262.667877,226.016815 
	C255.581787,231.943878 248.116898,237.899597 240.313629,243.928772 
	C244.427460,234.306442 252.442825,229.038376 262.667877,226.016815 
z"/>
<path fill="#F1983C" opacity="1.000000" stroke="none" 
	d="
M193.989609,424.010071 
	C193.717407,423.925842 193.453064,423.834015 193.188736,423.742188 
	C193.393692,423.745056 193.598633,423.747925 193.906036,423.868500 
	C194.008499,423.986206 193.997482,424.002441 193.989609,424.010071 
z"/>
<path fill="#F2993D" opacity="1.000000" stroke="none" 
	d="
M239.803772,244.191528 
	C239.777527,244.514099 239.553162,245.052689 239.120270,245.802887 
	C239.143051,245.478851 239.374344,244.943207 239.803772,244.191528 
z"/>
<path fill="#F2993D" opacity="1.000000" stroke="none" 
	d="
M343.534485,581.942627 
	C340.170807,581.272949 336.231232,580.786255 336.778900,577.094788 
	C337.112030,574.849365 340.144470,571.777100 342.437561,571.286072 
	C348.654480,569.954895 355.119049,569.488525 361.496277,569.391235 
	C363.218292,569.364929 366.062653,571.646912 366.407684,573.286865 
	C366.732513,574.830688 364.864441,577.546631 363.223694,578.664917 
	C357.407928,582.628845 350.618866,582.152649 343.534485,581.942627 
z"/>
<path fill="#F2993D" opacity="1.000000" stroke="none" 
	d="
M512.033081,170.879593 
	C512.994568,166.165924 514.979309,165.045532 518.956482,166.558884 
	C524.774414,168.772614 532.996338,180.333023 532.907593,186.585617 
	C532.884460,188.215347 532.238831,190.769653 531.166687,191.226257 
	C529.663269,191.866486 527.147034,191.502594 525.666809,190.590240 
	C518.439636,186.135529 514.006042,179.542084 512.033081,170.879593 
z"/>
<path fill="#F2993D" opacity="1.000000" stroke="none" 
	d="
M575.196533,315.822479 
	C571.882263,321.236725 568.550598,321.387543 565.970093,316.272064 
	C562.470703,309.334747 561.906921,301.876099 563.993591,294.445465 
	C564.538208,292.505981 566.976624,289.541229 568.197144,289.701324 
	C570.195618,289.963440 572.575012,292.041199 573.621887,293.984406 
	C577.282593,300.779388 576.367737,308.145050 575.196533,315.822479 
z"/>
<path fill="#F2993D" opacity="1.000000" stroke="none" 
	d="
M504.730713,485.766296 
	C507.990692,483.212067 510.820343,480.599396 514.086243,478.761993 
	C515.504211,477.964325 518.418274,478.062042 519.556152,479.035248 
	C520.654419,479.974487 521.027893,482.775116 520.531677,484.393768 
	C518.031433,492.549011 512.646362,498.501526 505.043152,502.214966 
	C503.608459,502.915710 500.774719,502.620667 499.672058,501.605743 
	C498.574677,500.595703 498.058990,497.770996 498.668335,496.322571 
	C500.186676,492.713348 502.489471,489.434143 504.730713,485.766296 
z"/>
<path fill="#E97C26" opacity="1.000000" stroke="none" 
	d="
M252.064575,118.721985 
	C255.130905,121.471458 254.174240,124.103508 251.551468,125.402275 
	C247.752274,127.283630 243.591660,128.631927 239.437027,129.491028 
	C237.999146,129.788345 236.119186,127.947853 234.441132,127.083855 
	C235.226654,125.564651 235.678864,123.108955 236.855957,122.690010 
	C241.689056,120.969872 246.742783,119.869659 252.064575,118.721985 
z"/>
<path fill="#E97C26" opacity="1.000000" stroke="none" 
	d="
M410.073975,527.448792 
	C406.618256,527.082520 403.554199,526.593018 400.490112,526.103516 
	C402.680969,523.632996 404.514923,520.629944 407.169281,518.851257 
	C409.529114,517.269958 412.759735,516.783386 415.685364,516.352234 
	C416.856567,516.179565 418.993286,517.173645 419.340973,518.128235 
	C419.799683,519.387695 419.460175,521.791016 418.529419,522.537231 
	C416.114288,524.473572 413.187927,525.772339 410.073975,527.448792 
z"/>
<path fill="#E97C26" opacity="1.000000" stroke="none" 
	d="
M520.602905,391.873016 
	C523.225647,389.179108 525.692200,386.843842 528.158752,384.508545 
	C528.482849,388.038605 529.410095,391.652771 528.933350,395.071136 
	C528.575562,397.636749 526.635132,400.123138 524.948242,402.294403 
	C524.242737,403.202484 522.127319,403.833038 521.097168,403.436249 
	C520.109741,403.055939 519.114685,401.162994 519.152710,399.967560 
	C519.234985,397.377838 519.975403,394.808990 520.602905,391.873016 
z"/>
<path fill="#E97C26" opacity="1.000000" stroke="none" 
	d="
M424.360962,141.810318 
	C420.411987,139.756470 416.660065,138.035995 413.396515,135.648041 
	C412.145813,134.732880 412.010376,132.293518 411.366730,130.548706 
	C413.150940,130.057037 415.299133,128.683441 416.650238,129.241089 
	C420.513947,130.835770 424.217957,132.984177 427.630737,135.412399 
	C428.796692,136.242004 428.912048,138.548172 429.507446,140.179688 
	C427.922546,140.745605 426.337646,141.311554 424.360962,141.810318 
z"/>
<path fill="#E97C26" opacity="1.000000" stroke="none" 
	d="
M265.450867,538.935913 
	C260.354645,537.634460 255.594345,536.500183 251.035126,534.820129 
	C249.888885,534.397766 248.411362,531.705078 248.802643,530.972351 
	C249.508224,529.651062 251.487564,528.279602 252.973419,528.235779 
	C258.468994,528.073608 263.525574,529.649231 267.352875,533.900818 
	C269.457123,536.238342 269.219971,538.088196 265.450867,538.935913 
z"/>
<path fill="#E97C26" opacity="1.000000" stroke="none" 
	d="
M121.743958,405.605225 
	C119.413544,410.486359 117.563164,410.796021 114.749985,407.030426 
	C111.517303,402.703339 110.334991,397.785370 111.089317,392.461151 
	C111.574974,389.033234 114.296745,387.950623 116.020088,390.847107 
	C118.629120,395.232208 119.935829,400.392120 121.743958,405.605225 
z"/>
<path fill="#F2A553" opacity="1.000000" stroke="none" 
	d="
M212.994553,292.411072 
	C219.185654,293.813751 222.422150,298.265808 224.003510,304.605774 
	C218.160645,302.905701 213.976715,299.304016 212.994553,292.411072 
z"/>
</svg>