<svg version="1.1" id="Layer_1" xmlns="http://www.w3.org/2000/svg" xmlns:xlink="http://www.w3.org/1999/xlink" x="0px" y="0px"
	 width="100%" viewBox="0 0 2000 2000" enable-background="new 0 0 2000 2000" xml:space="preserve">
<path fill="#000000" opacity="1.000000" stroke="none" 
	d="
M1066.000000,2001.000000 
	C710.666687,2001.000000 355.833344,2001.000000 1.000000,2001.000000 
	C1.000000,1334.333374 1.000000,667.666687 1.000000,1.000000 
	C667.666687,1.000000 1334.333374,1.000000 2001.000000,1.000000 
	C2001.000000,667.666687 2001.000000,1334.333374 2001.000000,2001.000000 
	C1689.500000,2001.000000 1378.000000,2001.000000 1066.000000,2001.000000 
M1227.134399,964.006104 
	C1211.360474,963.985352 1195.586304,963.939392 1179.812622,963.989258 
	C1178.483032,963.993469 1177.155640,964.640076 1174.911377,964.999695 
	C1163.613281,964.932556 1152.315308,964.865417 1141.058105,964.015076 
	C1137.654541,954.695435 1134.251099,945.375854 1131.121338,935.416138 
	C1136.302734,930.570801 1141.420166,925.654724 1146.678467,920.894226 
	C1159.953491,908.875732 1173.313965,896.951782 1186.595093,884.940063 
	C1192.847534,879.285217 1198.511475,871.429443 1208.028564,879.989746 
	C1208.220215,880.162170 1208.701050,879.966187 1209.005493,880.067200 
	C1214.469360,881.880310 1219.197998,879.031311 1218.858887,873.408997 
	C1218.552856,868.337280 1217.797485,863.015747 1215.872314,858.371521 
	C1210.461670,845.319092 1201.994873,834.608276 1189.134888,828.001587 
	C1183.445923,825.079041 1176.464844,827.379639 1176.093994,832.383606 
	C1175.821045,836.065918 1176.195923,839.940674 1177.108032,843.519226 
	C1177.795532,846.217041 1177.421631,847.568970 1175.101929,848.993347 
	C1151.288818,863.615479 1127.526245,878.320129 1103.198364,892.667114 
	C1095.700928,885.526245 1088.203369,878.385376 1080.595093,871.138977 
	C1087.433716,855.741638 1094.452515,839.938660 1101.522095,824.021423 
	C1103.859131,824.021423 1106.020630,824.037170 1108.182007,824.018494 
	C1114.359619,823.965088 1116.684692,820.384888 1114.039062,814.883545 
	C1109.320923,805.072388 1092.818970,796.583862 1082.711060,796.106567 
	C1076.395874,795.808289 1073.825317,801.592651 1077.364014,806.991272 
	C1078.407227,808.582764 1079.527222,810.123840 1080.707520,811.825500 
	C1070.884521,826.246460 1061.008911,840.760498 1051.084351,855.240967 
	C1050.770874,855.698486 1049.952637,855.810242 1048.515991,855.917236 
	C1039.555542,853.572571 1030.595215,851.227905 1021.235413,848.778748 
	C1019.557922,834.606567 1017.653931,819.619507 1016.049072,804.600525 
	C1014.852417,793.401550 1014.099548,782.156006 1013.041321,770.941284 
	C1012.250244,762.557983 1012.182922,762.583313 1019.642273,758.785339 
	C1023.123657,757.012756 1025.753906,754.693970 1026.061768,750.325867 
	C1026.368164,745.979126 1022.791382,744.518005 1020.470703,742.211548 
	C1019.303955,741.052002 1017.389343,740.533875 1015.724365,740.003967 
	C1001.523682,735.485291 987.244263,735.438293 973.124084,740.088745 
	C968.580994,741.584961 963.773987,743.903381 963.083740,749.523132 
	C962.329346,755.665161 967.317139,757.719604 971.676392,759.983765 
	C972.520386,760.422180 973.429016,760.869812 974.351440,760.997314 
	C976.707886,761.322754 977.260864,762.516418 976.987549,764.804749 
	C976.463867,769.189392 976.266785,773.612976 975.933350,778.020325 
	C974.932983,791.243164 973.862610,804.461121 972.952209,817.690186 
	C972.129517,829.644348 971.481567,841.610535 970.762512,853.472351 
	C966.463013,854.933472 962.251099,856.364807 957.755188,857.144165 
	C949.637024,839.214417 941.518799,821.284668 933.151428,802.804565 
	C934.813171,801.326843 936.781006,799.968689 938.246948,798.195496 
	C941.797119,793.900940 939.868713,788.156921 934.535522,788.145996 
	C927.922058,788.132385 920.997070,788.363647 914.785095,790.323059 
	C909.447754,792.006470 904.503906,795.781433 900.160828,799.529419 
	C896.025269,803.098328 897.515015,807.785645 902.717957,809.243713 
	C905.187744,809.935852 907.830017,810.012878 910.582825,810.394714 
	C911.680969,814.891418 912.802490,819.550415 913.957458,824.201233 
	C917.974060,840.376343 922.002380,856.548645 925.376587,873.029419 
	C921.357849,875.918457 917.339050,878.807495 913.088745,881.862915 
	C887.653870,861.482300 862.198303,841.085083 836.737122,820.683350 
	C837.845520,818.095154 839.059326,816.129395 839.518188,814.000854 
	C840.368286,810.057678 842.022705,805.782288 838.716187,802.248840 
	C835.447083,798.755493 831.204041,799.280640 827.394653,801.054871 
	C822.353027,803.403198 817.006042,805.629272 812.796997,809.121277 
	C803.992676,816.425842 795.800171,824.629761 792.582214,836.073120 
	C791.659851,839.352966 791.832031,844.074524 793.613831,846.704712 
	C796.044983,850.293640 800.778259,849.721741 804.828064,848.083130 
	C807.326599,847.072083 809.841858,846.102417 812.362427,845.109131 
	C817.756042,851.098083 823.225647,856.979126 828.479797,863.046631 
	C838.425781,874.532410 848.215332,886.153503 858.135559,897.661743 
	C863.166138,903.497498 868.381348,909.174011 873.424805,914.998901 
	C875.080444,916.911072 875.968750,918.947632 873.954102,921.434814 
	C872.022522,923.819519 870.321411,924.532471 867.039612,923.608948 
	C850.060120,918.831055 832.965027,914.463684 815.909485,909.955872 
	C802.946472,906.529724 789.982422,903.107544 777.050720,899.692078 
	C777.050720,896.515259 777.107971,893.853760 777.037476,891.195679 
	C776.927551,887.054932 774.718628,883.356079 771.223999,882.416138 
	C768.478027,881.677551 764.109985,882.852661 761.925537,884.810303 
	C747.464905,897.769104 742.171570,914.610535 743.049011,933.565063 
	C743.295532,938.889954 748.975281,943.548279 752.530151,941.698547 
	C756.313782,939.729614 759.936646,937.082581 762.883972,934.015076 
	C764.634583,932.193176 765.394226,931.778198 767.631775,932.909729 
	C773.654663,935.955383 779.862854,938.632324 785.965759,941.522644 
	C803.846802,949.990845 821.690735,958.537720 839.593750,966.958984 
	C847.768066,970.804077 848.076416,970.771118 845.906006,979.114380 
	C841.892029,994.544800 841.557007,1010.244019 842.013611,1026.002808 
	C842.139465,1030.346313 843.122498,1034.665161 843.090942,1039.284912 
	C842.635254,1039.767334 842.270264,1040.465942 841.710693,1040.700439 
	C826.134888,1047.230225 810.539429,1053.712769 794.801208,1060.263794 
	C791.332031,1057.220947 788.648254,1051.852173 781.471375,1054.734009 
	C781.042114,1056.988892 780.247803,1059.777710 780.018127,1062.612305 
	C779.138306,1073.471436 782.856812,1083.052002 789.247559,1091.506714 
	C790.903687,1093.697754 794.945068,1096.160645 796.896912,1095.511230 
	C799.171753,1094.754395 800.798340,1090.889404 801.886597,1088.058105 
	C802.939026,1085.319824 803.137024,1082.637573 806.897339,1081.959351 
	C813.692017,1080.734375 820.399048,1079.025635 827.146729,1077.537231 
	C835.612793,1075.669434 844.082947,1073.820312 852.931702,1072.646362 
	C856.403687,1079.846680 859.875671,1087.046875 863.621338,1094.814697 
	C846.872925,1115.447021 829.597839,1136.728027 812.344604,1157.982056 
	C809.437622,1156.718994 806.738281,1154.774170 803.881531,1154.505859 
	C800.519531,1154.190308 795.995850,1154.218018 793.886597,1156.165894 
	C791.991455,1157.916260 791.430847,1162.919312 792.437378,1165.710205 
	C798.944153,1183.750854 811.497253,1196.233887 829.566040,1202.628052 
	C832.145386,1203.540771 836.369263,1202.020020 838.895081,1200.271729 
	C841.637207,1198.373657 841.861877,1194.895508 840.190796,1191.431396 
	C838.748108,1188.440918 838.050232,1185.090942 837.001404,1181.832764 
	C842.625366,1177.131592 848.274597,1172.515625 853.806396,1167.763062 
	C866.074158,1157.223877 878.245544,1146.572388 890.545166,1136.070557 
	C893.223877,1133.783325 896.274475,1131.931396 899.735107,1130.263794 
	C911.638550,1136.408691 923.541992,1142.553589 935.454773,1148.703369 
	C932.001404,1164.240723 928.359436,1180.626587 924.736450,1196.927002 
	C923.565491,1196.927002 923.000061,1196.771484 922.578064,1196.951782 
	C919.361511,1198.325928 914.980896,1198.929321 913.259216,1201.383789 
	C910.766968,1204.936523 914.242920,1208.270264 917.085693,1210.577026 
	C926.355774,1218.099365 937.196350,1220.920776 948.920166,1219.857178 
	C951.008118,1219.667847 953.985291,1217.403687 954.537964,1215.509766 
	C955.090332,1213.617310 953.215271,1210.942383 952.199036,1208.703735 
	C951.810791,1207.848389 950.938843,1207.131104 950.138306,1206.559814 
	C947.797546,1204.889771 947.952209,1203.100830 949.038025,1200.603027 
	C954.283081,1188.537109 959.190369,1176.323975 964.472595,1164.274902 
	C966.194885,1160.346436 968.688721,1156.755981 971.259155,1153.800293 
	C974.077454,1153.876831 976.895569,1154.008179 979.714172,1154.019165 
	C987.268799,1154.048828 987.169556,1154.052490 988.983398,1161.524536 
	C994.924011,1185.996826 1000.921143,1210.455566 1006.956055,1234.904785 
	C1007.909180,1238.766357 1008.411072,1241.964233 1003.274170,1243.384033 
	C1001.263611,1243.939575 999.446533,1245.880615 997.975159,1247.568726 
	C994.093018,1252.023071 994.036743,1256.780762 997.923950,1259.391235 
	C1000.282593,1260.975220 1003.039185,1262.102295 1005.763123,1262.982422 
	C1015.861633,1266.245483 1026.184082,1265.297485 1036.097046,1262.793579 
	C1043.105957,1261.023193 1050.554199,1259.133911 1055.655273,1252.963623 
	C1059.025024,1248.887329 1059.257568,1244.617310 1054.920044,1241.622925 
	C1051.233398,1239.077881 1046.712402,1237.741455 1041.065552,1235.196533 
	C1041.065552,1228.232300 1041.195435,1220.011475 1041.026001,1211.796997 
	C1040.880005,1204.723511 1040.471191,1197.652222 1040.040527,1190.588379 
	C1039.134644,1175.727783 1038.137939,1160.872803 1037.927368,1146.039795 
	C1039.810791,1145.374512 1041.694092,1144.709229 1043.285034,1144.147217 
	C1052.593018,1161.171875 1061.687622,1177.806396 1071.005859,1194.850098 
	C1069.817139,1195.891235 1068.197021,1196.664185 1067.673828,1197.901245 
	C1066.527344,1200.611694 1064.881836,1203.813843 1065.490234,1206.316772 
	C1065.896118,1207.986572 1069.894775,1209.894653 1072.181763,1209.771484 
	C1077.437012,1209.488525 1082.883057,1208.710205 1087.783081,1206.878906 
	C1094.202637,1204.479980 1100.480835,1201.323730 1104.433838,1195.137207 
	C1107.283691,1190.677002 1106.505859,1187.976685 1101.393677,1185.880005 
	C1099.810547,1185.230713 1097.964111,1185.003052 1096.234131,1184.984985 
	C1093.804565,1184.959595 1092.703003,1184.393188 1091.835083,1181.651245 
	C1086.432983,1164.585938 1080.633423,1147.646484 1074.990601,1130.739868 
	C1080.196655,1127.082764 1085.155518,1123.599365 1090.817871,1120.025879 
	C1114.037476,1136.016968 1137.204346,1152.085938 1160.534912,1167.913452 
	C1163.963257,1170.239136 1164.569702,1172.148804 1162.737915,1175.795410 
	C1160.580811,1180.089966 1159.701416,1184.708984 1163.368896,1188.891235 
	C1166.781982,1192.783447 1171.119263,1191.563721 1174.644165,1189.908936 
	C1191.734985,1181.885010 1203.070801,1168.531006 1207.819702,1150.342041 
	C1209.481567,1143.976196 1206.413696,1138.618652 1197.987793,1140.107666 
	C1194.026367,1140.807739 1190.321899,1142.961792 1185.783813,1144.737549 
	C1177.172974,1135.631470 1168.203247,1125.866699 1158.923828,1116.405640 
	C1148.082520,1105.351929 1136.970947,1094.562866 1126.432007,1083.150269 
	C1129.261841,1077.914917 1131.955322,1072.597290 1135.022217,1067.504761 
	C1135.744507,1066.305176 1137.961426,1064.929932 1139.092285,1065.215210 
	C1154.030640,1068.983521 1168.860840,1073.182251 1183.809814,1076.905151 
	C1187.290771,1077.771851 1187.916260,1079.313965 1188.176514,1082.534790 
	C1188.377075,1085.015503 1189.733521,1088.836304 1191.448730,1089.398438 
	C1193.595337,1090.101929 1197.209717,1088.768433 1199.190674,1087.115845 
	C1207.974731,1079.788208 1210.603271,1069.311157 1211.521240,1058.641602 
	C1211.796631,1055.439819 1212.444458,1049.659302 1207.031128,1048.557861 
	C1203.102051,1047.758423 1199.901978,1049.975464 1197.600342,1053.500732 
	C1197.108276,1054.254517 1194.675171,1054.468384 1193.560303,1053.974243 
	C1183.707031,1049.606934 1173.956055,1045.008789 1164.160889,1040.509277 
	C1158.204834,1037.773193 1152.224121,1035.090698 1146.186890,1032.353516 
	C1146.462158,1026.651611 1146.738525,1020.926697 1147.843628,1015.062317 
	C1176.711670,1009.366150 1205.579834,1003.669983 1234.450195,997.973328 
	C1235.707520,1000.525085 1236.569580,1003.003723 1238.026611,1005.060791 
	C1240.225464,1008.165039 1242.590210,1011.872253 1246.942139,1011.441162 
	C1251.173584,1011.021912 1253.597046,1008.224854 1255.234497,1003.883057 
	C1258.478271,995.282471 1259.034302,986.785767 1258.214355,977.685608 
	C1257.424438,968.919678 1255.088379,960.837952 1250.642578,953.542786 
	C1249.037109,950.908508 1245.152954,948.782349 1241.985962,948.210327 
	C1238.303955,947.545288 1236.121704,950.803284 1234.900024,954.327576 
	C1233.810303,957.471741 1232.400635,960.505066 1231.016968,963.867371 
	C1230.364014,963.929565 1229.221802,964.038391 1227.134399,964.006104 
z"/>
<path fill="#F2983C" opacity="1.000000" stroke="none" 
	d="
M1147.014893,1015.201782 
	C1146.738525,1020.926697 1146.462158,1026.651611 1146.186890,1032.353516 
	C1152.224121,1035.090698 1158.204834,1037.773193 1164.160889,1040.509277 
	C1173.956055,1045.008789 1183.707031,1049.606934 1193.560303,1053.974243 
	C1194.675171,1054.468384 1197.108276,1054.254517 1197.600342,1053.500732 
	C1199.901978,1049.975464 1203.102051,1047.758423 1207.031128,1048.557861 
	C1212.444458,1049.659302 1211.796631,1055.439819 1211.521240,1058.641602 
	C1210.603271,1069.311157 1207.974731,1079.788208 1199.190674,1087.115845 
	C1197.209717,1088.768433 1193.595337,1090.101929 1191.448730,1089.398438 
	C1189.733521,1088.836304 1188.377075,1085.015503 1188.176514,1082.534790 
	C1187.916260,1079.313965 1187.290771,1077.771851 1183.809814,1076.905151 
	C1168.860840,1073.182251 1154.030640,1068.983521 1139.092285,1065.215210 
	C1137.961426,1064.929932 1135.744507,1066.305176 1135.022217,1067.504761 
	C1131.955322,1072.597290 1129.261841,1077.914917 1125.940308,1083.634277 
	C1115.289917,1097.707153 1103.861084,1110.049194 1090.114258,1120.115967 
	C1085.155518,1123.599365 1080.196655,1127.082764 1074.990601,1130.739868 
	C1080.633423,1147.646484 1086.432983,1164.585938 1091.835083,1181.651245 
	C1092.703003,1184.393188 1093.804565,1184.959595 1096.234131,1184.984985 
	C1097.964111,1185.003052 1099.810547,1185.230713 1101.393677,1185.880005 
	C1106.505859,1187.976685 1107.283691,1190.677002 1104.433838,1195.137207 
	C1100.480835,1201.323730 1094.202637,1204.479980 1087.783081,1206.878906 
	C1082.883057,1208.710205 1077.437012,1209.488525 1072.181763,1209.771484 
	C1069.894775,1209.894653 1065.896118,1207.986572 1065.490234,1206.316772 
	C1064.881836,1203.813843 1066.527344,1200.611694 1067.673828,1197.901245 
	C1068.197021,1196.664185 1069.817139,1195.891235 1071.005859,1194.850098 
	C1061.687622,1177.806396 1052.593018,1161.171875 1043.285034,1144.147217 
	C1041.694092,1144.709229 1039.810791,1145.374512 1037.159180,1146.095703 
	C1025.641357,1148.146118 1014.962341,1150.817505 1004.122742,1151.946167 
	C993.107483,1153.093140 981.933838,1152.718994 970.829590,1153.010986 
	C968.688721,1156.755981 966.194885,1160.346436 964.472595,1164.274902 
	C959.190369,1176.323975 954.283081,1188.537109 949.038025,1200.603027 
	C947.952209,1203.100830 947.797546,1204.889771 950.138306,1206.559814 
	C950.938843,1207.131104 951.810791,1207.848389 952.199036,1208.703735 
	C953.215271,1210.942383 955.090332,1213.617310 954.537964,1215.509766 
	C953.985291,1217.403687 951.008118,1219.667847 948.920166,1219.857178 
	C937.196350,1220.920776 926.355774,1218.099365 917.085693,1210.577026 
	C914.242920,1208.270264 910.766968,1204.936523 913.259216,1201.383789 
	C914.980896,1198.929321 919.361511,1198.325928 922.578064,1196.951782 
	C923.000061,1196.771484 923.565491,1196.927002 924.736450,1196.927002 
	C928.359436,1180.626587 932.001404,1164.240723 935.454773,1148.703369 
	C923.541992,1142.553589 911.638550,1136.408691 899.218506,1129.816284 
	C890.695129,1122.289673 882.520020,1115.387695 874.778076,1108.029907 
	C872.262817,1105.639526 870.880005,1102.057495 868.987915,1099.011963 
	C868.996643,1099.003418 869.009644,1098.985352 869.362976,1099.056030 
	C888.415771,1108.792725 908.173462,1114.917847 929.210938,1116.469849 
	C935.034607,1116.899658 940.916870,1116.535400 946.178101,1116.535400 
	C944.536438,1111.430664 942.647156,1106.661865 941.493103,1101.721436 
	C939.510681,1093.234497 934.655823,1087.323486 926.602722,1084.311401 
	C919.602295,1081.692993 912.418152,1079.561768 905.299316,1077.264404 
	C893.982666,1073.612671 886.145508,1066.346436 881.649292,1055.271362 
	C875.259155,1039.531372 880.826965,1025.472534 896.378906,1018.682312 
	C899.735413,1017.216858 903.169861,1015.899414 906.418396,1014.223206 
	C915.629639,1009.470215 920.652893,1001.835266 920.914307,991.459412 
	C921.043518,986.333740 920.391296,981.188293 920.453003,976.014404 
	C922.197693,975.440125 923.590576,974.924316 924.964844,974.363037 
	C935.104675,970.221375 945.047546,965.486755 955.421021,962.052002 
	C973.411560,956.095398 992.201538,957.246033 1010.832947,956.817688 
	C1018.354004,956.644714 1026.034912,955.056091 1033.263916,952.862488 
	C1040.724243,950.598755 1046.744629,945.708191 1050.312134,938.159302 
	C1050.531128,938.088013 1050.971680,937.954041 1051.421265,937.962646 
	C1053.700684,937.916260 1055.550171,938.014038 1057.357422,937.782471 
	C1074.499390,935.586670 1089.574585,940.261597 1102.786865,951.277771 
	C1103.561523,951.923706 1104.501709,952.371155 1105.582642,953.047180 
	C1105.782715,952.030457 1105.947632,951.551331 1105.956055,951.069519 
	C1105.970581,950.239685 1105.965088,949.395813 1105.834473,948.579163 
	C1101.438843,921.083679 1092.406372,895.360840 1076.177856,872.513977 
	C1074.045166,869.511658 1070.962769,866.847534 1067.754883,865.018616 
	C1061.848267,861.651123 1055.521484,859.020691 1049.369751,856.083130 
	C1049.952637,855.810242 1050.770874,855.698486 1051.084351,855.240967 
	C1061.008911,840.760498 1070.884521,826.246460 1080.707520,811.825500 
	C1079.527222,810.123840 1078.407227,808.582764 1077.364014,806.991272 
	C1073.825317,801.592651 1076.395874,795.808289 1082.711060,796.106567 
	C1092.818970,796.583862 1109.320923,805.072388 1114.039062,814.883545 
	C1116.684692,820.384888 1114.359619,823.965088 1108.182007,824.018494 
	C1106.020630,824.037170 1103.859131,824.021423 1101.522095,824.021423 
	C1094.452515,839.938660 1087.433716,855.741638 1080.595093,871.138977 
	C1088.203369,878.385376 1095.700928,885.526245 1103.607056,893.154419 
	C1114.719971,906.666321 1124.172363,920.482849 1130.847656,936.056213 
	C1134.251099,945.375854 1137.654541,954.695435 1141.049927,964.818359 
	C1145.178711,981.889832 1146.685547,998.474854 1147.014893,1015.201782 
M1046.014404,1105.533081 
	C1049.258301,1106.814941 1052.398682,1108.603149 1055.764038,1109.290283 
	C1069.743164,1112.143555 1081.306152,1108.517212 1084.066162,1091.742432 
	C1085.133911,1085.252808 1083.811279,1078.261108 1082.891724,1071.592773 
	C1082.306763,1067.352173 1080.459961,1063.285645 1078.843140,1058.053955 
	C1064.749634,1074.143921 1049.389648,1086.525146 1030.426880,1096.560303 
	C1036.227173,1099.918213 1040.785156,1102.556885 1046.014404,1105.533081 
M987.206116,1087.567139 
	C980.490479,1096.781738 973.774841,1105.996338 966.669678,1115.745483 
	C989.239746,1113.076538 1009.856201,1107.041870 1030.644165,1096.185059 
	C1025.227417,1092.947754 1021.158264,1090.157104 1016.785034,1087.976074 
	C1007.324768,1083.258179 997.647888,1081.209229 987.206116,1087.567139 
M1100.265747,1019.735535 
	C1101.492310,1015.962341 1102.718750,1012.189148 1104.320801,1007.260620 
	C1079.053345,1024.855591 1070.941040,1041.323975 1079.729370,1056.377563 
	C1088.743652,1045.529663 1095.110718,1033.426025 1100.265747,1019.735535 
M1105.941162,999.953552 
	C1105.768677,1001.246643 1105.596191,1002.539734 1105.331543,1004.523743 
	C1117.515259,994.458801 1118.366089,969.124512 1108.411255,959.109497 
	C1107.648560,972.013794 1106.845703,985.597046 1105.941162,999.953552 
M1077.313110,1202.765625 
	C1083.276001,1203.848633 1088.504639,1202.080322 1092.915283,1198.196411 
	C1094.031616,1197.213257 1094.773804,1194.952637 1094.485596,1193.520752 
	C1094.286865,1192.532959 1091.647583,1191.008301 1090.739258,1191.363037 
	C1085.932739,1193.240723 1081.245361,1195.488525 1076.746094,1198.016235 
	C1076.074097,1198.393677 1076.615112,1200.930420 1077.313110,1202.765625 
M927.907593,1203.088989 
	C926.462280,1204.009888 925.016968,1204.930786 923.571716,1205.851807 
	C924.628235,1207.401489 925.362915,1209.790771 926.802063,1210.342651 
	C931.003113,1211.953369 935.451660,1213.003662 939.882202,1213.869141 
	C940.942139,1214.076050 943.062744,1212.930420 943.333496,1212.007324 
	C943.631958,1210.989624 942.692444,1208.818726 941.718384,1208.354492 
	C937.495667,1206.342285 933.063416,1204.770142 927.907593,1203.088989 
M1097.211060,806.072571 
	C1095.027588,805.380981 1092.878662,804.350159 1090.647949,804.122681 
	C1089.269409,803.982178 1086.970093,804.709534 1086.531616,805.692810 
	C1086.044312,806.785522 1086.791382,808.978821 1087.735718,810.037476 
	C1089.355225,811.852966 1091.361084,813.543152 1093.539062,814.590454 
	C1096.956909,816.234009 1101.684448,819.481628 1104.097046,815.191284 
	C1106.200684,811.450439 1101.399292,808.839539 1098.322144,806.660767 
	C1098.187988,806.565796 1098.032349,806.501221 1097.211060,806.072571 
M1203.995728,1059.994019 
	C1202.427002,1060.390137 1199.937622,1060.313110 1199.448608,1061.264282 
	C1197.313354,1065.417969 1195.514771,1069.796143 1194.159180,1074.264282 
	C1193.806274,1075.427124 1195.247070,1078.189697 1196.306030,1078.455322 
	C1197.598389,1078.779297 1199.891479,1077.653564 1200.818726,1076.441162 
	C1204.373779,1071.793091 1206.063599,1066.526245 1203.995728,1059.994019 
z"/>
<path fill="#FFB654" opacity="1.000000" stroke="none" 
	d="
M868.979248,1099.020508 
	C870.880005,1102.057495 872.262817,1105.639526 874.778076,1108.029907 
	C882.520020,1115.387695 890.695129,1122.289673 898.927856,1129.623779 
	C896.274475,1131.931396 893.223877,1133.783325 890.545166,1136.070557 
	C878.245544,1146.572388 866.074158,1157.223877 853.806396,1167.763062 
	C848.274597,1172.515625 842.625366,1177.131592 837.001404,1181.832764 
	C838.050232,1185.090942 838.748108,1188.440918 840.190796,1191.431396 
	C841.861877,1194.895508 841.637207,1198.373657 838.895081,1200.271729 
	C836.369263,1202.020020 832.145386,1203.540771 829.566040,1202.628052 
	C811.497253,1196.233887 798.944153,1183.750854 792.437378,1165.710205 
	C791.430847,1162.919312 791.991455,1157.916260 793.886597,1156.165894 
	C795.995850,1154.218018 800.519531,1154.190308 803.881531,1154.505859 
	C806.738281,1154.774170 809.437622,1156.718994 812.344604,1157.982056 
	C829.597839,1136.728027 846.872925,1115.447021 863.621338,1094.814697 
	C859.875671,1087.046875 856.403687,1079.846680 852.730225,1071.958252 
	C849.589966,1060.511841 846.651123,1049.753540 843.712280,1038.995239 
	C843.122498,1034.665161 842.139465,1030.346313 842.013611,1026.002808 
	C841.557007,1010.244019 841.892029,994.544800 845.906006,979.114380 
	C848.076416,970.771118 847.768066,970.804077 839.593750,966.958984 
	C821.690735,958.537720 803.846802,949.990845 785.965759,941.522644 
	C779.862854,938.632324 773.654663,935.955383 767.631775,932.909729 
	C765.394226,931.778198 764.634583,932.193176 762.883972,934.015076 
	C759.936646,937.082581 756.313782,939.729614 752.530151,941.698547 
	C748.975281,943.548279 743.295532,938.889954 743.049011,933.565063 
	C742.171570,914.610535 747.464905,897.769104 761.925537,884.810303 
	C764.109985,882.852661 768.478027,881.677551 771.223999,882.416138 
	C774.718628,883.356079 776.927551,887.054932 777.037476,891.195679 
	C777.107971,893.853760 777.050720,896.515259 777.050720,899.692078 
	C789.982422,903.107544 802.946472,906.529724 815.909485,909.955872 
	C832.965027,914.463684 850.060120,918.831055 867.039612,923.608948 
	C870.321411,924.532471 872.022522,923.819519 873.954102,921.434814 
	C875.968750,918.947632 875.080444,916.911072 873.424805,914.998901 
	C868.381348,909.174011 863.166138,903.497498 858.135559,897.661743 
	C848.215332,886.153503 838.425781,874.532410 828.479797,863.046631 
	C823.225647,856.979126 817.756042,851.098083 812.362427,845.109131 
	C809.841858,846.102417 807.326599,847.072083 804.828064,848.083130 
	C800.778259,849.721741 796.044983,850.293640 793.613831,846.704712 
	C791.832031,844.074524 791.659851,839.352966 792.582214,836.073120 
	C795.800171,824.629761 803.992676,816.425842 812.796997,809.121277 
	C817.006042,805.629272 822.353027,803.403198 827.394653,801.054871 
	C831.204041,799.280640 835.447083,798.755493 838.716187,802.248840 
	C842.022705,805.782288 840.368286,810.057678 839.518188,814.000854 
	C839.059326,816.129395 837.845520,818.095154 836.737122,820.683350 
	C862.198303,841.085083 887.653870,861.482300 913.088745,881.862915 
	C917.339050,878.807495 921.357849,875.918457 926.036194,872.852173 
	C937.143616,867.715332 947.591431,862.755737 958.039185,857.796143 
	C962.251099,856.364807 966.463013,854.933472 970.762512,853.472351 
	C971.481567,841.610535 972.129517,829.644348 972.952209,817.690186 
	C973.862610,804.461121 974.932983,791.243164 975.933350,778.020325 
	C976.266785,773.612976 976.463867,769.189392 976.987549,764.804749 
	C977.260864,762.516418 976.707886,761.322754 974.351440,760.997314 
	C973.429016,760.869812 972.520386,760.422180 971.676392,759.983765 
	C967.317139,757.719604 962.329346,755.665161 963.083740,749.523132 
	C963.773987,743.903381 968.580994,741.584961 973.124084,740.088745 
	C987.244263,735.438293 1001.523682,735.485291 1015.724365,740.003967 
	C1017.389343,740.533875 1019.303955,741.052002 1020.470703,742.211548 
	C1022.791382,744.518005 1026.368164,745.979126 1026.061768,750.325867 
	C1025.753906,754.693970 1023.123657,757.012756 1019.642273,758.785339 
	C1012.182922,762.583313 1012.250244,762.557983 1013.041321,770.941284 
	C1014.099548,782.156006 1014.852417,793.401550 1016.049072,804.600525 
	C1017.653931,819.619507 1019.557922,834.606567 1021.235413,848.778748 
	C1030.595215,851.227905 1039.555542,853.572571 1048.942871,856.000183 
	C1055.521484,859.020691 1061.848267,861.651123 1067.754883,865.018616 
	C1070.962769,866.847534 1074.045166,869.511658 1076.177856,872.513977 
	C1092.406372,895.360840 1101.438843,921.083679 1105.834473,948.579163 
	C1105.965088,949.395813 1105.970581,950.239685 1105.956055,951.069519 
	C1105.947632,951.551331 1105.782715,952.030457 1105.582642,953.047180 
	C1104.501709,952.371155 1103.561523,951.923706 1102.786865,951.277771 
	C1089.574585,940.261597 1074.499390,935.586670 1057.357422,937.782471 
	C1055.550171,938.014038 1053.700684,937.916260 1051.459473,937.572083 
	C1051.700439,932.755127 1052.352661,928.337341 1053.007568,923.669800 
	C1053.010254,923.420105 1053.021240,922.920898 1053.312012,922.766479 
	C1064.075684,913.571533 1063.305542,901.211487 1051.874390,893.516113 
	C1045.227661,889.041687 1037.867310,887.663940 1029.666016,888.021240 
	C1028.553223,888.018188 1027.812134,888.019775 1026.809082,887.773193 
	C1020.486023,886.015930 1014.499268,883.726685 1008.350037,883.140259 
	C987.791565,881.179810 968.534912,886.406067 950.150513,895.237976 
	C947.886780,896.325439 946.073608,898.350830 943.626953,899.954590 
	C940.003967,900.705688 936.673279,901.093750 933.630920,902.244263 
	C922.351746,906.509644 915.401611,915.036743 910.767883,926.144958 
	C907.215698,929.811890 903.662109,933.084167 900.767456,936.861328 
	C894.105652,945.554382 887.789307,954.504883 886.558167,966.008789 
	C869.855225,964.723022 857.397217,981.919067 865.440613,996.886658 
	C869.300537,1004.069702 878.402588,1008.334839 887.052795,1006.889465 
	C893.393616,1005.830017 898.828430,999.425110 899.793152,991.410522 
	C900.207458,987.968323 899.984558,984.449402 900.503784,980.972412 
	C903.092896,980.982849 905.398865,981.508179 907.330322,980.880798 
	C911.350769,979.574768 915.172913,977.658447 919.330688,976.006287 
	C919.754028,976.030334 919.923340,976.041077 920.092651,976.051819 
	C920.391296,981.188293 921.043518,986.333740 920.914307,991.459412 
	C920.652893,1001.835266 915.629639,1009.470215 906.418396,1014.223206 
	C903.169861,1015.899414 899.735413,1017.216858 896.378906,1018.682312 
	C880.826965,1025.472534 875.259155,1039.531372 881.649292,1055.271362 
	C886.145508,1066.346436 893.982666,1073.612671 905.299316,1077.264404 
	C912.418152,1079.561768 919.602295,1081.692993 926.602722,1084.311401 
	C934.655823,1087.323486 939.510681,1093.234497 941.493103,1101.721436 
	C942.647156,1106.661865 944.536438,1111.430664 946.178101,1116.535400 
	C940.916870,1116.535400 935.034607,1116.899658 929.210938,1116.469849 
	C908.173462,1114.917847 888.415771,1108.792725 869.260193,1098.937500 
	C868.597412,1098.745728 868.390686,1098.743042 868.184021,1098.740356 
	C868.449097,1098.833740 868.714172,1098.927124 868.979248,1099.020508 
M817.033813,815.318848 
	C813.032349,819.871582 808.769836,824.232483 805.195557,829.098938 
	C804.180664,830.480713 804.367188,834.059021 805.482483,835.297668 
	C806.469482,836.393860 810.161926,836.531982 811.532898,835.538269 
	C816.415894,831.998840 821.323914,828.223511 825.181519,823.658020 
	C827.009583,821.494446 826.482544,817.341064 827.022522,814.089172 
	C823.906006,814.364807 820.789490,814.640442 817.033813,815.318848 
M825.989990,1189.649780 
	C826.573303,1187.757568 827.913879,1185.731323 827.606567,1183.996948 
	C826.389160,1177.127441 816.558472,1167.904175 809.791321,1166.736816 
	C805.908630,1166.067017 804.318726,1167.769775 804.654358,1171.662964 
	C805.220581,1178.229858 817.338867,1191.223267 825.989990,1189.649780 
M757.150757,902.730225 
	C755.421936,908.510193 753.436279,914.233093 752.131042,920.107178 
	C751.770325,921.730469 753.342651,925.323364 754.187500,925.374390 
	C756.377686,925.506836 759.842651,924.826294 760.685181,923.302002 
	C763.603577,918.022217 766.188171,912.395264 767.728455,906.589661 
	C768.426758,903.957642 767.321045,899.190369 765.363037,897.871033 
	C761.798401,895.468994 759.904846,900.030579 757.150757,902.730225 
M979.374573,748.918213 
	C980.276733,750.705261 980.720459,753.408875 982.157043,754.127441 
	C990.202576,758.151428 998.594116,758.139282 1006.704590,754.313782 
	C1010.869873,752.349182 1010.679932,748.701599 1006.701599,746.346497 
	C999.792725,742.256531 986.401306,743.207520 979.374573,748.918213 
z"/>
<path fill="#FFB654" opacity="1.000000" stroke="none" 
	d="
M971.044373,1153.405518 
	C981.933838,1152.718994 993.107483,1153.093140 1004.122742,1151.946167 
	C1014.962341,1150.817505 1025.641357,1148.146118 1036.784668,1146.083496 
	C1038.137939,1160.872803 1039.134644,1175.727783 1040.040527,1190.588379 
	C1040.471191,1197.652222 1040.880005,1204.723511 1041.026001,1211.796997 
	C1041.195435,1220.011475 1041.065552,1228.232300 1041.065552,1235.196533 
	C1046.712402,1237.741455 1051.233398,1239.077881 1054.920044,1241.622925 
	C1059.257568,1244.617310 1059.025024,1248.887329 1055.655273,1252.963623 
	C1050.554199,1259.133911 1043.105957,1261.023193 1036.097046,1262.793579 
	C1026.184082,1265.297485 1015.861633,1266.245483 1005.763123,1262.982422 
	C1003.039185,1262.102295 1000.282593,1260.975220 997.923950,1259.391235 
	C994.036743,1256.780762 994.093018,1252.023071 997.975159,1247.568726 
	C999.446533,1245.880615 1001.263611,1243.939575 1003.274170,1243.384033 
	C1008.411072,1241.964233 1007.909180,1238.766357 1006.956055,1234.904785 
	C1000.921143,1210.455566 994.924011,1185.996826 988.983398,1161.524536 
	C987.169556,1154.052490 987.268799,1154.048828 979.714172,1154.019165 
	C976.895569,1154.008179 974.077454,1153.876831 971.044373,1153.405518 
M1011.494141,1251.602417 
	C1013.163025,1253.261230 1014.615356,1256.002319 1016.539124,1256.387329 
	C1023.992798,1257.878784 1031.555420,1257.642212 1038.292236,1253.589966 
	C1039.933105,1252.603027 1041.753296,1249.695679 1041.385010,1248.184448 
	C1040.982544,1246.532959 1038.121948,1244.343384 1036.358154,1244.365967 
	C1030.111816,1244.445801 1023.804810,1244.997803 1017.674133,1246.171875 
	C1015.446106,1246.598633 1013.648743,1249.274536 1011.494141,1251.602417 
z"/>
<path fill="#FFB654" opacity="1.000000" stroke="none" 
	d="
M1130.984497,935.736206 
	C1124.172363,920.482849 1114.719971,906.666321 1103.882690,893.321716 
	C1127.526245,878.320129 1151.288818,863.615479 1175.101929,848.993347 
	C1177.421631,847.568970 1177.795532,846.217041 1177.108032,843.519226 
	C1176.195923,839.940674 1175.821045,836.065918 1176.093994,832.383606 
	C1176.464844,827.379639 1183.445923,825.079041 1189.134888,828.001587 
	C1201.994873,834.608276 1210.461670,845.319092 1215.872314,858.371521 
	C1217.797485,863.015747 1218.552856,868.337280 1218.858887,873.408997 
	C1219.197998,879.031311 1214.469360,881.880310 1209.005493,880.067200 
	C1208.701050,879.966187 1208.220215,880.162170 1208.028564,879.989746 
	C1198.511475,871.429443 1192.847534,879.285217 1186.595093,884.940063 
	C1173.313965,896.951782 1159.953491,908.875732 1146.678467,920.894226 
	C1141.420166,925.654724 1136.302734,930.570801 1130.984497,935.736206 
M1195.587769,861.924133 
	C1197.035645,863.029785 1198.340942,864.486694 1199.969238,865.147644 
	C1201.802979,865.891907 1204.729248,866.871216 1205.731934,866.027222 
	C1207.118652,864.860046 1207.993530,861.917603 1207.617065,860.028442 
	C1206.124390,852.537354 1201.525024,846.804138 1195.433105,842.513794 
	C1193.746704,841.326111 1190.465210,841.115784 1188.601685,841.964050 
	C1187.534180,842.449951 1186.967651,846.350891 1187.706787,848.047180 
	C1189.731323,852.692932 1192.566650,856.985413 1195.587769,861.924133 
z"/>
<path fill="#FFB654" opacity="1.000000" stroke="none" 
	d="
M1147.429199,1015.132080 
	C1146.685547,998.474854 1145.178711,981.889832 1141.029541,965.209961 
	C1152.315308,964.865417 1163.613281,964.932556 1175.849121,965.032349 
	C1192.274658,965.065674 1207.762695,965.093506 1223.250244,965.026978 
	C1224.861206,965.020081 1226.469727,964.453918 1228.079468,964.147217 
	C1229.221802,964.038391 1230.364014,963.929565 1231.016968,963.867371 
	C1232.400635,960.505066 1233.810303,957.471741 1234.900024,954.327576 
	C1236.121704,950.803284 1238.303955,947.545288 1241.985962,948.210327 
	C1245.152954,948.782349 1249.037109,950.908508 1250.642578,953.542786 
	C1255.088379,960.837952 1257.424438,968.919678 1258.214355,977.685608 
	C1259.034302,986.785767 1258.478271,995.282471 1255.234497,1003.883057 
	C1253.597046,1008.224854 1251.173584,1011.021912 1246.942139,1011.441162 
	C1242.590210,1011.872253 1240.225464,1008.165039 1238.026611,1005.060791 
	C1236.569580,1003.003723 1235.707520,1000.525085 1234.450195,997.973328 
	C1205.579834,1003.669983 1176.711670,1009.366150 1147.429199,1015.132080 
M1249.321411,970.476685 
	C1247.353027,968.429749 1245.384766,966.382812 1243.416382,964.335876 
	C1241.795532,966.806396 1238.890869,969.235840 1238.810303,971.755615 
	C1238.618896,977.742676 1239.301392,983.877136 1240.623901,989.727539 
	C1241.080444,991.746948 1244.475220,993.102234 1246.527832,994.760925 
	C1247.983276,992.513855 1250.564941,990.318115 1250.670166,988.009644 
	C1250.923462,982.445557 1250.018311,976.828674 1249.321411,970.476685 
z"/>
<path fill="#FFB654" opacity="1.000000" stroke="none" 
	d="
M1090.466064,1120.070923 
	C1103.861084,1110.049194 1115.289917,1097.707153 1125.712646,1083.888672 
	C1136.970947,1094.562866 1148.082520,1105.351929 1158.923828,1116.405640 
	C1168.203247,1125.866699 1177.172974,1135.631470 1185.783813,1144.737549 
	C1190.321899,1142.961792 1194.026367,1140.807739 1197.987793,1140.107666 
	C1206.413696,1138.618652 1209.481567,1143.976196 1207.819702,1150.342041 
	C1203.070801,1168.531006 1191.734985,1181.885010 1174.644165,1189.908936 
	C1171.119263,1191.563721 1166.781982,1192.783447 1163.368896,1188.891235 
	C1159.701416,1184.708984 1160.580811,1180.089966 1162.737915,1175.795410 
	C1164.569702,1172.148804 1163.963257,1170.239136 1160.534912,1167.913452 
	C1137.204346,1152.085938 1114.037476,1136.016968 1090.466064,1120.070923 
M1190.092651,1153.249390 
	C1182.106445,1156.625732 1176.843262,1162.632202 1174.080078,1170.680054 
	C1173.455078,1172.500366 1173.800415,1175.547485 1174.991699,1176.814697 
	C1175.942993,1177.826416 1179.221313,1177.692139 1180.840332,1176.854980 
	C1188.079346,1173.112549 1193.003906,1167.126831 1195.579956,1159.398071 
	C1196.970459,1155.226074 1195.579590,1153.589844 1190.092651,1153.249390 
z"/>
<path fill="#F2983C" opacity="1.000000" stroke="none" 
	d="
M957.897217,857.470154 
	C947.591431,862.755737 937.143616,867.715332 926.361023,872.698486 
	C922.002380,856.548645 917.974060,840.376343 913.957458,824.201233 
	C912.802490,819.550415 911.680969,814.891418 910.582825,810.394714 
	C907.830017,810.012878 905.187744,809.935852 902.717957,809.243713 
	C897.515015,807.785645 896.025269,803.098328 900.160828,799.529419 
	C904.503906,795.781433 909.447754,792.006470 914.785095,790.323059 
	C920.997070,788.363647 927.922058,788.132385 934.535522,788.145996 
	C939.868713,788.156921 941.797119,793.900940 938.246948,798.195496 
	C936.781006,799.968689 934.813171,801.326843 933.151428,802.804565 
	C941.518799,821.284668 949.637024,839.214417 957.897217,857.470154 
M920.462036,803.351257 
	C922.792358,802.112183 925.302429,801.108154 927.371155,799.526733 
	C928.293884,798.821411 928.829163,796.862305 928.604431,795.644836 
	C928.432312,794.712280 926.544189,793.200623 925.843933,793.404541 
	C920.706360,794.901001 915.629089,796.648315 910.662109,798.639282 
	C909.921143,798.936218 909.294861,801.131653 909.642212,802.067993 
	C909.974976,802.965149 911.609680,803.806641 912.732605,803.893799 
	C915.022461,804.071350 917.352966,803.725220 920.462036,803.351257 
z"/>
<path fill="#F2983C" opacity="1.000000" stroke="none" 
	d="
M843.401611,1039.140137 
	C846.651123,1049.753540 849.589966,1060.511841 852.540039,1071.616699 
	C844.082947,1073.820312 835.612793,1075.669434 827.146729,1077.537231 
	C820.399048,1079.025635 813.692017,1080.734375 806.897339,1081.959351 
	C803.137024,1082.637573 802.939026,1085.319824 801.886597,1088.058105 
	C800.798340,1090.889404 799.171753,1094.754395 796.896912,1095.511230 
	C794.945068,1096.160645 790.903687,1093.697754 789.247559,1091.506714 
	C782.856812,1083.052002 779.138306,1073.471436 780.018127,1062.612305 
	C780.247803,1059.777710 781.042114,1056.988892 781.471375,1054.734009 
	C788.648254,1051.852173 791.332031,1057.220947 794.801208,1060.263794 
	C810.539429,1053.712769 826.134888,1047.230225 841.710693,1040.700439 
	C842.270264,1040.465942 842.635254,1039.767334 843.401611,1039.140137 
z"/>
<path fill="#FFC672" opacity="1.000000" stroke="none" 
	d="
M1227.606934,964.076660 
	C1226.469727,964.453918 1224.861206,965.020081 1223.250244,965.026978 
	C1207.762695,965.093506 1192.274658,965.065674 1176.307007,965.026611 
	C1177.155640,964.640076 1178.483032,963.993469 1179.812622,963.989258 
	C1195.586304,963.939392 1211.360474,963.985352 1227.606934,964.076660 
z"/>
<path fill="#F2A553" opacity="1.000000" stroke="none" 
	d="
M911.065796,925.979614 
	C915.401611,915.036743 922.351746,906.509644 933.630920,902.244263 
	C936.673279,901.093750 940.003967,900.705688 944.085938,899.956482 
	C953.803467,899.395325 962.519104,900.102478 969.617371,905.895081 
	C976.029663,911.127808 982.215515,916.767517 987.775391,922.887146 
	C997.954590,934.090942 1009.375244,942.260498 1025.354492,940.981873 
	C1033.621216,940.320374 1041.848145,939.163635 1050.093140,938.230591 
	C1046.744629,945.708191 1040.724243,950.598755 1033.263916,952.862488 
	C1026.034912,955.056091 1018.354004,956.644714 1010.832947,956.817688 
	C992.201538,957.246033 973.411560,956.095398 955.421021,962.052002 
	C945.047546,965.486755 935.104675,970.221375 924.964844,974.363037 
	C923.590576,974.924316 922.197693,975.440125 920.453064,976.014404 
	C919.923340,976.041077 919.754028,976.030334 919.278259,975.621460 
	C917.574524,970.967285 916.317383,966.659119 914.753540,962.465149 
	C910.333008,950.610046 907.748657,938.602051 911.065796,925.979614 
z"/>
<path fill="#FFC672" opacity="1.000000" stroke="none" 
	d="
M1050.312134,938.159302 
	C1041.848145,939.163635 1033.621216,940.320374 1025.354492,940.981873 
	C1009.375244,942.260498 997.954590,934.090942 987.775391,922.887146 
	C982.215515,916.767517 976.029663,911.127808 969.617371,905.895081 
	C962.519104,900.102478 953.803467,899.395325 944.510620,899.943420 
	C946.073608,898.350830 947.886780,896.325439 950.150513,895.237976 
	C968.534912,886.406067 987.791565,881.179810 1008.350037,883.140259 
	C1014.499268,883.726685 1020.486023,886.015930 1026.411865,887.849182 
	C1017.435425,889.528381 1009.083984,892.110413 1002.078674,897.977417 
	C993.934998,904.797729 994.147888,914.691223 1002.761719,920.748901 
	C1005.725952,922.833496 1009.017944,924.652283 1012.417236,925.882690 
	C1026.166626,930.859680 1039.772095,930.687195 1053.004883,923.919495 
	C1052.352661,928.337341 1051.700439,932.755127 1051.009888,937.563477 
	C1050.971680,937.954041 1050.531128,938.088013 1050.312134,938.159302 
z"/>
<path fill="#E6802C" opacity="1.000000" stroke="none" 
	d="
M1045.678711,1105.364258 
	C1040.785156,1102.556885 1036.227173,1099.918213 1030.426880,1096.560303 
	C1049.389648,1086.525146 1064.749634,1074.143921 1078.843140,1058.053955 
	C1080.459961,1063.285645 1082.306763,1067.352173 1082.891724,1071.592773 
	C1083.811279,1078.261108 1085.133911,1085.252808 1084.066162,1091.742432 
	C1081.306152,1108.517212 1069.743164,1112.143555 1055.764038,1109.290283 
	C1052.398682,1108.603149 1049.258301,1106.814941 1045.678711,1105.364258 
z"/>
<path fill="#FFB654" opacity="1.000000" stroke="none" 
	d="
M987.515259,1087.368652 
	C997.647888,1081.209229 1007.324768,1083.258179 1016.785034,1087.976074 
	C1021.158264,1090.157104 1025.227417,1092.947754 1030.644165,1096.185059 
	C1009.856201,1107.041870 989.239746,1113.076538 966.669678,1115.745483 
	C973.774841,1105.996338 980.490479,1096.781738 987.515259,1087.368652 
z"/>
<path fill="#FFB654" opacity="1.000000" stroke="none" 
	d="
M1100.142578,1020.106934 
	C1095.110718,1033.426025 1088.743652,1045.529663 1079.729370,1056.377563 
	C1070.941040,1041.323975 1079.053345,1024.855591 1104.320801,1007.260620 
	C1102.718750,1012.189148 1101.492310,1015.962341 1100.142578,1020.106934 
z"/>
<path fill="#E6802C" opacity="1.000000" stroke="none" 
	d="
M1105.991943,999.566895 
	C1106.845703,985.597046 1107.648560,972.013794 1108.411255,959.109497 
	C1118.366089,969.124512 1117.515259,994.458801 1105.331543,1004.523743 
	C1105.596191,1002.539734 1105.768677,1001.246643 1105.991943,999.566895 
z"/>
<path fill="#E6802C" opacity="1.000000" stroke="none" 
	d="
M1076.954102,1202.616943 
	C1076.615112,1200.930420 1076.074097,1198.393677 1076.746094,1198.016235 
	C1081.245361,1195.488525 1085.932739,1193.240723 1090.739258,1191.363037 
	C1091.647583,1191.008301 1094.286865,1192.532959 1094.485596,1193.520752 
	C1094.773804,1194.952637 1094.031616,1197.213257 1092.915283,1198.196411 
	C1088.504639,1202.080322 1083.276001,1203.848633 1076.954102,1202.616943 
z"/>
<path fill="#E6802C" opacity="1.000000" stroke="none" 
	d="
M928.307495,1203.063477 
	C933.063416,1204.770142 937.495667,1206.342285 941.718384,1208.354492 
	C942.692444,1208.818726 943.631958,1210.989624 943.333496,1212.007324 
	C943.062744,1212.930420 940.942139,1214.076050 939.882202,1213.869141 
	C935.451660,1213.003662 931.003113,1211.953369 926.802063,1210.342651 
	C925.362915,1209.790771 924.628235,1207.401489 923.571655,1205.851807 
	C925.016968,1204.930786 926.462280,1204.009888 928.307495,1203.063477 
z"/>
<path fill="#E6802C" opacity="1.000000" stroke="none" 
	d="
M1097.548828,806.247498 
	C1098.032349,806.501221 1098.187988,806.565796 1098.322144,806.660767 
	C1101.399292,808.839539 1106.200684,811.450439 1104.097046,815.191284 
	C1101.684448,819.481628 1096.956909,816.234009 1093.539062,814.590454 
	C1091.361084,813.543152 1089.355225,811.852966 1087.735718,810.037476 
	C1086.791382,808.978821 1086.044312,806.785522 1086.531616,805.692810 
	C1086.970093,804.709534 1089.269409,803.982178 1090.647949,804.122681 
	C1092.878662,804.350159 1095.027588,805.380981 1097.548828,806.247498 
z"/>
<path fill="#E6802C" opacity="1.000000" stroke="none" 
	d="
M1204.229248,1060.297607 
	C1206.063599,1066.526245 1204.373779,1071.793091 1200.818726,1076.441162 
	C1199.891479,1077.653564 1197.598389,1078.779297 1196.306030,1078.455322 
	C1195.247070,1078.189697 1193.806274,1075.427124 1194.159180,1074.264282 
	C1195.514771,1069.796143 1197.313354,1065.417969 1199.448608,1061.264282 
	C1199.937622,1060.313110 1202.427002,1060.390137 1204.229248,1060.297607 
z"/>
<path fill="#F2A553" opacity="1.000000" stroke="none" 
	d="
M1053.007568,923.669800 
	C1039.772095,930.687195 1026.166626,930.859680 1012.417236,925.882690 
	C1009.017944,924.652283 1005.725952,922.833496 1002.761719,920.748901 
	C994.147888,914.691223 993.934998,904.797729 1002.078674,897.977417 
	C1009.083984,892.110413 1017.435425,889.528381 1026.673828,888.097351 
	C1027.812134,888.019775 1028.553223,888.018188 1029.903320,888.252075 
	C1043.499878,896.380005 1052.447510,906.913513 1053.021240,922.920898 
	C1053.021240,922.920898 1053.010254,923.420105 1053.007568,923.669800 
z"/>
<path fill="#F2983C" opacity="1.000000" stroke="none" 
	d="
M900.051086,980.965332 
	C899.984558,984.449402 900.207458,987.968323 899.793152,991.410522 
	C898.828430,999.425110 893.393616,1005.830017 887.052795,1006.889465 
	C878.402588,1008.334839 869.300537,1004.069702 865.440613,996.886658 
	C857.397217,981.919067 869.855225,964.723022 886.856018,966.182861 
	C894.540588,968.839600 897.294373,974.903748 900.051086,980.965332 
z"/>
<path fill="#FFC672" opacity="1.000000" stroke="none" 
	d="
M900.503784,980.972412 
	C897.294373,974.903748 894.540588,968.839600 887.290283,966.183655 
	C887.789307,954.504883 894.105652,945.554382 900.767456,936.861328 
	C903.662109,933.084167 907.215698,929.811890 910.767883,926.144958 
	C907.748657,938.602051 910.333008,950.610046 914.753540,962.465149 
	C916.317383,966.659119 917.574524,970.967285 919.024170,975.608154 
	C915.172913,977.658447 911.350769,979.574768 907.330322,980.880798 
	C905.398865,981.508179 903.092896,980.982849 900.503784,980.972412 
z"/>
<path fill="#F2983C" opacity="1.000000" stroke="none" 
	d="
M1053.312012,922.766479 
	C1052.447510,906.913513 1043.499878,896.380005 1030.274902,888.256714 
	C1037.867310,887.663940 1045.227661,889.041687 1051.874390,893.516113 
	C1063.305542,901.211487 1064.075684,913.571533 1053.312012,922.766479 
z"/>
<path fill="#F2983C" opacity="1.000000" stroke="none" 
	d="
M817.353394,815.117432 
	C820.789490,814.640442 823.906006,814.364807 827.022522,814.089172 
	C826.482544,817.341064 827.009583,821.494446 825.181519,823.658020 
	C821.323914,828.223511 816.415894,831.998840 811.532898,835.538269 
	C810.161926,836.531982 806.469482,836.393860 805.482483,835.297668 
	C804.367188,834.059021 804.180664,830.480713 805.195557,829.098938 
	C808.769836,824.232483 813.032349,819.871582 817.353394,815.117432 
z"/>
<path fill="#F2983C" opacity="1.000000" stroke="none" 
	d="
M825.604492,1189.758545 
	C817.338867,1191.223267 805.220581,1178.229858 804.654358,1171.662964 
	C804.318726,1167.769775 805.908630,1166.067017 809.791321,1166.736816 
	C816.558472,1167.904175 826.389160,1177.127441 827.606567,1183.996948 
	C827.913879,1185.731323 826.573303,1187.757568 825.604492,1189.758545 
z"/>
<path fill="#F2983C" opacity="1.000000" stroke="none" 
	d="
M757.359009,902.430359 
	C759.904846,900.030579 761.798401,895.468994 765.363037,897.871033 
	C767.321045,899.190369 768.426758,903.957642 767.728455,906.589661 
	C766.188171,912.395264 763.603577,918.022217 760.685181,923.302002 
	C759.842651,924.826294 756.377686,925.506836 754.187500,925.374390 
	C753.342651,925.323364 751.770325,921.730469 752.131042,920.107178 
	C753.436279,914.233093 755.421936,908.510193 757.359009,902.430359 
z"/>
<path fill="#F2983C" opacity="1.000000" stroke="none" 
	d="
M979.542480,748.590759 
	C986.401306,743.207520 999.792725,742.256531 1006.701599,746.346497 
	C1010.679932,748.701599 1010.869873,752.349182 1006.704590,754.313782 
	C998.594116,758.139282 990.202576,758.151428 982.157043,754.127441 
	C980.720459,753.408875 980.276733,750.705261 979.542480,748.590759 
z"/>
<path fill="#F2983C" opacity="1.000000" stroke="none" 
	d="
M868.987915,1099.011963 
	C868.714172,1098.927124 868.449097,1098.833740 868.184021,1098.740356 
	C868.390686,1098.743042 868.597412,1098.745728 868.906860,1098.866943 
	C869.009644,1098.985352 868.996643,1099.003418 868.987915,1099.011963 
z"/>
<path fill="#F2983C" opacity="1.000000" stroke="none" 
	d="
M1011.574463,1251.263428 
	C1013.648743,1249.274536 1015.446106,1246.598633 1017.674133,1246.171875 
	C1023.804810,1244.997803 1030.111816,1244.445801 1036.358154,1244.365967 
	C1038.121948,1244.343384 1040.982544,1246.532959 1041.385010,1248.184448 
	C1041.753296,1249.695679 1039.933105,1252.603027 1038.292236,1253.589966 
	C1031.555420,1257.642212 1023.992798,1257.878784 1016.539124,1256.387329 
	C1014.615356,1256.002319 1013.163025,1253.261230 1011.574463,1251.263428 
z"/>
<path fill="#F2983C" opacity="1.000000" stroke="none" 
	d="
M1195.334351,861.671021 
	C1192.566650,856.985413 1189.731323,852.692932 1187.706787,848.047180 
	C1186.967651,846.350891 1187.534180,842.449951 1188.601685,841.964050 
	C1190.465210,841.115784 1193.746704,841.326111 1195.433105,842.513794 
	C1201.525024,846.804138 1206.124390,852.537354 1207.617065,860.028442 
	C1207.993530,861.917603 1207.118652,864.860046 1205.731934,866.027222 
	C1204.729248,866.871216 1201.802979,865.891907 1199.969238,865.147644 
	C1198.340942,864.486694 1197.035645,863.029785 1195.334351,861.671021 
z"/>
<path fill="#F2983C" opacity="1.000000" stroke="none" 
	d="
M1249.450928,970.854858 
	C1250.018311,976.828674 1250.923462,982.445557 1250.670166,988.009644 
	C1250.564941,990.318115 1247.983276,992.513855 1246.527832,994.760925 
	C1244.475220,993.102234 1241.080444,991.746948 1240.623901,989.727539 
	C1239.301392,983.877136 1238.618896,977.742676 1238.810303,971.755615 
	C1238.890869,969.235840 1241.795532,966.806396 1243.416382,964.335876 
	C1245.384766,966.382812 1247.353027,968.429749 1249.450928,970.854858 
z"/>
<path fill="#F2983C" opacity="1.000000" stroke="none" 
	d="
M1190.482422,1153.180908 
	C1195.579590,1153.589844 1196.970459,1155.226074 1195.579956,1159.398071 
	C1193.003906,1167.126831 1188.079346,1173.112549 1180.840332,1176.854980 
	C1179.221313,1177.692139 1175.942993,1177.826416 1174.991699,1176.814697 
	C1173.800415,1175.547485 1173.455078,1172.500366 1174.080078,1170.680054 
	C1176.843262,1162.632202 1182.106445,1156.625732 1190.482422,1153.180908 
z"/>
<path fill="#E6802C" opacity="1.000000" stroke="none" 
	d="
M920.064331,803.473022 
	C917.352966,803.725220 915.022461,804.071350 912.732605,803.893799 
	C911.609680,803.806641 909.974976,802.965149 909.642212,802.067993 
	C909.294861,801.131653 909.921143,798.936218 910.662109,798.639282 
	C915.629089,796.648315 920.706360,794.901001 925.843933,793.404541 
	C926.544189,793.200623 928.432312,794.712280 928.604431,795.644836 
	C928.829163,796.862305 928.293884,798.821411 927.371155,799.526733 
	C925.302429,801.108154 922.792358,802.112183 920.064331,803.473022 
z"/>
</svg>