<svg version="1.1" id="Layer_1" xmlns="http://www.w3.org/2000/svg" xmlns:xlink="http://www.w3.org/1999/xlink" x="0px" y="0px"
	 width="100%" viewBox="0 0 2000 2000" enable-background="new 0 0 2000 2000" xml:space="preserve">
<path fill="#000000" opacity="1.000000" stroke="none" 
	d="
M1169.000000,2001.000000 
	C779.333313,2001.000000 390.166656,2001.000000 1.000000,2001.000000 
	C1.000000,1334.333374 1.000000,667.666687 1.000000,1.000000 
	C667.666687,1.000000 1334.333374,1.000000 2001.000000,1.000000 
	C2001.000000,667.666687 2001.000000,1334.333374 2001.000000,2001.000000 
	C1723.833374,2001.000000 1446.666626,2001.000000 1169.000000,2001.000000 
M844.932068,1041.614746 
	C845.057983,1041.905151 845.278076,1042.067749 845.862000,1042.826782 
	C846.942017,1045.857422 848.021973,1048.888062 849.615112,1053.358643 
	C844.571838,1053.893066 840.059875,1055.207031 835.797852,1054.640381 
	C828.104065,1053.617676 824.066223,1054.576782 820.901123,1061.486938 
	C817.747864,1068.370972 812.829773,1071.304199 805.487915,1072.057861 
	C798.496521,1072.775757 792.520569,1075.992554 788.924133,1082.576050 
	C788.199097,1083.903320 787.060059,1085.004639 786.022522,1086.323853 
	C784.819641,1085.206909 784.101074,1084.519287 783.360962,1083.855347 
	C774.840820,1076.213013 766.331238,1075.287842 758.735840,1078.973267 
	C750.493164,1082.972900 747.394958,1095.080566 748.547607,1103.426514 
	C750.013489,1114.039673 755.133484,1122.207275 763.160217,1128.642334 
	C769.900574,1134.045898 777.783997,1136.282593 785.825378,1131.927124 
	C791.788147,1128.697510 795.407898,1123.191528 796.002380,1116.135498 
	C796.274475,1112.906006 796.453125,1109.668823 796.686951,1106.247070 
	C797.657959,1106.196899 798.660583,1106.001587 799.625854,1106.117554 
	C808.762085,1107.215210 815.723267,1103.433838 821.793701,1096.907471 
	C825.563599,1092.854614 830.561768,1092.192383 835.889038,1093.596924 
	C840.441956,1094.797241 844.696106,1094.604736 847.997437,1090.534424 
	C851.460693,1086.264404 855.019287,1082.071777 859.038635,1077.241577 
	C861.281128,1080.972656 862.935303,1084.090332 864.931641,1086.970703 
	C869.157166,1093.067627 873.561157,1099.040649 878.010620,1105.756470 
	C879.980957,1108.796265 881.951294,1111.836060 883.284973,1115.207886 
	C880.694641,1120.898560 877.139221,1125.497925 870.482605,1126.652344 
	C865.305725,1127.550293 863.290833,1130.840454 862.713867,1135.888062 
	C862.497437,1137.782104 860.710876,1140.171753 858.979309,1141.092041 
	C853.643250,1143.927979 849.772766,1147.740112 848.302734,1154.008789 
	C845.868652,1153.303955 843.731201,1152.612305 841.556580,1152.069336 
	C835.070251,1150.449341 827.964600,1156.005859 828.005249,1162.621216 
	C828.079651,1174.726685 832.909790,1180.587158 845.146851,1184.312134 
	C849.432556,1185.616577 852.551697,1184.548340 855.734070,1181.829224 
	C861.542603,1176.866333 860.754517,1171.002808 858.077332,1164.317139 
	C863.545776,1162.901855 868.269226,1160.596313 870.613770,1155.128174 
	C871.983337,1151.934082 874.164429,1150.255005 878.122925,1149.832275 
	C880.853638,1149.540649 885.240967,1146.837158 885.530334,1144.746826 
	C886.714905,1136.189697 892.053101,1132.080200 899.760620,1129.452393 
	C906.649963,1134.317383 913.210510,1139.765381 920.518555,1143.888184 
	C928.262512,1148.257080 936.717102,1151.366333 944.927551,1155.764282 
	C942.950745,1158.667969 941.348633,1161.944702 938.912964,1164.391724 
	C934.850037,1168.473267 933.228760,1173.475098 935.749146,1178.114380 
	C940.145203,1186.206299 939.036926,1193.313110 934.670166,1200.703491 
	C932.403503,1204.539673 930.843079,1208.616821 932.496399,1213.254761 
	C933.406372,1215.807251 935.343750,1219.235107 934.399231,1220.877197 
	C933.339783,1222.719238 929.522339,1222.921753 926.953125,1223.957275 
	C911.472778,1230.196655 906.622253,1244.938843 919.409180,1257.854248 
	C928.761047,1267.300293 940.295288,1269.783936 953.110840,1267.039185 
	C961.736511,1265.191895 968.187988,1260.257446 970.541565,1251.830688 
	C972.678406,1244.180176 969.821960,1237.353760 963.633240,1232.102905 
	C961.319275,1230.139648 959.184387,1227.965454 956.555786,1225.500977 
	C964.391907,1220.517944 965.773743,1213.180664 964.987366,1205.055542 
	C964.284790,1197.796021 965.292786,1191.315674 971.847900,1186.663818 
	C976.940063,1183.050049 976.748047,1177.932983 975.255310,1172.494141 
	C974.316528,1169.073486 973.869873,1165.517944 974.022949,1162.132202 
	C975.584412,1162.452759 977.143005,1163.033325 978.707886,1163.050903 
	C987.450195,1163.149780 996.194031,1163.112427 1004.994263,1163.878052 
	C1007.746338,1169.961182 1008.667236,1175.876465 1004.487549,1181.892456 
	C1002.388306,1184.914062 1002.466064,1188.106689 1005.283813,1191.194214 
	C1006.836853,1192.895874 1008.786194,1195.797363 1008.300049,1197.521729 
	C1006.435059,1204.135620 1006.441895,1210.300049 1010.275024,1216.074341 
	C1008.176331,1217.364014 1006.394287,1218.213013 1004.903320,1219.421387 
	C1000.326721,1223.130493 997.020142,1230.891846 1003.668457,1237.330933 
	C1010.735046,1244.175415 1021.608337,1244.894897 1029.407959,1239.909912 
	C1038.290039,1234.233276 1038.450073,1223.977417 1031.111084,1218.433594 
	C1029.252441,1217.029541 1026.926636,1216.243896 1025.752686,1215.649048 
	C1026.235229,1211.158691 1027.685425,1207.051514 1026.821533,1203.508301 
	C1025.514526,1198.147705 1024.553101,1193.613647 1028.505005,1188.828491 
	C1029.646240,1187.446655 1029.481812,1183.440430 1028.284302,1181.936279 
	C1022.544006,1174.725952 1023.264709,1167.485474 1027.427124,1159.302124 
	C1046.076538,1154.986206 1063.586670,1147.875854 1080.576294,1138.262573 
	C1081.693237,1141.243774 1083.167358,1144.145020 1083.857056,1147.221924 
	C1085.629517,1155.129272 1086.899780,1163.011353 1097.326538,1164.263794 
	C1104.840942,1165.166382 1107.630249,1171.290161 1109.895508,1177.472900 
	C1111.909058,1182.968872 1115.228149,1187.047485 1120.894409,1189.034424 
	C1122.964355,1189.760132 1124.941162,1190.751465 1125.636475,1191.051147 
	C1124.368896,1198.139160 1121.842285,1204.537109 1122.446899,1210.624023 
	C1123.459229,1220.817627 1131.684814,1228.812012 1146.887817,1225.938965 
	C1161.631836,1223.152710 1172.245728,1214.735352 1175.581543,1199.735229 
	C1177.857544,1189.500488 1175.896606,1180.727051 1164.151489,1176.958984 
	C1158.169556,1175.039795 1151.063843,1176.622925 1144.134033,1176.622925 
	C1144.117554,1167.324463 1138.932007,1160.066284 1130.814331,1155.455322 
	C1124.643066,1151.949951 1123.120117,1146.647949 1123.185913,1140.832153 
	C1123.256226,1134.606567 1119.934204,1131.471191 1115.232666,1129.029541 
	C1110.954590,1126.807861 1106.496094,1124.933472 1102.102051,1122.209595 
	C1106.378418,1118.119141 1110.654785,1114.028687 1115.696289,1110.081543 
	C1116.124756,1110.305664 1116.529663,1110.642334 1116.985107,1110.737183 
	C1124.070190,1112.212036 1128.973999,1115.850098 1130.621826,1123.366577 
	C1131.367798,1126.768799 1133.614990,1128.983521 1137.607788,1129.077271 
	C1142.137329,1129.183472 1145.331787,1131.477783 1147.744507,1135.473755 
	C1149.192017,1137.871216 1151.662720,1141.108276 1153.896729,1141.294800 
	C1160.126343,1141.815186 1159.501221,1145.438843 1159.032227,1149.530640 
	C1158.919312,1150.515747 1159.057861,1151.526978 1159.012451,1152.523071 
	C1158.645630,1160.571167 1166.190796,1163.811768 1171.361572,1163.044067 
	C1181.355713,1161.560425 1187.594482,1155.282227 1189.742920,1146.488647 
	C1190.820068,1142.080078 1191.093262,1136.884155 1186.824585,1133.199463 
	C1182.530151,1129.492554 1177.752319,1129.007446 1172.594482,1131.105713 
	C1171.442261,1131.574585 1170.273438,1132.002319 1168.365479,1132.736206 
	C1168.302979,1125.334473 1163.184326,1122.877808 1157.978760,1120.142578 
	C1155.917847,1119.059692 1153.621582,1116.567993 1153.282593,1114.425171 
	C1152.386108,1108.758179 1149.715332,1105.952026 1143.990601,1105.904785 
	C1143.073608,1105.897339 1142.176880,1105.221924 1141.244873,1104.941650 
	C1134.706055,1102.974609 1133.622559,1096.396851 1130.085327,1091.149170 
	C1132.677856,1087.463501 1135.270386,1083.777832 1138.177002,1080.718262 
	C1140.526367,1082.749512 1143.639038,1084.347046 1145.085327,1086.891602 
	C1149.880493,1095.327637 1156.927612,1096.718994 1165.223877,1093.948242 
	C1169.711548,1092.449463 1173.020020,1093.799927 1176.569702,1096.144653 
	C1180.585693,1098.797485 1184.558105,1102.079224 1189.037598,1103.309570 
	C1193.524048,1104.541748 1198.612915,1103.580322 1203.460693,1103.580322 
	C1203.952515,1107.289795 1203.863525,1111.342041 1205.084351,1114.951172 
	C1208.942017,1126.355591 1219.730957,1131.995483 1229.152222,1128.588257 
	C1246.389282,1122.354248 1254.997559,1099.900513 1249.271118,1085.146851 
	C1245.129272,1074.475220 1236.094849,1068.920776 1225.496338,1072.975464 
	C1220.249268,1074.982666 1215.741455,1078.922241 1210.485474,1082.249634 
	C1210.496704,1082.265991 1210.098877,1081.721558 1209.739380,1081.152832 
	C1205.994507,1075.228149 1201.335693,1071.121338 1193.696533,1070.858887 
	C1185.324707,1070.571289 1177.932739,1068.258301 1173.924561,1059.498535 
	C1172.345459,1056.047241 1168.577515,1054.460938 1164.252563,1054.940308 
	C1159.209595,1055.499268 1154.114136,1055.582642 1149.089844,1055.121094 
	C1154.444092,1040.897949 1158.178589,1026.354858 1158.054321,1011.006531 
	C1158.041748,1009.460449 1158.778198,1007.908264 1159.825439,1005.930115 
	C1165.440796,1002.917297 1170.941040,1003.437927 1176.129028,1006.822449 
	C1180.270630,1009.524170 1183.667847,1008.801880 1187.711548,1006.211304 
	C1189.964355,1004.768127 1193.675659,1004.387756 1196.342651,1005.061218 
	C1201.702148,1006.414673 1206.569214,1006.595642 1211.391357,1002.928833 
	C1212.313599,1004.409729 1213.076660,1005.646667 1213.851196,1006.876343 
	C1218.945435,1014.964111 1227.648071,1017.517395 1234.460449,1009.202576 
	C1239.093750,1003.547424 1241.144653,994.475769 1236.719116,986.264648 
	C1231.573242,976.717102 1222.429077,974.064087 1214.650146,983.820679 
	C1213.560669,985.187073 1212.802979,986.818237 1211.819824,988.445984 
	C1207.264160,986.745239 1203.255737,984.183594 1198.200562,986.077393 
	C1194.342529,987.522705 1190.528931,987.601990 1186.709229,984.440125 
	C1184.966553,982.997498 1180.711060,982.917175 1178.499878,984.024780 
	C1171.634644,987.463867 1165.012207,987.753601 1157.704224,984.093079 
	C1157.482666,982.836853 1157.281738,981.576538 1157.036011,980.325073 
	C1155.710693,973.576599 1154.374268,966.830322 1153.964722,960.057739 
	C1157.625977,960.045105 1161.312378,959.751343 1164.943115,960.078247 
	C1172.636475,960.770874 1176.630493,959.100525 1179.911865,952.459656 
	C1182.466675,947.288879 1186.250977,944.505005 1191.970703,944.006226 
	C1194.697510,943.768433 1197.388306,943.079407 1200.084839,942.541809 
	C1207.116211,941.140137 1210.866699,935.835693 1214.798950,929.392334 
	C1216.109497,931.086792 1216.955444,932.600342 1218.176880,933.694763 
	C1229.675659,943.997925 1247.230225,942.960144 1252.051636,925.728027 
	C1256.344238,910.385193 1249.346069,894.588074 1235.957520,886.331848 
	C1222.995117,878.338440 1209.183838,885.547607 1206.598511,898.831421 
	C1205.921875,902.308350 1205.938965,905.920349 1205.621582,909.659119 
	C1204.580811,909.748474 1203.766602,909.934326 1202.973267,909.868774 
	C1194.395264,909.159363 1186.923096,910.934937 1180.569214,917.494629 
	C1176.786621,921.399658 1171.473633,923.146057 1165.830322,920.939453 
	C1157.609741,917.725098 1153.051514,922.546875 1148.749878,928.357117 
	C1147.480713,930.071350 1145.668091,931.383057 1144.046631,932.893066 
	C1144.046631,932.893066 1144.085449,932.938171 1143.965820,932.387146 
	C1143.655396,932.193420 1143.344849,931.999695 1143.030273,931.085571 
	C1135.819702,914.471985 1125.345825,900.092957 1113.253540,886.437866 
	C1114.710571,885.702332 1116.099854,884.754333 1117.635498,884.265686 
	C1127.536621,881.115540 1131.195312,874.219666 1130.124512,864.206665 
	C1129.654053,859.808167 1132.882568,857.518250 1135.854858,855.069824 
	C1138.814575,852.631958 1142.390381,850.385193 1144.166748,847.201416 
	C1146.665771,842.722229 1147.754272,837.456116 1149.273315,833.029175 
	C1153.808960,833.029175 1158.940552,833.592163 1163.906006,832.922363 
	C1178.077881,831.010559 1183.202759,817.733765 1177.970947,805.807434 
	C1172.440796,793.201477 1162.351440,785.672852 1149.140991,783.120483 
	C1138.661133,781.095764 1128.025757,786.805176 1125.326416,797.283569 
	C1123.364380,804.899841 1125.950195,812.260620 1130.711914,818.804993 
	C1129.586182,819.445679 1128.784180,819.994751 1127.911011,820.384399 
	C1121.055664,823.443848 1115.742554,827.946350 1113.703857,835.511353 
	C1111.640259,843.168091 1106.818848,847.379700 1098.960571,849.213257 
	C1096.251831,849.845215 1093.474243,853.324829 1092.198975,856.164185 
	C1090.593506,859.739197 1090.496094,863.991455 1089.475952,867.960632 
	C1089.475952,867.960632 1089.204712,867.981201 1088.850220,867.353638 
	C1082.601196,863.741882 1076.352173,860.130127 1070.187012,855.800354 
	C1070.333984,851.236938 1072.137207,847.704468 1076.058472,845.085571 
	C1080.116455,842.375366 1083.896118,839.414368 1081.206421,833.395081 
	C1080.616211,832.074280 1081.250366,829.606018 1082.197266,828.303467 
	C1086.148193,822.868591 1090.507324,817.708984 1089.122192,809.993286 
	C1091.404175,809.993286 1092.888672,810.007446 1094.372925,809.990967 
	C1101.708496,809.909485 1106.274414,803.662354 1105.336670,796.400635 
	C1103.974487,785.851562 1088.919189,779.321899 1080.523315,781.161438 
	C1073.914795,782.609436 1070.642578,786.288635 1071.184814,792.961792 
	C1071.495483,796.784424 1073.546387,800.465637 1074.739624,803.991394 
	C1072.883667,807.213562 1069.903076,810.620056 1068.918335,814.529236 
	C1067.578979,819.846252 1065.197998,823.389160 1060.531494,826.379456 
	C1058.480713,827.693604 1058.171631,831.915039 1057.338745,834.891113 
	C1056.367920,838.360413 1055.871826,841.968140 1054.804077,845.402161 
	C1054.295166,847.038940 1052.940430,848.412903 1051.173218,849.916870 
	C1043.625854,848.255798 1036.069702,846.632874 1028.536743,844.909241 
	C1026.408813,844.422363 1024.348633,843.640564 1022.257385,842.994019 
	C1022.968628,841.082031 1023.575989,839.123413 1024.408325,837.265625 
	C1029.040283,826.927795 1032.256592,827.937561 1024.430298,816.729492 
	C1023.970459,816.070984 1023.745056,815.233215 1023.232849,814.629639 
	C1020.751404,811.705383 1020.568970,808.560059 1021.617432,804.949036 
	C1022.695190,801.237122 1023.292175,797.379150 1023.990967,793.565247 
	C1025.138794,787.300476 1022.000916,782.249939 1018.610779,776.998535 
	C1021.248535,775.563538 1023.456238,774.225403 1025.775879,773.122864 
	C1040.746216,766.006897 1040.439819,746.935486 1027.475586,738.515686 
	C1014.630249,730.173157 996.262939,731.436035 984.577881,740.915955 
	C979.235413,745.250183 976.031738,753.023132 978.798889,760.740967 
	C981.823853,769.177917 988.664124,773.326843 996.411682,776.661682 
	C995.556335,778.545044 994.905151,780.796021 993.637390,782.617859 
	C989.741150,788.217163 990.234375,794.226013 992.410645,799.968994 
	C994.972107,806.728577 994.451843,812.622559 989.887329,818.204285 
	C985.080200,824.082764 986.152161,829.867798 990.048950,835.752136 
	C991.622437,838.128174 992.690002,840.839172 994.155396,843.728027 
	C989.664612,844.152710 985.744995,844.381897 981.870544,844.930054 
	C978.095520,845.464111 974.366638,846.324585 969.651245,847.226624 
	C970.179016,842.888000 970.073669,839.191406 971.146362,835.875977 
	C973.457031,828.734375 971.532776,822.838440 965.559998,819.211243 
	C957.783386,814.488525 957.119934,807.347168 957.045593,799.711975 
	C956.982727,793.256531 954.125244,788.503479 948.968018,784.887756 
	C947.842712,784.098755 946.875488,783.084167 945.865723,782.199951 
	C952.475647,777.097412 956.963440,771.253418 958.058472,763.412415 
	C959.822266,750.783203 947.076111,742.429749 936.402161,741.938599 
	C924.019592,741.368835 913.945007,745.781555 905.391235,754.882751 
	C897.672180,763.095886 897.635193,778.162720 908.387695,784.034607 
	C913.466492,786.808044 919.253357,788.284973 925.121521,790.501221 
	C922.237366,798.803223 923.654114,806.855652 929.271606,813.701172 
	C933.576355,818.947083 934.047485,824.179321 931.869751,830.255554 
	C929.984497,835.515686 930.116821,840.444824 934.897827,844.509399 
	C938.088745,847.222107 940.912476,850.366577 944.062683,853.478027 
	C936.550781,856.875366 929.873535,859.726135 923.349731,862.893127 
	C916.825195,866.060547 910.454041,869.544250 903.781006,872.244873 
	C898.735596,869.258179 896.088745,865.152954 896.022339,858.971924 
	C895.979736,855.010559 893.790344,851.842468 889.357910,850.313477 
	C886.843323,849.446045 883.827148,847.303467 882.935547,845.000183 
	C880.740234,839.329041 877.838196,834.749268 871.953308,832.700928 
	C873.014160,830.186279 874.166077,828.035706 874.840759,825.744690 
	C876.666382,819.544617 872.054199,812.123535 865.826843,810.974792 
	C857.675049,809.471069 849.282471,812.963501 844.814514,820.561584 
	C842.869202,823.869812 840.817139,828.252747 841.418884,831.691650 
	C842.799561,839.581421 848.803894,842.663513 856.936768,841.689941 
	C858.160339,841.543457 860.795532,843.373474 860.771362,844.232605 
	C860.627380,849.336670 864.019287,851.603271 867.321899,854.465210 
	C869.476257,856.332092 871.913513,859.636597 871.720276,862.100708 
	C871.239563,868.230286 874.535461,870.944763 879.186768,872.789490 
	C885.238708,875.189697 886.975830,880.202698 887.765930,886.521851 
	C883.154602,890.973816 878.366699,895.259949 873.984314,899.926941 
	C870.061157,904.104919 866.584961,908.702637 862.674683,913.399658 
	C860.580383,910.158508 858.855164,907.433777 857.074646,904.745605 
	C854.060974,900.195557 848.824463,898.400818 843.505737,899.584961 
	C837.496643,900.922729 831.959167,900.677917 827.128845,895.647705 
	C822.050781,890.359436 816.018799,886.465515 807.967834,887.952515 
	C806.216370,888.275940 804.354065,887.999756 803.272827,887.999756 
	C802.809509,884.241577 802.427856,881.016541 802.012207,877.795837 
	C800.130127,863.215149 785.707031,854.423950 771.648315,863.895325 
	C760.101624,871.674377 754.661438,882.613403 754.853271,896.837952 
	C755.044189,910.990417 769.008301,922.738892 784.041687,914.507629 
	C787.279541,912.734741 790.171997,910.331055 793.766541,907.841919 
	C794.040588,908.311829 794.381348,908.879700 794.706543,909.456421 
	C798.384033,915.979553 803.086426,920.697510 811.275146,921.305359 
	C818.782349,921.862671 825.104980,924.798706 828.156006,932.661316 
	C830.210205,937.955139 834.625000,939.653809 840.176819,939.052612 
	C842.937805,938.753662 845.757874,939.000671 848.781738,939.000671 
	C848.390564,940.781067 848.308838,942.113831 847.812134,943.268127 
	C841.401062,958.167847 839.089966,973.889282 839.117859,989.917786 
	C839.134644,999.580017 840.288025,1009.240173 840.187866,1018.946716 
	C839.428711,1019.240967 838.606140,1019.430481 837.920471,1019.846008 
	C832.830933,1022.930176 828.018677,1023.859985 822.155579,1020.828796 
	C819.539917,1019.476501 814.075317,1019.903809 812.113525,1021.804382 
	C808.179504,1025.615479 803.902649,1025.522949 799.700073,1024.818726 
	C794.720886,1023.984558 790.881470,1025.201904 787.315125,1028.787231 
	C786.556213,1027.506470 785.943970,1026.559692 785.415833,1025.568237 
	C781.358093,1017.950745 771.358582,1016.447327 765.657837,1022.789734 
	C760.016663,1029.065796 759.976379,1037.424316 763.007996,1044.976196 
	C766.076721,1052.620605 771.481140,1056.063232 777.422974,1054.892212 
	C783.782959,1053.638550 787.130798,1049.250732 788.788513,1042.450073 
	C795.265869,1047.049316 801.138123,1043.641968 807.243652,1042.184937 
	C809.104614,1041.740845 811.667969,1042.355713 813.342468,1043.397461 
	C817.127380,1045.751953 820.909912,1045.596924 823.941956,1043.051392 
	C830.610291,1037.453003 837.591492,1038.794434 844.812683,1041.135864 
	C844.812683,1041.135864 844.897339,1041.181641 844.932068,1041.614746 
z"/>
<path fill="#3A7499" opacity="1.000000" stroke="none" 
	d="
M840.930664,1018.901306 
	C840.288025,1009.240173 839.134644,999.580017 839.117859,989.917786 
	C839.089966,973.889282 841.401062,958.167847 847.812134,943.268127 
	C848.308838,942.113831 848.390564,940.781067 848.781738,939.000671 
	C845.757874,939.000671 842.937805,938.753662 840.176819,939.052612 
	C834.625000,939.653809 830.210205,937.955139 828.156006,932.661316 
	C825.104980,924.798706 818.782349,921.862671 811.275146,921.305359 
	C803.086426,920.697510 798.384033,915.979553 794.706543,909.456421 
	C794.381348,908.879700 794.040588,908.311829 793.766541,907.841919 
	C790.171997,910.331055 787.279541,912.734741 784.041687,914.507629 
	C769.008301,922.738892 755.044189,910.990417 754.853271,896.837952 
	C754.661438,882.613403 760.101624,871.674377 771.648315,863.895325 
	C785.707031,854.423950 800.130127,863.215149 802.012207,877.795837 
	C802.427856,881.016541 802.809509,884.241577 803.272827,887.999756 
	C804.354065,887.999756 806.216370,888.275940 807.967834,887.952515 
	C816.018799,886.465515 822.050781,890.359436 827.128845,895.647705 
	C831.959167,900.677917 837.496643,900.922729 843.505737,899.584961 
	C848.824463,898.400818 854.060974,900.195557 857.074646,904.745605 
	C858.855164,907.433777 860.580383,910.158508 862.674683,913.399658 
	C866.584961,908.702637 870.061157,904.104919 873.984314,899.926941 
	C878.366699,895.259949 883.154602,890.973816 888.077026,885.932068 
	C893.597290,881.191284 898.806519,877.040344 904.015686,872.889343 
	C910.454041,869.544250 916.825195,866.060547 923.349731,862.893127 
	C929.873535,859.726135 936.550781,856.875366 944.062683,853.478027 
	C940.912476,850.366577 938.088745,847.222107 934.897827,844.509399 
	C930.116821,840.444824 929.984497,835.515686 931.869751,830.255554 
	C934.047485,824.179321 933.576355,818.947083 929.271606,813.701172 
	C923.654114,806.855652 922.237366,798.803223 925.121521,790.501221 
	C919.253357,788.284973 913.466492,786.808044 908.387695,784.034607 
	C897.635193,778.162720 897.672180,763.095886 905.391235,754.882751 
	C913.945007,745.781555 924.019592,741.368835 936.402161,741.938599 
	C947.076111,742.429749 959.822266,750.783203 958.058472,763.412415 
	C956.963440,771.253418 952.475647,777.097412 945.865723,782.199951 
	C946.875488,783.084167 947.842712,784.098755 948.968018,784.887756 
	C954.125244,788.503479 956.982727,793.256531 957.045593,799.711975 
	C957.119934,807.347168 957.783386,814.488525 965.559998,819.211243 
	C971.532776,822.838440 973.457031,828.734375 971.146362,835.875977 
	C970.073669,839.191406 970.179016,842.888000 969.651245,847.226624 
	C974.366638,846.324585 978.095520,845.464111 981.870544,844.930054 
	C985.744995,844.381897 989.664612,844.152710 994.155396,843.728027 
	C992.690002,840.839172 991.622437,838.128174 990.048950,835.752136 
	C986.152161,829.867798 985.080200,824.082764 989.887329,818.204285 
	C994.451843,812.622559 994.972107,806.728577 992.410645,799.968994 
	C990.234375,794.226013 989.741150,788.217163 993.637390,782.617859 
	C994.905151,780.796021 995.556335,778.545044 996.411682,776.661682 
	C988.664124,773.326843 981.823853,769.177917 978.798889,760.740967 
	C976.031738,753.023132 979.235413,745.250183 984.577881,740.915955 
	C996.262939,731.436035 1014.630249,730.173157 1027.475586,738.515686 
	C1040.439819,746.935486 1040.746216,766.006897 1025.775879,773.122864 
	C1023.456238,774.225403 1021.248535,775.563538 1018.610779,776.998535 
	C1022.000916,782.249939 1025.138794,787.300476 1023.990967,793.565247 
	C1023.292175,797.379150 1022.695190,801.237122 1021.617432,804.949036 
	C1020.568970,808.560059 1020.751404,811.705383 1023.232849,814.629639 
	C1023.745056,815.233215 1023.970459,816.070984 1024.430298,816.729492 
	C1032.256592,827.937561 1029.040283,826.927795 1024.408325,837.265625 
	C1023.575989,839.123413 1022.968628,841.082031 1022.257324,842.994019 
	C1024.348633,843.640564 1026.408813,844.422363 1028.536743,844.909241 
	C1036.069702,846.632874 1043.625854,848.255798 1051.882080,850.097046 
	C1058.428467,852.357605 1064.265747,854.437988 1070.103149,856.518433 
	C1076.352173,860.130127 1082.601196,863.741882 1088.934692,867.933228 
	C1089.580322,870.018677 1089.875244,871.701782 1090.741943,873.004456 
	C1109.271851,900.856567 1116.777832,931.956787 1117.730225,964.716125 
	C1112.785889,957.851013 1108.502441,950.850159 1103.237671,944.687744 
	C1100.110840,941.027649 1095.718994,938.141235 1091.379517,935.912292 
	C1087.233154,933.782532 1082.841553,935.225159 1079.363403,938.361145 
	C1075.958374,941.431030 1075.823242,945.345825 1077.157227,949.412231 
	C1077.986694,951.940735 1078.932983,954.437927 1079.961182,956.892944 
	C1083.863403,966.210632 1085.042236,975.828857 1083.153442,985.764221 
	C1080.946289,997.375793 1078.264404,1008.911987 1076.493774,1020.587708 
	C1074.571899,1033.261597 1075.934814,1045.070679 1088.848145,1052.353027 
	C1084.801880,1058.097778 1080.863770,1063.516357 1076.706543,1068.959229 
	C1076.487671,1068.983521 1076.048584,1069.035400 1075.735840,1068.875366 
	C1067.400879,1063.398193 1059.328979,1058.154175 1051.371948,1052.741211 
	C1044.762451,1048.244995 1038.311890,1043.545654 1030.084839,1042.346436 
	C1017.392639,1040.496094 1008.106140,1051.103516 1012.474182,1063.072632 
	C1014.082031,1067.478271 1016.920471,1071.615601 1019.906555,1075.300903 
	C1026.848022,1083.867798 1035.956787,1089.646729 1045.809937,1094.278809 
	C1037.407593,1099.381958 1029.198364,1104.211182 1020.671143,1108.875244 
	C1016.253357,1107.448120 1012.225037,1105.469482 1008.041138,1105.052612 
	C992.888672,1103.542969 979.898621,1097.321411 968.466492,1087.672974 
	C960.724976,1081.139404 953.406189,1074.106812 945.848877,1067.352783 
	C937.993164,1060.331909 929.870850,1053.732544 919.136353,1051.561279 
	C900.958130,1047.884277 888.028564,1060.832397 892.106750,1078.836304 
	C894.455261,1089.204102 900.296021,1097.732178 907.660400,1105.120605 
	C913.862305,1111.342651 920.566895,1117.063965 926.637451,1122.974365 
	C922.814331,1122.240723 919.214111,1122.016602 916.024292,1120.754883 
	C903.244263,1115.699585 890.591675,1110.322510 877.891968,1105.064453 
	C873.561157,1099.040649 869.157166,1093.067627 864.931641,1086.970703 
	C862.935303,1084.090332 861.281128,1080.972656 859.038635,1077.241577 
	C855.019287,1082.071777 851.460693,1086.264404 847.997437,1090.534424 
	C844.696106,1094.604736 840.441956,1094.797241 835.889038,1093.596924 
	C830.561768,1092.192383 825.563599,1092.854614 821.793701,1096.907471 
	C815.723267,1103.433838 808.762085,1107.215210 799.625854,1106.117554 
	C798.660583,1106.001587 797.657959,1106.196899 796.686951,1106.247070 
	C796.453125,1109.668823 796.274475,1112.906006 796.002380,1116.135498 
	C795.407898,1123.191528 791.788147,1128.697510 785.825378,1131.927124 
	C777.783997,1136.282593 769.900574,1134.045898 763.160217,1128.642334 
	C755.133484,1122.207275 750.013489,1114.039673 748.547607,1103.426514 
	C747.394958,1095.080566 750.493164,1082.972900 758.735840,1078.973267 
	C766.331238,1075.287842 774.840820,1076.213013 783.360962,1083.855347 
	C784.101074,1084.519287 784.819641,1085.206909 786.022522,1086.323853 
	C787.060059,1085.004639 788.199097,1083.903320 788.924133,1082.576050 
	C792.520569,1075.992554 798.496521,1072.775757 805.487915,1072.057861 
	C812.829773,1071.304199 817.747864,1068.370972 820.901123,1061.486938 
	C824.066223,1054.576782 828.104065,1053.617676 835.797852,1054.640381 
	C840.059875,1055.207031 844.571838,1053.893066 849.615112,1053.358643 
	C848.021973,1048.888062 846.942017,1045.857422 845.622498,1042.308350 
	C845.222473,1041.586304 845.060547,1041.383423 844.897339,1041.181641 
	C844.897339,1041.181641 844.812683,1041.135864 844.870483,1040.665283 
	C843.595764,1033.096924 842.263184,1025.999146 840.930664,1018.901306 
M932.751526,899.120239 
	C932.506836,899.449890 932.262207,899.779541 931.569092,900.590027 
	C926.714355,904.651917 921.859558,908.713867 916.482117,913.232239 
	C904.732422,924.434326 895.552429,937.519104 887.772095,952.275330 
	C887.517395,952.516479 887.262634,952.757568 886.653687,953.327271 
	C886.419128,953.548462 886.196228,953.780823 886.000183,953.985535 
	C886.000183,953.985535 886.038696,954.001282 885.396667,954.239014 
	C882.249878,958.212341 878.179688,961.758911 876.112366,966.231201 
	C865.850769,988.430786 871.672302,1015.639832 889.686951,1032.241821 
	C893.817200,1036.048218 899.423218,1037.239746 902.883057,1034.711426 
	C907.395691,1031.413940 905.725403,1027.164307 904.419495,1022.926636 
	C902.805725,1017.689941 901.456055,1012.371826 900.056458,1006.894958 
	C900.056458,1006.894958 900.123535,1006.701965 900.854248,1006.669800 
	C911.352600,1003.848755 920.764282,999.098511 928.982666,991.156677 
	C929.386902,991.154114 929.791199,991.151611 930.512451,991.719910 
	C934.190186,992.788940 937.975037,995.023865 941.524597,994.697632 
	C950.420837,993.880066 959.279480,992.217102 968.022827,990.298767 
	C976.118591,988.522339 981.687561,983.686035 983.338623,974.638306 
	C983.568054,974.410583 983.798035,974.183411 984.891357,973.961853 
	C991.593872,972.973633 998.296387,971.985413 1005.529297,971.021606 
	C1005.705994,971.031982 1005.882629,971.042358 1006.016785,971.942017 
	C1006.670227,990.569092 1015.327637,1005.077698 1029.838135,1016.012024 
	C1037.833618,1022.037109 1046.633179,1021.348389 1053.467285,1014.354248 
	C1057.392334,1010.337402 1060.940674,1005.132507 1062.540161,999.824097 
	C1066.626343,986.262390 1062.220825,974.240295 1053.226318,963.765198 
	C1050.303711,960.361389 1047.075439,957.220032 1044.355469,953.407104 
	C1055.249023,942.383667 1059.331543,929.353638 1055.710938,913.569946 
	C1055.486572,913.022949 1055.262207,912.475952 1055.550049,911.445496 
	C1058.950684,906.584290 1058.624756,901.395874 1056.564087,896.245178 
	C1051.880249,884.537170 1041.700195,879.428711 1030.647217,876.296631 
	C1000.326172,867.704651 971.686096,872.435913 944.990723,888.858276 
	C940.572998,891.575928 936.969727,895.617493 933.005127,899.006042 
	C933.005127,899.006042 933.046265,898.991028 932.751526,899.120239 
M989.815796,1018.914551 
	C978.749207,1001.155457 955.003540,1000.070557 944.200928,1016.901367 
	C938.510437,1025.767334 939.425354,1034.746094 944.908142,1043.233398 
	C951.258545,1053.063843 960.728333,1056.560303 972.094421,1055.027222 
	C981.872620,1053.708496 988.631287,1047.738892 990.854065,1038.645996 
	C992.305237,1032.709595 990.501892,1025.977783 989.815796,1018.914551 
M771.138672,1109.193970 
	C770.142761,1109.164429 768.973206,1108.781372 768.182556,1109.169800 
	C765.515747,1110.479858 761.304749,1111.659546 760.825989,1113.646118 
	C760.231201,1116.114014 762.021667,1120.139038 764.102295,1122.065674 
	C768.504578,1126.142090 774.226746,1127.787231 780.323425,1126.562744 
	C786.142883,1125.394287 788.290344,1119.760620 783.934753,1115.800781 
	C780.674194,1112.836426 776.006775,1111.419678 771.138672,1109.193970 
M915.564270,776.323303 
	C922.751465,772.664001 925.694458,766.312988 925.761719,758.745056 
	C925.820312,752.152466 920.494995,749.511414 915.167908,753.331909 
	C909.709778,757.246338 906.917297,762.823608 907.024109,769.618103 
	C907.109802,775.069519 909.188721,776.823914 915.564270,776.323303 
M1006.314880,749.451416 
	C1007.810303,742.123535 1005.992493,738.888306 1000.589905,739.262634 
	C993.719971,739.738586 985.468506,747.962708 985.065918,754.735229 
	C984.765381,759.790039 988.034424,762.736023 992.911438,761.434082 
	C999.007568,759.806763 1003.537537,756.127747 1006.314880,749.451416 
M763.435669,903.923889 
	C765.153748,905.670959 766.602234,907.885803 768.647766,909.064880 
	C772.547729,911.312988 776.313171,909.451294 777.581116,905.155029 
	C779.368652,899.098267 776.493896,890.088806 771.521851,886.165771 
	C766.766541,882.413513 761.338196,883.937195 760.825928,889.863525 
	C760.448486,894.230103 762.247681,898.784973 763.435669,903.923889 
z"/>
<path fill="#2A628F" opacity="1.000000" stroke="none" 
	d="
M1020.989258,1109.040283 
	C1029.198364,1104.211182 1037.407593,1099.381958 1046.068359,1094.398682 
	C1047.036987,1094.484619 1047.553955,1094.724731 1048.441162,1095.055786 
	C1062.092529,1099.109619 1075.567871,1100.675781 1089.050537,1096.734131 
	C1094.503540,1095.139893 1099.833252,1092.548584 1104.637085,1089.495239 
	C1108.292114,1087.172119 1109.194946,1082.412842 1107.193970,1078.760254 
	C1105.847778,1076.302856 1102.408569,1074.667480 1099.567139,1073.463989 
	C1097.562134,1072.614746 1094.919312,1073.425171 1092.683350,1072.936401 
	C1087.392090,1071.779419 1082.173462,1070.290039 1076.925537,1068.934937 
	C1080.863770,1063.516357 1084.801880,1058.097778 1089.107666,1052.347534 
	C1089.647949,1052.012817 1089.820679,1052.009888 1090.360962,1052.153320 
	C1100.260986,1054.505859 1107.216064,1050.027344 1112.006104,1042.686157 
	C1126.743042,1020.100342 1127.430786,995.898560 1118.924805,970.559082 
	C1118.551147,968.439270 1118.264771,966.686157 1117.978394,964.933044 
	C1116.777832,931.956787 1109.271851,900.856567 1090.741943,873.004456 
	C1089.875244,871.701782 1089.580322,870.018677 1089.111938,868.246948 
	C1089.204712,867.981201 1089.475952,867.960632 1089.879517,868.177856 
	C1097.818848,874.620422 1105.354492,880.845642 1112.890259,887.070923 
	C1125.345825,900.092957 1135.819702,914.471985 1143.180908,931.658691 
	C1143.582886,932.467224 1143.834229,932.702698 1144.085449,932.938171 
	C1144.085449,932.938171 1144.046631,932.893066 1144.106445,933.256897 
	C1147.124756,942.441589 1150.083252,951.262451 1153.041626,960.083313 
	C1154.374268,966.830322 1155.710693,973.576599 1157.036011,980.325073 
	C1157.281738,981.576538 1157.482666,982.836853 1157.871338,984.926880 
	C1158.414551,992.626770 1158.790894,999.492859 1159.167114,1006.358948 
	C1158.778198,1007.908264 1158.041748,1009.460449 1158.054321,1011.006531 
	C1158.178589,1026.354858 1154.444092,1040.897949 1148.909912,1055.825195 
	C1145.107666,1064.383667 1141.485352,1072.237915 1137.862915,1080.092163 
	C1135.270386,1083.777832 1132.677856,1087.463501 1129.843628,1091.710083 
	C1124.711670,1098.160034 1119.821289,1104.049072 1114.931030,1109.938110 
	C1110.654785,1114.028687 1106.378418,1118.119141 1101.765991,1122.662598 
	C1094.262695,1128.043457 1087.095459,1132.971191 1079.928345,1137.899048 
	C1063.586670,1147.875854 1046.076538,1154.986206 1026.766602,1159.637329 
	C1019.049744,1161.022217 1011.993591,1162.072021 1004.937378,1163.121582 
	C996.194031,1163.112427 987.450195,1163.149780 978.707886,1163.050903 
	C977.143005,1163.033325 975.584412,1162.452759 973.185791,1162.030518 
	C963.186218,1159.627686 954.023804,1157.326782 944.861328,1155.025757 
	C936.717102,1151.366333 928.262512,1148.257080 920.518555,1143.888184 
	C913.210510,1139.765381 906.649963,1134.317383 899.258118,1129.025146 
	C893.810974,1124.023804 888.866272,1119.449707 883.921631,1114.875732 
	C881.951294,1111.836060 879.980957,1108.796265 877.951294,1105.410400 
	C890.591675,1110.322510 903.244263,1115.699585 916.024292,1120.754883 
	C919.214111,1122.016602 922.814331,1122.240723 926.971680,1123.055664 
	C928.835388,1123.454590 929.953369,1123.739624 931.301453,1124.264160 
	C932.496521,1125.143066 933.414185,1125.872437 934.433472,1126.408569 
	C952.752563,1136.042603 972.351013,1139.867065 992.790161,1137.564087 
	C1000.857544,1136.655151 1009.157104,1134.246094 1016.414551,1130.637085 
	C1024.921021,1126.406738 1026.345215,1116.747192 1021.000793,1109.746826 
	C1020.997375,1109.511230 1020.989197,1109.040283 1020.989258,1109.040283 
z"/>
<path fill="#3C759A" opacity="1.000000" stroke="none" 
	d="
M1080.252319,1138.080811 
	C1087.095459,1132.971191 1094.262695,1128.043457 1101.773438,1123.010864 
	C1106.496094,1124.933472 1110.954590,1126.807861 1115.232666,1129.029541 
	C1119.934204,1131.471191 1123.256226,1134.606567 1123.185913,1140.832153 
	C1123.120117,1146.647949 1124.643066,1151.949951 1130.814331,1155.455322 
	C1138.932007,1160.066284 1144.117554,1167.324463 1144.134033,1176.622925 
	C1151.063843,1176.622925 1158.169556,1175.039795 1164.151489,1176.958984 
	C1175.896606,1180.727051 1177.857544,1189.500488 1175.581543,1199.735229 
	C1172.245728,1214.735352 1161.631836,1223.152710 1146.887817,1225.938965 
	C1131.684814,1228.812012 1123.459229,1220.817627 1122.446899,1210.624023 
	C1121.842285,1204.537109 1124.368896,1198.139160 1125.636475,1191.051147 
	C1124.941162,1190.751465 1122.964355,1189.760132 1120.894409,1189.034424 
	C1115.228149,1187.047485 1111.909058,1182.968872 1109.895508,1177.472900 
	C1107.630249,1171.290161 1104.840942,1165.166382 1097.326538,1164.263794 
	C1086.899780,1163.011353 1085.629517,1155.129272 1083.857056,1147.221924 
	C1083.167358,1144.145020 1081.693237,1141.243774 1080.252319,1138.080811 
M1159.469238,1184.707031 
	C1153.282349,1189.751709 1151.190918,1199.920166 1154.964722,1206.744019 
	C1156.776978,1210.020752 1159.487915,1212.065796 1163.114746,1210.137573 
	C1168.063354,1207.506592 1169.046021,1202.337891 1169.493286,1197.362183 
	C1169.898804,1192.850586 1169.405640,1188.202881 1165.317871,1185.265259 
	C1164.053711,1184.356812 1161.909546,1184.672363 1159.469238,1184.707031 
z"/>
<path fill="#3C759A" opacity="1.000000" stroke="none" 
	d="
M1138.020020,1080.405273 
	C1141.485352,1072.237915 1145.107666,1064.383667 1148.885742,1056.200928 
	C1154.114136,1055.582642 1159.209595,1055.499268 1164.252563,1054.940308 
	C1168.577515,1054.460938 1172.345459,1056.047241 1173.924561,1059.498535 
	C1177.932739,1068.258301 1185.324707,1070.571289 1193.696533,1070.858887 
	C1201.335693,1071.121338 1205.994507,1075.228149 1209.739380,1081.152832 
	C1210.098877,1081.721558 1210.496704,1082.265991 1210.485474,1082.249634 
	C1215.741455,1078.922241 1220.249268,1074.982666 1225.496338,1072.975464 
	C1236.094849,1068.920776 1245.129272,1074.475220 1249.271118,1085.146851 
	C1254.997559,1099.900513 1246.389282,1122.354248 1229.152222,1128.588257 
	C1219.730957,1131.995483 1208.942017,1126.355591 1205.084351,1114.951172 
	C1203.863525,1111.342041 1203.952515,1107.289795 1203.460693,1103.580322 
	C1198.612915,1103.580322 1193.524048,1104.541748 1189.037598,1103.309570 
	C1184.558105,1102.079224 1180.585693,1098.797485 1176.569702,1096.144653 
	C1173.020020,1093.799927 1169.711548,1092.449463 1165.223877,1093.948242 
	C1156.927612,1096.718994 1149.880493,1095.327637 1145.085327,1086.891602 
	C1143.639038,1084.347046 1140.526367,1082.749512 1138.020020,1080.405273 
M1229.212280,1079.880859 
	C1224.550049,1087.248291 1228.412720,1100.053101 1236.275024,1103.293945 
	C1240.227905,1104.923340 1243.532227,1103.572388 1244.661133,1099.865601 
	C1246.691162,1093.199463 1242.950806,1083.099365 1236.754883,1079.913696 
	C1234.852661,1078.935547 1232.138306,1079.536987 1229.212280,1079.880859 
z"/>
<path fill="#3C759A" opacity="1.000000" stroke="none" 
	d="
M1153.503174,960.070557 
	C1150.083252,951.262451 1147.124756,942.441589 1144.135376,933.250000 
	C1145.668091,931.383057 1147.480713,930.071350 1148.749878,928.357117 
	C1153.051514,922.546875 1157.609741,917.725098 1165.830322,920.939453 
	C1171.473633,923.146057 1176.786621,921.399658 1180.569214,917.494629 
	C1186.923096,910.934937 1194.395264,909.159363 1202.973267,909.868774 
	C1203.766602,909.934326 1204.580811,909.748474 1205.621582,909.659119 
	C1205.938965,905.920349 1205.921875,902.308350 1206.598511,898.831421 
	C1209.183838,885.547607 1222.995117,878.338440 1235.957520,886.331848 
	C1249.346069,894.588074 1256.344238,910.385193 1252.051636,925.728027 
	C1247.230225,942.960144 1229.675659,943.997925 1218.176880,933.694763 
	C1216.955444,932.600342 1216.109497,931.086792 1214.798950,929.392334 
	C1210.866699,935.835693 1207.116211,941.140137 1200.084839,942.541809 
	C1197.388306,943.079407 1194.697510,943.768433 1191.970703,944.006226 
	C1186.250977,944.505005 1182.466675,947.288879 1179.911865,952.459656 
	C1176.630493,959.100525 1172.636475,960.770874 1164.943115,960.078247 
	C1161.312378,959.751343 1157.625977,960.045105 1153.503174,960.070557 
M1238.911133,895.549683 
	C1234.019775,891.780090 1228.667358,889.244263 1222.327148,890.346497 
	C1216.248413,891.403259 1214.481323,896.241821 1218.435059,900.921448 
	C1222.381104,905.591736 1227.475952,908.532898 1233.673462,907.834412 
	C1236.477539,907.518372 1240.172974,906.058411 1241.423584,903.922729 
	C1242.396118,902.261780 1240.208130,898.750305 1238.911133,895.549683 
z"/>
<path fill="#3C759A" opacity="1.000000" stroke="none" 
	d="
M944.894409,1155.395020 
	C954.023804,1157.326782 963.186218,1159.627686 972.775574,1161.975830 
	C973.869873,1165.517944 974.316528,1169.073486 975.255310,1172.494141 
	C976.748047,1177.932983 976.940063,1183.050049 971.847900,1186.663818 
	C965.292786,1191.315674 964.284790,1197.796021 964.987366,1205.055542 
	C965.773743,1213.180664 964.391907,1220.517944 956.555786,1225.500977 
	C959.184387,1227.965454 961.319275,1230.139648 963.633240,1232.102905 
	C969.821960,1237.353760 972.678406,1244.180176 970.541565,1251.830688 
	C968.187988,1260.257446 961.736511,1265.191895 953.110840,1267.039185 
	C940.295288,1269.783936 928.761047,1267.300293 919.409180,1257.854248 
	C906.622253,1244.938843 911.472778,1230.196655 926.953125,1223.957275 
	C929.522339,1222.921753 933.339783,1222.719238 934.399231,1220.877197 
	C935.343750,1219.235107 933.406372,1215.807251 932.496399,1213.254761 
	C930.843079,1208.616821 932.403503,1204.539673 934.670166,1200.703491 
	C939.036926,1193.313110 940.145203,1186.206299 935.749146,1178.114380 
	C933.228760,1173.475098 934.850037,1168.473267 938.912964,1164.391724 
	C941.348633,1161.944702 942.950745,1158.667969 944.894409,1155.395020 
M961.403931,1254.842651 
	C962.280579,1253.248169 963.431030,1251.741943 963.979492,1250.041626 
	C965.310852,1245.913696 963.159851,1242.777954 958.858032,1242.188599 
	C952.140930,1241.268311 942.189819,1247.749878 940.415771,1254.200684 
	C939.159973,1258.766602 941.216370,1261.710938 945.984985,1262.016235 
	C952.097717,1262.407715 956.914246,1259.771362 961.403931,1254.842651 
z"/>
<path fill="#3C759A" opacity="1.000000" stroke="none" 
	d="
M1113.071899,886.754395 
	C1105.354492,880.845642 1097.818848,874.620422 1090.015503,868.173340 
	C1090.496094,863.991455 1090.593506,859.739197 1092.198975,856.164185 
	C1093.474243,853.324829 1096.251831,849.845215 1098.960571,849.213257 
	C1106.818848,847.379700 1111.640259,843.168091 1113.703857,835.511353 
	C1115.742554,827.946350 1121.055664,823.443848 1127.911011,820.384399 
	C1128.784180,819.994751 1129.586182,819.445679 1130.711914,818.804993 
	C1125.950195,812.260620 1123.364380,804.899841 1125.326416,797.283569 
	C1128.025757,786.805176 1138.661133,781.095764 1149.140991,783.120483 
	C1162.351440,785.672852 1172.440796,793.201477 1177.970947,805.807434 
	C1183.202759,817.733765 1178.077881,831.010559 1163.906006,832.922363 
	C1158.940552,833.592163 1153.808960,833.029175 1149.273315,833.029175 
	C1147.754272,837.456116 1146.665771,842.722229 1144.166748,847.201416 
	C1142.390381,850.385193 1138.814575,852.631958 1135.854858,855.069824 
	C1132.882568,857.518250 1129.654053,859.808167 1130.124512,864.206665 
	C1131.195312,874.219666 1127.536621,881.115540 1117.635498,884.265686 
	C1116.099854,884.754333 1114.710571,885.702332 1113.071899,886.754395 
M1132.500488,800.024170 
	C1137.340942,807.701843 1153.103271,807.711243 1157.927002,799.962280 
	C1159.702393,797.110229 1159.655884,793.963257 1156.824829,791.934570 
	C1154.898926,790.554565 1152.326904,789.752686 1149.939087,789.399292 
	C1141.278564,788.117432 1133.812256,792.460449 1132.500488,800.024170 
z"/>
<path fill="#295774" opacity="1.000000" stroke="none" 
	d="
M840.559265,1018.924011 
	C842.263184,1025.999146 843.595764,1033.096924 844.876038,1040.617432 
	C837.591492,1038.794434 830.610291,1037.453003 823.941956,1043.051392 
	C820.909912,1045.596924 817.127380,1045.751953 813.342468,1043.397461 
	C811.667969,1042.355713 809.104614,1041.740845 807.243652,1042.184937 
	C801.138123,1043.641968 795.265869,1047.049316 788.788513,1042.450073 
	C787.130798,1049.250732 783.782959,1053.638550 777.422974,1054.892212 
	C771.481140,1056.063232 766.076721,1052.620605 763.007996,1044.976196 
	C759.976379,1037.424316 760.016663,1029.065796 765.657837,1022.789734 
	C771.358582,1016.447327 781.358093,1017.950745 785.415833,1025.568237 
	C785.943970,1026.559692 786.556213,1027.506470 787.315125,1028.787231 
	C790.881470,1025.201904 794.720886,1023.984558 799.700073,1024.818726 
	C803.902649,1025.522949 808.179504,1025.615479 812.113525,1021.804382 
	C814.075317,1019.903809 819.539917,1019.476501 822.155579,1020.828796 
	C828.018677,1023.859985 832.830933,1022.930176 837.920471,1019.846008 
	C838.606140,1019.430481 839.428711,1019.240967 840.559265,1018.924011 
z"/>
<path fill="#295774" opacity="1.000000" stroke="none" 
	d="
M1070.145020,856.159424 
	C1064.265747,854.437988 1058.428467,852.357605 1052.280029,850.091553 
	C1052.940430,848.412903 1054.295166,847.038940 1054.804077,845.402161 
	C1055.871826,841.968140 1056.367920,838.360413 1057.338745,834.891113 
	C1058.171631,831.915039 1058.480713,827.693604 1060.531494,826.379456 
	C1065.197998,823.389160 1067.578979,819.846252 1068.918335,814.529236 
	C1069.903076,810.620056 1072.883667,807.213562 1074.739624,803.991394 
	C1073.546387,800.465637 1071.495483,796.784424 1071.184814,792.961792 
	C1070.642578,786.288635 1073.914795,782.609436 1080.523315,781.161438 
	C1088.919189,779.321899 1103.974487,785.851562 1105.336670,796.400635 
	C1106.274414,803.662354 1101.708496,809.909485 1094.372925,809.990967 
	C1092.888672,810.007446 1091.404175,809.993286 1089.122192,809.993286 
	C1090.507324,817.708984 1086.148193,822.868591 1082.197266,828.303467 
	C1081.250366,829.606018 1080.616211,832.074280 1081.206421,833.395081 
	C1083.896118,839.414368 1080.116455,842.375366 1076.058472,845.085571 
	C1072.137207,847.704468 1070.333984,851.236938 1070.145020,856.159424 
z"/>
<path fill="#295774" opacity="1.000000" stroke="none" 
	d="
M1115.313721,1110.009766 
	C1119.821289,1104.049072 1124.711670,1098.160034 1129.873169,1092.057983 
	C1133.622559,1096.396851 1134.706055,1102.974609 1141.244873,1104.941650 
	C1142.176880,1105.221924 1143.073608,1105.897339 1143.990601,1105.904785 
	C1149.715332,1105.952026 1152.386108,1108.758179 1153.282593,1114.425171 
	C1153.621582,1116.567993 1155.917847,1119.059692 1157.978760,1120.142578 
	C1163.184326,1122.877808 1168.302979,1125.334473 1168.365479,1132.736206 
	C1170.273438,1132.002319 1171.442261,1131.574585 1172.594482,1131.105713 
	C1177.752319,1129.007446 1182.530151,1129.492554 1186.824585,1133.199463 
	C1191.093262,1136.884155 1190.820068,1142.080078 1189.742920,1146.488647 
	C1187.594482,1155.282227 1181.355713,1161.560425 1171.361572,1163.044067 
	C1166.190796,1163.811768 1158.645630,1160.571167 1159.012451,1152.523071 
	C1159.057861,1151.526978 1158.919312,1150.515747 1159.032227,1149.530640 
	C1159.501221,1145.438843 1160.126343,1141.815186 1153.896729,1141.294800 
	C1151.662720,1141.108276 1149.192017,1137.871216 1147.744507,1135.473755 
	C1145.331787,1131.477783 1142.137329,1129.183472 1137.607788,1129.077271 
	C1133.614990,1128.983521 1131.367798,1126.768799 1130.621826,1123.366577 
	C1128.973999,1115.850098 1124.070190,1112.212036 1116.985107,1110.737183 
	C1116.529663,1110.642334 1116.124756,1110.305664 1115.313721,1110.009766 
M1176.881714,1146.424927 
	C1179.433594,1151.058350 1183.245117,1152.337036 1184.363770,1148.949463 
	C1185.495605,1145.521851 1184.829224,1141.367676 1184.300171,1137.623901 
	C1184.177856,1136.758057 1180.966919,1135.300171 1179.939209,1135.772461 
	C1175.936523,1137.611694 1175.992188,1141.426270 1176.518311,1145.194702 
	C1176.541016,1145.358154 1176.596069,1145.517090 1176.881714,1146.424927 
z"/>
<path fill="#295774" opacity="1.000000" stroke="none" 
	d="
M1004.965820,1163.499878 
	C1011.993591,1162.072021 1019.049744,1161.022217 1026.533691,1159.935547 
	C1023.264709,1167.485474 1022.544006,1174.725952 1028.284302,1181.936279 
	C1029.481812,1183.440430 1029.646240,1187.446655 1028.505005,1188.828491 
	C1024.553101,1193.613647 1025.514526,1198.147705 1026.821533,1203.508301 
	C1027.685425,1207.051514 1026.235229,1211.158691 1025.752686,1215.649048 
	C1026.926636,1216.243896 1029.252441,1217.029541 1031.111084,1218.433594 
	C1038.450073,1223.977417 1038.290039,1234.233276 1029.407959,1239.909912 
	C1021.608337,1244.894897 1010.735046,1244.175415 1003.668457,1237.330933 
	C997.020142,1230.891846 1000.326721,1223.130493 1004.903320,1219.421387 
	C1006.394287,1218.213013 1008.176331,1217.364014 1010.275024,1216.074341 
	C1006.441895,1210.300049 1006.435059,1204.135620 1008.300049,1197.521729 
	C1008.786194,1195.797363 1006.836853,1192.895874 1005.283813,1191.194214 
	C1002.466064,1188.106689 1002.388306,1184.914062 1004.487549,1181.892456 
	C1008.667236,1175.876465 1007.746338,1169.961182 1004.965820,1163.499878 
M1025.939697,1237.480835 
	C1029.544556,1235.273438 1032.263794,1232.409668 1031.512939,1227.858521 
	C1031.343384,1226.831421 1028.922607,1225.114380 1028.500854,1225.360962 
	C1025.526611,1227.100708 1022.481995,1228.967896 1020.154419,1231.446655 
	C1019.183594,1232.480713 1019.203369,1235.606079 1020.084473,1236.854980 
	C1020.806396,1237.878418 1023.472656,1237.530151 1025.939697,1237.480835 
z"/>
<path fill="#295774" opacity="1.000000" stroke="none" 
	d="
M883.603271,1115.041748 
	C888.866272,1119.449707 893.810974,1124.023804 898.963257,1128.871704 
	C892.053101,1132.080200 886.714905,1136.189697 885.530334,1144.746826 
	C885.240967,1146.837158 880.853638,1149.540649 878.122925,1149.832275 
	C874.164429,1150.255005 871.983337,1151.934082 870.613770,1155.128174 
	C868.269226,1160.596313 863.545776,1162.901855 858.077332,1164.317139 
	C860.754517,1171.002808 861.542603,1176.866333 855.734070,1181.829224 
	C852.551697,1184.548340 849.432556,1185.616577 845.146851,1184.312134 
	C832.909790,1180.587158 828.079651,1174.726685 828.005249,1162.621216 
	C827.964600,1156.005859 835.070251,1150.449341 841.556580,1152.069336 
	C843.731201,1152.612305 845.868652,1153.303955 848.302734,1154.008789 
	C849.772766,1147.740112 853.643250,1143.927979 858.979309,1141.092041 
	C860.710876,1140.171753 862.497437,1137.782104 862.713867,1135.888062 
	C863.290833,1130.840454 865.305725,1127.550293 870.482605,1126.652344 
	C877.139221,1125.497925 880.694641,1120.898560 883.603271,1115.041748 
M850.556091,1171.519165 
	C849.905884,1171.385498 849.187317,1171.002808 848.616882,1171.159302 
	C845.421936,1172.036621 842.225403,1172.948730 839.149658,1174.155518 
	C838.843994,1174.275391 839.048279,1177.386353 839.527832,1177.543091 
	C842.823059,1178.620117 846.242798,1179.773804 849.647644,1179.855591 
	C851.234497,1179.893799 853.514771,1177.876099 854.237183,1176.240723 
	C854.622314,1175.368896 852.358887,1173.327148 850.556091,1171.519165 
z"/>
<path fill="#295774" opacity="1.000000" stroke="none" 
	d="
M1159.496338,1006.144531 
	C1158.790894,999.492859 1158.414551,992.626770 1158.060791,985.278442 
	C1165.012207,987.753601 1171.634644,987.463867 1178.499878,984.024780 
	C1180.711060,982.917175 1184.966553,982.997498 1186.709229,984.440125 
	C1190.528931,987.601990 1194.342529,987.522705 1198.200562,986.077393 
	C1203.255737,984.183594 1207.264160,986.745239 1211.819824,988.445984 
	C1212.802979,986.818237 1213.560669,985.187073 1214.650146,983.820679 
	C1222.429077,974.064087 1231.573242,976.717102 1236.719116,986.264648 
	C1241.144653,994.475769 1239.093750,1003.547424 1234.460449,1009.202576 
	C1227.648071,1017.517395 1218.945435,1014.964111 1213.851196,1006.876343 
	C1213.076660,1005.646667 1212.313599,1004.409729 1211.391357,1002.928833 
	C1206.569214,1006.595642 1201.702148,1006.414673 1196.342651,1005.061218 
	C1193.675659,1004.387756 1189.964355,1004.768127 1187.711548,1006.211304 
	C1183.667847,1008.801880 1180.270630,1009.524170 1176.129028,1006.822449 
	C1170.941040,1003.437927 1165.440796,1002.917297 1159.496338,1006.144531 
M1223.035889,990.360474 
	C1223.583130,990.986328 1224.064331,991.689209 1224.689087,992.224670 
	C1227.334473,994.492126 1230.010864,997.482056 1233.693604,994.214661 
	C1235.807251,992.339294 1234.138184,987.415405 1230.768799,984.688904 
	C1230.382080,984.376038 1229.970459,983.914185 1229.535522,983.870605 
	C1227.229370,983.639648 1224.912109,983.520264 1222.598755,983.362244 
	C1222.604980,985.496033 1222.611206,987.629883 1223.035889,990.360474 
z"/>
<path fill="#295774" opacity="1.000000" stroke="none" 
	d="
M903.898315,872.567139 
	C898.806519,877.040344 893.597290,881.191284 888.181213,885.596313 
	C886.975830,880.202698 885.238708,875.189697 879.186768,872.789490 
	C874.535461,870.944763 871.239563,868.230286 871.720276,862.100708 
	C871.913513,859.636597 869.476257,856.332092 867.321899,854.465210 
	C864.019287,851.603271 860.627380,849.336670 860.771362,844.232605 
	C860.795532,843.373474 858.160339,841.543457 856.936768,841.689941 
	C848.803894,842.663513 842.799561,839.581421 841.418884,831.691650 
	C840.817139,828.252747 842.869202,823.869812 844.814514,820.561584 
	C849.282471,812.963501 857.675049,809.471069 865.826843,810.974792 
	C872.054199,812.123535 876.666382,819.544617 874.840759,825.744690 
	C874.166077,828.035706 873.014160,830.186279 871.953308,832.700928 
	C877.838196,834.749268 880.740234,839.329041 882.935547,845.000183 
	C883.827148,847.303467 886.843323,849.446045 889.357910,850.313477 
	C893.790344,851.842468 895.979736,855.010559 896.022339,858.971924 
	C896.088745,865.152954 898.735596,869.258179 903.898315,872.567139 
M846.200256,826.076843 
	C846.129211,827.233765 845.670044,828.550415 846.066772,829.514893 
	C846.929138,831.611328 848.228394,833.528137 849.349182,835.518433 
	C851.188965,833.942444 853.136108,832.470093 854.810913,830.734924 
	C855.407654,830.116760 855.778503,828.708374 855.502380,827.924988 
	C854.593323,825.345520 853.963257,821.570435 852.079468,820.679810 
	C848.978394,819.213684 847.292969,822.416199 846.200256,826.076843 
z"/>
<path fill="#3C759A" opacity="1.000000" stroke="none" 
	d="
M1144.025635,932.662659 
	C1143.834229,932.702698 1143.582886,932.467224 1143.183105,932.018860 
	C1143.344849,931.999695 1143.655396,932.193420 1144.025635,932.662659 
z"/>
<path fill="#295774" opacity="1.000000" stroke="none" 
	d="
M844.914673,1041.398193 
	C845.060547,1041.383423 845.222473,1041.586304 845.487732,1041.946167 
	C845.278076,1042.067749 845.057983,1041.905151 844.914673,1041.398193 
z"/>
<path fill="#4483A2" opacity="1.000000" stroke="none" 
	d="
M917.004822,912.775757 
	C921.859558,908.713867 926.714355,904.651917 931.975220,900.172119 
	C932.603027,899.499878 932.824646,899.245422 933.046265,898.991028 
	C933.046265,898.991028 933.005127,899.006042 933.323486,898.900146 
	C935.498352,897.686035 937.367859,896.598999 939.209351,895.466309 
	C959.385925,883.056213 981.029541,875.540405 1004.997864,877.036194 
	C1028.571777,878.507263 1046.242676,888.992920 1055.037720,911.929016 
	C1055.262207,912.475952 1055.486572,913.022949 1055.571289,914.042908 
	C1049.810181,922.098450 1042.327881,927.117188 1033.055786,928.302979 
	C1024.531494,929.393066 1015.841858,929.427063 1007.222168,929.481628 
	C993.606873,929.567871 979.974731,928.838806 966.376709,929.281860 
	C953.433167,929.703552 942.771057,936.680298 931.915344,942.941650 
	C926.944336,945.808899 921.259460,946.499023 916.280579,942.926025 
	C910.882446,939.052185 910.309937,933.110718 911.440186,927.122437 
	C911.984192,924.239868 913.551514,921.551025 914.650085,918.772400 
	C915.439575,916.775330 916.220276,914.774841 917.004822,912.775757 
z"/>
<path fill="#266588" opacity="1.000000" stroke="none" 
	d="
M931.071350,1124.024658 
	C929.953369,1123.739624 928.835388,1123.454590 927.383179,1123.088135 
	C920.566895,1117.063965 913.862305,1111.342651 907.660400,1105.120605 
	C900.296021,1097.732178 894.455261,1089.204102 892.106750,1078.836304 
	C888.028564,1060.832397 900.958130,1047.884277 919.136353,1051.561279 
	C929.870850,1053.732544 937.993164,1060.331909 945.848877,1067.352783 
	C953.406189,1074.106812 960.724976,1081.139404 968.466492,1087.672974 
	C979.898621,1097.321411 992.888672,1103.542969 1008.041138,1105.052612 
	C1012.225037,1105.469482 1016.253357,1107.448120 1020.671143,1108.875122 
	C1020.989197,1109.040283 1020.997375,1109.511230 1020.628784,1109.813232 
	C1018.058777,1110.866211 1015.800110,1111.482056 1013.664795,1112.388306 
	C987.166626,1123.634888 959.595825,1127.197021 931.071350,1124.024658 
z"/>
<path fill="#5A8FB0" opacity="1.000000" stroke="none" 
	d="
M916.743530,913.004028 
	C916.220276,914.774841 915.439575,916.775330 914.650085,918.772400 
	C913.551514,921.551025 911.984192,924.239868 911.440186,927.122437 
	C910.309937,933.110718 910.882446,939.052185 916.280579,942.926025 
	C921.259460,946.499023 926.944336,945.808899 931.915344,942.941650 
	C942.771057,936.680298 953.433167,929.703552 966.376709,929.281860 
	C979.974731,928.838806 993.606873,929.567871 1007.222168,929.481628 
	C1015.841858,929.427063 1024.531494,929.393066 1033.055786,928.302979 
	C1042.327881,927.117188 1049.810181,922.098450 1055.681152,914.317322 
	C1059.331543,929.353638 1055.249023,942.383667 1043.932129,953.705933 
	C1043.508911,954.004822 1043.031006,954.054138 1042.754272,953.850830 
	C1034.640747,947.801575 1025.878662,944.458862 1016.552124,948.528015 
	C1007.172180,952.620422 1005.318176,961.671265 1004.998901,970.997192 
	C998.296387,971.985413 991.593872,972.973633 984.448853,973.532837 
	C983.469727,960.171753 975.801941,950.810913 963.611877,948.270630 
	C951.737061,945.795959 941.549194,949.354004 931.808838,956.210144 
	C922.396912,962.835083 917.154297,981.688293 928.382324,991.163940 
	C920.764282,999.098511 911.352600,1003.848755 900.565613,1006.312561 
	C902.069946,995.319458 904.019836,984.707092 905.616638,974.041870 
	C907.690613,960.190063 901.387512,952.352844 888.148560,951.905151 
	C895.552429,937.519104 904.732422,924.434326 916.743530,913.004028 
z"/>
<path fill="#266588" opacity="1.000000" stroke="none" 
	d="
M1089.993530,1052.006836 
	C1089.820679,1052.009888 1089.647949,1052.012817 1089.215820,1052.021484 
	C1075.934814,1045.070679 1074.571899,1033.261597 1076.493774,1020.587708 
	C1078.264404,1008.911987 1080.946289,997.375793 1083.153442,985.764221 
	C1085.042236,975.828857 1083.863403,966.210632 1079.961182,956.892944 
	C1078.932983,954.437927 1077.986694,951.940735 1077.157227,949.412231 
	C1075.823242,945.345825 1075.958374,941.431030 1079.363403,938.361145 
	C1082.841553,935.225159 1087.233154,933.782532 1091.379517,935.912292 
	C1095.718994,938.141235 1100.110840,941.027649 1103.237671,944.687744 
	C1108.502441,950.850159 1112.785889,957.851013 1117.730225,964.716125 
	C1118.264771,966.686157 1118.551147,968.439270 1118.682861,970.857300 
	C1118.043823,973.075745 1117.215210,974.609680 1117.125732,976.185547 
	C1115.537964,1004.138428 1105.504395,1029.047852 1089.993530,1052.006836 
z"/>
<path fill="#266588" opacity="1.000000" stroke="none" 
	d="
M1043.031006,954.054138 
	C1043.031006,954.054138 1043.508911,954.004822 1043.747925,953.981689 
	C1047.075439,957.220032 1050.303711,960.361389 1053.226318,963.765198 
	C1062.220825,974.240295 1066.626343,986.262390 1062.540161,999.824097 
	C1060.940674,1005.132507 1057.392334,1010.337402 1053.467285,1014.354248 
	C1046.633179,1021.348389 1037.833618,1022.037109 1029.838135,1016.012024 
	C1015.327637,1005.077698 1006.670227,990.569092 1006.421875,971.436768 
	C1020.104614,967.900452 1032.721436,963.451904 1043.031006,954.054138 
z"/>
<path fill="#266588" opacity="1.000000" stroke="none" 
	d="
M989.986084,1019.258423 
	C990.501892,1025.977783 992.305237,1032.709595 990.854065,1038.645996 
	C988.631287,1047.738892 981.872620,1053.708496 972.094421,1055.027222 
	C960.728333,1056.560303 951.258545,1053.063843 944.908142,1043.233398 
	C939.425354,1034.746094 938.510437,1025.767334 944.200928,1016.901367 
	C955.003540,1000.070557 978.749207,1001.155457 989.986084,1019.258423 
z"/>
<path fill="#266588" opacity="1.000000" stroke="none" 
	d="
M1048.071045,1094.964844 
	C1047.553955,1094.724731 1047.036987,1094.484619 1046.261597,1094.124756 
	C1035.956787,1089.646729 1026.848022,1083.867798 1019.906555,1075.300903 
	C1016.920471,1071.615601 1014.082031,1067.478271 1012.474182,1063.072632 
	C1008.106140,1051.103516 1017.392639,1040.496094 1030.084839,1042.346436 
	C1038.311890,1043.545654 1044.762451,1048.244995 1051.371948,1052.741211 
	C1059.328979,1058.154175 1067.400879,1063.398193 1075.534424,1069.140381 
	C1069.388184,1075.417358 1063.150024,1081.290161 1056.864258,1087.111572 
	C1053.981445,1089.781372 1051.005005,1092.350220 1048.071045,1094.964844 
z"/>
<path fill="#4483A2" opacity="1.000000" stroke="none" 
	d="
M928.682495,991.160278 
	C917.154297,981.688293 922.396912,962.835083 931.808838,956.210144 
	C941.549194,949.354004 951.737061,945.795959 963.611877,948.270630 
	C975.801941,950.810913 983.469727,960.171753 984.017456,973.530273 
	C983.798035,974.183411 983.568054,974.410583 982.724670,974.809692 
	C963.570557,976.404541 945.936035,980.736023 930.195435,991.149048 
	C929.791199,991.151611 929.386902,991.154114 928.682495,991.160278 
z"/>
<path fill="#4483A2" opacity="1.000000" stroke="none" 
	d="
M887.960327,952.090210 
	C901.387512,952.352844 907.690613,960.190063 905.616638,974.041870 
	C904.019836,984.707092 902.069946,995.319458 900.200256,1006.328613 
	C900.123535,1006.701965 900.056458,1006.894958 899.560425,1006.985779 
	C895.909973,1007.047180 892.741516,1007.198303 889.603760,1006.954895 
	C879.631104,1006.181335 873.997681,999.561768 875.789185,989.771240 
	C877.275574,981.648499 879.718628,973.690369 881.952515,965.719421 
	C883.066589,961.743896 884.661316,957.903076 886.038696,954.001282 
	C886.038696,954.001282 886.000183,953.985535 886.183960,953.855835 
	C886.604248,953.503967 886.817627,953.261475 887.007874,952.998657 
	C887.262634,952.757568 887.517395,952.516479 887.960327,952.090210 
z"/>
<path fill="#295774" opacity="1.000000" stroke="none" 
	d="
M1048.441162,1095.055786 
	C1051.005005,1092.350220 1053.981445,1089.781372 1056.864258,1087.111572 
	C1063.150024,1081.290161 1069.388184,1075.417358 1075.847168,1069.300537 
	C1076.048584,1069.035400 1076.487671,1068.983521 1076.706543,1068.959229 
	C1082.173462,1070.290039 1087.392090,1071.779419 1092.683350,1072.936401 
	C1094.919312,1073.425171 1097.562134,1072.614746 1099.567139,1073.463989 
	C1102.408569,1074.667480 1105.847778,1076.302856 1107.193970,1078.760254 
	C1109.194946,1082.412842 1108.292114,1087.172119 1104.637085,1089.495239 
	C1099.833252,1092.548584 1094.503540,1095.139893 1089.050537,1096.734131 
	C1075.567871,1100.675781 1062.092529,1099.109619 1048.441162,1095.055786 
z"/>
<path fill="#266588" opacity="1.000000" stroke="none" 
	d="
M885.717651,954.120117 
	C884.661316,957.903076 883.066589,961.743896 881.952515,965.719421 
	C879.718628,973.690369 877.275574,981.648499 875.789185,989.771240 
	C873.997681,999.561768 879.631104,1006.181335 889.603760,1006.954895 
	C892.741516,1007.198303 895.909973,1007.047180 899.528320,1007.082764 
	C901.456055,1012.371826 902.805725,1017.689941 904.419495,1022.926636 
	C905.725403,1027.164307 907.395691,1031.413940 902.883057,1034.711426 
	C899.423218,1037.239746 893.817200,1036.048218 889.686951,1032.241821 
	C871.672302,1015.639832 865.850769,988.430786 876.112366,966.231201 
	C878.179688,961.758911 882.249878,958.212341 885.717651,954.120117 
z"/>
<path fill="#266588" opacity="1.000000" stroke="none" 
	d="
M1055.293945,911.687256 
	C1046.242676,888.992920 1028.571777,878.507263 1004.997864,877.036194 
	C981.029541,875.540405 959.385925,883.056213 939.209351,895.466309 
	C937.367859,896.598999 935.498352,897.686035 933.315979,898.920776 
	C936.969727,895.617493 940.572998,891.575928 944.990723,888.858276 
	C971.686096,872.435913 1000.326172,867.704651 1030.647217,876.296631 
	C1041.700195,879.428711 1051.880249,884.537170 1056.564087,896.245178 
	C1058.624756,901.395874 1058.950684,906.584290 1055.293945,911.687256 
z"/>
<path fill="#266588" opacity="1.000000" stroke="none" 
	d="
M930.353943,991.434448 
	C945.936035,980.736023 963.570557,976.404541 982.555359,974.982788 
	C981.687561,983.686035 976.118591,988.522339 968.022827,990.298767 
	C959.279480,992.217102 950.420837,993.880066 941.524597,994.697632 
	C937.975037,995.023865 934.190186,992.788940 930.353943,991.434448 
z"/>
<path fill="#4483A2" opacity="1.000000" stroke="none" 
	d="
M1042.754272,953.850830 
	C1032.721436,963.451904 1020.104614,967.900452 1006.443176,970.992065 
	C1005.882629,971.042358 1005.705994,971.031982 1005.264099,971.009399 
	C1005.318176,961.671265 1007.172180,952.620422 1016.552124,948.528015 
	C1025.878662,944.458862 1034.640747,947.801575 1042.754272,953.850830 
z"/>
<path fill="#5A8FB0" opacity="1.000000" stroke="none" 
	d="
M771.552246,1109.253906 
	C776.006775,1111.419678 780.674194,1112.836426 783.934753,1115.800781 
	C788.290344,1119.760620 786.142883,1125.394287 780.323425,1126.562744 
	C774.226746,1127.787231 768.504578,1126.142090 764.102295,1122.065674 
	C762.021667,1120.139038 760.231201,1116.114014 760.825989,1113.646118 
	C761.304749,1111.659546 765.515747,1110.479858 768.182556,1109.169800 
	C768.973206,1108.781372 770.142761,1109.164429 771.552246,1109.253906 
z"/>
<path fill="#5A8FB0" opacity="1.000000" stroke="none" 
	d="
M915.203735,776.450317 
	C909.188721,776.823914 907.109802,775.069519 907.024109,769.618103 
	C906.917297,762.823608 909.709778,757.246338 915.167908,753.331909 
	C920.494995,749.511414 925.820312,752.152466 925.761719,758.745056 
	C925.694458,766.312988 922.751465,772.664001 915.203735,776.450317 
z"/>
<path fill="#5A8FB0" opacity="1.000000" stroke="none" 
	d="
M1006.176880,749.821655 
	C1003.537537,756.127747 999.007568,759.806763 992.911438,761.434082 
	C988.034424,762.736023 984.765381,759.790039 985.065918,754.735229 
	C985.468506,747.962708 993.719971,739.738586 1000.589905,739.262634 
	C1005.992493,738.888306 1007.810303,742.123535 1006.176880,749.821655 
z"/>
<path fill="#5A8FB0" opacity="1.000000" stroke="none" 
	d="
M763.256348,903.589905 
	C762.247681,898.784973 760.448486,894.230103 760.825928,889.863525 
	C761.338196,883.937195 766.766541,882.413513 771.521851,886.165771 
	C776.493896,890.088806 779.368652,899.098267 777.581116,905.155029 
	C776.313171,909.451294 772.547729,911.312988 768.647766,909.064880 
	C766.602234,907.885803 765.153748,905.670959 763.256348,903.589905 
z"/>
<path fill="#266588" opacity="1.000000" stroke="none" 
	d="
M932.898926,899.055664 
	C932.824646,899.245422 932.603027,899.499878 932.199463,899.931763 
	C932.262207,899.779541 932.506836,899.449890 932.898926,899.055664 
z"/>
<path fill="#266588" opacity="1.000000" stroke="none" 
	d="
M886.830811,953.162964 
	C886.817627,953.261475 886.604248,953.503967 886.176392,953.875244 
	C886.196228,953.780823 886.419128,953.548462 886.830811,953.162964 
z"/>
<path fill="#295774" opacity="1.000000" stroke="none" 
	d="
M931.301453,1124.264160 
	C959.595825,1127.197021 987.166626,1123.634888 1013.664795,1112.388306 
	C1015.800110,1111.482056 1018.058777,1110.866211 1020.632202,1110.048828 
	C1026.345215,1116.747192 1024.921021,1126.406738 1016.414551,1130.637085 
	C1009.157104,1134.246094 1000.857544,1136.655151 992.790161,1137.564087 
	C972.351013,1139.867065 952.752563,1136.042603 934.433472,1126.408569 
	C933.414185,1125.872437 932.496521,1125.143066 931.301453,1124.264160 
z"/>
<path fill="#295774" opacity="1.000000" stroke="none" 
	d="
M1090.360962,1052.153320 
	C1105.504395,1029.047852 1115.537964,1004.138428 1117.125732,976.185547 
	C1117.215210,974.609680 1118.043823,973.075745 1118.770264,971.223999 
	C1127.430786,995.898560 1126.743042,1020.100342 1112.006104,1042.686157 
	C1107.216064,1050.027344 1100.260986,1054.505859 1090.360962,1052.153320 
z"/>
<path fill="#5A8FB0" opacity="1.000000" stroke="none" 
	d="
M1159.818848,1184.567261 
	C1161.909546,1184.672363 1164.053711,1184.356812 1165.317871,1185.265259 
	C1169.405640,1188.202881 1169.898804,1192.850586 1169.493286,1197.362183 
	C1169.046021,1202.337891 1168.063354,1207.506592 1163.114746,1210.137573 
	C1159.487915,1212.065796 1156.776978,1210.020752 1154.964722,1206.744019 
	C1151.190918,1199.920166 1153.282349,1189.751709 1159.818848,1184.567261 
z"/>
<path fill="#5A8FB0" opacity="1.000000" stroke="none" 
	d="
M1229.504028,1079.647949 
	C1232.138306,1079.536987 1234.852661,1078.935547 1236.754883,1079.913696 
	C1242.950806,1083.099365 1246.691162,1093.199463 1244.661133,1099.865601 
	C1243.532227,1103.572388 1240.227905,1104.923340 1236.275024,1103.293945 
	C1228.412720,1100.053101 1224.550049,1087.248291 1229.504028,1079.647949 
z"/>
<path fill="#5A8FB0" opacity="1.000000" stroke="none" 
	d="
M1239.167969,895.805542 
	C1240.208130,898.750305 1242.396118,902.261780 1241.423584,903.922729 
	C1240.172974,906.058411 1236.477539,907.518372 1233.673462,907.834412 
	C1227.475952,908.532898 1222.381104,905.591736 1218.435059,900.921448 
	C1214.481323,896.241821 1216.248413,891.403259 1222.327148,890.346497 
	C1228.667358,889.244263 1234.019775,891.780090 1239.167969,895.805542 
z"/>
<path fill="#5A8FB0" opacity="1.000000" stroke="none" 
	d="
M961.173706,1255.122192 
	C956.914246,1259.771362 952.097717,1262.407715 945.984985,1262.016235 
	C941.216370,1261.710938 939.159973,1258.766602 940.415771,1254.200684 
	C942.189819,1247.749878 952.140930,1241.268311 958.858032,1242.188599 
	C963.159851,1242.777954 965.310852,1245.913696 963.979492,1250.041626 
	C963.431030,1251.741943 962.280579,1253.248169 961.173706,1255.122192 
z"/>
<path fill="#5A8FB0" opacity="1.000000" stroke="none" 
	d="
M1132.436646,799.665894 
	C1133.812256,792.460449 1141.278564,788.117432 1149.939087,789.399292 
	C1152.326904,789.752686 1154.898926,790.554565 1156.824829,791.934570 
	C1159.655884,793.963257 1159.702393,797.110229 1157.927002,799.962280 
	C1153.103271,807.711243 1137.340942,807.701843 1132.436646,799.665894 
z"/>
<path fill="#3A7499" opacity="1.000000" stroke="none" 
	d="
M1176.758911,1146.051514 
	C1176.596069,1145.517090 1176.541016,1145.358154 1176.518311,1145.194702 
	C1175.992188,1141.426270 1175.936523,1137.611694 1179.939209,1135.772461 
	C1180.966919,1135.300171 1184.177856,1136.758057 1184.300171,1137.623901 
	C1184.829224,1141.367676 1185.495605,1145.521851 1184.363770,1148.949463 
	C1183.245117,1152.337036 1179.433594,1151.058350 1176.758911,1146.051514 
z"/>
<path fill="#3A7499" opacity="1.000000" stroke="none" 
	d="
M1025.608398,1237.635498 
	C1023.472656,1237.530151 1020.806396,1237.878418 1020.084473,1236.854980 
	C1019.203369,1235.606079 1019.183594,1232.480713 1020.154419,1231.446655 
	C1022.481995,1228.967896 1025.526611,1227.100708 1028.500854,1225.360962 
	C1028.922607,1225.114380 1031.343384,1226.831421 1031.512939,1227.858521 
	C1032.263794,1232.409668 1029.544556,1235.273438 1025.608398,1237.635498 
z"/>
<path fill="#3A7499" opacity="1.000000" stroke="none" 
	d="
M850.923462,1171.666260 
	C852.358887,1173.327148 854.622314,1175.368896 854.237183,1176.240723 
	C853.514771,1177.876099 851.234497,1179.893799 849.647644,1179.855591 
	C846.242798,1179.773804 842.823059,1178.620117 839.527832,1177.543091 
	C839.048279,1177.386353 838.843994,1174.275391 839.149658,1174.155518 
	C842.225403,1172.948730 845.421936,1172.036621 848.616882,1171.159302 
	C849.187317,1171.002808 849.905884,1171.385498 850.923462,1171.666260 
z"/>
<path fill="#3A7499" opacity="1.000000" stroke="none" 
	d="
M1222.826660,990.062073 
	C1222.611206,987.629883 1222.604980,985.496033 1222.598633,983.362244 
	C1224.912109,983.520264 1227.229370,983.639648 1229.535522,983.870605 
	C1229.970459,983.914185 1230.382080,984.376038 1230.768799,984.688904 
	C1234.138184,987.415405 1235.807251,992.339294 1233.693604,994.214661 
	C1230.010864,997.482056 1227.334473,994.492126 1224.689087,992.224670 
	C1224.064331,991.689209 1223.583130,990.986328 1222.826660,990.062073 
z"/>
<path fill="#3A7499" opacity="1.000000" stroke="none" 
	d="
M846.281250,825.673584 
	C847.292969,822.416199 848.978394,819.213684 852.079468,820.679810 
	C853.963257,821.570435 854.593323,825.345520 855.502380,827.924988 
	C855.778503,828.708374 855.407654,830.116760 854.810913,830.734924 
	C853.136108,832.470093 851.188965,833.942444 849.349121,835.518433 
	C848.228394,833.528137 846.929138,831.611328 846.066772,829.514893 
	C845.670044,828.550415 846.129211,827.233765 846.281250,825.673584 
z"/>
</svg>