<svg version="1.1" id="Layer_1" xmlns="http://www.w3.org/2000/svg" xmlns:xlink="http://www.w3.org/1999/xlink" x="0px" y="0px"
	 width="100%" viewBox="0 0 650 650" enable-background="new 0 0 650 650" xml:space="preserve">
<path fill="#000000" opacity="1.000000" stroke="none" 
	d="
M368.000000,651.000000 
	C245.333359,651.000000 123.166710,651.000000 1.000049,651.000000 
	C1.000033,434.333405 1.000033,217.666794 1.000016,1.000136 
	C217.666565,1.000091 434.333130,1.000091 650.999756,1.000046 
	C650.999878,217.666519 650.999878,434.333038 650.999939,650.999756 
	C556.833313,651.000000 462.666656,651.000000 368.000000,651.000000 
M169.960159,366.648834 
	C170.112930,366.948517 170.356888,367.112000 170.969086,367.849396 
	C172.001999,370.898132 173.034927,373.946869 174.533203,378.369141 
	C169.701233,378.927094 165.359467,380.213806 161.219803,379.738892 
	C153.220398,378.821106 149.045578,379.834045 145.811127,386.693207 
	C142.846405,392.980469 138.406204,396.231873 131.696976,397.005615 
	C123.638039,397.934967 116.948540,401.033722 113.351646,408.953339 
	C112.943947,409.851044 111.660164,410.350830 110.584511,411.189606 
	C105.055832,404.320770 97.630585,401.404083 89.569489,402.433167 
	C78.633698,403.829163 71.142365,416.042450 73.051567,427.035614 
	C74.853310,437.410034 79.282921,446.109650 87.403244,453.009491 
	C100.150780,463.841064 116.533432,458.776581 120.029327,444.880310 
	C121.132401,440.495544 121.209839,435.852783 121.820366,430.801086 
	C130.981491,432.459534 139.025894,430.015259 145.443405,423.137390 
	C149.960510,418.296265 155.166412,416.997589 161.562683,418.670502 
	C165.867569,419.796448 170.084885,419.289398 173.214890,415.326630 
	C176.750900,410.849884 180.450195,406.502106 184.143112,402.019775 
	C186.254044,405.624664 187.891052,408.832031 189.908142,411.779297 
	C194.129532,417.947296 198.551254,423.978180 202.946945,430.775909 
	C204.928482,433.811707 206.910019,436.847504 208.266403,440.226746 
	C206.130112,445.959381 202.694901,450.848785 196.350815,451.600830 
	C190.841812,452.253937 188.927994,455.553894 188.248001,459.949371 
	C187.664383,463.721832 185.520340,465.417633 182.582855,467.366180 
	C179.579895,469.358154 176.952209,472.289368 174.977020,475.338501 
	C173.409302,477.758606 172.823303,478.990204 169.203461,478.363281 
	C156.014481,476.079010 151.536484,481.450684 153.346603,493.114777 
	C154.639557,501.446381 160.687180,506.971985 169.177643,509.019501 
	C179.881195,511.600708 187.224243,503.975250 183.914444,493.564880 
	C182.848068,490.210815 183.751190,489.156830 186.826462,487.814056 
	C189.608475,486.599365 192.166962,484.216003 194.049118,481.755280 
	C196.695068,478.295959 198.846283,475.022980 203.851517,474.328033 
	C206.302521,473.987701 210.044464,471.507874 210.398422,469.501740 
	C211.849487,461.277374 217.027679,457.028381 224.715134,454.295135 
	C231.754471,459.308105 238.455734,464.914948 245.927567,469.168121 
	C253.507751,473.483002 261.848816,476.461243 269.924530,480.765106 
	C268.056732,483.557373 266.480530,486.612000 264.256470,489.083710 
	C260.408386,493.360291 258.229828,498.144440 261.082123,503.366913 
	C265.630859,511.695648 263.713867,518.954102 259.244232,526.459778 
	C256.965210,530.286865 256.044891,534.614929 257.867188,539.185242 
	C258.906952,541.793030 259.362030,544.633911 260.107452,547.472900 
	C257.102081,548.071045 254.656662,548.343506 252.345825,549.053772 
	C241.018509,552.535522 233.274460,564.622742 239.789871,576.813110 
	C247.807083,591.813416 271.969757,598.312012 286.706604,588.477173 
	C299.044159,580.243530 299.095825,567.871704 289.445190,557.984253 
	C287.080475,555.561523 284.438751,553.409180 281.386322,550.645325 
	C289.876526,545.239868 290.830078,537.184509 289.953796,528.638977 
	C289.241241,521.690430 290.958710,516.028809 296.799561,511.720337 
	C301.768402,508.055084 301.808960,502.980194 300.265015,497.504089 
	C299.300568,494.083374 298.799744,490.531982 298.923706,487.089478 
	C300.842590,487.392853 302.757721,487.928253 304.681030,487.959534 
	C313.098633,488.096527 321.518555,488.087402 329.989136,488.883179 
	C331.941528,493.940338 334.290588,498.948029 330.894714,504.348846 
	C327.777466,509.306488 328.466003,513.993103 331.852692,518.620239 
	C332.852875,519.986816 334.062286,522.195374 333.611450,523.460815 
	C331.367798,529.758118 331.753357,535.656372 335.406982,541.155640 
	C333.441833,542.389771 331.884277,543.307922 330.388855,544.317993 
	C325.138641,547.864319 322.655182,557.300232 329.041840,562.733276 
	C334.952698,567.761536 344.245209,569.697937 351.617096,566.121155 
	C356.494781,563.754517 360.852020,560.844971 361.011017,554.505371 
	C361.168457,548.227051 358.210663,544.261536 352.446686,542.099670 
	C351.453705,541.727234 350.631287,540.899963 349.730072,540.282715 
	C350.229340,540.186584 350.728577,540.090515 351.227814,539.994385 
	C351.227814,535.773193 351.931793,531.395325 351.036224,527.373535 
	C350.078400,523.072205 349.656647,519.255310 352.227478,515.539551 
	C354.450134,512.326965 354.801788,508.951843 352.437286,505.861359 
	C347.150269,498.951263 348.500977,492.010437 352.330780,484.352722 
	C354.063080,483.918182 355.804230,483.515839 357.526367,483.044098 
	C373.944519,478.546570 389.679047,472.450531 404.748901,463.085938 
	C409.112274,466.206482 409.315125,471.151489 409.924927,475.718048 
	C411.027863,483.977325 413.660217,487.425903 421.798950,488.949341 
	C426.888824,489.902069 430.779816,492.100525 432.410950,497.097900 
	C435.549316,506.713226 441.411041,513.482544 451.359802,516.319275 
	C451.560577,516.376526 451.644806,516.842407 451.731079,517.013733 
	C450.659424,519.641235 449.462311,522.144775 448.600739,524.758972 
	C443.193115,541.166870 453.813934,552.770691 468.233704,551.660950 
	C484.034088,550.445007 496.297760,540.968506 500.622375,524.764404 
	C502.817902,516.537903 500.395294,503.381836 487.599182,501.966736 
	C481.674652,501.311554 475.617615,501.854950 469.330078,501.854950 
	C469.044128,501.079712 468.072876,499.700317 468.113403,498.351288 
	C468.360809,490.116913 463.133972,485.398499 457.049255,481.649048 
	C450.641174,477.700348 447.731293,472.369690 447.973816,464.976532 
	C448.144653,459.768433 445.115845,456.465027 440.752563,454.291473 
	C436.261261,452.054108 431.666840,450.023834 427.102325,447.209625 
	C431.387390,443.119659 435.672485,439.029663 440.710022,435.066437 
	C448.628265,436.956909 454.351440,440.981110 456.514435,449.480988 
	C456.990906,451.353455 460.051666,453.376434 462.236572,453.835815 
	C466.625946,454.758698 470.365356,455.855530 472.587128,460.250031 
	C474.529968,464.092743 477.508942,466.806152 482.219971,467.174011 
	C482.991516,467.234253 484.123047,468.973541 484.225525,470.021210 
	C484.448181,472.297699 484.019318,474.628937 484.025146,476.937347 
	C484.040833,483.126160 488.245667,487.573364 494.348511,487.967651 
	C504.105011,488.598022 514.996460,478.315155 515.012451,468.458282 
	C515.026062,460.067993 512.846252,457.071381 504.545258,455.891235 
	C501.061279,455.395905 497.357910,456.443726 493.436554,456.820526 
	C492.585663,451.224670 488.630676,448.292847 483.802612,445.602692 
	C481.309265,444.213409 479.509033,441.057739 478.129364,438.329163 
	C476.536407,435.178741 475.468018,432.423737 471.180389,431.753021 
	C465.713074,430.897797 461.037537,428.145996 458.370819,422.790894 
	C457.510315,421.062866 456.148834,419.584290 454.973541,417.249969 
	C457.602600,413.197815 460.231659,409.145660 463.181061,405.707153 
	C466.080444,408.382751 469.426483,410.717529 471.783783,413.806763 
	C476.313538,419.743011 480.647461,422.302643 487.501038,419.637787 
	C494.217438,417.026276 499.335175,418.813965 504.172455,422.860168 
	C510.495667,428.149231 517.244690,430.777527 525.471191,428.109039 
	C526.421570,427.800812 527.631470,428.292908 529.000305,428.444946 
	C529.000305,430.074554 528.936401,431.390625 529.010681,432.698853 
	C529.494080,441.214325 532.435852,448.637970 540.294128,452.696808 
	C547.396729,456.365356 558.283997,453.498505 564.654419,446.898621 
	C574.037109,437.177917 578.084839,425.567902 574.876282,412.299866 
	C573.182678,405.296631 568.877136,399.020996 561.507629,397.337158 
	C554.555298,395.748627 547.347534,396.745117 541.931274,402.557953 
	C540.230652,404.383118 538.664124,406.333282 536.907410,408.376007 
	C535.329163,406.725189 534.019531,405.809906 533.326904,404.554321 
	C529.825256,398.206116 523.984741,396.116272 517.354919,396.080078 
	C509.680573,396.038239 503.958649,393.316376 499.948822,386.536987 
	C496.408234,380.550995 491.619232,379.149994 484.904907,380.428101 
	C481.383362,381.098450 477.668640,380.753754 474.090912,380.116882 
	C479.510956,365.598969 483.054993,350.722168 483.092957,335.108276 
	C483.097107,333.409058 484.369507,331.712921 485.889038,330.015656 
	C491.354889,328.399597 496.581390,328.331543 501.457886,331.931000 
	C505.167725,334.669342 508.686737,333.648468 512.390808,331.398499 
	C514.506409,330.113464 517.682800,328.621307 519.602783,329.330597 
	C525.583252,331.539795 531.080872,331.496613 536.530884,327.775482 
	C537.556824,329.679901 538.168274,331.011780 538.950134,332.234650 
	C544.353699,340.685638 553.138672,341.441559 559.569031,334.037537 
	C564.770386,328.048615 565.296448,315.249878 560.487061,308.951630 
	C554.873108,301.599823 545.950439,300.552185 540.861389,307.618927 
	C539.359497,309.704437 537.842285,311.778992 536.174316,314.075867 
	C531.824219,310.293640 527.130554,310.490204 522.081543,311.753265 
	C518.741089,312.588928 515.429016,313.497742 512.149048,310.171021 
	C509.842926,307.832001 506.034607,306.840118 502.533051,309.127625 
	C496.197174,313.266815 489.717377,313.578308 482.727325,309.118744 
	C481.164581,301.109406 479.601868,293.100037 478.961823,285.051331 
	C482.789398,285.048401 486.675781,284.620758 490.430878,285.140991 
	C496.226715,285.943970 500.408295,284.447632 503.533630,279.236267 
	C506.084595,274.982697 508.512421,270.148285 514.328918,269.382324 
	C524.588867,268.031250 534.776733,266.631226 538.622314,255.478439 
	C543.124878,258.427063 546.807251,261.649811 551.085022,263.483398 
	C562.542297,268.394348 573.698425,263.114716 576.829102,251.446976 
	C581.024475,235.811661 575.431824,222.703720 563.160828,212.785233 
	C555.246277,206.388016 538.803589,206.290634 533.791626,217.949844 
	C531.978821,222.166977 531.559753,227.089600 531.108643,231.748749 
	C530.801331,234.923569 529.836792,236.762573 526.617310,235.784042 
	C518.938782,233.450180 512.907532,236.273163 507.230316,241.119003 
	C502.539215,245.123093 497.849213,248.277512 490.758850,246.269760 
	C484.036713,244.366287 477.767242,246.095291 473.893219,253.011536 
	C472.772278,255.012711 470.660370,256.458771 468.407684,257.715851 
	C467.759521,256.056335 467.250061,254.325775 466.441681,252.748383 
	C458.815125,237.866806 449.548828,224.127563 438.242096,211.433136 
	C439.281616,210.936127 440.280243,210.312180 441.367096,209.961868 
	C451.574554,206.671829 455.781311,199.811264 455.300323,189.045258 
	C455.172485,186.184326 458.389526,182.881622 460.648804,180.284531 
	C463.156281,177.402054 467.200775,175.590683 468.996643,172.418747 
	C471.555084,167.899887 472.674896,162.566528 474.520569,157.261124 
	C474.440948,157.246887 475.241852,157.322571 476.004059,157.536194 
	C490.546234,161.611801 503.749756,154.693329 504.371124,142.685028 
	C504.656158,137.175827 503.137573,130.704468 500.217102,126.067574 
	C492.652679,114.057358 481.726807,107.492500 466.668243,108.863968 
	C458.138489,109.640816 450.351532,116.589005 449.952271,125.153145 
	C449.629547,132.076172 452.152802,138.104599 455.880737,144.297928 
	C446.010803,147.361008 440.418854,153.940125 437.589050,163.454636 
	C436.129608,168.361816 432.865662,171.670197 427.151703,173.179245 
	C418.202606,175.542709 416.542816,178.647247 415.961273,188.102905 
	C415.862518,189.708572 415.283630,191.284729 414.269226,192.660599 
	C407.791687,188.792786 401.314148,184.924957 394.988251,180.280396 
	C397.000793,176.848099 398.491882,172.921524 401.158051,170.108841 
	C404.478271,166.606186 408.876434,164.251999 406.199738,158.158890 
	C405.565399,156.714859 406.308472,153.986465 407.382874,152.592636 
	C411.328522,147.473984 415.523621,142.599487 414.016724,135.026917 
	C416.723419,135.026917 418.697601,135.117706 420.660797,135.009277 
	C425.800507,134.725357 431.659119,127.659912 430.825165,122.834084 
	C429.103424,112.870789 416.000763,103.693520 406.081879,106.173248 
	C402.926575,106.962059 399.451385,109.410423 397.658569,112.116859 
	C393.535065,118.341675 396.546173,124.022408 400.322906,128.231628 
	C397.852692,132.429108 394.774445,135.859909 393.767242,139.817780 
	C392.449005,144.997818 390.426086,148.632889 385.571533,151.265503 
	C383.641907,152.311935 381.595673,156.377380 382.185181,158.259491 
	C384.403870,165.343323 380.200195,169.857315 376.151520,174.968536 
	C366.242554,173.029602 356.333588,171.090683 346.321075,169.131485 
	C346.629333,168.019989 346.858582,166.554550 347.446533,165.250839 
	C348.047882,163.917496 349.027313,162.758774 349.795776,161.495926 
	C355.099854,152.779282 354.848572,149.664230 348.782410,141.159775 
	C346.445648,137.883774 345.105011,134.191833 346.469299,130.007126 
	C349.458801,120.837166 350.982758,111.775146 344.251892,103.391487 
	C343.999481,103.077126 344.155975,102.434509 344.103485,101.679863 
	C346.333313,100.499718 348.624268,99.298576 350.904968,98.078323 
	C364.686249,90.704964 365.501373,74.466690 355.158936,65.745270 
	C343.754242,56.128094 325.550690,55.628910 313.340668,63.300961 
	C303.353119,69.576530 299.708099,79.908409 305.978790,89.798264 
	C309.604675,95.516861 314.787231,99.515236 321.535919,101.370529 
	C321.252747,102.155319 321.114838,102.967278 320.705750,103.605453 
	C316.222076,110.600189 314.476410,117.771637 317.879211,125.915512 
	C320.467957,132.111130 319.195129,138.009705 314.892670,143.319016 
	C310.631195,148.577789 310.690857,153.934143 314.679871,159.541183 
	C316.531372,162.143723 317.536957,165.348083 319.207733,168.874084 
	C310.966583,170.015472 303.185944,171.093079 294.515869,172.293869 
	C295.124542,167.173996 295.029388,163.103943 296.173492,159.418610 
	C298.218658,152.830841 295.919708,147.730194 290.783813,144.518997 
	C284.040466,140.302750 281.882660,134.453796 282.015564,127.155243 
	C282.128784,120.935974 280.168884,115.538872 275.755371,111.156143 
	C274.314758,109.725555 272.511841,108.659798 270.456635,107.112473 
	C271.570404,106.417236 272.139526,106.162033 272.586273,105.768074 
	C279.127136,100.000320 284.352936,93.319069 282.417572,84.048843 
	C280.030731,72.615883 270.029449,66.004868 257.333313,67.073570 
	C246.698273,67.968773 237.201309,71.493469 230.185760,80.224716 
	C221.921005,90.510696 223.147415,103.970024 235.124573,110.348518 
	C239.569260,112.715561 244.942474,113.339073 249.954712,114.775612 
	C249.954712,115.800278 250.142761,116.682854 249.925201,117.450478 
	C248.032913,124.127312 248.615356,130.219025 252.853882,136.090683 
	C256.948883,141.763550 260.722687,147.648972 257.048523,155.381439 
	C254.099579,161.587631 256.298157,166.846176 261.467712,171.137558 
	C264.119171,173.338608 266.473633,175.897461 269.326294,178.645203 
	C260.809265,182.367722 252.987549,185.588623 245.346222,189.192062 
	C239.776291,191.818695 234.444275,194.949814 228.685089,197.269394 
	C224.207672,194.394775 221.155029,190.868607 220.815109,185.048859 
	C220.565460,180.774765 219.121307,176.766830 213.691772,175.603439 
	C211.627014,175.161026 209.255371,173.051010 208.307938,171.082794 
	C205.605270,165.468246 204.082138,159.091507 196.461105,158.365982 
	C197.534393,155.762695 198.475723,153.855713 199.118851,151.852982 
	C201.619049,144.067276 198.192001,137.491913 190.285553,136.283569 
	C179.750565,134.673523 170.132843,140.170898 167.161789,151.228653 
	C164.774643,160.113251 169.836807,166.650253 178.535126,166.917923 
	C180.759552,166.986374 183.004196,166.397369 185.865936,166.030029 
	C185.265991,172.953659 188.839157,176.999542 193.786392,180.679642 
	C195.648804,182.065063 196.669434,185.464615 196.850967,188.032410 
	C197.169861,192.543503 198.803223,195.642303 203.104263,197.122025 
	C209.282959,199.247726 212.219986,203.845108 212.999222,210.738327 
	C204.502411,219.684387 196.005600,228.630463 187.380234,237.711868 
	C187.075867,237.322128 186.544998,236.730316 186.111526,236.074173 
	C178.930511,225.204330 174.502548,222.627243 164.733978,225.358826 
	C160.715546,226.482498 157.377701,225.547913 155.156754,223.331879 
	C147.383377,215.575607 138.791321,210.722076 128.086060,213.129013 
	C127.680183,209.122665 127.491623,205.760727 126.978455,202.449066 
	C124.387115,185.726013 108.755104,181.669144 96.843918,188.930817 
	C84.908577,196.207199 79.585701,207.557556 79.906044,221.788712 
	C80.266129,237.785873 95.020164,246.981735 109.130661,239.428558 
	C112.378036,237.690262 115.254814,235.259598 118.711250,232.864014 
	C122.539581,241.145691 128.824585,245.863373 137.998703,246.532593 
	C144.822845,247.030365 149.865158,249.857315 152.553802,256.835785 
	C154.718719,262.454865 159.477753,264.899323 165.750671,264.058807 
	C168.318039,263.714813 170.969986,264.001892 173.820221,264.001892 
	C173.590942,264.992096 173.529099,265.460144 173.375061,265.895569 
	C167.378189,282.846558 163.392700,300.183960 164.057877,318.286469 
	C164.372025,326.836090 165.287460,335.363586 165.210190,344.038605 
	C158.904480,347.471100 152.770966,349.406708 145.557327,345.590546 
	C143.358261,344.427216 139.391846,346.351868 136.317474,347.171997 
	C133.603302,347.896027 131.022400,349.797333 128.350540,349.862579 
	C122.632751,350.002167 116.729462,348.439911 112.423462,353.820465 
	C110.195442,351.257782 108.663422,349.051239 106.706787,347.326385 
	C100.197929,341.588470 91.954025,343.333557 88.275848,351.171600 
	C84.962814,358.231537 85.391884,365.345245 89.003227,372.084595 
	C93.377724,380.248169 101.244980,382.442505 107.939095,377.318848 
	C110.037102,375.712982 110.993027,372.689087 112.802162,370.600494 
	C113.706589,369.556335 115.890984,368.224030 116.578583,368.619202 
	C120.562317,370.908661 124.029045,369.480072 127.928101,368.364563 
	C131.030502,367.476990 135.145081,366.986511 137.795517,368.326660 
	C143.002914,370.959717 146.777390,369.565033 151.066666,366.746582 
	C153.273575,365.296448 156.157562,364.153931 158.732758,364.159607 
	C162.429932,364.167755 166.124542,365.351410 169.813202,366.137512 
	C169.813202,366.137512 169.903702,366.189789 169.960159,366.648834 
z"/>
<path fill="#3A7399" opacity="1.000000" stroke="none" 
	d="
M165.930450,343.901123 
	C165.287460,335.363586 164.372025,326.836090 164.057877,318.286469 
	C163.392700,300.183960 167.378189,282.846558 173.375061,265.895569 
	C173.529099,265.460144 173.590942,264.992096 173.820221,264.001892 
	C170.969986,264.001892 168.318039,263.714813 165.750671,264.058807 
	C159.477753,264.899323 154.718719,262.454865 152.553802,256.835785 
	C149.865158,249.857315 144.822845,247.030365 137.998703,246.532593 
	C128.824585,245.863373 122.539581,241.145691 118.711250,232.864014 
	C115.254814,235.259598 112.378036,237.690262 109.130661,239.428558 
	C95.020164,246.981735 80.266129,237.785873 79.906044,221.788712 
	C79.585701,207.557556 84.908577,196.207199 96.843918,188.930817 
	C108.755104,181.669144 124.387115,185.726013 126.978455,202.449066 
	C127.491623,205.760727 127.680183,209.122665 128.086060,213.129013 
	C138.791321,210.722076 147.383377,215.575607 155.156754,223.331879 
	C157.377701,225.547913 160.715546,226.482498 164.733978,225.358826 
	C174.502548,222.627243 178.930511,225.204330 186.111526,236.074173 
	C186.544998,236.730316 187.075867,237.322128 187.380234,237.711868 
	C196.005600,228.630463 204.502411,219.684387 213.383026,210.270233 
	C218.846603,205.820099 223.926407,201.838074 229.006195,197.856049 
	C234.444275,194.949814 239.776291,191.818695 245.346222,189.192062 
	C252.987549,185.588623 260.809265,182.367722 269.326294,178.645203 
	C266.473633,175.897461 264.119171,173.338608 261.467712,171.137558 
	C256.298157,166.846176 254.099579,161.587631 257.048523,155.381439 
	C260.722687,147.648972 256.948883,141.763550 252.853882,136.090683 
	C248.615356,130.219025 248.032913,124.127312 249.925201,117.450478 
	C250.142761,116.682854 249.954712,115.800278 249.954712,114.775612 
	C244.942474,113.339073 239.569260,112.715561 235.124573,110.348518 
	C223.147415,103.970024 221.921005,90.510696 230.185760,80.224716 
	C237.201309,71.493469 246.698273,67.968773 257.333313,67.073570 
	C270.029449,66.004868 280.030731,72.615883 282.417572,84.048843 
	C284.352936,93.319069 279.127136,100.000320 272.586273,105.768074 
	C272.139526,106.162033 271.570404,106.417236 270.456635,107.112473 
	C272.511841,108.659798 274.314758,109.725555 275.755371,111.156143 
	C280.168884,115.538872 282.128784,120.935974 282.015564,127.155243 
	C281.882660,134.453796 284.040466,140.302750 290.783813,144.518997 
	C295.919708,147.730194 298.218658,152.830841 296.173492,159.418610 
	C295.029388,163.103943 295.124542,167.173996 294.515869,172.293869 
	C303.185944,171.093079 310.966583,170.015472 319.207733,168.874084 
	C317.536957,165.348083 316.531372,162.143723 314.679871,159.541183 
	C310.690857,153.934143 310.631195,148.577789 314.892670,143.319016 
	C319.195129,138.009705 320.467957,132.111130 317.879211,125.915512 
	C314.476410,117.771637 316.222076,110.600189 320.705750,103.605453 
	C321.114838,102.967278 321.252747,102.155319 321.535919,101.370529 
	C314.787231,99.515236 309.604675,95.516861 305.978790,89.798264 
	C299.708099,79.908409 303.353119,69.576530 313.340668,63.300961 
	C325.550690,55.628910 343.754242,56.128094 355.158936,65.745270 
	C365.501373,74.466690 364.686249,90.704964 350.904968,98.078323 
	C348.624268,99.298576 346.333313,100.499718 344.103485,101.679863 
	C344.155975,102.434509 343.999481,103.077126 344.251892,103.391487 
	C350.982758,111.775146 349.458801,120.837166 346.469299,130.007126 
	C345.105011,134.191833 346.445648,137.883774 348.782410,141.159775 
	C354.848572,149.664230 355.099854,152.779282 349.795776,161.495926 
	C349.027313,162.758774 348.047882,163.917496 347.446533,165.250839 
	C346.858582,166.554550 346.629333,168.019989 346.321075,169.131485 
	C356.333588,171.090683 366.242554,173.029602 376.862976,175.132965 
	C383.328491,177.217316 389.082550,179.137222 394.836609,181.057129 
	C401.314148,184.924957 407.791687,188.792786 414.616486,193.046097 
	C414.975464,193.617462 414.987183,193.803345 414.922150,194.273270 
	C415.378967,196.083405 415.630646,197.793152 416.487640,199.108536 
	C434.479675,226.724411 441.807190,257.431946 442.731628,289.723755 
	C441.390900,287.847717 440.267059,286.210327 439.211517,284.530029 
	C434.072052,276.348419 428.953094,268.143188 420.571564,262.749756 
	C415.245850,259.322723 409.257355,259.267365 405.167389,262.505981 
	C401.179108,265.664062 399.924652,270.202301 402.973511,276.547333 
	C410.495392,292.201172 409.288300,308.043335 405.807281,324.331604 
	C403.595642,334.680206 401.927856,345.236481 401.190613,355.781738 
	C400.525208,365.299805 404.933960,372.809296 413.853210,377.350464 
	C409.819336,383.091888 405.893951,388.506927 401.728760,393.950653 
	C401.488983,393.979340 401.009369,394.040649 400.701416,393.879028 
	C393.213257,388.944977 386.189148,383.912842 378.807800,379.474854 
	C371.760590,375.237732 364.638062,370.824066 356.994843,367.972290 
	C350.491547,365.545837 343.639191,367.262909 339.047546,373.177521 
	C334.364258,379.210205 335.757324,385.680542 338.821808,391.982666 
	C339.327698,393.023102 340.007141,393.980469 340.622375,394.966278 
	C347.884216,406.601776 358.881439,413.517151 370.814392,419.278717 
	C362.410461,424.383392 354.199951,429.213989 345.672760,433.879974 
	C341.265137,432.417755 337.251160,430.398712 333.069397,429.952606 
	C318.317841,428.378937 305.416473,422.813782 294.275879,413.164459 
	C286.104004,406.086456 278.126251,398.784088 270.072510,391.569977 
	C263.074860,385.301910 255.687775,379.548004 246.445374,377.089417 
	C238.036148,374.852478 229.836716,375.343292 222.986618,381.556793 
	C215.546082,388.305817 214.081741,397.470123 218.493607,408.674805 
	C223.047272,420.239624 230.583862,429.669342 239.807175,437.814972 
	C243.786865,441.329651 247.966965,444.617493 251.643982,447.976318 
	C247.819702,447.243896 244.218552,447.021149 241.028442,445.759247 
	C228.246582,440.703125 215.592209,435.324677 202.890701,430.065399 
	C198.551254,423.978180 194.129532,417.947296 189.908142,411.779297 
	C187.891052,408.832031 186.254044,405.624664 184.143112,402.019775 
	C180.450195,406.502106 176.750900,410.849884 173.214890,415.326630 
	C170.084885,419.289398 165.867569,419.796448 161.562683,418.670502 
	C155.166412,416.997589 149.960510,418.296265 145.443405,423.137390 
	C139.025894,430.015259 130.981491,432.459534 121.820366,430.801086 
	C121.209839,435.852783 121.132401,440.495544 120.029327,444.880310 
	C116.533432,458.776581 100.150780,463.841064 87.403244,453.009491 
	C79.282921,446.109650 74.853310,437.410034 73.051567,427.035614 
	C71.142365,416.042450 78.633698,403.829163 89.569489,402.433167 
	C97.630585,401.404083 105.055832,404.320770 110.584511,411.189606 
	C111.660164,410.350830 112.943947,409.851044 113.351646,408.953339 
	C116.948540,401.033722 123.638039,397.934967 131.696976,397.005615 
	C138.406204,396.231873 142.846405,392.980469 145.811127,386.693207 
	C149.045578,379.834045 153.220398,378.821106 161.219803,379.738892 
	C165.359467,380.213806 169.701233,378.927094 174.533203,378.369141 
	C173.034927,373.946869 172.001999,370.898132 170.703857,367.336548 
	C170.253906,366.617798 170.075592,366.406494 169.903702,366.189789 
	C169.903702,366.189789 169.813202,366.137512 169.869003,365.663269 
	C168.593353,358.093048 167.261902,350.997101 165.930450,343.901123 
M257.750488,224.123474 
	C257.507233,224.453659 257.263977,224.783844 256.570312,225.593399 
	C251.714844,229.651642 246.859375,233.709885 241.481445,238.226028 
	C229.766922,249.457687 220.272614,262.315735 212.770035,277.277191 
	C212.515930,277.517944 212.261826,277.758667 211.653549,278.326843 
	C211.419418,278.547699 211.197235,278.779999 211.001678,278.984436 
	C211.001678,278.984436 211.039093,279.003418 210.396255,279.240509 
	C207.776215,282.145538 204.420532,284.664490 202.659302,288.020264 
	C193.426163,305.612640 193.808670,323.619385 202.635498,341.097351 
	C205.843307,347.449127 210.866821,353.059906 215.818954,358.292267 
	C219.068832,361.726044 224.077942,362.368988 228.205902,359.394073 
	C232.423477,356.354614 230.591736,352.094543 229.481140,348.008240 
	C228.059601,342.777802 227.091003,337.424316 226.648178,331.895813 
	C228.688934,331.173340 230.943085,330.791046 232.732727,329.668304 
	C239.699722,325.297363 246.519409,320.691620 253.987701,316.163757 
	C254.387756,316.159637 254.787796,316.155518 255.501678,316.725037 
	C258.332977,317.810089 261.308716,320.090973 263.970093,319.769440 
	C274.492706,318.498230 285.012268,316.831604 295.344910,314.483948 
	C302.606445,312.834076 306.809845,307.467896 308.336823,299.680542 
	C308.555267,299.475830 308.770447,299.267731 309.866272,299.059418 
	C316.525787,298.324890 323.185333,297.590332 330.078644,297.648407 
	C330.460815,299.603546 330.793365,301.569916 331.233032,303.512024 
	C334.726196,318.941650 341.830505,332.206787 355.156128,341.291656 
	C363.178314,346.760834 371.403290,346.337555 378.023376,339.961365 
	C381.631958,336.485687 385.040924,332.118317 386.759613,327.491760 
	C392.145996,312.991455 387.976807,300.106720 378.204346,288.743317 
	C375.286407,285.350403 372.068268,282.215668 369.356323,278.410828 
	C380.315247,267.403931 384.442688,254.384506 380.712250,238.569931 
	C380.486328,238.027069 380.260406,237.484207 380.545990,236.453583 
	C383.949280,231.592239 383.629089,226.403473 381.568024,221.248398 
	C376.884064,209.533371 366.686768,204.484940 355.645630,201.280167 
	C325.282532,192.467026 296.694458,197.478424 269.995392,213.852081 
	C265.573730,216.563736 261.973389,220.614609 258.004333,224.006165 
	C258.004333,224.006165 258.044403,223.993958 257.750488,224.123474 
M312.392731,370.816925 
	C323.315887,354.649567 315.067139,333.966797 296.428253,330.385620 
	C275.616913,326.386993 261.825195,345.774750 266.021484,359.962219 
	C269.056549,370.223724 275.543610,377.012390 285.961029,379.650818 
	C296.245483,382.255554 305.039642,379.661621 312.392731,370.816925 
M250.804459,86.114075 
	C251.068069,82.350998 251.139725,78.364922 246.890411,76.859985 
	C242.467514,75.293564 238.725082,77.859322 236.823975,81.362442 
	C234.539810,85.571342 232.627777,90.405350 232.228760,95.110672 
	C231.688934,101.476410 236.674606,103.821381 242.249695,100.447174 
	C247.312500,97.383003 249.434479,92.412071 250.804459,86.114075 
M312.764832,72.428589 
	C311.845245,75.225410 310.420532,77.970337 310.126526,80.831444 
	C309.704346,84.939461 312.312866,86.900658 316.311523,86.798843 
	C323.475159,86.616432 331.774078,78.235909 332.016541,71.051643 
	C332.192596,65.836632 329.014832,62.733074 324.199188,64.581322 
	C320.193298,66.118805 316.835266,69.344406 312.764832,72.428589 
M103.847145,436.469666 
	C100.005730,435.699554 96.120155,434.195770 92.338791,434.423370 
	C89.914368,434.569305 86.330864,436.852783 85.671547,438.938263 
	C85.006432,441.042023 86.621986,444.846039 88.482613,446.531586 
	C91.048851,448.856323 94.638321,450.399658 98.047859,451.367676 
	C103.879623,453.023407 109.054886,451.322662 110.507126,448.035309 
	C112.129822,444.362061 110.271797,440.895172 103.847145,436.469666 
M90.652245,209.160080 
	C89.150154,210.295197 87.053123,211.113556 86.250488,212.621094 
	C83.028168,218.673340 87.293732,231.013641 93.361252,234.052277 
	C97.040489,235.894852 100.531868,234.828751 102.153442,231.367569 
	C105.884773,223.403168 99.968376,211.146088 90.652245,209.160080 
z"/>
<path fill="#2A628F" opacity="1.000000" stroke="none" 
	d="
M202.918823,430.420654 
	C215.592209,435.324677 228.246582,440.703125 241.028442,445.759247 
	C244.218552,447.021149 247.819702,447.243896 251.973694,448.056458 
	C253.819748,448.448639 254.924057,448.728638 256.289246,449.221802 
	C257.811859,450.239227 259.026245,451.132172 260.342346,451.834442 
	C279.021301,461.802155 299.047089,465.059052 319.813080,462.302979 
	C327.531921,461.278534 335.419312,458.691223 342.318420,455.076843 
	C350.073242,451.014191 351.144958,441.452362 346.005188,434.723541 
	C346.000305,434.497192 345.989441,434.044525 345.989441,434.044556 
	C354.199951,429.213989 362.410461,424.383392 371.066925,419.400482 
	C372.017670,419.493561 372.522461,419.738983 373.401581,420.074768 
	C376.193298,420.779449 378.605225,421.416443 381.029083,422.004181 
	C393.615875,425.056122 406.137177,424.603302 418.443512,420.745087 
	C422.019775,419.623932 425.497650,417.765991 428.588074,415.622253 
	C432.697357,412.771729 433.944763,408.404663 432.403778,403.667542 
	C430.929382,399.135193 426.839294,398.644135 422.759888,397.977844 
	C415.794434,396.840240 408.895447,395.295654 401.968567,393.921967 
	C405.893951,388.506927 409.819336,383.091888 414.101318,377.347412 
	C414.457947,377.017975 414.953461,377.013641 415.324554,377.162323 
	C424.922607,379.453705 431.921295,375.485260 436.663940,368.226746 
	C451.525482,345.481476 453.442932,321.194611 443.927032,295.504883 
	C443.551849,293.409515 443.265930,291.676086 442.980011,289.942657 
	C441.807190,257.431946 434.479675,226.724411 416.487640,199.108536 
	C415.630646,197.793152 415.378967,196.083405 415.247864,194.392212 
	C423.064423,200.174805 430.478485,206.122467 437.892578,212.070145 
	C449.548828,224.127563 458.815125,237.866806 466.441681,252.748383 
	C467.250061,254.325775 467.759521,256.056335 468.813721,258.277344 
	C472.159546,267.589447 475.099335,276.340057 478.039154,285.090698 
	C479.601868,293.100037 481.164581,301.109406 482.888245,309.946625 
	C483.036407,314.244781 482.756042,317.741180 483.091980,321.177368 
	C483.383423,324.158813 484.372742,327.072021 485.053650,330.015381 
	C484.369507,331.712921 483.097107,333.409058 483.092957,335.108276 
	C483.054993,350.722168 479.510956,365.598969 473.909729,380.820740 
	C470.105927,389.380920 466.483337,397.237244 462.860718,405.093536 
	C460.231659,409.145660 457.602600,413.197815 454.682007,417.743347 
	C449.579468,423.804382 444.768494,429.372040 439.957520,434.939697 
	C435.672485,439.029663 431.387390,443.119659 426.766144,447.661011 
	C418.960968,453.112457 411.491974,458.112518 404.023010,463.112610 
	C389.679047,472.450531 373.944519,478.546570 357.526367,483.044098 
	C355.804230,483.515839 354.063080,483.918182 351.655975,484.655731 
	C343.966675,486.016235 336.952148,487.073730 329.937653,488.131256 
	C321.518555,488.087402 313.098633,488.096527 304.681030,487.959534 
	C302.757721,487.928253 300.842590,487.392853 298.087646,487.028992 
	C288.119934,484.653931 278.988312,482.339386 269.856659,480.024841 
	C261.848816,476.461243 253.507751,473.483002 245.927567,469.168121 
	C238.455734,464.914948 231.754471,459.308105 224.197449,453.924133 
	C218.750366,448.996521 213.820953,444.439911 208.891541,439.883301 
	C206.910019,436.847504 204.928482,433.811707 202.918823,430.420654 
z"/>
<path fill="#3B749A" opacity="1.000000" stroke="none" 
	d="
M404.385956,463.099274 
	C411.491974,458.112518 418.960968,453.112457 426.773743,448.007660 
	C431.666840,450.023834 436.261261,452.054108 440.752563,454.291473 
	C445.115845,456.465027 448.144653,459.768433 447.973816,464.976532 
	C447.731293,472.369690 450.641174,477.700348 457.049255,481.649048 
	C463.133972,485.398499 468.360809,490.116913 468.113403,498.351288 
	C468.072876,499.700317 469.044128,501.079712 469.330078,501.854950 
	C475.617615,501.854950 481.674652,501.311554 487.599182,501.966736 
	C500.395294,503.381836 502.817902,516.537903 500.622375,524.764404 
	C496.297760,540.968506 484.034088,550.445007 468.233704,551.660950 
	C453.813934,552.770691 443.193115,541.166870 448.600739,524.758972 
	C449.462311,522.144775 450.659424,519.641235 451.731079,517.013733 
	C451.644806,516.842407 451.560577,516.376526 451.359802,516.319275 
	C441.411041,513.482544 435.549316,506.713226 432.410950,497.097900 
	C430.779816,492.100525 426.888824,489.902069 421.798950,488.949341 
	C413.660217,487.425903 411.027863,483.977325 409.924927,475.718048 
	C409.315125,471.151489 409.112274,466.206482 404.385956,463.099274 
M490.214142,533.790894 
	C494.939514,527.603516 496.218811,520.816467 493.114807,513.610901 
	C490.664398,507.922607 484.756836,507.427155 481.383698,512.600586 
	C477.719879,518.219849 476.827301,524.382690 479.400177,530.723694 
	C481.491455,535.877686 484.451111,536.814941 490.214142,533.790894 
z"/>
<path fill="#3A749A" opacity="1.000000" stroke="none" 
	d="
M463.020905,405.400330 
	C466.483337,397.237244 470.105927,389.380920 473.884827,381.196014 
	C477.668640,380.753754 481.383362,381.098450 484.904907,380.428101 
	C491.619232,379.149994 496.408234,380.550995 499.948822,386.536987 
	C503.958649,393.316376 509.680573,396.038239 517.354919,396.080078 
	C523.984741,396.116272 529.825256,398.206116 533.326904,404.554321 
	C534.019531,405.809906 535.329163,406.725189 536.907410,408.376007 
	C538.664124,406.333282 540.230652,404.383118 541.931274,402.557953 
	C547.347534,396.745117 554.555298,395.748627 561.507629,397.337158 
	C568.877136,399.020996 573.182678,405.296631 574.876282,412.299866 
	C578.084839,425.567902 574.037109,437.177917 564.654419,446.898621 
	C558.283997,453.498505 547.396729,456.365356 540.294128,452.696808 
	C532.435852,448.637970 529.494080,441.214325 529.010681,432.698853 
	C528.936401,431.390625 529.000305,430.074554 529.000305,428.444946 
	C527.631470,428.292908 526.421570,427.800812 525.471191,428.109039 
	C517.244690,430.777527 510.495667,428.149231 504.172455,422.860168 
	C499.335175,418.813965 494.217438,417.026276 487.501038,419.637787 
	C480.647461,422.302643 476.313538,419.743011 471.783783,413.806763 
	C469.426483,410.717529 466.080444,408.382751 463.020905,405.400330 
M553.868225,420.395355 
	C556.129089,422.971344 558.005493,426.110687 560.747314,427.982025 
	C564.250488,430.373047 568.128601,428.865723 569.482300,425.490448 
	C572.167908,418.794403 567.661560,407.490479 561.052368,404.344330 
	C556.700806,402.272919 552.673401,404.112457 552.320984,408.947662 
	C552.063599,412.478455 553.085571,416.102448 553.868225,420.395355 
z"/>
<path fill="#3A749A" opacity="1.000000" stroke="none" 
	d="
M269.890594,480.394958 
	C278.988312,482.339386 288.119934,484.653931 297.671204,487.003845 
	C298.799744,490.531982 299.300568,494.083374 300.265015,497.504089 
	C301.808960,502.980194 301.768402,508.055084 296.799561,511.720337 
	C290.958710,516.028809 289.241241,521.690430 289.953796,528.638977 
	C290.830078,537.184509 289.876526,545.239868 281.386322,550.645325 
	C284.438751,553.409180 287.080475,555.561523 289.445190,557.984253 
	C299.095825,567.871704 299.044159,580.243530 286.706604,588.477173 
	C271.969757,598.312012 247.807083,591.813416 239.789871,576.813110 
	C233.274460,564.622742 241.018509,552.535522 252.345825,549.053772 
	C254.656662,548.343506 257.102081,548.071045 260.107452,547.472900 
	C259.362030,544.633911 258.906952,541.793030 257.867188,539.185242 
	C256.044891,534.614929 256.965210,530.286865 259.244232,526.459778 
	C263.713867,518.954102 265.630859,511.695648 261.082123,503.366913 
	C258.229828,498.144440 260.408386,493.360291 264.256470,489.083710 
	C266.480530,486.612000 268.056732,483.557373 269.890594,480.394958 
M278.812378,585.637329 
	C281.869507,582.921631 285.404419,580.560852 287.791443,577.347290 
	C289.072784,575.622253 289.443176,571.644653 288.303650,570.108887 
	C286.975281,568.318542 283.507629,567.229309 281.040924,567.347900 
	C275.258423,567.625732 270.431488,570.736877 267.417725,575.542969 
	C265.938873,577.901245 265.074219,581.890930 266.098206,584.167969 
	C266.880890,585.908386 271.019348,586.363281 273.760986,586.902710 
	C275.088928,587.164001 276.637115,586.306030 278.812378,585.637329 
z"/>
<path fill="#3A749A" opacity="1.000000" stroke="none" 
	d="
M478.500488,285.071014 
	C475.099335,276.340057 472.159546,267.589447 469.111267,258.499084 
	C470.660370,256.458771 472.772278,255.012711 473.893219,253.011536 
	C477.767242,246.095291 484.036713,244.366287 490.758850,246.269760 
	C497.849213,248.277512 502.539215,245.123093 507.230316,241.119003 
	C512.907532,236.273163 518.938782,233.450180 526.617310,235.784042 
	C529.836792,236.762573 530.801331,234.923569 531.108643,231.748749 
	C531.559753,227.089600 531.978821,222.166977 533.791626,217.949844 
	C538.803589,206.290634 555.246277,206.388016 563.160828,212.785233 
	C575.431824,222.703720 581.024475,235.811661 576.829102,251.446976 
	C573.698425,263.114716 562.542297,268.394348 551.085022,263.483398 
	C546.807251,261.649811 543.124878,258.427063 538.622314,255.478439 
	C534.776733,266.631226 524.588867,268.031250 514.328918,269.382324 
	C508.512421,270.148285 506.084595,274.982697 503.533630,279.236267 
	C500.408295,284.447632 496.226715,285.943970 490.430878,285.140991 
	C486.675781,284.620758 482.789398,285.048401 478.500488,285.071014 
M543.472107,216.805573 
	C539.658569,220.496140 540.942444,224.079025 544.055115,227.214691 
	C548.660034,231.853699 554.458862,233.832672 560.884399,232.804184 
	C563.056885,232.456436 566.118286,230.923996 566.713989,229.215088 
	C567.415710,227.201752 566.554382,223.921249 565.193542,222.043335 
	C560.661621,215.789490 551.781494,213.650772 543.472107,216.805573 
z"/>
<path fill="#3A749A" opacity="1.000000" stroke="none" 
	d="
M438.067322,211.751648 
	C430.478485,206.122467 423.064423,200.174805 415.324646,194.108185 
	C414.987183,193.803345 414.975464,193.617462 414.945160,193.153061 
	C415.283630,191.284729 415.862518,189.708572 415.961273,188.102905 
	C416.542816,178.647247 418.202606,175.542709 427.151703,173.179245 
	C432.865662,171.670197 436.129608,168.361816 437.589050,163.454636 
	C440.418854,153.940125 446.010803,147.361008 455.880737,144.297928 
	C452.152802,138.104599 449.629547,132.076172 449.952271,125.153145 
	C450.351532,116.589005 458.138489,109.640816 466.668243,108.863968 
	C481.726807,107.492500 492.652679,114.057358 500.217102,126.067574 
	C503.137573,130.704468 504.656158,137.175827 504.371124,142.685028 
	C503.749756,154.693329 490.546234,161.611801 476.004059,157.536194 
	C475.241852,157.322571 474.440948,157.246887 474.520569,157.261124 
	C472.674896,162.566528 471.555084,167.899887 468.996643,172.418747 
	C467.200775,175.590683 463.156281,177.402054 460.648804,180.284531 
	C458.389526,182.881622 455.172485,186.184326 455.300323,189.045258 
	C455.781311,199.811264 451.574554,206.671829 441.367096,209.961868 
	C440.280243,210.312180 439.281616,210.936127 438.067322,211.751648 
M470.047394,114.345627 
	C466.498718,115.978462 462.470764,117.016678 459.521820,119.393570 
	C455.775055,122.413498 456.729279,126.874397 460.840515,129.203522 
	C466.716217,132.532272 477.556366,130.949478 482.223969,126.081276 
	C485.593689,122.566818 485.297791,118.267822 480.908234,116.262520 
	C477.886536,114.882118 474.244141,114.860466 470.047394,114.345627 
z"/>
<path fill="#285775" opacity="1.000000" stroke="none" 
	d="
M165.570312,343.969849 
	C167.261902,350.997101 168.593353,358.093048 169.872528,365.611145 
	C166.124542,365.351410 162.429932,364.167755 158.732758,364.159607 
	C156.157562,364.153931 153.273575,365.296448 151.066666,366.746582 
	C146.777390,369.565033 143.002914,370.959717 137.795517,368.326660 
	C135.145081,366.986511 131.030502,367.476990 127.928101,368.364563 
	C124.029045,369.480072 120.562317,370.908661 116.578583,368.619202 
	C115.890984,368.224030 113.706589,369.556335 112.802162,370.600494 
	C110.993027,372.689087 110.037102,375.712982 107.939095,377.318848 
	C101.244980,382.442505 93.377724,380.248169 89.003227,372.084595 
	C85.391884,365.345245 84.962814,358.231537 88.275848,351.171600 
	C91.954025,343.333557 100.197929,341.588470 106.706787,347.326385 
	C108.663422,349.051239 110.195442,351.257782 112.423462,353.820465 
	C116.729462,348.439911 122.632751,350.002167 128.350540,349.862579 
	C131.022400,349.797333 133.603302,347.896027 136.317474,347.171997 
	C139.391846,346.351868 143.358261,344.427216 145.557327,345.590546 
	C152.770966,349.406708 158.904480,347.471100 165.570312,343.969849 
z"/>
<path fill="#285775" opacity="1.000000" stroke="none" 
	d="
M394.912415,180.668762 
	C389.082550,179.137222 383.328491,177.217316 377.271912,175.101578 
	C380.200195,169.857315 384.403870,165.343323 382.185181,158.259491 
	C381.595673,156.377380 383.641907,152.311935 385.571533,151.265503 
	C390.426086,148.632889 392.449005,144.997818 393.767242,139.817780 
	C394.774445,135.859909 397.852692,132.429108 400.322906,128.231628 
	C396.546173,124.022408 393.535065,118.341675 397.658569,112.116859 
	C399.451385,109.410423 402.926575,106.962059 406.081879,106.173248 
	C416.000763,103.693520 429.103424,112.870789 430.825165,122.834084 
	C431.659119,127.659912 425.800507,134.725357 420.660797,135.009277 
	C418.697601,135.117706 416.723419,135.026917 414.016724,135.026917 
	C415.523621,142.599487 411.328522,147.473984 407.382874,152.592636 
	C406.308472,153.986465 405.565399,156.714859 406.199738,158.158890 
	C408.876434,164.251999 404.478271,166.606186 401.158051,170.108841 
	C398.491882,172.921524 397.000793,176.848099 394.912415,180.668762 
z"/>
<path fill="#265573" opacity="1.000000" stroke="none" 
	d="
M440.333771,435.003052 
	C444.768494,429.372040 449.579468,423.804382 454.703491,418.114197 
	C456.148834,419.584290 457.510315,421.062866 458.370819,422.790894 
	C461.037537,428.145996 465.713074,430.897797 471.180389,431.753021 
	C475.468018,432.423737 476.536407,435.178741 478.129364,438.329163 
	C479.509033,441.057739 481.309265,444.213409 483.802612,445.602692 
	C488.630676,448.292847 492.585663,451.224670 493.436554,456.820526 
	C497.357910,456.443726 501.061279,455.395905 504.545258,455.891235 
	C512.846252,457.071381 515.026062,460.067993 515.012451,468.458282 
	C514.996460,478.315155 504.105011,488.598022 494.348511,487.967651 
	C488.245667,487.573364 484.040833,483.126160 484.025146,476.937347 
	C484.019318,474.628937 484.448181,472.297699 484.225525,470.021210 
	C484.123047,468.973541 482.991516,467.234253 482.219971,467.174011 
	C477.508942,466.806152 474.529968,464.092743 472.587128,460.250031 
	C470.365356,455.855530 466.625946,454.758698 462.236572,453.835815 
	C460.051666,453.376434 456.990906,451.353455 456.514435,449.480988 
	C454.351440,440.981110 448.628265,436.956909 440.333771,435.003052 
M510.976379,467.672302 
	C510.647095,466.230011 510.557190,464.674011 509.937469,463.369720 
	C508.738708,460.846954 506.816193,459.361816 503.955475,461.032349 
	C500.692444,462.937866 499.856689,470.351471 502.981445,473.614014 
	C504.136719,474.820251 506.859131,474.694946 508.883301,474.778809 
	C509.380402,474.799377 510.152039,473.320984 510.423492,472.419159 
	C510.798920,471.171997 510.820099,469.818207 510.976379,467.672302 
z"/>
<path fill="#265573" opacity="1.000000" stroke="none" 
	d="
M329.963379,488.507202 
	C336.952148,487.073730 343.966675,486.016235 351.401978,484.946625 
	C348.500977,492.010437 347.150269,498.951263 352.437286,505.861359 
	C354.801788,508.951843 354.450134,512.326965 352.227478,515.539551 
	C349.656647,519.255310 350.078400,523.072205 351.036224,527.373535 
	C351.931793,531.395325 351.227814,535.773193 351.227814,539.994385 
	C350.728577,540.090515 350.229340,540.186584 349.730072,540.282715 
	C350.631287,540.899963 351.453705,541.727234 352.446686,542.099670 
	C358.210663,544.261536 361.168457,548.227051 361.011017,554.505371 
	C360.852020,560.844971 356.494781,563.754517 351.617096,566.121155 
	C344.245209,569.697937 334.952698,567.761536 329.041840,562.733276 
	C322.655182,557.300232 325.138641,547.864319 330.388855,544.317993 
	C331.884277,543.307922 333.441833,542.389771 335.406982,541.155640 
	C331.753357,535.656372 331.367798,529.758118 333.611450,523.460815 
	C334.062286,522.195374 332.852875,519.986816 331.852692,518.620239 
	C328.466003,513.993103 327.777466,509.306488 330.894714,504.348846 
	C334.290588,498.948029 331.941528,493.940338 329.963379,488.507202 
M345.378082,555.088684 
	C345.333771,557.567322 345.289490,560.046021 345.245178,562.524658 
	C347.400726,562.387390 350.374603,563.081726 351.538269,561.936584 
	C353.829651,559.681824 355.303162,556.489929 356.655670,553.479370 
	C356.915527,552.900940 354.679443,550.305420 354.254822,550.459473 
	C351.334320,551.519226 348.589264,553.062378 345.378082,555.088684 
z"/>
<path fill="#265573" opacity="1.000000" stroke="none" 
	d="
M208.578979,440.055023 
	C213.820953,444.439911 218.750366,448.996521 223.871521,453.834167 
	C217.027679,457.028381 211.849487,461.277374 210.398422,469.501740 
	C210.044464,471.507874 206.302521,473.987701 203.851517,474.328033 
	C198.846283,475.022980 196.695068,478.295959 194.049118,481.755280 
	C192.166962,484.216003 189.608475,486.599365 186.826462,487.814056 
	C183.751190,489.156830 182.848068,490.210815 183.914444,493.564880 
	C187.224243,503.975250 179.881195,511.600708 169.177643,509.019501 
	C160.687180,506.971985 154.639557,501.446381 153.346603,493.114777 
	C151.536484,481.450684 156.014481,476.079010 169.203461,478.363281 
	C172.823303,478.990204 173.409302,477.758606 174.977020,475.338501 
	C176.952209,472.289368 179.579895,469.358154 182.582855,467.366180 
	C185.520340,465.417633 187.664383,463.721832 188.248001,459.949371 
	C188.927994,455.553894 190.841812,452.253937 196.350815,451.600830 
	C202.694901,450.848785 206.130112,445.959381 208.578979,440.055023 
M178.029831,503.700806 
	C181.123032,500.482483 179.520844,497.701965 176.297119,496.865540 
	C173.144791,496.047577 169.334717,496.238037 166.211624,497.234283 
	C162.601166,498.386017 162.454453,502.705597 166.023346,503.812042 
	C169.513428,504.894043 173.588608,504.088898 178.029831,503.700806 
z"/>
<path fill="#265573" opacity="1.000000" stroke="none" 
	d="
M485.471344,330.015503 
	C484.372742,327.072021 483.383423,324.158813 483.091980,321.177368 
	C482.756042,317.741180 483.036407,314.244781 483.073517,310.294525 
	C489.717377,313.578308 496.197174,313.266815 502.533051,309.127625 
	C506.034607,306.840118 509.842926,307.832001 512.149048,310.171021 
	C515.429016,313.497742 518.741089,312.588928 522.081543,311.753265 
	C527.130554,310.490204 531.824219,310.293640 536.174316,314.075867 
	C537.842285,311.778992 539.359497,309.704437 540.861389,307.618927 
	C545.950439,300.552185 554.873108,301.599823 560.487061,308.951630 
	C565.296448,315.249878 564.770386,328.048615 559.569031,334.037537 
	C553.138672,341.441559 544.353699,340.685638 538.950134,332.234650 
	C538.168274,331.011780 537.556824,329.679901 536.530884,327.775482 
	C531.080872,331.496613 525.583252,331.539795 519.602783,329.330597 
	C517.682800,328.621307 514.506409,330.113464 512.390808,331.398499 
	C508.686737,333.648468 505.167725,334.669342 501.457886,331.931000 
	C496.581390,328.331543 491.354889,328.399597 485.471344,330.015503 
M556.956970,310.569122 
	C555.767700,309.695648 554.674927,308.318298 553.366394,308.067627 
	C551.438660,307.698395 548.628418,307.385834 547.550537,308.438324 
	C546.517578,309.446838 546.392700,312.831970 547.325867,314.101196 
	C549.169189,316.608154 551.730164,319.010406 554.527954,320.282684 
	C557.827332,321.783081 560.407532,319.126129 559.596985,315.514099 
	C559.250244,313.968689 558.193237,312.582642 556.956970,310.569122 
z"/>
<path fill="#265573" opacity="1.000000" stroke="none" 
	d="
M228.845642,197.562714 
	C223.926407,201.838074 218.846603,205.820099 213.449982,209.919312 
	C212.219986,203.845108 209.282959,199.247726 203.104263,197.122025 
	C198.803223,195.642303 197.169861,192.543503 196.850967,188.032410 
	C196.669434,185.464615 195.648804,182.065063 193.786392,180.679642 
	C188.839157,176.999542 185.265991,172.953659 185.865936,166.030029 
	C183.004196,166.397369 180.759552,166.986374 178.535126,166.917923 
	C169.836807,166.650253 164.774643,160.113251 167.161789,151.228653 
	C170.132843,140.170898 179.750565,134.673523 190.285553,136.283569 
	C198.192001,137.491913 201.619049,144.067276 199.118851,151.852982 
	C198.475723,153.855713 197.534393,155.762695 196.461105,158.365982 
	C204.082138,159.091507 205.605270,165.468246 208.307938,171.082794 
	C209.255371,173.051010 211.627014,175.161026 213.691772,175.603439 
	C219.121307,176.766830 220.565460,180.774765 220.815109,185.048859 
	C221.155029,190.868607 224.207672,194.394775 228.845642,197.562714 
M180.496872,153.901947 
	C180.711060,150.238632 181.402496,145.622223 176.300385,145.467178 
	C171.563354,145.323227 171.206039,149.857651 170.950195,153.591248 
	C170.871521,154.739304 170.755157,156.077484 171.243912,157.025543 
	C171.939926,158.375610 173.020493,160.172363 174.228760,160.435013 
	C175.478210,160.706589 177.362106,159.673523 178.438858,158.652573 
	C179.432281,157.710648 179.723282,156.027924 180.496872,153.901947 
z"/>
<path fill="#285775" opacity="1.000000" stroke="none" 
	d="
M169.931931,366.419312 
	C170.075592,366.406494 170.253906,366.617798 170.565308,366.981506 
	C170.356888,367.112000 170.112930,366.948517 169.931931,366.419312 
z"/>
<path fill="#4483A2" opacity="1.000000" stroke="none" 
	d="
M380.034485,236.941345 
	C380.260406,237.484207 380.486328,238.027069 380.572998,239.041779 
	C373.667908,248.736359 364.223724,253.610184 353.145569,254.117752 
	C340.887787,254.679367 328.537170,254.372604 316.282715,253.580917 
	C296.894562,252.328400 278.334351,253.958557 261.777954,265.398315 
	C260.280029,266.433289 258.606934,267.242554 256.947906,268.011475 
	C251.717667,270.435638 246.251022,271.497925 241.274567,267.920532 
	C235.880768,264.043091 235.309601,258.102478 236.442444,252.114868 
	C236.987762,249.232605 238.555359,246.544479 239.653412,243.765823 
	C240.442566,241.768829 241.220795,239.767502 242.003891,237.768112 
	C246.859375,233.709885 251.714844,229.651642 256.976929,225.176117 
	C257.603821,224.503891 257.824127,224.248917 258.044403,223.993958 
	C258.044403,223.993958 258.004333,224.006165 258.325317,223.901657 
	C260.504669,222.689819 262.380188,221.610107 264.218842,220.470932 
	C284.837860,207.696396 306.954468,200.655792 331.523865,201.938782 
	C353.563873,203.089691 372.462616,216.440872 380.034485,236.941345 
z"/>
<path fill="#266588" opacity="1.000000" stroke="none" 
	d="
M345.672729,433.879944 
	C345.989441,434.044525 346.000305,434.497192 345.631958,434.792694 
	C343.061493,435.840942 340.802551,436.459869 338.665894,437.366852 
	C312.153870,448.621185 284.566589,452.172913 256.028351,449.008667 
	C254.924057,448.728638 253.819748,448.448639 252.385727,448.088501 
	C247.966965,444.617493 243.786865,441.329651 239.807175,437.814972 
	C230.583862,429.669342 223.047272,420.239624 218.493607,408.674805 
	C214.081741,397.470123 215.546082,388.305817 222.986618,381.556793 
	C229.836716,375.343292 238.036148,374.852478 246.445374,377.089417 
	C255.687775,379.548004 263.074860,385.301910 270.072510,391.569977 
	C278.126251,398.784088 286.104004,406.086456 294.275879,413.164459 
	C305.416473,422.813782 318.317841,428.378937 333.069397,429.952606 
	C337.251160,430.398712 341.265137,432.417755 345.672729,433.879944 
z"/>
<path fill="#5A8FB0" opacity="1.000000" stroke="none" 
	d="
M241.742676,237.997070 
	C241.220795,239.767502 240.442566,241.768829 239.653412,243.765823 
	C238.555359,246.544479 236.987762,249.232605 236.442444,252.114868 
	C235.309601,258.102478 235.880768,264.043091 241.274567,267.920532 
	C246.251022,271.497925 251.717667,270.435638 256.947906,268.011475 
	C258.606934,267.242554 260.280029,266.433289 261.777954,265.398315 
	C278.334351,253.958557 296.894562,252.328400 316.282715,253.580917 
	C328.537170,254.372604 340.887787,254.679367 353.145569,254.117752 
	C364.223724,253.610184 373.667908,248.736359 380.683105,239.314392 
	C384.442688,254.384506 380.315247,267.403931 368.932648,278.708282 
	C368.508972,279.005737 368.030609,279.052765 367.753967,278.849609 
	C359.627655,272.795105 350.847961,269.438599 341.519745,273.547150 
	C332.139313,277.678711 330.369232,286.776031 330.021790,296.291016 
	C329.959839,296.478333 329.844849,296.855774 329.844849,296.855774 
	C323.185333,297.590332 316.525787,298.324890 309.423248,298.621216 
	C308.557648,285.087952 300.684448,275.633698 288.158844,273.178711 
	C276.428101,270.879547 266.355621,274.401154 256.823669,281.238281 
	C246.505630,288.639313 242.623352,307.133026 253.393875,316.173218 
	C246.519409,320.691620 239.699722,325.297363 232.732727,329.668304 
	C230.943085,330.791046 228.688934,331.173340 226.075134,331.940613 
	C225.502106,331.985382 225.077271,331.845276 225.162964,331.454956 
	C227.070953,320.246246 229.107803,309.458527 230.661270,298.601654 
	C232.606476,285.006989 226.249023,277.341675 213.145859,276.908051 
	C220.272614,262.315735 229.766922,249.457687 241.742676,237.997070 
z"/>
<path fill="#266588" opacity="1.000000" stroke="none" 
	d="
M442.731628,289.723755 
	C443.265930,291.676086 443.551849,293.409515 443.683136,295.810089 
	C443.037933,298.030945 442.200500,299.564423 442.108337,301.141449 
	C440.474335,329.097931 430.582214,354.077454 414.953461,377.013641 
	C414.953461,377.013641 414.457947,377.017975 414.209808,377.021057 
	C404.933960,372.809296 400.525208,365.299805 401.190613,355.781738 
	C401.927856,345.236481 403.595642,334.680206 405.807281,324.331604 
	C409.288300,308.043335 410.495392,292.201172 402.973511,276.547333 
	C399.924652,270.202301 401.179108,265.664062 405.167389,262.505981 
	C409.257355,259.267365 415.245850,259.322723 420.571564,262.749756 
	C428.953094,268.143188 434.072052,276.348419 439.211517,284.530029 
	C440.267059,286.210327 441.390900,287.847717 442.731628,289.723755 
z"/>
<path fill="#266588" opacity="1.000000" stroke="none" 
	d="
M329.961731,297.252075 
	C329.844849,296.855774 329.959839,296.478333 330.418671,296.248352 
	C344.582947,293.256165 357.424988,288.603210 368.030609,279.052765 
	C368.030609,279.052765 368.508972,279.005737 368.748291,278.984192 
	C372.068268,282.215668 375.286407,285.350403 378.204346,288.743317 
	C387.976807,300.106720 392.145996,312.991455 386.759613,327.491760 
	C385.040924,332.118317 381.631958,336.485687 378.023376,339.961365 
	C371.403290,346.337555 363.178314,346.760834 355.156128,341.291656 
	C341.830505,332.206787 334.726196,318.941650 331.233032,303.512024 
	C330.793365,301.569916 330.460815,299.603546 329.961731,297.252075 
z"/>
<path fill="#266588" opacity="1.000000" stroke="none" 
	d="
M312.167084,371.099182 
	C305.039642,379.661621 296.245483,382.255554 285.961029,379.650818 
	C275.543610,377.012390 269.056549,370.223724 266.021484,359.962219 
	C261.825195,345.774750 275.616913,326.386993 296.428253,330.385620 
	C315.067139,333.966797 323.315887,354.649567 312.167084,371.099182 
z"/>
<path fill="#266588" opacity="1.000000" stroke="none" 
	d="
M373.027283,419.984375 
	C372.522461,419.738983 372.017670,419.493561 371.260315,419.126404 
	C358.881439,413.517151 347.884216,406.601776 340.622375,394.966278 
	C340.007141,393.980469 339.327698,393.023102 338.821808,391.982666 
	C335.757324,385.680542 334.364258,379.210205 339.047546,373.177521 
	C343.639191,367.262909 350.491547,365.545837 356.994843,367.972290 
	C364.638062,370.824066 371.760590,375.237732 378.807800,379.474854 
	C386.189148,383.912842 393.213257,388.944977 400.503906,394.142609 
	C394.352417,400.421722 388.109283,406.295959 381.820251,412.120575 
	C378.935760,414.792053 375.961090,417.366150 373.027283,419.984375 
z"/>
<path fill="#4483A2" opacity="1.000000" stroke="none" 
	d="
M253.690796,316.168488 
	C242.623352,307.133026 246.505630,288.639313 256.823669,281.238281 
	C266.355621,274.401154 276.428101,270.879547 288.158844,273.178711 
	C300.684448,275.633698 308.557648,285.087952 308.981293,298.619690 
	C308.770447,299.267731 308.555267,299.475830 307.738586,299.835571 
	C288.621796,301.516449 270.913452,305.646912 255.187851,316.151398 
	C254.787796,316.155518 254.387756,316.159637 253.690796,316.168488 
z"/>
<path fill="#4483A2" opacity="1.000000" stroke="none" 
	d="
M212.957947,277.092621 
	C226.249023,277.341675 232.606476,285.006989 230.661270,298.601654 
	C229.107803,309.458527 227.070953,320.246246 224.693207,331.500732 
	C220.483307,331.905609 216.785294,332.223755 213.183044,331.774292 
	C204.284668,330.663940 199.019516,324.044281 200.697693,315.323181 
	C202.323776,306.872772 204.818024,298.581146 207.126907,290.274231 
	C208.189789,286.450256 209.720505,282.756317 211.039093,279.003418 
	C211.039093,279.003418 211.001678,278.984436 211.185669,278.855469 
	C211.606079,278.504974 211.818756,278.262573 212.007721,277.999390 
	C212.261826,277.758667 212.515930,277.517944 212.957947,277.092621 
z"/>
<path fill="#1C567C" opacity="1.000000" stroke="none" 
	d="
M373.401581,420.074768 
	C375.961090,417.366150 378.935760,414.792053 381.820251,412.120575 
	C388.109283,406.295959 394.352417,400.421722 400.811829,394.304199 
	C401.009369,394.040649 401.488983,393.979340 401.728760,393.950653 
	C408.895447,395.295654 415.794434,396.840240 422.759888,397.977844 
	C426.839294,398.644135 430.929382,399.135193 432.403778,403.667542 
	C433.944763,408.404663 432.697357,412.771729 428.588074,415.622253 
	C425.497650,417.765991 422.019775,419.623932 418.443512,420.745087 
	C406.137177,424.603302 393.615875,425.056122 381.029083,422.004181 
	C378.605225,421.416443 376.193298,420.779449 373.401581,420.074768 
z"/>
<path fill="#276688" opacity="1.000000" stroke="none" 
	d="
M210.717667,279.121948 
	C209.720505,282.756317 208.189789,286.450256 207.126907,290.274231 
	C204.818024,298.581146 202.323776,306.872772 200.697693,315.323181 
	C199.019516,324.044281 204.284668,330.663940 213.183044,331.774292 
	C216.785294,332.223755 220.483307,331.905609 224.607513,331.891022 
	C225.077271,331.845276 225.502106,331.985382 225.714661,332.054626 
	C227.091003,337.424316 228.059601,342.777802 229.481140,348.008240 
	C230.591736,352.094543 232.423477,356.354614 228.205902,359.394073 
	C224.077942,362.368988 219.068832,361.726044 215.818954,358.292267 
	C210.866821,353.059906 205.843307,347.449127 202.635498,341.097351 
	C193.808670,323.619385 193.426163,305.612640 202.659302,288.020264 
	C204.420532,284.664490 207.776215,282.145538 210.717667,279.121948 
z"/>
<path fill="#286688" opacity="1.000000" stroke="none" 
	d="
M380.290222,236.697464 
	C372.462616,216.440872 353.563873,203.089691 331.523865,201.938782 
	C306.954468,200.655792 284.837860,207.696396 264.218842,220.470932 
	C262.380188,221.610107 260.504669,222.689819 258.319885,223.921875 
	C261.973389,220.614609 265.573730,216.563736 269.995392,213.852081 
	C296.694458,197.478424 325.282532,192.467026 355.645630,201.280167 
	C366.686768,204.484940 376.884064,209.533371 381.568024,221.248398 
	C383.629089,226.403473 383.949280,231.592239 380.290222,236.697464 
z"/>
<path fill="#276688" opacity="1.000000" stroke="none" 
	d="
M255.344757,316.438232 
	C270.913452,305.646912 288.621796,301.516449 307.576050,299.990967 
	C306.809845,307.467896 302.606445,312.834076 295.344910,314.483948 
	C285.012268,316.831604 274.492706,318.498230 263.970093,319.769440 
	C261.308716,320.090973 258.332977,317.810089 255.344757,316.438232 
z"/>
<path fill="#598EB0" opacity="1.000000" stroke="none" 
	d="
M250.740479,86.521057 
	C249.434479,92.412071 247.312500,97.383003 242.249695,100.447174 
	C236.674606,103.821381 231.688934,101.476410 232.228760,95.110672 
	C232.627777,90.405350 234.539810,85.571342 236.823975,81.362442 
	C238.725082,77.859322 242.467514,75.293564 246.890411,76.859985 
	C251.139725,78.364922 251.068069,82.350998 250.740479,86.521057 
z"/>
<path fill="#598EB0" opacity="1.000000" stroke="none" 
	d="
M312.977539,72.125420 
	C316.835266,69.344406 320.193298,66.118805 324.199188,64.581322 
	C329.014832,62.733074 332.192596,65.836632 332.016541,71.051643 
	C331.774078,78.235909 323.475159,86.616432 316.311523,86.798843 
	C312.312866,86.900658 309.704346,84.939461 310.126526,80.831444 
	C310.420532,77.970337 311.845245,75.225410 312.977539,72.125420 
z"/>
<path fill="#598EB0" opacity="1.000000" stroke="none" 
	d="
M104.176582,436.653717 
	C110.271797,440.895172 112.129822,444.362061 110.507126,448.035309 
	C109.054886,451.322662 103.879623,453.023407 98.047859,451.367676 
	C94.638321,450.399658 91.048851,448.856323 88.482613,446.531586 
	C86.621986,444.846039 85.006432,441.042023 85.671547,438.938263 
	C86.330864,436.852783 89.914368,434.569305 92.338791,434.423370 
	C96.120155,434.195770 100.005730,435.699554 104.176582,436.653717 
z"/>
<path fill="#598EB0" opacity="1.000000" stroke="none" 
	d="
M91.037201,209.147766 
	C99.968376,211.146088 105.884773,223.403168 102.153442,231.367569 
	C100.531868,234.828751 97.040489,235.894852 93.361252,234.052277 
	C87.293732,231.013641 83.028168,218.673340 86.250488,212.621094 
	C87.053123,211.113556 89.150154,210.295197 91.037201,209.147766 
z"/>
<path fill="#286688" opacity="1.000000" stroke="none" 
	d="
M257.897461,224.058716 
	C257.824127,224.248917 257.603821,224.503891 257.202118,224.936432 
	C257.263977,224.783844 257.507233,224.453659 257.897461,224.058716 
z"/>
<path fill="#276688" opacity="1.000000" stroke="none" 
	d="
M211.830627,278.163116 
	C211.818756,278.262573 211.606079,278.504974 211.178329,278.875122 
	C211.197235,278.779999 211.419418,278.547699 211.830627,278.163116 
z"/>
<path fill="#1C567C" opacity="1.000000" stroke="none" 
	d="
M256.289246,449.221802 
	C284.566589,452.172913 312.153870,448.621185 338.665894,437.366852 
	C340.802551,436.459869 343.061493,435.840942 345.636841,435.019043 
	C351.144958,441.452362 350.073242,451.014191 342.318420,455.076843 
	C335.419312,458.691223 327.531921,461.278534 319.813080,462.302979 
	C299.047089,465.059052 279.021301,461.802155 260.342346,451.834442 
	C259.026245,451.132172 257.811859,450.239227 256.289246,449.221802 
z"/>
<path fill="#1C567C" opacity="1.000000" stroke="none" 
	d="
M415.324554,377.162323 
	C430.582214,354.077454 440.474335,329.097931 442.108337,301.141449 
	C442.200500,299.564423 443.037933,298.030945 443.772400,296.172028 
	C453.442932,321.194611 451.525482,345.481476 436.663940,368.226746 
	C431.921295,375.485260 424.922607,379.453705 415.324554,377.162323 
z"/>
<path fill="#598EB0" opacity="1.000000" stroke="none" 
	d="
M489.937134,534.044067 
	C484.451111,536.814941 481.491455,535.877686 479.400177,530.723694 
	C476.827301,524.382690 477.719879,518.219849 481.383698,512.600586 
	C484.756836,507.427155 490.664398,507.922607 493.114807,513.610901 
	C496.218811,520.816467 494.939514,527.603516 489.937134,534.044067 
z"/>
<path fill="#598EB0" opacity="1.000000" stroke="none" 
	d="
M553.702759,420.040131 
	C553.085571,416.102448 552.063599,412.478455 552.320984,408.947662 
	C552.673401,404.112457 556.700806,402.272919 561.052368,404.344330 
	C567.661560,407.490479 572.167908,418.794403 569.482300,425.490448 
	C568.128601,428.865723 564.250488,430.373047 560.747314,427.982025 
	C558.005493,426.110687 556.129089,422.971344 553.702759,420.040131 
z"/>
<path fill="#598EB0" opacity="1.000000" stroke="none" 
	d="
M278.448975,585.796021 
	C276.637115,586.306030 275.088928,587.164001 273.760986,586.902710 
	C271.019348,586.363281 266.880890,585.908386 266.098206,584.167969 
	C265.074219,581.890930 265.938873,577.901245 267.417725,575.542969 
	C270.431488,570.736877 275.258423,567.625732 281.040924,567.347900 
	C283.507629,567.229309 286.975281,568.318542 288.303650,570.108887 
	C289.443176,571.644653 289.072784,575.622253 287.791443,577.347290 
	C285.404419,580.560852 281.869507,582.921631 278.448975,585.796021 
z"/>
<path fill="#598EB0" opacity="1.000000" stroke="none" 
	d="
M543.800903,216.590332 
	C551.781494,213.650772 560.661621,215.789490 565.193542,222.043335 
	C566.554382,223.921249 567.415710,227.201752 566.713989,229.215088 
	C566.118286,230.923996 563.056885,232.456436 560.884399,232.804184 
	C554.458862,233.832672 548.660034,231.853699 544.055115,227.214691 
	C540.942444,224.079025 539.658569,220.496140 543.800903,216.590332 
z"/>
<path fill="#598EB0" opacity="1.000000" stroke="none" 
	d="
M470.463257,114.288574 
	C474.244141,114.860466 477.886536,114.882118 480.908234,116.262520 
	C485.297791,118.267822 485.593689,122.566818 482.223969,126.081276 
	C477.556366,130.949478 466.716217,132.532272 460.840515,129.203522 
	C456.729279,126.874397 455.775055,122.413498 459.521820,119.393570 
	C462.470764,117.016678 466.498718,115.978462 470.463257,114.288574 
z"/>
<path fill="#40728D" opacity="1.000000" stroke="none" 
	d="
M510.984711,468.091187 
	C510.820099,469.818207 510.798920,471.171997 510.423492,472.419159 
	C510.152039,473.320984 509.380402,474.799377 508.883301,474.778809 
	C506.859131,474.694946 504.136719,474.820251 502.981445,473.614014 
	C499.856689,470.351471 500.692444,462.937866 503.955475,461.032349 
	C506.816193,459.361816 508.738708,460.846954 509.937469,463.369720 
	C510.557190,464.674011 510.647095,466.230011 510.984711,468.091187 
z"/>
<path fill="#40728D" opacity="1.000000" stroke="none" 
	d="
M345.582916,554.769409 
	C348.589264,553.062378 351.334320,551.519226 354.254822,550.459473 
	C354.679443,550.305420 356.915527,552.900940 356.655670,553.479370 
	C355.303162,556.489929 353.829651,559.681824 351.538269,561.936584 
	C350.374603,563.081726 347.400726,562.387390 345.245178,562.524658 
	C345.289490,560.046021 345.333771,557.567322 345.582916,554.769409 
z"/>
<path fill="#40728D" opacity="1.000000" stroke="none" 
	d="
M177.718384,503.906433 
	C173.588608,504.088898 169.513428,504.894043 166.023346,503.812042 
	C162.454453,502.705597 162.601166,498.386017 166.211624,497.234283 
	C169.334717,496.238037 173.144791,496.047577 176.297119,496.865540 
	C179.520844,497.701965 181.123032,500.482483 177.718384,503.906433 
z"/>
<path fill="#40728D" opacity="1.000000" stroke="none" 
	d="
M557.207947,310.846649 
	C558.193237,312.582642 559.250244,313.968689 559.596985,315.514099 
	C560.407532,319.126129 557.827332,321.783081 554.527954,320.282684 
	C551.730164,319.010406 549.169189,316.608154 547.325867,314.101196 
	C546.392700,312.831970 546.517578,309.446838 547.550537,308.438324 
	C548.628418,307.385834 551.438660,307.698395 553.366394,308.067627 
	C554.674927,308.318298 555.767700,309.695648 557.207947,310.846649 
z"/>
<path fill="#40728D" opacity="1.000000" stroke="none" 
	d="
M180.410278,154.286713 
	C179.723282,156.027924 179.432281,157.710648 178.438858,158.652573 
	C177.362106,159.673523 175.478210,160.706589 174.228760,160.435013 
	C173.020493,160.172363 171.939926,158.375610 171.243912,157.025543 
	C170.755157,156.077484 170.871521,154.739304 170.950195,153.591248 
	C171.206039,149.857651 171.563354,145.323227 176.300385,145.467178 
	C181.402496,145.622223 180.711060,150.238632 180.410278,154.286713 
z"/>
<path fill="#4483A2" opacity="1.000000" stroke="none" 
	d="
M367.753967,278.849609 
	C357.424988,288.603210 344.582947,293.256165 330.480652,296.061035 
	C330.369232,286.776031 332.139313,277.678711 341.519745,273.547150 
	C350.847961,269.438599 359.627655,272.795105 367.753967,278.849609 
z"/>
</svg>